<?xml version="1.0" standalone="no"?>
<!DOCTYPE svg PUBLIC "-//W3C//DTD SVG 1.1//EN" "http://www.w3.org/Graphics/SVG/1.1/DTD/svg11.dtd" >
<svg xmlns="http://www.w3.org/2000/svg" xmlns:xlink="http://www.w3.org/1999/xlink" version="1.1">
<metadata>
Created by FontForge 20201107 at Thu Jun  5 21:46:18 2025
 By 
Copyright 2024 The Arad Project Authors (https://github.com/MDarvishi5124/Arad)
</metadata>
<defs>
<font id="AradVFtest21-ExtraLight" horiz-adv-x="0" >
  <font-face 
    font-family="Arad-VF-test21 ExtraLight"
    font-weight="200"
    font-stretch="normal"
    units-per-em="2240"
    panose-1="0 0 0 0 0 0 0 0 0 0"
    ascent="1792"
    descent="-448"
    x-height="1062"
    cap-height="1443"
    bbox="-369 -1165 3143 2298"
    underline-thickness="40"
    underline-position="-785"
    unicode-range="U+000D-FEFC"
  />
<missing-glyph horiz-adv-x="1300" 
d="M1157 0h-1014v1400h1014v-1400zM264 1279v-1158h772v1158h-772z" />
    <glyph glyph-name="uni0626" unicode="&#x649;&#x654;" horiz-adv-x="1624" 
d="M867 -452q190 0 339 88t169 258q14 112 -39 158.5t-171 51.5l-411 21l16 322q11 159 110 260.5t255 101.5h300v-96h-299q-114 0 -186.5 -77t-81.5 -190l-15 -233l324 -16q158 -7 239 -78.5t55 -228.5q-32 -200 -200.5 -319.5t-404.5 -119.5h-154q-217 0 -330 79t-168 213
t-55 279q0 177 28 281t63 193l90 -38q-28 -65 -56.5 -165.5t-28.5 -262.5q0 -188 93.5 -334.5t363.5 -147.5h155zM102 833l144 58q-58 21 -94.5 71.5t-37.5 116.5q0 53 26.5 101.5t74 78.5t109.5 30q37 1 65 -8t62 -26q12 -5 17 -8l-16 -59q-8 3 -23 10q-30 14 -53 21t-52 7
q-64 0 -105 -45t-41 -102q-1 -54 37 -98t107 -61l206 82v-67l-426 -170v68z" />
    <glyph glyph-name="uni06C0" unicode="&#x647;&#x654;" horiz-adv-x="1035" 
d="M333 581.5q-85 -118.5 -85 -234.5q0 -81 39.5 -140.5t102.5 -90.5t130 -31q68 0 131 30.5t102.5 90t39.5 141.5q0 90 -67.5 207t-199.5 241q-108 -95 -193 -213.5zM378 921l60 74l39 -31q201 -164 305.5 -323.5t104.5 -292.5q0 -110 -52.5 -191t-137 -123t-177.5 -42
t-177.5 43.5t-136.5 124.5t-52 188q0 100 59 205.5t129.5 184t116.5 116.5zM249 1273q167 -3 258 31t91 123l-1 56h-233q-19 0 -35 16.5t-16 36.5v98q0 54 27.5 100.5t74 73.5t99.5 27h134v-61h-134q-57 0 -98.5 -41.5t-41.5 -98.5v-93l284 1l1 -117q0 -102 -93.5 -159.5
t-316.5 -55.5v63z" />
    <glyph glyph-name="uniFBA70654" unicode="&#xfba7;&#x654;" horiz-adv-x="1184" 
d="M171 7l37 297q14 115 87.5 204t183.5 127l318 106l63 -41l34 -380q11 -97 80.5 -158.5t165.5 -61.5h44v-100h-44q-88 0 -163 41t-122.5 112t-54.5 158l-30 319l-261 -86q-83 -28 -139 -96.5t-67 -155.5l-37 -297zM269 1018l144 58q-58 21 -94.5 71.5t-37.5 116.5
q0 53 26.5 101.5t74 78.5t109.5 30q37 1 65 -8t62 -26q12 -5 17 -8l-16 -59q-8 3 -23 10q-30 14 -53 21t-52 7q-64 0 -105 -45t-41 -102q-1 -54 37 -98t107 -61l206 82v-67l-426 -170v68z" />
    <glyph glyph-name="uE115" unicode="&#xe091;&#xfe8e;" horiz-adv-x="1194" 
d="M212 1426h95v-1104h-95v1104zM762.5 133q56.5 33 89.5 89.5t33 123.5v1080h96v-1084q0 -93 -46 -171.5t-124.5 -124.5t-171.5 -46h-427v100h427q67 0 123.5 33zM909 1745l-263 303l85 1l202 -231l203 231l85 -1l-263 -303h-49z" />
    <glyph glyph-name="uE116" unicode="&#xe092;&#xfe8e;" horiz-adv-x="1281" 
d="M762.5 133q56.5 33 89.5 89.5t33 123.5v1080h96v-1080q0 -67 33 -123.5t90 -89.5t124 -33h71v-100h-71q-100 0 -178.5 53t-116.5 140q-37 -87 -116 -140t-178 -53h-427v100h427q67 0 123.5 33zM212 1426h95v-1104h-95v1104zM909 1745l-263 303l85 1l202 -231l203 231
l85 -1l-263 -303h-49z" />
    <glyph glyph-name="uE117" unicode="&#xe091;&#xfe82;" horiz-adv-x="1193" 
d="M191 1310l94 5l52 -990l-94 -5zM761.5 133q56.5 33 89.5 89.5t33 123.5v1143h96v-1147q0 -93 -46 -171.5t-124.5 -124.5t-171.5 -46h-433v100h433q67 0 123.5 33zM-151 1333l50 124q31 78 100 125t153 47h425v-75h-425q-61 1 -111 -33t-73 -91l-49 -125zM909 1746
l-263 302l85 1l203 -231l203 231l85 -1l-263 -302h-50z" />
    <glyph glyph-name="uE118" unicode="&#xe092;&#xfe82;" horiz-adv-x="1281" 
d="M1226 0q-99 0 -177.5 53t-116.5 140q-37 -87 -116 -140t-178 -53h-433v100h433q67 0 123.5 33t89.5 89.5t33 123.5v1143h96v-1143q0 -67 33 -123.5t89.5 -89.5t123.5 -33h54v-100h-54zM191 1310l94 5l52 -990l-94 -5zM-134 1333l50 124q31 78 100 125t153 47h425v-75
h-425q-61 1 -111 -33t-73 -91l-49 -125zM926 1746l-263 302l85 1l203 -231l203 231l85 -1l-263 -302h-50z" />
    <glyph glyph-name="uE120" unicode="&#xe091;&#x675;" horiz-adv-x="1192" 
d="M191 1310l94 5l52 -990l-94 -5zM761.5 133q56.5 33 89.5 89.5t33 123.5v1143h96v-1147q0 -93 -46 -171.5t-124.5 -124.5t-171.5 -46h-433v100h433q67 0 123.5 33zM55 1571l144 58q-58 21 -94.5 71.5t-37.5 116.5q0 53 26.5 101.5t74 78.5t109.5 30q37 1 65 -8t62 -26
q12 -5 17 -8l-16 -59q-8 3 -23 10q-30 14 -53 21t-52 7q-64 0 -105 -45t-41 -102q-1 -54 37 -98t107 -61l206 82v-67l-426 -170v68zM909 1746l-263 302l85 1l203 -231l203 231l85 -1l-263 -302h-50z" />
    <glyph glyph-name="uE121" unicode="&#xe092;&#x675;" horiz-adv-x="1280" 
d="M1226 0q-99 0 -177.5 53t-116.5 140q-37 -87 -116 -140t-178 -53h-433v100h433q67 0 123.5 33t89.5 89.5t33 123.5v1143h96v-1143q0 -67 33 -123.5t89.5 -89.5t123.5 -33h54v-100h-54zM191 1310l94 5l52 -990l-94 -5zM55 1571l144 58q-58 21 -94.5 71.5t-37.5 116.5
q0 53 26.5 101.5t74 78.5t109.5 30q37 1 65 -8t62 -26q12 -5 17 -8l-16 -59q-8 3 -23 10q-30 14 -53 21t-52 7q-64 0 -105 -45t-41 -102q-1 -54 37 -98t107 -61l206 82v-67l-426 -170v68zM909 1746l-263 302l85 1l203 -231l203 231l85 -1l-263 -302h-50z" />
    <glyph glyph-name="uE122" unicode="&#xe091;&#xfe88;" horiz-adv-x="1192" 
d="M183 1473l94 5l61 -1153l-94 -5zM761.5 133q56.5 33 89.5 89.5t33 123.5v1143h96v-1147q0 -93 -46 -171.5t-124.5 -124.5t-171.5 -46h-433v100h433q67 0 123.5 33zM56 -739l144 58q-58 21 -94.5 71.5t-37.5 116.5q0 53 26.5 101.5t74 78.5t109.5 30q37 1 65 -8t62 -26
q12 -5 17 -8l-16 -59q-8 3 -23 10q-30 14 -53 21t-52 7q-64 0 -105 -45t-41 -102q-1 -54 37 -98t107 -61l206 82v-67l-426 -170v68zM908 1746l-263 302l85 1l203 -231l203 231l85 -1l-263 -302h-50z" />
    <glyph glyph-name="uE123" unicode="&#xe092;&#xfe88;" horiz-adv-x="1280" 
d="M761.5 133q56.5 33 89.5 89.5t33 123.5v1143h96v-1143q0 -67 33 -123.5t89.5 -89.5t123.5 -33h54v-100h-54q-99 0 -177.5 53t-116.5 140q-37 -87 -116 -140t-178 -53h-433v100h433q67 0 123.5 33zM183 1473l94 5l61 -1153l-94 -5zM55 -739l144 58q-58 21 -94.5 71.5
t-37.5 116.5q0 53 26.5 101.5t74 78.5t109.5 30q37 1 65 -8t62 -26q12 -5 17 -8l-16 -59q-8 3 -23 10q-30 14 -53 21t-52 7q-64 0 -105 -45t-41 -102q-1 -54 37 -98t107 -61l206 82v-67l-426 -170v68zM908 1746l-263 302l85 1l203 -231l203 231l85 -1l-263 -302h-50z" />
    <glyph glyph-name="uniFBA5" unicode="&#xfeea;&#x654;" horiz-adv-x="1198" arabic-form="final" 
d="M634.5 90.5q-123.5 -32.5 -232 -10t-177.5 94.5t-75 182q-9 155 54.5 278t201.5 193t344 67l-28 184l96 13l118 -806q12 -80 73 -132.5t142 -53.5h49v-100h-49q-97 1 -175 58t-110 152q-108 -87 -231.5 -119.5zM465.5 755.5q-119.5 -54.5 -174.5 -155.5t-48 -235
q8 -102 94.5 -158.5t225.5 -39t277 127.5l-75 509q-180 6 -299.5 -48.5zM283 1298q167 -3 258 31t91 123l-1 56h-233q-19 0 -35 16.5t-16 36.5v98q0 54 27.5 100.5t74 73.5t99.5 27h134v-61h-134q-57 0 -98.5 -41.5t-41.5 -98.5v-93l284 1l1 -117q0 -102 -93.5 -159.5
t-316.5 -55.5v63z" />
    <glyph glyph-name="uniFE8A" unicode="&#xfbfd;&#x654;" horiz-adv-x="1719" arabic-form="final" 
d="M713 -549q-218 0 -331 79t-168 213t-55 279q0 177 28 281t63 193l90 -38q-28 -65 -56.5 -165.5t-28.5 -262.5q0 -188 93 -334t363 -148h229q172 0 303.5 75t131.5 241q0 60 -36.5 99.5t-88.5 40.5h-446v96h915v-100h-312q62 -51 62 -134q-1 -114 -59.5 -204t-178 -150.5
t-291.5 -60.5h-227zM102 833l144 58q-58 21 -94.5 71.5t-37.5 116.5q0 53 26.5 101.5t74 78.5t109.5 30q37 1 65 -8t62 -26q12 -5 17 -8l-16 -59q-8 3 -23 10q-30 14 -53 21t-52 7q-64 0 -105 -45t-41 -102q-1 -54 37 -98t107 -61l206 82v-67l-426 -170v68z" />
    <glyph glyph-name="uniFEF5" unicode="&#xfedf;&#xfe82;" horiz-adv-x="1192" arabic-form="isolated" 
d="M191 1310l94 5l52 -990l-94 -5zM761.5 133q56.5 33 89.5 89.5t33 123.5v1143h96v-1147q0 -93 -46 -171.5t-124.5 -124.5t-171.5 -46h-433v100h433q67 0 123.5 33zM-168 1333l50 124q31 78 100 125t153 47h425v-75h-425q-61 1 -111 -33t-73 -91l-49 -125z" />
    <glyph glyph-name="uniFEF6" unicode="&#xfee0;&#xfe82;" horiz-adv-x="1281" arabic-form="final" 
d="M1226 0q-99 0 -177.5 53t-116.5 140q-37 -87 -116 -140t-178 -53h-433v100h433q67 0 123.5 33t89.5 89.5t33 123.5v1143h96v-1143q0 -67 33 -123.5t89.5 -89.5t123.5 -33h54v-100h-54zM191 1310l94 5l52 -990l-94 -5zM-168 1333l50 124q31 78 100 125t153 47h425v-75
h-425q-61 1 -111 -33t-73 -91l-49 -125z" />
    <glyph glyph-name="uniFEF7" unicode="&#xfedf;&#x675;" horiz-adv-x="1192" arabic-form="isolated" 
d="M191 1310l94 5l52 -990l-94 -5zM761.5 133q56.5 33 89.5 89.5t33 123.5v1143h96v-1147q0 -93 -46 -171.5t-124.5 -124.5t-171.5 -46h-433v100h433q67 0 123.5 33zM38 1571l144 58q-58 21 -94.5 71.5t-37.5 116.5q0 53 26.5 101.5t74 78.5t109.5 30q37 1 65 -8t62 -26
q12 -5 17 -8l-16 -59q-8 3 -23 10q-30 14 -53 21t-52 7q-64 0 -105 -45t-41 -102q-1 -54 37 -98t107 -61l206 82v-67l-426 -170v68z" />
    <glyph glyph-name="uniFEF8" unicode="&#xfee0;&#x675;" horiz-adv-x="1280" arabic-form="final" 
d="M1226 0q-99 0 -177.5 53t-116.5 140q-37 -87 -116 -140t-178 -53h-433v100h433q67 0 123.5 33t89.5 89.5t33 123.5v1143h96v-1143q0 -67 33 -123.5t89.5 -89.5t123.5 -33h54v-100h-54zM191 1310l94 5l52 -990l-94 -5zM38 1571l144 58q-58 21 -94.5 71.5t-37.5 116.5
q0 53 26.5 101.5t74 78.5t109.5 30q37 1 65 -8t62 -26q12 -5 17 -8l-16 -59q-8 3 -23 10q-30 14 -53 21t-52 7q-64 0 -105 -45t-41 -102q-1 -54 37 -98t107 -61l206 82v-67l-426 -170v68z" />
    <glyph glyph-name="uniFEF9" unicode="&#xfedf;&#xfe88;" horiz-adv-x="1192" arabic-form="isolated" 
d="M183 1473l94 5l61 -1153l-94 -5zM761.5 133q56.5 33 89.5 89.5t33 123.5v1143h96v-1147q0 -93 -46 -171.5t-124.5 -124.5t-171.5 -46h-433v100h433q67 0 123.5 33zM39 -739l144 58q-58 21 -94.5 71.5t-37.5 116.5q0 53 26.5 101.5t74 78.5t109.5 30q37 1 65 -8t62 -26
q12 -5 17 -8l-16 -59q-8 3 -23 10q-30 14 -53 21t-52 7q-64 0 -105 -45t-41 -102q-1 -54 37 -98t107 -61l206 82v-67l-426 -170v68z" />
    <glyph glyph-name="uniFEFA" unicode="&#xfee0;&#xfe88;" horiz-adv-x="1280" arabic-form="final" 
d="M761.5 133q56.5 33 89.5 89.5t33 123.5v1143h96v-1143q0 -67 33 -123.5t89.5 -89.5t123.5 -33h54v-100h-54q-99 0 -177.5 53t-116.5 140q-37 -87 -116 -140t-178 -53h-433v100h433q67 0 123.5 33zM183 1473l94 5l61 -1153l-94 -5zM38 -739l144 58q-58 21 -94.5 71.5
t-37.5 116.5q0 53 26.5 101.5t74 78.5t109.5 30q37 1 65 -8t62 -26q12 -5 17 -8l-16 -59q-8 3 -23 10q-30 14 -53 21t-52 7q-64 0 -105 -45t-41 -102q-1 -54 37 -98t107 -61l206 82v-67l-426 -170v68z" />
    <glyph glyph-name="uniFEFB" unicode="&#xfedf;&#xfe8e;" horiz-adv-x="1192" arabic-form="isolated" 
d="M183 1473l94 5l61 -1153l-94 -5zM761.5 133q56.5 33 89.5 89.5t33 123.5v1143h96v-1147q0 -93 -46 -171.5t-124.5 -124.5t-171.5 -46h-433v100h433q67 0 123.5 33z" />
    <glyph glyph-name="uniFEFC" unicode="&#xfee0;&#xfe8e;" horiz-adv-x="1280" arabic-form="final" 
d="M761.5 133q56.5 33 89.5 89.5t33 123.5v1143h96v-1143q0 -67 33 -123.5t89.5 -89.5t123.5 -33h54v-100h-54q-99 0 -177.5 53t-116.5 140q-37 -87 -116 -140t-178 -53h-433v100h433q67 0 123.5 33zM183 1473l94 5l61 -1153l-94 -5z" />
    <glyph glyph-name="uni064406440647" unicode="&#xfedf;&#xfee0;&#xfeea;" horiz-adv-x="2524" 
d="M1955 100q67 0 123.5 33t89.5 89.5t33 123.5v1143h96v-1147q0 -93 -46 -171.5t-124.5 -124.5t-171.5 -46h-105q-39 8 -53.5 29t0 42t53.5 29h105zM1244 100q67 0 123.5 33t89.5 89.5t33 123.5v861h96v-861q0 -67 33 -123.5t89.5 -89.5t123.5 -33h52v-100h-52
q-99 0 -177.5 53t-116.5 140q-37 -87 -116 -140t-178 -53h-52q-39 8 -53.5 29t0 42t53.5 29h52zM1496 1513q-44 -51 -117 -51q-72 0 -116 51t-44 127v145h63v-145q0 -50 25.5 -82.5t71.5 -32.5q47 0 72 32.5t25 82.5v145h63v-145q1 -76 -43 -127zM1753 1533
q-44 -51 -117 -51q-72 0 -116 51t-44 127v125h63v-125q0 -50 25.5 -82.5t71.5 -32.5q47 0 72.5 32.5t25.5 82.5v145h62l1 -145q0 -76 -44 -127zM1552 2298v-360h-63v360h63zM655.5 90.5q-123.5 -32.5 -232 -10t-177.5 94.5t-75 182q-9 155 54.5 278t201.5 193t344 67
l-28 184l96 13l118 -806q12 -80 73 -132.5t142 -53.5h49v-100h-49q-97 1 -175 58t-110 152q-108 -87 -231.5 -119.5zM486.5 755.5q-119.5 -54.5 -174.5 -155.5t-48 -235q8 -102 94.5 -158.5t225.5 -39t277 127.5l-75 509q-180 6 -299.5 -48.5z" />
    <glyph glyph-name="uni0621" unicode="&#x621;" horiz-adv-x="1068" arabic-form="isolated" 
d="M441 162q-92 30 -145 112t-53 182q0 85 39.5 165t112.5 130.5t166 50.5q81 0 141.5 -23t95.5 -49l-27 -90q-98 77 -213 73q-67 -2 -118.5 -39.5t-79 -96.5t-27.5 -121q0 -63 28 -119t81 -90.5t126 -34.5l319 122l32 -83l-686 -263l-31 83z" />
    <glyph glyph-name="uni0622" unicode="&#x622;" horiz-adv-x="520" arabic-form="isolated" 
d="M307 1291l1 -1291h-96v1291h95zM-168 1376l50 124q31 78 100 125t153 47h425v-75h-425q-61 1 -111 -33t-73 -91l-49 -125z" />
    <glyph glyph-name="uni0623" unicode="&#x623;" horiz-adv-x="519" arabic-form="isolated" 
d="M307 1291l1 -1291h-96v1291h95zM43 1597l144 58q-58 21 -94.5 71.5t-37.5 116.5q0 53 26.5 101.5t74 78.5t109.5 30q37 1 65 -8t62 -26q12 -5 17 -8l-16 -59q-8 3 -23 10q-30 14 -53 21t-52 7q-64 0 -105 -45t-41 -102q-1 -54 37 -98t107 -61l206 82v-67l-426 -170v68z
" />
    <glyph glyph-name="uni0624" unicode="&#x624;" horiz-adv-x="1060" arabic-form="isolated" 
d="M589.5 -360.5q95.5 57.5 151.5 151.5t57 209h-274q-177 0 -269 99t-92 289q0 118 47 211t130.5 145t189.5 52q108 0 190.5 -51.5t128 -144t45.5 -212.5v-376q0 -146 -66.5 -264t-182 -190.5t-258.5 -86.5l-282 -29l-8 97l281 31q116 12 211.5 69.5zM802 387
q0 79 -27 150.5t-88 118t-157 46.5q-84 0 -145.5 -41t-94.5 -112.5t-33 -161.5q0 -146 68.5 -216.5t204.5 -70.5h272v287zM317 1085l144 58q-58 21 -94.5 71.5t-37.5 116.5q0 53 26.5 101.5t74 78.5t109.5 30q37 1 65 -8t62 -26q12 -5 17 -8l-16 -59q-8 3 -23 10
q-30 14 -53 21t-52 7q-64 0 -105 -45t-41 -102q-1 -54 37 -98t107 -61l206 82v-67l-426 -170v68z" />
    <glyph glyph-name="uni0625" unicode="&#x625;" horiz-adv-x="519" arabic-form="isolated" 
d="M307 1489l1 -1489h-96v1489h95zM43 -739l144 58q-58 21 -94.5 71.5t-37.5 116.5q0 53 26.5 101.5t74 78.5t109.5 30q37 1 65 -8t62 -26q12 -5 17 -8l-16 -59q-8 3 -23 10q-30 14 -53 21t-52 7q-64 0 -105 -45t-41 -102q-1 -54 37 -98t107 -61l206 82v-67l-426 -170v68z
" />
    <glyph glyph-name="uni0627" unicode="&#x627;" horiz-adv-x="519" arabic-form="isolated" 
d="M307 1489l1 -1489h-96v1489h95z" />
    <glyph glyph-name="uni0628" unicode="&#x628;" horiz-adv-x="1821" arabic-form="isolated" 
d="M276.5 279q27.5 -81 93 -130t149.5 -49h797q67 0 123.5 33t89.5 89.5t33 123.5v312h96v-320q0 -92 -46 -169.5t-124.5 -123t-171.5 -45.5h-797q-112 0 -202.5 63.5t-130.5 172t-9 234.5l52 203l95 -28l-52 -194q-23 -91 4.5 -172zM829 -533v125h160v-125h-160z" />
    <glyph glyph-name="uni0629" unicode="&#x629;" horiz-adv-x="1035" arabic-form="isolated" 
d="M333 581.5q-85 -118.5 -85 -234.5q0 -81 39.5 -140.5t102.5 -90.5t130 -31q68 0 131 30.5t102.5 90t39.5 141.5q0 90 -67.5 207t-199.5 241q-108 -95 -193 -213.5zM378 921l60 74l39 -31q201 -164 305.5 -323.5t104.5 -292.5q0 -110 -52.5 -191t-137 -123t-177.5 -42
t-177.5 43.5t-136.5 124.5t-52 188q0 100 59 205.5t129.5 184t116.5 116.5zM266 1219v125h155v-125h-155zM583 1219v126h155v-126h-155z" />
    <glyph glyph-name="uni062A" unicode="&#x62a;" horiz-adv-x="1821" arabic-form="isolated" 
d="M276.5 279q27.5 -81 93 -130t149.5 -49h797q67 0 123.5 33t89.5 89.5t33 123.5v312h96v-320q0 -92 -46 -169.5t-124.5 -123t-171.5 -45.5h-797q-112 0 -202.5 63.5t-130.5 172t-9 234.5l52 203l95 -28l-52 -194q-23 -91 4.5 -172zM676 860v125h155v-125h-155zM993 860
v126h155v-126h-155z" />
    <glyph glyph-name="uni062B" unicode="&#x62b;" horiz-adv-x="1821" arabic-form="isolated" 
d="M276.5 279q27.5 -81 93 -130t149.5 -49h797q67 0 123.5 33t89.5 89.5t33 123.5v312h96v-320q0 -92 -46 -169.5t-124.5 -123t-171.5 -45.5h-797q-112 0 -202.5 63.5t-130.5 172t-9 234.5l52 203l95 -28l-52 -194q-23 -91 4.5 -172zM676 857v125h155v-125h-155zM993 857
v126h155v-126h-155zM835 1156v122h154v-122h-154z" />
    <glyph glyph-name="uni062C" unicode="&#x62c;" horiz-adv-x="1484" arabic-form="isolated" 
d="M1265 525q-94 28 -201 87t-258 153q-103 65 -144 88q-90 48 -177 9.5t-130 -153.5l-14 -33l-89 38l14 32q38 101 109.5 160t158 68t168.5 -35q80 -43 302 -172q174 -100 261.5 -149t98.5 -49l-4 -97l-849 -362q-114 -51 -188 -153.5t-72 -213.5q1 -89 52 -173t136 -136.5
t180 -52.5h628v-97h-628q-121 1 -228 64t-171.5 169.5t-66.5 230.5q-1 93 41.5 183t116.5 160t165 107zM758 -244v126q80 -1 160 0v-126h-160z" />
    <glyph glyph-name="uni062D" unicode="&#x62d;" horiz-adv-x="1485" arabic-form="isolated" 
d="M1265 525q-94 28 -201 87t-258 153q-103 65 -144 88q-90 48 -177 9.5t-130 -153.5l-14 -33l-89 38l14 32q38 101 109.5 160t158 68t168.5 -35q80 -43 302 -172q174 -100 261.5 -149t98.5 -49l-4 -97l-849 -362q-114 -51 -188 -153.5t-72 -213.5q1 -89 52 -173t136 -136.5
t180 -52.5h628v-97h-628q-121 1 -228 64t-171.5 169.5t-66.5 230.5q-1 93 41.5 183t116.5 160t165 107z" />
    <glyph glyph-name="uni062E" unicode="&#x62e;" horiz-adv-x="1484" arabic-form="isolated" 
d="M1265 525q-94 28 -201 87t-258 153q-103 65 -144 88q-90 48 -177 9.5t-130 -153.5l-14 -33l-89 38l14 32q38 101 109.5 160t158 68t168.5 -35q80 -43 302 -172q174 -100 261.5 -149t98.5 -49l-4 -97l-849 -362q-114 -51 -188 -153.5t-72 -213.5q1 -89 52 -173t136 -136.5
t180 -52.5h628v-97h-628q-121 1 -228 64t-171.5 169.5t-66.5 230.5q-1 93 41.5 183t116.5 160t165 107zM568 1304v126q80 -1 160 0v-126h-160z" />
    <glyph glyph-name="uni062F" unicode="&#x62f;" horiz-adv-x="1063" arabic-form="isolated" 
d="M89 0v96h541q77 0 128.5 50t58.5 121.5t-38 129.5l-362 477l76 58l362 -477q53 -69 58 -149t-31 -150t-103 -113t-149 -43h-541z" />
    <glyph glyph-name="uni0630" unicode="&#x630;" horiz-adv-x="1063" arabic-form="isolated" 
d="M89 0v96h541q77 0 128.5 50t58.5 121.5t-38 129.5l-362 477l76 58l362 -477q53 -69 58 -149t-31 -150t-103 -113t-149 -43h-541zM424 1196v126q80 -1 160 0v-126h-160z" />
    <glyph glyph-name="uni0631" unicode="&#x631;" horiz-adv-x="690" arabic-form="isolated" 
d="M-38 -440l49 10q118 22 213.5 85.5t151 159t55.5 207.5v636h96v-641q0 -138 -66.5 -253t-182 -191.5t-258.5 -102.5l-40 -8z" />
    <glyph glyph-name="uni0632" unicode="&#x632;" horiz-adv-x="691" arabic-form="isolated" 
d="M-38 -440l49 10q118 22 213.5 85.5t151 159t55.5 207.5v636h96v-641q0 -138 -66.5 -253t-182 -191.5t-258.5 -102.5l-40 -8zM400 979v126q80 -1 160 0v-126h-160z" />
    <glyph glyph-name="uni0633" unicode="&#x633;" horiz-adv-x="2746" arabic-form="isolated" 
d="M1318 658h96v-312q0 -100 65.5 -173t162.5 -73h32q102 0 165 72t63 174v312h96v-312q0 -102 63 -174t165 -72h32q102 0 165 72t63 174v312h96v-316q0 -83 -37.5 -162t-117.5 -129.5t-169 -50.5h-32q-94 0 -167 50.5t-109 137.5q-37 -86 -109 -137t-167 -51h-32
q-71 0 -132.5 38t-97.5 98v-95q-2 -173 -72.5 -305.5t-194.5 -208.5t-269 -76h-170q-218 0 -331 79t-169 213t-56 279q0 151 37.5 268t72.5 207l90 -39q-28 -65 -66 -178.5t-38 -248.5q1 -188 95 -333.5t365 -146.5h170q120 0 220 60.5t160 170.5t60 275z" />
    <glyph glyph-name="uni0634" unicode="&#x634;" horiz-adv-x="2746" arabic-form="isolated" 
d="M1318 658h96v-312q0 -100 65.5 -173t162.5 -73h32q102 0 165 72t63 174v312h96v-312q0 -102 63 -174t165 -72h32q102 0 165 72t63 174v312h96v-316q0 -83 -37.5 -162t-117.5 -129.5t-169 -50.5h-32q-94 0 -167 50.5t-109 137.5q-37 -86 -109 -137t-167 -51h-32
q-71 0 -132.5 38t-97.5 98v-95q-2 -173 -72.5 -305.5t-194.5 -208.5t-269 -76h-170q-218 0 -331 79t-169 213t-56 279q0 151 37.5 268t72.5 207l90 -39q-28 -65 -66 -178.5t-38 -248.5q1 -188 95 -333.5t365 -146.5h170q120 0 220 60.5t160 170.5t60 275zM1715 979v125h155
v-125h-155zM2032 979v126h155v-126h-155zM1874 1278v122h154v-122h-154z" />
    <glyph glyph-name="uni0635" unicode="&#x635;" horiz-adv-x="2796" arabic-form="isolated" 
d="M2220 100q140 0 235 97t95 229q0 143 -84.5 239t-236.5 89q-178 -7 -297.5 -215.5t-159 -321t-42.5 -117.5h490zM1316 658h97l1 -317q0 -93 64 -162.5t160 -76.5q61 236 208 488t379 260q138 5 233 -55.5t141.5 -159.5t46.5 -209q0 -113 -55.5 -211t-153 -156.5
t-217.5 -58.5h-539q-83 0 -153.5 40t-114.5 107v-98q-1 -178 -72.5 -312t-195.5 -210t-269 -76h-170q-218 0 -331 79t-169 213t-56 279q0 151 37.5 268t72.5 207l90 -39q-28 -65 -66 -178.5t-38 -248.5q1 -188 95 -333.5t365 -146.5h170q120 0 220 60.5t160 170t60 272.5
v604z" />
    <glyph glyph-name="uni0636" unicode="&#x636;" horiz-adv-x="2796" arabic-form="isolated" 
d="M2220 100q140 0 235 97t95 229q0 143 -84.5 239t-236.5 89q-178 -7 -297.5 -215.5t-159 -321t-42.5 -117.5h490zM1316 658h97l1 -317q0 -93 64 -162.5t160 -76.5q61 236 208 488t379 260q138 5 233 -55.5t141.5 -159.5t46.5 -209q0 -113 -55.5 -211t-153 -156.5
t-217.5 -58.5h-539q-83 0 -153.5 40t-114.5 107v-98q-1 -178 -72.5 -312t-195.5 -210t-269 -76h-170q-218 0 -331 79t-169 213t-56 279q0 151 37.5 268t72.5 207l90 -39q-28 -65 -66 -178.5t-38 -248.5q1 -188 95 -333.5t365 -146.5h170q120 0 220 60.5t160 170t60 272.5
v604zM2103 1157v126q80 -1 160 0v-126h-160z" />
    <glyph glyph-name="uni0637" unicode="&#x637;" horiz-adv-x="1527" arabic-form="isolated" 
d="M507 1489l-1 -565l-1 -476q198 393 441 402q137 5 232 -55.5t141.5 -159.5t46.5 -209q0 -113 -55 -211t-152.5 -156.5t-217.5 -58.5h-777v100h190q0 2 3 11q25 84 54 157v1221h96zM1108.5 144.5q75.5 44.5 119 119.5t43.5 162q0 92 -37 168.5t-109.5 120.5t-174.5 39
q-94 -4 -175.5 -76t-147 -182.5t-99.5 -192.5t-67 -174q-8 -22 -10 -29h490q92 0 167.5 44.5z" />
    <glyph glyph-name="uni0638" unicode="&#x638;" horiz-adv-x="1525" arabic-form="isolated" 
d="M507 1489l-1 -565l-1 -476q198 393 441 402q137 5 232 -55.5t141.5 -159.5t46.5 -209q0 -113 -55 -211t-152.5 -156.5t-217.5 -58.5h-777v100h190q0 2 3 11q25 84 54 157v1221h96zM1108.5 144.5q75.5 44.5 119 119.5t43.5 162q0 92 -37 168.5t-109.5 120.5t-174.5 39
q-94 -4 -175.5 -76t-147 -182.5t-99.5 -192.5t-67 -174q-8 -22 -10 -29h490q92 0 167.5 44.5zM900 1154v126q80 -1 160 0v-126h-160z" />
    <glyph glyph-name="uni0639" unicode="&#x639;" horiz-adv-x="1250" arabic-form="isolated" 
d="M654 -715q-124 0 -232.5 51t-174.5 150t-66 235q0 100 45 186t123.5 145t174.5 80q-85 47 -135 146t-50 204q0 118 48 217t133.5 157.5t193.5 61.5q77 2 146.5 -17.5t153.5 -54.5q16 -6 23 -9l-18 -98q-4 1 -12 5q-91 38 -156 58.5t-130 19.5q-84 -1 -149.5 -47.5
t-101.5 -124t-36 -169.5q0 -80 35.5 -154t101 -120t151.5 -45h371v-100h-468q-92 0 -172.5 -46t-128.5 -124.5t-48 -170.5q0 -110 53.5 -186t140 -113t184.5 -37h440v-100h-440z" />
    <glyph glyph-name="uni063A" unicode="&#x63a;" horiz-adv-x="1250" arabic-form="isolated" 
d="M654 -715q-124 0 -232.5 51t-174.5 150t-66 235q0 100 45 186t123.5 145t174.5 80q-85 47 -135 146t-50 204q0 118 48 217t133.5 157.5t193.5 61.5q77 2 146.5 -17.5t153.5 -54.5q16 -6 23 -9l-18 -98q-4 1 -12 5q-91 38 -156 58.5t-130 19.5q-84 -1 -149.5 -47.5
t-101.5 -124t-36 -169.5q0 -80 35.5 -154t101 -120t151.5 -45h371v-100h-468q-92 0 -172.5 -46t-128.5 -124.5t-48 -170.5q0 -110 53.5 -186t140 -113t184.5 -37h440v-100h-440zM623 1228v126q80 -1 160 0v-126h-160z" />
    <glyph glyph-name="uni0641" unicode="&#x641;" horiz-adv-x="1912" arabic-form="isolated" 
d="M1635.5 296.5q29.5 104.5 29.5 226.5q0 95 -41 164.5t-106.5 105.5t-135.5 36q-74 1 -139 -39t-104.5 -106.5t-38.5 -141.5q0 -83 49 -170.5t149 -149.5t244 -68q64 38 93.5 142.5zM518 100h528q336 0 388 12q-150 12 -246 83t-139 165t-43 180q-1 102 51 190t139 140.5
t186 51.5q98 0 184.5 -50t139.5 -141t53 -208q0 -235 -91 -379t-268 -144h-881zM276.5 279q27.5 -81 93 -130t149.5 -49v-100q-112 0 -202.5 63.5t-130.5 172t-9 234.5l52 203l95 -28l-53 -194q-22 -91 5.5 -172zM1302 1222v126q80 -1 160 0v-126h-160z" />
    <glyph glyph-name="uni0642" unicode="&#x642;" horiz-adv-x="1658" arabic-form="isolated" 
d="M1404 387q0 127 -65.5 221t-205.5 94q-126 0 -199.5 -88.5t-73.5 -226.5q0 -145 67 -216t206 -71h271v287zM706 -549q-218 0 -331 79t-169 213t-56 279q1 177 29.5 281t63.5 194l90 -39q-28 -65 -57.5 -165.5t-29.5 -261.5q1 -188 95 -335t365 -148h202q237 0 366 119
t130 333h-277q-179 0 -270 98.5t-91 289.5q0 126 48 216t129.5 141t189.5 51q163 0 263.5 -113t100.5 -295v-379q0 -169 -69.5 -292t-199.5 -194.5t-320 -71.5h-202zM884 1095v125h155v-125h-155zM1201 1095v126h155v-126h-155z" />
    <glyph glyph-name="uni0643" unicode="&#x643;" horiz-adv-x="1882" arabic-form="isolated" 
d="M503.5 55q-1.5 30 14.5 45h813q67 0 123.5 33t89.5 89.5t33 123.5v1166h96v-1174q0 -92 -46 -169.5t-124.5 -123t-171.5 -45.5h-812q-14 25 -15.5 55zM276.5 279q27.5 -81 93 -130t149.5 -49v-100q-112 0 -202.5 63.5t-130.5 172t-9 234.5l52 203l95 -28l-53 -194
q-22 -91 5.5 -172zM726 564l144 58q-58 21 -94.5 71.5t-37.5 116.5q0 53 26.5 101.5t74 78.5t109.5 30q37 1 65 -8t62 -26q12 -5 17 -8l-16 -59q-8 3 -23 10q-30 14 -53 21t-52 7q-64 0 -105 -45t-41 -102q-1 -54 37 -98t107 -61l206 82v-67l-426 -170v68z" />
    <glyph glyph-name="uni0644" unicode="&#x644;" horiz-adv-x="1619" arabic-form="isolated" 
d="M706 -549q-218 0 -331 79t-169 213t-56 279q1 151 38 268t72 207l90 -39q-28 -65 -66 -178.5t-38 -249.5q1 -187 95 -332.5t365 -146.5h167q120 0 220 60.5t160 170.5t60 275v1432h97v-1431q1 -184 -71 -319.5t-196.5 -211.5t-269.5 -76h-167z" />
    <glyph glyph-name="uni0645" unicode="&#x645;" horiz-adv-x="1424" arabic-form="isolated" 
d="M1132 205.5q44 83.5 41 233.5q-1 85 -30.5 161.5t-86 124.5t-134.5 48q-118 0 -191.5 -99.5t-101.5 -269.5q-3 -17 -40 -183q-5 -21 -5 -24q57 -29 163.5 -52t231.5 -23q109 0 153 83.5zM672 745q99 122 250 122q101 0 178.5 -57t121 -154.5t45.5 -216.5q4 -189 -68 -301
t-220 -112q-142 0 -286 35q-63 16 -104.5 33.5t-83.5 39.5q-20 11 -29 15l63 281q34 193 133 315zM579 192l-19 -90l-301 126v-181v-656h-95v853l89 84z" />
    <glyph glyph-name="uni0646" unicode="&#x646;" horiz-adv-x="1575" arabic-form="isolated" 
d="M706 -549q-218 0 -331 79t-169 213t-56 279q1 151 38 268t72 207l90 -39q-28 -65 -66 -178.5t-38 -248.5q1 -188 95 -333.5t365 -146.5h170q120 0 220 60.5t160 170.5t60 275v601h97v-600q1 -184 -71.5 -319.5t-196.5 -211.5t-269 -76h-170zM701 676v126q80 -1 160 0
v-126h-160z" />
    <glyph glyph-name="uni0647" unicode="&#x647;" horiz-adv-x="1035" arabic-form="isolated" 
d="M333 581.5q-85 -118.5 -85 -234.5q0 -81 39.5 -140.5t102.5 -90.5t130 -31q68 0 131 30.5t102.5 90t39.5 141.5q0 90 -67.5 207t-199.5 241q-108 -95 -193 -213.5zM378 921l60 74l39 -31q201 -164 305.5 -323.5t104.5 -292.5q0 -110 -52.5 -191t-137 -123t-177.5 -42
t-177.5 43.5t-136.5 124.5t-52 188q0 100 59 205.5t129.5 184t116.5 116.5z" />
    <glyph glyph-name="uni0648" unicode="&#x648;" horiz-adv-x="1059" arabic-form="isolated" 
d="M589.5 -360.5q95.5 57.5 151.5 151.5t57 209h-274q-177 0 -269 99t-92 289q0 118 47 211t130.5 145t189.5 52q108 0 190.5 -51.5t128 -144t45.5 -212.5v-376q0 -146 -66.5 -264t-182 -190.5t-258.5 -86.5l-282 -29l-8 97l281 31q116 12 211.5 69.5zM802 387
q0 79 -27 150.5t-88 118t-157 46.5q-84 0 -145.5 -41t-94.5 -112.5t-33 -161.5q0 -146 68.5 -216.5t204.5 -70.5h272v287z" />
    <glyph glyph-name="uni0649" unicode="&#x649;" horiz-adv-x="1625" arabic-form="isolated" 
d="M867 -452q190 0 339 88t169 258q14 112 -39 158.5t-171 51.5l-411 21l16 322q11 159 110 260.5t255 101.5h300v-96h-299q-114 0 -186.5 -77t-81.5 -190l-15 -233l324 -16q158 -7 239 -78.5t55 -228.5q-32 -200 -200.5 -319.5t-404.5 -119.5h-154q-217 0 -330 79t-168 213
t-55 279q0 177 28 281t63 193l90 -38q-28 -65 -56.5 -165.5t-28.5 -262.5q0 -188 93.5 -334.5t363.5 -147.5h155z" />
    <glyph glyph-name="uni064A" unicode="&#x64a;" horiz-adv-x="1625" arabic-form="isolated" 
d="M867 -452q190 0 339 88t169 258q14 112 -39 158.5t-171 51.5l-411 21l16 322q11 159 110 260.5t255 101.5h300v-96h-299q-114 0 -186.5 -77t-81.5 -190l-15 -233l324 -16q158 -7 239 -78.5t55 -228.5q-32 -200 -200.5 -319.5t-404.5 -119.5h-154q-217 0 -330 79t-168 213
t-55 279q0 177 28 281t63 193l90 -38q-28 -65 -56.5 -165.5t-28.5 -262.5q0 -188 93.5 -334.5t363.5 -147.5h155zM533 -968v126q79 -1 155 0v-126h-155zM850 -967v125h155v-125h-155z" />
    <glyph glyph-name="uni064B" unicode="&#xfe70;" arabic-form="isolated" 
d="M-213 1790l426 169v-67l-426 -170v68zM-247 2016l426 169v-67l-426 -170v68z" />
    <glyph glyph-name="uni064C" unicode="&#xfe72;" arabic-form="isolated" 
d="M-252 1758l36 272q4 27 -9 51.5t-38 33t-56 -9.5l-19 -10l-31 54l20 11q53 31 99 17t71.5 -57.5t21.5 -94.5l-26 -226l204 79l-53 134q-31 83 2 159t115 111q83 30 159 -3t111 -115q30 -82 -3 -158t-114 -111l-444 -173zM69.5 2200q-36.5 -30 -48.5 -76t6 -89l52 -134
l136 52q56 23 79.5 78t1.5 111q-17 42 -56 67.5t-84 22.5q-50 -2 -86.5 -32z" />
    <glyph glyph-name="uni064D" unicode="&#xfe74;" arabic-form="isolated" 
d="M-247 -653l426 169v-68l-426 -169v68zM-213 -879l426 169v-68l-426 -169v68z" />
    <glyph glyph-name="uni064E" unicode="&#xfe76;" arabic-form="isolated" 
d="M-213 1790l426 169v-67l-426 -170v68z" />
    <glyph glyph-name="uni064F" unicode="&#xfe78;" arabic-form="isolated" 
d="M-213 1803l138 56l-53 134q-30 83 3 159.5t114 111.5q83 30 159 -3t111 -114q31 -83 -2 -159.5t-115 -110.5l-355 -142v68zM-23.5 2184.5q-37.5 -30.5 -50.5 -77t5 -90.5l54 -135l134 53q56 23 80 78t1 111q-16 41 -53 66t-82 25q-51 0 -88.5 -30.5z" />
    <glyph glyph-name="uni0650" unicode="&#xfe7a;" arabic-form="isolated" 
d="M-213 -669l426 169v-68l-426 -169v68z" />
    <glyph glyph-name="uni0651" unicode="&#xfe7c;" arabic-form="isolated" 
d="M-27 1777q-44 -51 -117 -51q-72 0 -116 51t-44 127v145h63v-145q0 -50 25.5 -82.5t71.5 -32.5q47 0 72 32.5t25 82.5v145h63v-145q1 -76 -43 -127zM230 1797q-44 -51 -117 -51q-72 0 -116 51t-44 127v125h63v-125q0 -50 25.5 -82.5t71.5 -32.5q47 0 72.5 32.5t25.5 82.5
v145h62l1 -145q0 -76 -44 -127z" />
    <glyph glyph-name="uni0652" unicode="&#xfe7e;" arabic-form="isolated" 
d="M-113.5 1757.5q-49.5 31.5 -77 85.5t-27.5 120t27.5 120t77 86t113.5 32t113.5 -32t77 -86t27.5 -120t-27.5 -120t-77 -85.5t-113.5 -31.5t-113.5 31.5zM-112 2087q-42 -50 -42 -124t42 -124t112 -50t112 50t42 124t-42 124t-112 50t-112 -50z" />
    <glyph glyph-name="uni0671" unicode="&#x671;" horiz-adv-x="519" arabic-form="isolated" 
d="M307 1291l1 -1291h-96v1291h95zM376 1524q67 0 111.5 34t44.5 86q0 64 -38.5 112.5t-113.5 48.5q-83 0 -136.5 -84t-91.5 -189q-2 -6 -3 -8h227zM197 1768.5q68 102.5 182 102.5q70 0 119.5 -32t74.5 -84t25 -111q0 -52 -29 -95t-80 -67t-113 -24h-246q-51 0 -100 40
t-79.5 102.5t-30.5 125.5v33h66v-33q0 -53 30.5 -106.5t69.5 -74.5q43 121 111 223.5z" />
    <glyph glyph-name="uni0675" unicode="&#x623;" horiz-adv-x="609" arabic-form="final" 
d="M553 0q-95 0 -173.5 45.5t-123 123t-44.5 169.5v953h95l1 -945q0 -67 33 -123.5t89 -89.5t123 -33h56v-100h-56zM44 1597l144 58q-58 21 -94.5 71.5t-37.5 116.5q0 53 26.5 101.5t74 78.5t109.5 30q37 1 65 -8t62 -26q12 -5 17 -8l-16 -59q-8 3 -23 10q-30 14 -53 21
t-52 7q-64 0 -105 -45t-41 -102q-1 -54 37 -98t107 -61l206 82v-67l-426 -170v68z" />
    <glyph glyph-name="uni0679" unicode="&#x679;" horiz-adv-x="1821" arabic-form="isolated" 
d="M276.5 279q27.5 -81 93 -130t149.5 -49h797q67 0 123.5 33t89.5 89.5t33 123.5v312h96v-320q0 -92 -46 -169.5t-124.5 -123t-171.5 -45.5h-797q-112 0 -202.5 63.5t-130.5 172t-9 234.5l52 203l95 -28l-52 -194q-23 -91 4.5 -172zM972 818q67 0 111.5 34t44.5 86
q0 64 -38.5 112.5t-113.5 48.5q-86 0 -142 -91.5t-85 -189.5h223zM693 1377h66v-381q91 169 217 169q69 0 118.5 -32t74.5 -84t25 -111q-2 -81 -64.5 -133.5t-157.5 -52.5h-344v66h51q7 25 14 47v512z" />
    <glyph glyph-name="uni067E" unicode="&#x67e;" horiz-adv-x="1821" arabic-form="isolated" 
d="M276.5 279q27.5 -81 93 -130t149.5 -49h797q67 0 123.5 33t89.5 89.5t33 123.5v312h96v-320q0 -92 -46 -169.5t-124.5 -123t-171.5 -45.5h-797q-112 0 -202.5 63.5t-130.5 172t-9 234.5l52 203l95 -28l-52 -194q-23 -91 4.5 -172zM673 -445v126q79 -1 155 0v-126h-155z
M990 -444v125h155v-125h-155zM832 -745v122h154v-122h-154z" />
    <glyph glyph-name="uni0686" unicode="&#x686;" horiz-adv-x="1484" arabic-form="isolated" 
d="M1265 525q-94 28 -201 87t-258 153q-103 65 -144 88q-90 48 -177 9.5t-130 -153.5l-14 -33l-89 38l14 32q38 101 109.5 160t158 68t168.5 -35q80 -43 302 -172q174 -100 261.5 -149t98.5 -49l-4 -97l-849 -362q-114 -51 -188 -153.5t-72 -213.5q1 -89 52 -173t136 -136.5
t180 -52.5h628v-97h-628q-121 1 -228 64t-171.5 169.5t-66.5 230.5q-1 93 41.5 183t116.5 160t165 107zM650 -155v112q71 -1 141 0q1 -56 0 -112h-141zM947 -155q-1 56 0 112h141v-112h-141zM798 -365v109h142v-109h-142z" />
    <glyph glyph-name="uni0688" unicode="&#x688;" horiz-adv-x="1063" arabic-form="isolated" 
d="M89 0v96h541q77 0 128.5 50t58.5 121.5t-38 129.5l-362 477l76 58l362 -477q53 -69 58 -149t-31 -150t-103 -113t-149 -43h-541zM598 1291q67 0 111.5 34t44.5 86q0 64 -38.5 112.5t-113.5 48.5q-86 0 -142 -91.5t-85 -189.5h223zM319 1850h66v-381q91 169 217 169
q69 0 118.5 -32t74.5 -84t25 -111q-2 -81 -64.5 -133.5t-157.5 -52.5h-344v66h51q7 25 14 47v512z" />
    <glyph glyph-name="uni0691" unicode="&#x691;" horiz-adv-x="690" arabic-form="isolated" 
d="M-38 -440l49 10q118 22 213.5 85.5t151 159t55.5 207.5v636h96v-641q0 -138 -66.5 -253t-182 -191.5t-258.5 -102.5l-40 -8zM583 1032q67 0 111.5 34t44.5 86q0 64 -38.5 112.5t-113.5 48.5q-86 0 -142 -91.5t-85 -189.5h223zM304 1591h66v-381q91 169 217 169
q69 0 118.5 -32t74.5 -84t25 -111q-2 -81 -64.5 -133.5t-157.5 -52.5h-344v66h51q7 25 14 47v512z" />
    <glyph glyph-name="uni0698" unicode="&#x698;" horiz-adv-x="691" arabic-form="isolated" 
d="M-38 -440l49 10q118 22 213.5 85.5t151 159t55.5 207.5v636h96v-641q0 -138 -66.5 -253t-182 -191.5t-258.5 -102.5l-40 -8zM244 979v125h155v-125h-155zM561 979v126h155v-126h-155zM403 1278v122h154v-122h-154z" />
    <glyph glyph-name="uni06A4" unicode="&#x6a4;" horiz-adv-x="1912" arabic-form="isolated" 
d="M1635.5 296.5q29.5 104.5 29.5 226.5q0 95 -41 164.5t-106.5 105.5t-135.5 36q-74 1 -139 -39t-104.5 -106.5t-38.5 -141.5q0 -83 49 -170.5t149 -149.5t244 -68q64 38 93.5 142.5zM518 100h528q336 0 388 12q-150 12 -246 83t-139 165t-43 180q-1 102 51 190t139 140.5
t186 51.5q98 0 184.5 -50t139.5 -141t53 -208q0 -235 -91 -379t-268 -144h-881zM276.5 279q27.5 -81 93 -130t149.5 -49v-100q-112 0 -202.5 63.5t-130.5 172t-9 234.5l52 203l95 -28l-53 -194q-22 -91 5.5 -172zM1144 1222v125h155v-125h-155zM1461 1222v126h155v-126h-155
zM1303 1521v122h154v-122h-154z" />
    <glyph glyph-name="uni06A9" unicode="&#x6a9;" horiz-adv-x="1913" arabic-form="isolated" 
d="M1454 100q79 0 131.5 54.5t56 129.5t-51.5 133l-617 644v96l768 311l33 -90l-700 -285l589 -615q62 -64 74.5 -147t-20 -159t-101 -124t-158.5 -48h-939q-112 0 -202.5 63.5t-130.5 172t-9 234.5l52 203l95 -28l-53 -194q-22 -91 5.5 -172t93 -130t149.5 -49h935z" />
    <glyph glyph-name="uni06AF" unicode="&#x6af;" horiz-adv-x="1913" arabic-form="isolated" 
d="M1454 100q79 0 131.5 54.5t56 129.5t-51.5 133l-617 644v96l768 311l33 -90l-700 -285l589 -615q62 -64 74.5 -147t-20 -159t-101 -124t-158.5 -48h-939q-112 0 -202.5 63.5t-130.5 172t-9 234.5l52 203l95 -28l-53 -194q-22 -91 5.5 -172t93 -130t149.5 -49h935z
M974 1458l652 259l25 -60l-676 -267z" />
    <glyph glyph-name="uni06BA" unicode="&#x6ba;" horiz-adv-x="1575" arabic-form="isolated" 
d="M706 -549q-218 0 -331 79t-169 213t-56 279q1 151 38 268t72 207l90 -39q-28 -65 -66 -178.5t-38 -248.5q1 -188 95 -333.5t365 -146.5h170q120 0 220 60.5t160 170.5t60 275v601h97v-600q1 -184 -71.5 -319.5t-196.5 -211.5t-269 -76h-170z" />
    <glyph glyph-name="uni06BE" unicode="&#x6be;" horiz-adv-x="1493" arabic-form="isolated" 
d="M364.5 745q-63.5 -33 -100.5 -93.5t-37 -141.5q0 -104 52.5 -190t115.5 -140.5t109 -80.5q46 26 109 80.5t116 140.5t53 190q0 81 -37 141.5t-100.5 93.5t-140.5 33q-76 0 -139.5 -33zM504 0q-32 0 -94.5 41t-126.5 111.5t-107 163t-43 193.5q0 105 48.5 187.5
t133.5 128.5t189 46q105 0 190 -46t133.5 -128.5t48.5 -187.5q0 -133 -73.5 -241t-160.5 -169h442q77 0 128.5 50t58.5 121.5t-38 130.5l-360 473l77 58l362 -477q52 -69 57.5 -149t-30.5 -150t-103 -113t-150 -43h-582z" />
    <glyph glyph-name="uni06C1" unicode="&#x6c1;" horiz-adv-x="1035" arabic-form="isolated" 
d="M333 581.5q-85 -118.5 -85 -234.5q0 -81 39.5 -140.5t102.5 -90.5t130 -31q68 0 131 30.5t102.5 90t39.5 141.5q0 90 -67.5 207t-199.5 241q-108 -95 -193 -213.5zM378 921l60 74l39 -31q201 -164 305.5 -323.5t104.5 -292.5q0 -110 -52.5 -191t-137 -123t-177.5 -42
t-177.5 43.5t-136.5 124.5t-52 188q0 100 59 205.5t129.5 184t116.5 116.5z" />
    <glyph glyph-name="uni06C3.fina" unicode="&#x6c3;" horiz-adv-x="1184" 
d="M171 7l37 297q14 115 87.5 204t183.5 127l318 106l63 -41l34 -380q11 -97 80.5 -158.5t165.5 -61.5h44v-100h-44q-88 0 -163 41t-122.5 112t-54.5 158l-30 319l-261 -86q-83 -28 -139 -96.5t-67 -155.5l-37 -297zM368 1026v125h155v-125h-155zM685 1026v126h155v-126
h-155z" />
    <glyph glyph-name="uni06C6" unicode="&#x6c6;" horiz-adv-x="1060" arabic-form="isolated" 
d="M589.5 -360.5q95.5 57.5 151.5 151.5t57 209h-274q-177 0 -269 99t-92 289q0 118 47 211t130.5 145t189.5 52q108 0 190.5 -51.5t128 -144t45.5 -212.5v-376q0 -146 -66.5 -264t-182 -190.5t-258.5 -86.5l-282 -29l-8 97l281 31q116 12 211.5 69.5zM802 387
q0 79 -27 150.5t-88 118t-157 46.5q-84 0 -145.5 -41t-94.5 -112.5t-33 -161.5q0 -146 68.5 -216.5t204.5 -70.5h272v287zM504 1068l-263 302l85 1l203 -231l203 231l85 -1l-263 -302h-50z" />
    <glyph glyph-name="uni06C7" unicode="&#x6c7;" horiz-adv-x="1060" arabic-form="isolated" 
d="M589.5 -360.5q95.5 57.5 151.5 151.5t57 209h-274q-177 0 -269 99t-92 289q0 118 47 211t130.5 145t189.5 52q108 0 190.5 -51.5t128 -144t45.5 -212.5v-376q0 -146 -66.5 -264t-182 -190.5t-258.5 -86.5l-282 -29l-8 97l281 31q116 12 211.5 69.5zM802 387
q0 79 -27 150.5t-88 118t-157 46.5q-84 0 -145.5 -41t-94.5 -112.5t-33 -161.5q0 -146 68.5 -216.5t204.5 -70.5h272v287zM316 1100l138 56l-53 134q-30 83 3 159.5t114 111.5q83 30 159 -3t111 -114q31 -83 -2 -159.5t-115 -110.5l-355 -142v68zM505.5 1481.5
q-37.5 -30.5 -50.5 -77t5 -90.5l54 -135l134 53q56 23 80 78t1 111q-16 41 -53 66t-82 25q-51 0 -88.5 -30.5z" />
    <glyph glyph-name="uni06C9" unicode="&#x6c9;" horiz-adv-x="1060" arabic-form="isolated" 
d="M589.5 -360.5q95.5 57.5 151.5 151.5t57 209h-274q-177 0 -269 99t-92 289q0 118 47 211t130.5 145t189.5 52q108 0 190.5 -51.5t128 -144t45.5 -212.5v-376q0 -146 -66.5 -264t-182 -190.5t-258.5 -86.5l-282 -29l-8 97l281 31q116 12 211.5 69.5zM802 387
q0 79 -27 150.5t-88 118t-157 46.5q-84 0 -145.5 -41t-94.5 -112.5t-33 -161.5q0 -146 68.5 -216.5t204.5 -70.5h272v287zM817 1027l-85 -1l-203 231l-203 -231l-85 1l263 302h50z" />
    <glyph glyph-name="uni06D2" unicode="&#x6d2;" horiz-adv-x="1600" arabic-form="isolated" 
d="M565 0q-109 0 -201.5 54t-146 146t-53.5 201t53.5 201t146 146t201.5 54h216v-96h-216q-84 0 -154 -41t-111 -111t-41 -153t41 -153t111.5 -111t153.5 -41h871v-96h-871z" />
    <glyph glyph-name="uni06D3" unicode="&#x6d3;" horiz-adv-x="1600" arabic-form="isolated" 
d="M565 0q-109 0 -201.5 54t-146 146t-53.5 201t53.5 201t146 146t201.5 54h216v-96h-216q-84 0 -154 -41t-111 -111t-41 -153t41 -153t111.5 -111t153.5 -41h871v-96h-871zM254 1220l144 58q-58 21 -94.5 71.5t-37.5 116.5q0 53 26.5 101.5t74 78.5t109.5 30q37 1 65 -8
t62 -26q12 -5 17 -8l-16 -59q-8 3 -23 10q-30 14 -53 21t-52 7q-64 0 -105 -45t-41 -102q-1 -54 37 -98t107 -61l206 82v-67l-426 -170v68z" />
    <glyph glyph-name="uniFB51" unicode="&#x671;" horiz-adv-x="609" arabic-form="final" 
d="M553 0q-95 0 -173.5 45.5t-123 123t-44.5 169.5v953h95l1 -945q0 -67 33 -123.5t89 -89.5t123 -33h56v-100h-56zM376 1524q67 0 111.5 34t44.5 86q0 64 -38.5 112.5t-113.5 48.5q-83 0 -136.5 -84t-91.5 -189q-2 -6 -3 -8h227zM197 1768.5q68 102.5 182 102.5
q70 0 119.5 -32t74.5 -84t25 -111q0 -52 -29 -95t-80 -67t-113 -24h-246q-51 0 -100 40t-79.5 102.5t-30.5 125.5v33h66v-33q0 -53 30.5 -106.5t69.5 -74.5q43 121 111 223.5z" />
    <glyph glyph-name="uniFB57" unicode="&#x67e;" horiz-adv-x="1958" arabic-form="final" 
d="M1316 100q67 0 123.5 33t89.5 89.5t33 123.5v312h96v-312q0 -67 33 -123.5t89.5 -89.5t123.5 -33h54v-100h-54q-99 0 -178 53t-116 140q-38 -87 -116.5 -140t-177.5 -53h-797q-112 0 -202.5 63.5t-130.5 172t-9 234.5l52 203l95 -28l-52 -194q-23 -91 4.5 -172t93 -130
t149.5 -49h797zM673 -445v126q79 -1 155 0v-126h-155zM990 -444v125h155v-125h-155zM832 -745v122h154v-122h-154z" />
    <glyph glyph-name="uniFB58" unicode="&#x67e;" horiz-adv-x="676" arabic-form="initial" 
d="M170 100q67 0 123.5 33t90 89.5t33.5 123.5v312h95v-320q0 -92 -46 -169.5t-124.5 -123t-171.5 -45.5h-170q-39 8 -53.5 29t0 42t53.5 29h170zM-149 -449v126q79 -1 155 0v-126h-155zM168 -448v125h155v-125h-155zM10 -749v122h154v-122h-154z" />
    <glyph glyph-name="uniFB59" unicode="&#x67e;" horiz-adv-x="813" arabic-form="medial" 
d="M170 100q67 0 123.5 33t90 89.5t33.5 123.5v312h95v-312q0 -67 33 -123.5t90 -89.5t124 -33h54v-100h-54q-100 0 -178.5 53t-116.5 140q-37 -87 -115.5 -140t-178.5 -53h-170q-39 8 -53.5 29t0 42t53.5 29h170zM-148 -449v126q79 -1 155 0v-126h-155zM169 -448v125h155
v-125h-155zM11 -749v122h154v-122h-154z" />
    <glyph glyph-name="uniFB67" unicode="&#x679;" horiz-adv-x="1958" arabic-form="final" 
d="M1316 100q67 0 123.5 33t89.5 89.5t33 123.5v312h96v-312q0 -67 33 -123.5t89.5 -89.5t123.5 -33h54v-100h-54q-99 0 -178 53t-116 140q-38 -87 -116.5 -140t-177.5 -53h-797q-112 0 -202.5 63.5t-130.5 172t-9 234.5l52 203l95 -28l-52 -194q-23 -91 4.5 -172t93 -130
t149.5 -49h797zM972 818q67 0 111.5 34t44.5 86q0 64 -38.5 112.5t-113.5 48.5q-86 0 -142 -91.5t-85 -189.5h223zM693 1377h66v-381q91 169 217 169q69 0 118.5 -32t74.5 -84t25 -111q-2 -81 -64.5 -133.5t-157.5 -52.5h-344v66h51q7 25 14 47v512z" />
    <glyph glyph-name="uniFB68" unicode="&#x679;" horiz-adv-x="812" arabic-form="initial" 
d="M321 100q67 0 123.5 33t89.5 89.5t33 123.5v312h96v-320q0 -92 -46 -169.5t-124.5 -123t-171.5 -45.5h-321q-39 8 -53.5 29t0 42t53.5 29h321zM402 1005q67 0 111.5 34t44.5 86q0 64 -38.5 112.5t-113.5 48.5q-86 0 -142 -91.5t-85 -189.5h223zM123 1564h66v-381
q91 169 217 169q69 0 118.5 -32t74.5 -84t25 -111q-2 -81 -64.5 -133.5t-157.5 -52.5h-344v66h51q7 25 14 47v512z" />
    <glyph glyph-name="uniFB69" unicode="&#x679;" horiz-adv-x="931" arabic-form="medial" 
d="M321 100q67 0 123.5 33t89.5 89.5t33 123.5v312h96v-312q0 -67 33 -123.5t89.5 -89.5t123.5 -33h37v-100h-37q-99 0 -178 53t-116 140q-38 -87 -116.5 -140t-177.5 -53h-321q-39 8 -53.5 29t0 42t53.5 29h321zM402 1006q67 0 111.5 34t44.5 86q0 64 -38.5 112.5
t-113.5 48.5q-86 0 -142 -91.5t-85 -189.5h223zM123 1565h66v-381q91 169 217 169q69 0 118.5 -32t74.5 -84t25 -111q-2 -81 -64.5 -133.5t-157.5 -52.5h-344v66h51q7 25 14 47v512z" />
    <glyph glyph-name="uniFB6B" unicode="&#x6a4;" horiz-adv-x="1986" arabic-form="final" 
d="M1252.5 753q-65.5 -33 -104.5 -96t-39 -147q0 -104 54.5 -190t119 -140t112.5 -81q48 27 112.5 81t119 140t54.5 190q0 84 -39 147t-104.5 96t-142.5 33t-142.5 -33zM518 100h739q-89 62 -165.5 169.5t-76.5 239.5q0 109 50.5 193t137.5 131t192 47t192 -46.5t137.5 -131
t50.5 -193.5q0 -132 -76.5 -239.5t-165.5 -169.5h453v-100h-487q-41 0 -70.5 9.5t-33.5 19.5q-4 -10 -33.5 -19.5t-70.5 -9.5h-774zM276.5 279q27.5 -81 93 -130t149.5 -49v-100q-112 0 -202.5 63.5t-130.5 172t-9 234.5l52 203l95 -28l-53 -194q-22 -91 5.5 -172z
M1154 1180v125h155v-125h-155zM1471 1180v126h155v-126h-155zM1313 1479v122h154v-122h-154z" />
    <glyph glyph-name="uniFB6C" unicode="&#x6a4;" horiz-adv-x="1114" arabic-form="initial" 
d="M837 296.5q30 104.5 30 226.5q0 95 -41.5 164.5t-106.5 105.5t-136 36q-73 1 -138.5 -39t-104.5 -106.5t-39 -141.5q1 -83 50 -170.5t149 -149.5t243 -68q64 38 94 142.5zM-53.5 29q-14.5 21 0 42t53.5 29h240q342 0 395 12q-150 12 -245.5 83t-138.5 165t-44 180
q0 102 52 190t139 140.5t185 51.5q98 0 185 -50t139.5 -141t52.5 -208q0 -235 -90.5 -379t-267.5 -144h-602q-39 8 -53.5 29zM347 1222v125h155v-125h-155zM664 1222v126h155v-126h-155zM506 1521v122h154v-122h-154z" />
    <glyph glyph-name="uniFB6D" unicode="&#x6a4;" horiz-adv-x="1183" arabic-form="medial" 
d="M449 753q-65 -33 -104.5 -96t-39.5 -147q0 -104 55 -190t119.5 -140t112.5 -81q48 28 112 81.5t119 139.5t55 190q0 84 -39 147t-104.5 96t-142.5 33q-78 0 -143 -33zM454 100q-90 62 -166 169.5t-76 239.5q0 109 50.5 193t137.5 131t192 47t192 -46.5t137.5 -131
t50.5 -193.5q0 -132 -76.5 -239.5t-165.5 -169.5h453v-100h-488q-41 0 -70.5 9.5t-32.5 19.5q-4 -10 -33.5 -19.5t-70.5 -9.5h-488q-39 8 -53.5 29t0 42t53.5 29h454zM355 1179v125h155v-125h-155zM672 1179v126h155v-126h-155zM514 1478v122h154v-122h-154z" />
    <glyph glyph-name="uniFB7B" unicode="&#x686;" horiz-adv-x="1497" arabic-form="final" 
d="M1188 230q15 -75 72 -102.5t119 -27.5h121v-100h-123q-86 0 -166 42.5t-101 143.5l-33 167l-566 -243q-114 -51 -188 -153.5t-72 -213.5q1 -89 52 -173t136 -136.5t180 -52.5h628v-97h-628q-121 1 -228 64t-171.5 169.5t-66.5 230.5q-1 93 41.5 183t116.5 160t165 107
l789 327q-94 28 -201 87t-258 153q-103 65 -144 88q-90 48 -177 9.5t-130 -153.5l-14 -33l-89 38l14 32q38 101 109.5 160t158 68t168.5 -35q80 -43 302 -172q174 -100 261.5 -149t98.5 -49l-4 -97l-202 -88zM604 -183v109q68 -1 136 0v-109h-136zM878 -183v109h136v-109
h-136zM740 -384q-1 55 0 109h138q1 -54 0 -109h-138z" />
    <glyph glyph-name="uniFB7C" unicode="&#x686;" horiz-adv-x="1422" arabic-form="initial" 
d="M239 100q155 0 327 49.5t308 110.5t284 136q44 23 61 32q-93 39 -289 138.5t-317 167.5q-56 31 -116.5 25.5t-111.5 -49.5t-78 -120l-13 -31l-89 37l13 31q37 100 108.5 159.5t158.5 68.5t169 -35q244 -134 440.5 -238t219.5 -104l3 -82q-6 -2 -61 -35
q-137 -83 -282.5 -158.5t-344 -139t-390.5 -63.5h-239q-39 8 -53.5 29t0 42t53.5 29h239zM342 -447v126q79 -1 155 0v-126h-155zM659 -446v125h155v-125h-155zM501 -747v122h154v-122h-154z" />
    <glyph glyph-name="uniFB7D" unicode="&#x686;" horiz-adv-x="1482" arabic-form="medial" 
d="M1084 270l139 -117q66 -53 152 -53h123v-100h-123q-60 0 -115.5 22t-95.5 63l-156 141zM239 100q155 0 327 49.5t308 110.5t284 136q44 23 61 32q-93 39 -289 138.5t-317 167.5q-56 31 -116.5 25.5t-111.5 -49.5t-78 -120l-13 -31l-89 37l13 31q37 100 108.5 159.5
t158.5 68.5t169 -35q244 -134 440.5 -238t219.5 -104l3 -82q-6 -2 -61 -35q-137 -83 -282.5 -158.5t-344 -139t-390.5 -63.5h-239q-39 8 -53.5 29t0 42t53.5 29h239zM342 -447v126q79 -1 155 0v-126h-155zM659 -446v125h155v-125h-155zM501 -747v122h154v-122h-154z" />
    <glyph glyph-name="uniFB89" unicode="&#x688;" horiz-adv-x="1200" arabic-form="final" 
d="M737 133.5q46 37.5 61.5 90.5t-7.5 95l-309 565l85 46l389 -716q29 -54 80.5 -84t113.5 -30h50v-100h-50q-82 0 -152 40.5t-111 110.5l-28 52q-1 -45 -37 -93t-93.5 -79t-119.5 -31h-520v96h541q61 0 107 37.5zM658 1291q67 0 111.5 34t44.5 86q0 64 -38.5 112.5
t-113.5 48.5q-86 0 -142 -91.5t-85 -189.5h223zM379 1850h66v-381q91 169 217 169q69 0 118.5 -32t74.5 -84t25 -111q-2 -81 -64.5 -133.5t-157.5 -52.5h-344v66h51q7 25 14 47v512z" />
    <glyph glyph-name="uniFB8B" unicode="&#x698;" horiz-adv-x="874" arabic-form="final" 
d="M654 50q-81 50 -127 133v-168q-1 -137 -67 -252t-181.5 -191t-258.5 -102l-40 -8l-18 98l49 10q118 22 213.5 85.5t151 159t55.5 207.5v636h96v-269q4 -79 45.5 -145.5t110 -105t148.5 -38.5h42v-100h-42q-96 0 -177 50zM244 979v125h155v-125h-155zM561 979v126h155
v-126h-155zM403 1278v122h154v-122h-154z" />
    <glyph glyph-name="uniFB8D" unicode="&#x691;" horiz-adv-x="874" arabic-form="final" 
d="M654 50q-81 50 -127 133v-168q-1 -137 -67 -252t-181.5 -191t-258.5 -102l-40 -8l-18 98l49 10q118 22 213.5 85.5t151 159t55.5 207.5v636h96v-269q4 -79 45.5 -145.5t110 -105t148.5 -38.5h42v-100h-42q-96 0 -177 50zM583 1032q67 0 111.5 34t44.5 86
q0 64 -38.5 112.5t-113.5 48.5q-86 0 -142 -91.5t-85 -189.5h223zM304 1591h66v-381q91 169 217 169q69 0 118.5 -32t74.5 -84t25 -111q-2 -81 -64.5 -133.5t-157.5 -52.5h-344v66h51q7 25 14 47v512z" />
    <glyph glyph-name="uniFB8F" unicode="&#x6a9;" horiz-adv-x="2137" arabic-form="final" 
d="M518 100h936q78 0 130 52t57.5 126t-44.5 132l-624 651v96l768 311l33 -90l-700 -285l894 -935q27 -28 63.5 -43t76.5 -15h29v-100h-29q-58 0 -111.5 23t-94.5 65l-187 197q6 -71 -27.5 -137t-99.5 -107t-151 -41h-918q-9 48 -1 100zM276.5 279q27.5 -81 93 -130
t149.5 -49v-100q-112 0 -202.5 63.5t-130.5 172t-9 234.5l52 203l95 -28l-53 -194q-22 -91 5.5 -172z" />
    <glyph glyph-name="uniFB90" unicode="&#x6a9;" horiz-adv-x="1082" arabic-form="initial" 
d="M623 100q79 0 131.5 54.5t56 129.5t-51.5 133l-617 644v96l768 311l33 -90l-700 -285l589 -615q62 -64 74.5 -147t-20 -159t-101 -124t-158.5 -48h-627q-39 8 -53.5 29t0 42t53.5 29h623z" />
    <glyph glyph-name="uniFB91" unicode="&#x6a9;" horiz-adv-x="1314" arabic-form="medial" 
d="M623 100q78 0 130 52t57.5 126t-44.5 132l-624 651v96l768 311l33 -90l-700 -285l894 -935q27 -28 63.5 -43t76.5 -15h37v-100h-37q-58 0 -111.5 23t-94.5 65l-187 197q6 -71 -27.5 -137t-99.5 -107t-151 -41h-606q-39 8 -53.5 29t0 42t53.5 29h623z" />
    <glyph glyph-name="uniFB93" unicode="&#x6af;" horiz-adv-x="2137" arabic-form="final" 
d="M518 100h936q78 0 130 52t57.5 126t-44.5 132l-624 651v96l768 311l33 -90l-700 -285l894 -935q27 -28 63.5 -43t76.5 -15h29v-100h-29q-58 0 -111.5 23t-94.5 65l-187 197q6 -71 -27.5 -137t-99.5 -107t-151 -41h-918q-9 48 -1 100zM276.5 279q27.5 -81 93 -130
t149.5 -49v-100q-112 0 -202.5 63.5t-130.5 172t-9 234.5l52 203l95 -28l-53 -194q-22 -91 5.5 -172zM973 1458l652 259l25 -60l-676 -267z" />
    <glyph glyph-name="uniFB94" unicode="&#x6af;" horiz-adv-x="1082" arabic-form="initial" 
d="M623 100q79 0 131.5 54.5t56 129.5t-51.5 133l-617 644v96l768 311l33 -90l-700 -285l589 -615q62 -64 74.5 -147t-20 -159t-101 -124t-158.5 -48h-627q-39 8 -53.5 29t0 42t53.5 29h623zM142 1458l652 259l25 -60l-676 -267z" />
    <glyph glyph-name="uniFB95" unicode="&#x6af;" horiz-adv-x="1314" arabic-form="medial" 
d="M623 100q78 0 130 52t57.5 126t-44.5 132l-624 651v96l768 311l33 -90l-700 -285l894 -935q27 -28 63.5 -43t76.5 -15h37v-100h-37q-58 0 -111.5 23t-94.5 65l-187 197q6 -71 -27.5 -137t-99.5 -107t-151 -41h-606q-39 8 -53.5 29t0 42t53.5 29h623zM142 1458l652 259
l25 -60l-676 -267z" />
    <glyph glyph-name="uniFB9F" unicode="&#x6ba;" horiz-adv-x="1713" arabic-form="final" 
d="M1413 337q3 -97 73.5 -167.5t172.5 -70.5h54v-100h-54q-77 0 -143 39t-104 103zM706 -549q-218 0 -331 79t-169 213t-56 279q1 151 38 268t72 207l90 -39q-28 -65 -66 -178.5t-38 -248.5q1 -188 95 -333.5t365 -146.5h170q120 0 220 60.5t160 170.5t60 275v601h97v-600
q1 -184 -71.5 -319.5t-196.5 -211.5t-269 -76h-170z" />
    <glyph glyph-name="uniFBA7" unicode="&#x6c1;" horiz-adv-x="1184" arabic-form="final" 
d="M171 7l37 297q14 115 87.5 204t183.5 127l318 106l63 -41l34 -380q11 -97 80.5 -158.5t165.5 -61.5h44v-100h-44q-88 0 -163 41t-122.5 112t-54.5 158l-30 319l-261 -86q-83 -28 -139 -96.5t-67 -155.5l-37 -297z" />
    <glyph glyph-name="uniFBA8" unicode="&#x6c1;" horiz-adv-x="1301" arabic-form="initial" 
d="M797 -760q-37 -31 -92 -31q-53 0 -90 34.5t-37 84.5v73q2 102 67 177.5t170 95.5l22 4l11 -78l-35 -5q-69 -11 -113 -63.5t-44 -121.5v-28q46 28 87 26.5t66 -26.5t25 -62q0 -49 -37 -80zM139 100q67 0 123.5 33t90 89.5t33.5 123.5v287h95v-287q0 -67 33.5 -123.5
t90 -89.5t123.5 -33h50q67 0 123.5 33t90 89.5t33.5 123.5v309h95v-317q0 -92 -46 -169.5t-124.5 -123t-171.5 -45.5h-50q-100 0 -178.5 53t-116.5 140q-37 -87 -115.5 -140t-178.5 -53h-139q-39 8 -53.5 29t0 42t53.5 29h139z" />
    <glyph glyph-name="uniFBA9" unicode="&#x6c1;" horiz-adv-x="1125" arabic-form="medial" 
d="M290 100v440h96v-508q1 -265 110.5 -388t323.5 -132v434q-1 67 42.5 110.5t110.5 43.5h152v-100h-137q-34 0 -53 -19.5t-19 -53.5v-461l-48 -54q-271 0 -419.5 141t-156.5 447h-292q-39 8 -53.5 29t0 42t53.5 29h290z" />
    <glyph glyph-name="uniFBAB" unicode="&#x6be;" horiz-adv-x="1558" arabic-form="final" 
d="M364.5 745q-63.5 -33 -100.5 -93.5t-37 -141.5q0 -104 52.5 -190t115.5 -140.5t109 -80.5q46 26 109 80.5t116 140.5t53 190q0 81 -37 141.5t-100.5 93.5t-140.5 33q-76 0 -139.5 -33zM504 0q-32 0 -94.5 41t-126.5 111.5t-107 163t-43 193.5q0 105 48.5 187.5
t133.5 128.5t189 46q105 0 190 -46t133.5 -128.5t48.5 -187.5q0 -133 -73.5 -241t-160.5 -169h442q77 0 128.5 50t58.5 121.5t-38 130.5l-360 473l77 58l362 -477q65 -86 53 -187t-81 -168h274v-100h-1054z" />
    <glyph glyph-name="uniFBAC" unicode="&#x6be;" horiz-adv-x="1588" arabic-form="initial" 
d="M443 745q-63 -33 -100.5 -93.5t-37.5 -141.5q0 -104 53 -190t116 -140.5t109 -80.5q46 26 109 80.5t116 140.5t53 190q0 81 -37.5 141.5t-100.5 93.5t-140 33t-140 -33zM616.5 9.5q-29.5 9.5 -33.5 19.5q-4 -10 -33.5 -19.5t-70.5 -9.5h-479q-39 8 -53.5 29t0 42t53.5 29
h445q-87 60 -160 168t-73 241q0 105 48.5 187.5t133.5 128.5t189 46q105 0 189.5 -46t133 -128.5t48.5 -187.5q0 -133 -73 -241t-161 -169h439q78 0 130.5 51t59.5 124.5t-39 132.5l-356 468l74 57l363 -477q52 -69 57.5 -149t-31 -150t-103 -113t-149.5 -43h-478
q-41 0 -70.5 9.5z" />
    <glyph glyph-name="uniFBAD" unicode="&#x6be;" horiz-adv-x="1637" arabic-form="medial" 
d="M443 745q-63 -33 -100.5 -93.5t-37.5 -141.5q0 -104 53 -190t116 -140.5t109 -80.5q46 26 109 80.5t116 140.5t53 190q0 81 -37.5 141.5t-100.5 93.5t-140 33t-140 -33zM687 0q-41 0 -70.5 9.5t-33.5 19.5q-4 -10 -33.5 -19.5t-70.5 -9.5h-479q-39 8 -53.5 29t0 42
t53.5 29h445q-87 60 -160 168t-73 241q0 105 48.5 187.5t133.5 128.5t189 46q105 0 189.5 -46t133 -128.5t48.5 -187.5q0 -133 -73 -241t-161 -169h443q77 0 128 50t58.5 121.5t-37.5 130.5l-360 473l76 58l363 -477q65 -86 53 -187t-81 -168h274v-100h-950z" />
    <glyph glyph-name="uniFBAF" unicode="&#x6d2;" horiz-adv-x="1095" arabic-form="final" 
d="M503 -513q-95 0 -173 38t-123.5 107t-45.5 157q0 89 46 160t124.5 111t174.5 40h589v-100h-589q-70 0 -127 -26t-89.5 -74t-32.5 -111q0 -93 72 -151t174 -58h401v-93h-401z" />
    <glyph glyph-name="uniFBB1" unicode="&#x6d3;" horiz-adv-x="1095" arabic-form="final" 
d="M503 -513q-95 0 -173 38t-123.5 107t-45.5 157q0 89 46 160t124.5 111t174.5 40h589v-100h-589q-70 0 -127 -26t-89.5 -74t-32.5 -111q0 -93 72 -151t174 -58h401v-93h-401zM254 519l144 58q-58 21 -94.5 71.5t-37.5 116.5q0 53 26.5 101.5t74 78.5t109.5 30q37 1 65 -8
t62 -26q12 -5 17 -8l-16 -59q-8 3 -23 10q-30 14 -53 21t-52 7q-64 0 -105 -45t-41 -102q-1 -54 37 -98t107 -61l206 82v-67l-426 -170v68z" />
    <glyph glyph-name="uniFBD8" unicode="&#x6c7;" horiz-adv-x="1112" arabic-form="final" 
d="M589.5 -360.5q95.5 57.5 151.5 151.5t57 209h-274q-177 0 -269 99t-92 289q0 118 47 211t130.5 145t189.5 52q108 0 190.5 -51.5t128 -144t45.5 -212.5v-288h217v-100h-217q-3 -143 -70 -258.5t-181.5 -186t-255.5 -84.5l-282 -29l-8 97l281 31q116 12 211.5 69.5z
M802 387q0 79 -27 150.5t-88 118t-157 46.5q-84 0 -145.5 -41t-94.5 -112.5t-33 -161.5q0 -146 68.5 -216.5t204.5 -70.5h272v287zM316 1100l138 56l-53 134q-30 83 3 159.5t114 111.5q83 30 159 -3t111 -114q31 -83 -2 -159.5t-115 -110.5l-355 -142v68zM505.5 1481.5
q-37.5 -30.5 -50.5 -77t5 -90.5l54 -135l134 53q56 23 80 78t1 111q-16 41 -53 66t-82 25q-51 0 -88.5 -30.5z" />
    <glyph glyph-name="uniFBDA" unicode="&#x6c6;" horiz-adv-x="1112" arabic-form="final" 
d="M589.5 -360.5q95.5 57.5 151.5 151.5t57 209h-274q-177 0 -269 99t-92 289q0 118 47 211t130.5 145t189.5 52q108 0 190.5 -51.5t128 -144t45.5 -212.5v-288h217v-100h-217q-3 -143 -70 -258.5t-181.5 -186t-255.5 -84.5l-282 -29l-8 97l281 31q116 12 211.5 69.5z
M802 387q0 79 -27 150.5t-88 118t-157 46.5q-84 0 -145.5 -41t-94.5 -112.5t-33 -161.5q0 -146 68.5 -216.5t204.5 -70.5h272v287zM504 1068l-263 302l85 1l203 -231l203 231l85 -1l-263 -302h-50z" />
    <glyph glyph-name="uniFBE3" unicode="&#x6c9;" horiz-adv-x="1112" arabic-form="final" 
d="M589.5 -360.5q95.5 57.5 151.5 151.5t57 209h-274q-177 0 -269 99t-92 289q0 118 47 211t130.5 145t189.5 52q108 0 190.5 -51.5t128 -144t45.5 -212.5v-288h217v-100h-217q-3 -143 -70 -258.5t-181.5 -186t-255.5 -84.5l-282 -29l-8 97l281 31q116 12 211.5 69.5z
M802 387q0 79 -27 150.5t-88 118t-157 46.5q-84 0 -145.5 -41t-94.5 -112.5t-33 -161.5q0 -146 68.5 -216.5t204.5 -70.5h272v287zM817 1027l-85 -1l-203 231l-203 -231l-85 1l263 302h50z" />
    <glyph glyph-name="uniFBE8" unicode="&#x649;" horiz-adv-x="676" arabic-form="initial" 
d="M170 100q67 0 123.5 33t90 89.5t33.5 123.5v312h95v-320q0 -92 -46 -169.5t-124.5 -123t-171.5 -45.5h-170q-39 8 -53.5 29t0 42t53.5 29h170z" />
    <glyph glyph-name="uniFBE9" unicode="&#x649;" horiz-adv-x="813" arabic-form="medial" 
d="M170 100q67 0 123.5 33t90 89.5t33.5 123.5v312h95v-312q0 -67 33 -123.5t90 -89.5t124 -33h54v-100h-54q-100 0 -178.5 53t-116.5 140q-37 -87 -115.5 -140t-178.5 -53h-170q-39 8 -53.5 29t0 42t53.5 29h170z" />
    <glyph glyph-name="uniFBFD" unicode="&#x6cc;" horiz-adv-x="1719" arabic-form="final" 
d="M713 -549q-218 0 -331 79t-168 213t-55 279q0 177 28 281t63 193l90 -38q-28 -65 -56.5 -165.5t-28.5 -262.5q0 -188 93 -334t363 -148h229q172 0 303.5 75t131.5 241q0 60 -36.5 99.5t-88.5 40.5h-446v96h915v-100h-312q62 -51 62 -134q-1 -114 -59.5 -204t-178 -150.5
t-291.5 -60.5h-227z" />
    <glyph glyph-name="uniFBFE" unicode="&#x6cc;" horiz-adv-x="676" arabic-form="initial" 
d="M170 100q67 0 123.5 33t90 89.5t33.5 123.5v312h95v-320q0 -92 -46 -169.5t-124.5 -123t-171.5 -45.5h-170q-39 8 -53.5 29t0 42t53.5 29h170zM-149 -534v126q79 -1 155 0v-126h-155zM168 -533v125h155v-125h-155z" />
    <glyph glyph-name="uniFBFF" unicode="&#x6cc;" horiz-adv-x="812" arabic-form="medial" 
d="M170 100q67 0 123.5 33t90 89.5t33.5 123.5v312h95v-312q0 -67 33 -123.5t90 -89.5t124 -33h54v-100h-54q-100 0 -178.5 53t-116.5 140q-37 -87 -115.5 -140t-178.5 -53h-170q-39 8 -53.5 29t0 42t53.5 29h170zM-149 -534v126q79 -1 155 0v-126h-155zM168 -533v125h155
v-125h-155z" />
    <glyph glyph-name="uniFD3C" unicode="&#xfd3c;" horiz-adv-x="609" arabic-form="final" 
d="M553 0q-95 0 -173.5 45.5t-123 123t-44.5 169.5v953h95l1 -945q0 -67 33 -123.5t89 -89.5t123 -33h56v-100h-56zM102 1470l426 169v-67l-426 -170v68zM68 1696l426 169v-67l-426 -170v68z" />
    <glyph glyph-name="uniFD3D" unicode="&#xfd3d;" horiz-adv-x="519" arabic-form="isolated" 
d="M307 1291l1 -1291h-96v1291h95zM102 1470l426 169v-67l-426 -170v68zM68 1696l426 169v-67l-426 -170v68z" />
    <glyph glyph-name="uniFDF2" unicode="&#xfdf2;" horiz-adv-x="2917" arabic-form="isolated" 
d="M2714 1489l1 -1489h-96v1489h95zM1954 100q67 0 123.5 33t89.5 89.5t33 123.5v1143h96v-1147q0 -93 -46 -171.5t-124.5 -124.5t-171.5 -46h-105q-39 8 -53.5 29t0 42t53.5 29h105zM1243 100q67 0 123.5 33t89.5 89.5t33 123.5v861h96v-861q0 -67 33 -123.5t89.5 -89.5
t123.5 -33h52v-100h-52q-99 0 -177.5 53t-116.5 140q-37 -87 -116 -140t-178 -53h-52q-39 8 -53.5 29t0 42t53.5 29h52zM1495 1513q-44 -51 -117 -51q-72 0 -116 51t-44 127v145h63v-145q0 -50 25.5 -82.5t71.5 -32.5q47 0 72 32.5t25 82.5v145h63v-145q1 -76 -43 -127z
M1752 1533q-44 -51 -117 -51q-72 0 -116 51t-44 127v125h63v-125q0 -50 25.5 -82.5t71.5 -32.5q47 0 72.5 32.5t25.5 82.5v145h62l1 -145q0 -76 -44 -127zM1551 2298v-360h-63v360h63zM654.5 90.5q-123.5 -32.5 -232 -10t-177.5 94.5t-75 182q-9 155 54.5 278t201.5 193
t344 67l-28 184l96 13l118 -806q12 -80 73 -132.5t142 -53.5h49v-100h-49q-97 1 -175 58t-110 152q-108 -87 -231.5 -119.5zM485.5 755.5q-119.5 -54.5 -174.5 -155.5t-48 -235q8 -102 94.5 -158.5t225.5 -39t277 127.5l-75 509q-180 6 -299.5 -48.5z" />
    <glyph glyph-name="uniFDFC" unicode="&#xfdfc;" horiz-adv-x="3306" arabic-form="isolated" 
d="M2578 -440l49 10q180 33 300 158t120 294v636h96v-641q0 -207 -143.5 -357t-364.5 -190l-39 -8zM1762 -518v110h534v-110h-534zM1410 1377v-1319q1 -184 -71 -319.5t-196.5 -211.5t-269.5 -76h-167q-218 0 -331 79t-169 213t-56 279q1 151 38 268t72 207l90 -39
q-28 -65 -66 -178.5t-38 -249.5q1 -187 95 -332.5t365 -146.5h167q120 0 220 60.5t160 170.5t60 275v1399l611 64l1 -1174q0 -102 71.5 -174t173.5 -72h176q102 0 174 72t72 174v312h96v-320q0 -139 -99 -238.5t-243 -99.5h-176q-145 0 -243 99.5t-98 238.5v1086z" />
    <glyph glyph-name="uniFE82" unicode="&#x622;" horiz-adv-x="609" arabic-form="final" 
d="M553 0q-95 0 -173.5 45.5t-123 123t-44.5 169.5v953h95l1 -945q0 -67 33 -123.5t89 -89.5t123 -33h56v-100h-56zM-168 1376l50 124q31 78 100 125t153 47h425v-75h-425q-61 1 -111 -33t-73 -91l-49 -125z" />
    <glyph glyph-name="uniFE86" unicode="&#x624;" horiz-adv-x="1112" arabic-form="final" 
d="M589.5 -360.5q95.5 57.5 151.5 151.5t57 209h-274q-177 0 -269 99t-92 289q0 118 47 211t130.5 145t189.5 52q108 0 190.5 -51.5t128 -144t45.5 -212.5v-288h217v-100h-217q-3 -143 -70 -258.5t-181.5 -186t-255.5 -84.5l-282 -29l-8 97l281 31q116 12 211.5 69.5z
M802 387q0 79 -27 150.5t-88 118t-157 46.5q-84 0 -145.5 -41t-94.5 -112.5t-33 -161.5q0 -146 68.5 -216.5t204.5 -70.5h272v287zM317 1085l144 58q-58 21 -94.5 71.5t-37.5 116.5q0 53 26.5 101.5t74 78.5t109.5 30q37 1 65 -8t62 -26q12 -5 17 -8l-16 -59q-8 3 -23 10
q-30 14 -53 21t-52 7q-64 0 -105 -45t-41 -102q-1 -54 37 -98t107 -61l206 82v-67l-426 -170v68z" />
    <glyph glyph-name="uniFE88" unicode="&#x625;" horiz-adv-x="609" arabic-form="final" 
d="M553 0q-95 0 -173.5 45.5t-123 123t-44.5 169.5v1151h95l1 -1143q0 -67 33 -123.5t89 -89.5t123 -33h56v-100h-56zM43 -739l144 58q-58 21 -94.5 71.5t-37.5 116.5q0 53 26.5 101.5t74 78.5t109.5 30q37 1 65 -8t62 -26q12 -5 17 -8l-16 -59q-8 3 -23 10q-30 14 -53 21
t-52 7q-64 0 -105 -45t-41 -102q-1 -54 37 -98t107 -61l206 82v-67l-426 -170v68z" />
    <glyph glyph-name="uniFE8B" unicode="&#x626;" horiz-adv-x="676" arabic-form="initial" 
d="M170 100q67 0 123.5 33t90 89.5t33.5 123.5v312h95v-320q0 -92 -46 -169.5t-124.5 -123t-171.5 -45.5h-170q-39 8 -53.5 29t0 42t53.5 29h170zM76 1009l144 58q-58 21 -94.5 71.5t-37.5 116.5q0 53 26.5 101.5t74 78.5t109.5 30q37 1 65 -8t62 -26q12 -5 17 -8l-16 -59
q-8 3 -23 10q-30 14 -53 21t-52 7q-64 0 -105 -45t-41 -102q-1 -54 37 -98t107 -61l206 82v-67l-426 -170v68z" />
    <glyph glyph-name="uniFE8C" unicode="&#x626;" horiz-adv-x="813" arabic-form="medial" 
d="M170 100q67 0 123.5 33t90 89.5t33.5 123.5v312h95v-312q0 -67 33 -123.5t90 -89.5t124 -33h54v-100h-54q-100 0 -178.5 53t-116.5 140q-37 -87 -115.5 -140t-178.5 -53h-170q-39 8 -53.5 29t0 42t53.5 29h170zM76 988l144 58q-58 21 -94.5 71.5t-37.5 116.5
q0 53 26.5 101.5t74 78.5t109.5 30q37 1 65 -8t62 -26q12 -5 17 -8l-16 -59q-8 3 -23 10q-30 14 -53 21t-52 7q-64 0 -105 -45t-41 -102q-1 -54 37 -98t107 -61l206 82v-67l-426 -170v68z" />
    <glyph glyph-name="uniFE8E" unicode="&#x627;" horiz-adv-x="609" arabic-form="final" 
d="M553 0q-95 0 -173.5 45.5t-123 123t-44.5 169.5v1151h95l1 -1143q0 -67 33 -123.5t89 -89.5t123 -33h56v-100h-56z" />
    <glyph glyph-name="uniFE90" unicode="&#x628;" horiz-adv-x="1958" arabic-form="final" 
d="M1316 100q67 0 123.5 33t89.5 89.5t33 123.5v312h96v-312q0 -67 33 -123.5t89.5 -89.5t123.5 -33h54v-100h-54q-99 0 -178 53t-116 140q-38 -87 -116.5 -140t-177.5 -53h-797q-112 0 -202.5 63.5t-130.5 172t-9 234.5l52 203l95 -28l-52 -194q-23 -91 4.5 -172t93 -130
t149.5 -49h797zM829 -533v125h160v-125h-160z" />
    <glyph glyph-name="uniFE91" unicode="&#x628;" horiz-adv-x="676" arabic-form="initial" 
d="M170 100q67 0 123.5 33t90 89.5t33.5 123.5v312h95v-320q0 -92 -46 -169.5t-124.5 -123t-171.5 -45.5h-170q-39 8 -53.5 29t0 42t53.5 29h170zM70 -533v125h160v-125h-160z" />
    <glyph glyph-name="uniFE92" unicode="&#x628;" horiz-adv-x="813" arabic-form="medial" 
d="M170 100q67 0 123.5 33t90 89.5t33.5 123.5v312h95v-312q0 -67 33 -123.5t90 -89.5t124 -33h54v-100h-54q-100 0 -178.5 53t-116.5 140q-37 -87 -115.5 -140t-178.5 -53h-170q-39 8 -53.5 29t0 42t53.5 29h170zM70 -533v125h160v-125h-160z" />
    <glyph glyph-name="uniFE94" unicode="&#x629;" horiz-adv-x="1198" arabic-form="final" 
d="M634.5 90.5q-123.5 -32.5 -232 -10t-177.5 94.5t-75 182q-9 155 54.5 278t201.5 193t344 67l-28 184l96 13l118 -806q12 -80 73 -132.5t142 -53.5h49v-100h-49q-97 1 -175 58t-110 152q-108 -87 -231.5 -119.5zM465.5 755.5q-119.5 -54.5 -174.5 -155.5t-48 -235
q8 -102 94.5 -158.5t225.5 -39t277 127.5l-75 509q-180 6 -299.5 -48.5zM369 1280v125h155v-125h-155zM686 1280v126h155v-126h-155z" />
    <glyph glyph-name="uniFE96" unicode="&#x62a;" horiz-adv-x="1958" arabic-form="final" 
d="M1316 100q67 0 123.5 33t89.5 89.5t33 123.5v312h96v-312q0 -67 33 -123.5t89.5 -89.5t123.5 -33h54v-100h-54q-99 0 -178 53t-116 140q-38 -87 -116.5 -140t-177.5 -53h-797q-112 0 -202.5 63.5t-130.5 172t-9 234.5l52 203l95 -28l-52 -194q-23 -91 4.5 -172t93 -130
t149.5 -49h797zM676 860v125h155v-125h-155zM993 860v126h155v-126h-155z" />
    <glyph glyph-name="uniFE97" unicode="&#x62a;" horiz-adv-x="744" arabic-form="initial" 
d="M239 100q67 0 123.5 33t89.5 89.5t33 123.5v312h96v-320q0 -92 -46 -169.5t-124.5 -123t-171.5 -45.5h-239q-39 8 -53.5 29t0 42t53.5 29h239zM100 979v125h155v-125h-155zM417 979v126h155v-126h-155z" />
    <glyph glyph-name="uniFE98" unicode="&#x62a;" horiz-adv-x="864" arabic-form="medial" 
d="M239 100q67 0 123.5 33t89.5 89.5t33 123.5v312h96v-312q0 -67 33 -123.5t89.5 -89.5t123.5 -33h37v-100h-37q-99 0 -177.5 53t-116.5 140q-38 -87 -116.5 -140t-177.5 -53h-239q-39 8 -53.5 29t0 42t53.5 29h239zM100 980v125h155v-125h-155zM417 980v126h155v-126h-155
z" />
    <glyph glyph-name="uniFE9A" unicode="&#x62b;" horiz-adv-x="1958" arabic-form="final" 
d="M1316 100q67 0 123.5 33t89.5 89.5t33 123.5v312h96v-312q0 -67 33 -123.5t89.5 -89.5t123.5 -33h54v-100h-54q-99 0 -178 53t-116 140q-38 -87 -116.5 -140t-177.5 -53h-797q-112 0 -202.5 63.5t-130.5 172t-9 234.5l52 203l95 -28l-52 -194q-23 -91 4.5 -172t93 -130
t149.5 -49h797zM676 857v125h155v-125h-155zM993 857v126h155v-126h-155zM835 1156v122h154v-122h-154z" />
    <glyph glyph-name="uniFE9B" unicode="&#x62b;" horiz-adv-x="744" arabic-form="initial" 
d="M239 100q67 0 123.5 33t89.5 89.5t33 123.5v312h96v-320q0 -92 -46 -169.5t-124.5 -123t-171.5 -45.5h-239q-39 8 -53.5 29t0 42t53.5 29h239zM100 979v125h155v-125h-155zM417 979v126h155v-126h-155zM259 1278v122h154v-122h-154z" />
    <glyph glyph-name="uniFE9C" unicode="&#x62b;" horiz-adv-x="864" arabic-form="medial" 
d="M239 100q67 0 123.5 33t89.5 89.5t33 123.5v312h96v-312q0 -67 33 -123.5t89.5 -89.5t123.5 -33h37v-100h-37q-99 0 -177.5 53t-116.5 140q-38 -87 -116.5 -140t-177.5 -53h-239q-39 8 -53.5 29t0 42t53.5 29h239zM100 980v125h155v-125h-155zM417 980v126h155v-126h-155
zM259 1279v122h154v-122h-154z" />
    <glyph glyph-name="uniFE9E" unicode="&#x62c;" horiz-adv-x="1497" arabic-form="final" 
d="M1188 230q15 -75 72 -102.5t119 -27.5h121v-100h-123q-86 0 -166 42.5t-101 143.5l-33 167l-566 -243q-114 -51 -188 -153.5t-72 -213.5q1 -89 52 -173t136 -136.5t180 -52.5h628v-97h-628q-121 1 -228 64t-171.5 169.5t-66.5 230.5q-1 93 41.5 183t116.5 160t165 107
l789 327q-94 28 -201 87t-258 153q-103 65 -144 88q-90 48 -177 9.5t-130 -153.5l-14 -33l-89 38l14 32q38 101 109.5 160t158 68t168.5 -35q80 -43 302 -172q174 -100 261.5 -149t98.5 -49l-4 -97l-202 -88zM755 -245q-1 60 0 119q76 -1 152 0q1 -59 0 -119h-152z" />
    <glyph glyph-name="uniFE9F" unicode="&#x62c;" horiz-adv-x="1422" arabic-form="initial" 
d="M239 100q155 0 327 49.5t308 110.5t284 136q44 23 61 32q-93 39 -289 138.5t-317 167.5q-56 31 -116.5 25.5t-111.5 -49.5t-78 -120l-13 -31l-89 37l13 31q37 100 108.5 159.5t158.5 68.5t169 -35q244 -134 440.5 -238t219.5 -104l3 -82q-6 -2 -61 -35
q-137 -83 -282.5 -158.5t-344 -139t-390.5 -63.5h-239q-39 8 -53.5 29t0 42t53.5 29h239zM502 -531v125h160v-125h-160z" />
    <glyph glyph-name="uniFEA0" unicode="&#x62c;" horiz-adv-x="1482" arabic-form="medial" 
d="M1084 270l139 -117q66 -53 152 -53h123v-100h-123q-60 0 -115.5 22t-95.5 63l-156 141zM239 100q155 0 327 49.5t308 110.5t284 136q44 23 61 32q-93 39 -289 138.5t-317 167.5q-56 31 -116.5 25.5t-111.5 -49.5t-78 -120l-13 -31l-89 37l13 31q37 100 108.5 159.5
t158.5 68.5t169 -35q244 -134 440.5 -238t219.5 -104l3 -82q-6 -2 -61 -35q-137 -83 -282.5 -158.5t-344 -139t-390.5 -63.5h-239q-39 8 -53.5 29t0 42t53.5 29h239zM502 -531v125h160v-125h-160z" />
    <glyph glyph-name="uniFEA2" unicode="&#x62d;" horiz-adv-x="1497" arabic-form="final" 
d="M1188 230q15 -75 72 -102.5t119 -27.5h121v-100h-123q-86 0 -166 42.5t-101 143.5l-33 167l-566 -243q-114 -51 -188 -153.5t-72 -213.5q1 -89 52 -173t136 -136.5t180 -52.5h628v-97h-628q-121 1 -228 64t-171.5 169.5t-66.5 230.5q-1 93 41.5 183t116.5 160t165 107
l789 327q-94 28 -201 87t-258 153q-103 65 -144 88q-90 48 -177 9.5t-130 -153.5l-14 -33l-89 38l14 32q38 101 109.5 160t158 68t168.5 -35q80 -43 302 -172q174 -100 261.5 -149t98.5 -49l-4 -97l-202 -88z" />
    <glyph glyph-name="uniFEA3" unicode="&#x62d;" horiz-adv-x="1422" arabic-form="initial" 
d="M239 100q155 0 327 49.5t308 110.5t284 136q44 23 61 32q-93 39 -289 138.5t-317 167.5q-56 31 -116.5 25.5t-111.5 -49.5t-78 -120l-13 -31l-89 37l13 31q37 100 108.5 159.5t158.5 68.5t169 -35q244 -134 440.5 -238t219.5 -104l3 -82q-6 -2 -61 -35
q-137 -83 -282.5 -158.5t-344 -139t-390.5 -63.5h-239q-39 8 -53.5 29t0 42t53.5 29h239z" />
    <glyph glyph-name="uniFEA4" unicode="&#x62d;" horiz-adv-x="1482" arabic-form="medial" 
d="M1084 270l139 -117q66 -53 152 -53h123v-100h-123q-60 0 -115.5 22t-95.5 63l-156 141zM239 100q155 0 327 49.5t308 110.5t284 136q44 23 61 32q-93 39 -289 138.5t-317 167.5q-56 31 -116.5 25.5t-111.5 -49.5t-78 -120l-13 -31l-89 37l13 31q37 100 108.5 159.5
t158.5 68.5t169 -35q244 -134 440.5 -238t219.5 -104l3 -82q-6 -2 -61 -35q-137 -83 -282.5 -158.5t-344 -139t-390.5 -63.5h-239q-39 8 -53.5 29t0 42t53.5 29h239z" />
    <glyph glyph-name="uniFEA6" unicode="&#x62e;" horiz-adv-x="1497" arabic-form="final" 
d="M1188 230q15 -75 72 -102.5t119 -27.5h121v-100h-123q-86 0 -166 42.5t-101 143.5l-33 167l-566 -243q-114 -51 -188 -153.5t-72 -213.5q1 -89 52 -173t136 -136.5t180 -52.5h628v-97h-628q-121 1 -228 64t-171.5 169.5t-66.5 230.5q-1 93 41.5 183t116.5 160t165 107
l789 327q-94 28 -201 87t-258 153q-103 65 -144 88q-90 48 -177 9.5t-130 -153.5l-14 -33l-89 38l14 32q38 101 109.5 160t158 68t168.5 -35q80 -43 302 -172q174 -100 261.5 -149t98.5 -49l-4 -97l-202 -88zM568 1304v126q80 -1 160 0v-126h-160z" />
    <glyph glyph-name="uniFEA7" unicode="&#x62e;" horiz-adv-x="1422" arabic-form="initial" 
d="M239 100q155 0 327 49.5t308 110.5t284 136q44 23 61 32q-93 39 -289 138.5t-317 167.5q-56 31 -116.5 25.5t-111.5 -49.5t-78 -120l-13 -31l-89 37l13 31q37 100 108.5 159.5t158.5 68.5t169 -35q244 -134 440.5 -238t219.5 -104l3 -82q-6 -2 -61 -35
q-137 -83 -282.5 -158.5t-344 -139t-390.5 -63.5h-239q-39 8 -53.5 29t0 42t53.5 29h239zM497 1176v126q80 -1 160 0v-126h-160z" />
    <glyph glyph-name="uniFEA8" unicode="&#x62e;" horiz-adv-x="1482" arabic-form="medial" 
d="M1084 270l139 -117q66 -53 152 -53h123v-100h-123q-60 0 -115.5 22t-95.5 63l-156 141zM239 100q155 0 327 49.5t308 110.5t284 136q44 23 61 32q-93 39 -289 138.5t-317 167.5q-56 31 -116.5 25.5t-111.5 -49.5t-78 -120l-13 -31l-89 37l13 31q37 100 108.5 159.5
t158.5 68.5t169 -35q244 -134 440.5 -238t219.5 -104l3 -82q-6 -2 -61 -35q-137 -83 -282.5 -158.5t-344 -139t-390.5 -63.5h-239q-39 8 -53.5 29t0 42t53.5 29h239zM497 1176v126q80 -1 160 0v-126h-160z" />
    <glyph glyph-name="uniFEAA" unicode="&#x62f;" horiz-adv-x="1200" arabic-form="final" 
d="M737 133.5q46 37.5 61.5 90.5t-7.5 95l-309 565l85 46l389 -716q29 -54 80.5 -84t113.5 -30h50v-100h-50q-82 0 -152 40.5t-111 110.5l-28 52q-1 -45 -37 -93t-93.5 -79t-119.5 -31h-520v96h541q61 0 107 37.5z" />
    <glyph glyph-name="uniFEAC" unicode="&#x630;" horiz-adv-x="1200" arabic-form="final" 
d="M737 133.5q46 37.5 61.5 90.5t-7.5 95l-309 565l85 46l389 -716q29 -54 80.5 -84t113.5 -30h50v-100h-50q-82 0 -152 40.5t-111 110.5l-28 52q-1 -45 -37 -93t-93.5 -79t-119.5 -31h-520v96h541q61 0 107 37.5zM467 1194v126q80 -1 160 0v-126h-160z" />
    <glyph glyph-name="uniFEAE" unicode="&#x631;" horiz-adv-x="873" arabic-form="final" 
d="M654 50q-81 50 -127 133v-168q-1 -137 -67 -252t-181.5 -191t-258.5 -102l-40 -8l-18 98l49 10q118 22 213.5 85.5t151 159t55.5 207.5v636h96v-269q4 -79 45.5 -145.5t110 -105t148.5 -38.5h42v-100h-42q-96 0 -177 50z" />
    <glyph glyph-name="uniFEB0" unicode="&#x632;" horiz-adv-x="874" arabic-form="final" 
d="M654 50q-81 50 -127 133v-168q-1 -137 -67 -252t-181.5 -191t-258.5 -102l-40 -8l-18 98l49 10q118 22 213.5 85.5t151 159t55.5 207.5v636h96v-269q4 -79 45.5 -145.5t110 -105t148.5 -38.5h42v-100h-42q-96 0 -177 50zM400 979v126q80 -1 160 0v-126h-160z" />
    <glyph glyph-name="uniFEB2" unicode="&#x633;" horiz-adv-x="2885" arabic-form="final" 
d="M1317 658h96l1 -312q-1 -101 68 -173.5t160 -72.5h32q100 0 164 71t64 175v312h95l1 -312q0 -104 63.5 -175t164.5 -71h32q101 0 164.5 71t63.5 175v312h96v-312q0 -102 72 -174t174 -72h57v-100h-57q-98 0 -176.5 52.5t-115.5 138.5q-35 -87 -108 -139t-170 -52h-32
q-96 0 -168 51.5t-108 136.5q-35 -85 -107.5 -136.5t-168.5 -51.5h-32q-70 0 -131.5 37t-98.5 99v-95q-2 -173 -72.5 -305.5t-194.5 -208.5t-269 -76h-170q-218 0 -331 79t-169 213t-56 279q0 151 37.5 268t72.5 207l90 -39q-28 -65 -66 -178.5t-38 -248.5q1 -188 95 -333.5
t365 -146.5h170q120 0 220 60.5t160 170.5t60 275z" />
    <glyph glyph-name="uniFEB3" unicode="&#x633;" horiz-adv-x="1737" arabic-form="initial" 
d="M63 100q67 0 123.5 33t89.5 89.5t33 123.5v312h96v-312q0 -66 31.5 -123t84 -90t112.5 -33h32q66 0 118 33t81 89t29 124v312h96v-312q0 -68 28.5 -124t80.5 -89t119 -33h32q67 0 119 33t80.5 89t28.5 124v312h96v-316q0 -94 -41.5 -172.5t-115.5 -124t-167 -45.5h-32
q-96 0 -168 51t-108 137q-36 -86 -108 -137t-168 -51h-32q-90 0 -165 53t-112 140q-37 -87 -115.5 -140t-177.5 -53h-63q-39 8 -53.5 29t0 42t53.5 29h63z" />
    <glyph glyph-name="uniFEB4" unicode="&#x633;" horiz-adv-x="1876" arabic-form="medial" 
d="M63 100q67 0 123.5 33t89.5 89.5t33 123.5v312h96v-312q0 -66 31.5 -123t84 -90t112.5 -33h32q66 0 118 33t81 89t29 124l1 312h95v-312q0 -68 28.5 -124t80.5 -89t119 -33h32q67 0 119 33t80.5 89t28.5 124l1 312h96l-1 -312q0 -67 33 -123.5t89.5 -89.5t123.5 -33h57
v-100h-57q-98 0 -176 52t-117 138q-35 -86 -107.5 -138t-169.5 -52h-32q-96 0 -168 51t-108 137q-36 -86 -108 -137t-168 -51h-32q-90 0 -165 53t-112 140q-37 -87 -115.5 -140t-177.5 -53h-63q-39 8 -53.5 29t0 42t53.5 29h63z" />
    <glyph glyph-name="uniFEB6" unicode="&#x634;" horiz-adv-x="2885" arabic-form="final" 
d="M1317 658h96l1 -312q-1 -101 68 -173.5t160 -72.5h32q100 0 164 71t64 175v312h95l1 -312q0 -104 63.5 -175t164.5 -71h32q101 0 164.5 71t63.5 175v312h96v-312q0 -102 72 -174t174 -72h57v-100h-57q-98 0 -176.5 52.5t-115.5 138.5q-35 -87 -108 -139t-170 -52h-32
q-96 0 -168 51.5t-108 136.5q-35 -85 -107.5 -136.5t-168.5 -51.5h-32q-70 0 -131.5 37t-98.5 99v-95q-2 -173 -72.5 -305.5t-194.5 -208.5t-269 -76h-170q-218 0 -331 79t-169 213t-56 279q0 151 37.5 268t72.5 207l90 -39q-28 -65 -66 -178.5t-38 -248.5q1 -188 95 -333.5
t365 -146.5h170q120 0 220 60.5t160 170.5t60 275zM1715 979v125h155v-125h-155zM2032 979v126h155v-126h-155zM1874 1278v122h154v-122h-154z" />
    <glyph glyph-name="uniFEB7" unicode="&#x634;" horiz-adv-x="1737" arabic-form="initial" 
d="M63 100q67 0 123.5 33t89.5 89.5t33 123.5v312h96v-312q0 -66 31.5 -123t84 -90t112.5 -33h32q66 0 118 33t81 89t29 124v312h96v-312q0 -68 28.5 -124t80.5 -89t119 -33h32q67 0 119 33t80.5 89t28.5 124v312h96v-316q0 -94 -41.5 -172.5t-115.5 -124t-167 -45.5h-32
q-96 0 -168 51t-108 137q-36 -86 -108 -137t-168 -51h-32q-90 0 -165 53t-112 140q-37 -87 -115.5 -140t-177.5 -53h-63q-39 8 -53.5 29t0 42t53.5 29h63zM704 979v125h155v-125h-155zM1021 979v126h155v-126h-155zM863 1278v122h154v-122h-154z" />
    <glyph glyph-name="uniFEB8" unicode="&#x634;" horiz-adv-x="1876" arabic-form="medial" 
d="M63 100q67 0 123.5 33t89.5 89.5t33 123.5v312h96v-312q0 -66 31.5 -123t84 -90t112.5 -33h32q66 0 118 33t81 89t29 124l1 312h95v-312q0 -68 28.5 -124t80.5 -89t119 -33h32q67 0 119 33t80.5 89t28.5 124l1 312h96l-1 -312q0 -67 33 -123.5t89.5 -89.5t123.5 -33h57
v-100h-57q-98 0 -176 52t-117 138q-35 -86 -107.5 -138t-169.5 -52h-32q-96 0 -168 51t-108 137q-36 -86 -108 -137t-168 -51h-32q-90 0 -165 53t-112 140q-37 -87 -115.5 -140t-177.5 -53h-63q-39 8 -53.5 29t0 42t53.5 29h63zM704 979v125h155v-125h-155zM1021 979v126
h155v-126h-155zM863 1278v122h154v-122h-154z" />
    <glyph glyph-name="uniFEBA" unicode="&#x635;" horiz-adv-x="2926" arabic-form="final" 
d="M2220 100q140 0 235 97t95 229q0 143 -84.5 239t-236.5 89q-178 -7 -297.5 -215.5t-159 -321t-42.5 -117.5h490zM1316 658h97l1 -317q0 -93 64 -162.5t160 -76.5q70 237 212.5 488.5t374.5 259.5q138 5 233 -55.5t141.5 -159.5t46.5 -209q0 -106 -50 -199
q79 -62 145.5 -94.5t155.5 -32.5h28v-100h-27q-108 0 -186.5 39.5t-167.5 111.5q-55 -69 -138 -110t-186 -41h-539q-85 0 -155.5 40.5t-112.5 106.5v-98q-1 -178 -72.5 -312t-195.5 -210t-269 -76h-170q-218 0 -331 79t-169 213t-56 279q0 151 37.5 268t72.5 207l90 -39
q-28 -65 -66 -178.5t-38 -248.5q1 -188 95 -333.5t365 -146.5h170q120 0 220 60.5t160 170t60 272.5v604z" />
    <glyph glyph-name="uniFEBB" unicode="&#x635;" horiz-adv-x="1777" arabic-form="initial" 
d="M1201 100q92 0 167.5 44.5t119 119.5t43.5 162q0 92 -37 168.5t-109.5 120.5t-174.5 39q-94 -4 -175.5 -76t-147 -182.5t-99.5 -192.5t-67 -174q-8 -22 -10 -29h490zM52 100q67 0 123.5 33t89.5 89.5t33 123.5l1 312h96l-1 -316q0 -93 63 -161.5t162 -78.5q0 2 2 7
q36 122 103 279.5t192 306.5t290 155q137 5 232 -55.5t141.5 -159.5t46.5 -209q0 -113 -55 -211t-152.5 -156.5t-217.5 -58.5h-561q-99 0 -177.5 53t-116.5 140q-37 -87 -116 -140t-178 -53h-52q-39 8 -53.5 29t0 42t53.5 29h52z" />
    <glyph glyph-name="uniFEBC" unicode="&#x635;" horiz-adv-x="1906" arabic-form="medial" 
d="M1201 100q92 0 167.5 44.5t119 119.5t43.5 162q0 92 -37 168.5t-109.5 120.5t-174.5 39q-94 -4 -175.5 -76t-147 -182.5t-99.5 -192.5t-67 -174q-8 -22 -10 -29h490zM52 100q67 0 123.5 33t89.5 89.5t33 123.5l1 312h96l-1 -316q0 -93 63 -161.5t162 -78.5q0 2 2 7
q36 122 103 279.5t192 306.5t290 155q137 5 232 -55.5t141.5 -159.5t46.5 -209q0 -106 -50 -199q82 -63 147.5 -95t154.5 -32h28v-100h-28q-75 0 -137 21t-109.5 51.5t-107.5 78.5q-57 -71 -141 -111t-182 -40h-561q-99 0 -177.5 53t-116.5 140q-37 -87 -116 -140t-178 -53
h-52q-39 8 -53.5 29t0 42t53.5 29h52z" />
    <glyph glyph-name="uniFEBE" unicode="&#x636;" horiz-adv-x="2926" arabic-form="final" 
d="M2220 100q140 0 235 97t95 229q0 143 -84.5 239t-236.5 89q-178 -7 -297.5 -215.5t-159 -321t-42.5 -117.5h490zM1316 658h97l1 -317q0 -93 64 -162.5t160 -76.5q70 237 212.5 488.5t374.5 259.5q138 5 233 -55.5t141.5 -159.5t46.5 -209q0 -106 -50 -199
q79 -62 145.5 -94.5t155.5 -32.5h28v-100h-27q-108 0 -186.5 39.5t-167.5 111.5q-55 -69 -138 -110t-186 -41h-539q-85 0 -155.5 40.5t-112.5 106.5v-98q-1 -178 -72.5 -312t-195.5 -210t-269 -76h-170q-218 0 -331 79t-169 213t-56 279q0 151 37.5 268t72.5 207l90 -39
q-28 -65 -66 -178.5t-38 -248.5q1 -188 95 -333.5t365 -146.5h170q120 0 220 60.5t160 170t60 272.5v604zM2102 1157v126q80 -1 160 0v-126h-160z" />
    <glyph glyph-name="uniFEBF" unicode="&#x636;" horiz-adv-x="1777" arabic-form="initial" 
d="M1201 100q92 0 167.5 44.5t119 119.5t43.5 162q0 92 -37 168.5t-109.5 120.5t-174.5 39q-94 -4 -175.5 -76t-147 -182.5t-99.5 -192.5t-67 -174q-8 -22 -10 -29h490zM52 100q67 0 123.5 33t89.5 89.5t33 123.5l1 312h96l-1 -316q0 -93 63 -161.5t162 -78.5q0 2 2 7
q36 122 103 279.5t192 306.5t290 155q137 5 232 -55.5t141.5 -159.5t46.5 -209q0 -113 -55 -211t-152.5 -156.5t-217.5 -58.5h-561q-99 0 -177.5 53t-116.5 140q-37 -87 -116 -140t-178 -53h-52q-39 8 -53.5 29t0 42t53.5 29h52zM1064 1157v126q80 -1 160 0v-126h-160z" />
    <glyph glyph-name="uniFEC0" unicode="&#x636;" horiz-adv-x="1906" arabic-form="medial" 
d="M1201 100q92 0 167.5 44.5t119 119.5t43.5 162q0 92 -37 168.5t-109.5 120.5t-174.5 39q-94 -4 -175.5 -76t-147 -182.5t-99.5 -192.5t-67 -174q-8 -22 -10 -29h490zM52 100q67 0 123.5 33t89.5 89.5t33 123.5l1 312h96l-1 -316q0 -93 63 -161.5t162 -78.5q0 2 2 7
q36 122 103 279.5t192 306.5t290 155q137 5 232 -55.5t141.5 -159.5t46.5 -209q0 -106 -50 -199q82 -63 147.5 -95t154.5 -32h28v-100h-28q-75 0 -137 21t-109.5 51.5t-107.5 78.5q-57 -71 -141 -111t-182 -40h-561q-99 0 -177.5 53t-116.5 140q-37 -87 -116 -140t-178 -53
h-52q-39 8 -53.5 29t0 42t53.5 29h52zM1064 1157v126q80 -1 160 0v-126h-160z" />
    <glyph glyph-name="uniFEC2" unicode="&#x637;" horiz-adv-x="1644" arabic-form="final" 
d="M1616 0q-96 0 -168 31.5t-165 91.5q-17 12 -26 18q-58 -66 -139.5 -103.5t-176.5 -37.5h-777v100h190q0 2 3 11q25 84 54 157v1221h96l-1 -565l-1 -476q198 393 441 402q137 5 232 -55.5t141.5 -159.5t46.5 -209q0 -112 -56 -209q9 -5 27 -16q81 -51 141 -76t139 -25h27
v-100h-28zM1108.5 144.5q75.5 44.5 119 119.5t43.5 162q0 92 -37 168.5t-109.5 120.5t-174.5 39q-94 -4 -175.5 -76t-147 -182.5t-99.5 -192.5t-67 -174q-8 -22 -10 -29h490q92 0 167.5 44.5z" />
    <glyph glyph-name="uniFEC3" unicode="&#x637;" horiz-adv-x="1463" arabic-form="initial" 
d="M882 850q137 5 232 -55.5t141.5 -159.5t46.5 -209q0 -113 -55.5 -211t-152.5 -156.5t-217 -58.5h-877q-39 8 -53.5 29t0 42t53.5 29h289q1 2 4 11q25 84 53 157l1 1221h96l-1 -565l-1 -476q197 393 441 402zM1044.5 144.5q75.5 44.5 119 119.5t43.5 162q0 92 -37 168.5
t-110 120.5t-174 39q-94 -4 -175.5 -76t-147 -182.5t-99.5 -192.5t-67 -174q-8 -22 -11 -29h491q92 0 167.5 44.5z" />
    <glyph glyph-name="uniFEC4" unicode="&#x637;" horiz-adv-x="1580" arabic-form="medial" 
d="M1580 100v-100h-28q-96 0 -168 31.5t-165 91.5l-27 18q-58 -66 -139 -103.5t-176 -37.5h-877q-39 8 -53.5 29t0 42t53.5 29h289q1 2 4 11q25 84 53 157l1 1221h96l-1 -565l-1 -476q197 393 441 402q137 5 232 -55.5t141.5 -159.5t46.5 -209q0 -112 -56 -209q9 -5 27 -16
q81 -51 141 -76t138 -25h28zM1170 594.5q-37 76.5 -110 120.5t-174 39q-94 -4 -175.5 -76t-147 -182.5t-99.5 -192.5t-67 -174q-8 -22 -11 -29h491q92 0 167.5 44.5t119 119.5t43.5 162q0 92 -37 168.5z" />
    <glyph glyph-name="uniFEC6" unicode="&#x638;" horiz-adv-x="1636" arabic-form="final" 
d="M1616 0q-96 0 -168 31.5t-165 91.5q-17 12 -26 18q-58 -66 -139.5 -103.5t-176.5 -37.5h-777v100h190q0 2 3 11q25 84 54 157v1221h96l-1 -565l-1 -476q198 393 441 402q137 5 232 -55.5t141.5 -159.5t46.5 -209q0 -112 -56 -209q9 -5 27 -16q81 -51 141 -76t139 -25h27
v-100h-28zM1108.5 144.5q75.5 44.5 119 119.5t43.5 162q0 92 -37 168.5t-109.5 120.5t-174.5 39q-94 -4 -175.5 -76t-147 -182.5t-99.5 -192.5t-67 -174q-8 -22 -10 -29h490q92 0 167.5 44.5zM900 1154v126q80 -1 160 0v-126h-160z" />
    <glyph glyph-name="uniFEC7" unicode="&#x638;" horiz-adv-x="1462" arabic-form="initial" 
d="M882 850q137 5 232 -55.5t141.5 -159.5t46.5 -209q0 -113 -55.5 -211t-152.5 -156.5t-217 -58.5h-877q-39 8 -53.5 29t0 42t53.5 29h289q1 2 4 11q25 84 53 157l1 1221h96l-1 -565l-1 -476q197 393 441 402zM1044.5 144.5q75.5 44.5 119 119.5t43.5 162q0 92 -37 168.5
t-110 120.5t-174 39q-94 -4 -175.5 -76t-147 -182.5t-99.5 -192.5t-67 -174q-8 -22 -11 -29h491q92 0 167.5 44.5zM839 1154v126q80 -1 160 0v-126h-160z" />
    <glyph glyph-name="uniFEC8" unicode="&#x638;" horiz-adv-x="1572" arabic-form="medial" 
d="M1580 100v-100h-28q-96 0 -168 31.5t-165 91.5l-27 18q-58 -66 -139 -103.5t-176 -37.5h-877q-39 8 -53.5 29t0 42t53.5 29h289q1 2 4 11q25 84 53 157l1 1221h96l-1 -565l-1 -476q197 393 441 402q137 5 232 -55.5t141.5 -159.5t46.5 -209q0 -112 -56 -209q9 -5 27 -16
q81 -51 141 -76t138 -25h28zM1170 594.5q-37 76.5 -110 120.5t-174 39q-94 -4 -175.5 -76t-147 -182.5t-99.5 -192.5t-67 -174q-8 -22 -11 -29h491q92 0 167.5 44.5t119 119.5t43.5 162q0 92 -37 168.5zM839 1154v126q80 -1 160 0v-126h-160z" />
    <glyph glyph-name="uniFECA" unicode="&#x639;" horiz-adv-x="1379" arabic-form="final" 
d="M638 -715q-132 0 -243.5 49t-177.5 143t-65 223q2 137 109.5 250t333.5 215l-382 566l37 86h722q79 0 132.5 -53t59 -128.5t-45.5 -135.5l-343 -369q40 -21 96.5 -26t189.5 -5h318v-100h-326q-138 0 -198 4.5t-103 24t-89 66.5q-23 -12 -75 -35q-6 -2 -9 -4
q-116 -66 -184.5 -116.5t-107 -108.5t-39.5 -131q-1 -103 52 -174t142 -106t196 -35h482v-100h-482zM697 169l348 379q29 34 26.5 75t-31.5 69.5t-73 28.5h-644z" />
    <glyph glyph-name="uniFECB" unicode="&#x639;" horiz-adv-x="1155" arabic-form="initial" 
d="M427 100q-76 43 -121.5 134t-45.5 187q0 119 48 217.5t133.5 157t194.5 61.5q90 3 175.5 -29t148.5 -81l-20 -98q-69 54 -146 84t-151 29q-84 -1 -149.5 -47.5t-101.5 -124t-36 -169.5q0 -80 35.5 -153.5t101 -120t151.5 -47.5q71 -2 176.5 10t171.5 39v-98
q-70 -25 -173 -38t-175 -13h-644q-39 8 -53.5 29t0 42t53.5 29h427z" />
    <glyph glyph-name="uniFECC" unicode="&#x639;" horiz-adv-x="1369" arabic-form="medial" 
d="M687 166l348 362q29 34 26 75t-32 69t-72 28h-645zM406 100q72 0 125 13t61 36l-390 562l38 86h721q80 0 133.5 -53t59 -128.5t-45.5 -135.5l-321 -331q12 -24 64 -36.5t124 -12.5h394v-100h-410q-81 0 -134 11.5t-79 25.5t-50 33q-8 8 -12 10q-4 -2 -13 -10
q-37 -30 -92 -50t-170 -20h-409q-39 8 -53.5 29t0 42t53.5 29h406z" />
    <glyph glyph-name="uniFECE" unicode="&#x63a;" horiz-adv-x="1377" arabic-form="final" 
d="M638 -715q-132 0 -243.5 49t-177.5 143t-65 223q2 137 109.5 250t333.5 215l-382 566l37 86h722q79 0 132.5 -53t59 -128.5t-45.5 -135.5l-343 -369q40 -21 96.5 -26t189.5 -5h318v-100h-326q-138 0 -198 4.5t-103 24t-89 66.5q-23 -12 -75 -35q-6 -2 -9 -4
q-116 -66 -184.5 -116.5t-107 -108.5t-39.5 -131q-1 -103 52 -174t142 -106t196 -35h482v-100h-482zM697 169l348 379q29 34 26.5 75t-31.5 69.5t-73 28.5h-644zM620 1192v126q80 -1 160 0v-126h-160z" />
    <glyph glyph-name="uniFECF" unicode="&#x63a;" horiz-adv-x="1155" arabic-form="initial" 
d="M427 100q-76 43 -121.5 134t-45.5 187q0 119 48 217.5t133.5 157t194.5 61.5q90 3 175.5 -29t148.5 -81l-20 -98q-69 54 -146 84t-151 29q-84 -1 -149.5 -47.5t-101.5 -124t-36 -169.5q0 -80 35.5 -153.5t101 -120t151.5 -47.5q71 -2 176.5 10t171.5 39v-98
q-70 -25 -173 -38t-175 -13h-644q-39 8 -53.5 29t0 42t53.5 29h427zM544 1169v126q80 -1 160 0v-126h-160z" />
    <glyph glyph-name="uniFED0" unicode="&#x63a;" horiz-adv-x="1369" arabic-form="medial" 
d="M687 166l348 362q29 34 26 75t-32 69t-72 28h-645zM406 100q72 0 125 13t61 36l-390 562l38 86h721q80 0 133.5 -53t59 -128.5t-45.5 -135.5l-321 -331q12 -24 64 -36.5t124 -12.5h394v-100h-410q-81 0 -134 11.5t-79 25.5t-50 33q-8 8 -12 10q-4 -2 -13 -10
q-37 -30 -92 -50t-170 -20h-409q-39 8 -53.5 29t0 42t53.5 29h406zM614 1112v126q80 -1 160 0v-126h-160z" />
    <glyph glyph-name="uniFED2" unicode="&#x641;" horiz-adv-x="1986" arabic-form="final" 
d="M1252.5 753q-65.5 -33 -104.5 -96t-39 -147q0 -104 54.5 -190t119 -140t112.5 -81q48 27 112.5 81t119 140t54.5 190q0 84 -39 147t-104.5 96t-142.5 33t-142.5 -33zM518 100h739q-89 62 -165.5 169.5t-76.5 239.5q0 109 50.5 193t137.5 131t192 47t192 -46.5t137.5 -131
t50.5 -193.5q0 -132 -76.5 -239.5t-165.5 -169.5h453v-100h-487q-41 0 -70.5 9.5t-33.5 19.5q-4 -10 -33.5 -19.5t-70.5 -9.5h-774zM276.5 279q27.5 -81 93 -130t149.5 -49v-100q-112 0 -202.5 63.5t-130.5 172t-9 234.5l52 203l95 -28l-53 -194q-22 -91 5.5 -172z
M1310 1180v126q80 -1 160 0v-126h-160z" />
    <glyph glyph-name="uniFED3" unicode="&#x641;" horiz-adv-x="1114" arabic-form="initial" 
d="M837 296.5q30 104.5 30 226.5q0 95 -41.5 164.5t-106.5 105.5t-136 36q-73 1 -138.5 -39t-104.5 -106.5t-39 -141.5q1 -83 50 -170.5t149 -149.5t243 -68q64 38 94 142.5zM-53.5 29q-14.5 21 0 42t53.5 29h240q342 0 395 12q-150 12 -245.5 83t-138.5 165t-44 180
q0 102 52 190t139 140.5t185 51.5q98 0 185 -50t139.5 -141t52.5 -208q0 -235 -90.5 -379t-267.5 -144h-602q-39 8 -53.5 29zM503 1222v126q80 -1 160 0v-126h-160z" />
    <glyph glyph-name="uniFED4" unicode="&#x641;" horiz-adv-x="1183" arabic-form="medial" 
d="M449 753q-65 -33 -104.5 -96t-39.5 -147q0 -104 55 -190t119.5 -140t112.5 -81q48 28 112 81.5t119 139.5t55 190q0 84 -39 147t-104.5 96t-142.5 33q-78 0 -143 -33zM454 100q-90 62 -166 169.5t-76 239.5q0 109 50.5 193t137.5 131t192 47t192 -46.5t137.5 -131
t50.5 -193.5q0 -132 -76.5 -239.5t-165.5 -169.5h453v-100h-488q-41 0 -70.5 9.5t-32.5 19.5q-4 -10 -33.5 -19.5t-70.5 -9.5h-488q-39 8 -53.5 29t0 42t53.5 29h454zM511 1180v126q80 -1 160 0v-126h-160z" />
    <glyph glyph-name="uniFED6" unicode="&#x642;" horiz-adv-x="1752" arabic-form="final" 
d="M1405 387q0 127 -66 221t-206 94q-126 0 -199.5 -88.5t-73.5 -226.5q0 -145 67.5 -216t205.5 -71h272v287zM1498 100h256v-100h-257q-2 -163 -70.5 -284.5t-198.5 -193t-320 -71.5h-202q-218 0 -331 79t-169 213t-56 279q1 177 29.5 281t63.5 194l90 -39
q-28 -65 -57.5 -165.5t-29.5 -261.5q1 -188 95 -335t365 -148h202q237 0 366 119t130 333h-276q-180 0 -271 98.5t-91 289.5q0 126 48.5 216t129.5 141t189 51q164 0 264.5 -113t100.5 -295v-288zM884 1095v125h155v-125h-155zM1201 1095v126h155v-126h-155z" />
    <glyph glyph-name="uniFED7" unicode="&#x642;" horiz-adv-x="1114" arabic-form="initial" 
d="M837 296.5q30 104.5 30 226.5q0 95 -41.5 164.5t-106.5 105.5t-136 36q-73 1 -138.5 -39t-104.5 -106.5t-39 -141.5q1 -83 50 -170.5t149 -149.5t243 -68q64 38 94 142.5zM-53.5 29q-14.5 21 0 42t53.5 29h240q342 0 395 12q-150 12 -245.5 83t-138.5 165t-44 180
q0 102 52 190t139 140.5t185 51.5q98 0 185 -50t139.5 -141t52.5 -208q0 -235 -90.5 -379t-267.5 -144h-602q-39 8 -53.5 29zM347 1222v125h155v-125h-155zM664 1222v126h155v-126h-155z" />
    <glyph glyph-name="uniFED8" unicode="&#x642;" horiz-adv-x="1183" arabic-form="medial" 
d="M449 753q-65 -33 -104.5 -96t-39.5 -147q0 -104 55 -190t119.5 -140t112.5 -81q48 28 112 81.5t119 139.5t55 190q0 84 -39 147t-104.5 96t-142.5 33q-78 0 -143 -33zM454 100q-90 62 -166 169.5t-76 239.5q0 109 50.5 193t137.5 131t192 47t192 -46.5t137.5 -131
t50.5 -193.5q0 -132 -76.5 -239.5t-165.5 -169.5h453v-100h-488q-41 0 -70.5 9.5t-32.5 19.5q-4 -10 -33.5 -19.5t-70.5 -9.5h-488q-39 8 -53.5 29t0 42t53.5 29h454zM355 1177v125h155v-125h-155zM672 1177v126h155v-126h-155z" />
    <glyph glyph-name="uniFEDA" unicode="&#x643;" horiz-adv-x="1997" arabic-form="final" 
d="M505.5 45.5q0.5 31.5 12.5 54.5h813q67 0 123.5 33t89.5 89.5t33 123.5v1166h96v-1166q0 -67 33 -123.5t89.5 -89.5t123.5 -33h78v-100h-78q-99 0 -177.5 53t-116.5 140q-37 -87 -116 -140t-178 -53h-812q-14 14 -13.5 45.5zM276.5 279q27.5 -81 93 -130t149.5 -49v-100
q-112 0 -202.5 63.5t-130.5 172t-9 234.5l52 203l95 -28l-53 -194q-22 -91 5.5 -172zM726 529l144 58q-58 21 -94.5 71.5t-37.5 116.5q0 53 26.5 101.5t74 78.5t109.5 30q37 1 65 -8t62 -26q12 -5 17 -8l-16 -59q-8 3 -23 10q-30 14 -53 21t-52 7q-64 0 -105 -45t-41 -102
q-1 -54 37 -98t107 -61l206 82v-67l-426 -170v68z" />
    <glyph glyph-name="uniFEDB" unicode="&#x643;" horiz-adv-x="1082" arabic-form="initial" 
d="M623 100q79 0 131.5 54.5t56 129.5t-51.5 133l-617 644v96l768 311l33 -90l-700 -285l589 -615q62 -64 74.5 -147t-20 -159t-101 -124t-158.5 -48h-627q-39 8 -53.5 29t0 42t53.5 29h623z" />
    <glyph glyph-name="uniFEDC" unicode="&#x643;" horiz-adv-x="1314" arabic-form="medial" 
d="M623 100q78 0 130 52t57.5 126t-44.5 132l-624 651v96l768 311l33 -90l-700 -285l894 -935q27 -28 63.5 -43t76.5 -15h37v-100h-37q-58 0 -111.5 23t-94.5 65l-187 197q6 -71 -27.5 -137t-99.5 -107t-151 -41h-606q-39 8 -53.5 29t0 42t53.5 29h623z" />
    <glyph glyph-name="uniFEDE" unicode="&#x644;" horiz-adv-x="1710" arabic-form="final" 
d="M1410 337q3 -97 73.5 -167.5t172.5 -70.5h54v-100h-54q-77 0 -143 39t-104 103zM706 -549q-218 0 -331 79t-169 213t-56 279q1 151 38 268t72 207l90 -39q-28 -65 -66 -178.5t-38 -249.5q1 -187 95 -332.5t365 -146.5h167q120 0 220 60.5t160 170.5t60 275v1432h97v-1431
q1 -184 -71 -319.5t-196.5 -211.5t-269.5 -76h-167z" />
    <glyph glyph-name="uniFEDF" unicode="&#x644;" horiz-adv-x="659" arabic-form="initial" 
d="M105 100q67 0 123.5 33t89.5 89.5t33 123.5v1143h96v-1147q0 -93 -46 -171.5t-124.5 -124.5t-171.5 -46h-105q-39 8 -53.5 29t0 42t53.5 29h105z" />
    <glyph glyph-name="uniFEE0" unicode="&#x644;" horiz-adv-x="747" arabic-form="medial" 
d="M105 100q67 0 123.5 33t89.5 89.5t33 123.5v1143h96v-1143q0 -67 33 -123.5t89.5 -89.5t123.5 -33h54v-100h-54q-99 0 -177.5 53t-116.5 140q-37 -87 -116 -140t-178 -53h-105q-39 8 -53.5 29t0 42t53.5 29h105z" />
    <glyph glyph-name="uniFEE2" unicode="&#x645;" horiz-adv-x="1572" arabic-form="final" 
d="M1571 100v-100h-57q-98 0 -176.5 54t-111.5 145l41 218q-1 -100 32 -171.5t89 -108.5t126 -37h57zM1132 187.5q44 83.5 41 232.5q-1 85 -30.5 161.5t-86 125t-134.5 48.5q-118 0 -191.5 -100t-101.5 -269q-3 -18 -40 -183q-5 -22 -5 -24q57 -30 163.5 -52.5t231.5 -22.5
q109 0 153 83.5zM672 726q99 122 250 122q101 0 178.5 -56.5t121 -154t45.5 -217.5q4 -189 -68 -301t-220 -112q-142 0 -286 35q-63 16 -104.5 33.5t-83.5 39.5q-20 11 -29 15l63 282q34 192 133 314zM579 173l-19 -90l-301 127v-182v-656h-95v853l89 85z" />
    <glyph glyph-name="uniFEE3" unicode="&#x645;" horiz-adv-x="1206" arabic-form="initial" 
d="M914.5 185q44.5 93 41.5 245q-2 84 -31 158t-85 119.5t-134 45.5q-120 0 -193.5 -91.5t-101.5 -265.5q-2 -12 -11 -63q-9 -46 -10 -51q75 -84 163 -137t208 -53q109 0 153.5 93zM448.5 725q102.5 122 257.5 122q101 0 178 -55t120 -150.5t46 -214.5q3 -191 -69.5 -311
t-219.5 -120q-116 0 -227 56.5t-186 150.5q-2 -6 -7 -19q-2 -2 -2 -4q-32 -71 -98 -125.5t-156 -54.5h-86q-38 8 -52.5 29t0 42t52.5 29h86q73 0 121.5 48t72 107t31.5 106l6 34q30 208 132.5 330z" />
    <glyph glyph-name="uniFEE4" unicode="&#x645;" horiz-adv-x="1346" arabic-form="medial" 
d="M1346 100v-100h-58q-99 0 -177.5 56.5t-114.5 157.5l54 210q-5 -103 25.5 -176t86.5 -110.5t126 -37.5h58zM914.5 185q44.5 93 41.5 245q-2 84 -31 158t-85 119.5t-134 45.5q-120 0 -193.5 -91.5t-101.5 -265.5q-2 -12 -11 -63q-9 -46 -10 -51q75 -84 163 -137t208 -53
q109 0 153.5 93zM448.5 725q102.5 122 257.5 122q101 0 178 -55t120 -150.5t46 -214.5q3 -191 -69.5 -311t-219.5 -120q-116 0 -227 56.5t-186 150.5q-2 -6 -7 -19q-2 -2 -2 -4q-32 -71 -98 -125.5t-156 -54.5h-86q-38 8 -52.5 29t0 42t52.5 29h86q73 0 121.5 48t72 107
t31.5 106l6 34q30 208 132.5 330z" />
    <glyph glyph-name="uniFEE6" unicode="&#x646;" horiz-adv-x="1713" arabic-form="final" 
d="M1413 337q3 -97 73.5 -167.5t172.5 -70.5h54v-100h-54q-77 0 -143 39t-104 103zM706 -549q-218 0 -331 79t-169 213t-56 279q1 151 38 268t72 207l90 -39q-28 -65 -66 -178.5t-38 -248.5q1 -188 95 -333.5t365 -146.5h170q120 0 220 60.5t160 170.5t60 275v601h97v-600
q1 -184 -71.5 -319.5t-196.5 -211.5t-269 -76h-170zM701 676v126q80 -1 160 0v-126h-160z" />
    <glyph glyph-name="uniFEE7" unicode="&#x646;" horiz-adv-x="676" arabic-form="initial" 
d="M170 100q67 0 123.5 33t90 89.5t33.5 123.5v312h95v-320q0 -92 -46 -169.5t-124.5 -123t-171.5 -45.5h-170q-39 8 -53.5 29t0 42t53.5 29h170zM233 979v126q80 -1 160 0v-126h-160z" />
    <glyph glyph-name="uniFEE8" unicode="&#x646;" horiz-adv-x="813" arabic-form="medial" 
d="M170 100q67 0 123.5 33t90 89.5t33.5 123.5v312h95v-312q0 -67 33 -123.5t90 -89.5t124 -33h54v-100h-54q-100 0 -178.5 53t-116.5 140q-37 -87 -115.5 -140t-178.5 -53h-170q-39 8 -53.5 29t0 42t53.5 29h170zM233 979v126q80 -1 160 0v-126h-160z" />
    <glyph glyph-name="uniFEEA" unicode="&#x647;" horiz-adv-x="1200" arabic-form="final" 
d="M634.5 90.5q-123.5 -32.5 -232 -10t-177.5 94.5t-75 182q-9 155 54.5 278t201.5 193t344 67l-28 184l96 13l118 -806q12 -80 73 -132.5t142 -53.5h49v-100h-49q-97 1 -175 58t-110 152q-108 -87 -231.5 -119.5zM465.5 755.5q-119.5 -54.5 -174.5 -155.5t-48 -235
q8 -102 94.5 -158.5t225.5 -39t277 127.5l-75 509q-180 6 -299.5 -48.5z" />
    <glyph glyph-name="uniFEEB" unicode="&#x647;" horiz-adv-x="1598" arabic-form="initial" 
d="M443 745q-63 -33 -100.5 -93.5t-37.5 -141.5q0 -104 53 -190t116 -140.5t109 -80.5q46 26 109 80.5t116 140.5t53 190q0 81 -37.5 141.5t-100.5 93.5t-140 33t-140 -33zM616.5 9.5q-29.5 9.5 -33.5 19.5q-4 -10 -33.5 -19.5t-70.5 -9.5h-479q-39 8 -53.5 29t0 42t53.5 29
h445q-87 60 -160 168t-73 241q0 105 48.5 187.5t133.5 128.5t189 46q105 0 189.5 -46t133 -128.5t48.5 -187.5q0 -133 -73 -241t-161 -169h439q78 0 130.5 51t59.5 124.5t-39 132.5l-356 468l74 57l363 -477q52 -69 57.5 -149t-31 -150t-103 -113t-149.5 -43h-478
q-41 0 -70.5 9.5z" />
    <glyph glyph-name="uniFEEC" unicode="&#x647;" horiz-adv-x="1299" arabic-form="medial" 
d="M544 99q101 0 173 46t109 125t37 176q0 139 -69.5 219t-208.5 80q-136 1 -207 -92.5t-72 -246.5l1 -307h237zM213 100v306q0 123 44 221.5t128 155t201 56.5q176 -1 273 -106t98 -286q0 -125 -50 -226t-143.5 -159.5t-218.5 -58.5h-236q0 -218 106 -329.5t330 -111.5h25
l105 248q54 128 165.5 209t226.5 81h31v-100h-31q-90 0 -180 -63.5t-140 -175.5l-123 -294h-71q-296 0 -418 145.5t-122 387.5h-213q-39 8 -53.5 29t0 42t53.5 29h213z" />
    <glyph glyph-name="uniFEEE" unicode="&#x648;" horiz-adv-x="1111" arabic-form="final" 
d="M589.5 -360.5q95.5 57.5 151.5 151.5t57 209h-274q-177 0 -269 99t-92 289q0 118 47 211t130.5 145t189.5 52q108 0 190.5 -51.5t128 -144t45.5 -212.5v-288h217v-100h-217q-3 -143 -70 -258.5t-181.5 -186t-255.5 -84.5l-282 -29l-8 97l281 31q116 12 211.5 69.5z
M802 387q0 79 -27 150.5t-88 118t-157 46.5q-84 0 -145.5 -41t-94.5 -112.5t-33 -161.5q0 -146 68.5 -216.5t204.5 -70.5h272v287z" />
    <glyph glyph-name="uniFEF2" unicode="&#x64a;" horiz-adv-x="1720" arabic-form="final" 
d="M713 -549q-218 0 -331 79t-168 213t-55 279q0 177 28 281t63 193l90 -38q-28 -65 -56.5 -165.5t-28.5 -262.5q0 -188 93 -334t363 -148h229q172 0 303.5 75t131.5 241q0 60 -36.5 99.5t-88.5 40.5h-446v96h915v-100h-312q62 -51 62 -134q-1 -114 -59.5 -204t-178 -150.5
t-291.5 -60.5h-227zM539 -968v126q79 -1 155 0v-126h-155zM856 -967v125h155v-125h-155z" />
    <glyph glyph-name=".notdef" horiz-adv-x="1300" 
d="M1157 0h-1014v1400h1014v-1400zM264 1279v-1158h772v1158h-772z" />
    <glyph glyph-name=".null" 
 />
    <glyph glyph-name="uni000D" unicode="&#xd;" 
 />
    <glyph glyph-name="space" unicode=" " horiz-adv-x="490" 
 />
    <glyph glyph-name="exclam" unicode="!" horiz-adv-x="516" 
d="M221 323q-6 197 -10 390t-4 390v340h105v-340q0 -197 -3 -390t-8 -390h-80zM199 0v99h118v-99h-118z" />
    <glyph glyph-name="quotedbl" unicode="&#x22;" horiz-adv-x="649" 
d="M417 1081v362h106l-25 -362h-81zM125 1081v362h106l-25 -362h-81z" />
    <glyph glyph-name="numbersign" unicode="#" horiz-adv-x="1549" 
d="M212 0l133 425h-220v81h246l133 428h-270v84h296l135 425h98l-135 -425h477l135 425h99l-135 -425h220v-84h-246l-135 -428h272v-81h-298l-133 -425h-96l132 425h-479l-133 -425h-96zM467 506h479l133 428h-477z" />
    <glyph glyph-name="dollar" unicode="$" horiz-adv-x="1235" 
d="M657 62q71 5 135 22.5t113.5 52.5t78 90t28.5 136q0 83 -31 135.5t-81.5 86.5t-114 54.5t-128.5 38.5v-616zM223 1080q0 -79 31 -128.5t81 -80.5t111.5 -49t121.5 -35v589q-70 -5 -132.5 -22t-110 -51t-75 -88.5t-27.5 -134.5zM166 39v86q99 -33 200.5 -48.5t204.5 -16.5
v640q-81 20 -160 44.5t-142.5 65.5t-102.5 105.5t-39 165.5q0 100 36.5 169.5t98 115t141.5 68.5t168 28v173h86v-170q37 -1 85.5 -4.5t98.5 -10t97 -16t81 -22.5v-86q-87 32 -178.5 43t-183.5 11v-614q84 -19 165 -46t144.5 -72.5t103 -114t39.5 -170.5t-37.5 -172
t-99.5 -114.5t-143.5 -67t-171.5 -28.5v-174h-86v171q-103 1 -205.5 12.5t-199.5 48.5z" />
    <glyph glyph-name="percent" unicode="%" horiz-adv-x="1542" 
d="M422 833q-143 0 -220 80t-77 223q0 148 70 238.5t227 90.5q158 0 228 -90.5t70 -238.5q0 -143 -77 -223t-221 -80zM332 0l771 1443h101l-771 -1443h-101zM422 910q116 0 166 57t50 170t-46 182.5t-170 69.5t-170 -69.5t-46 -182.5q0 -109 52 -168t164 -59zM1120 -22
q-144 0 -220.5 79.5t-76.5 222.5q0 147 69.5 237.5t227.5 90.5q157 0 227 -90.5t70 -237.5q0 -144 -77 -223t-220 -79zM1120 54q115 0 166 57t51 170q0 112 -46.5 181.5t-170.5 69.5q-125 0 -171 -69.5t-46 -181.5q0 -110 52.5 -168.5t164.5 -58.5z" />
    <glyph glyph-name="ampersand" unicode="&#x26;" horiz-adv-x="1455" 
d="M588 -22q-81 0 -163 19.5t-149 62t-109 109t-42 158.5q0 86 33 155t86 125t119 101.5t132 84.5q-38 37 -79 77.5t-74.5 85t-55 95t-21.5 108.5q0 72 25 129t69 96.5t104 60t130 20.5q71 0 129.5 -20.5t100 -60t65 -96t23.5 -129.5q0 -69 -23 -124t-61 -101.5t-87 -85
t-102 -73.5l445 -453q31 68 38 133t7 138h90v-52q0 -73 -17 -146t-54 -138l204 -204l-64 -58l-195 196q-43 -59 -100.5 -100t-123.5 -66t-137.5 -36t-142.5 -11zM572 831q49 30 93.5 60.5t78 68t53.5 85t20 111.5q0 112 -56 169.5t-168 57.5q-107 0 -170.5 -58.5
t-63.5 -168.5q0 -54 20 -98.5t52 -83.5t69.5 -74t71.5 -69zM588 61q64 0 127 9t119.5 31.5t106 59.5t86.5 92l-466 474q-61 -32 -121 -69.5t-107.5 -84.5t-76.5 -107t-29 -137q0 -73 33 -124t85.5 -83t116.5 -46.5t126 -14.5z" />
    <glyph glyph-name="quotesingle" unicode="'" horiz-adv-x="357" 
d="M125 1081v362h106l-25 -362h-81z" />
    <glyph glyph-name="parenleft" unicode="(" horiz-adv-x="640" 
d="M437 -161q-89 75 -149 173.5t-96 209.5t-51.5 228t-15.5 229t15 229t51 228t96 209.5t150 173.5h122q-94 -77 -157 -174t-101.5 -206.5t-54.5 -226t-16 -233.5q0 -119 16 -235.5t54.5 -224.5t101.5 -204.5t157 -175.5h-122z" />
    <glyph glyph-name="parenright" unicode=")" horiz-adv-x="640" 
d="M81 -161q94 79 157.5 175.5t101.5 204.5t54 224.5t16 235.5q0 117 -16 233.5t-54 226t-101.5 206.5t-157.5 174h122q89 -73 149.5 -172t96 -211t50.5 -229.5t15 -227.5q0 -109 -15 -227t-51 -230t-96 -211.5t-149 -171.5h-122z" />
    <glyph glyph-name="asterisk" unicode="*" horiz-adv-x="935" 
d="M261 783l-70 54l215 250l-281 114l37 78l267 -125l-8 289h93l-8 -289l268 125l36 -78l-283 -115l218 -249l-70 -54l-207 265z" />
    <glyph glyph-name="plus" unicode="+" horiz-adv-x="1081" 
d="M493 164v354h-368v88h368v368h94v-368h369v-88h-369v-354h-94z" />
    <glyph glyph-name="comma" unicode="," horiz-adv-x="413" 
d="M125 -269l56 362h108l-85 -362h-79z" />
    <glyph glyph-name="hyphen" unicode="-" horiz-adv-x="1081" 
d="M125 518v88h831v-88h-831z" />
    <glyph glyph-name="period" unicode="." horiz-adv-x="490" 
d="M192 0v101h105v-101h-105z" />
    <glyph glyph-name="slash" unicode="/" horiz-adv-x="879" 
d="M125 0l525 1483h104l-524 -1483h-105z" />
    <glyph glyph-name="zero" unicode="0" horiz-adv-x="1425" 
d="M712 -25q-164 0 -276 57.5t-181.5 155t-99.5 228t-30 275.5q0 154 24 294.5t89 247t179.5 169.5t294.5 63q182 0 296 -63t179 -169.5t89 -247t24 -294.5q0 -145 -30.5 -275.5t-99.5 -228t-181.5 -155t-276.5 -57.5zM712 68q139 0 232 52t148.5 139t79 199.5t23.5 232.5
q0 129 -16 251.5t-67.5 218t-146.5 154t-253 58.5q-156 0 -251 -58.5t-147 -154t-68 -218t-16 -251.5q0 -119 23.5 -231.5t79.5 -199.5t148.5 -139.5t230.5 -52.5z" />
    <glyph glyph-name="one" unicode="1" horiz-adv-x="626" 
d="M351 0v1360l-226 -41v93l331 53v-1465h-105z" />
    <glyph glyph-name="two" unicode="2" horiz-adv-x="1110" 
d="M125 0v70q4 50 55.5 122t118 144.5t134 136t103.5 95.5q60 52 119 104.5t105.5 113t76 129.5t29.5 155q0 81 -28 137.5t-76 93.5t-112.5 54.5t-139.5 17.5q-83 0 -166 -14.5t-162 -44.5v94q74 31 164.5 44t168.5 13q96 0 179 -23t144.5 -70.5t96.5 -122t35 -178.5
q0 -91 -32 -168t-83 -145t-117.5 -129.5t-136.5 -122.5q-104 -92 -201.5 -192t-147.5 -226h733v-88h-860z" />
    <glyph glyph-name="three" unicode="3" horiz-adv-x="1126" 
d="M485 -22q-41 0 -88.5 3t-94.5 10.5t-93 18t-84 24.5v93q87 -33 173 -46t179 -13q84 0 160 15t134 52t91.5 99.5t33.5 158.5q0 122 -55.5 183.5t-141 87t-185 26.5t-188.5 1l13 84q93 0 185.5 3t168 30.5t123 92t47.5 184.5q0 86 -30.5 142.5t-82 89.5t-121 45.5
t-143.5 12.5q-86 0 -171 -15.5t-164 -43.5v92q72 29 170 43t174 14q95 0 181 -18.5t150 -62t103 -115t39 -177.5q0 -130 -69.5 -228t-198.5 -128q140 -27 220 -113.5t80 -234.5q0 -116 -42.5 -194.5t-112.5 -127t-164 -68.5t-196 -20z" />
    <glyph glyph-name="four" unicode="4" horiz-adv-x="1194" 
d="M851 0v352h-770v96l775 995h101v-1001h157v-90h-157v-352h-106zM178 440h682v873z" />
    <glyph glyph-name="five" unicode="5" horiz-adv-x="1128" 
d="M492 -22q-41 0 -88 2.5t-94.5 9.5t-93 17.5t-84.5 26.5v93q43 -16 86 -27.5t87.5 -18.5t90.5 -9.5t90 -2.5q90 0 165 18.5t130 61t86.5 110t31.5 165.5t-22.5 161.5t-68.5 102.5t-115.5 54t-163.5 15h-404v32v47.5t2 47.5l36 559h732l-14 -88h-631l-33 -512h312
q112 0 199.5 -18.5t149 -67t94 -129.5t32.5 -206q0 -117 -39.5 -201t-107.5 -138t-162 -79.5t-203 -25.5z" />
    <glyph glyph-name="six" unicode="6" horiz-adv-x="1249" 
d="M625 -22q-267 0 -383.5 141t-116.5 398v358q0 127 36 234.5t105.5 187t171 124t233.5 44.5q80 0 161.5 -8.5t157.5 -34.5v-92q-75 26 -155.5 35.5t-159.5 9.5q-109 0 -192.5 -36.5t-140 -101t-86 -152.5t-29.5 -193v-135q88 64 198 102t219 38q229 0 354 -112t125 -344
q0 -116 -36 -203.5t-102 -145t-157 -86t-203 -28.5zM624 63q183 0 292 93t109 283q0 198 -100 285t-296 87q-106 0 -212.5 -39t-189.5 -101v-202q0 -201 96.5 -303.5t300.5 -102.5z" />
    <glyph glyph-name="seven" unicode="7" horiz-adv-x="1104" 
d="M326 0l571 1355h-794v88h898v-92l-570 -1351h-105z" />
    <glyph glyph-name="eight" unicode="8" horiz-adv-x="1280" 
d="M640 -22q-98 0 -190.5 18.5t-164.5 63.5t-116 120.5t-44 189.5q0 148 81.5 245.5t223.5 130.5q-123 33 -193 116.5t-70 212.5q0 106 38.5 180t104.5 120.5t151.5 68t180.5 21.5t180.5 -21t150 -67t102.5 -120.5t38 -181.5q0 -142 -73.5 -228t-206.5 -126
q147 -31 234 -112t87 -239q0 -114 -43.5 -189.5t-116 -120.5t-165 -63.5t-189.5 -18.5zM705 757q69 14 125.5 37t97 59.5t62 90.5t21.5 130q0 85 -29 143.5t-80 94t-119 51t-143 15.5q-77 0 -144.5 -15.5t-118 -50.5t-80.5 -94t-30 -144q0 -100 40.5 -156.5t103.5 -87.5
t141 -45t153 -28zM640 64q77 0 151.5 13.5t132.5 47.5t93.5 94t35.5 152q0 106 -49.5 166.5t-125.5 93.5t-165.5 47t-169.5 27q-141 -26 -229 -102t-88 -231q0 -92 35.5 -152t93.5 -94.5t132.5 -48t152.5 -13.5z" />
    <glyph glyph-name="nine" unicode="9" horiz-adv-x="1249" 
d="M587 -22q-80 0 -165 8t-163 34v92q72 -28 159.5 -36.5t164.5 -8.5q109 0 191 36t137 100t82.5 153t27.5 191v128q-90 -68 -193 -104t-218 -36q-227 0 -356 112t-129 345q0 117 37 206t105 148t161 89t204 30q136 0 229.5 -36t151 -104t84 -169.5t26.5 -229.5v-359
q0 -125 -34 -233.5t-101 -187t-167 -123.5t-234 -45zM626 621q107 0 208.5 37.5t186.5 103.5v211q0 199 -91.5 303t-295.5 104q-183 0 -297 -98t-114 -288q0 -198 106 -285.5t297 -87.5z" />
    <glyph glyph-name="colon" unicode=":" horiz-adv-x="359" 
d="M125 748v105h108v-105h-108zM125 70v105h108v-105h-108z" />
    <glyph glyph-name="semicolon" unicode=";" horiz-adv-x="418" 
d="M183 748v105h109v-105h-109zM125 -201l56 361h108l-85 -361h-79z" />
    <glyph glyph-name="less" unicode="&#x3c;" horiz-adv-x="1221" 
d="M1096 153l-971 454v89l971 454v-104l-863 -395l863 -394v-104z" />
    <glyph glyph-name="equal" unicode="=" horiz-adv-x="1094" 
d="M125 667v84h844v-84h-844zM125 378v86h844v-86h-844z" />
    <glyph glyph-name="greater" unicode="&#x3e;" horiz-adv-x="1221" 
d="M125 153v104l862 394l-862 395v104l971 -454v-89z" />
    <glyph glyph-name="question" unicode="?" horiz-adv-x="1089" 
d="M400 327v55q0 89 34 152.5t85 113t110.5 91.5t110.5 89t85 104t34 138q0 87 -28.5 145.5t-78.5 93.5t-117.5 49.5t-145.5 14.5q-94 0 -186.5 -18.5t-177.5 -60.5v93q85 46 186.5 62t195.5 16q97 0 180.5 -21t145 -67t96.5 -120.5t35 -180.5q0 -91 -34.5 -155t-85 -113
t-110 -91t-111 -89t-85.5 -106.5t-35 -144.5v-50h-103zM394 0v99h117v-99h-117z" />
    <glyph glyph-name="at" unicode="@" horiz-adv-x="1717" 
d="M871 -296q-177 0 -316 44t-234.5 132.5t-145.5 222.5t-50 318q0 195 51.5 337t150.5 235t246 138t335 45q153 0 279 -34t216 -106.5t139.5 -188t49.5 -276.5q0 -108 -20.5 -194t-68 -146t-124 -90.5t-189.5 -30.5h-18q-75 -83 -169.5 -114.5t-204.5 -31.5
q-62 0 -119.5 13t-102.5 42.5t-71.5 78.5t-26.5 119q0 80 29 132.5t77 83t112 43t133 12.5h324v92q0 82 -14.5 131.5t-47.5 77.5t-87 37t-134 9q-73 0 -143.5 -10.5t-140.5 -37.5v71q70 29 151.5 38t155.5 9q95 0 160.5 -19t106 -60t58.5 -105.5t18 -157.5v-377
q89 0 141 32.5t80.5 87t37.5 123.5t9 142q0 147 -41.5 247.5t-119.5 162.5t-188.5 90t-247.5 28q-347 0 -521 -163.5t-174 -515.5q0 -161 43 -281t127 -200t206 -119t279 -39q94 0 196 8t191 35v-79q-94 -21 -190 -31t-193 -10zM818 34q107 0 187.5 34.5t147.5 117.5v232
h-325q-56 0 -105 -7.5t-85 -28t-56.5 -60.5t-20.5 -105q0 -57 22.5 -93t58.5 -55.5t82 -27t94 -7.5z" />
    <glyph glyph-name="A" unicode="A" horiz-adv-x="1481" 
d="M125 0l546 1443h142l543 -1443h-108l-162 431h-690l-162 -431h-109zM422 517h637l-319 845z" />
    <glyph glyph-name="B" unicode="B" horiz-adv-x="1380" 
d="M170 0v1443h625q97 0 171.5 -21t125.5 -66.5t77.5 -116.5t26.5 -171q0 -108 -45.5 -190.5t-146.5 -129.5q137 -27 194 -117t57 -223q0 -106 -25.5 -183t-77.5 -127t-130 -74t-183 -24h-669zM275 788h533q137 0 210.5 68.5t73.5 206.5q0 172 -81.5 233.5t-242.5 61.5h-493
v-570zM275 85h558q177 0 247.5 82t70.5 253q0 88 -26.5 143.5t-73.5 87t-111.5 43t-140.5 11.5h-524v-620z" />
    <glyph glyph-name="C" unicode="C" horiz-adv-x="1314" 
d="M779 -22q-166 0 -289 49.5t-204 141t-121 221t-40 289.5q0 167 32.5 311t108.5 249.5t201.5 165.5t311.5 60q104 0 208 -13t202 -52v-94q-95 39 -197 53t-204 14q-167 0 -275 -53.5t-171 -147t-87.5 -220t-24.5 -273.5q0 -141 32.5 -254t101 -192t175.5 -121t256 -42
q100 0 199.5 12.5t194.5 46.5v-96q-99 -33 -202.5 -44t-207.5 -11z" />
    <glyph glyph-name="D" unicode="D" horiz-adv-x="1406" 
d="M170 0v1443h536q183 0 295 -56t174.5 -154t84 -232t21.5 -291q0 -156 -23 -286t-86.5 -224.5t-175.5 -147t-290 -52.5h-536zM275 88h406q161 0 259 44.5t151 126t69.5 196t16.5 255.5q0 143 -14.5 261t-66 203.5t-150.5 133t-265 47.5h-406v-1267z" />
    <glyph glyph-name="E" unicode="E" horiz-adv-x="1209" 
d="M170 0v1443h935v-88h-830v-589h751v-88h-751v-590h830v-88h-935z" />
    <glyph glyph-name="F" unicode="F" horiz-adv-x="1130" 
d="M170 0v1443h899v-88h-794v-589h712v-88h-712v-678h-105z" />
    <glyph glyph-name="G" unicode="G" horiz-adv-x="1410" 
d="M780 -22q-167 0 -290 49.5t-204.5 140.5t-121 220.5t-39.5 289.5q0 166 33.5 309t110.5 249.5t202.5 167.5t309.5 61q104 0 207.5 -11.5t203.5 -43.5v-94q-98 30 -197.5 43.5t-202.5 13.5q-167 0 -275.5 -53.5t-172.5 -146.5t-89 -220.5t-25 -274.5q0 -141 32 -254
t100.5 -191.5t175 -120.5t253.5 -42q100 0 202.5 16t194.5 52v538h-416v82h514v-672q-51 -33 -114.5 -54t-131 -33t-135 -16.5t-125.5 -4.5z" />
    <glyph glyph-name="H" unicode="H" horiz-adv-x="1401" 
d="M170 0v1443h105v-676h851v676h105v-1443h-105v676h-851v-676h-105z" />
    <glyph glyph-name="I" unicode="I" horiz-adv-x="445" 
d="M170 0v1443h105v-1443h-105z" />
    <glyph glyph-name="J" unicode="J" horiz-adv-x="892" 
d="M331 -22q-74 0 -147 12t-142 41v94q64 -32 132.5 -43t138.5 -11q160 0 237.5 64.5t77.5 231.5v1076h105v-1085q0 -100 -26.5 -172t-77.5 -118t-126.5 -68t-171.5 -22z" />
    <glyph glyph-name="K" unicode="K" horiz-adv-x="1293" 
d="M170 0v1443h105v-781l751 781h132l-548 -575l558 -868h-117l-511 800l-265 -275v-525h-105z" />
    <glyph glyph-name="L" unicode="L" horiz-adv-x="1163" 
d="M170 0v1443h105v-1355h808v-88h-913z" />
    <glyph glyph-name="M" unicode="M" horiz-adv-x="1661" 
d="M170 0v1443h129l533 -1088l530 1088h129v-1443h-105v1295l-510 -1043h-89l-512 1043v-1295h-105z" />
    <glyph glyph-name="N" unicode="N" horiz-adv-x="1463" 
d="M170 0v1443h104l913 -1287v1287h106v-1443h-105l-913 1286v-1286h-105z" />
    <glyph glyph-name="O" unicode="O" horiz-adv-x="1535" 
d="M767 -22q-173 0 -295 54.5t-199 151t-112.5 231t-35.5 294.5q0 168 30.5 307t104.5 239t197.5 155t309.5 55t310 -55t198 -154.5t104 -238.5t30 -308q0 -161 -35 -295.5t-112 -231t-199.5 -150.5t-295.5 -54zM767 70q152 0 255 48.5t166 134.5t90 202.5t27 253.5
q0 145 -22.5 266.5t-82 210t-164 138t-269.5 49.5q-163 0 -267.5 -50t-164.5 -138.5t-82.5 -210t-22.5 -265.5q0 -137 27 -253.5t90 -202.5t165.5 -134.5t254.5 -48.5z" />
    <glyph glyph-name="P" unicode="P" horiz-adv-x="1269" 
d="M170 0v1443h564q110 0 194.5 -28t142 -83.5t88 -138.5t30.5 -195q0 -107 -34 -188.5t-95 -136.5t-146 -83t-189 -28h-450v-562h-105zM275 650h443q169 0 267.5 87.5t98.5 261.5q0 176 -89 266t-266 90h-454v-705z" />
    <glyph glyph-name="Q" unicode="Q" horiz-adv-x="1535" 
d="M989 -385q-89 0 -144.5 28.5t-86 78t-41.5 116t-11 143.5q-161 9 -272 69t-179.5 157t-99 225.5t-30.5 276.5q0 168 30.5 307t104.5 239t197.5 155t309.5 55t310 -55t198 -154.5t104 -238.5t30 -308q0 -152 -32 -283t-104.5 -229t-188 -155.5t-281.5 -61.5q0 -54 5 -104
t24 -89.5t57.5 -63t104.5 -23.5q41 0 79.5 5.5t77.5 16.5v-85q-40 -12 -80.5 -17t-81.5 -5zM767 70q152 0 255 48.5t166 134.5t90 202.5t27 253.5q0 145 -22.5 266.5t-82 210t-164 138t-269.5 49.5q-163 0 -267.5 -50t-164.5 -138.5t-82.5 -210t-22.5 -265.5
q0 -137 27 -253.5t90 -202.5t165.5 -134.5t254.5 -48.5z" />
    <glyph glyph-name="R" unicode="R" horiz-adv-x="1318" 
d="M170 0v1443h595q213 0 318.5 -105.5t105.5 -319.5q0 -165 -76.5 -272t-244.5 -136q54 -24 79 -63.5t49 -91.5l194 -455h-106l-193 440q-22 52 -47.5 81.5t-58 44.5t-73 19.5t-92.5 4.5h-345v-590h-105zM275 678h457q172 0 262 82t90 258q0 165 -78.5 251t-246.5 86h-484
v-677z" />
    <glyph glyph-name="S" unicode="S" horiz-adv-x="1235" 
d="M576 -22q-52 0 -105 2t-104.5 9.5t-103.5 19.5t-100 30v92q99 -33 201.5 -49.5t206.5 -16.5q78 0 155.5 11t140 43.5t100.5 91t38 153.5q0 119 -65 180.5t-163 97t-212 58.5t-211.5 63t-163 112t-65.5 204q0 113 44 187.5t116 118.5t165 62t189 18q41 0 91.5 -2.5
t102 -9.5t100.5 -17t89 -25v-92q-86 33 -177.5 44t-182.5 11q-76 0 -154 -10.5t-139 -42.5t-100 -90t-39 -151q0 -110 65 -168t163.5 -91t211.5 -55.5t211 -65.5t164 -119.5t66 -216.5q0 -117 -46.5 -192t-122.5 -118.5t-171.5 -59.5t-194.5 -16z" />
    <glyph glyph-name="T" unicode="T" horiz-adv-x="1276" 
d="M584 0v1355h-503v88h1111v-88h-502v-1355h-106z" />
    <glyph glyph-name="U" unicode="U" horiz-adv-x="1478" 
d="M739 -22q-136 0 -243.5 31.5t-182.5 98t-114.5 169.5t-39.5 245v921h105v-939q0 -112 34.5 -194t97.5 -135t150.5 -78.5t192.5 -25.5q108 0 195.5 25t149.5 77.5t96.5 134.5t34.5 196v939h104v-921q0 -143 -39 -246t-113.5 -169.5t-182 -97.5t-245.5 -31z" />
    <glyph glyph-name="V" unicode="V" horiz-adv-x="1481" 
d="M671 0l-546 1443h109l506 -1353l506 1353h110l-543 -1443h-142z" />
    <glyph glyph-name="W" unicode="W" horiz-adv-x="1896" 
d="M461 0l-336 1443h106l306 -1323l361 1182v141h87l374 -1323l307 1323h104l-334 -1443h-133l-341 1214l-365 -1214h-136z" />
    <glyph glyph-name="X" unicode="X" horiz-adv-x="1377" 
d="M125 0l499 712l-497 731h117l445 -659l444 659h117l-500 -731l502 -712h-118l-445 637l-446 -637h-118z" />
    <glyph glyph-name="Y" unicode="Y" horiz-adv-x="1369" 
d="M632 0v540l-514 903h110l457 -808l457 808h109l-513 -903v-540h-106z" />
    <glyph glyph-name="Z" unicode="Z" horiz-adv-x="1268" 
d="M125 0v68l888 1286h-851v89h980v-79l-881 -1276h892v-88h-1028z" />
    <glyph glyph-name="bracketleft" unicode="[" horiz-adv-x="738" 
d="M125 -222v1803h504l6 -88h-405v-1627h405l-6 -88h-504z" />
    <glyph glyph-name="backslash" unicode="\" horiz-adv-x="922" 
d="M692 -121l-567 1604h106l566 -1604h-105z" />
    <glyph glyph-name="bracketright" unicode="]" horiz-adv-x="738" 
d="M108 -222l-5 88h404v1627h-404l5 88h504v-1803h-504z" />
    <glyph glyph-name="asciicircum" unicode="^" horiz-adv-x="970" 
d="M125 892l312 506h93l314 -506h-104l-256 428l-256 -428h-103z" />
    <glyph glyph-name="underscore" unicode="_" horiz-adv-x="1241" 
d="M125 -88v88h991v-88h-991z" />
    <glyph glyph-name="grave" unicode="`" horiz-adv-x="498" 
d="M289 1169l-164 349h100l148 -349h-84z" />
    <glyph glyph-name="a" unicode="a" horiz-adv-x="1182" 
d="M494 -22q-73 0 -139.5 15.5t-117.5 51t-81.5 92.5t-30.5 138q0 66 16.5 115.5t46 84t69 56t86.5 34t97.5 17t103.5 4.5h376v120q0 93 -21.5 151t-64 90t-108 43t-152.5 11q-84 0 -166.5 -13.5t-162.5 -42.5v82q41 17 85.5 27.5t90.5 17.5t92 9.5t89 2.5q100 0 179 -19
t132.5 -62.5t81.5 -115.5t28 -179v-708h-87l-11 138q-85 -97 -196.5 -128.5t-234.5 -31.5zM523 58q120 0 218.5 37t178.5 131v280h-411q-60 0 -112 -9.5t-91 -34.5t-61 -69.5t-22 -115.5q0 -67 26 -110t67.5 -67t96 -33t110.5 -9z" />
    <glyph glyph-name="b" unicode="b" horiz-adv-x="1255" 
d="M655 -22q-114 0 -208.5 33.5t-177.5 111.5l-10 -123h-89v1510h105v-540q87 64 182 89t200 25q132 0 222.5 -39.5t146 -111.5t80 -172t24.5 -221q0 -120 -24.5 -223t-80.5 -178.5t-146.5 -118t-223.5 -42.5zM631 63q115 0 191.5 35.5t121.5 99.5t63.5 151.5t18.5 190.5
q0 105 -19.5 190t-65.5 145t-122.5 91.5t-192.5 31.5q-98 0 -186 -28.5t-165 -92.5v-666q74 -75 162 -111.5t194 -36.5z" />
    <glyph glyph-name="c" unicode="c" horiz-adv-x="1017" 
d="M646 -22q-136 0 -234.5 37t-162 108t-94 174t-30.5 234q0 130 35 232.5t103.5 174t169.5 109t233 37.5q77 0 144.5 -10.5t138.5 -46.5v-86q-65 30 -130 43.5t-137 13.5q-115 0 -200 -30.5t-141 -90t-83.5 -146.5t-27.5 -200q0 -116 24 -203.5t77 -146t136 -88t203 -29.5
q72 0 142.5 14.5t136.5 43.5v-89q-72 -33 -149 -44t-154 -11z" />
    <glyph glyph-name="d" unicode="d" horiz-adv-x="1255" 
d="M600 -22q-125 0 -215 40t-148 111t-85 169.5t-27 215.5q0 121 28.5 225t88.5 180.5t154 120.5t224 44q107 0 190 -24.5t170 -89.5v540h105v-1510h-89l-10 123q-83 -78 -177.5 -111.5t-208.5 -33.5zM624 63q106 0 194 36.5t162 111.5v666q-73 65 -153.5 93t-177.5 28
q-116 0 -195.5 -36t-129 -100.5t-72 -153.5t-22.5 -195q0 -99 21.5 -181.5t69 -142t122.5 -93t181 -33.5z" />
    <glyph glyph-name="e" unicode="e" horiz-adv-x="1169" 
d="M670 -22q-145 0 -248 34t-169 104.5t-97 175.5t-31 247q0 123 26 223.5t84.5 172t151 110.5t224.5 39q101 0 181 -27.5t136 -81t86.5 -132.5t30.5 -181v-185h-819q7 -116 37.5 -195.5t87.5 -128.5t141.5 -70.5t198.5 -21.5q73 0 144.5 14.5t138.5 41.5v-84
q-73 -29 -149 -42t-155 -13zM226 558h720v106q0 171 -86.5 254t-256.5 83q-107 0 -179.5 -33t-116.5 -91.5t-62.5 -140t-18.5 -178.5z" />
    <glyph glyph-name="f" unicode="f" horiz-adv-x="763" 
d="M245 0v973h-165v89h165v14q0 92 3.5 176.5t32 149.5t90.5 104.5t179 39.5q42 0 84 -5.5t84 -20.5v-85q-31 11 -64.5 18t-69.5 7q-62 0 -106 -12t-72.5 -37t-42.5 -67t-14 -103v-179h301l-6 -89h-295v-973h-104z" />
    <glyph glyph-name="g" unicode="g" horiz-adv-x="1213" 
d="M575 -394q-50 0 -102.5 2t-104.5 8t-103 16.5t-98 28.5v84q47 -15 97.5 -25.5t102 -17.5t103.5 -10t102 -3q46 0 111.5 1t124 16t99 49.5t40.5 102.5q0 54 -20 84t-53.5 44.5t-77 17.5t-90.5 3h-289q-50 0 -100.5 5t-92 23.5t-68.5 53t-27 95.5q0 41 17 73t45 56t64 41
t72 24q-108 39 -149.5 128t-41.5 197q0 109 32 181.5t89 117.5t139 63.5t183 18.5q44 0 90.5 -11t80.5 -11h371l-5 -82h-210q64 -52 90 -126t26 -153q0 -104 -31 -174.5t-86.5 -113.5t-134 -62t-174.5 -19q-40 0 -102 5t-120.5 -3t-100.5 -38t-42 -99q0 -33 15 -54t41 -31.5
t62 -16t78 -5.5q92 -2 200 4.5t201 -8t155 -64t62 -160.5q0 -94 -47 -146t-117 -77t-152.5 -29t-153.5 -4zM579 408q84 0 148 12t108.5 45.5t67.5 91.5t23 149q0 88 -23 146.5t-67.5 93t-109.5 48t-147 13.5t-147 -13.5t-109 -48t-67 -93t-23 -146.5t23 -146t67 -91.5
t109 -47t147 -13.5z" />
    <glyph glyph-name="h" unicode="h" horiz-adv-x="1243" 
d="M170 0v1510h105v-578q97 81 202 116.5t231 35.5q200 0 288 -90.5t88 -288.5v-705h-105v701q0 89 -18 146t-56.5 91t-98.5 47t-145 13q-109 0 -207.5 -43.5t-178.5 -119.5v-835h-105z" />
    <glyph glyph-name="i" unicode="i" horiz-adv-x="569" 
d="M276 1347v123h124v-123h-124zM294 0v974h-171l5 88h271v-1062h-105z" />
    <glyph glyph-name="j" unicode="j" horiz-adv-x="602" 
d="M307 1347v123h123v-123h-123zM132 -524q-44 0 -86.5 5.5t-85.5 19.5v85q32 -11 66.5 -17.5t70.5 -6.5q108 0 166.5 48t58.5 162v1202h-168l5 88h269v-1295q0 -139 -79 -215t-217 -76z" />
    <glyph glyph-name="k" unicode="k" horiz-adv-x="1076" 
d="M170 0v1510h105v-969l562 521h128l-437 -413l464 -649h-113l-420 589l-184 -169v-420h-105z" />
    <glyph glyph-name="l" unicode="l" horiz-adv-x="538" 
d="M357 -22q-53 0 -89 16t-58 45t-31 69t-9 88v1314h105v-1317q0 -51 17.5 -89t77.5 -38q26 0 50 2t48 9v-84q-22 -9 -55 -12t-56 -3z" />
    <glyph glyph-name="m" unicode="m" horiz-adv-x="1899" 
d="M170 0v1062h92l11 -133q84 72 185 113.5t213 41.5q94 0 173 -31.5t120 -122.5q91 79 196 116.5t224 37.5q187 0 271.5 -94.5t84.5 -277.5v-712h-104v703q0 156 -67.5 225.5t-223.5 69.5q-100 0 -193 -36.5t-162 -109.5q10 -38 13.5 -79t3.5 -81v-692h-102v710
q0 72 -11.5 126.5t-41.5 90t-80 53.5t-126 18q-103 0 -201.5 -48.5t-170.5 -115.5v-834h-104z" />
    <glyph glyph-name="n" unicode="n" horiz-adv-x="1243" 
d="M170 0v1062h92l11 -132q99 81 204.5 117.5t233.5 36.5q197 0 285 -91.5t88 -286.5v-706h-105v702q0 88 -18.5 145t-56.5 91t-98 47t-145 13q-109 0 -207.5 -43.5t-178.5 -119.5v-835h-105z" />
    <glyph glyph-name="o" unicode="o" horiz-adv-x="1250" 
d="M625 -22q-135 0 -230 38.5t-155 110t-87.5 174t-27.5 230.5q0 127 27.5 229.5t87 174.5t154.5 110.5t231 38.5q137 0 232.5 -38t155 -109.5t86.5 -174t27 -231.5q0 -130 -26.5 -233t-86 -174t-155 -108.5t-233.5 -37.5zM625 66q118 0 194.5 32.5t121.5 92.5t63 146
t18 194t-18 194t-62.5 146t-121.5 92.5t-195 32.5q-115 0 -191.5 -33.5t-121.5 -94t-63.5 -146.5t-18.5 -191q0 -107 17.5 -193t62.5 -146.5t121.5 -93t193.5 -32.5z" />
    <glyph glyph-name="p" unicode="p" horiz-adv-x="1255" 
d="M170 -484v1546h89l10 -123q84 82 178 113.5t209 31.5q134 0 225 -41t146 -114.5t79 -175.5t24 -225q0 -120 -28.5 -221.5t-88 -174.5t-152 -113.5t-221.5 -40.5q-106 0 -192 25t-173 89v-576h-105zM614 64q115 0 194 35t127 98t69.5 151t21.5 193q0 106 -18.5 191
t-63.5 144t-121.5 90.5t-191.5 31.5q-106 0 -194 -36.5t-162 -111.5v-665q79 -61 158.5 -91t180.5 -30z" />
    <glyph glyph-name="q" unicode="q" horiz-adv-x="1248" 
d="M1201 -542q-65 0 -107.5 19t-68.5 53t-35.5 80.5t-9.5 103.5v378q-87 -64 -173 -89t-193 -25q-129 0 -222.5 41t-152.5 115t-86.5 175.5t-27.5 223.5q0 120 25.5 221.5t82.5 175.5t148 114t220 40q114 0 207.5 -31.5t177.5 -113.5l10 123h89v-1342q0 -87 26.5 -131
t122.5 -44q18 0 36 4t37 8v-84q-13 -3 -27 -6.5t-26.5 -5t-25.5 -2.5t-27 -1zM641 64q100 0 180.5 28.5t158.5 92.5v665q-73 76 -162 112t-193 36q-115 0 -190.5 -33t-121.5 -94t-64.5 -146.5t-18.5 -190.5q0 -107 21.5 -194t69.5 -148.5t127 -94.5t193 -33z" />
    <glyph glyph-name="r" unicode="r" horiz-adv-x="725" 
d="M170 0v1062h93l11 -150q90 62 191.5 105.5t208.5 66.5v-88q-99 -24 -207.5 -69t-191.5 -103v-824h-105z" />
    <glyph glyph-name="s" unicode="s" horiz-adv-x="992" 
d="M475 -22q-39 0 -79.5 2t-82 7t-81.5 13.5t-78 20.5v89q73 -23 152 -34.5t156 -11.5q56 0 109.5 6.5t96 27t69 61t26.5 107.5q0 68 -29 107t-75 64t-102.5 40t-112.5 36q-59 19 -116 39t-103 52.5t-73 81t-27 124.5q0 85 32.5 139.5t86 84.5t122 40t140.5 10q36 0 71 -1.5
t70.5 -6t71 -10.5t68.5 -18v-89q-64 20 -130.5 29.5t-132.5 9.5q-50 0 -102.5 -4.5t-95.5 -24t-69.5 -56t-26.5 -102.5q0 -59 26 -95.5t66.5 -60.5t90 -37.5t95.5 -29.5q66 -21 131 -43t115.5 -56t81.5 -86.5t31 -135.5q0 -90 -32.5 -146t-88 -88t-125.5 -43.5t-146 -11.5z
" />
    <glyph glyph-name="t" unicode="t" horiz-adv-x="757" 
d="M534 -22q-138 0 -211.5 77.5t-73.5 213.5v704h-168v89h168v285l105 33v-318h311l-5 -89h-306v-700q0 -110 54 -159.5t162 -49.5q32 0 63.5 6t62.5 18v-85q-39 -14 -80 -19.5t-82 -5.5z" />
    <glyph glyph-name="u" unicode="u" horiz-adv-x="1240" 
d="M548 -22q-196 0 -294 110.5t-98 302.5v671h105v-669q0 -169 84 -249t252 -80q107 0 200 42.5t168 119.5v836h104v-1062h-92l-11 132q-95 -86 -192.5 -120t-225.5 -34z" />
    <glyph glyph-name="v" unicode="v" horiz-adv-x="1210" 
d="M540 0l-415 1062h109l370 -978l373 978h108l-414 -1062h-131z" />
    <glyph glyph-name="w" unicode="w" horiz-adv-x="1594" 
d="M401 0l-276 1062h106l240 -959l274 846v113h85l300 -959l234 959h105l-274 -1062h-116l-275 868l-282 -868h-121z" />
    <glyph glyph-name="x" unicode="x" horiz-adv-x="1126" 
d="M104 0l401 540l-389 522h116l329 -447l330 447h115l-384 -522l400 -540h-115l-346 469l-343 -469h-114z" />
    <glyph glyph-name="y" unicode="y" horiz-adv-x="1255" 
d="M319 -394q-40 0 -80 4.5t-77 19.5v86q32 -13 66.5 -18.5t70.5 -5.5q63 0 109 30.5t79.5 77t58 102t43.5 104.5l-464 1056h110l406 -943l426 943h107l-462 -1032q-29 -64 -62 -138.5t-78 -138t-106.5 -105.5t-146.5 -42z" />
    <glyph glyph-name="z" unicode="z" horiz-adv-x="1068" 
d="M125 0v72l681 899h-650v91h773v-76l-677 -897h690v-89h-817z" />
    <glyph glyph-name="braceleft" unicode="{" horiz-adv-x="630" 
d="M81 627v83q50 7 80 23.5t47 44.5t22.5 66t5.5 82v427q0 68 14.5 110.5t44.5 66.5t75 32t107 8h50v-89h-26q-49 0 -80 -4t-49 -20t-24.5 -46.5t-6.5 -84.5v-437q0 -37 -7 -71.5t-23 -63.5t-41 -51t-62 -33q37 -11 62 -33.5t41 -52.5t23 -64t7 -72v-437q0 -53 6.5 -83.5
t24.5 -47t49 -20.5t80 -4h26v-89h-50q-62 0 -107 7.5t-75 32t-44.5 67t-14.5 110.5v427q0 44 -5.5 81.5t-22.5 65.5t-47 45.5t-80 23.5z" />
    <glyph glyph-name="bar" unicode="|" horiz-adv-x="356" 
d="M125 -269v1915h105v-1915h-105z" />
    <glyph glyph-name="braceright" unicode="}" horiz-adv-x="630" 
d="M527 627q-48 -6 -79 -23.5t-48 -45.5t-22.5 -65.5t-5.5 -81.5v-427q0 -68 -14.5 -110.5t-44.5 -67t-75.5 -32t-106.5 -7.5h-50v89h27q48 0 79 4t49 20.5t24 47t6 83.5v437q0 38 7.5 72t23.5 64t41 52.5t62 33.5q-37 11 -62 33t-41 51t-23.5 63.5t-7.5 71.5v437
q0 54 -6 84.5t-24 46.5t-49 20t-79 4h-27v89h50q61 0 106.5 -8t75.5 -32t44.5 -66.5t14.5 -110.5v-427q0 -44 5.5 -82t22.5 -66t48 -44.5t79 -23.5v-83z" />
    <glyph glyph-name="asciitilde" unicode="~" horiz-adv-x="1301" 
d="M917 549q-72 0 -136.5 25t-128 55.5t-128.5 55.5t-138 25q-86 0 -148 -34.5t-113 -100.5v111q46 60 116.5 89t144.5 29q77 0 143 -25t128.5 -55.5t125 -55.5t134.5 -25q85 0 146 34t112 101v-112q-45 -60 -114.5 -88.5t-143.5 -28.5z" />
    <glyph glyph-name="uni00A0" unicode="&#xa0;" 
 />
    <glyph glyph-name="exclamdown" unicode="&#xa1;" horiz-adv-x="368" 
d="M125 963v99h117v-99h-117zM132 -381v340q0 197 4 390t10 389h80q5 -196 8.5 -389t3.5 -390v-340h-106z" />
    <glyph glyph-name="cent" unicode="&#xa2;" horiz-adv-x="1074" 
d="M223 531q0 -100 18 -182.5t61 -143.5t115 -98.5t179 -45.5v938q-200 -22 -286.5 -148.5t-86.5 -319.5zM127 531q0 115 28.5 212t86.5 169t146 116.5t208 52.5v173h82v-171q75 -1 137 -12t131 -43v-81q-67 31 -131 43.5t-137 12.5v-944q70 0 137 14.5t131 41.5v-82
q-64 -25 -131 -38.5t-137 -15.5v-172h-82v173q-127 8 -216 49.5t-145 113.5t-82 170t-26 218z" />
    <glyph glyph-name="sterling" unicode="&#xa3;" horiz-adv-x="1130" 
d="M125 0v88q53 0 91.5 6.5t64 25.5t37.5 54t12 95v451h-164v89h164v326q0 83 27.5 144t76.5 102.5t115.5 62.5t143.5 21q55 0 120 -6.5t113 -32.5v-83q-38 21 -98 28.5t-105 7.5q-61 0 -113.5 -13.5t-91.5 -42.5t-60.5 -75t-21.5 -114v-325h488l-3 -89h-485v-447
q0 -50 -11 -101.5t-54 -83.5h634v-88h-880z" />
    <glyph glyph-name="currency" unicode="&#xa4;" horiz-adv-x="1275" 
d="M177 154l-52 65l188 144q-41 50 -61.5 111.5t-20.5 128.5q0 66 20.5 127t61.5 112l-188 144l52 66l191 -150q54 51 123 78.5t145 27.5t145 -27t124 -79l194 150l51 -66l-189 -144q43 -51 62.5 -113t19.5 -126q0 -65 -21 -127t-61 -115l188 -142l-50 -65l-192 146
q-57 -49 -125 -76t-144 -27t-144 27t-126 76zM636 281q66 0 124 26t101 70t68 102.5t25 123.5q0 66 -24.5 124.5t-67.5 102t-101 69.5t-125 26t-124.5 -26t-100 -69.5t-66.5 -102t-24 -124.5q0 -65 24.5 -123.5t67 -102.5t100.5 -70t123 -26z" />
    <glyph glyph-name="yen" unicode="&#xa5;" horiz-adv-x="1348" 
d="M620 0v264h-370v77h370v177h-370v77h338l-463 848h108l442 -808l439 808h110l-467 -848h339v-77h-369v-177h369v-77h-369v-264h-107z" />
    <glyph glyph-name="brokenbar" unicode="&#xa6;" horiz-adv-x="356" 
d="M125 980v666h105v-666h-105zM125 -269v666h105v-666h-105z" />
    <glyph glyph-name="section" unicode="&#xa7;" horiz-adv-x="1235" 
d="M576 -22q-52 0 -105 2t-104.5 9.5t-103.5 19.5t-100 30v92q99 -34 201.5 -50.5t206.5 -16.5q78 0 155.5 11t140 44t100.5 91t38 154q0 116 -65 178.5t-163.5 98t-212 59t-211 59.5t-163 98t-65.5 179q0 36 9 71t28 66q-20 36 -28.5 77.5t-8.5 82.5q0 112 44.5 185
t117 117t165 61.5t187.5 17.5q41 0 91.5 -3t102 -9.5t100.5 -17t89 -24.5v-91q-87 32 -178.5 43.5t-183.5 11.5q-76 0 -153.5 -11t-138.5 -43.5t-99.5 -90t-38.5 -150.5q0 -111 65 -170.5t163.5 -91.5t211.5 -52t211 -54.5t164 -97.5t66 -182q0 -40 -10.5 -80.5t-25.5 -78.5
q18 -38 27 -78t9 -81q0 -118 -46.5 -193t-122.5 -118t-171.5 -58.5t-194.5 -15.5zM1005 594q9 23 12 44.5t3 43.5q0 77 -44 121.5t-113.5 74t-156.5 48.5t-173.5 42t-165.5 54.5t-132 84.5q-9 -19 -12 -37t-3 -39q0 -74 44 -119t114.5 -75t157.5 -51t174.5 -44.5
t165.5 -57.5t129 -90z" />
    <glyph glyph-name="dieresis" unicode="&#xa8;" horiz-adv-x="724" 
d="M492 1279v103h107v-103h-107zM125 1279v103h107v-103h-107z" />
    <glyph glyph-name="copyright" unicode="&#xa9;" horiz-adv-x="1737" 
d="M869 -22q-154 0 -289 58.5t-236 159.5t-160 236.5t-59 288.5q0 154 59 289.5t160 236.5t236 159.5t289 58.5t289.5 -58.5t236.5 -159.5t159.5 -236.5t58.5 -289.5q0 -153 -58.5 -288.5t-159.5 -236.5t-236.5 -159.5t-289.5 -58.5zM869 55q138 0 259 52.5t211 143
t142.5 212t52.5 258.5q0 138 -52.5 259.5t-142.5 211.5t-211 143t-259 53t-259.5 -53t-211.5 -143t-142 -211.5t-52 -259.5q0 -137 52 -258.5t142 -212t211.5 -143t259.5 -52.5zM863 181q-126 0 -223.5 38t-164 107.5t-101 169.5t-34.5 223q0 124 39 223t110 168.5
t171.5 107.5t223.5 38q75 0 147.5 -12.5t140.5 -49.5v-75q-64 32 -133.5 46.5t-140.5 14.5q-107 0 -194.5 -31t-149 -90.5t-95 -145t-33.5 -194.5q0 -227 115.5 -345t343.5 -118q72 0 146 15.5t142 46.5v-76q-71 -36 -150.5 -48.5t-159.5 -12.5z" />
    <glyph glyph-name="ordfeminine" unicode="&#xaa;" horiz-adv-x="778" 
d="M337 851q-40 0 -78.5 9.5t-68 30t-47.5 53t-18 77.5q0 87 48 126.5t117.5 53t146.5 10t134 -3.5v42q0 51 -13 80.5t-37.5 45t-59 19.5t-78.5 4q-47 0 -92 -8t-90 -23v67q47 19 98 25t101 6q55 0 101.5 -10t79.5 -34.5t52 -65t19 -100.5v-390h-72l-6 75
q-47 -48 -108 -68.5t-129 -20.5zM357 916q68 0 120 20.5t94 74.5v133h-212q-66 0 -111 -23t-45 -98q0 -33 14 -54t36 -33t49.5 -16t54.5 -4z" />
    <glyph glyph-name="guillemotleft" unicode="&#xab;" horiz-adv-x="1285" 
d="M1114 201l-557 410v66l557 410l46 -67l-505 -376l505 -376zM682 201l-557 410v66l557 410l47 -67l-504 -376l504 -376z" />
    <glyph glyph-name="logicalnot" unicode="&#xac;" horiz-adv-x="1200" 
d="M980 344v383h-855v87h949v-470h-94z" />
    <glyph glyph-name="uni00AD" unicode="&#xad;" horiz-adv-x="1081" 
d="M125 518v88h831v-88h-831z" />
    <glyph glyph-name="registered" unicode="&#xae;" horiz-adv-x="1737" 
d="M869 -22q-154 0 -289 58.5t-236 159.5t-160 236.5t-59 288.5q0 154 59 289.5t160 236.5t236 159.5t289 58.5t289.5 -58.5t236.5 -159.5t159.5 -236.5t58.5 -289.5q0 -153 -58.5 -288.5t-159.5 -236.5t-236.5 -159.5t-289.5 -58.5zM869 55q137 0 258.5 52t211.5 143
t142.5 212t52.5 259t-52.5 259.5t-142.5 212t-211.5 143t-258.5 52.5t-258.5 -52.5t-211.5 -143t-142.5 -212t-52.5 -259.5t52.5 -259t142.5 -212t211.5 -143t258.5 -52zM526 213v1009h420q159 0 234.5 -78t75.5 -216q0 -124 -57.5 -194.5t-172.5 -91.5q37 -15 55.5 -40
t35.5 -69l138 -320h-82l-134 311q-12 30 -26.5 48.5t-36 30t-53.5 16t-82 4.5h-233v-410h-82zM608 695h309q119 0 188.5 50.5t69.5 182.5q0 124 -58 174.5t-177 50.5h-332v-458z" />
    <glyph glyph-name="macron" unicode="&#xaf;" horiz-adv-x="858" 
d="M122 1272v79h614v-79h-614z" />
    <glyph glyph-name="degree" unicode="&#xb0;" horiz-adv-x="718" 
d="M358 1139q-48 0 -91 18t-74.5 49t-50 73.5t-18.5 91.5q0 99 67 166.5t167 67.5q101 0 168 -66.5t67 -167.5q0 -100 -68 -166t-167 -66zM358 1212q68 0 114.5 45.5t46.5 113.5t-47 114.5t-114 46.5q-68 0 -114 -46.5t-46 -114.5t46 -113.5t114 -45.5z" />
    <glyph glyph-name="plusminus" unicode="&#xb1;" horiz-adv-x="1083" 
d="M493 189v353h-368v88h368v368h95v-368h369v-88h-369v-353h-95zM125 0v88h832v-88h-832z" />
    <glyph glyph-name="uni00B2" unicode="&#xb2;" horiz-adv-x="658" 
d="M125 829v54q24 57 76 105t106 94t95 93t41 103q0 67 -38 92.5t-100 25.5q-41 0 -79.5 -6t-77.5 -20v67q38 14 84.5 21t86.5 7q42 0 80 -11t66 -33t44.5 -55.5t16.5 -79.5q0 -68 -37 -117t-87 -91t-101.5 -84t-77.5 -97h310v-68h-408z" />
    <glyph glyph-name="uni00B3" unicode="&#xb3;" horiz-adv-x="663" 
d="M288 811q-19 0 -40 1.5t-42.5 4.5t-42 8.5t-38.5 11.5v64q38 -13 76 -19.5t77 -6.5q34 0 65 4t55.5 17t39.5 37t15 65q0 48 -25 71.5t-62 33t-78.5 9.5h-74.5l11 60q36 0 74.5 1t70 11.5t51.5 35.5t20 74q0 37 -14 58t-35.5 31.5t-50 14t-58.5 3.5q-38 0 -74 -6t-72 -19
v65q18 6 37.5 10.5t39.5 7.5t40 4.5t39 1.5q44 0 85.5 -6.5t74 -25t51.5 -51.5t19 -86q0 -58 -27 -97.5t-83 -57.5q59 -11 92.5 -47t33.5 -97q0 -57 -21 -92.5t-56.5 -56.5t-80 -29t-92.5 -8z" />
    <glyph glyph-name="acute" unicode="&#xb4;" horiz-adv-x="498" 
d="M125 1169l149 349h99l-164 -349h-84z" />
    <glyph glyph-name="mu" unicode="&#xb5;" horiz-adv-x="1254" 
d="M170 -320v1382h105v-669q0 -167 85 -248t251 -81q108 0 200.5 42.5t167.5 119.5v836h105v-1062h-92l-11 132q-94 -86 -189.5 -120t-221.5 -34q-87 0 -168.5 34t-126.5 112v-444h-105z" />
    <glyph glyph-name="paragraph" unicode="&#xb6;" horiz-adv-x="1349" 
d="M748 -172v739q-130 0 -243.5 22.5t-198 80t-133 154t-48.5 244.5q0 144 43.5 243.5t122 161.5t188.5 89.5t243 27.5h505v-1762h-103v1673h-273v-1673h-103z" />
    <glyph glyph-name="periodcentered" unicode="&#xb7;" horiz-adv-x="355" 
d="M125 585v101h104v-101h-104z" />
    <glyph glyph-name="cedilla" unicode="&#xb8;" horiz-adv-x="701" 
d="M266 -538q-37 0 -77.5 6t-65.5 12v71q65 -18 143 -18q117 0 173 35t56 118q0 80 -52.5 108t-158.5 28h-71l61 178h85l-41 -116q125 0 193 -47.5t68 -146.5q0 -110 -73.5 -169t-239.5 -59z" />
    <glyph glyph-name="uni00B9" unicode="&#xb9;" horiz-adv-x="452" 
d="M291 829v557l-170 -38v67l251 50v-636h-81z" />
    <glyph glyph-name="ordmasculine" unicode="&#xba;" horiz-adv-x="810" 
d="M404 851q-73 0 -126 22t-87 62t-50 96.5t-16 126.5t16 126.5t50 96.5t87 62t126 22q75 0 128.5 -21.5t87 -61.5t49.5 -96.5t16 -127.5t-16 -127.5t-49.5 -96.5t-87 -61.5t-128.5 -21.5zM404 921q119 0 159.5 65t40.5 172t-40.5 172t-159.5 65q-116 0 -158.5 -65.5
t-42.5 -171.5q0 -107 41.5 -172t159.5 -65z" />
    <glyph glyph-name="guillemotright" unicode="&#xbb;" horiz-adv-x="1285" 
d="M603 201l-46 67l504 376l-504 376l46 67l557 -410v-66zM172 201l-47 67l504 376l-504 376l47 67l557 -410v-66z" />
    <glyph glyph-name="onequarter" unicode="&#xbc;" horiz-adv-x="1368" 
d="M295 829v557l-170 -38v67l251 50v-636h-81zM233 0l769 1443h101l-770 -1443h-100zM1095 0v143h-351v69l331 424h98v-427h70v-66h-70v-143h-78zM819 209h288v372z" />
    <glyph glyph-name="onehalf" unicode="&#xbd;" horiz-adv-x="1373" 
d="M295 829v557l-170 -38v67l251 50v-636h-81zM233 0l769 1443h101l-770 -1443h-100zM837 0v54q23 58 76 105.5t106.5 93.5t94.5 93t41 103q0 67 -38.5 92.5t-99.5 25.5q-41 0 -80 -6t-78 -20v68q40 13 85.5 20t85.5 7q43 0 80.5 -11t66 -33t45 -55.5t16.5 -79.5
q0 -68 -37.5 -116.5t-87.5 -91t-100.5 -84.5t-77.5 -97h309v-68h-407z" />
    <glyph glyph-name="threequarters" unicode="&#xbe;" horiz-adv-x="1408" 
d="M288 811q-19 0 -40 1.5t-42.5 4.5t-42 8.5t-38.5 11.5v64q38 -13 76 -19.5t77 -6.5q34 0 65 4t55.5 17t39.5 37t15 65q0 48 -25 71.5t-62 33t-78.5 9.5h-74.5l11 60q36 0 74.5 1t70 11.5t51.5 35.5t20 74q0 37 -14 58t-35.5 31.5t-50 14t-58.5 3.5q-38 0 -74 -6t-72 -19
v65q18 6 37.5 10.5t39.5 7.5t40 4.5t39 1.5q44 0 85.5 -6.5t74 -25t51.5 -51.5t19 -86q0 -58 -27 -97.5t-83 -57.5q59 -11 92.5 -47t33.5 -97q0 -57 -21 -92.5t-56.5 -56.5t-80 -29t-92.5 -8zM272 0l770 1443h101l-771 -1443h-100zM1131 0v143h-350v69l331 424h98v-427h69
v-66h-69v-143h-79zM855 209h289v372z" />
    <glyph glyph-name="questiondown" unicode="&#xbf;" horiz-adv-x="1089" 
d="M689 734v-54q0 -91 -34.5 -154.5t-85.5 -113t-110 -90.5t-110 -87.5t-85 -104t-34 -138.5q0 -88 28.5 -146t78.5 -93t117.5 -49.5t144.5 -14.5q94 0 187 18.5t178 60.5v-93q-84 -47 -186 -62.5t-196 -15.5q-98 0 -181 20.5t-144.5 67.5t-96.5 121t-35 180q0 90 34 153.5
t85.5 113t111 92t110 89.5t85 106.5t34.5 143.5v50h104zM695 1062v-99h-118v99h118z" />
    <glyph glyph-name="Agrave" unicode="&#xc0;" horiz-adv-x="1481" 
d="M697 1541l-164 349h100l148 -349h-84zM125 0l546 1443h142l543 -1443h-108l-162 431h-690l-162 -431h-109zM422 517h637l-319 845z" />
    <glyph glyph-name="Aacute" unicode="&#xc1;" horiz-adv-x="1481" 
d="M688 1541l148 349h100l-164 -349h-84zM125 0l546 1443h142l543 -1443h-108l-162 431h-690l-162 -431h-109zM422 517h637l-319 845z" />
    <glyph glyph-name="Acircumflex" unicode="&#xc2;" horiz-adv-x="1481" 
d="M467 1541l228 294h90l228 -294h-94l-179 233l-178 -233h-95zM125 0l546 1443h142l543 -1443h-108l-162 431h-690l-162 -431h-109zM422 517h637l-319 845z" />
    <glyph glyph-name="Atilde" unicode="&#xc3;" horiz-adv-x="1481" 
d="M435 1604v94q29 36 76 50t91 14q42 0 78 -13t70 -28t68 -28.5t71 -13.5q50 0 89.5 18.5t68.5 59.5v-94q-11 -18 -28.5 -30.5t-37.5 -20t-42 -10.5t-43 -3q-40 0 -76 13t-71 28.5t-69.5 28.5t-70.5 13q-54 0 -96.5 -18.5t-77.5 -59.5zM125 0l546 1443h142l543 -1443h-108
l-162 431h-690l-162 -431h-109zM422 517h637l-319 845z" />
    <glyph glyph-name="Adieresis" unicode="&#xc4;" horiz-adv-x="1481" 
d="M504 1606v103h105v-103h-105zM872 1606v103h104v-103h-104zM125 0l546 1443h142l543 -1443h-108l-162 431h-690l-162 -431h-109zM422 517h637l-319 845z" />
    <glyph glyph-name="Aring" unicode="&#xc5;" horiz-adv-x="1481" 
d="M125 0l534 1411q-66 24 -104.5 81t-38.5 126q0 97 64 161t160 64q98 0 162.5 -63.5t64.5 -161.5q0 -71 -39.5 -127t-105.5 -80l534 -1411h-108l-162 431h-690l-162 -431h-109zM740 1466q68 0 111.5 42t43.5 110t-43.5 111t-111.5 43q-67 0 -110 -43.5t-43 -110.5
q0 -66 43.5 -109t109.5 -43zM422 517h637l-319 845z" />
    <glyph glyph-name="AE" unicode="&#xc6;" horiz-adv-x="1857" 
d="M125 0l546 1443h1062v-90h-708v-587h628v-90h-628v-588h708v-88h-813v431h-522l-162 -431h-111zM429 519h491v834h-177z" />
    <glyph glyph-name="Ccedilla" unicode="&#xc7;" horiz-adv-x="1314" 
d="M734 -538q-37 0 -73.5 4.5t-70.5 13.5v71q35 -9 70 -13.5t72 -4.5q42 0 82.5 5t73 21t53.5 46t21 81q0 58 -28.5 86.5t-71 39.5t-92.5 10.5t-90 -0.5l53 157q-159 6 -274.5 60t-189.5 146t-109 217.5t-35 276.5q0 168 32.5 312t109 249.5t201.5 165t311 59.5
q104 0 208 -13.5t202 -51.5v-94q-95 38 -197 52.5t-204 14.5q-166 0 -273.5 -53t-171.5 -146.5t-88.5 -220.5t-24.5 -274q0 -142 32.5 -255.5t101.5 -192t176 -120t255 -41.5q97 0 199.5 13t194.5 46v-96q-92 -25 -184 -38.5t-188 -16.5l-33 -94q50 0 96.5 -8t83 -31
t59.5 -60t23 -95q0 -71 -26.5 -115t-70.5 -69.5t-99.5 -34.5t-115.5 -9z" />
    <glyph glyph-name="Egrave" unicode="&#xc8;" horiz-adv-x="1209" 
d="M627 1541l-164 349h100l147 -349h-83zM170 0v1443h935v-88h-830v-589h751v-88h-751v-590h830v-88h-935z" />
    <glyph glyph-name="Eacute" unicode="&#xc9;" horiz-adv-x="1209" 
d="M599 1541l149 349h99l-164 -349h-84zM170 0v1443h935v-88h-830v-589h751v-88h-751v-590h830v-88h-935z" />
    <glyph glyph-name="Ecircumflex" unicode="&#xca;" horiz-adv-x="1209" 
d="M360 1541l229 294h89l229 -294h-94l-179 233l-179 -233h-95zM170 0v1443h935v-88h-830v-589h751v-88h-751v-590h830v-88h-935z" />
    <glyph glyph-name="Edieresis" unicode="&#xcb;" horiz-adv-x="1209" 
d="M412 1607v102h105v-102h-105zM780 1607v102h104v-102h-104zM170 0v1443h935v-88h-830v-589h751v-88h-751v-590h830v-88h-935z" />
    <glyph glyph-name="Igrave" unicode="&#xcc;" horiz-adv-x="445" 
d="M178 1541l-164 349h100l148 -349h-84zM170 0v1443h105v-1443h-105z" />
    <glyph glyph-name="Iacute" unicode="&#xcd;" horiz-adv-x="445" 
d="M189 1541l147 349h100l-164 -349h-83zM170 0v1443h105v-1443h-105z" />
    <glyph glyph-name="Icircumflex" unicode="&#xce;" horiz-adv-x="445" 
d="M-51 1541l229 294h89l229 -294h-94l-179 233l-179 -233h-95zM170 0v1443h105v-1443h-105z" />
    <glyph glyph-name="Idieresis" unicode="&#xcf;" horiz-adv-x="445" 
d="M-13 1609v102h105v-102h-105zM354 1609v102h105v-102h-105zM170 0v1443h105v-1443h-105z" />
    <glyph glyph-name="Eth" unicode="&#xd0;" horiz-adv-x="1519" 
d="M281 0v668h-197v85h197v690h537q182 0 294.5 -56t175 -154t84 -232t21.5 -291q0 -156 -23 -286t-87 -224.5t-175.5 -147t-289.5 -52.5h-537zM387 88h405q162 0 260.5 44.5t150.5 126t69 196t17 255.5q0 144 -15 262t-66 202.5t-149.5 131.5t-266.5 47h-405v-600h421v-85
h-421v-580z" />
    <glyph glyph-name="Ntilde" unicode="&#xd1;" horiz-adv-x="1463" 
d="M908 1602q-40 0 -76.5 13t-71 28.5t-69 28t-70.5 12.5q-53 0 -96 -18.5t-78 -58.5v93q28 37 75.5 51t91.5 14q41 0 77 -13t70 -28.5t68.5 -28.5t71.5 -13q50 0 89.5 18.5t69.5 59.5v-94q-13 -18 -30 -30.5t-37 -20t-42 -10.5t-43 -3zM170 0v1443h104l913 -1287v1287h106
v-1443h-105l-913 1286v-1286h-105z" />
    <glyph glyph-name="Ograve" unicode="&#xd2;" horiz-adv-x="1535" 
d="M738 1541l-164 349h100l148 -349h-84zM767 -22q-173 0 -295 54.5t-199 151t-112.5 231t-35.5 294.5q0 168 30.5 307t104.5 239t197.5 155t309.5 55t310 -55t198 -154.5t104 -238.5t30 -308q0 -161 -35 -295.5t-112 -231t-199.5 -150.5t-295.5 -54zM767 70q152 0 255 48.5
t166 134.5t90 202.5t27 253.5q0 145 -22.5 266.5t-82 210t-164 138t-269.5 49.5q-163 0 -267.5 -50t-164.5 -138.5t-82.5 -210t-22.5 -265.5q0 -137 27 -253.5t90 -202.5t165.5 -134.5t254.5 -48.5z" />
    <glyph glyph-name="Oacute" unicode="&#xd3;" horiz-adv-x="1535" 
d="M730 1541l148 349h100l-163 -349h-85zM767 -22q-173 0 -295 54.5t-199 151t-112.5 231t-35.5 294.5q0 168 30.5 307t104.5 239t197.5 155t309.5 55t310 -55t198 -154.5t104 -238.5t30 -308q0 -161 -35 -295.5t-112 -231t-199.5 -150.5t-295.5 -54zM767 70q152 0 255 48.5
t166 134.5t90 202.5t27 253.5q0 145 -22.5 266.5t-82 210t-164 138t-269.5 49.5q-163 0 -267.5 -50t-164.5 -138.5t-82.5 -210t-22.5 -265.5q0 -137 27 -253.5t90 -202.5t165.5 -134.5t254.5 -48.5z" />
    <glyph glyph-name="Ocircumflex" unicode="&#xd4;" horiz-adv-x="1535" 
d="M493 1541l229 294h90l229 -294h-94l-180 233l-179 -233h-95zM767 -22q-173 0 -295 54.5t-199 151t-112.5 231t-35.5 294.5q0 168 30.5 307t104.5 239t197.5 155t309.5 55t310 -55t198 -154.5t104 -238.5t30 -308q0 -161 -35 -295.5t-112 -231t-199.5 -150.5t-295.5 -54z
M767 70q152 0 255 48.5t166 134.5t90 202.5t27 253.5q0 145 -22.5 266.5t-82 210t-164 138t-269.5 49.5q-163 0 -267.5 -50t-164.5 -138.5t-82.5 -210t-22.5 -265.5q0 -137 27 -253.5t90 -202.5t165.5 -134.5t254.5 -48.5z" />
    <glyph glyph-name="Otilde" unicode="&#xd5;" horiz-adv-x="1535" 
d="M923 1605q-39 0 -75.5 13.5t-71.5 29t-69.5 28t-70.5 12.5q-53 0 -96 -18.5t-78 -58.5v93q29 37 76.5 50.5t91.5 13.5q40 0 76.5 -12.5t70.5 -28t68 -28.5t72 -13q49 0 89 18t69 59v-93q-12 -18 -29.5 -31t-37.5 -20t-41.5 -10.5t-43.5 -3.5zM767 -22q-173 0 -295 54.5
t-199 151t-112.5 231t-35.5 294.5q0 168 30.5 307t104.5 239t197.5 155t309.5 55t310 -55t198 -154.5t104 -238.5t30 -308q0 -161 -35 -295.5t-112 -231t-199.5 -150.5t-295.5 -54zM767 70q152 0 255 48.5t166 134.5t90 202.5t27 253.5q0 145 -22.5 266.5t-82 210t-164 138
t-269.5 49.5q-163 0 -267.5 -50t-164.5 -138.5t-82.5 -210t-22.5 -265.5q0 -137 27 -253.5t90 -202.5t165.5 -134.5t254.5 -48.5z" />
    <glyph glyph-name="Odieresis" unicode="&#xd6;" horiz-adv-x="1535" 
d="M531 1607v102h105v-102h-105zM898 1607v102h106v-102h-106zM767 -22q-173 0 -295 54.5t-199 151t-112.5 231t-35.5 294.5q0 168 30.5 307t104.5 239t197.5 155t309.5 55t310 -55t198 -154.5t104 -238.5t30 -308q0 -161 -35 -295.5t-112 -231t-199.5 -150.5t-295.5 -54z
M767 70q152 0 255 48.5t166 134.5t90 202.5t27 253.5q0 145 -22.5 266.5t-82 210t-164 138t-269.5 49.5q-163 0 -267.5 -50t-164.5 -138.5t-82.5 -210t-22.5 -265.5q0 -137 27 -253.5t90 -202.5t165.5 -134.5t254.5 -48.5z" />
    <glyph glyph-name="multiply" unicode="&#xd7;" horiz-adv-x="897" 
d="M715 232l-263 262l-254 -251l-62 62l252 254l-263 260l60 60l260 -263l265 263l62 -62l-263 -265l263 -263z" />
    <glyph glyph-name="Oslash" unicode="&#xd8;" horiz-adv-x="1535" 
d="M395 -119l57 158q-96 45 -160 119t-100.5 163t-51.5 188.5t-15 199.5q0 170 31 309.5t104.5 238t198 153.5t308.5 55q49 0 96 -4.5t93 -14.5l39 106h80l-45 -124q120 -39 193.5 -114.5t115 -173t56 -209t14.5 -222.5q0 -161 -35 -295.5t-112.5 -231.5t-199 -150.5
t-295.5 -53.5q-62 0 -124 8.5t-121 26.5l-46 -132h-81zM486 132l439 1225q-40 8 -78.5 12t-79.5 4q-163 0 -267 -49t-164 -136t-83 -210t-23 -269q0 -82 11 -167t39 -162t78 -141t128 -107zM767 70q152 0 254.5 48.5t166 133.5t90.5 202.5t27 254.5q0 93 -11.5 190t-44 183
t-93 153.5t-160.5 101.5l-440 -1237q51 -17 105 -23.5t106 -6.5z" />
    <glyph glyph-name="Ugrave" unicode="&#xd9;" horiz-adv-x="1478" 
d="M746 1541l-165 349h100l148 -349h-83zM739 -22q-136 0 -243.5 31.5t-182.5 98t-114.5 169.5t-39.5 245v921h105v-939q0 -112 34.5 -194t97.5 -135t150.5 -78.5t192.5 -25.5q108 0 195.5 25t149.5 77.5t96.5 134.5t34.5 196v939h104v-921q0 -143 -39 -246t-113.5 -169.5
t-182 -97.5t-245.5 -31z" />
    <glyph glyph-name="Uacute" unicode="&#xda;" horiz-adv-x="1478" 
d="M682 1541l148 349h99l-163 -349h-84zM739 -22q-136 0 -243.5 31.5t-182.5 98t-114.5 169.5t-39.5 245v921h105v-939q0 -112 34.5 -194t97.5 -135t150.5 -78.5t192.5 -25.5q108 0 195.5 25t149.5 77.5t96.5 134.5t34.5 196v939h104v-921q0 -143 -39 -246t-113.5 -169.5
t-182 -97.5t-245.5 -31z" />
    <glyph glyph-name="Ucircumflex" unicode="&#xdb;" horiz-adv-x="1478" 
d="M465 1541l229 294h90l229 -294h-94l-180 233l-179 -233h-95zM739 -22q-136 0 -243.5 31.5t-182.5 98t-114.5 169.5t-39.5 245v921h105v-939q0 -112 34.5 -194t97.5 -135t150.5 -78.5t192.5 -25.5q108 0 195.5 25t149.5 77.5t96.5 134.5t34.5 196v939h104v-921
q0 -143 -39 -246t-113.5 -169.5t-182 -97.5t-245.5 -31z" />
    <glyph glyph-name="Udieresis" unicode="&#xdc;" horiz-adv-x="1478" 
d="M503 1607v102h105v-102h-105zM870 1607v102h106v-102h-106zM739 -22q-136 0 -243.5 31.5t-182.5 98t-114.5 169.5t-39.5 245v921h105v-939q0 -112 34.5 -194t97.5 -135t150.5 -78.5t192.5 -25.5q108 0 195.5 25t149.5 77.5t96.5 134.5t34.5 196v939h104v-921
q0 -143 -39 -246t-113.5 -169.5t-182 -97.5t-245.5 -31z" />
    <glyph glyph-name="Yacute" unicode="&#xdd;" horiz-adv-x="1383" 
d="M619 1541l149 349h100l-164 -349h-85zM638 0v540l-513 903h109l458 -808l456 808h110l-514 -903v-540h-106z" />
    <glyph glyph-name="Thorn" unicode="&#xde;" horiz-adv-x="1269" 
d="M170 0v1443h105v-283h459q110 0 194.5 -27.5t142 -83t88 -138.5t30.5 -194q0 -107 -34 -188.5t-95 -137t-146 -83.5t-189 -28h-450v-280h-105zM275 368h443q169 0 267.5 88t98.5 261q0 178 -89 266t-266 88h-454v-703z" />
    <glyph glyph-name="germandbls" unicode="&#xdf;" horiz-adv-x="1382" 
d="M820 -22q-79 0 -163.5 9t-158.5 40v91q75 -30 153 -40t157 -10q173 0 258.5 96t85.5 265q0 136 -46 204.5t-123 97.5t-176.5 29.5t-204.5 0.5v85h206q68 0 121.5 21.5t89.5 62t55 96.5t19 126q0 95 -33.5 156.5t-90.5 98t-132 52t-157 15.5q-206 0 -311 -97t-105 -306
v-1071h-105v1080q0 121 37.5 212t106 152.5t164.5 92.5t212 31q101 0 194.5 -22.5t165.5 -71.5t115 -128t43 -193q0 -109 -47.5 -205t-151.5 -141q69 -16 118 -53t79.5 -88t46 -113t15.5 -127q0 -104 -28 -188t-83.5 -141.5t-137 -88t-188.5 -30.5z" />
    <glyph glyph-name="agrave" unicode="&#xe0;" horiz-adv-x="1182" 
d="M606 1169l-163 349h100l147 -349h-84zM494 -22q-73 0 -139.5 15.5t-117.5 51t-81.5 92.5t-30.5 138q0 66 16.5 115.5t46 84t69 56t86.5 34t97.5 17t103.5 4.5h376v120q0 93 -21.5 151t-64 90t-108 43t-152.5 11q-84 0 -166.5 -13.5t-162.5 -42.5v82q41 17 85.5 27.5
t90.5 17.5t92 9.5t89 2.5q100 0 179 -19t132.5 -62.5t81.5 -115.5t28 -179v-708h-87l-11 138q-85 -97 -196.5 -128.5t-234.5 -31.5zM523 58q120 0 218.5 37t178.5 131v280h-411q-60 0 -112 -9.5t-91 -34.5t-61 -69.5t-22 -115.5q0 -67 26 -110t67.5 -67t96 -33t110.5 -9z
" />
    <glyph glyph-name="aacute" unicode="&#xe1;" horiz-adv-x="1182" 
d="M572 1169l148 349h100l-164 -349h-84zM494 -22q-73 0 -139.5 15.5t-117.5 51t-81.5 92.5t-30.5 138q0 66 16.5 115.5t46 84t69 56t86.5 34t97.5 17t103.5 4.5h376v120q0 93 -21.5 151t-64 90t-108 43t-152.5 11q-84 0 -166.5 -13.5t-162.5 -42.5v82q41 17 85.5 27.5
t90.5 17.5t92 9.5t89 2.5q100 0 179 -19t132.5 -62.5t81.5 -115.5t28 -179v-708h-87l-11 138q-85 -97 -196.5 -128.5t-234.5 -31.5zM523 58q120 0 218.5 37t178.5 131v280h-411q-60 0 -112 -9.5t-91 -34.5t-61 -69.5t-22 -115.5q0 -67 26 -110t67.5 -67t96 -33t110.5 -9z
" />
    <glyph glyph-name="acircumflex" unicode="&#xe2;" horiz-adv-x="1182" 
d="M349 1169l228 294h90l228 -294h-94l-179 233l-178 -233h-95zM494 -22q-73 0 -139.5 15.5t-117.5 51t-81.5 92.5t-30.5 138q0 66 16.5 115.5t46 84t69 56t86.5 34t97.5 17t103.5 4.5h376v120q0 93 -21.5 151t-64 90t-108 43t-152.5 11q-84 0 -166.5 -13.5t-162.5 -42.5v82
q41 17 85.5 27.5t90.5 17.5t92 9.5t89 2.5q100 0 179 -19t132.5 -62.5t81.5 -115.5t28 -179v-708h-87l-11 138q-85 -97 -196.5 -128.5t-234.5 -31.5zM523 58q120 0 218.5 37t178.5 131v280h-411q-60 0 -112 -9.5t-91 -34.5t-61 -69.5t-22 -115.5q0 -67 26 -110t67.5 -67
t96 -33t110.5 -9z" />
    <glyph glyph-name="atilde" unicode="&#xe3;" horiz-adv-x="1182" 
d="M786 1230q-41 0 -77.5 12.5t-72 28.5t-69 28.5t-68.5 12.5q-54 0 -97 -18.5t-77 -58.5v93q27 37 74.5 51t92.5 14q41 0 78 -13t70 -28.5t67 -28.5t72 -13q50 0 89 18.5t69 59.5v-94q-25 -38 -67 -51t-84 -13zM494 -22q-73 0 -139.5 15.5t-117.5 51t-81.5 92.5t-30.5 138
q0 66 16.5 115.5t46 84t69 56t86.5 34t97.5 17t103.5 4.5h376v120q0 93 -21.5 151t-64 90t-108 43t-152.5 11q-84 0 -166.5 -13.5t-162.5 -42.5v82q41 17 85.5 27.5t90.5 17.5t92 9.5t89 2.5q100 0 179 -19t132.5 -62.5t81.5 -115.5t28 -179v-708h-87l-11 138
q-85 -97 -196.5 -128.5t-234.5 -31.5zM523 58q120 0 218.5 37t178.5 131v280h-411q-60 0 -112 -9.5t-91 -34.5t-61 -69.5t-22 -115.5q0 -67 26 -110t67.5 -67t96 -33t110.5 -9z" />
    <glyph glyph-name="adieresis" unicode="&#xe4;" horiz-adv-x="1182" 
d="M395 1235v102h105v-102h-105zM763 1235v102h105v-102h-105zM494 -22q-73 0 -139.5 15.5t-117.5 51t-81.5 92.5t-30.5 138q0 66 16.5 115.5t46 84t69 56t86.5 34t97.5 17t103.5 4.5h376v120q0 93 -21.5 151t-64 90t-108 43t-152.5 11q-84 0 -166.5 -13.5t-162.5 -42.5v82
q41 17 85.5 27.5t90.5 17.5t92 9.5t89 2.5q100 0 179 -19t132.5 -62.5t81.5 -115.5t28 -179v-708h-87l-11 138q-85 -97 -196.5 -128.5t-234.5 -31.5zM523 58q120 0 218.5 37t178.5 131v280h-411q-60 0 -112 -9.5t-91 -34.5t-61 -69.5t-22 -115.5q0 -67 26 -110t67.5 -67
t96 -33t110.5 -9z" />
    <glyph glyph-name="aring" unicode="&#xe5;" horiz-adv-x="1182" 
d="M643 1169q-47 0 -88.5 17.5t-71 46.5t-47 70t-17.5 88q0 98 64 161.5t160 63.5q99 0 162.5 -62.5t63.5 -162.5q0 -95 -64.5 -158.5t-161.5 -63.5zM643 1239q66 0 110.5 42.5t44.5 109.5q0 69 -43.5 111.5t-111.5 42.5q-67 0 -109.5 -44t-42.5 -110q0 -65 43 -108.5
t109 -43.5zM494 -22q-73 0 -139.5 15.5t-117.5 51t-81.5 92.5t-30.5 138q0 66 16.5 115.5t46 84t69 56t86.5 34t97.5 17t103.5 4.5h376v120q0 93 -21.5 151t-64 90t-108 43t-152.5 11q-84 0 -166.5 -13.5t-162.5 -42.5v82q41 17 85.5 27.5t90.5 17.5t92 9.5t89 2.5
q100 0 179 -19t132.5 -62.5t81.5 -115.5t28 -179v-708h-87l-11 138q-85 -97 -196.5 -128.5t-234.5 -31.5zM523 58q120 0 218.5 37t178.5 131v280h-411q-60 0 -112 -9.5t-91 -34.5t-61 -69.5t-22 -115.5q0 -67 26 -110t67.5 -67t96 -33t110.5 -9z" />
    <glyph glyph-name="ae" unicode="&#xe6;" horiz-adv-x="1966" 
d="M498 -22q-73 0 -140 15t-119 50.5t-83 92.5t-31 139q0 101 37 162t96.5 94t137.5 44t160 11h364v120q0 93 -20.5 150t-62.5 90t-106 44t-151 11q-86 0 -170.5 -13.5t-164.5 -42.5v82q41 17 85.5 27.5t90.5 17.5t92 9.5t89 2.5q67 0 129.5 -9t113.5 -34t89 -69t56 -115
q61 125 171 176t247 51q101 0 181 -28t136 -82t86 -131.5t30 -180.5v-185h-818q2 -117 32.5 -197.5t88.5 -128.5t144 -69t200 -21q73 0 144.5 14.5t138.5 41.5v-84q-73 -29 -150 -42t-154 -13q-78 0 -151 10t-137 37.5t-114 76t-83 126.5q-38 -71 -90 -118.5t-113.5 -77.5
t-133 -42t-147.5 -12zM1023 558h719v106q0 169 -86 253t-256 84q-106 0 -179 -32.5t-117 -91t-62.5 -140t-18.5 -179.5zM523 58q65 0 134 15.5t126.5 50t95.5 88t41 126.5v168h-411q-60 0 -112 -9.5t-91 -34.5t-61 -69.5t-22 -115.5q0 -67 26 -110t67.5 -67t96 -33t110.5 -9
z" />
    <glyph glyph-name="ccedilla" unicode="&#xe7;" horiz-adv-x="1074" 
d="M551 -538q-36 0 -72.5 4.5t-70.5 13.5v71q35 -9 69.5 -13.5t72.5 -4.5q41 0 82 5t74 21t53.5 46t20.5 81q0 58 -29 86.5t-71.5 39.5t-92 10.5t-89.5 -0.5l55 161q-118 14 -199.5 59.5t-132.5 117.5t-73.5 166t-22.5 205q0 132 35.5 234.5t103.5 173.5t168.5 108t233.5 37
q79 0 144.5 -10.5t138.5 -46.5v-86q-66 30 -130.5 43.5t-136.5 13.5q-114 0 -199.5 -31t-141.5 -90.5t-83.5 -145.5t-27.5 -200q0 -115 24 -202.5t76 -146t136 -88.5t204 -30q73 0 143.5 14.5t135.5 43.5v-89q-75 -31 -153.5 -42.5t-160.5 -12.5l-33 -94q50 0 96.5 -8
t83 -31t59.5 -60t23 -95q0 -71 -26.5 -115t-71 -69.5t-99.5 -34.5t-116 -9z" />
    <glyph glyph-name="egrave" unicode="&#xe8;" horiz-adv-x="1169" 
d="M574 1169l-165 349h100l148 -349h-83zM670 -22q-145 0 -248 34t-169 104.5t-97 175.5t-31 247q0 123 26 223.5t84.5 172t151 110.5t224.5 39q101 0 181 -27.5t136 -81t86.5 -132.5t30.5 -181v-185h-819q7 -116 37.5 -195.5t87.5 -128.5t141.5 -70.5t198.5 -21.5
q73 0 144.5 14.5t138.5 41.5v-84q-73 -29 -149 -42t-155 -13zM226 558h720v106q0 171 -86.5 254t-256.5 83q-107 0 -179.5 -33t-116.5 -91.5t-62.5 -140t-18.5 -178.5z" />
    <glyph glyph-name="eacute" unicode="&#xe9;" horiz-adv-x="1169" 
d="M554 1169l148 349h100l-164 -349h-84zM670 -22q-145 0 -248 34t-169 104.5t-97 175.5t-31 247q0 123 26 223.5t84.5 172t151 110.5t224.5 39q101 0 181 -27.5t136 -81t86.5 -132.5t30.5 -181v-185h-819q7 -116 37.5 -195.5t87.5 -128.5t141.5 -70.5t198.5 -21.5
q73 0 144.5 14.5t138.5 41.5v-84q-73 -29 -149 -42t-155 -13zM226 558h720v106q0 171 -86.5 254t-256.5 83q-107 0 -179.5 -33t-116.5 -91.5t-62.5 -140t-18.5 -178.5z" />
    <glyph glyph-name="ecircumflex" unicode="&#xea;" horiz-adv-x="1169" 
d="M339 1169l229 294h89l229 -294h-94l-180 233l-178 -233h-95zM670 -22q-145 0 -248 34t-169 104.5t-97 175.5t-31 247q0 123 26 223.5t84.5 172t151 110.5t224.5 39q101 0 181 -27.5t136 -81t86.5 -132.5t30.5 -181v-185h-819q7 -116 37.5 -195.5t87.5 -128.5t141.5 -70.5
t198.5 -21.5q73 0 144.5 14.5t138.5 41.5v-84q-73 -29 -149 -42t-155 -13zM226 558h720v106q0 171 -86.5 254t-256.5 83q-107 0 -179.5 -33t-116.5 -91.5t-62.5 -140t-18.5 -178.5z" />
    <glyph glyph-name="edieresis" unicode="&#xeb;" horiz-adv-x="1169" 
d="M374 1235v102h105v-102h-105zM742 1235v102h104v-102h-104zM670 -22q-145 0 -248 34t-169 104.5t-97 175.5t-31 247q0 123 26 223.5t84.5 172t151 110.5t224.5 39q101 0 181 -27.5t136 -81t86.5 -132.5t30.5 -181v-185h-819q7 -116 37.5 -195.5t87.5 -128.5t141.5 -70.5
t198.5 -21.5q73 0 144.5 14.5t138.5 41.5v-84q-73 -29 -149 -42t-155 -13zM226 558h720v106q0 171 -86.5 254t-256.5 83q-107 0 -179.5 -33t-116.5 -91.5t-62.5 -140t-18.5 -178.5z" />
    <glyph glyph-name="igrave" unicode="&#xec;" horiz-adv-x="616" 
d="M342 1169l-163 349h99l148 -349h-84zM340 0v974h-170l4 88h271v-1062h-105z" />
    <glyph glyph-name="iacute" unicode="&#xed;" horiz-adv-x="616" 
d="M320 1169l148 349h101l-164 -349h-85zM340 0v974h-170l4 88h271v-1062h-105z" />
    <glyph glyph-name="icircumflex" unicode="&#xee;" horiz-adv-x="616" 
d="M47 1169l229 294h89l229 -294h-94l-180 233l-178 -233h-95zM340 0v974h-170l4 88h271v-1062h-105z" />
    <glyph glyph-name="idieresis" unicode="&#xef;" horiz-adv-x="616" 
d="M74 1235v102h104v-102h-104zM441 1235v102h105v-102h-105zM340 0v974h-170l4 88h271v-1062h-105z" />
    <glyph glyph-name="eth" unicode="&#xf0;" horiz-adv-x="1273" 
d="M623 -22q-110 0 -201.5 28.5t-157.5 85.5t-102.5 143.5t-36.5 201.5q0 117 34.5 202.5t97.5 141t153.5 82.5t201.5 27q110 0 215.5 -37t193.5 -103v136q0 90 -15 187t-69 174l-299 -131v67l258 112q-54 50 -121.5 69.5t-137.5 19.5q-80 0 -158.5 -9.5t-154.5 -36.5v84
q78 26 158.5 34.5t162.5 8.5q95 0 184 -29.5t155 -101.5l220 97v-67l-180 -80q61 -91 80 -197.5t19 -213.5v-356q0 -129 -27.5 -229t-88 -169t-155.5 -105t-229 -36zM624 60q206 0 301.5 102.5t95.5 304.5v202q-85 66 -185.5 103.5t-207.5 37.5q-191 0 -298 -86.5
t-107 -286.5q0 -192 108 -284.5t293 -92.5z" />
    <glyph glyph-name="ntilde" unicode="&#xf1;" horiz-adv-x="1243" 
d="M809 1230q-39 0 -75.5 13t-71.5 28.5t-69.5 28t-70.5 12.5q-53 0 -96 -18t-79 -59v93q29 37 76.5 51t91.5 14q41 0 77 -13t70.5 -28.5t68.5 -28.5t71 -13q50 0 89.5 18.5t69.5 59.5v-94q-13 -18 -30 -30.5t-37.5 -20t-42 -10.5t-42.5 -3zM170 0v1062h92l11 -132
q99 81 204.5 117.5t233.5 36.5q197 0 285 -91.5t88 -286.5v-706h-105v702q0 88 -18.5 145t-56.5 91t-98 47t-145 13q-109 0 -207.5 -43.5t-178.5 -119.5v-835h-105z" />
    <glyph glyph-name="ograve" unicode="&#xf2;" horiz-adv-x="1250" 
d="M602 1169l-164 349h100l148 -349h-84zM625 -22q-135 0 -230 38.5t-155 110t-87.5 174t-27.5 230.5q0 127 27.5 229.5t87 174.5t154.5 110.5t231 38.5q137 0 232.5 -38t155 -109.5t86.5 -174t27 -231.5q0 -130 -26.5 -233t-86 -174t-155 -108.5t-233.5 -37.5zM625 66
q118 0 194.5 32.5t121.5 92.5t63 146t18 194t-18 194t-62.5 146t-121.5 92.5t-195 32.5q-115 0 -191.5 -33.5t-121.5 -94t-63.5 -146.5t-18.5 -191q0 -107 17.5 -193t62.5 -146.5t121.5 -93t193.5 -32.5z" />
    <glyph glyph-name="oacute" unicode="&#xf3;" horiz-adv-x="1250" 
d="M592 1169l148 349h100l-163 -349h-85zM625 -22q-135 0 -230 38.5t-155 110t-87.5 174t-27.5 230.5q0 127 27.5 229.5t87 174.5t154.5 110.5t231 38.5q137 0 232.5 -38t155 -109.5t86.5 -174t27 -231.5q0 -130 -26.5 -233t-86 -174t-155 -108.5t-233.5 -37.5zM625 66
q118 0 194.5 32.5t121.5 92.5t63 146t18 194t-18 194t-62.5 146t-121.5 92.5t-195 32.5q-115 0 -191.5 -33.5t-121.5 -94t-63.5 -146.5t-18.5 -191q0 -107 17.5 -193t62.5 -146.5t121.5 -93t193.5 -32.5z" />
    <glyph glyph-name="ocircumflex" unicode="&#xf4;" horiz-adv-x="1250" 
d="M342 1169l229 294h90l228 -294h-94l-179 233l-179 -233h-95zM625 -22q-135 0 -230 38.5t-155 110t-87.5 174t-27.5 230.5q0 127 27.5 229.5t87 174.5t154.5 110.5t231 38.5q137 0 232.5 -38t155 -109.5t86.5 -174t27 -231.5q0 -130 -26.5 -233t-86 -174t-155 -108.5
t-233.5 -37.5zM625 66q118 0 194.5 32.5t121.5 92.5t63 146t18 194t-18 194t-62.5 146t-121.5 92.5t-195 32.5q-115 0 -191.5 -33.5t-121.5 -94t-63.5 -146.5t-18.5 -191q0 -107 17.5 -193t62.5 -146.5t121.5 -93t193.5 -32.5z" />
    <glyph glyph-name="otilde" unicode="&#xf5;" horiz-adv-x="1250" 
d="M781 1234q-40 0 -76 13t-71 28.5t-69.5 28t-70.5 12.5q-53 0 -96 -18t-78 -59v93q29 37 76 50.5t91 13.5q42 0 77.5 -12.5t70 -28t68.5 -28.5t71 -13q50 0 89.5 18t69.5 60v-94q-12 -18 -29.5 -30.5t-37.5 -20t-42 -10.5t-43 -3zM625 -22q-135 0 -230 38.5t-155 110
t-87.5 174t-27.5 230.5q0 127 27.5 229.5t87 174.5t154.5 110.5t231 38.5q137 0 232.5 -38t155 -109.5t86.5 -174t27 -231.5q0 -130 -26.5 -233t-86 -174t-155 -108.5t-233.5 -37.5zM625 66q118 0 194.5 32.5t121.5 92.5t63 146t18 194t-18 194t-62.5 146t-121.5 92.5
t-195 32.5q-115 0 -191.5 -33.5t-121.5 -94t-63.5 -146.5t-18.5 -191q0 -107 17.5 -193t62.5 -146.5t121.5 -93t193.5 -32.5z" />
    <glyph glyph-name="odieresis" unicode="&#xf6;" horiz-adv-x="1250" 
d="M389 1235v102h105v-102h-105zM757 1235v102h104v-102h-104zM625 -22q-135 0 -230 38.5t-155 110t-87.5 174t-27.5 230.5q0 127 27.5 229.5t87 174.5t154.5 110.5t231 38.5q137 0 232.5 -38t155 -109.5t86.5 -174t27 -231.5q0 -130 -26.5 -233t-86 -174t-155 -108.5
t-233.5 -37.5zM625 66q118 0 194.5 32.5t121.5 92.5t63 146t18 194t-18 194t-62.5 146t-121.5 92.5t-195 32.5q-115 0 -191.5 -33.5t-121.5 -94t-63.5 -146.5t-18.5 -191q0 -107 17.5 -193t62.5 -146.5t121.5 -93t193.5 -32.5z" />
    <glyph glyph-name="divide" unicode="&#xf7;" horiz-adv-x="1081" 
d="M486 857v111h108v-111h-108zM125 518v88h831v-88h-831zM486 171v111h108v-111h-108z" />
    <glyph glyph-name="oslash" unicode="&#xf8;" horiz-adv-x="1250" 
d="M372 -121l43 126q-88 30 -144 84.5t-88 124t-45 152t-13 165.5q0 128 27 230.5t87 174.5t155.5 110t230.5 38q42 0 85 -4t84 -16l43 119h79l-50 -141q80 -34 130.5 -88.5t79 -122t39.5 -145t11 -155.5q0 -131 -27 -233t-86 -173t-154.5 -109t-233.5 -38q-35 0 -69 2.5
t-67 9.5l-38 -111h-79zM450 93l312 887q-33 9 -67 13t-70 4q-115 0 -191.5 -32.5t-122.5 -93.5t-64.5 -147t-18.5 -193q0 -67 8 -134.5t31 -127.5t67 -106t116 -70zM625 65q118 0 193.5 32.5t122.5 93.5t64.5 147t17.5 193q0 60 -7 122.5t-27.5 120.5t-58 105t-97.5 75
l-311 -881q25 -4 50.5 -6t52.5 -2z" />
    <glyph glyph-name="ugrave" unicode="&#xf9;" horiz-adv-x="1243" 
d="M591 1169l-165 349h100l148 -349h-83zM552 -22q-197 0 -295 110.5t-98 302.5v671h105v-669q0 -169 84.5 -249t251.5 -80q108 0 200.5 42.5t167.5 119.5v836h104v-1062h-91l-11 132q-96 -86 -193.5 -120t-224.5 -34z" />
    <glyph glyph-name="uacute" unicode="&#xfa;" horiz-adv-x="1243" 
d="M551 1169l147 349h101l-164 -349h-84zM552 -22q-197 0 -295 110.5t-98 302.5v671h105v-669q0 -169 84.5 -249t251.5 -80q108 0 200.5 42.5t167.5 119.5v836h104v-1062h-91l-11 132q-96 -86 -193.5 -120t-224.5 -34z" />
    <glyph glyph-name="ucircumflex" unicode="&#xfb;" horiz-adv-x="1243" 
d="M343 1169l229 294h89l229 -294h-94l-180 233l-178 -233h-95zM552 -22q-197 0 -295 110.5t-98 302.5v671h105v-669q0 -169 84.5 -249t251.5 -80q108 0 200.5 42.5t167.5 119.5v836h104v-1062h-91l-11 132q-96 -86 -193.5 -120t-224.5 -34z" />
    <glyph glyph-name="udieresis" unicode="&#xfc;" horiz-adv-x="1243" 
d="M375 1235v102h105v-102h-105zM742 1235v102h105v-102h-105zM552 -22q-197 0 -295 110.5t-98 302.5v671h105v-669q0 -169 84.5 -249t251.5 -80q108 0 200.5 42.5t167.5 119.5v836h104v-1062h-91l-11 132q-96 -86 -193.5 -120t-224.5 -34z" />
    <glyph glyph-name="yacute" unicode="&#xfd;" horiz-adv-x="1255" 
d="M579 1169l147 349h100l-163 -349h-84zM319 -394q-40 0 -80 4.5t-77 19.5v86q32 -13 66.5 -18.5t70.5 -5.5q63 0 109 30.5t79.5 77t58 102t43.5 104.5l-464 1056h110l406 -943l426 943h107l-462 -1032q-29 -64 -62 -138.5t-78 -138t-106.5 -105.5t-146.5 -42z" />
    <glyph glyph-name="thorn" unicode="&#xfe;" horiz-adv-x="1255" 
d="M170 -484v2052h105v-623q82 79 174 109t204 30q135 0 226.5 -41t147 -115.5t79.5 -177t24 -225.5q0 -121 -28.5 -221.5t-88 -173t-152 -112.5t-221.5 -40q-106 0 -192 25t-173 89v-576h-105zM614 64q115 0 194 34.5t127 97t69.5 149.5t21.5 193t-18.5 191t-64 145
t-121.5 92t-191 32q-106 0 -194 -36.5t-162 -111.5v-665q79 -61 158.5 -91t180.5 -30z" />
    <glyph glyph-name="ydieresis" unicode="&#xff;" horiz-adv-x="1255" 
d="M421 1240v103h105v-103h-105zM789 1240v103h104v-103h-104zM319 -394q-40 0 -80 4.5t-77 19.5v86q32 -13 66.5 -18.5t70.5 -5.5q63 0 109 30.5t79.5 77t58 102t43.5 104.5l-464 1056h110l406 -943l426 943h107l-462 -1032q-29 -64 -62 -138.5t-78 -138t-106.5 -105.5
t-146.5 -42z" />
    <glyph glyph-name="uni060C" unicode="&#x60c;" horiz-adv-x="631" 
d="M403.5 26.5q-36.5 -31.5 -89.5 -31.5q-52 0 -88.5 37t-36.5 90v238q2 107 65 182.5t156 88.5l22 3l11 -76l-30 -5q-56 -10 -98 -61t-41 -117v-193q41 27 79.5 25t62.5 -28t24 -67q0 -54 -36.5 -85.5z" />
    <glyph glyph-name="uni0615" unicode="&#x615;" 
d="M61 1590q67 0 111.5 34t44.5 86q0 64 -38.5 112.5t-113.5 48.5q-86 0 -142 -91.5t-85 -189.5h223zM-218 2149h66v-381q91 169 217 169q69 0 118.5 -32t74.5 -84t25 -111q-2 -81 -64.5 -133.5t-157.5 -52.5h-344v66h51q7 25 14 47v512z" />
    <glyph glyph-name="uni0615" unicode="&#xfbc0;" 
d="M61 1590q67 0 111.5 34t44.5 86q0 64 -38.5 112.5t-113.5 48.5q-86 0 -142 -91.5t-85 -189.5h223zM-218 2149h66v-381q91 169 217 169q69 0 118.5 -32t74.5 -84t25 -111q-2 -81 -64.5 -133.5t-157.5 -52.5h-344v66h51q7 25 14 47v512z" />
    <glyph glyph-name="uni0615" unicode="&#xe0bf;" 
d="M61 1590q67 0 111.5 34t44.5 86q0 64 -38.5 112.5t-113.5 48.5q-86 0 -142 -91.5t-85 -189.5h223zM-218 2149h66v-381q91 169 217 169q69 0 118.5 -32t74.5 -84t25 -111q-2 -81 -64.5 -133.5t-157.5 -52.5h-344v66h51q7 25 14 47v512z" />
    <glyph glyph-name="uni061B" unicode="&#x61b;" horiz-adv-x="631" 
d="M403.5 342.5q-36.5 -31.5 -89.5 -31.5q-52 0 -88.5 37t-36.5 90v239q2 106 65 181.5t156 88.5l22 3l11 -76l-30 -5q-56 -10 -98 -61t-41 -117v-193q41 27 79.5 25t62.5 -28t24 -67q0 -54 -36.5 -85.5zM385 0h-136v126h136v-126z" />
    <glyph glyph-name="uni061F" unicode="&#x61f;" horiz-adv-x="1124" 
d="M595 0v101h118v-101h-118zM604 326v48q0 108 -79.5 193t-160.5 147q-112 91 -165.5 166t-53.5 189q0 187 113.5 286t340.5 99q234 0 380 -178l-63 -66q-124 149 -313 149q-352 0 -352 -296q0 -104 50 -167.5t159 -148.5q105 -80 175.5 -163t70.5 -204v-54h-102z" />
    <glyph glyph-name="uni0640" unicode="&#x640;" horiz-adv-x="302" 
d="M302 100v-100h-302q-39 8 -53.5 29t0 42t53.5 29h302z" />
    <glyph glyph-name="uni0640" unicode="&#xe0b5;" horiz-adv-x="302" 
d="M302 100v-100h-302q-39 8 -53.5 29t0 42t53.5 29h302z" />
    <glyph glyph-name="uni0653" unicode="&#x653;" 
d="M-362 28l50 124q31 78 100 125t153 47h425v-75h-425q-61 1 -111 -33t-73 -91l-49 -125z" />
    <glyph glyph-name="uni0653" unicode="&#xe010;" 
d="M-362 28l50 124q31 78 100 125t153 47h425v-75h-425q-61 1 -111 -33t-73 -91l-49 -125z" />
    <glyph glyph-name="uni0654" unicode="&#x654;" 
d="M-213 1790l144 58q-58 21 -94.5 71.5t-37.5 116.5q0 53 26.5 101.5t74 78.5t109.5 30q37 1 65 -8t62 -26q12 -5 17 -8l-16 -59q-8 3 -23 10q-30 14 -53 21t-52 7q-64 0 -105 -45t-41 -102q-1 -54 37 -98t107 -61l206 82v-67l-426 -170v68z" />
    <glyph glyph-name="uni0654" unicode="&#x674;" 
d="M-213 1790l144 58q-58 21 -94.5 71.5t-37.5 116.5q0 53 26.5 101.5t74 78.5t109.5 30q37 1 65 -8t62 -26q12 -5 17 -8l-16 -59q-8 3 -23 10q-30 14 -53 21t-52 7q-64 0 -105 -45t-41 -102q-1 -54 37 -98t107 -61l206 82v-67l-426 -170v68z" />
    <glyph glyph-name="uni0655" unicode="&#x655;" 
d="M-213 -952l144 57q-58 22 -94.5 72.5t-37.5 116.5q0 53 26.5 101.5t74 78.5t109.5 30q37 0 65 -8.5t62 -25.5q12 -6 17 -8l-16 -59q-8 3 -23 10q-30 14 -53 21t-52 7q-64 0 -105.5 -45t-40.5 -102q-1 -54 37 -98t107 -61l206 82v-68l-426 -169v68z" />
    <glyph glyph-name="uni0656" unicode="&#x656;" 
d="M31 -504v-360h-63v360h63z" />
    <glyph glyph-name="uni0656" unicode="&#x8ad;" 
d="M31 -504v-360h-63v360h63z" />
    <glyph glyph-name="uni065A" unicode="&#x65a;" 
d="M-25 1524l-263 302l85 1l203 -231l203 231l85 -1l-263 -302h-50z" />
    <glyph glyph-name="uni065B" unicode="&#x65b;" 
d="M288 1525l-85 -1l-203 231l-203 -231l-85 1l263 302h50z" />
    <glyph glyph-name="uni0660" unicode="&#x660;" horiz-adv-x="574" 
d="M287 600l153 -152l-153 -153l-153 153z" />
    <glyph glyph-name="uni0661" unicode="&#x661;" horiz-adv-x="495" 
d="M231 0v652q0 134 -15.5 300t-44.5 288l-11 50l98 22l11 -49q30 -129 46 -300.5t16 -310.5v-652h-100z" />
    <glyph glyph-name="uni0662" unicode="&#x662;" horiz-adv-x="991" 
d="M398.5 817q47.5 -33 123.5 -23q97 11 153 68.5t59 146.5q2 72 -4.5 128.5t-24.5 147.5q-2 10 -2 15l98 19q20 -109 28 -171t5 -142q-4 -127 -84.5 -211t-214.5 -100q-68 -9 -127 15t-81 68q4 -76 4 -141v-637h-100v652q0 134 -15.5 300t-44.5 288l-11 50l98 22l11 -49
q34 -146 51 -356q31 -57 78.5 -90z" />
    <glyph glyph-name="uni0663" unicode="&#x663;" horiz-adv-x="1476" 
d="M1230.5 801q-84.5 -85 -220.5 -102q-74 -10 -141.5 19.5t-111.5 90.5q-77 -94 -224 -114q-67 -9 -125.5 15t-80.5 67q4 -75 4 -138v-639h-100v652q0 134 -15.5 300t-44.5 288l-11 50l98 22l11 -49q34 -146 51 -356q31 -58 77.5 -90.5t122.5 -22.5q97 11 153 68.5
t59 146.5q2 72 -5 129t-24 147l-3 15l99 19q20 -109 28 -171t5 -142q-1 -57 -25 -108q32 -57 81.5 -82.5t108.5 -17.5q99 12 159 70.5t63 145.5q3 70 -3.5 122.5t-24.5 146.5q-3 14 -4 21l99 19q1 -7 4 -19q18 -100 25 -159t4 -135q-4 -124 -88.5 -209z" />
    <glyph glyph-name="uni0664" unicode="&#x664;" horiz-adv-x="1018" 
d="M354 1167q70 79 164 117.5t192 38.5q65 0 113 -15l-8 -98q-62 16 -105 16q-74 0 -148 -28.5t-131 -90.5t-76 -156q-22 -112 47 -180q46 -47 123.5 -63t173.5 4l77 15l20 -95l-78 -16q-15 -3 -32.5 -0.5t-44.5 9.5q-39 9 -56 9q-119 -5 -199.5 39.5t-113 123.5t-13.5 175
q25 116 95 195zM483 0q-90 0 -166 44.5t-120.5 120.5t-44.5 166q0 78 34 146.5t94.5 115.5t137.5 63l359 71l19 -95l-359 -71q-83 -17 -136 -83t-52 -150q1 -63 32.5 -116t85 -84t116.5 -31h383l-1 -97h-382z" />
    <glyph glyph-name="uni0665" unicode="&#x665;" horiz-adv-x="1368" 
d="M650 -6q-233 0 -361.5 126.5t-128.5 396.5q0 204 60.5 386.5t179 296t284.5 113.5t284.5 -113.5t179 -296t60.5 -386.5q0 -270 -128.5 -396.5t-361.5 -126.5h-68zM453.5 1115q-96.5 -101 -146 -261.5t-49.5 -336.5q0 -86 14 -158.5t55 -133.5t120.5 -97.5t202.5 -36.5h68
q123 0 202.5 36.5t120.5 97.5t55.5 133.5t14.5 158.5q0 177 -49.5 337t-146.5 261t-231 101t-230.5 -101z" />
    <glyph glyph-name="uni0666" unicode="&#x666;" horiz-adv-x="1204" 
d="M821 355.5q-44 208.5 -26.5 432t99.5 421.5q-238 -62 -407 -46t-331 87l36 89q103 -45 208 -66.5t244 -11t317 65.5l57 -70q-97 -178 -123 -405t14.5 -443.5t132.5 -366.5l-82 -50q-95 155 -139 363.5z" />
    <glyph glyph-name="uni0667" unicode="&#x667;" horiz-adv-x="1270" 
d="M930 850.5q-98 -224.5 -166 -452.5t-78 -402h-103q-10 174 -78 402t-166 452.5t-212 427.5l85 45q142 -244 256.5 -534.5t166.5 -597.5q51 307 165.5 597.5t257.5 534.5l84 -45q-114 -203 -212 -427.5z" />
    <glyph glyph-name="uni0668" unicode="&#x668;" horiz-adv-x="1213" 
d="M1058 -8q-143 246 -257.5 535t-165.5 596q-52 -307 -166 -596t-257 -535l-85 44q114 203 214 432.5t166 453t76 397.5l103 -1q10 -173 78 -401.5t166 -453t212 -427.5z" />
    <glyph glyph-name="uni0669" unicode="&#x669;" horiz-adv-x="1074" 
d="M810 909q0 78 -33.5 151t-96 119t-144.5 46q-74 0 -137.5 -38t-101.5 -102t-38 -138q-1 -79 37.5 -142t103.5 -95.5t141 -23.5q2 1 6 1q77 10 138 29t125 71v122zM684 613q-60 -17 -136 -26q-106 -12 -195.5 33t-141.5 132.5t-51 194.5q0 100 51.5 187t138 138.5
t186.5 51.5q111 0 196 -59.5t130.5 -155t45.5 -199.5v-910h-100v675q-64 -45 -124 -62z" />
    <glyph glyph-name="uni066A" unicode="&#x66a;" horiz-adv-x="1236" 
d="M208 23l750 1252l71 -36l-751 -1253zM295.5 1151.5q22.5 -22.5 22.5 -54.5t-22.5 -54.5t-54.5 -22.5t-54.5 22.5t-22.5 54.5t22.5 54.5t54.5 22.5t54.5 -22.5zM1050 219.5q22 -22.5 22 -54.5t-22 -54.5t-54 -22.5q-33 0 -55 22.5t-22 54.5t22 54.5t55 22.5q32 0 54 -22.5
z" />
    <glyph glyph-name="uni066B" unicode="&#x66b;" horiz-adv-x="583" 
d="M0 -375l351 772l68 -30l-351 -773z" />
    <glyph glyph-name="uni066C" unicode="&#x66c;" horiz-adv-x="461" 
d="M89 -159l33 18q49 27 75 81.5t26 122.5v183h74v-183q0 -92 -36.5 -162.5t-102.5 -106.5l-34 -18z" />
    <glyph glyph-name="uni066D" unicode="&#x66d;" horiz-adv-x="1344" 
d="M672 1143l121 -368h387l-313 -230l121 -367l-316 227l-316 -227l121 367l-313 230h387z" />
    <glyph glyph-name="uni066E" unicode="&#x66e;" horiz-adv-x="1821" 
d="M276.5 279q27.5 -81 93 -130t149.5 -49h797q67 0 123.5 33t89.5 89.5t33 123.5v312h96v-320q0 -92 -46 -169.5t-124.5 -123t-171.5 -45.5h-797q-112 0 -202.5 63.5t-130.5 172t-9 234.5l52 203l95 -28l-52 -194q-23 -91 4.5 -172z" />
    <glyph glyph-name="uni066F" unicode="&#x66f;" horiz-adv-x="1662" 
d="M1404 387q0 127 -65.5 221t-205.5 94q-126 0 -199.5 -88.5t-73.5 -226.5q0 -145 67 -216t206 -71h271v287zM706 -549q-218 0 -331 79t-169 213t-56 279q1 177 29.5 281t63.5 194l90 -39q-28 -65 -57.5 -165.5t-29.5 -261.5q1 -188 95 -335t365 -148h202q237 0 366 119
t130 333h-277q-179 0 -270 98.5t-91 289.5q0 126 48 216t129.5 141t189.5 51q163 0 263.5 -113t100.5 -295v-379q0 -169 -69.5 -292t-199.5 -194.5t-320 -71.5h-202z" />
    <glyph glyph-name="uni066F" unicode="&#x8bc;" horiz-adv-x="1662" 
d="M1404 387q0 127 -65.5 221t-205.5 94q-126 0 -199.5 -88.5t-73.5 -226.5q0 -145 67 -216t206 -71h271v287zM706 -549q-218 0 -331 79t-169 213t-56 279q1 177 29.5 281t63.5 194l90 -39q-28 -65 -57.5 -165.5t-29.5 -261.5q1 -188 95 -335t365 -148h202q237 0 366 119
t130 333h-277q-179 0 -270 98.5t-91 289.5q0 126 48 216t129.5 141t189.5 51q163 0 263.5 -113t100.5 -295v-379q0 -169 -69.5 -292t-199.5 -194.5t-320 -71.5h-202z" />
    <glyph glyph-name="uni0670" unicode="&#x670;" 
d="M31 2086v-360h-63v360h63z" />
    <glyph glyph-name="uni0695" unicode="&#x695;" horiz-adv-x="690" 
d="M-38 -440l49 10q118 22 213.5 85.5t151 159t55.5 207.5v636h96v-641q0 -138 -66.5 -253t-182 -191.5t-258.5 -102.5l-40 -8zM279 -1165l-263 302l85 1l203 -231l203 231l85 -1l-263 -302h-50z" />
    <glyph glyph-name="uni06A1" unicode="&#x6a1;" horiz-adv-x="1912" 
d="M1635.5 296.5q29.5 104.5 29.5 226.5q0 95 -41 164.5t-106.5 105.5t-135.5 36q-74 1 -139 -39t-104.5 -106.5t-38.5 -141.5q0 -83 49 -170.5t149 -149.5t244 -68q64 38 93.5 142.5zM518 100h528q336 0 388 12q-150 12 -246 83t-139 165t-43 180q-1 102 51 190t139 140.5
t186 51.5q98 0 184.5 -50t139.5 -141t53 -208q0 -235 -91 -379t-268 -144h-881zM276.5 279q27.5 -81 93 -130t149.5 -49v-100q-112 0 -202.5 63.5t-130.5 172t-9 234.5l52 203l95 -28l-53 -194q-22 -91 5.5 -172z" />
    <glyph glyph-name="uni06A1" unicode="&#x8bb;" horiz-adv-x="1912" 
d="M1635.5 296.5q29.5 104.5 29.5 226.5q0 95 -41 164.5t-106.5 105.5t-135.5 36q-74 1 -139 -39t-104.5 -106.5t-38.5 -141.5q0 -83 49 -170.5t149 -149.5t244 -68q64 38 93.5 142.5zM518 100h528q336 0 388 12q-150 12 -246 83t-139 165t-43 180q-1 102 51 190t139 140.5
t186 51.5q98 0 184.5 -50t139.5 -141t53 -208q0 -235 -91 -379t-268 -144h-881zM276.5 279q27.5 -81 93 -130t149.5 -49v-100q-112 0 -202.5 63.5t-130.5 172t-9 234.5l52 203l95 -28l-53 -194q-22 -91 5.5 -172z" />
    <glyph glyph-name="uni06AA" unicode="&#x6aa;" horiz-adv-x="2112" 
d="M526 0q-93 0 -171.5 46.5t-124.5 126t-46 173.5v301h96v-305q0 -67 33 -122.5t89.5 -87.5t123.5 -32h1059q68 0 124.5 32t89.5 87.5t33 122.5t-33.5 123.5t-90 89.5t-123.5 33h-765l-36 79l559 684l74 -61l-496 -606h664q93 0 171.5 -46t124.5 -124.5t46 -171.5
t-46 -171.5t-124.5 -124.5t-171.5 -46h-1059z" />
    <glyph glyph-name="uni06B5" unicode="&#x6b5;" horiz-adv-x="1619" 
d="M706 -549q-218 0 -331 79t-169 213t-56 279q1 151 38 268t72 207l90 -39q-28 -65 -66 -178.5t-38 -249.5q1 -187 95 -332.5t365 -146.5h167q120 0 220 60.5t160 170.5t60 275v1432h97v-1431q1 -184 -71 -319.5t-196.5 -211.5t-269.5 -76h-167zM1302 1743l-263 302l85 1
l203 -231l203 231l85 -1l-263 -302h-50z" />
    <glyph glyph-name="uni06C2" unicode="&#x6c2;" horiz-adv-x="1035" 
d="M333 581.5q-85 -118.5 -85 -234.5q0 -81 39.5 -140.5t102.5 -90.5t130 -31q68 0 131 30.5t102.5 90t39.5 141.5q0 90 -67.5 207t-199.5 241q-108 -95 -193 -213.5zM378 921l60 74l39 -31q201 -164 305.5 -323.5t104.5 -292.5q0 -110 -52.5 -191t-137 -123t-177.5 -42
t-177.5 43.5t-136.5 124.5t-52 188q0 100 59 205.5t129.5 184t116.5 116.5zM258 1282l144 58q-58 21 -94.5 71.5t-37.5 116.5q0 53 26.5 101.5t74 78.5t109.5 30q37 1 65 -8t62 -26q12 -5 17 -8l-16 -59q-8 3 -23 10q-30 14 -53 21t-52 7q-64 0 -105 -45t-41 -102
q-1 -54 37 -98t107 -61l206 82v-67l-426 -170v68z" />
    <glyph glyph-name="uni06C3" unicode="&#x6c3;" horiz-adv-x="1035" 
d="M333 581.5q-85 -118.5 -85 -234.5q0 -81 39.5 -140.5t102.5 -90.5t130 -31q68 0 131 30.5t102.5 90t39.5 141.5q0 90 -67.5 207t-199.5 241q-108 -95 -193 -213.5zM378 921l60 74l39 -31q201 -164 305.5 -323.5t104.5 -292.5q0 -110 -52.5 -191t-137 -123t-177.5 -42
t-177.5 43.5t-136.5 124.5t-52 188q0 100 59 205.5t129.5 184t116.5 116.5zM266 1219v125h155v-125h-155zM583 1219v126h155v-126h-155z" />
    <glyph glyph-name="uni06CE" unicode="&#x6ce;" horiz-adv-x="1625" 
d="M867 -452q190 0 339 88t169 258q14 112 -39 158.5t-171 51.5l-411 21l16 322q11 159 110 260.5t255 101.5h300v-96h-299q-114 0 -186.5 -77t-81.5 -190l-15 -233l324 -16q158 -7 239 -78.5t55 -228.5q-32 -200 -200.5 -319.5t-404.5 -119.5h-154q-217 0 -330 79t-168 213
t-55 279q0 177 28 281t63 193l90 -38q-28 -65 -56.5 -165.5t-28.5 -262.5q0 -188 93.5 -334.5t363.5 -147.5h155zM186 727l-263 302l85 1l203 -231l203 231l85 -1l-263 -302h-50z" />
    <glyph glyph-name="uni06D4" unicode="&#x6d4;" horiz-adv-x="755" 
d="M668 -75h-581v75h581v-75z" />
    <glyph glyph-name="uni06F0" unicode="&#x6f0;" horiz-adv-x="1005" 
d="M197.5 651q47.5 81 128.5 128t177 47q95 0 176 -47t128.5 -128t47.5 -177t-47.5 -177t-128.5 -128t-176 -47q-96 0 -177 47t-128.5 128t-47.5 177t47.5 177zM277 343.5q35 -59.5 95 -94.5t131 -35q70 0 130 35t95 94.5t35 130.5t-35 130.5t-94.5 94.5t-129.5 35
q-71 1 -131 -34.5t-95.5 -95.5t-35.5 -130q0 -71 35 -130.5z" />
    <glyph glyph-name="uni06F1" unicode="&#x6f1;" horiz-adv-x="495" 
d="M231 0v652q0 134 -15.5 300t-44.5 288l-11 50l98 22l11 -49q30 -129 46 -300.5t16 -310.5v-652h-100z" />
    <glyph glyph-name="uni06F2" unicode="&#x6f2;" horiz-adv-x="991" 
d="M398.5 817q47.5 -33 123.5 -23q97 11 153 68.5t59 146.5q2 72 -4.5 128.5t-24.5 147.5q-2 10 -2 15l98 19q20 -109 28 -171t5 -142q-4 -127 -84.5 -211t-214.5 -100q-68 -9 -127 15t-81 68q4 -76 4 -141v-637h-100v652q0 134 -15.5 300t-44.5 288l-11 50l98 22l11 -49
q34 -146 51 -356q31 -57 78.5 -90z" />
    <glyph glyph-name="uni06F3" unicode="&#x6f3;" horiz-adv-x="1476" 
d="M1230.5 801q-84.5 -85 -220.5 -102q-74 -10 -141.5 19.5t-111.5 90.5q-77 -94 -224 -114q-67 -9 -125.5 15t-80.5 67q4 -75 4 -138v-639h-100v652q0 134 -15.5 300t-44.5 288l-11 50l98 22l11 -49q34 -146 51 -356q31 -58 77.5 -90.5t122.5 -22.5q97 11 153 68.5
t59 146.5q2 72 -5 129t-24 147l-3 15l99 19q20 -109 28 -171t5 -142q-1 -57 -25 -108q32 -57 81.5 -82.5t108.5 -17.5q99 12 159 70.5t63 145.5q3 70 -3.5 122.5t-24.5 146.5q-3 14 -4 21l99 19q1 -7 4 -19q18 -100 25 -159t4 -135q-4 -124 -88.5 -209z" />
    <glyph glyph-name="uni06F4" unicode="&#x6f4;" horiz-adv-x="1344" 
d="M633 714q-56 34 -90 91.5t-33 141.5q0 109 48 195.5t132.5 135.5t190.5 49q109 0 214 -63l-34 -89q-98 53 -184 52q-124 -5 -197 -82t-75 -199q0 -95 43 -151t104 -78.5t122 -23.5q147 1 301 115l33 -87q-155 -128 -334 -128q-240 0 -365.5 55.5t-181.5 136.5
q4 -77 4 -143v-642h-100v652q0 134 -15.5 300t-44.5 288l-11 50l98 22l11 -49q32 -137 48 -335q97 -177 316 -214z" />
    <glyph glyph-name="uni06F5" unicode="&#x6f5;" horiz-adv-x="1418" 
d="M625 1302q11 -10 34 -29q159 -134 255 -223.5t178.5 -196t130 -232t47.5 -271.5q0 -94 -44.5 -175t-119 -129.5t-160.5 -48.5q-75 0 -139 34.5t-103 94.5q-37 -62 -100 -95.5t-149 -33.5q-87 0 -157.5 46.5t-110.5 127.5t-40 179q0 140 71 287t190 277.5t260 226.5
q-21 16 -65 50q-26 21 -40 31zM1051 130.5q52 32.5 85.5 90.5t33.5 129q0 145 -52.5 269t-144 232.5t-229.5 227.5q-134 -90 -247 -212.5t-181 -257.5t-68 -259q0 -72 27 -129.5t74 -90.5t106 -33q102 0 161.5 60.5t59.5 172.5v91h92v-78q1 -58 -16 -114q25 -59 78 -95
t116 -36q53 0 105 32.5z" />
    <glyph glyph-name="uni06F6" unicode="&#x6f6;" horiz-adv-x="1065" 
d="M694 721.5q93 30.5 170 95.5l64 -75q-93 -78 -194 -197.5t-196 -265.5t-168 -299l-89 42q78 160 161.5 283t220.5 307q15 21 23 31q-94 -41 -182 -41q-84 0 -164.5 35t-134 112.5t-53.5 197.5q1 109 49 195.5t132.5 135.5t189.5 49q53 1 113 -15.5t108 -47.5l-33 -89
q-96 53 -191 52q-124 -5 -197 -82t-75 -199q0 -95 43 -151.5t104 -79.5t123 -24q83 0 176 30.5z" />
    <glyph glyph-name="uni06F7" unicode="&#x6f7;" horiz-adv-x="1269" 
d="M930 850.5q-98 -224.5 -166 -452.5t-78 -402h-103q-10 174 -78 402t-166 452.5t-212 427.5l85 45q142 -244 256.5 -534.5t166.5 -597.5q51 307 165.5 597.5t257.5 534.5l84 -45q-114 -203 -212 -427.5z" />
    <glyph glyph-name="uni06F8" unicode="&#x6f8;" horiz-adv-x="1213" 
d="M1058 -8q-143 246 -257.5 535t-165.5 596q-52 -307 -166 -596t-257 -535l-85 44q114 203 214 432.5t166 453t76 397.5l103 -1q10 -173 78 -401.5t166 -453t212 -427.5z" />
    <glyph glyph-name="uni06F9" unicode="&#x6f9;" horiz-adv-x="1074" 
d="M810 909q0 78 -33.5 151t-96 119t-144.5 46q-74 0 -137.5 -38t-101.5 -102t-38 -138q-1 -79 37.5 -142t103.5 -95.5t141 -23.5q2 1 6 1q77 10 138 29t125 71v122zM684 613q-60 -17 -136 -26q-106 -12 -195.5 33t-141.5 132.5t-51 194.5q0 100 51.5 187t138 138.5
t186.5 51.5q111 0 196 -59.5t130.5 -155t45.5 -199.5v-910h-100v675q-64 -45 -124 -62z" />
    <glyph glyph-name="uni2009" unicode="&#x2009;" horiz-adv-x="102" 
 />
    <glyph glyph-name="uni200A" unicode="&#x200a;" horiz-adv-x="102" 
 />
    <glyph glyph-name="uni200B" unicode="&#x200b;" 
 />
    <glyph glyph-name="uni200C" unicode="&#x200c;" 
 />
    <glyph glyph-name="uni200D" unicode="&#x200d;" 
 />
    <glyph glyph-name="uni200E" unicode="&#x200e;" 
 />
    <glyph glyph-name="uni200F" unicode="&#x200f;" 
 />
    <glyph glyph-name="uni2010" unicode="&#x2010;" horiz-adv-x="1149" 
d="M125 518v88h900v-88h-900z" />
    <glyph glyph-name="figuredash" unicode="&#x2012;" horiz-adv-x="1390" 
d="M125 518v88h1140v-88h-1140z" />
    <glyph glyph-name="endash" unicode="&#x2013;" horiz-adv-x="1324" 
d="M125 518v88h1074v-88h-1074z" />
    <glyph glyph-name="emdash" unicode="&#x2014;" horiz-adv-x="2008" 
d="M125 518v88h1758v-88h-1758z" />
    <glyph glyph-name="uni2015" unicode="&#x2015;" horiz-adv-x="2117" 
d="M125 518v88h1868v-88h-1868z" />
    <glyph glyph-name="quoteleft" unicode="&#x2018;" horiz-adv-x="459" 
d="M125 1090l127 375h82l-102 -375h-107z" />
    <glyph glyph-name="quoteright" unicode="&#x2019;" horiz-adv-x="459" 
d="M125 1090l102 375h107l-128 -375h-81z" />
    <glyph glyph-name="quotesinglbase" unicode="&#x201a;" horiz-adv-x="459" 
d="M125 -301l102 375h107l-128 -375h-81z" />
    <glyph glyph-name="quotedblleft" unicode="&#x201c;" horiz-adv-x="731" 
d="M401 1090l127 375h77l-101 -375h-103zM125 1090l127 375h78l-102 -375h-103z" />
    <glyph glyph-name="quotedblright" unicode="&#x201d;" horiz-adv-x="731" 
d="M401 1090l102 375h102l-126 -375h-78zM125 1090l101 375h104l-128 -375h-77z" />
    <glyph glyph-name="quotedblbase" unicode="&#x201e;" horiz-adv-x="731" 
d="M125 -276l102 375h103l-127 -375h-78zM401 -276l102 375h102l-127 -375h-77z" />
    <glyph glyph-name="dagger" unicode="&#x2020;" horiz-adv-x="1232" 
d="M565 0l4 1009l-444 -5v89l444 -4l-5 479h106l-6 -479l443 4v-89l-443 5l5 -1009h-104z" />
    <glyph glyph-name="daggerdbl" unicode="&#x2021;" horiz-adv-x="1232" 
d="M565 0l4 471l-444 -4v88l444 -4q-3 58 -3.5 115.5t-0.5 117.5t0.5 117t3.5 116l-444 -4v88l444 -4l-5 471h106l-6 -471l443 4v-88l-443 4q3 -59 4 -116t1 -117t-1 -117.5t-4 -115.5l443 4v-88l-443 4l5 -471h-104z" />
    <glyph glyph-name="bullet" unicode="&#x2022;" horiz-adv-x="762" 
d="M380 388q-51 0 -98 20t-81.5 55t-55 81.5t-20.5 98.5q0 55 20.5 102.5t56 81.5t83.5 53.5t103 19.5q56 0 102 -21t79 -58t51 -85t18 -102q0 -52 -21.5 -96.5t-57.5 -78t-82 -52.5t-97 -19z" />
    <glyph glyph-name="ellipsis" unicode="&#x2026;" horiz-adv-x="1193" 
d="M963 0v101h105v-101h-105zM125 0v101h104v-101h-104zM545 0v101h103v-101h-103z" />
    <glyph glyph-name="perthousand" unicode="&#x2030;" horiz-adv-x="2222" 
d="M422 833q-143 0 -220 80t-77 223q0 148 70 238.5t227 90.5q158 0 228 -90.5t70 -238.5q0 -143 -77 -223t-221 -80zM332 0l771 1443h101l-771 -1443h-101zM422 910q116 0 166 57t50 170t-46 182.5t-170 69.5t-170 -69.5t-46 -182.5q0 -109 52 -168t164 -59zM1120 -22
q-144 0 -220.5 79.5t-76.5 222.5q0 147 69.5 237.5t227.5 90.5q157 0 227 -90.5t70 -237.5q0 -144 -77 -223t-220 -79zM1800 -22q-144 0 -220.5 79.5t-76.5 222.5q0 147 69.5 237.5t227.5 90.5q157 0 227 -90.5t70 -237.5q0 -143 -76.5 -222.5t-220.5 -79.5zM1120 54
q115 0 166 57t51 170q0 112 -46.5 181.5t-170.5 69.5q-125 0 -171 -69.5t-46 -181.5q0 -110 52.5 -168.5t164.5 -58.5zM1800 54q115 0 166 57t51 170q0 112 -46.5 181.5t-170.5 69.5t-170.5 -69.5t-46.5 -181.5q0 -110 52.5 -168.5t164.5 -58.5z" />
    <glyph glyph-name="minute" unicode="&#x2032;" horiz-adv-x="357" 
d="M125 1081v362h106l-25 -362h-81z" />
    <glyph glyph-name="second" unicode="&#x2033;" horiz-adv-x="649" 
d="M417 1081v362h106l-25 -362h-81zM125 1081v362h106l-25 -362h-81z" />
    <glyph glyph-name="guilsinglleft" unicode="&#x2039;" horiz-adv-x="854" 
d="M682 201l-557 410v66l557 410l47 -67l-504 -376l504 -376z" />
    <glyph glyph-name="guilsinglright" unicode="&#x203a;" horiz-adv-x="854" 
d="M172 201l-47 67l504 376l-504 376l47 67l557 -410v-66z" />
    <glyph glyph-name="fraction" unicode="&#x2044;" horiz-adv-x="253" 
d="M-278 0l705 1483h104l-704 -1483h-105z" />
    <glyph glyph-name="Euro" unicode="&#x20ac;" horiz-adv-x="1298" 
d="M808 -22q-116 0 -211 28t-166.5 84.5t-119 142.5t-69.5 203h-143v75h132v335h-128v75h134q18 127 59 228.5t110.5 171t170 107t235.5 37.5q49 0 98 -3t97 -11t95.5 -20t92.5 -31v-94q-45 19 -91 31.5t-92.5 21t-94 11.5t-96.5 3q-115 0 -198.5 -30t-141 -87.5t-91 -142
t-47.5 -192.5h591v-75h-599v-335h596v-75h-585q20 -97 61 -166t101 -113.5t139 -65.5t177 -21q48 0 94.5 3.5t92 10.5t90.5 18t90 26v-95q-47 -14 -94 -24.5t-95 -17.5t-96 -10t-98 -3z" />
    <glyph glyph-name="approxequal" unicode="&#x2248;" horiz-adv-x="1098" 
d="M756 615q-54 0 -104.5 18.5t-100.5 40.5t-101 40.5t-108 18.5q-75 0 -122 -22t-95 -79v101q41 52 98 67.5t119 15.5q59 0 111 -18.5t101 -40.5t99 -40.5t105 -18.5q75 0 120.5 22t93.5 79v-101q-41 -52 -97 -67.5t-119 -15.5zM756 315q-54 0 -104.5 18.5t-100.5 40.5
t-101 40.5t-108 18.5q-75 0 -122 -22t-95 -79v101q41 51 98 67.5t119 16.5q59 0 111 -18.5t101 -41t99 -41t105 -18.5q75 0 120.5 22t93.5 79v-102q-41 -51 -97 -66.5t-119 -15.5z" />
    <glyph glyph-name="notequal" unicode="&#x2260;" horiz-adv-x="1094" 
d="M347 102l97 276h-319v86h348l72 203h-420v84h450l96 272h91l-96 -272h303v-84h-332l-72 -203h404v-86h-434l-97 -276h-91z" />
    <glyph glyph-name="lessequal" unicode="&#x2264;" horiz-adv-x="1221" 
d="M1096 186l-971 451v81l971 451v-99l-863 -392l863 -393v-99zM125 0v83h971v-83h-971z" />
    <glyph glyph-name="greaterequal" unicode="&#x2265;" horiz-adv-x="1221" 
d="M125 186v99l862 393l-862 392v99l971 -451v-81zM125 0v83h971v-83h-971z" />
    <glyph glyph-name="uniE000" unicode="&#xe000;" 
d="M-219 -112v112q71 -1 141 0q1 -56 0 -112h-141zM78 -112q-1 56 0 112h141v-112h-141zM-71 -322v109h142v-109h-142z" />
    <glyph glyph-name="uniE002" unicode="&#xe002;" horiz-adv-x="654" 
d="M149 100q67 0 123.5 33t89.5 89.5t33 123.5v312h96v-320q0 -92 -46 -169.5t-124.5 -123t-171.5 -45.5h-149q-39 8 -53.5 29t0 42t53.5 29h149z" />
    <glyph glyph-name="uniE003" unicode="&#xe003;" horiz-adv-x="808" 
d="M166 100q67 0 123.5 33t89.5 89.5t33 123.5v312h96v-312q0 -67 33 -123.5t89.5 -89.5t123.5 -33h54v-100h-54q-99 0 -178 53t-116 140q-38 -87 -116.5 -140t-177.5 -53h-166q-39 8 -53.5 29t0 42t53.5 29h166z" />
    <glyph glyph-name="uE004" unicode="&#xe004;" horiz-adv-x="744" 
d="M239 100q67 0 123.5 33t89.5 89.5t33 123.5v312h96v-320q0 -92 -46 -169.5t-124.5 -123t-171.5 -45.5h-239q-39 8 -53.5 29t0 42t53.5 29h239z" />
    <glyph glyph-name="uE005" unicode="&#xe005;" horiz-adv-x="864" 
d="M239 100q67 0 123.5 33t89.5 89.5t33 123.5v312h96v-312q0 -67 33 -123.5t89.5 -89.5t123.5 -33h37v-100h-37q-99 0 -177.5 53t-116.5 140q-38 -87 -116.5 -140t-177.5 -53h-239q-39 8 -53.5 29t0 42t53.5 29h239z" />
    <glyph glyph-name="uniE006" unicode="&#xe006;" horiz-adv-x="921" 
d="M416 100q67 0 123.5 33t89.5 89.5t33 123.5v312h96v-320q0 -92 -46 -169.5t-124.5 -123t-171.5 -45.5h-416q-39 8 -53.5 29t0 42t53.5 29h416z" />
    <glyph glyph-name="uniE007" unicode="&#xe007;" horiz-adv-x="1042" 
d="M400 100q67 0 123.5 33t90 89.5t33.5 123.5l-1 312h96v-312q0 -67 33 -123.5t89.5 -89.5t123.5 -33h54v-100h-54q-99 0 -177.5 53t-116.5 140q-37 -87 -115.5 -140t-178.5 -53h-400q-39 8 -53.5 29t0 42t53.5 29h400z" />
    <glyph glyph-name="uniE021" unicode="&#xe021;" horiz-adv-x="1882" 
d="M503.5 55q-1.5 30 14.5 45h813q67 0 123.5 33t89.5 89.5t33 123.5v1166h96v-1174q0 -92 -46 -169.5t-124.5 -123t-171.5 -45.5h-812q-14 25 -15.5 55zM276.5 279q27.5 -81 93 -130t149.5 -49v-100q-112 0 -202.5 63.5t-130.5 172t-9 234.5l52 203l95 -28l-53 -194
q-22 -91 5.5 -172z" />
    <glyph glyph-name="uniE022" unicode="&#xe022;" horiz-adv-x="1997" 
d="M505.5 45.5q0.5 31.5 12.5 54.5h813q67 0 123.5 33t89.5 89.5t33 123.5v1166h96v-1166q0 -67 33 -123.5t89.5 -89.5t123.5 -33h78v-100h-78q-99 0 -177.5 53t-116.5 140q-37 -87 -116 -140t-178 -53h-812q-14 14 -13.5 45.5zM276.5 279q27.5 -81 93 -130t149.5 -49v-100
q-112 0 -202.5 63.5t-130.5 172t-9 234.5l52 203l95 -28l-53 -194q-22 -91 5.5 -172z" />
    <glyph glyph-name="uE024" unicode="&#xe024;" horiz-adv-x="874" 
d="M654 50q-81 50 -127 133v-168q-1 -137 -67 -252t-181.5 -191t-258.5 -102l-40 -8l-18 98l49 10q118 22 213.5 85.5t151 159t55.5 207.5v636h96v-269q4 -79 45.5 -145.5t110 -105t148.5 -38.5h42v-100h-42q-96 0 -177 50zM280 -1165l-263 302l85 1l203 -231l203 231l85 -1
l-263 -302h-50z" />
    <glyph glyph-name="uE025" unicode="&#xe025;" horiz-adv-x="676" 
d="M170 100q67 0 123.5 33t90 89.5t33.5 123.5v312h95v-320q0 -92 -46 -169.5t-124.5 -123t-171.5 -45.5h-170q-39 8 -53.5 29t0 42t53.5 29h170zM301 1016q67 0 111.5 34t44.5 86q0 64 -38.5 112.5t-113.5 48.5q-86 0 -142 -91.5t-85 -189.5h223zM22 1575h66v-381
q91 169 217 169q69 0 118.5 -32t74.5 -84t25 -111q-2 -81 -64.5 -133.5t-157.5 -52.5h-344v66h51q7 25 14 47v512z" />
    <glyph glyph-name="uE026" unicode="&#xe026;" horiz-adv-x="813" 
d="M170 100q67 0 123.5 33t90 89.5t33.5 123.5v312h95v-312q0 -67 33 -123.5t90 -89.5t124 -33h54v-100h-54q-100 0 -178.5 53t-116.5 140q-37 -87 -115.5 -140t-178.5 -53h-170q-39 8 -53.5 29t0 42t53.5 29h170zM300 1016q67 0 111.5 34t44.5 86q0 64 -38.5 112.5
t-113.5 48.5q-86 0 -142 -91.5t-85 -189.5h223zM21 1575h66v-381q91 169 217 169q69 0 118.5 -32t74.5 -84t25 -111q-2 -81 -64.5 -133.5t-157.5 -52.5h-344v66h51q7 25 14 47v512z" />
    <glyph glyph-name="uE027" unicode="&#xe027;" horiz-adv-x="1720" 
d="M713 -549q-218 0 -331 79t-168 213t-55 279q0 177 28 281t63 193l90 -38q-28 -65 -56.5 -165.5t-28.5 -262.5q0 -188 93 -334t363 -148h229q172 0 303.5 75t131.5 241q0 60 -36.5 99.5t-88.5 40.5h-446v96h915v-100h-312q62 -51 62 -134q-1 -114 -59.5 -204t-178 -150.5
t-291.5 -60.5h-227zM187 727l-263 302l85 1l203 -231l203 231l85 -1l-263 -302h-50z" />
    <glyph glyph-name="uE028" unicode="&#xe028;" horiz-adv-x="676" 
d="M170 100q67 0 123.5 33t90 89.5t33.5 123.5v312h95v-320q0 -92 -46 -169.5t-124.5 -123t-171.5 -45.5h-170q-39 8 -53.5 29t0 42t53.5 29h170zM-149 -534v126q79 -1 155 0v-126h-155zM168 -533v125h155v-125h-155zM367 939l-263 302l85 1l203 -231l203 231l85 -1
l-263 -302h-50z" />
    <glyph glyph-name="uE029" unicode="&#xe029;" horiz-adv-x="813" 
d="M170 100q67 0 123.5 33t90 89.5t33.5 123.5v312h95v-312q0 -67 33 -123.5t90 -89.5t124 -33h54v-100h-54q-100 0 -178.5 53t-116.5 140q-37 -87 -115.5 -140t-178.5 -53h-170q-39 8 -53.5 29t0 42t53.5 29h170zM-149 -534v126q79 -1 155 0v-126h-155zM168 -533v125h155
v-125h-155zM385 917l-263 302l85 1l203 -231l203 231l85 -1l-263 -302h-50z" />
    <glyph glyph-name="uniFEEA0654" unicode="&#xe030;" horiz-adv-x="1198" 
d="M634.5 90.5q-123.5 -32.5 -232 -10t-177.5 94.5t-75 182q-9 155 54.5 278t201.5 193t344 67l-28 184l96 13l118 -806q12 -80 73 -132.5t142 -53.5h49v-100h-49q-97 1 -175 58t-110 152q-108 -87 -231.5 -119.5zM465.5 755.5q-119.5 -54.5 -174.5 -155.5t-48 -235
q8 -102 94.5 -158.5t225.5 -39t277 127.5l-75 509q-180 6 -299.5 -48.5zM259 1221l144 58q-58 21 -94.5 71.5t-37.5 116.5q0 53 26.5 101.5t74 78.5t109.5 30q37 1 65 -8t62 -26q12 -5 17 -8l-16 -59q-8 3 -23 10q-30 14 -53 21t-52 7q-64 0 -105 -45t-41 -102
q-1 -54 37 -98t107 -61l206 82v-67l-426 -170v68z" />
    <glyph glyph-name="uE060_uFBB5" unicode="&#xe032;" horiz-adv-x="794" 
d="M288 100q67 0 123.5 33t89.5 89.5t33 123.5v312h96v-320q0 -92 -46 -169.5t-124.5 -123t-171.5 -45.5h-288q-39 8 -53.5 29t0 42t53.5 29h288zM63 -534v126q79 -1 155 0v-126h-155zM380 -533v125h155v-125h-155z" />
    <glyph glyph-name="uE061_uFBB5" unicode="&#xe033;" horiz-adv-x="973" 
d="M331 100q67 0 123.5 33t89.5 89.5t33 123.5v312h96v-312q0 -67 33 -123.5t89.5 -89.5t123.5 -33h54v-100h-54q-99 0 -177.5 53t-116.5 140q-38 -87 -116.5 -140t-177.5 -53h-331q-39 8 -53.5 29t0 42t53.5 29h331zM91 -534v126q79 -1 155 0v-126h-155zM408 -533v125h155
v-125h-155z" />
    <glyph glyph-name="uniE006_uFBB5" unicode="&#xe034;" horiz-adv-x="921" 
d="M416 100q67 0 123.5 33t89.5 89.5t33 123.5v312h96v-320q0 -92 -46 -169.5t-124.5 -123t-171.5 -45.5h-416q-39 8 -53.5 29t0 42t53.5 29h416zM-16 -534v126q79 -1 155 0v-126h-155zM301 -533v125h155v-125h-155z" />
    <glyph glyph-name="uniE007_uFBB5" unicode="&#xe035;" horiz-adv-x="1043" 
d="M400 100q67 0 123.5 33t90 89.5t33.5 123.5l-1 312h96v-312q0 -67 33 -123.5t89.5 -89.5t123.5 -33h54v-100h-54q-99 0 -177.5 53t-116.5 140q-37 -87 -115.5 -140t-178.5 -53h-400q-39 8 -53.5 29t0 42t53.5 29h400zM26 -534v126q79 -1 155 0v-126h-155zM343 -533v125
h155v-125h-155z" />
    <glyph glyph-name="uE060_uFBB9" unicode="&#xe036;" horiz-adv-x="794" 
d="M288 100q67 0 123.5 33t89.5 89.5t33 123.5v312h96v-320q0 -92 -46 -169.5t-124.5 -123t-171.5 -45.5h-288q-39 8 -53.5 29t0 42t53.5 29h288zM63 -449v126q79 -1 155 0v-126h-155zM380 -448v125h155v-125h-155zM222 -749v122h154v-122h-154z" />
    <glyph glyph-name="uE061_uFBB9" unicode="&#xe037;" horiz-adv-x="973" 
d="M331 100q67 0 123.5 33t89.5 89.5t33 123.5v312h96v-312q0 -67 33 -123.5t89.5 -89.5t123.5 -33h54v-100h-54q-99 0 -177.5 53t-116.5 140q-38 -87 -116.5 -140t-177.5 -53h-331q-39 8 -53.5 29t0 42t53.5 29h331zM88 -449v126q79 -1 155 0v-126h-155zM405 -448v125h155
v-125h-155zM247 -749v122h154v-122h-154z" />
    <glyph glyph-name="uniE006_uFBB9" unicode="&#xe038;" horiz-adv-x="921" 
d="M416 100q67 0 123.5 33t89.5 89.5t33 123.5v312h96v-320q0 -92 -46 -169.5t-124.5 -123t-171.5 -45.5h-416q-39 8 -53.5 29t0 42t53.5 29h416zM-12 -449v126q79 -1 155 0v-126h-155zM305 -448v125h155v-125h-155zM147 -749v122h154v-122h-154z" />
    <glyph glyph-name="uniE007_uFBB9" unicode="&#xe039;" horiz-adv-x="1043" 
d="M400 100q67 0 123.5 33t90 89.5t33.5 123.5l-1 312h96v-312q0 -67 33 -123.5t89.5 -89.5t123.5 -33h54v-100h-54q-99 0 -177.5 53t-116.5 140q-37 -87 -115.5 -140t-178.5 -53h-400q-39 8 -53.5 29t0 42t53.5 29h400zM-12 -449v126q79 -1 155 0v-126h-155zM305 -448v125
h155v-125h-155zM147 -749v122h154v-122h-154z" />
    <glyph glyph-name="uE2C3_uFBB3" unicode="&#xe040;" horiz-adv-x="681" 
d="M175 100q67 0 123.5 33t90 89.5t33.5 123.5v312h95v-320q0 -92 -46 -169.5t-124.5 -123t-171.5 -45.5h-175q-39 8 -53.5 29t0 42t53.5 29h175zM65 -533v125h160v-125h-160z" />
    <glyph glyph-name="uE2C4_uFBB3" unicode="&#xe041;" horiz-adv-x="817" 
d="M175 100q67 0 123.5 33t90 89.5t33.5 123.5l-1 312h96v-312q0 -67 33 -123.5t90 -89.5t124 -33h54v-100h-54q-100 0 -178.5 53t-116.5 140q-37 -87 -115.5 -140t-178.5 -53h-175q-39 8 -53.5 29t0 42t53.5 29h175zM65 -533v125h160v-125h-160z" />
    <glyph glyph-name="uniFBE8FBB4" unicode="&#xe042;" horiz-adv-x="676" 
d="M170 100q67 0 123.5 33t90 89.5t33.5 123.5v312h95v-320q0 -92 -46 -169.5t-124.5 -123t-171.5 -45.5h-170q-39 8 -53.5 29t0 42t53.5 29h170zM36 979v125h155v-125h-155zM353 979v126h155v-126h-155z" />
    <glyph glyph-name="uniFBE9FBB4" unicode="&#xe043;" horiz-adv-x="813" 
d="M170 100q67 0 123.5 33t90 89.5t33.5 123.5v312h95v-312q0 -67 33 -123.5t90 -89.5t124 -33h54v-100h-54q-100 0 -178.5 53t-116.5 140q-37 -87 -115.5 -140t-178.5 -53h-170q-39 8 -53.5 29t0 42t53.5 29h170zM36 979v125h155v-125h-155zM353 979v126h155v-126h-155z
" />
    <glyph glyph-name="uniFBE8FBB6" unicode="&#xe044;" horiz-adv-x="676" 
d="M170 100q67 0 123.5 33t90 89.5t33.5 123.5v312h95v-320q0 -92 -46 -169.5t-124.5 -123t-171.5 -45.5h-170q-39 8 -53.5 29t0 42t53.5 29h170zM36 979v125h155v-125h-155zM353 979v126h155v-126h-155zM195 1278v122h154v-122h-154z" />
    <glyph glyph-name="uniFBE9FBB6" unicode="&#xe045;" horiz-adv-x="813" 
d="M170 100q67 0 123.5 33t90 89.5t33.5 123.5v312h95v-312q0 -67 33 -123.5t90 -89.5t124 -33h54v-100h-54q-100 0 -178.5 53t-116.5 140q-37 -87 -115.5 -140t-178.5 -53h-170q-39 8 -53.5 29t0 42t53.5 29h170zM36 979v125h155v-125h-155zM353 979v126h155v-126h-155z
M195 1278v122h154v-122h-154z" />
    <glyph glyph-name="uE046" unicode="&#xe046;" horiz-adv-x="794" 
d="M288 100q67 0 123.5 33t89.5 89.5t33 123.5v312h96v-320q0 -92 -46 -169.5t-124.5 -123t-171.5 -45.5h-288q-39 8 -53.5 29t0 42t53.5 29h288zM63 -534v126q79 -1 155 0v-126h-155zM380 -533v125h155v-125h-155zM457 939l-263 302l85 1l203 -231l203 231l85 -1l-263 -302
h-50z" />
    <glyph glyph-name="uE047" unicode="&#xe047;" horiz-adv-x="922" 
d="M416 100q67 0 123.5 33t89.5 89.5t33 123.5v312h96v-320q0 -92 -46 -169.5t-124.5 -123t-171.5 -45.5h-416q-39 8 -53.5 29t0 42t53.5 29h416zM-16 -534v126q79 -1 155 0v-126h-155zM301 -533v125h155v-125h-155zM636 923l-263 302l85 1l203 -231l203 231l85 -1
l-263 -302h-50z" />
    <glyph glyph-name="uniE054" unicode="&#xe054;" 
d="M-205 64q167 -3 258 31t91 123l-1 56h-233q-19 0 -35 16.5t-16 36.5v98q0 54 27.5 100.5t74 73.5t99.5 27h134v-61h-134q-57 0 -98.5 -41.5t-41.5 -98.5v-93l284 1l1 -117q0 -102 -93.5 -159.5t-316.5 -55.5v63z" />
    <glyph glyph-name="uE055" unicode="&#xe055;" 
d="M117 1387q67 0 111.5 34t44.5 86q0 64 -38.5 112.5t-113.5 48.5q-83 0 -136.5 -84t-91.5 -189q-2 -6 -3 -8h227zM-62 1631.5q68 102.5 182 102.5q70 0 119.5 -32t74.5 -84t25 -111q0 -52 -29 -95t-80 -67t-113 -24h-246q-51 0 -100 40t-79.5 102.5t-30.5 125.5v33h66v-33
q0 -53 30.5 -106.5t69.5 -74.5q43 121 111 223.5z" />
    <glyph glyph-name="farsiyeharab.fina.1" unicode="&#xe056;" horiz-adv-x="1543" 
d="M713 -549q-218 0 -331 79t-168 213t-55 279q0 177 28 281t63 193l90 -38q-28 -65 -56.5 -165.5t-28.5 -262.5q0 -188 93 -334t363 -148h229q172 0 303.5 75t131.5 241q0 60 -36.5 99.5t-88.5 40.5h-446v96h739v-100h-136q62 -51 62 -134q-1 -114 -59.5 -204t-178 -150.5
t-291.5 -60.5h-227z" />
    <glyph glyph-name="yeharab.fina.1" unicode="&#xe057;" horiz-adv-x="1543" 
d="M713 -549q-218 0 -331 79t-168 213t-55 279q0 177 28 281t63 193l90 -38q-28 -65 -56.5 -165.5t-28.5 -262.5q0 -188 93 -334t363 -148h229q172 0 303.5 75t131.5 241q0 60 -36.5 99.5t-88.5 40.5h-446v96h739v-100h-136q62 -51 62 -134q-1 -114 -59.5 -204t-178 -150.5
t-291.5 -60.5h-227zM538 -962v126q79 -1 155 0v-126h-155zM855 -961v125h155v-125h-155z" />
    <glyph glyph-name="farsiyeharab_u0654" unicode="&#xe058;" horiz-adv-x="1543" 
d="M713 -549q-218 0 -331 79t-168 213t-55 279q0 177 28 281t63 193l90 -38q-28 -65 -56.5 -165.5t-28.5 -262.5q0 -188 93 -334t363 -148h229q172 0 303.5 75t131.5 241q0 60 -36.5 99.5t-88.5 40.5h-446v96h739v-100h-136q62 -51 62 -134q-1 -114 -59.5 -204t-178 -150.5
t-291.5 -60.5h-227zM105 777l144 58q-58 21 -94.5 71.5t-37.5 116.5q0 53 26.5 101.5t74 78.5t109.5 30q37 1 65 -8t62 -26q12 -5 17 -8l-16 -59q-8 3 -23 10q-30 14 -53 21t-52 7q-64 0 -105 -45t-41 -102q-1 -54 37 -98t107 -61l206 82v-67l-426 -170v68z" />
    <glyph glyph-name="uE059" unicode="&#xe059;" horiz-adv-x="1042" 
d="M400 100q67 0 123.5 33t90 89.5t33.5 123.5l-1 312h96v-312q0 -67 33 -123.5t89.5 -89.5t123.5 -33h54v-100h-54q-99 0 -177.5 53t-116.5 140q-37 -87 -115.5 -140t-178.5 -53h-400q-39 8 -53.5 29t0 42t53.5 29h400zM26 -534v126q79 -1 155 0v-126h-155zM343 -533v125
h155v-125h-155zM569 917l-263 302l85 1l203 -231l203 231l85 -1l-263 -302h-50z" />
    <glyph glyph-name="uE060" unicode="&#xe060;" horiz-adv-x="794" 
d="M288 100q67 0 123.5 33t89.5 89.5t33 123.5v312h96v-320q0 -92 -46 -169.5t-124.5 -123t-171.5 -45.5h-288q-39 8 -53.5 29t0 42t53.5 29h288z" />
    <glyph glyph-name="uE061" unicode="&#xe061;" horiz-adv-x="973" 
d="M331 100q67 0 123.5 33t89.5 89.5t33 123.5v312h96v-312q0 -67 33 -123.5t89.5 -89.5t123.5 -33h54v-100h-54q-99 0 -177.5 53t-116.5 140q-38 -87 -116.5 -140t-177.5 -53h-331q-39 8 -53.5 29t0 42t53.5 29h331z" />
    <glyph glyph-name="uE062" unicode="&#xe062;" horiz-adv-x="973" 
d="M331 100q67 0 123.5 33t89.5 89.5t33 123.5v312h96v-312q0 -67 33 -123.5t89.5 -89.5t123.5 -33h54v-100h-54q-99 0 -177.5 53t-116.5 140q-38 -87 -116.5 -140t-177.5 -53h-331q-39 8 -53.5 29t0 42t53.5 29h331zM91 -534v126q79 -1 155 0v-126h-155zM408 -533v125h155
v-125h-155zM500 917l-263 302l85 1l203 -231l203 231l85 -1l-263 -302h-50z" />
    <glyph glyph-name="uE066" unicode="&#xe066;" horiz-adv-x="1465" 
d="M213 918q-28 112 25 206.5t163 129.5q107 29 201 -18.5t135 -151.5l126 -346l324 541l82 -49l-376 -627l-87 8l-159 440q-28 71 -93 101.5t-137 6.5q-66 -24 -98.5 -86.5t-14.5 -129.5l250 -918l-93 -25z" />
    <glyph glyph-name="uE067" unicode="&#xe067;" horiz-adv-x="1267" 
d="M202 141q5 240 120.5 484t232 401.5t192.5 241.5l71 -64v-1q-62 -69 -173.5 -218t-224.5 -380t-122 -454q149 -54 329.5 -51t361.5 64l46 14l30 -90l-45 -15q-196 -65 -398.5 -68.5t-373.5 62.5z" />
    <glyph glyph-name="uniE069" unicode="&#xe069;" horiz-adv-x="692" 
d="M52 100q67 0 123.5 33t89.5 89.5t33 123.5v861h96v-861q0 -67 33 -123.5t89.5 -89.5t123.5 -33h52v-100h-52q-99 0 -177.5 53t-116.5 140q-37 -87 -116 -140t-178 -53h-52q-39 8 -53.5 29t0 42t53.5 29h52z" />
    <glyph glyph-name="uE070" unicode="&#xe070;" horiz-adv-x="826" 
d="M321 100q67 0 123.5 33t89.5 89.5t33 123.5v312h96v-320q0 -92 -46 -169.5t-124.5 -123t-171.5 -45.5h-321q-39 8 -53.5 29t0 42t53.5 29h321zM-141 -449v126q79 -1 155 0v-126h-155zM176 -448v125h155v-125h-155zM18 -749v122h154v-122h-154z" />
    <glyph glyph-name="uE071" unicode="&#xe071;" horiz-adv-x="946" 
d="M321 100q67 0 123.5 33t89.5 89.5t33 123.5v312h96v-312q0 -67 33 -123.5t89.5 -89.5t123.5 -33h37v-100h-37q-99 0 -178 53t-116 140q-38 -87 -116.5 -140t-177.5 -53h-321q-39 8 -53.5 29t0 42t53.5 29h321zM-158 -449v126q79 -1 155 0v-126h-155zM159 -448v125h155
v-125h-155zM1 -749v122h154v-122h-154z" />
    <glyph glyph-name="uE072" unicode="&#xe072;" horiz-adv-x="826" 
d="M321 100q67 0 123.5 33t89.5 89.5t33 123.5v312h96v-320q0 -92 -46 -169.5t-124.5 -123t-171.5 -45.5h-321q-39 8 -53.5 29t0 42t53.5 29h321zM-141 -534v126q79 -1 155 0v-126h-155zM176 -533v125h155v-125h-155z" />
    <glyph glyph-name="uE073" unicode="&#xe073;" horiz-adv-x="946" 
d="M321 100q67 0 123.5 33t89.5 89.5t33 123.5v312h96v-312q0 -67 33 -123.5t89.5 -89.5t123.5 -33h37v-100h-37q-99 0 -178 53t-116 140q-38 -87 -116.5 -140t-177.5 -53h-321q-39 8 -53.5 29t0 42t53.5 29h321zM-158 -534v126q79 -1 155 0v-126h-155zM159 -533v125h155
v-125h-155z" />
    <glyph glyph-name="uE074" unicode="&#xe074;" horiz-adv-x="827" 
d="M321 100q67 0 123.5 33t89.5 89.5t33 123.5v312h96v-320q0 -92 -46 -169.5t-124.5 -123t-171.5 -45.5h-321q-39 8 -53.5 29t0 42t53.5 29h321zM-141 -534v126q79 -1 155 0v-126h-155zM176 -533v125h155v-125h-155zM489 947l-263 302l85 1l203 -231l203 231l85 -1
l-263 -302h-50z" />
    <glyph glyph-name="uE075" unicode="&#xe075;" horiz-adv-x="946" 
d="M321 100q67 0 123.5 33t89.5 89.5t33 123.5v312h96v-312q0 -67 33 -123.5t89.5 -89.5t123.5 -33h37v-100h-37q-99 0 -178 53t-116 140q-38 -87 -116.5 -140t-177.5 -53h-321q-39 8 -53.5 29t0 42t53.5 29h321zM-158 -534v126q79 -1 155 0v-126h-155zM159 -533v125h155
v-125h-155zM472 926l-263 302l85 1l203 -231l203 231l85 -1l-263 -302h-50z" />
    <glyph glyph-name="uE076" unicode="&#xe076;" horiz-adv-x="826" 
d="M321 100q67 0 123.5 33t89.5 89.5t33 123.5v312h96v-320q0 -92 -46 -169.5t-124.5 -123t-171.5 -45.5h-321q-39 8 -53.5 29t0 42t53.5 29h321z" />
    <glyph glyph-name="uE077" unicode="&#xe077;" horiz-adv-x="946" 
d="M321 100q67 0 123.5 33t89.5 89.5t33 123.5v312h96v-312q0 -67 33 -123.5t89.5 -89.5t123.5 -33h37v-100h-37q-99 0 -178 53t-116 140q-38 -87 -116.5 -140t-177.5 -53h-321q-39 8 -53.5 29t0 42t53.5 29h321z" />
    <glyph glyph-name="uE078" unicode="&#xe078;" horiz-adv-x="1854" 
d="M1576.5 296.5q29.5 104.5 29.5 226.5q0 95 -41 164.5t-106 105.5t-136 36q-73 1 -138.5 -39t-104.5 -106.5t-39 -141.5q0 -83 49.5 -170.5t149 -149.5t243.5 -68q64 38 93.5 142.5zM506 0q-93 0 -171.5 45.5t-124.5 123t-46 169.5v285h95v-277q0 -67 33.5 -123.5
t90 -89.5t123.5 -33h479q339 0 390 12q-150 12 -246 83t-138.5 165t-43.5 180q0 102 51.5 190t138.5 140.5t186 51.5q98 0 184.5 -50t139.5 -141t53 -208q0 -235 -91 -379t-268 -144h-835z" />
    <glyph glyph-name="uE079" unicode="&#xe079;" horiz-adv-x="1114" 
d="M836.5 296.5q29.5 104.5 29.5 226.5q0 95 -41 164.5t-106 105.5t-136 36q-73 1 -138.5 -39t-104.5 -106.5t-39 -141.5q1 -83 50 -170.5t149 -149.5t243 -68q64 38 93.5 142.5zM-53.5 29q-14.5 21 0 42t53.5 29h240q342 0 395 12q-150 12 -246 83t-138.5 165t-43.5 180
q0 102 52 190t138.5 140.5t185.5 51.5q98 0 185 -50t139.5 -141t52.5 -208q0 -235 -90.5 -379t-267.5 -144h-602q-39 8 -53.5 29z" />
    <glyph glyph-name="uE080" unicode="&#xe080;" horiz-adv-x="801" 
d="M-54 -461l176 34q117 22 213 85.5t151.5 159t55.5 207.5v633h96v-638q0 -138 -66.5 -253t-182 -191.5t-259.5 -102.5l-166 -31z" />
    <glyph glyph-name="uE081" unicode="&#xe081;" horiz-adv-x="985" 
d="M764.5 50q-81.5 50 -126.5 134v-169q-1 -137 -68 -251t-182 -189.5t-258 -101.5l-166 -31l-18 97l176 34q117 22 213 85.5t151.5 159t55.5 207.5v633h96v-259q1 -82 42.5 -150.5t111 -108.5t151.5 -40h42v-100h-42q-97 0 -178.5 50z" />
    <glyph glyph-name="uE082" unicode="&#xe082;" horiz-adv-x="801" 
d="M-54 -461l176 34q117 22 213 85.5t151.5 159t55.5 207.5v633h96v-638q0 -138 -66.5 -253t-182 -191.5t-259.5 -102.5l-166 -31zM510 979v126q80 -1 160 0v-126h-160z" />
    <glyph glyph-name="uE083" unicode="&#xe083;" horiz-adv-x="985" 
d="M764.5 50q-81.5 50 -126.5 134v-169q-1 -137 -68 -251t-182 -189.5t-258 -101.5l-166 -31l-18 97l176 34q117 22 213 85.5t151.5 159t55.5 207.5v633h96v-259q1 -82 42.5 -150.5t111 -108.5t151.5 -40h42v-100h-42q-97 0 -178.5 50zM510 979v126q80 -1 160 0v-126h-160z
" />
    <glyph glyph-name="uE084" unicode="&#xe084;" horiz-adv-x="801" 
d="M-54 -461l176 34q117 22 213 85.5t151.5 159t55.5 207.5v633h96v-638q0 -138 -66.5 -253t-182 -191.5t-259.5 -102.5l-166 -31zM354 979v125h155v-125h-155zM671 979v126h155v-126h-155zM513 1278v122h154v-122h-154z" />
    <glyph glyph-name="uE085" unicode="&#xe085;" horiz-adv-x="985" 
d="M764.5 50q-81.5 50 -126.5 134v-169q-1 -137 -68 -251t-182 -189.5t-258 -101.5l-166 -31l-18 97l176 34q117 22 213 85.5t151.5 159t55.5 207.5v633h96v-259q1 -82 42.5 -150.5t111 -108.5t151.5 -40h42v-100h-42q-97 0 -178.5 50zM354 979v125h155v-125h-155zM671 979
v126h155v-126h-155zM513 1278v122h154v-122h-154z" />
    <glyph glyph-name="uE086" unicode="&#xe086;" horiz-adv-x="802" 
d="M-54 -461l176 34q117 22 213 85.5t151.5 159t55.5 207.5v633h96v-638q0 -138 -66.5 -253t-182 -191.5t-259.5 -102.5l-166 -31zM651 1045q67 0 111.5 34t44.5 86q0 64 -38.5 112.5t-113.5 48.5q-86 0 -142 -91.5t-85 -189.5h223zM372 1604h66v-381q91 169 217 169
q69 0 118.5 -32t74.5 -84t25 -111q-2 -81 -64.5 -133.5t-157.5 -52.5h-344v66h51q7 25 14 47v512z" />
    <glyph glyph-name="uE087" unicode="&#xe087;" horiz-adv-x="985" 
d="M764.5 50q-81.5 50 -126.5 134v-169q-1 -137 -68 -251t-182 -189.5t-258 -101.5l-166 -31l-18 97l176 34q117 22 213 85.5t151.5 159t55.5 207.5v633h96v-259q1 -82 42.5 -150.5t111 -108.5t151.5 -40h42v-100h-42q-97 0 -178.5 50zM651 1045q67 0 111.5 34t44.5 86
q0 64 -38.5 112.5t-113.5 48.5q-86 0 -142 -91.5t-85 -189.5h223zM372 1604h66v-381q91 169 217 169q69 0 118.5 -32t74.5 -84t25 -111q-2 -81 -64.5 -133.5t-157.5 -52.5h-344v66h51q7 25 14 47v512z" />
    <glyph glyph-name="uE088" unicode="&#xe088;" horiz-adv-x="801" 
d="M-54 -461l176 34q117 22 213 85.5t151.5 159t55.5 207.5v633h96v-638q0 -138 -66.5 -253t-182 -191.5t-259.5 -102.5l-166 -31zM284 -1165l-263 302l85 1l203 -231l203 231l85 -1l-263 -302h-50z" />
    <glyph glyph-name="uE089" unicode="&#xe089;" horiz-adv-x="985" 
d="M764.5 50q-81.5 50 -126.5 134v-169q-1 -137 -68 -251t-182 -189.5t-258 -101.5l-166 -31l-18 97l176 34q117 22 213 85.5t151.5 159t55.5 207.5v633h96v-259q1 -82 42.5 -150.5t111 -108.5t151.5 -40h42v-100h-42q-97 0 -178.5 50zM284 -1165l-263 302l85 1l203 -231
l203 231l85 -1l-263 -302h-50z" />
    <glyph glyph-name="uE090" unicode="&#xe090;" horiz-adv-x="1710" 
d="M1410 337q3 -97 73.5 -167.5t172.5 -70.5h54v-100h-54q-77 0 -143 39t-104 103zM706 -549q-218 0 -331 79t-169 213t-56 279q1 151 38 268t72 207l90 -39q-28 -65 -66 -178.5t-38 -249.5q1 -187 95 -332.5t365 -146.5h167q120 0 220 60.5t160 170.5t60 275v1432h97v-1431
q1 -184 -71 -319.5t-196.5 -211.5t-269.5 -76h-167zM1300 1743l-263 302l85 1l203 -231l203 231l85 -1l-263 -302h-50z" />
    <glyph glyph-name="uE091" unicode="&#xe091;" horiz-adv-x="658" 
d="M105 100q67 0 123.5 33t89.5 89.5t33 123.5v1143h96v-1147q0 -93 -46 -171.5t-124.5 -124.5t-171.5 -46h-105q-39 8 -53.5 29t0 42t53.5 29h105zM374 1743l-263 302l85 1l203 -231l203 231l85 -1l-263 -302h-50z" />
    </font>
</defs>
</svg>
