<?xml version="1.0" standalone="no"?>
<!DOCTYPE svg PUBLIC "-//W3C//DTD SVG 1.1//EN" "http://www.w3.org/Graphics/SVG/1.1/DTD/svg11.dtd" >
<svg xmlns="http://www.w3.org/2000/svg" xmlns:xlink="http://www.w3.org/1999/xlink" version="1.1">
<metadata>
Created by FontForge 20201107 at Thu Jun  5 21:46:23 2025
 By 
Copyright 2024 The Arad Project Authors (https://github.com/MDarvishi5124/Arad)
</metadata>
<defs>
<font id="AradVFtest21-Light" horiz-adv-x="0" >
  <font-face 
    font-family="Arad-VF-test21 Light"
    font-weight="300"
    font-stretch="normal"
    units-per-em="2240"
    panose-1="0 0 0 0 0 0 0 0 0 0"
    ascent="1792"
    descent="-448"
    x-height="1062"
    cap-height="1443"
    bbox="-371 -1154 3208 2315.9"
    underline-thickness="40"
    underline-position="-785"
    unicode-range="U+000D-FEFC"
  />
<missing-glyph horiz-adv-x="1300" 
d="M1164 0h-1028v1400h1028v-1400zM279 1257v-1114h742v1114h-742z" />
    <glyph glyph-name="uni0626" unicode="&#x649;&#x654;" horiz-adv-x="1635" 
d="M876 -413q181 0 320.5 80.5t158.5 239.5q14 103 -35.5 145.5t-155.5 48.5l-422 23l18 335q12 173 114.5 275.5t268.5 102.5h306v-133h-303q-108 -1 -174.5 -72t-75.5 -176l-14 -213l304 -15q162 -9 245.5 -82t56.5 -239q-32 -214 -208 -334t-404 -121h-160
q-215 0 -331.5 80.5t-175 217t-58.5 279.5q0 177 27 285.5t65 210.5l124 -52q-28 -69 -55.5 -171.5t-27.5 -258.5q1 -180 88 -317.5t344 -138.5h160zM108 845l136 54q-56 21 -91.5 71.5t-35.5 113.5q0 55 27 105t76.5 80.5t112.5 30.5q40 0 70 -10t70 -29l6 -3l-21 -72
q-5 2 -15 7q-32 14 -56 21.5t-54 7.5q-59 0 -98.5 -42t-39.5 -96q-1 -52 36.5 -93.5t102.5 -55.5l202 80v-83l-428 -171v84z" />
    <glyph glyph-name="uni06C0" unicode="&#x647;&#x654;" horiz-adv-x="1049" 
d="M355.5 579.5q-79.5 -112.5 -79.5 -220.5q0 -75 37 -129.5t95 -83t119 -28.5q62 0 120 27.5t95 82t37 131.5q0 80 -61.5 190.5t-185.5 228.5q-97 -86 -176.5 -198.5zM358 925l83 103l56 -44q202 -165 306.5 -326t104.5 -298q0 -114 -54.5 -198.5t-142 -128.5t-184.5 -44
q-98 0 -185.5 46.5t-141.5 131t-54 193.5q0 100 56 203t124 180t114 114zM258 1299q176 0 257 30.5t81 112.5v53l-220 -1q-22 0 -40.5 19t-17.5 41v94q0 56 28 103t75 75t102 28h135v-74h-135q-54 0 -92.5 -39t-38.5 -93v-85h278v-124q0 -222 -412 -217v77z" />
    <glyph glyph-name="uniFBA70654" unicode="&#xfba7;&#x654;" horiz-adv-x="1184" 
d="M160 9l39 313q16 118 91.5 210.5t189.5 131.5l314 104l87 -57l34 -374q8 -86 71.5 -141.5t151.5 -55.5h46v-140h-46q-91 0 -169.5 42.5t-128 117t-57.5 164.5l-26 291l-235 -77q-77 -26 -128.5 -89.5t-61.5 -143.5l-39 -312zM278 1039l136 54q-56 21 -91.5 71.5
t-35.5 113.5q0 55 27 105t76.5 80.5t112.5 30.5q40 0 70 -10t70 -29l6 -3l-21 -72q-5 2 -15 7q-32 14 -56 21.5t-54 7.5q-59 0 -98.5 -42t-39.5 -96q-1 -52 36.5 -93.5t102.5 -55.5l202 80v-83l-428 -171v84z" />
    <glyph glyph-name="uE115" unicode="&#xe091;&#xfe8e;" horiz-adv-x="1210" 
d="M202 1439h133v-1095h-133v1095zM760.5 170q51.5 30 81.5 81.5t30 112.5v1075h133v-1082q0 -97 -48 -179t-130 -130t-179 -48h-446v140h446q61 0 112.5 30zM907 1737l-274 316l107 2l199 -227l199 227l106 -2l-274 -316h-63z" />
    <glyph glyph-name="uE116" unicode="&#xe092;&#xfe8e;" horiz-adv-x="1284" 
d="M760.5 170q51.5 30 81.5 81.5t30 112.5v1075h133v-1075q0 -61 30 -112.5t81.5 -81.5t112.5 -30h70v-140h-70q-97 0 -174 50t-116 133q-40 -83 -116.5 -133t-174.5 -50h-446v140h446q61 0 112.5 30zM202 1439h133v-1095h-133v1095zM907 1737l-274 316l107 2l199 -227
l199 227l106 -2l-274 -316h-63z" />
    <glyph glyph-name="uE117" unicode="&#xe091;&#xfe82;" horiz-adv-x="1206" 
d="M184 1312l130 7l51 -971l-130 -7zM757.5 170q51.5 30 81.5 81.5t30 112.5v1131h133v-1138q0 -97 -48 -179t-129.5 -130t-178.5 -48h-448v140h448q60 0 111.5 30zM-157 1343l54 134q32 81 103 129t158 48h434v-97h-434q-57 0 -103.5 -31.5t-67.5 -83.5l-53 -135zM908 1737
l-275 316l107 2l199 -227l199 227l107 -2l-275 -316h-62z" />
    <glyph glyph-name="uE118" unicode="&#xe092;&#xfe82;" horiz-adv-x="1282" 
d="M1226 0q-97 0 -173.5 50t-116.5 133q-40 -83 -116.5 -133t-173.5 -50h-448v140h448q60 0 111.5 30t81.5 81.5t30 112.5v1131h133v-1131q0 -61 30.5 -112.5t81.5 -81.5t112 -30h56v-140h-56zM184 1312l130 7l51 -971l-130 -7zM-143 1343l54 134q32 81 103 129t158 48h434
v-97h-434q-57 0 -103.5 -31.5t-67.5 -83.5l-53 -135zM922 1737l-275 316l107 2l199 -227l199 227l107 -2l-275 -316h-62z" />
    <glyph glyph-name="uE120" unicode="&#xe091;&#x675;" horiz-adv-x="1205" 
d="M184 1312l130 7l51 -971l-130 -7zM757.5 170q51.5 30 81.5 81.5t30 112.5v1131h133v-1138q0 -97 -48 -179t-129.5 -130t-178.5 -48h-448v140h448q60 0 111.5 30zM59 1579l136 54q-56 21 -91.5 71.5t-35.5 113.5q0 55 27 105t76.5 80.5t112.5 30.5q40 0 70 -10t70 -29
l6 -3l-21 -72q-5 2 -15 7q-32 14 -56 21.5t-54 7.5q-59 0 -98.5 -42t-39.5 -96q-1 -52 36.5 -93.5t102.5 -55.5l202 80v-83l-428 -171v84zM908 1737l-275 316l107 2l199 -227l199 227l107 -2l-275 -316h-62z" />
    <glyph glyph-name="uE121" unicode="&#xe092;&#x675;" horiz-adv-x="1282" 
d="M1226 0q-97 0 -173.5 50t-116.5 133q-40 -83 -116.5 -133t-173.5 -50h-448v140h448q60 0 111.5 30t81.5 81.5t30 112.5v1131h133v-1131q0 -61 30.5 -112.5t81.5 -81.5t112 -30h56v-140h-56zM184 1312l130 7l51 -971l-130 -7zM59 1579l136 54q-56 21 -91.5 71.5
t-35.5 113.5q0 55 27 105t76.5 80.5t112.5 30.5q40 0 70 -10t70 -29l6 -3l-21 -72q-5 2 -15 7q-32 14 -56 21.5t-54 7.5q-59 0 -98.5 -42t-39.5 -96q-1 -52 36.5 -93.5t102.5 -55.5l202 80v-83l-428 -171v84zM908 1737l-275 316l107 2l199 -227l199 227l107 -2l-275 -316
h-62z" />
    <glyph glyph-name="uE122" unicode="&#xe091;&#xfe88;" horiz-adv-x="1205" 
d="M176 1475l129 7l60 -1134l-130 -7zM757.5 170q51.5 30 81.5 81.5t30 112.5v1131h133v-1138q0 -97 -48 -179t-129.5 -130t-178.5 -48h-448v140h448q60 0 111.5 30zM70 -731l136 54q-56 21 -91.5 71.5t-35.5 113.5q0 55 27 105t76.5 80.5t112.5 30.5q40 0 70 -10t70 -29
l6 -3l-21 -72q-5 2 -15 7q-32 14 -56 21.5t-54 7.5q-59 0 -98.5 -42t-39.5 -96q-1 -52 36.5 -93.5t102.5 -55.5l202 80v-83l-428 -171v84zM908 1737l-275 316l107 2l199 -227l199 227l107 -2l-275 -316h-62z" />
    <glyph glyph-name="uE123" unicode="&#xe092;&#xfe88;" horiz-adv-x="1282" 
d="M757.5 170q51.5 30 81.5 81.5t30 112.5v1131h133v-1131q0 -61 30.5 -112.5t81.5 -81.5t112 -30h56v-140h-56q-97 0 -173.5 50t-116.5 133q-40 -83 -116.5 -133t-173.5 -50h-448v140h448q60 0 111.5 30zM176 1475l129 7l60 -1134l-130 -7zM69 -731l136 54
q-56 21 -91.5 71.5t-35.5 113.5q0 55 27 105t76.5 80.5t112.5 30.5q40 0 70 -10t70 -29l6 -3l-21 -72q-5 2 -15 7q-32 14 -56 21.5t-54 7.5q-59 0 -98.5 -42t-39.5 -96q-1 -52 36.5 -93.5t102.5 -55.5l202 80v-83l-428 -171v84zM908 1737l-275 316l107 2l199 -227l199 227
l107 -2l-275 -316h-62z" />
    <glyph glyph-name="uniFBA5" unicode="&#xfeea;&#x654;" horiz-adv-x="1202" arabic-form="final" 
d="M625 91q-123 -30 -231 -5t-176.5 98.5t-75.5 183.5q-9 155 54.5 279t199 196.5t333.5 74.5l-26 178l132 18l118 -807q11 -72 65.5 -119t127.5 -48h59v-140h-58q-97 1 -175 56t-113 151q-111 -86 -234 -116zM382.5 684q-122.5 -115 -111.5 -302q7 -92 86.5 -143t207 -35
t256.5 116l-70 475q-246 4 -368.5 -111zM290 1319q176 0 257 30.5t81 112.5v53l-220 -1q-22 0 -40.5 19t-17.5 41v94q0 56 28 103t75 75t102 28h135v-74h-135q-54 0 -92.5 -39t-38.5 -93v-85h278v-124q0 -222 -412 -217v77z" />
    <glyph glyph-name="uniFE8A" unicode="&#xfbfd;&#x654;" horiz-adv-x="1723" arabic-form="final" 
d="M718 -548q-217 0 -333.5 80.5t-175 217t-58.5 279.5q0 177 27 285.5t65 210.5l124 -52q-28 -69 -55.5 -171.5t-27.5 -258.5q1 -180 87.5 -317t343.5 -139h233q166 0 286.5 69.5t120.5 222.5q0 56 -34 91.5t-83 36.5h-443v133h928v-140h-290q52 -45 53 -118
q-2 -115 -61 -209t-180.5 -157.5t-296.5 -63.5h-230zM108 845l136 54q-56 21 -91.5 71.5t-35.5 113.5q0 55 27 105t76.5 80.5t112.5 30.5q40 0 70 -10t70 -29l6 -3l-21 -72q-5 2 -15 7q-32 14 -56 21.5t-54 7.5q-59 0 -98.5 -42t-39.5 -96q-1 -52 36.5 -93.5t102.5 -55.5
l202 80v-83l-428 -171v84z" />
    <glyph glyph-name="uniFEF5" unicode="&#xfedf;&#xfe82;" horiz-adv-x="1205" arabic-form="isolated" 
d="M184 1312l130 7l51 -971l-130 -7zM757.5 170q51.5 30 81.5 81.5t30 112.5v1131h133v-1138q0 -97 -48 -179t-129.5 -130t-178.5 -48h-448v140h448q60 0 111.5 30zM-171 1343l54 134q32 81 103 129t158 48h434v-97h-434q-57 0 -103.5 -31.5t-67.5 -83.5l-53 -135z" />
    <glyph glyph-name="uniFEF6" unicode="&#xfee0;&#xfe82;" horiz-adv-x="1282" arabic-form="final" 
d="M1226 0q-97 0 -173.5 50t-116.5 133q-40 -83 -116.5 -133t-173.5 -50h-448v140h448q60 0 111.5 30t81.5 81.5t30 112.5v1131h133v-1131q0 -61 30.5 -112.5t81.5 -81.5t112 -30h56v-140h-56zM184 1312l130 7l51 -971l-130 -7zM-171 1343l54 134q32 81 103 129t158 48h434
v-97h-434q-57 0 -103.5 -31.5t-67.5 -83.5l-53 -135z" />
    <glyph glyph-name="uniFEF7" unicode="&#xfedf;&#x675;" horiz-adv-x="1205" arabic-form="isolated" 
d="M184 1312l130 7l51 -971l-130 -7zM757.5 170q51.5 30 81.5 81.5t30 112.5v1131h133v-1138q0 -97 -48 -179t-129.5 -130t-178.5 -48h-448v140h448q60 0 111.5 30zM45 1579l136 54q-56 21 -91.5 71.5t-35.5 113.5q0 55 27 105t76.5 80.5t112.5 30.5q40 0 70 -10t70 -29
l6 -3l-21 -72q-5 2 -15 7q-32 14 -56 21.5t-54 7.5q-59 0 -98.5 -42t-39.5 -96q-1 -52 36.5 -93.5t102.5 -55.5l202 80v-83l-428 -171v84z" />
    <glyph glyph-name="uniFEF8" unicode="&#xfee0;&#x675;" horiz-adv-x="1282" arabic-form="final" 
d="M1226 0q-97 0 -173.5 50t-116.5 133q-40 -83 -116.5 -133t-173.5 -50h-448v140h448q60 0 111.5 30t81.5 81.5t30 112.5v1131h133v-1131q0 -61 30.5 -112.5t81.5 -81.5t112 -30h56v-140h-56zM184 1312l130 7l51 -971l-130 -7zM45 1579l136 54q-56 21 -91.5 71.5
t-35.5 113.5q0 55 27 105t76.5 80.5t112.5 30.5q40 0 70 -10t70 -29l6 -3l-21 -72q-5 2 -15 7q-32 14 -56 21.5t-54 7.5q-59 0 -98.5 -42t-39.5 -96q-1 -52 36.5 -93.5t102.5 -55.5l202 80v-83l-428 -171v84z" />
    <glyph glyph-name="uniFEF9" unicode="&#xfedf;&#xfe88;" horiz-adv-x="1205" arabic-form="isolated" 
d="M176 1475l129 7l60 -1134l-130 -7zM757.5 170q51.5 30 81.5 81.5t30 112.5v1131h133v-1138q0 -97 -48 -179t-129.5 -130t-178.5 -48h-448v140h448q60 0 111.5 30zM56 -731l136 54q-56 21 -91.5 71.5t-35.5 113.5q0 55 27 105t76.5 80.5t112.5 30.5q40 0 70 -10t70 -29
l6 -3l-21 -72q-5 2 -15 7q-32 14 -56 21.5t-54 7.5q-59 0 -98.5 -42t-39.5 -96q-1 -52 36.5 -93.5t102.5 -55.5l202 80v-83l-428 -171v84z" />
    <glyph glyph-name="uniFEFA" unicode="&#xfee0;&#xfe88;" horiz-adv-x="1282" arabic-form="final" 
d="M757.5 170q51.5 30 81.5 81.5t30 112.5v1131h133v-1131q0 -61 30.5 -112.5t81.5 -81.5t112 -30h56v-140h-56q-97 0 -173.5 50t-116.5 133q-40 -83 -116.5 -133t-173.5 -50h-448v140h448q60 0 111.5 30zM176 1475l129 7l60 -1134l-130 -7zM55 -731l136 54
q-56 21 -91.5 71.5t-35.5 113.5q0 55 27 105t76.5 80.5t112.5 30.5q40 0 70 -10t70 -29l6 -3l-21 -72q-5 2 -15 7q-32 14 -56 21.5t-54 7.5q-59 0 -98.5 -42t-39.5 -96q-1 -52 36.5 -93.5t102.5 -55.5l202 80v-83l-428 -171v84z" />
    <glyph glyph-name="uniFEFB" unicode="&#xfedf;&#xfe8e;" horiz-adv-x="1205" arabic-form="isolated" 
d="M176 1475l129 7l60 -1134l-130 -7zM757.5 170q51.5 30 81.5 81.5t30 112.5v1131h133v-1138q0 -97 -48 -179t-129.5 -130t-178.5 -48h-448v140h448q60 0 111.5 30z" />
    <glyph glyph-name="uniFEFC" unicode="&#xfee0;&#xfe8e;" horiz-adv-x="1282" arabic-form="final" 
d="M757.5 170q51.5 30 81.5 81.5t30 112.5v1131h133v-1131q0 -61 30.5 -112.5t81.5 -81.5t112 -30h56v-140h-56q-97 0 -173.5 50t-116.5 133q-40 -83 -116.5 -133t-173.5 -50h-448v140h448q60 0 111.5 30zM176 1475l129 7l60 -1134l-130 -7z" />
    <glyph glyph-name="uni064406440647" unicode="&#xfedf;&#xfee0;&#xfeea;" horiz-adv-x="2522" 
d="M1951 140q61 0 112.5 30t81.5 81.5t30 112.5v1131h133v-1138q0 -97 -48 -179t-130 -130t-179 -48h-107q-39 14 -54 42t0 56t54 42h107zM1240 140q61 0 112.5 30t81.5 81.5t30 112.5v839h133v-839q0 -61 30 -112.5t81.5 -81.5t112.5 -30h52v-140h-52q-97 0 -173.5 50
t-116.5 133q-40 -83 -116.5 -133t-174.5 -50h-52q-39 14 -54 42t0 56t54 42h52zM1494 1494q-46 -53 -121 -53t-121 53t-46 131v148h78v-148q0 -46 23.5 -76t65.5 -30q43 0 66 30t23 76v148h78v-148q0 -78 -46 -131zM1750.5 1514q-46.5 -53 -121.5 -53t-121 53t-46 131v128
h78v-128q0 -46 23.5 -76t65.5 -30q43 0 66.5 30t23.5 76v148h77v-148q1 -78 -45.5 -131zM1549 2292v-367h-78v367h78zM643 91q-123 -30 -231 -5t-176.5 98.5t-75.5 183.5q-9 155 54.5 279t199 196.5t333.5 74.5l-26 178l132 18l118 -807q11 -72 65.5 -119t127.5 -48h59v-140
h-58q-97 1 -175 56t-113 151q-111 -86 -234 -116zM400.5 684q-122.5 -115 -111.5 -302q7 -92 86.5 -143t207 -35t256.5 116l-70 475q-246 4 -368.5 -111z" />
    <glyph glyph-name="uni0621" unicode="&#x621;" horiz-adv-x="1072" arabic-form="isolated" 
d="M414 186q-85 33 -133.5 113t-48.5 175q0 88 41 171t116.5 135.5t172.5 52.5q84 0 146 -24t98 -51l-41 -119q-99 78 -208 71q-61 -2 -107.5 -37t-71 -89t-24.5 -110q0 -58 25.5 -109.5t75 -83.5t118.5 -32l312 119l44 -114l-697 -268l-44 114z" />
    <glyph glyph-name="uni0622" unicode="&#x622;" horiz-adv-x="539" arabic-form="isolated" 
d="M335 1303l1 -1303h-133l-1 1303h133zM-171 1379l54 134q32 81 103 129t158 48h434v-97h-434q-57 0 -103.5 -31.5t-67.5 -83.5l-53 -135z" />
    <glyph glyph-name="uni0623" unicode="&#x623;" horiz-adv-x="537" arabic-form="isolated" 
d="M335 1303l1 -1303h-133l-1 1303h133zM48 1601l136 54q-56 21 -91.5 71.5t-35.5 113.5q0 55 27 105t76.5 80.5t112.5 30.5q40 0 70 -10t70 -29l6 -3l-21 -72q-5 2 -15 7q-32 14 -56 21.5t-54 7.5q-59 0 -98.5 -42t-39.5 -96q-1 -52 36.5 -93.5t102.5 -55.5l202 80v-83
l-428 -171v84z" />
    <glyph glyph-name="uni0624" unicode="&#x624;" horiz-adv-x="1073" arabic-form="isolated" 
d="M586 -325q89 53 141 138t53 187h-255q-187 0 -279.5 103t-92.5 300q0 121 49.5 217.5t136.5 151t197 54.5q112 0 197.5 -53.5t132.5 -150t47 -219.5v-384q0 -147 -65.5 -266t-181.5 -192.5t-261 -88.5l-301 -29l-10 137l294 31q109 11 198 64zM787 402q0 73 -24.5 140
t-80.5 111t-146 44q-80 0 -137 -40t-86.5 -107t-29.5 -148q0 -135 62 -199t191 -64h251v263zM322 1103l136 54q-56 21 -91.5 71.5t-35.5 113.5q0 55 27 105t76.5 80.5t112.5 30.5q40 0 70 -10t70 -29l6 -3l-21 -72q-5 2 -15 7q-32 14 -56 21.5t-54 7.5q-59 0 -98.5 -42
t-39.5 -96q-1 -52 36.5 -93.5t102.5 -55.5l202 80v-83l-428 -171v84z" />
    <glyph glyph-name="uni0625" unicode="&#x625;" horiz-adv-x="537" arabic-form="isolated" 
d="M335 1495l1 -1495h-133l-1 1495h133zM49 -731l136 54q-56 21 -91.5 71.5t-35.5 113.5q0 55 27 105t76.5 80.5t112.5 30.5q40 0 70 -10t70 -29l6 -3l-21 -72q-5 2 -15 7q-32 14 -56 21.5t-54 7.5q-59 0 -98.5 -42t-39.5 -96q-1 -52 36.5 -93.5t102.5 -55.5l202 80v-83
l-428 -171v84z" />
    <glyph glyph-name="uni0627" unicode="&#x627;" horiz-adv-x="538" arabic-form="isolated" 
d="M335 1495l1 -1495h-133l-1 1495h133z" />
    <glyph glyph-name="uni0628" unicode="&#x628;" horiz-adv-x="1827" arabic-form="isolated" 
d="M305 308.5q24 -76.5 84 -122.5t141 -46h784q61 0 112.5 30t81.5 81.5t30 112.5v321h133v-335q0 -95 -48 -175.5t-130 -127.5t-179 -47h-785q-119 0 -213.5 67t-135.5 181.5t-9 247.5l53 208l132 -38l-54 -196q-21 -85 3 -161.5zM817 -529q-1 74 0 148h188q1 -75 0 -148
h-188z" />
    <glyph glyph-name="uni0629" unicode="&#x629;" horiz-adv-x="1049" arabic-form="isolated" 
d="M355.5 579.5q-79.5 -112.5 -79.5 -220.5q0 -75 37 -129.5t95 -83t119 -28.5q62 0 120 27.5t95 82t37 131.5q0 80 -61.5 190.5t-185.5 228.5q-97 -86 -176.5 -198.5zM358 925l83 103l56 -44q202 -165 306.5 -326t104.5 -298q0 -114 -54.5 -198.5t-142 -128.5t-184.5 -44
q-98 0 -185.5 46.5t-141.5 131t-54 193.5q0 100 56 203t124 180t114 114zM254 1232q-1 71 0 150q93 -1 178 0v-150h-178zM584 1232v150h178q1 -78 0 -150h-178z" />
    <glyph glyph-name="uni062A" unicode="&#x62a;" horiz-adv-x="1827" arabic-form="isolated" 
d="M305 308.5q24 -76.5 84 -122.5t141 -46h784q61 0 112.5 30t81.5 81.5t30 112.5v321h133v-335q0 -95 -48 -175.5t-130 -127.5t-179 -47h-785q-119 0 -213.5 67t-135.5 181.5t-9 247.5l53 208l132 -38l-54 -196q-21 -85 3 -161.5zM663 864q-1 71 0 150q93 -1 178 0v-150
h-178zM993 864v150h178q1 -78 0 -150h-178z" />
    <glyph glyph-name="uni062B" unicode="&#x62b;" horiz-adv-x="1827" arabic-form="isolated" 
d="M305 308.5q24 -76.5 84 -122.5t141 -46h784q61 0 112.5 30t81.5 81.5t30 112.5v321h133v-335q0 -95 -48 -175.5t-130 -127.5t-179 -47h-785q-119 0 -213.5 67t-135.5 181.5t-9 247.5l53 208l132 -38l-54 -196q-21 -85 3 -161.5zM663 862q-1 71 0 150q93 -1 178 0v-150
h-178zM993 862v150h178q1 -78 0 -150h-178zM829 1174q-1 72 0 143q88 -1 176 0q1 -71 0 -143h-176z" />
    <glyph glyph-name="uni062C" unicode="&#x62c;" horiz-adv-x="1483" arabic-form="isolated" 
d="M1241 536q-99 30 -206.5 87t-252.5 145q-90 54 -126 73q-87 44 -165 6t-116 -138l-19 -43l-122 52l19 43q39 103 113.5 164.5t165.5 71.5t178 -35q94 -50 361 -200q148 -84 219 -123t79 -39l-6 -139l-822 -345q-123 -54 -193 -154t-65 -209q1 -81 50 -157.5t129.5 -124
t171.5 -47.5h624v-134h-624q-131 0 -242 63.5t-177 172t-69 237.5q-1 152 93.5 282.5t253.5 193.5zM752 -236q-1 76 0 150h188q1 -74 0 -150h-188z" />
    <glyph glyph-name="uni062D" unicode="&#x62d;" horiz-adv-x="1483" arabic-form="isolated" 
d="M1241 536q-99 30 -206.5 87t-252.5 145q-90 54 -126 73q-87 44 -165 6t-116 -138l-19 -43l-122 52l19 43q39 103 113.5 164.5t165.5 71.5t178 -35q94 -50 361 -200q148 -84 219 -123t79 -39l-6 -139l-822 -345q-123 -54 -193 -154t-65 -209q1 -81 50 -157.5t129.5 -124
t171.5 -47.5h624v-134h-624q-131 0 -242 63.5t-177 172t-69 237.5q-1 152 93.5 282.5t253.5 193.5z" />
    <glyph glyph-name="uni062E" unicode="&#x62e;" horiz-adv-x="1483" arabic-form="isolated" 
d="M1241 536q-99 30 -206.5 87t-252.5 145q-90 54 -126 73q-87 44 -165 6t-116 -138l-19 -43l-122 52l19 43q39 103 113.5 164.5t165.5 71.5t178 -35q94 -50 361 -200q148 -84 219 -123t79 -39l-6 -139l-822 -345q-123 -54 -193 -154t-65 -209q1 -81 50 -157.5t129.5 -124
t171.5 -47.5h624v-134h-624q-131 0 -242 63.5t-177 172t-69 237.5q-1 152 93.5 282.5t253.5 193.5zM552 1305q-1 76 0 150h188q1 -74 0 -150h-188z" />
    <glyph glyph-name="uni062F" unicode="&#x62f;" horiz-adv-x="1078" arabic-form="isolated" 
d="M85 0v133h552q68 0 113.5 44t52 107.5t-32.5 115.5l-369 485l105 80l369 -485q56 -73 61 -157.5t-33 -158t-108.5 -119t-157.5 -45.5h-552z" />
    <glyph glyph-name="uni0630" unicode="&#x630;" horiz-adv-x="1078" arabic-form="isolated" 
d="M85 0v133h552q68 0 113.5 44t52 107.5t-32.5 115.5l-369 485l105 80l369 -485q56 -73 61 -157.5t-33 -158t-108.5 -119t-157.5 -45.5h-552zM420 1217q-1 76 0 150h188q1 -74 0 -150h-188z" />
    <glyph glyph-name="uni0631" unicode="&#x631;" horiz-adv-x="710" arabic-form="isolated" 
d="M-38 -404l67 14q110 21 199.5 82t141 151.5t51.5 194.5v647h133v-655q0 -140 -65.5 -257.5t-181 -196t-261.5 -106.5l-56 -11z" />
    <glyph glyph-name="uni0632" unicode="&#x632;" horiz-adv-x="710" arabic-form="isolated" 
d="M-38 -404l67 14q110 21 199.5 82t141 151.5t51.5 194.5v647h133v-655q0 -140 -65.5 -257.5t-181 -196t-261.5 -106.5l-56 -11zM394 985q-1 76 0 150h188q1 -74 0 -150h-188z" />
    <glyph glyph-name="uni0633" unicode="&#x633;" horiz-adv-x="2753" arabic-form="isolated" 
d="M1301 685h133v-322q0 -91 59.5 -157t147.5 -66h34q92 0 149.5 65.5t57.5 158.5v321h133v-321q0 -94 57 -159t150 -65h34q93 0 150 65.5t57 158.5v321h133v-328q0 -89 -40.5 -171.5t-123 -134t-176.5 -51.5h-34q-92 0 -163.5 48.5t-110.5 131.5q-39 -84 -109.5 -132
t-163.5 -48h-34q-66 0 -121.5 33t-88.5 85v-79q-4 -166 -73.5 -298t-197.5 -210.5t-282 -78.5l-164 1q-218 0 -334 80t-176 217t-60 279q0 156 35.5 275.5t73.5 220.5l124 -51q-28 -69 -64 -182.5t-37 -248.5q1 -180 89.5 -314.5t348.5 -135.5l164 -1q117 0 212.5 57
t152 160.5t56.5 257.5z" />
    <glyph glyph-name="uni0634" unicode="&#x634;" horiz-adv-x="2753" arabic-form="isolated" 
d="M1301 685h133v-322q0 -91 59.5 -157t147.5 -66h34q92 0 149.5 65.5t57.5 158.5v321h133v-321q0 -94 57 -159t150 -65h34q93 0 150 65.5t57 158.5v321h133v-328q0 -89 -40.5 -171.5t-123 -134t-176.5 -51.5h-34q-92 0 -163.5 48.5t-110.5 131.5q-39 -84 -109.5 -132
t-163.5 -48h-34q-66 0 -121.5 33t-88.5 85v-79q-4 -166 -73.5 -298t-197.5 -210.5t-282 -78.5l-164 1q-218 0 -334 80t-176 217t-60 279q0 156 35.5 275.5t73.5 220.5l124 -51q-28 -69 -64 -182.5t-37 -248.5q1 -180 89.5 -314.5t348.5 -135.5l164 -1q117 0 212.5 57
t152 160.5t56.5 257.5zM1695 985q-1 71 0 150q93 -1 178 0v-150h-178zM2025 985v150h178q1 -78 0 -150h-178zM1861 1297q-1 72 0 143q88 -1 176 0q1 -71 0 -143h-176z" />
    <glyph glyph-name="uni0635" unicode="&#x635;" horiz-adv-x="2802" arabic-form="isolated" 
d="M2219 140q129 0 217.5 89t88.5 213q0 135 -78.5 222.5t-218.5 80.5q-161 -7 -272 -194.5t-153 -295.5t-46 -115h462zM1299 685h134l1 -329q-1 -83 55.5 -145t144.5 -69q62 236 209 481.5t381 254.5q143 5 241.5 -58.5t145.5 -165.5t47 -212q0 -118 -57 -219.5
t-157.5 -162t-224.5 -60.5h-526q-80 0 -148 36.5t-113 99.5v-82q-2 -175 -73 -310t-199 -213.5t-282 -78.5l-164 1q-218 0 -334 80t-176 217t-60 279q0 156 35.5 275.5t73.5 220.5l124 -51q-28 -69 -64 -182.5t-37 -248.5q1 -180 89.5 -314.5t348.5 -135.5l164 -1
q117 0 212.5 57t152 159.5t56.5 252.5v624z" />
    <glyph glyph-name="uni0636" unicode="&#x636;" horiz-adv-x="2802" arabic-form="isolated" 
d="M2219 140q129 0 217.5 89t88.5 213q0 135 -78.5 222.5t-218.5 80.5q-161 -7 -272 -194.5t-153 -295.5t-46 -115h462zM1299 685h134l1 -329q-1 -83 55.5 -145t144.5 -69q62 236 209 481.5t381 254.5q143 5 241.5 -58.5t145.5 -165.5t47 -212q0 -118 -57 -219.5
t-157.5 -162t-224.5 -60.5h-526q-80 0 -148 36.5t-113 99.5v-82q-2 -175 -73 -310t-199 -213.5t-282 -78.5l-164 1q-218 0 -334 80t-176 217t-60 279q0 156 35.5 275.5t73.5 220.5l124 -51q-28 -69 -64 -182.5t-37 -248.5q1 -180 89.5 -314.5t348.5 -135.5l164 -1
q117 0 212.5 57t152 159.5t56.5 252.5v624zM2088 1169q-1 76 0 150h188q1 -74 0 -150h-188z" />
    <glyph glyph-name="uni0637" unicode="&#x637;" horiz-adv-x="1536" arabic-form="isolated" 
d="M533 1495v-551l-2 -434q48 93 113 177.5t141.5 136t163.5 54.5q144 5 242 -58.5t145.5 -165.5t47.5 -212q0 -118 -57.5 -219.5t-158 -162t-223.5 -60.5h-789v140h194q1 2 4 12q22 73 46 134l1 1209h132zM1099.5 180.5q70.5 40.5 111 110t40.5 151.5q0 87 -35 157.5
t-102 110.5t-160 35q-82 -4 -155.5 -66t-130.5 -151t-94 -171t-73 -173q-14 -34 -18 -44h462q84 0 154.5 40.5z" />
    <glyph glyph-name="uni0638" unicode="&#x638;" horiz-adv-x="1532" arabic-form="isolated" 
d="M533 1495v-551l-2 -434q48 93 113 177.5t141.5 136t163.5 54.5q144 5 242 -58.5t145.5 -165.5t47.5 -212q0 -118 -57.5 -219.5t-158 -162t-223.5 -60.5h-789v140h194q1 2 4 12q22 73 46 134l1 1209h132zM1099.5 180.5q70.5 40.5 111 110t40.5 151.5q0 87 -35 157.5
t-102 110.5t-160 35q-82 -4 -155.5 -66t-130.5 -151t-94 -171t-73 -173q-14 -34 -18 -44h462q84 0 154.5 40.5zM900 1163q-1 76 0 150h188q1 -74 0 -150h-188z" />
    <glyph glyph-name="uni0639" unicode="&#x639;" horiz-adv-x="1250" arabic-form="isolated" 
d="M654 -709q-126 0 -237 54.5t-179 156.5t-68 239q0 98 43 182.5t117.5 143.5t167.5 85q-79 48 -125.5 142.5t-46.5 194.5q0 120 49 220.5t136.5 161.5t197.5 65q83 4 157.5 -16.5t165.5 -57.5q7 -3 11 -5l-24 -132q-3 1 -8 3q-97 38 -163 57.5t-128 18.5
q-77 -3 -136.5 -46.5t-92 -114.5t-32.5 -155q0 -73 32.5 -140t92 -109t138.5 -42h377v-140h-472q-86 0 -160.5 -42.5t-119 -115.5t-44.5 -158q0 -101 50 -171t130 -104.5t171 -34.5h446v-140h-446z" />
    <glyph glyph-name="uni063A" unicode="&#x63a;" horiz-adv-x="1250" arabic-form="isolated" 
d="M654 -709q-126 0 -237 54.5t-179 156.5t-68 239q0 98 43 182.5t117.5 143.5t167.5 85q-79 48 -125.5 142.5t-46.5 194.5q0 120 49 220.5t136.5 161.5t197.5 65q83 4 157.5 -16.5t165.5 -57.5q7 -3 11 -5l-24 -132q-3 1 -8 3q-97 38 -163 57.5t-128 18.5
q-77 -3 -136.5 -46.5t-92 -114.5t-32.5 -155q0 -73 32.5 -140t92 -109t138.5 -42h377v-140h-472q-86 0 -160.5 -42.5t-119 -115.5t-44.5 -158q0 -101 50 -171t130 -104.5t171 -34.5h446v-140h-446zM610 1227q-1 76 0 150h188q1 -74 0 -150h-188z" />
    <glyph glyph-name="uni0641" unicode="&#x641;" horiz-adv-x="1921" arabic-form="isolated" 
d="M1619 324q27 101 27 211q0 88 -37.5 151.5t-97.5 96.5t-125 33q-68 0 -128 -36t-96 -96.5t-36 -129.5q0 -75 43.5 -155.5t135 -140t227.5 -69.5q60 34 87 135zM527 140h514q287 0 335 10q-133 14 -218 81.5t-123 154.5t-38 165q-1 105 52.5 195.5t143.5 144t193 52.5
q102 0 191.5 -51.5t143.5 -145t54 -212.5q0 -160 -42.5 -280.5t-125.5 -187t-200 -66.5h-878zM305 308.5q24 -76.5 84 -122.5t141 -46l-1 -140q-119 0 -213.5 67t-135.5 181.5t-9 247.5l53 208l132 -38l-54 -196q-21 -85 3 -161.5zM1291 1224q-1 76 0 150h188q1 -74 0 -150
h-188z" />
    <glyph glyph-name="uni0642" unicode="&#x642;" horiz-adv-x="1672" arabic-form="isolated" 
d="M1395 402q0 118 -60.5 206.5t-190.5 88.5q-120 0 -187 -84.5t-67 -210.5q0 -134 61.5 -198.5t192.5 -64.5h251v263zM714 -547q-217 0 -333.5 80t-176.5 217t-60 279q0 177 28.5 286t66.5 210l124 -51q-28 -69 -57 -172t-29 -259q0 -180 89 -317.5t348 -138.5h215
q224 0 344 109.5t122 303.5h-263q-188 0 -279.5 103t-91.5 300q0 128 50 222t135.5 147.5t197.5 53.5q169 0 273 -117.5t104 -305.5l1 -396q-1 -163 -73 -286t-203.5 -195.5t-318.5 -72.5h-213zM874 1104q-1 71 0 150q93 -1 178 0v-150h-178zM1204 1104v150h178
q1 -78 0 -150h-178z" />
    <glyph glyph-name="uni0643" unicode="&#x643;" horiz-adv-x="1879" arabic-form="isolated" 
d="M527 140h799q61 0 112 30t81.5 81.5t30.5 112.5l-1 1146h133v-1160q0 -95 -48 -175.5t-129.5 -127.5t-178.5 -47h-797q-38 113 -2 140zM305 308.5q24 -76.5 84 -122.5t141 -46l-1 -140q-119 0 -213.5 67t-135.5 181.5t-9 247.5l53 208l132 -38l-54 -196q-21 -85 3 -161.5
zM731 581l136 54q-56 21 -91.5 71.5t-35.5 113.5q0 55 27 105t76.5 80.5t112.5 30.5q40 0 70 -10t70 -29l6 -3l-21 -72q-5 2 -15 7q-32 14 -56 21.5t-54 7.5q-59 0 -98.5 -42t-39.5 -96q-1 -52 36.5 -93.5t102.5 -55.5l202 80v-83l-428 -171v84z" />
    <glyph glyph-name="uni0644" unicode="&#x644;" horiz-adv-x="1628" arabic-form="isolated" 
d="M714 -547q-217 0 -333.5 80t-176.5 216.5t-60 279.5q0 155 35.5 275t73.5 221l124 -52q-28 -68 -64 -181.5t-36 -248.5q0 -180 89 -314.5t348 -135.5l159 -1q117 0 212.5 57t152 160.5t56.5 257.5v1427h134l-1 -1423q1 -185 -71.5 -323.5t-201 -217t-281.5 -78.5z" />
    <glyph glyph-name="uni0645" unicode="&#x645;" horiz-adv-x="1441" arabic-form="isolated" 
d="M1128 236q40 77 38 217q-2 117 -64 213.5t-172 96.5q-108 0 -175.5 -91.5t-93.5 -247.5q-22 -106 -44 -197q60 -29 156.5 -48.5t211.5 -19.5q103 0 143 77zM671 769.5q101 122.5 260 122.5q105 0 187 -58t128 -158.5t48 -222.5q4 -193 -74.5 -310.5t-235.5 -117.5
q-156 0 -303 39q-65 19 -105 38.5t-78 44.5q-21 14 -30 19l66 282q36 199 137 321.5zM595 222l-23 -123l-283 118v-151v-677h-133v868l106 103z" />
    <glyph glyph-name="uni0646" unicode="&#x646;" horiz-adv-x="1588" arabic-form="isolated" 
d="M714 -547q-217 0 -333.5 80t-176.5 217t-60 279q0 156 35.5 275.5t73.5 220.5l124 -51q-28 -69 -64 -182.5t-36 -248.5q0 -180 89 -314.5t348 -135.5l165 -1q117 0 212 57t152 160.5t57 257.5v618h133v-614q1 -185 -71.5 -323.5t-201 -217t-281.5 -78.5zM693 685
q-1 76 0 150h188q1 -74 0 -150h-188z" />
    <glyph glyph-name="uni0647" unicode="&#x647;" horiz-adv-x="1049" arabic-form="isolated" 
d="M355.5 579.5q-79.5 -112.5 -79.5 -220.5q0 -75 37 -129.5t95 -83t119 -28.5q62 0 120 27.5t95 82t37 131.5q0 80 -61.5 190.5t-185.5 228.5q-97 -86 -176.5 -198.5zM358 925l83 103l56 -44q202 -165 306.5 -326t104.5 -298q0 -114 -54.5 -198.5t-142 -128.5t-184.5 -44
q-98 0 -185.5 46.5t-141.5 131t-54 193.5q0 100 56 203t124 180t114 114z" />
    <glyph glyph-name="uni0648" unicode="&#x648;" horiz-adv-x="1073" arabic-form="isolated" 
d="M586 -325q89 53 141 138t53 187h-255q-187 0 -279.5 103t-92.5 300q0 121 49.5 217.5t136.5 151t197 54.5q112 0 197.5 -53.5t132.5 -150t47 -219.5v-384q0 -147 -65.5 -266t-181.5 -192.5t-261 -88.5l-301 -29l-10 137l294 31q109 11 198 64zM787 402q0 73 -24.5 140
t-80.5 111t-146 44q-80 0 -137 -40t-86.5 -107t-29.5 -148q0 -135 62 -199t191 -64h251v263z" />
    <glyph glyph-name="uni0649" unicode="&#x649;" horiz-adv-x="1635" arabic-form="isolated" 
d="M876 -413q181 0 320.5 80.5t158.5 239.5q14 103 -35.5 145.5t-155.5 48.5l-422 23l18 335q12 173 114.5 275.5t268.5 102.5h306v-133h-303q-108 -1 -174.5 -72t-75.5 -176l-14 -213l304 -15q162 -9 245.5 -82t56.5 -239q-32 -214 -208 -334t-404 -121h-160
q-215 0 -331.5 80.5t-175 217t-58.5 279.5q0 177 27 285.5t65 210.5l124 -52q-28 -69 -55.5 -171.5t-27.5 -258.5q1 -180 88 -317.5t344 -138.5h160z" />
    <glyph glyph-name="uni064A" unicode="&#x64a;" horiz-adv-x="1635" arabic-form="isolated" 
d="M876 -413q181 0 320.5 80.5t158.5 239.5q14 103 -35.5 145.5t-155.5 48.5l-422 23l18 335q12 173 114.5 275.5t268.5 102.5h306v-133h-303q-108 -1 -174.5 -72t-75.5 -176l-14 -213l304 -15q162 -9 245.5 -82t56.5 -239q-32 -214 -208 -334t-404 -121h-160
q-215 0 -331.5 80.5t-175 217t-58.5 279.5q0 177 27 285.5t65 210.5l124 -52q-28 -69 -55.5 -171.5t-27.5 -258.5q1 -180 88 -317.5t344 -138.5h160zM522 -974q-1 79 0 150h178v-150h-178zM852 -974v150h178q1 -71 0 -150h-178z" />
    <glyph glyph-name="uni064B" unicode="&#xfe70;" arabic-form="isolated" 
d="M-214 1819l428 170v-83l-428 -171v84zM-243 2049l428 170v-83l-428 -171v84z" />
    <glyph glyph-name="uni064C" unicode="&#xfe72;" arabic-form="isolated" 
d="M-259 1781l35 262q4 24 -7.5 46t-34 29.5t-50.5 -8.5l-17 -9l-38 68l17 9q56 32 103.5 18t74 -59.5t23.5 -98.5l-20 -210l183 72l-49 125q-31 85 2.5 163t116.5 113q86 31 164 -2.5t113 -117.5q31 -85 -2.5 -163t-117.5 -113l-436 -170zM71.5 2205.5
q-32.5 -28.5 -43.5 -70.5t5 -82l49 -125l127 49q52 21 74 72.5t2 103.5q-17 40 -54.5 64t-81.5 19q-45 -2 -77.5 -30.5z" />
    <glyph glyph-name="uni064D" unicode="&#xfe74;" arabic-form="isolated" 
d="M-243 -650l428 170v-83l-428 -171v84zM-214 -880l428 170v-83l-428 -171v84z" />
    <glyph glyph-name="uni064E" unicode="&#xfe76;" arabic-form="isolated" 
d="M-214 1819l428 170v-83l-428 -171v84z" />
    <glyph glyph-name="uni064F" unicode="&#xfe78;" arabic-form="isolated" 
d="M-214 1830l131 53l-49 125q-31 85 2.5 163t117.5 114q85 32 162.5 -2t113.5 -117q31 -86 -2.5 -164t-117.5 -113l-358 -143v84zM-17 2193.5q-35 -28.5 -47 -72t4 -84.5l50 -126l126 50q52 21 74 72.5t2 103.5q-16 38 -50.5 61.5t-76.5 23.5q-47 0 -82 -28.5z" />
    <glyph glyph-name="uni0650" unicode="&#xfe7a;" arabic-form="isolated" 
d="M-214 -670l428 170v-83l-428 -171v84z" />
    <glyph glyph-name="uni0651" unicode="&#xfe7c;" arabic-form="isolated" 
d="M-18 1795q-46 -53 -121 -53t-121 53t-46 131v148h78v-148q0 -46 23.5 -76t65.5 -30q43 0 66 30t23 76v148h78v-148q0 -78 -46 -131zM238.5 1815q-46.5 -53 -121.5 -53t-121 53t-46 131v128h78v-128q0 -46 23.5 -76t65.5 -30q43 0 66.5 30t23.5 76v148h77v-148
q1 -78 -45.5 -131z" />
    <glyph glyph-name="uni0652" unicode="&#xfe7e;" arabic-form="isolated" 
d="M-115.5 1774q-50.5 32 -78.5 87.5t-28 122.5t28 122.5t78.5 87.5t115.5 32t116 -32t78.5 -87.5t27.5 -122.5t-27.5 -122.5t-78.5 -87.5t-116 -32t-115.5 32zM-105 2101q-39 -47 -39 -117t39 -117t105 -47t105 47t39 117t-39 117t-105 47t-105 -47z" />
    <glyph glyph-name="uni0671" unicode="&#x671;" horiz-adv-x="538" arabic-form="isolated" 
d="M335 1303l1 -1303h-133l-1 1303h133zM381 1546q62 0 103.5 31t41.5 78q0 59 -35 104.5t-106 45.5q-75 0 -125 -77t-87 -176l-3 -6h211zM203.5 1790q68.5 98 181.5 98q70 0 121 -32t77 -85.5t26 -115.5q0 -54 -29.5 -98t-82 -69.5t-116.5 -25.5h-243q-53 0 -103 41
t-81 105t-31 128v42h83v-42q0 -47 26 -94t60 -67q43 117 111.5 215z" />
    <glyph glyph-name="uni0675" unicode="&#x623;" horiz-adv-x="617" arabic-form="final" 
d="M559 0q-102 0 -183 47.5t-127 127.5t-46 175l-1 953h133l1 -939q0 -61 29.5 -112.5t81 -81.5t112.5 -30h57v-140h-57zM49 1601l136 54q-56 21 -91.5 71.5t-35.5 113.5q0 55 27 105t76.5 80.5t112.5 30.5q40 0 70 -10t70 -29l6 -3l-21 -72q-5 2 -15 7q-32 14 -56 21.5
t-54 7.5q-59 0 -98.5 -42t-39.5 -96q-1 -52 36.5 -93.5t102.5 -55.5l202 80v-83l-428 -171v84z" />
    <glyph glyph-name="uni0679" unicode="&#x679;" horiz-adv-x="1827" arabic-form="isolated" 
d="M305 308.5q24 -76.5 84 -122.5t141 -46h784q61 0 112.5 30t81.5 81.5t30 112.5v321h133v-335q0 -95 -48 -175.5t-130 -127.5t-179 -47h-785q-119 0 -213.5 67t-135.5 181.5t-9 247.5l53 208l132 -38l-54 -196q-21 -85 3 -161.5zM974 843q62 0 103.5 31.5t41.5 77.5
q0 59 -35 104.5t-106 45.5q-55 0 -98 -45.5t-69.5 -102.5t-43.5 -111h207zM690 1394h83v-357q89 149 205 149q70 0 121 -32.5t77 -86t26 -115.5q1 -54 -29 -98t-82.5 -69t-116.5 -25h-348v83h52q6 23 12 41v510z" />
    <glyph glyph-name="uni067E" unicode="&#x67e;" horiz-adv-x="1827" arabic-form="isolated" 
d="M305 308.5q24 -76.5 84 -122.5t141 -46h784q61 0 112.5 30t81.5 81.5t30 112.5v321h133v-335q0 -95 -48 -175.5t-130 -127.5t-179 -47h-785q-119 0 -213.5 67t-135.5 181.5t-9 247.5l53 208l132 -38l-54 -196q-21 -85 3 -161.5zM657 -450q-1 79 0 150h178v-150h-178z
M987 -450v150h178q1 -71 0 -150h-178zM823 -759q-1 72 0 143h176q1 -71 0 -143q-88 1 -176 0z" />
    <glyph glyph-name="uni0686" unicode="&#x686;" horiz-adv-x="1483" arabic-form="isolated" 
d="M1241 536q-99 30 -206.5 87t-252.5 145q-90 54 -126 73q-87 44 -165 6t-116 -138l-19 -43l-122 52l19 43q39 103 113.5 164.5t165.5 71.5t178 -35q94 -50 361 -200q148 -84 219 -123t79 -39l-6 -139l-822 -345q-123 -54 -193 -154t-65 -209q1 -81 50 -157.5t129.5 -124
t171.5 -47.5h624v-134h-624q-131 0 -242 63.5t-177 172t-69 237.5q-1 152 93.5 282.5t253.5 193.5zM656 -144v123h151v-123h-151zM945 -144v123h151v-123q-75 1 -151 0zM801 -352q-1 59 0 118h150q1 -59 0 -118q-75 1 -150 0z" />
    <glyph glyph-name="uni0688" unicode="&#x688;" horiz-adv-x="1078" arabic-form="isolated" 
d="M85 0v133h552q68 0 113.5 44t52 107.5t-32.5 115.5l-369 485l105 80l369 -485q56 -73 61 -157.5t-33 -158t-108.5 -119t-157.5 -45.5h-552zM601 1325q62 0 103.5 31.5t41.5 77.5q0 59 -35 104.5t-106 45.5q-55 0 -98 -45.5t-69.5 -102.5t-43.5 -111h207zM317 1876h83
v-357q89 149 205 149q70 0 121 -32.5t77 -86t26 -115.5q1 -54 -29 -98t-82.5 -69t-116.5 -25h-348v83h52q6 23 12 41v510z" />
    <glyph glyph-name="uni0691" unicode="&#x691;" horiz-adv-x="710" arabic-form="isolated" 
d="M-38 -404l67 14q110 21 199.5 82t141 151.5t51.5 194.5v647h133v-655q0 -140 -65.5 -257.5t-181 -196t-261.5 -106.5l-56 -11zM583 1061q62 0 103.5 31.5t41.5 77.5q0 59 -35 104.5t-106 45.5q-55 0 -98 -45.5t-69.5 -102.5t-43.5 -111h207zM299 1612h83v-357
q89 149 205 149q70 0 121 -32.5t77 -86t26 -115.5q1 -54 -29 -98t-82.5 -69t-116.5 -25h-348v83h52q6 23 12 41v510z" />
    <glyph glyph-name="uni0698" unicode="&#x698;" horiz-adv-x="710" arabic-form="isolated" 
d="M-38 -404l67 14q110 21 199.5 82t141 151.5t51.5 194.5v647h133v-655q0 -140 -65.5 -257.5t-181 -196t-261.5 -106.5l-56 -11zM234 985q-1 71 0 150q93 -1 178 0v-150h-178zM564 985v150h178q1 -78 0 -150h-178zM400 1297q-1 72 0 143q88 -1 176 0q1 -71 0 -143h-176z
" />
    <glyph glyph-name="uni06A4" unicode="&#x6a4;" horiz-adv-x="1921" arabic-form="isolated" 
d="M1619 324q27 101 27 211q0 88 -37.5 151.5t-97.5 96.5t-125 33q-68 0 -128 -36t-96 -96.5t-36 -129.5q0 -75 43.5 -155.5t135 -140t227.5 -69.5q60 34 87 135zM527 140h514q287 0 335 10q-133 14 -218 81.5t-123 154.5t-38 165q-1 105 52.5 195.5t143.5 144t193 52.5
q102 0 191.5 -51.5t143.5 -145t54 -212.5q0 -160 -42.5 -280.5t-125.5 -187t-200 -66.5h-878zM305 308.5q24 -76.5 84 -122.5t141 -46l-1 -140q-119 0 -213.5 67t-135.5 181.5t-9 247.5l53 208l132 -38l-54 -196q-21 -85 3 -161.5zM1129 1224q-1 71 0 150q93 -1 178 0v-150
h-178zM1459 1224v150h178q1 -78 0 -150h-178zM1295 1536q-1 72 0 143q88 -1 176 0q1 -71 0 -143h-176z" />
    <glyph glyph-name="uni06A9" unicode="&#x6a9;" horiz-adv-x="1917" arabic-form="isolated" 
d="M1448 140q71 0 117.5 48t49 114.5t-46.5 117.5l-597 624v133l773 312l46 -124l-678 -276l559 -585q66 -68 79.5 -155t-21 -167.5t-107 -131t-167.5 -50.5h-926q-119 0 -213.5 67t-135.5 181.5t-9 247.5l53 208l132 -38l-54 -196q-21 -85 3 -161.5t84 -122.5t141 -46h918z
" />
    <glyph glyph-name="uni06AF" unicode="&#x6af;" horiz-adv-x="1917" arabic-form="isolated" 
d="M1448 140q71 0 117.5 48t49 114.5t-46.5 117.5l-597 624v133l773 312l46 -124l-678 -276l559 -585q66 -68 79.5 -155t-21 -167.5t-107 -131t-167.5 -50.5h-926q-119 0 -213.5 67t-135.5 181.5t-9 247.5l53 208l132 -38l-54 -196q-21 -85 3 -161.5t84 -122.5t141 -46h918z
M972 1481l649 261l32 -75l-680 -270z" />
    <glyph glyph-name="uni06BA" unicode="&#x6ba;" horiz-adv-x="1589" arabic-form="isolated" 
d="M714 -547q-217 0 -333.5 80t-176.5 217t-60 279q0 156 35.5 275.5t73.5 220.5l124 -51q-28 -69 -64 -182.5t-36 -248.5q0 -180 89 -314.5t348 -135.5l165 -1q117 0 212 57t152 160.5t57 257.5v618h133v-614q1 -185 -71.5 -323.5t-201 -217t-281.5 -78.5z" />
    <glyph glyph-name="uni06BE" unicode="&#x6be;" horiz-adv-x="1530" arabic-form="isolated" 
d="M387.5 741q-58.5 -29 -93.5 -85t-35 -133q0 -135 86.5 -235.5t169.5 -150.5q84 51 170.5 151t86.5 235q0 77 -35 133t-94 85t-128 29t-127.5 -29zM515 0q-35 0 -99.5 39t-130.5 108.5t-110.5 166.5t-44.5 208q0 108 50.5 194t138.5 134.5t196 48.5q109 0 197 -48.5
t138.5 -134t50.5 -194.5q0 -121 -65.5 -222.5t-143.5 -160.5h414q68 0 113.5 44.5t52 108t-33.5 114.5l-364 479l106 80l369 -485q55 -73 60.5 -157t-32.5 -158t-108.5 -119.5t-157.5 -45.5h-596z" />
    <glyph glyph-name="uni06C1" unicode="&#x6c1;" horiz-adv-x="1049" arabic-form="isolated" 
d="M355.5 579.5q-79.5 -112.5 -79.5 -220.5q0 -75 37 -129.5t95 -83t119 -28.5q62 0 120 27.5t95 82t37 131.5q0 80 -61.5 190.5t-185.5 228.5q-97 -86 -176.5 -198.5zM358 925l83 103l56 -44q202 -165 306.5 -326t104.5 -298q0 -114 -54.5 -198.5t-142 -128.5t-184.5 -44
q-98 0 -185.5 46.5t-141.5 131t-54 193.5q0 100 56 203t124 180t114 114z" />
    <glyph glyph-name="uni06C3.fina" unicode="&#x6c3;" horiz-adv-x="1184" 
d="M160 9l39 313q16 118 91.5 210.5t189.5 131.5l314 104l87 -57l34 -374q8 -86 71.5 -141.5t151.5 -55.5h46v-140h-46q-91 0 -169.5 42.5t-128 117t-57.5 164.5l-26 291l-235 -77q-77 -26 -128.5 -89.5t-61.5 -143.5l-39 -312zM357 1036q-1 71 0 150q93 -1 178 0v-150h-178
zM687 1036v150h178q1 -78 0 -150h-178z" />
    <glyph glyph-name="uni06C6" unicode="&#x6c6;" horiz-adv-x="1073" arabic-form="isolated" 
d="M586 -325q89 53 141 138t53 187h-255q-187 0 -279.5 103t-92.5 300q0 121 49.5 217.5t136.5 151t197 54.5q112 0 197.5 -53.5t132.5 -150t47 -219.5v-384q0 -147 -65.5 -266t-181.5 -192.5t-261 -88.5l-301 -29l-10 137l294 31q109 11 198 64zM787 402q0 73 -24.5 140
t-80.5 111t-146 44q-80 0 -137 -40t-86.5 -107t-29.5 -148q0 -135 62 -199t191 -64h251v263zM504 1072l-275 316l107 2l199 -227l199 227l107 -2l-275 -316h-62z" />
    <glyph glyph-name="uni06C7" unicode="&#x6c7;" horiz-adv-x="1073" arabic-form="isolated" 
d="M586 -325q89 53 141 138t53 187h-255q-187 0 -279.5 103t-92.5 300q0 121 49.5 217.5t136.5 151t197 54.5q112 0 197.5 -53.5t132.5 -150t47 -219.5v-384q0 -147 -65.5 -266t-181.5 -192.5t-261 -88.5l-301 -29l-10 137l294 31q109 11 198 64zM787 402q0 73 -24.5 140
t-80.5 111t-146 44q-80 0 -137 -40t-86.5 -107t-29.5 -148q0 -135 62 -199t191 -64h251v263zM321 1116l131 53l-49 125q-31 85 2.5 163t117.5 114q85 32 162.5 -2t113.5 -117q31 -86 -2.5 -164t-117.5 -113l-358 -143v84zM518 1479.5q-35 -28.5 -47 -72t4 -84.5l50 -126
l126 50q52 21 74 72.5t2 103.5q-16 38 -50.5 61.5t-76.5 23.5q-47 0 -82 -28.5z" />
    <glyph glyph-name="uni06C9" unicode="&#x6c9;" horiz-adv-x="1073" arabic-form="isolated" 
d="M586 -325q89 53 141 138t53 187h-255q-187 0 -279.5 103t-92.5 300q0 121 49.5 217.5t136.5 151t197 54.5q112 0 197.5 -53.5t132.5 -150t47 -219.5v-384q0 -147 -65.5 -266t-181.5 -192.5t-261 -88.5l-301 -29l-10 137l294 31q109 11 198 64zM787 402q0 73 -24.5 140
t-80.5 111t-146 44q-80 0 -137 -40t-86.5 -107t-29.5 -148q0 -135 62 -199t191 -64h251v263zM841 1038l-107 -1l-199 227l-199 -227l-107 1l275 317h62z" />
    <glyph glyph-name="uni06D2" unicode="&#x6d2;" horiz-adv-x="1607" arabic-form="isolated" 
d="M571 0q-113 0 -208 55.5t-151 151t-56 208.5q0 112 56 207.5t151 151.5t208 56h221v-134h-221q-77 0 -141.5 -37.5t-102.5 -102.5t-38 -141q0 -77 38 -141.5t102.5 -102.5t141.5 -38h879v-133h-879z" />
    <glyph glyph-name="uni06D3" unicode="&#x6d3;" horiz-adv-x="1607" arabic-form="isolated" 
d="M571 0q-113 0 -208 55.5t-151 151t-56 208.5q0 112 56 207.5t151 151.5t208 56h221v-134h-221q-77 0 -141.5 -37.5t-102.5 -102.5t-38 -141q0 -77 38 -141.5t102.5 -102.5t141.5 -38h879v-133h-879zM258 1229l136 54q-56 21 -91.5 71.5t-35.5 113.5q0 55 27 105
t76.5 80.5t112.5 30.5q40 0 70 -10t70 -29l6 -3l-21 -72q-5 2 -15 7q-32 14 -56 21.5t-54 7.5q-59 0 -98.5 -42t-39.5 -96q-1 -52 36.5 -93.5t102.5 -55.5l202 80v-83l-428 -171v84z" />
    <glyph glyph-name="uniFB51" unicode="&#x671;" horiz-adv-x="617" arabic-form="final" 
d="M559 0q-102 0 -183 47.5t-127 127.5t-46 175l-1 953h133l1 -939q0 -61 29.5 -112.5t81 -81.5t112.5 -30h57v-140h-57zM381 1546q62 0 103.5 31t41.5 78q0 59 -35 104.5t-106 45.5q-75 0 -125 -77t-87 -176l-3 -6h211zM203.5 1790q68.5 98 181.5 98q70 0 121 -32t77 -85.5
t26 -115.5q0 -54 -29.5 -98t-82 -69.5t-116.5 -25.5h-243q-53 0 -103 41t-81 105t-31 128v42h83v-42q0 -47 26 -94t60 -67q43 117 111.5 215z" />
    <glyph glyph-name="uniFB57" unicode="&#x67e;" horiz-adv-x="1950" arabic-form="final" 
d="M1314 140q61 0 112.5 30t81.5 81.5t30 112.5v321h133v-321q0 -61 30 -112.5t81.5 -81.5t112.5 -30h55v-140h-55q-98 0 -174.5 50t-116.5 133q-40 -83 -116.5 -133t-173.5 -50h-785q-119 0 -213.5 67t-135.5 181.5t-9 247.5l53 208l132 -38l-54 -196q-21 -85 3 -161.5
t84 -122.5t141 -46h784zM657 -450q-1 79 0 150h178v-150h-178zM987 -450v150h178q1 -71 0 -150h-178zM823 -759q-1 72 0 143h176q1 -71 0 -143q-88 1 -176 0z" />
    <glyph glyph-name="uniFB58" unicode="&#x67e;" horiz-adv-x="686" arabic-form="initial" 
d="M173 140q61 0 112 30t81.5 81.5t30.5 112.5v321h132v-335q0 -96 -47.5 -176t-129.5 -127t-179 -47h-173q-39 14 -54 42t0 56t54 42h173zM-156 -457q-1 79 0 150h178v-150h-178zM174 -457v150h178q1 -71 0 -150h-178zM10 -766q-1 72 0 143h176q1 -71 0 -143q-88 1 -176 0z
" />
    <glyph glyph-name="uniFB59" unicode="&#x67e;" horiz-adv-x="809" arabic-form="medial" 
d="M173 140q61 0 112 30t81.5 81.5t30.5 112.5l-1 321h133v-321q0 -61 30.5 -112.5t81.5 -81.5t112 -30h56v-140h-56q-97 0 -173.5 50t-116.5 133q-40 -83 -116.5 -133t-173.5 -50h-173q-39 14 -54 42t0 56t54 42h173zM-155 -457q-1 79 0 150h178v-150h-178zM175 -457v150
h178q1 -71 0 -150h-178zM11 -766q-1 72 0 143h176q1 -71 0 -143q-88 1 -176 0z" />
    <glyph glyph-name="uniFB67" unicode="&#x679;" horiz-adv-x="1950" arabic-form="final" 
d="M1314 140q61 0 112.5 30t81.5 81.5t30 112.5v321h133v-321q0 -61 30 -112.5t81.5 -81.5t112.5 -30h55v-140h-55q-98 0 -174.5 50t-116.5 133q-40 -83 -116.5 -133t-173.5 -50h-785q-119 0 -213.5 67t-135.5 181.5t-9 247.5l53 208l132 -38l-54 -196q-21 -85 3 -161.5
t84 -122.5t141 -46h784zM974 843q62 0 103.5 31.5t41.5 77.5q0 59 -35 104.5t-106 45.5q-55 0 -98 -45.5t-69.5 -102.5t-43.5 -111h207zM690 1394h83v-357q89 149 205 149q70 0 121 -32.5t77 -86t26 -115.5q1 -54 -29 -98t-82.5 -69t-116.5 -25h-348v83h52q6 23 12 41v510z
" />
    <glyph glyph-name="uniFB68" unicode="&#x679;" horiz-adv-x="810" arabic-form="initial" 
d="M326 140q60 0 111.5 30t81.5 81.5t30 112.5v321h133v-335q0 -95 -48 -175.5t-130 -127.5t-178 -47h-326q-39 14 -54 42t0 56t54 42h326zM412 1035q62 0 103.5 31.5t41.5 77.5q0 59 -35 104.5t-106 45.5q-55 0 -98 -45.5t-69.5 -102.5t-43.5 -111h207zM128 1586h83v-357
q89 149 205 149q70 0 121 -32.5t77 -86t26 -115.5q1 -54 -29 -98t-82.5 -69t-116.5 -25h-348v83h52q6 23 12 41v510z" />
    <glyph glyph-name="uniFB69" unicode="&#x679;" horiz-adv-x="919" arabic-form="medial" 
d="M326 140q60 0 111.5 30t81.5 81.5t30 112.5l1 321h132v-321q0 -61 30 -112.5t81.5 -81.5t112.5 -30h41v-140h-41q-97 0 -173.5 50t-116.5 133q-40 -83 -116.5 -133t-173.5 -50h-326q-39 14 -54 42t0 56t54 42h326zM412 1036q62 0 103.5 31.5t41.5 77.5q0 59 -35 104.5
t-106 45.5q-55 0 -98 -45.5t-69.5 -102.5t-43.5 -111h207zM128 1587h83v-357q89 149 205 149q70 0 121 -32.5t77 -86t26 -115.5q1 -54 -29 -98t-82.5 -69t-116.5 -25h-348v83h52q6 23 12 41v510z" />
    <glyph glyph-name="uniFB6B" unicode="&#x6a4;" horiz-adv-x="1989" arabic-form="final" 
d="M1268.5 747.5q-60.5 -29.5 -97 -87t-36.5 -137.5q0 -135 88.5 -234.5t175.5 -151.5q86 52 175 151.5t89 234.5q0 80 -37 137.5t-97.5 87t-129.5 29.5q-70 0 -130.5 -29.5zM527 140h695q-81 60 -148.5 161t-67.5 221q0 112 52 199.5t142 136t199 48.5t198.5 -48.5
t141.5 -136t52 -199.5q0 -120 -67.5 -221t-148.5 -161h415v-140h-452q-57 0 -95 11t-44 24q-7 -13 -44.5 -24t-95.5 -11h-733zM305 308.5q24 -76.5 84 -122.5t141 -46l-1 -140q-119 0 -213.5 67t-135.5 181.5t-9 247.5l53 208l132 -38l-54 -196q-21 -85 3 -161.5zM1136 1187
q-1 71 0 150q93 -1 178 0v-150h-178zM1466 1187v150h178q1 -78 0 -150h-178zM1302 1499q-1 72 0 143q88 -1 176 0q1 -71 0 -143h-176z" />
    <glyph glyph-name="uniFB6C" unicode="&#x6a4;" horiz-adv-x="1115" arabic-form="initial" 
d="M813 324q27 101 27 211q0 88 -37.5 151.5t-97.5 96.5t-125 33q-68 0 -128 -36t-96 -96.5t-36 -129.5q1 -75 44 -155.5t134.5 -140t227.5 -69.5q60 34 87 135zM-54 42q-15 28 0 56t54 42h219q300 0 351 10q-133 14 -218 81.5t-122.5 154.5t-38.5 165q0 105 53.5 195.5
t143 144t192.5 52.5q103 0 192.5 -51.5t143 -145t53.5 -212.5q0 -160 -42.5 -280.5t-125 -187t-200.5 -66.5h-601q-39 14 -54 42zM326 1224q-1 71 0 150q93 -1 178 0v-150h-178zM656 1224v150h178q1 -78 0 -150h-178zM492 1536q-1 72 0 143q88 -1 176 0q1 -71 0 -143h-176z
" />
    <glyph glyph-name="uniFB6D" unicode="&#x6a4;" horiz-adv-x="1182" arabic-form="medial" 
d="M461 747.5q-60 -29.5 -97 -87t-37 -137.5q0 -135 89 -234.5t175 -151.5q87 53 175.5 152t88.5 234q0 80 -37 137.5t-97 87t-130 29.5t-130 -29.5zM414 140q-80 59 -148 160.5t-68 221.5q0 112 52.5 199.5t142 136t198.5 48.5t199 -48.5t142 -136t52 -199.5
q0 -120 -68 -221t-148 -161h414v-140h-451q-58 0 -95.5 11t-44.5 24q-6 -13 -44 -24t-95 -11h-452q-39 14 -54 42t0 56t54 42h414zM337 1186q-1 71 0 150q93 -1 178 0v-150h-178zM667 1186v150h178q1 -78 0 -150h-178zM503 1498q-1 72 0 143q88 -1 176 0q1 -71 0 -143h-176z
" />
    <glyph glyph-name="uniFB7B" unicode="&#x686;" horiz-adv-x="1495" arabic-form="final" 
d="M1204 251q13 -64 64 -87.5t107 -23.5h126v-140h-129q-91 0 -170.5 41.5t-100.5 140.5l-32 158l-528 -224q-123 -54 -193 -154t-65 -209q1 -81 50 -157.5t129.5 -124t171.5 -47.5h624v-134h-624q-131 0 -242 63.5t-177 172t-69 237.5q-1 152 93.5 282.5t253.5 193.5
l748 297q-99 30 -206.5 87t-252.5 145q-90 54 -126 73q-87 44 -165 6t-116 -138l-19 -43l-122 52l19 43q39 103 113.5 164.5t165.5 71.5t178 -35q94 -50 361 -200q148 -84 219 -123t79 -39l-6 -139l-184 -80zM610 -170q-1 58 0 117h139v-117h-139zM873 -170v117h139
q1 -58 0 -117h-139zM738 -371v118h146v-118h-146z" />
    <glyph glyph-name="uniFB7C" unicode="&#x686;" horiz-adv-x="1418" arabic-form="initial" 
d="M239 140q153 0 321 46t302 103t277 127q33 16 47 23q-276 124 -582 286q-80 43 -158.5 9.5t-121.5 -141.5l-17 -40l-122 53l16 39q40 103 114.5 164t165.5 71t177 -34q49 -25 173 -91q220 -117 343.5 -180.5t137.5 -63.5l4 -114q-5 -1 -50 -30q-130 -82 -274 -159
t-347 -142.5t-406 -65.5h-239q-39 14 -54 42t0 56t54 42h239zM322 -454q-1 79 0 150h178v-150h-178zM652 -454v150h178q1 -71 0 -150h-178zM488 -763q-1 72 0 143h176q1 -71 0 -143q-88 1 -176 0z" />
    <glyph glyph-name="uniFB7D" unicode="&#x686;" horiz-adv-x="1476" arabic-form="medial" 
d="M1109 283l117 -99q58 -44 134 -44h129v-140h-129q-64 0 -121 24t-93 67l-136 132zM239 140q153 0 321 46t302 103t277 127q33 16 47 23q-276 124 -582 286q-80 43 -158.5 9.5t-121.5 -141.5l-17 -40l-122 53l16 39q40 103 114.5 164t165.5 71t177 -34q49 -25 173 -91
q220 -117 343.5 -180.5t137.5 -63.5l4 -114q-5 -1 -50 -30q-130 -82 -274 -159t-347 -142.5t-406 -65.5h-239q-39 14 -54 42t0 56t54 42h239zM322 -454q-1 79 0 150h178v-150h-178zM652 -454v150h178q1 -71 0 -150h-178zM488 -763q-1 72 0 143h176q1 -71 0 -143
q-88 1 -176 0z" />
    <glyph glyph-name="uniFB89" unicode="&#x688;" horiz-adv-x="1205" arabic-form="final" 
d="M731 166.5q41 33.5 54.5 81t-7.5 85.5l-309 566l117 64l391 -720q27 -50 73 -76.5t103 -26.5h52v-140h-52q-84 0 -154.5 40t-113.5 111l-24 44q-5 -46 -42 -91.5t-95.5 -74.5t-123.5 -29h-515v133h550q55 0 96 33.5zM660 1324q62 0 103.5 31.5t41.5 77.5q0 59 -35 104.5
t-106 45.5q-55 0 -98 -45.5t-69.5 -102.5t-43.5 -111h207zM376 1875h83v-357q89 149 205 149q70 0 121 -32.5t77 -86t26 -115.5q1 -54 -29 -98t-82.5 -69t-116.5 -25h-348v83h52q6 23 12 41v510z" />
    <glyph glyph-name="uniFB8B" unicode="&#x698;" horiz-adv-x="880" arabic-form="final" 
d="M673 45q-74 45 -119 121v-140q-1 -140 -66.5 -256.5t-181 -194t-260.5 -105.5l-56 -11l-28 137l67 14q110 21 199.5 82t141 151.5t51.5 194.5v647h133v-281q4 -73 43 -133.5t101.5 -95.5t136.5 -35h45v-140h-45q-88 0 -162 45zM234 985q-1 71 0 150q93 -1 178 0v-150
h-178zM564 985v150h178q1 -78 0 -150h-178zM400 1297q-1 72 0 143q88 -1 176 0q1 -71 0 -143h-176z" />
    <glyph glyph-name="uniFB8D" unicode="&#x691;" horiz-adv-x="880" arabic-form="final" 
d="M673 45q-74 45 -119 121v-140q-1 -140 -66.5 -256.5t-181 -194t-260.5 -105.5l-56 -11l-28 137l67 14q110 21 199.5 82t141 151.5t51.5 194.5v647h133v-281q4 -73 43 -133.5t101.5 -95.5t136.5 -35h45v-140h-45q-88 0 -162 45zM583 1061q62 0 103.5 31.5t41.5 77.5
q0 59 -35 104.5t-106 45.5q-55 0 -98 -45.5t-69.5 -102.5t-43.5 -111h207zM299 1612h83v-357q89 149 205 149q70 0 121 -32.5t77 -86t26 -115.5q1 -54 -29 -98t-82.5 -69t-116.5 -25h-348v83h52q6 23 12 41v510z" />
    <glyph glyph-name="uniFB8F" unicode="&#x6a9;" horiz-adv-x="2125" arabic-form="final" 
d="M521.5 72q-0.5 43 5.5 68h921q70 0 116 46t50.5 111.5t-40.5 116.5l-603 630v133l773 312l46 -124l-678 -276l857 -898q24 -24 57.5 -37.5t70.5 -13.5h28v-140h-28q-62 0 -118 24t-99 69l-166 174q-1 -68 -37.5 -129.5t-103.5 -99.5t-153 -38h-891q-7 29 -7.5 72z
M305 308.5q24 -76.5 84 -122.5t141 -46l-1 -140q-119 0 -213.5 67t-135.5 181.5t-9 247.5l53 208l132 -38l-54 -196q-21 -85 3 -161.5z" />
    <glyph glyph-name="uniFB90" unicode="&#x6a9;" horiz-adv-x="1086" arabic-form="initial" 
d="M618 140q70 0 116.5 48t49 114.5t-45.5 117.5l-597 624v133l772 312l47 -124l-679 -276l560 -585q65 -68 78.5 -155t-21 -167.5t-106.5 -131t-168 -50.5h-624q-39 14 -54 42t0 56t54 42h618z" />
    <glyph glyph-name="uniFB91" unicode="&#x6a9;" horiz-adv-x="1301" arabic-form="medial" 
d="M618 140q69 0 115 46t50.5 111.5t-39.5 116.5l-603 630v133l772 312l47 -124l-679 -276l858 -898q24 -24 57 -37.5t70 -13.5h35v-140h-35q-61 0 -117.5 24t-99.5 69l-166 174q0 -68 -37 -129.5t-103.5 -99.5t-153.5 -38h-589q-39 14 -54 42t0 56t54 42h618z" />
    <glyph glyph-name="uniFB93" unicode="&#x6af;" horiz-adv-x="2125" arabic-form="final" 
d="M521.5 72q-0.5 43 5.5 68h921q70 0 116 46t50.5 111.5t-40.5 116.5l-603 630v133l773 312l46 -124l-678 -276l857 -898q24 -24 57.5 -37.5t70.5 -13.5h28v-140h-28q-62 0 -118 24t-99 69l-166 174q-1 -68 -37.5 -129.5t-103.5 -99.5t-153 -38h-891q-7 29 -7.5 72z
M305 308.5q24 -76.5 84 -122.5t141 -46l-1 -140q-119 0 -213.5 67t-135.5 181.5t-9 247.5l53 208l132 -38l-54 -196q-21 -85 3 -161.5zM971 1481l649 261l32 -75l-680 -270z" />
    <glyph glyph-name="uniFB94" unicode="&#x6af;" horiz-adv-x="1086" arabic-form="initial" 
d="M618 140q70 0 116.5 48t49 114.5t-45.5 117.5l-597 624v133l772 312l47 -124l-679 -276l560 -585q65 -68 78.5 -155t-21 -167.5t-106.5 -131t-168 -50.5h-624q-39 14 -54 42t0 56t54 42h618zM140 1481l649 261l32 -75l-680 -270z" />
    <glyph glyph-name="uniFB95" unicode="&#x6af;" horiz-adv-x="1301" arabic-form="medial" 
d="M618 140q69 0 115 46t50.5 111.5t-39.5 116.5l-603 630v133l772 312l47 -124l-679 -276l858 -898q24 -24 57 -37.5t70 -13.5h35v-140h-35q-61 0 -117.5 24t-99.5 69l-166 174q0 -68 -37 -129.5t-103.5 -99.5t-153.5 -38h-589q-39 14 -54 42t0 56t54 42h618zM140 1481
l649 261l32 -75l-680 -270z" />
    <glyph glyph-name="uniFB9F" unicode="&#x6ba;" horiz-adv-x="1712" arabic-form="final" 
d="M1433 356q2 -88 66.5 -152.5t157.5 -64.5h55v-140h-55q-69 0 -130 35.5t-95 91.5zM714 -547q-217 0 -333.5 80t-176.5 217t-60 279q0 156 35.5 275.5t73.5 220.5l124 -51q-28 -69 -64 -182.5t-36 -248.5q0 -180 89 -314.5t348 -135.5l165 -1q117 0 212 57t152 160.5
t57 257.5v618h133v-614q1 -185 -71.5 -323.5t-201 -217t-281.5 -78.5z" />
    <glyph glyph-name="uniFBA7" unicode="&#x6c1;" horiz-adv-x="1184" arabic-form="final" 
d="M160 9l39 313q16 118 91.5 210.5t189.5 131.5l314 104l87 -57l34 -374q8 -86 71.5 -141.5t151.5 -55.5h46v-140h-46q-91 0 -169.5 42.5t-128 117t-57.5 164.5l-26 291l-235 -77q-77 -26 -128.5 -89.5t-61.5 -143.5l-39 -312z" />
    <glyph glyph-name="uniFBA8" unicode="&#x6c1;" horiz-adv-x="1297" arabic-form="initial" 
d="M809.5 -774q-42.5 -35 -105.5 -35q-62 0 -103.5 38t-41.5 93v85q1 104 69.5 183t179.5 100l35 7l15 -103l-58 -9q-60 -10 -99.5 -56t-38.5 -107v-29q81 35 135.5 9t54.5 -87q0 -54 -42.5 -89zM138 140q61 0 112 30t81.5 81.5t30.5 112.5v293h132v-293q0 -61 30.5 -112.5
t81.5 -81.5t112 -30h51q61 0 112.5 30t81.5 81.5t30 112.5v315h133v-329q0 -96 -48 -176t-129.5 -127t-179.5 -47h-51q-97 0 -173.5 50t-116.5 133q-40 -83 -116.5 -133t-173.5 -50h-138q-39 14 -54 42t0 56t54 42h138z" />
    <glyph glyph-name="uniFBA9" unicode="&#x6c1;" horiz-adv-x="1127" arabic-form="medial" 
d="M269 140v422h133v-511q1 -247 99.5 -363t290.5 -128v412q0 74 46.5 121t120.5 47h168v-140h-137q-30 0 -47.5 -18t-17.5 -48v-436l-67 -78q-562 0 -586 580h-272q-39 14 -54 42t0 56t54 42h269z" />
    <glyph glyph-name="uniFBAB" unicode="&#x6be;" horiz-adv-x="1586" arabic-form="final" 
d="M387.5 741q-58.5 -29 -93.5 -85t-35 -133q0 -135 86.5 -235.5t169.5 -150.5q84 51 170.5 151t86.5 235q0 77 -35 133t-94 85t-128 29t-127.5 -29zM515 0q-35 0 -99.5 39t-130.5 108.5t-110.5 166.5t-44.5 208q0 108 50.5 194t138.5 134.5t196 48.5q109 0 197 -48.5
t138.5 -134t50.5 -194.5q0 -121 -65.5 -222.5t-143.5 -160.5h414q68 0 113.5 44.5t52 108t-33.5 114.5l-364 479l106 80l369 -485q62 -82 55 -177.5t-66 -162.5h248v-140h-1071z" />
    <glyph glyph-name="uniFBAC" unicode="&#x6be;" horiz-adv-x="1600" arabic-form="initial" 
d="M456 741q-59 -29 -94 -85t-35 -133q0 -135 87 -235.5t170 -150.5q83 51 170 151t87 235q0 77 -35.5 133t-94 85t-127.5 29t-128 -29zM628 11q-38 11 -44 24q-6 -13 -44 -24t-96 -11h-444q-39 14 -54 42t0 56t54 42h407q-78 58 -143.5 159.5t-65.5 222.5q0 108 51 194
t139 134.5t196 48.5t196.5 -48.5t139 -134t50.5 -194.5q0 -121 -65.5 -222.5t-144.5 -160.5h406q72 0 119.5 46.5t53.5 113t-36 120.5l-357 469l102 77l370 -485q55 -73 60.5 -157t-32.5 -158t-108.5 -119.5t-157.5 -45.5h-456q-58 0 -96 11z" />
    <glyph glyph-name="uniFBAD" unicode="&#x6be;" horiz-adv-x="1655" arabic-form="medial" 
d="M456 741q-59 -29 -94 -85t-35 -133q0 -135 87 -235.5t170 -150.5q83 51 170 151t87 235q0 77 -35.5 133t-94 85t-127.5 29t-128 -29zM724 0q-58 0 -96 11t-44 24q-6 -13 -44 -24t-96 -11h-444q-39 14 -54 42t0 56t54 42h407q-78 58 -143.5 159.5t-65.5 222.5
q0 108 51 194t139 134.5t196 48.5t196.5 -48.5t139 -134t50.5 -194.5q0 -121 -65.5 -222.5t-144.5 -160.5h415q68 0 113.5 44.5t51.5 108t-33 114.5l-364 479l105 80l370 -485q62 -82 55 -177.5t-66 -162.5h248v-140h-931z" />
    <glyph glyph-name="uniFBAF" unicode="&#x6d2;" horiz-adv-x="1094" arabic-form="final" 
d="M507 -509q-98 0 -179.5 39.5t-129 111.5t-47.5 166q0 93 48 169t131 119.5t183 43.5h581v-140h-581q-99 0 -164 -53t-65 -139t64 -138t159 -52h389v-127h-389z" />
    <glyph glyph-name="uniFBB1" unicode="&#x6d3;" horiz-adv-x="1094" arabic-form="final" 
d="M507 -509q-98 0 -179.5 39.5t-129 111.5t-47.5 166q0 93 48 169t131 119.5t183 43.5h581v-140h-581q-99 0 -164 -53t-65 -139t64 -138t159 -52h389v-127h-389zM258 540l136 54q-56 21 -91.5 71.5t-35.5 113.5q0 55 27 105t76.5 80.5t112.5 30.5q40 0 70 -10t70 -29l6 -3
l-21 -72q-5 2 -15 7q-32 14 -56 21.5t-54 7.5q-59 0 -98.5 -42t-39.5 -96q-1 -52 36.5 -93.5t102.5 -55.5l202 80v-83l-428 -171v84z" />
    <glyph glyph-name="uniFBD8" unicode="&#x6c7;" horiz-adv-x="1121" arabic-form="final" 
d="M586 -325q89 53 141 138t53 187h-255q-187 0 -279.5 103t-92.5 300q0 121 49.5 217.5t136.5 151t197 54.5q111 0 197 -53.5t133 -150t47 -219.5v-263h208v-140h-209q-4 -142 -70.5 -257t-180.5 -186t-256 -85l-301 -29l-10 137l294 31q109 11 198 64zM787 402
q0 73 -24.5 140t-80.5 111t-146 44q-80 0 -137 -40t-86.5 -107t-29.5 -148q0 -135 62 -199t191 -64h251v263zM321 1116l131 53l-49 125q-31 85 2.5 163t117.5 114q85 32 162.5 -2t113.5 -117q31 -86 -2.5 -164t-117.5 -113l-358 -143v84zM518 1479.5q-35 -28.5 -47 -72
t4 -84.5l50 -126l126 50q52 21 74 72.5t2 103.5q-16 38 -50.5 61.5t-76.5 23.5q-47 0 -82 -28.5z" />
    <glyph glyph-name="uniFBDA" unicode="&#x6c6;" horiz-adv-x="1121" arabic-form="final" 
d="M586 -325q89 53 141 138t53 187h-255q-187 0 -279.5 103t-92.5 300q0 121 49.5 217.5t136.5 151t197 54.5q111 0 197 -53.5t133 -150t47 -219.5v-263h208v-140h-209q-4 -142 -70.5 -257t-180.5 -186t-256 -85l-301 -29l-10 137l294 31q109 11 198 64zM787 402
q0 73 -24.5 140t-80.5 111t-146 44q-80 0 -137 -40t-86.5 -107t-29.5 -148q0 -135 62 -199t191 -64h251v263zM504 1072l-275 316l107 2l199 -227l199 227l107 -2l-275 -316h-62z" />
    <glyph glyph-name="uniFBE3" unicode="&#x6c9;" horiz-adv-x="1121" arabic-form="final" 
d="M586 -325q89 53 141 138t53 187h-255q-187 0 -279.5 103t-92.5 300q0 121 49.5 217.5t136.5 151t197 54.5q111 0 197 -53.5t133 -150t47 -219.5v-263h208v-140h-209q-4 -142 -70.5 -257t-180.5 -186t-256 -85l-301 -29l-10 137l294 31q109 11 198 64zM787 402
q0 73 -24.5 140t-80.5 111t-146 44q-80 0 -137 -40t-86.5 -107t-29.5 -148q0 -135 62 -199t191 -64h251v263zM841 1038l-107 -1l-199 227l-199 -227l-107 1l275 317h62z" />
    <glyph glyph-name="uniFBE8" unicode="&#x649;" horiz-adv-x="686" arabic-form="initial" 
d="M173 140q61 0 112 30t81.5 81.5t30.5 112.5v321h132v-335q0 -96 -47.5 -176t-129.5 -127t-179 -47h-173q-39 14 -54 42t0 56t54 42h173z" />
    <glyph glyph-name="uniFBE9" unicode="&#x649;" horiz-adv-x="809" arabic-form="medial" 
d="M173 140q61 0 112 30t81.5 81.5t30.5 112.5l-1 321h133v-321q0 -61 30.5 -112.5t81.5 -81.5t112 -30h56v-140h-56q-97 0 -173.5 50t-116.5 133q-40 -83 -116.5 -133t-173.5 -50h-173q-39 14 -54 42t0 56t54 42h173z" />
    <glyph glyph-name="uniFBFD" unicode="&#x6cc;" horiz-adv-x="1723" arabic-form="final" 
d="M718 -548q-217 0 -333.5 80.5t-175 217t-58.5 279.5q0 177 27 285.5t65 210.5l124 -52q-28 -69 -55.5 -171.5t-27.5 -258.5q1 -180 87.5 -317t343.5 -139h233q166 0 286.5 69.5t120.5 222.5q0 56 -34 91.5t-83 36.5h-443v133h928v-140h-290q52 -45 53 -118
q-2 -115 -61 -209t-180.5 -157.5t-296.5 -63.5h-230z" />
    <glyph glyph-name="uniFBFE" unicode="&#x6cc;" horiz-adv-x="686" arabic-form="initial" 
d="M173 140q61 0 112 30t81.5 81.5t30.5 112.5v321h132v-335q0 -96 -47.5 -176t-129.5 -127t-179 -47h-173q-39 14 -54 42t0 56t54 42h173zM-156 -531q-1 79 0 150h178v-150h-178zM174 -531v150h178q1 -71 0 -150h-178z" />
    <glyph glyph-name="uniFBFF" unicode="&#x6cc;" horiz-adv-x="809" arabic-form="medial" 
d="M173 140q61 0 112 30t81.5 81.5t30.5 112.5l-1 321h133v-321q0 -61 30.5 -112.5t81.5 -81.5t112 -30h56v-140h-56q-97 0 -173.5 50t-116.5 133q-40 -83 -116.5 -133t-173.5 -50h-173q-39 14 -54 42t0 56t54 42h173zM-156 -531q-1 79 0 150h178v-150h-178zM174 -531v150
h178q1 -71 0 -150h-178z" />
    <glyph glyph-name="uniFD3C" unicode="&#xfd3c;" horiz-adv-x="616" arabic-form="final" 
d="M559 0q-102 0 -183 47.5t-127 127.5t-46 175l-1 953h133l1 -939q0 -61 29.5 -112.5t81 -81.5t112.5 -30h57v-140h-57zM108 1485l428 170v-83l-428 -171v84zM79 1715l428 170v-83l-428 -171v84z" />
    <glyph glyph-name="uniFD3D" unicode="&#xfd3d;" horiz-adv-x="537" arabic-form="isolated" 
d="M335 1303l1 -1303h-133l-1 1303h133zM108 1485l428 170v-83l-428 -171v84zM79 1715l428 170v-83l-428 -171v84z" />
    <glyph glyph-name="uniFDF2" unicode="&#xfdf2;" horiz-adv-x="2933" arabic-form="isolated" 
d="M2748 1495l1 -1495h-133l-1 1495h133zM1950 140q61 0 112.5 30t81.5 81.5t30 112.5v1131h133v-1138q0 -97 -48 -179t-130 -130t-179 -48h-107q-39 14 -54 42t0 56t54 42h107zM1239 140q61 0 112.5 30t81.5 81.5t30 112.5v839h133v-839q0 -61 30 -112.5t81.5 -81.5
t112.5 -30h52v-140h-52q-97 0 -173.5 50t-116.5 133q-40 -83 -116.5 -133t-174.5 -50h-52q-39 14 -54 42t0 56t54 42h52zM1493 1494q-46 -53 -121 -53t-121 53t-46 131v148h78v-148q0 -46 23.5 -76t65.5 -30q43 0 66 30t23 76v148h78v-148q0 -78 -46 -131zM1749.5 1514
q-46.5 -53 -121.5 -53t-121 53t-46 131v128h78v-128q0 -46 23.5 -76t65.5 -30q43 0 66.5 30t23.5 76v148h77v-148q1 -78 -45.5 -131zM1548 2292v-367h-78v367h78zM642 91q-123 -30 -231 -5t-176.5 98.5t-75.5 183.5q-9 155 54.5 279t199 196.5t333.5 74.5l-26 178l132 18
l118 -807q11 -72 65.5 -119t127.5 -48h59v-140h-58q-97 1 -175 56t-113 151q-111 -86 -234 -116zM399.5 684q-122.5 -115 -111.5 -302q7 -92 86.5 -143t207 -35t256.5 116l-70 475q-246 4 -368.5 -111z" />
    <glyph glyph-name="uniFDFC" unicode="&#xfdfc;" horiz-adv-x="3364" arabic-form="isolated" 
d="M2616 -404l67 14q168 32 280 151t112 277v647h133v-655q0 -212 -142.5 -364.5t-366.5 -195.5l-56 -11zM1785 -517v136h560v-136h-560zM1428 1352l-1 -1281q1 -185 -71.5 -323.5t-201 -217t-281.5 -78.5l-159 1q-217 0 -333.5 80t-176.5 216.5t-60 279.5q0 155 35.5 275
t73.5 221l124 -52q-28 -68 -64 -181.5t-36 -248.5q0 -180 89 -314.5t348 -135.5l159 -1q117 0 212.5 57t152 160.5t56.5 257.5v1392l665 69v-1164q0 -93 65.5 -158.5t158.5 -65.5h182q93 0 158.5 65.5t65.5 158.5v321h133v-335q0 -143 -102 -246.5t-255 -103.5h-182
q-154 0 -255.5 103.5t-101.5 246.5v1047z" />
    <glyph glyph-name="uniFE82" unicode="&#x622;" horiz-adv-x="617" arabic-form="final" 
d="M559 0q-102 0 -183 47.5t-127 127.5t-46 175l-1 953h133l1 -939q0 -61 29.5 -112.5t81 -81.5t112.5 -30h57v-140h-57zM-171 1379l54 134q32 81 103 129t158 48h434v-97h-434q-57 0 -103.5 -31.5t-67.5 -83.5l-53 -135z" />
    <glyph glyph-name="uniFE86" unicode="&#x624;" horiz-adv-x="1121" arabic-form="final" 
d="M586 -325q89 53 141 138t53 187h-255q-187 0 -279.5 103t-92.5 300q0 121 49.5 217.5t136.5 151t197 54.5q111 0 197 -53.5t133 -150t47 -219.5v-263h208v-140h-209q-4 -142 -70.5 -257t-180.5 -186t-256 -85l-301 -29l-10 137l294 31q109 11 198 64zM787 402
q0 73 -24.5 140t-80.5 111t-146 44q-80 0 -137 -40t-86.5 -107t-29.5 -148q0 -135 62 -199t191 -64h251v263zM322 1103l136 54q-56 21 -91.5 71.5t-35.5 113.5q0 55 27 105t76.5 80.5t112.5 30.5q40 0 70 -10t70 -29l6 -3l-21 -72q-5 2 -15 7q-32 14 -56 21.5t-54 7.5
q-59 0 -98.5 -42t-39.5 -96q-1 -52 36.5 -93.5t102.5 -55.5l202 80v-83l-428 -171v84z" />
    <glyph glyph-name="uniFE88" unicode="&#x625;" horiz-adv-x="616" arabic-form="final" 
d="M559 0q-102 0 -183 47.5t-127 127.5t-46 175l-1 1145h133l1 -1131q0 -61 29.5 -112.5t81 -81.5t112.5 -30h57v-140h-57zM49 -731l136 54q-56 21 -91.5 71.5t-35.5 113.5q0 55 27 105t76.5 80.5t112.5 30.5q40 0 70 -10t70 -29l6 -3l-21 -72q-5 2 -15 7q-32 14 -56 21.5
t-54 7.5q-59 0 -98.5 -42t-39.5 -96q-1 -52 36.5 -93.5t102.5 -55.5l202 80v-83l-428 -171v84z" />
    <glyph glyph-name="uniFE8B" unicode="&#x626;" horiz-adv-x="686" arabic-form="initial" 
d="M173 140q61 0 112 30t81.5 81.5t30.5 112.5v321h132v-335q0 -96 -47.5 -176t-129.5 -127t-179 -47h-173q-39 14 -54 42t0 56t54 42h173zM76 1025l136 54q-56 21 -91.5 71.5t-35.5 113.5q0 55 27 105t76.5 80.5t112.5 30.5q40 0 70 -10t70 -29l6 -3l-21 -72q-5 2 -15 7
q-32 14 -56 21.5t-54 7.5q-59 0 -98.5 -42t-39.5 -96q-1 -52 36.5 -93.5t102.5 -55.5l202 80v-83l-428 -171v84z" />
    <glyph glyph-name="uniFE8C" unicode="&#x626;" horiz-adv-x="809" arabic-form="medial" 
d="M173 140q61 0 112 30t81.5 81.5t30.5 112.5l-1 321h133v-321q0 -61 30.5 -112.5t81.5 -81.5t112 -30h56v-140h-56q-97 0 -173.5 50t-116.5 133q-40 -83 -116.5 -133t-173.5 -50h-173q-39 14 -54 42t0 56t54 42h173zM76 1003l136 54q-56 21 -91.5 71.5t-35.5 113.5
q0 55 27 105t76.5 80.5t112.5 30.5q40 0 70 -10t70 -29l6 -3l-21 -72q-5 2 -15 7q-32 14 -56 21.5t-54 7.5q-59 0 -98.5 -42t-39.5 -96q-1 -52 36.5 -93.5t102.5 -55.5l202 80v-83l-428 -171v84z" />
    <glyph glyph-name="uniFE8E" unicode="&#x627;" horiz-adv-x="616" arabic-form="final" 
d="M559 0q-102 0 -183 47.5t-127 127.5t-46 175l-1 1145h133l1 -1131q0 -61 29.5 -112.5t81 -81.5t112.5 -30h57v-140h-57z" />
    <glyph glyph-name="uniFE90" unicode="&#x628;" horiz-adv-x="1950" arabic-form="final" 
d="M1314 140q61 0 112.5 30t81.5 81.5t30 112.5v321h133v-321q0 -61 30 -112.5t81.5 -81.5t112.5 -30h55v-140h-55q-98 0 -174.5 50t-116.5 133q-40 -83 -116.5 -133t-173.5 -50h-785q-119 0 -213.5 67t-135.5 181.5t-9 247.5l53 208l132 -38l-54 -196q-21 -85 3 -161.5
t84 -122.5t141 -46h784zM817 -529q-1 74 0 148h188q1 -75 0 -148h-188z" />
    <glyph glyph-name="uniFE91" unicode="&#x628;" horiz-adv-x="686" arabic-form="initial" 
d="M173 140q61 0 112 30t81.5 81.5t30.5 112.5v321h132v-335q0 -96 -47.5 -176t-129.5 -127t-179 -47h-173q-39 14 -54 42t0 56t54 42h173zM58 -529q-1 74 0 148h188q1 -75 0 -148h-188z" />
    <glyph glyph-name="uniFE92" unicode="&#x628;" horiz-adv-x="809" arabic-form="medial" 
d="M173 140q61 0 112 30t81.5 81.5t30.5 112.5l-1 321h133v-321q0 -61 30.5 -112.5t81.5 -81.5t112 -30h56v-140h-56q-97 0 -173.5 50t-116.5 133q-40 -83 -116.5 -133t-173.5 -50h-173q-39 14 -54 42t0 56t54 42h173zM58 -529q-1 74 0 148h188q1 -75 0 -148h-188z" />
    <glyph glyph-name="uniFE94" unicode="&#x629;" horiz-adv-x="1202" arabic-form="final" 
d="M625 91q-123 -30 -231 -5t-176.5 98.5t-75.5 183.5q-9 155 54.5 279t199 196.5t333.5 74.5l-26 178l132 18l118 -807q11 -72 65.5 -119t127.5 -48h59v-140h-58q-97 1 -175 56t-113 151q-111 -86 -234 -116zM382.5 684q-122.5 -115 -111.5 -302q7 -92 86.5 -143t207 -35
t256.5 116l-70 475q-246 4 -368.5 -111zM363 1293q-1 71 0 150q93 -1 178 0v-150h-178zM693 1293v150h178q1 -78 0 -150h-178z" />
    <glyph glyph-name="uniFE96" unicode="&#x62a;" horiz-adv-x="1950" arabic-form="final" 
d="M1314 140q61 0 112.5 30t81.5 81.5t30 112.5v321h133v-321q0 -61 30 -112.5t81.5 -81.5t112.5 -30h55v-140h-55q-98 0 -174.5 50t-116.5 133q-40 -83 -116.5 -133t-173.5 -50h-785q-119 0 -213.5 67t-135.5 181.5t-9 247.5l53 208l132 -38l-54 -196q-21 -85 3 -161.5
t84 -122.5t141 -46h784zM663 864q-1 71 0 150q93 -1 178 0v-150h-178zM993 864v150h178q1 -78 0 -150h-178z" />
    <glyph glyph-name="uniFE97" unicode="&#x62a;" horiz-adv-x="763" arabic-form="initial" 
d="M250 140q61 0 112 30t81.5 81.5t30.5 112.5v321h132v-335q0 -95 -48 -175.5t-129.5 -127.5t-178.5 -47h-250q-39 14 -54 42t0 56t54 42h250zM96 985q-1 71 0 150q93 -1 178 0v-150h-178zM426 985v150h178q1 -78 0 -150h-178z" />
    <glyph glyph-name="uniFE98" unicode="&#x62a;" horiz-adv-x="872" arabic-form="medial" 
d="M250 140q61 0 112 30t81.5 81.5t30.5 112.5v321h133l-1 -321q0 -61 30 -112.5t81.5 -81.5t112.5 -30h42v-140h-42q-97 0 -173.5 50t-116.5 133q-40 -83 -116.5 -133t-173.5 -50h-250q-39 14 -54 42t0 56t54 42h250zM96 986q-1 71 0 150q93 -1 178 0v-150h-178zM426 986
v150h178q1 -78 0 -150h-178z" />
    <glyph glyph-name="uniFE9A" unicode="&#x62b;" horiz-adv-x="1950" arabic-form="final" 
d="M1314 140q61 0 112.5 30t81.5 81.5t30 112.5v321h133v-321q0 -61 30 -112.5t81.5 -81.5t112.5 -30h55v-140h-55q-98 0 -174.5 50t-116.5 133q-40 -83 -116.5 -133t-173.5 -50h-785q-119 0 -213.5 67t-135.5 181.5t-9 247.5l53 208l132 -38l-54 -196q-21 -85 3 -161.5
t84 -122.5t141 -46h784zM663 862q-1 71 0 150q93 -1 178 0v-150h-178zM993 862v150h178q1 -78 0 -150h-178zM829 1174q-1 72 0 143q88 -1 176 0q1 -71 0 -143h-176z" />
    <glyph glyph-name="uniFE9B" unicode="&#x62b;" horiz-adv-x="763" arabic-form="initial" 
d="M250 140q61 0 112 30t81.5 81.5t30.5 112.5v321h132v-335q0 -95 -48 -175.5t-129.5 -127.5t-178.5 -47h-250q-39 14 -54 42t0 56t54 42h250zM96 985q-1 71 0 150q93 -1 178 0v-150h-178zM426 985v150h178q1 -78 0 -150h-178zM262 1297q-1 72 0 143q88 -1 176 0
q1 -71 0 -143h-176z" />
    <glyph glyph-name="uniFE9C" unicode="&#x62b;" horiz-adv-x="872" arabic-form="medial" 
d="M250 140q61 0 112 30t81.5 81.5t30.5 112.5v321h133l-1 -321q0 -61 30 -112.5t81.5 -81.5t112.5 -30h42v-140h-42q-97 0 -173.5 50t-116.5 133q-40 -83 -116.5 -133t-173.5 -50h-250q-39 14 -54 42t0 56t54 42h250zM96 986q-1 71 0 150q93 -1 178 0v-150h-178zM426 986
v150h178q1 -78 0 -150h-178zM262 1298q-1 72 0 143q88 -1 176 0q1 -71 0 -143h-176z" />
    <glyph glyph-name="uniFE9E" unicode="&#x62c;" horiz-adv-x="1495" arabic-form="final" 
d="M1204 251q13 -64 64 -87.5t107 -23.5h126v-140h-129q-91 0 -170.5 41.5t-100.5 140.5l-32 158l-528 -224q-123 -54 -193 -154t-65 -209q1 -81 50 -157.5t129.5 -124t171.5 -47.5h624v-134h-624q-131 0 -242 63.5t-177 172t-69 237.5q-1 152 93.5 282.5t253.5 193.5
l748 297q-99 30 -206.5 87t-252.5 145q-90 54 -126 73q-87 44 -165 6t-116 -138l-19 -43l-122 52l19 43q39 103 113.5 164.5t165.5 71.5t178 -35q94 -50 361 -200q148 -84 219 -123t79 -39l-6 -139l-184 -80zM745 -240v136h174v-136h-174z" />
    <glyph glyph-name="uniFE9F" unicode="&#x62c;" horiz-adv-x="1418" arabic-form="initial" 
d="M239 140q153 0 321 46t302 103t277 127q33 16 47 23q-276 124 -582 286q-80 43 -158.5 9.5t-121.5 -141.5l-17 -40l-122 53l16 39q40 103 114.5 164t165.5 71t177 -34q49 -25 173 -91q220 -117 343.5 -180.5t137.5 -63.5l4 -114q-5 -1 -50 -30q-130 -82 -274 -159
t-347 -142.5t-406 -65.5h-239q-39 14 -54 42t0 56t54 42h239zM491 -526q-1 74 0 148h188q1 -75 0 -148h-188z" />
    <glyph glyph-name="uniFEA0" unicode="&#x62c;" horiz-adv-x="1476" arabic-form="medial" 
d="M1109 283l117 -99q58 -44 134 -44h129v-140h-129q-64 0 -121 24t-93 67l-136 132zM239 140q153 0 321 46t302 103t277 127q33 16 47 23q-276 124 -582 286q-80 43 -158.5 9.5t-121.5 -141.5l-17 -40l-122 53l16 39q40 103 114.5 164t165.5 71t177 -34q49 -25 173 -91
q220 -117 343.5 -180.5t137.5 -63.5l4 -114q-5 -1 -50 -30q-130 -82 -274 -159t-347 -142.5t-406 -65.5h-239q-39 14 -54 42t0 56t54 42h239zM491 -526q-1 74 0 148h188q1 -75 0 -148h-188z" />
    <glyph glyph-name="uniFEA2" unicode="&#x62d;" horiz-adv-x="1496" arabic-form="final" 
d="M1204 251q13 -64 64 -87.5t107 -23.5h126v-140h-129q-91 0 -170.5 41.5t-100.5 140.5l-32 158l-528 -224q-123 -54 -193 -154t-65 -209q1 -81 50 -157.5t129.5 -124t171.5 -47.5h624v-134h-624q-131 0 -242 63.5t-177 172t-69 237.5q-1 152 93.5 282.5t253.5 193.5
l748 297q-99 30 -206.5 87t-252.5 145q-90 54 -126 73q-87 44 -165 6t-116 -138l-19 -43l-122 52l19 43q39 103 113.5 164.5t165.5 71.5t178 -35q94 -50 361 -200q148 -84 219 -123t79 -39l-6 -139l-184 -80z" />
    <glyph glyph-name="uniFEA3" unicode="&#x62d;" horiz-adv-x="1418" arabic-form="initial" 
d="M239 140q153 0 321 46t302 103t277 127q33 16 47 23q-276 124 -582 286q-80 43 -158.5 9.5t-121.5 -141.5l-17 -40l-122 53l16 39q40 103 114.5 164t165.5 71t177 -34q49 -25 173 -91q220 -117 343.5 -180.5t137.5 -63.5l4 -114q-5 -1 -50 -30q-130 -82 -274 -159
t-347 -142.5t-406 -65.5h-239q-39 14 -54 42t0 56t54 42h239z" />
    <glyph glyph-name="uniFEA4" unicode="&#x62d;" horiz-adv-x="1476" arabic-form="medial" 
d="M1109 283l117 -99q58 -44 134 -44h129v-140h-129q-64 0 -121 24t-93 67l-136 132zM239 140q153 0 321 46t302 103t277 127q33 16 47 23q-276 124 -582 286q-80 43 -158.5 9.5t-121.5 -141.5l-17 -40l-122 53l16 39q40 103 114.5 164t165.5 71t177 -34q49 -25 173 -91
q220 -117 343.5 -180.5t137.5 -63.5l4 -114q-5 -1 -50 -30q-130 -82 -274 -159t-347 -142.5t-406 -65.5h-239q-39 14 -54 42t0 56t54 42h239z" />
    <glyph glyph-name="uniFEA6" unicode="&#x62e;" horiz-adv-x="1495" arabic-form="final" 
d="M1204 251q13 -64 64 -87.5t107 -23.5h126v-140h-129q-91 0 -170.5 41.5t-100.5 140.5l-32 158l-528 -224q-123 -54 -193 -154t-65 -209q1 -81 50 -157.5t129.5 -124t171.5 -47.5h624v-134h-624q-131 0 -242 63.5t-177 172t-69 237.5q-1 152 93.5 282.5t253.5 193.5
l748 297q-99 30 -206.5 87t-252.5 145q-90 54 -126 73q-87 44 -165 6t-116 -138l-19 -43l-122 52l19 43q39 103 113.5 164.5t165.5 71.5t178 -35q94 -50 361 -200q148 -84 219 -123t79 -39l-6 -139l-184 -80zM552 1305q-1 76 0 150h188q1 -74 0 -150h-188z" />
    <glyph glyph-name="uniFEA7" unicode="&#x62e;" horiz-adv-x="1418" arabic-form="initial" 
d="M239 140q153 0 321 46t302 103t277 127q33 16 47 23q-276 124 -582 286q-80 43 -158.5 9.5t-121.5 -141.5l-17 -40l-122 53l16 39q40 103 114.5 164t165.5 71t177 -34q49 -25 173 -91q220 -117 343.5 -180.5t137.5 -63.5l4 -114q-5 -1 -50 -30q-130 -82 -274 -159
t-347 -142.5t-406 -65.5h-239q-39 14 -54 42t0 56t54 42h239zM481 1181q-1 76 0 150h188q1 -74 0 -150h-188z" />
    <glyph glyph-name="uniFEA8" unicode="&#x62e;" horiz-adv-x="1476" arabic-form="medial" 
d="M1109 283l117 -99q58 -44 134 -44h129v-140h-129q-64 0 -121 24t-93 67l-136 132zM239 140q153 0 321 46t302 103t277 127q33 16 47 23q-276 124 -582 286q-80 43 -158.5 9.5t-121.5 -141.5l-17 -40l-122 53l16 39q40 103 114.5 164t165.5 71t177 -34q49 -25 173 -91
q220 -117 343.5 -180.5t137.5 -63.5l4 -114q-5 -1 -50 -30q-130 -82 -274 -159t-347 -142.5t-406 -65.5h-239q-39 14 -54 42t0 56t54 42h239zM481 1181q-1 76 0 150h188q1 -74 0 -150h-188z" />
    <glyph glyph-name="uniFEAA" unicode="&#x62f;" horiz-adv-x="1205" arabic-form="final" 
d="M731 166.5q41 33.5 54.5 81t-7.5 85.5l-309 566l117 64l391 -720q27 -50 73 -76.5t103 -26.5h52v-140h-52q-84 0 -154.5 40t-113.5 111l-24 44q-5 -46 -42 -91.5t-95.5 -74.5t-123.5 -29h-515v133h550q55 0 96 33.5z" />
    <glyph glyph-name="uniFEAC" unicode="&#x630;" horiz-adv-x="1205" arabic-form="final" 
d="M731 166.5q41 33.5 54.5 81t-7.5 85.5l-309 566l117 64l391 -720q27 -50 73 -76.5t103 -26.5h52v-140h-52q-84 0 -154.5 40t-113.5 111l-24 44q-5 -46 -42 -91.5t-95.5 -74.5t-123.5 -29h-515v133h550q55 0 96 33.5zM464 1215q-1 76 0 150h188q1 -74 0 -150h-188z" />
    <glyph glyph-name="uniFEAE" unicode="&#x631;" horiz-adv-x="880" arabic-form="final" 
d="M673 45q-74 45 -119 121v-140q-1 -140 -66.5 -256.5t-181 -194t-260.5 -105.5l-56 -11l-28 137l67 14q110 21 199.5 82t141 151.5t51.5 194.5v647h133v-281q4 -73 43 -133.5t101.5 -95.5t136.5 -35h45v-140h-45q-88 0 -162 45z" />
    <glyph glyph-name="uniFEB0" unicode="&#x632;" horiz-adv-x="880" arabic-form="final" 
d="M673 45q-74 45 -119 121v-140q-1 -140 -66.5 -256.5t-181 -194t-260.5 -105.5l-56 -11l-28 137l67 14q110 21 199.5 82t141 151.5t51.5 194.5v647h133v-281q4 -73 43 -133.5t101.5 -95.5t136.5 -35h45v-140h-45q-88 0 -162 45zM394 985q-1 76 0 150h188q1 -74 0 -150
h-188z" />
    <glyph glyph-name="uniFEB2" unicode="&#x633;" horiz-adv-x="2878" arabic-form="final" 
d="M1300 685h133l1 -323q-1 -91 61 -156.5t146 -65.5h34q91 0 149 64.5t58 159.5v321h133v-321q0 -95 57.5 -159.5t149.5 -64.5h34q92 0 149.5 64.5t57.5 159.5v321h133v-321q0 -93 65.5 -158.5t158.5 -65.5h58v-140h-58q-97 0 -173 50t-115 131q-38 -83 -109 -132t-167 -49
h-34q-94 0 -164.5 49t-109.5 131q-37 -81 -107.5 -130.5t-165.5 -49.5h-34q-64 0 -120 32t-90 86v-79q-4 -166 -73.5 -298t-197.5 -210.5t-282 -78.5l-164 1q-218 0 -334 80t-176 217t-60 279q0 156 35.5 275.5t73.5 220.5l124 -51q-28 -69 -64 -182.5t-37 -248.5
q1 -180 89.5 -314.5t348.5 -135.5l164 -1q117 0 212.5 57t152 160.5t56.5 257.5z" />
    <glyph glyph-name="uniFEB3" unicode="&#x633;" horiz-adv-x="1746" arabic-form="initial" 
d="M70 140q61 0 112.5 30t81.5 81.5t30 112.5v321h132l1 -321q0 -61 28.5 -112.5t76 -81.5t102.5 -30h34q60 0 107.5 30t73.5 81t26 113v321h133v-321q0 -93 58 -158.5t149 -65.5h34q92 0 149.5 65.5t57.5 158.5v321h133v-328q0 -98 -44 -180t-121.5 -129.5t-174.5 -47.5
h-34q-93 0 -164 48.5t-109 131.5q-39 -83 -109.5 -131.5t-164.5 -48.5h-34q-90 0 -162.5 50t-111.5 133q-40 -84 -116.5 -133.5t-173.5 -49.5h-70q-39 14 -54 42t0 56t54 42h70z" />
    <glyph glyph-name="uniFEB4" unicode="&#x633;" horiz-adv-x="1871" arabic-form="medial" 
d="M70 140q61 0 112.5 30t81.5 81.5t30 112.5v321h133v-321q0 -61 28.5 -112.5t76 -81.5t102.5 -30h34q60 0 107.5 30t73.5 81t26 113v321h133v-321q0 -93 58 -158.5t149 -65.5h34q92 0 149.5 65.5t57.5 158.5l1 321h133l-1 -321q0 -61 30 -112.5t81.5 -81.5t112.5 -30h58
v-140h-58q-96 0 -172.5 49t-116.5 131q-37 -83 -108 -131.5t-167 -48.5h-34q-93 0 -164 48.5t-109 131.5q-39 -83 -109.5 -131.5t-164.5 -48.5h-34q-90 0 -162.5 50t-111.5 133q-40 -84 -116.5 -133.5t-173.5 -49.5h-70q-39 14 -54 42t0 56t54 42h70z" />
    <glyph glyph-name="uniFEB6" unicode="&#x634;" horiz-adv-x="2878" arabic-form="final" 
d="M1300 685h133l1 -323q-1 -91 61 -156.5t146 -65.5h34q91 0 149 64.5t58 159.5v321h133v-321q0 -95 57.5 -159.5t149.5 -64.5h34q92 0 149.5 64.5t57.5 159.5v321h133v-321q0 -93 65.5 -158.5t158.5 -65.5h58v-140h-58q-97 0 -173 50t-115 131q-38 -83 -109 -132t-167 -49
h-34q-94 0 -164.5 49t-109.5 131q-37 -81 -107.5 -130.5t-165.5 -49.5h-34q-64 0 -120 32t-90 86v-79q-4 -166 -73.5 -298t-197.5 -210.5t-282 -78.5l-164 1q-218 0 -334 80t-176 217t-60 279q0 156 35.5 275.5t73.5 220.5l124 -51q-28 -69 -64 -182.5t-37 -248.5
q1 -180 89.5 -314.5t348.5 -135.5l164 -1q117 0 212.5 57t152 160.5t56.5 257.5zM1695 985q-1 71 0 150q93 -1 178 0v-150h-178zM2025 985v150h178q1 -78 0 -150h-178zM1861 1297q-1 72 0 143q88 -1 176 0q1 -71 0 -143h-176z" />
    <glyph glyph-name="uniFEB7" unicode="&#x634;" horiz-adv-x="1746" arabic-form="initial" 
d="M70 140q61 0 112.5 30t81.5 81.5t30 112.5v321h132l1 -321q0 -61 28.5 -112.5t76 -81.5t102.5 -30h34q60 0 107.5 30t73.5 81t26 113v321h133v-321q0 -93 58 -158.5t149 -65.5h34q92 0 149.5 65.5t57.5 158.5v321h133v-328q0 -98 -44 -180t-121.5 -129.5t-174.5 -47.5
h-34q-93 0 -164 48.5t-109 131.5q-39 -83 -109.5 -131.5t-164.5 -48.5h-34q-90 0 -162.5 50t-111.5 133q-40 -84 -116.5 -133.5t-173.5 -49.5h-70q-39 14 -54 42t0 56t54 42h70zM687 985q-1 71 0 150q93 -1 178 0v-150h-178zM1017 985v150h178q1 -78 0 -150h-178zM853 1297
q-1 72 0 143q88 -1 176 0q1 -71 0 -143h-176z" />
    <glyph glyph-name="uniFEB8" unicode="&#x634;" horiz-adv-x="1871" arabic-form="medial" 
d="M70 140q61 0 112.5 30t81.5 81.5t30 112.5v321h133v-321q0 -61 28.5 -112.5t76 -81.5t102.5 -30h34q60 0 107.5 30t73.5 81t26 113v321h133v-321q0 -93 58 -158.5t149 -65.5h34q92 0 149.5 65.5t57.5 158.5l1 321h133l-1 -321q0 -61 30 -112.5t81.5 -81.5t112.5 -30h58
v-140h-58q-96 0 -172.5 49t-116.5 131q-37 -83 -108 -131.5t-167 -48.5h-34q-93 0 -164 48.5t-109 131.5q-39 -83 -109.5 -131.5t-164.5 -48.5h-34q-90 0 -162.5 50t-111.5 133q-40 -84 -116.5 -133.5t-173.5 -49.5h-70q-39 14 -54 42t0 56t54 42h70zM687 985q-1 71 0 150
q93 -1 178 0v-150h-178zM1017 985v150h178q1 -78 0 -150h-178zM853 1297q-1 72 0 143q88 -1 176 0q1 -71 0 -143h-176z" />
    <glyph glyph-name="uniFEBA" unicode="&#x635;" horiz-adv-x="2919" arabic-form="final" 
d="M2219 140q129 0 217.5 89t88.5 213q0 135 -78.5 222.5t-218.5 80.5q-161 -7 -272 -194.5t-153 -295.5t-46 -115h462zM1299 685h134l1 -329q-1 -83 55.5 -145t144.5 -69q70 237 213 482t377 254q143 5 241.5 -58.5t145.5 -165.5t47 -212q0 -102 -46 -193q73 -53 136 -81
t145 -28h26v-140h-26q-106 0 -184 37.5t-169 106.5q-53 -63 -135 -103.5t-186 -40.5h-526q-83 0 -150.5 37.5t-110.5 98.5v-82q-2 -174 -73 -309.5t-199 -214t-282 -78.5l-164 1q-218 0 -334 80t-176 217t-60 279q0 156 35.5 275.5t73.5 220.5l124 -51q-28 -69 -64 -182.5
t-37 -248.5q1 -180 89.5 -314.5t348.5 -135.5l164 -1q117 0 212.5 57t152 159.5t56.5 252.5v624z" />
    <glyph glyph-name="uniFEBB" unicode="&#x635;" horiz-adv-x="1777" arabic-form="initial" 
d="M1195 140q84 0 154.5 40.5t111 110t40.5 151.5q0 87 -35 157.5t-102 110.5t-160 35q-82 -4 -155.5 -66t-130.5 -151t-94 -171t-73 -173q-14 -34 -18 -44h462zM52 140q61 0 112.5 30t81.5 81.5t30 112.5l1 321h132v-328q0 -80 56.5 -143.5t144.5 -71.5v3
q37 122 103.5 277.5t192.5 302.5t293 153q144 5 242 -58.5t145.5 -165.5t47.5 -212q0 -118 -57.5 -219.5t-158 -162t-223.5 -60.5h-562q-98 0 -174 50t-116 133q-40 -83 -116.5 -133t-174.5 -50h-52q-39 14 -54 42t0 56t54 42h52z" />
    <glyph glyph-name="uniFEBC" unicode="&#x635;" horiz-adv-x="1894" arabic-form="medial" 
d="M1195 140q84 0 154.5 40.5t111 110t40.5 151.5q0 87 -35 157.5t-102 110.5t-160 35q-82 -4 -155.5 -66t-130.5 -151t-94 -171t-73 -173q-14 -34 -18 -44h462zM52 140q61 0 112.5 30t81.5 81.5t30 112.5l1 321h132v-328q0 -80 56.5 -143.5t144.5 -71.5v3
q37 122 103.5 277.5t192.5 302.5t293 153q144 5 242 -58.5t145.5 -165.5t47.5 -212q0 -102 -46 -193q79 -55 139 -82t142 -27h25v-140h-26q-105 0 -182.5 37t-169.5 107q-59 -68 -142 -106t-179 -38h-562q-98 0 -174 50t-116 133q-40 -83 -116.5 -133t-174.5 -50h-52
q-39 14 -54 42t0 56t54 42h52z" />
    <glyph glyph-name="uniFEBE" unicode="&#x636;" horiz-adv-x="2919" arabic-form="final" 
d="M2219 140q129 0 217.5 89t88.5 213q0 135 -78.5 222.5t-218.5 80.5q-161 -7 -272 -194.5t-153 -295.5t-46 -115h462zM1299 685h134l1 -329q-1 -83 55.5 -145t144.5 -69q70 237 213 482t377 254q143 5 241.5 -58.5t145.5 -165.5t47 -212q0 -102 -46 -193q73 -53 136 -81
t145 -28h26v-140h-26q-106 0 -184 37.5t-169 106.5q-53 -63 -135 -103.5t-186 -40.5h-526q-83 0 -150.5 37.5t-110.5 98.5v-82q-2 -174 -73 -309.5t-199 -214t-282 -78.5l-164 1q-218 0 -334 80t-176 217t-60 279q0 156 35.5 275.5t73.5 220.5l124 -51q-28 -69 -64 -182.5
t-37 -248.5q1 -180 89.5 -314.5t348.5 -135.5l164 -1q117 0 212.5 57t152 159.5t56.5 252.5v624zM2087 1169q-1 76 0 150h188q1 -74 0 -150h-188z" />
    <glyph glyph-name="uniFEBF" unicode="&#x636;" horiz-adv-x="1777" arabic-form="initial" 
d="M1195 140q84 0 154.5 40.5t111 110t40.5 151.5q0 87 -35 157.5t-102 110.5t-160 35q-82 -4 -155.5 -66t-130.5 -151t-94 -171t-73 -173q-14 -34 -18 -44h462zM52 140q61 0 112.5 30t81.5 81.5t30 112.5l1 321h132v-328q0 -80 56.5 -143.5t144.5 -71.5v3
q37 122 103.5 277.5t192.5 302.5t293 153q144 5 242 -58.5t145.5 -165.5t47.5 -212q0 -118 -57.5 -219.5t-158 -162t-223.5 -60.5h-562q-98 0 -174 50t-116 133q-40 -83 -116.5 -133t-174.5 -50h-52q-39 14 -54 42t0 56t54 42h52zM1050 1169q-1 76 0 150h188q1 -74 0 -150
h-188z" />
    <glyph glyph-name="uniFEC0" unicode="&#x636;" horiz-adv-x="1894" arabic-form="medial" 
d="M1195 140q84 0 154.5 40.5t111 110t40.5 151.5q0 87 -35 157.5t-102 110.5t-160 35q-82 -4 -155.5 -66t-130.5 -151t-94 -171t-73 -173q-14 -34 -18 -44h462zM52 140q61 0 112.5 30t81.5 81.5t30 112.5l1 321h132v-328q0 -80 56.5 -143.5t144.5 -71.5v3
q37 122 103.5 277.5t192.5 302.5t293 153q144 5 242 -58.5t145.5 -165.5t47.5 -212q0 -102 -46 -193q79 -55 139 -82t142 -27h25v-140h-26q-105 0 -182.5 37t-169.5 107q-59 -68 -142 -106t-179 -38h-562q-98 0 -174 50t-116 133q-40 -83 -116.5 -133t-174.5 -50h-52
q-39 14 -54 42t0 56t54 42h52zM1050 1169q-1 76 0 150h188q1 -74 0 -150h-188z" />
    <glyph glyph-name="uniFEC2" unicode="&#x637;" horiz-adv-x="1643" arabic-form="final" 
d="M1617 0q-97 0 -169.5 31t-166.5 91q-14 9 -22 14q-59 -64 -140 -100t-174 -36h-789v140h194q1 2 4 12q22 73 46 134l1 1209h132v-551l-2 -434q48 93 113 177.5t141.5 136t163.5 54.5q144 5 242 -58.5t145.5 -165.5t47.5 -212q0 -107 -51 -201q8 -4 24 -14
q77 -44 132.5 -65.5t127.5 -21.5h26v-140h-26zM1099.5 180.5q70.5 40.5 111 110t40.5 151.5q0 87 -35 157.5t-102 110.5t-160 35q-82 -4 -155.5 -66t-130.5 -151t-94 -171t-73 -173q-14 -34 -18 -44h462q84 0 154.5 40.5z" />
    <glyph glyph-name="uniFEC3" unicode="&#x637;" horiz-adv-x="1457" arabic-form="initial" 
d="M566 687.5q65 84.5 141.5 136t163.5 54.5q143 5 241.5 -58.5t145.5 -165.5t47 -212q0 -118 -57 -219.5t-157.5 -162t-224.5 -60.5h-866q-39 14 -53.5 42t0 56t53.5 42h272q1 2 4 12q22 73 46 134v1209h133v-551l-2 -434q48 93 113 177.5zM1021 180.5q70 40.5 111 110
t41 151.5q0 87 -35 157.5t-102 110.5t-160 35q-83 -4 -156 -66t-130 -151t-94.5 -171t-73.5 -173q-13 -34 -17 -44h461q85 0 155 40.5z" />
    <glyph glyph-name="uniFEC4" unicode="&#x637;" horiz-adv-x="1564" arabic-form="medial" 
d="M1564 140v-140h-26q-96 0 -169 31t-166 91q-15 9 -22 13q-59 -63 -140 -99t-175 -36h-866q-39 14 -53.5 42t0 56t53.5 42h272q1 2 4 12q22 73 46 134v1209h133v-551l-2 -434q48 93 113 177.5t141.5 136t163.5 54.5q143 5 241.5 -58.5t145.5 -165.5t47 -212
q0 -107 -51 -201q9 -4 25 -14q76 -44 131.5 -65.5t128.5 -21.5h25zM1138 599.5q-35 70.5 -102 110.5t-160 35q-83 -4 -156 -66t-130 -151t-94.5 -171t-73.5 -173q-13 -34 -17 -44h461q85 0 155 40.5t111 110t41 151.5q0 87 -35 157.5z" />
    <glyph glyph-name="uniFEC6" unicode="&#x638;" horiz-adv-x="1627" arabic-form="final" 
d="M1617 0q-97 0 -169.5 31t-166.5 91q-14 9 -22 14q-59 -64 -140 -100t-174 -36h-789v140h194q1 2 4 12q22 73 46 134l1 1209h132v-551l-2 -434q48 93 113 177.5t141.5 136t163.5 54.5q144 5 242 -58.5t145.5 -165.5t47.5 -212q0 -107 -51 -201q8 -4 24 -14
q77 -44 132.5 -65.5t127.5 -21.5h26v-140h-26zM1099.5 180.5q70.5 40.5 111 110t40.5 151.5q0 87 -35 157.5t-102 110.5t-160 35q-82 -4 -155.5 -66t-130.5 -151t-94 -171t-73 -173q-14 -34 -18 -44h462q84 0 154.5 40.5zM900 1163q-1 76 0 150h188q1 -74 0 -150h-188z" />
    <glyph glyph-name="uniFEC7" unicode="&#x638;" horiz-adv-x="1456" arabic-form="initial" 
d="M566 687.5q65 84.5 141.5 136t163.5 54.5q143 5 241.5 -58.5t145.5 -165.5t47 -212q0 -118 -57 -219.5t-157.5 -162t-224.5 -60.5h-866q-39 14 -53.5 42t0 56t53.5 42h272q1 2 4 12q22 73 46 134v1209h133v-551l-2 -434q48 93 113 177.5zM1021 180.5q70 40.5 111 110
t41 151.5q0 87 -35 157.5t-102 110.5t-160 35q-83 -4 -156 -66t-130 -151t-94.5 -171t-73.5 -173q-13 -34 -17 -44h461q85 0 155 40.5zM828 1163q-1 76 0 150h188q1 -74 0 -150h-188z" />
    <glyph glyph-name="uniFEC8" unicode="&#x638;" horiz-adv-x="1548" arabic-form="medial" 
d="M1564 140v-140h-26q-96 0 -169 31t-166 91q-15 9 -22 13q-59 -63 -140 -99t-175 -36h-866q-39 14 -53.5 42t0 56t53.5 42h272q1 2 4 12q22 73 46 134v1209h133v-551l-2 -434q48 93 113 177.5t141.5 136t163.5 54.5q143 5 241.5 -58.5t145.5 -165.5t47 -212
q0 -107 -51 -201q9 -4 25 -14q76 -44 131.5 -65.5t128.5 -21.5h25zM1138 599.5q-35 70.5 -102 110.5t-160 35q-83 -4 -156 -66t-130 -151t-94.5 -171t-73.5 -173q-13 -34 -17 -44h461q85 0 155 40.5t111 110t41 151.5q0 87 -35 157.5zM828 1163q-1 76 0 150h188
q1 -74 0 -150h-188z" />
    <glyph glyph-name="uniFECA" unicode="&#x639;" horiz-adv-x="1383" arabic-form="final" 
d="M645 -709q-138 0 -254 53t-183.5 152t-64.5 231q4 138 108.5 250.5t321.5 209.5l-366 540l50 121h708q88 0 147 -59t65.5 -142t-50.5 -150l-305 -330q35 -18 85.5 -22.5t170.5 -4.5h305v-140h-323q-127 0 -185 4.5t-104.5 25t-94.5 67.5q-16 -8 -60 -27q-20 -9 -30 -13
q-106 -61 -169 -106.5t-101 -100t-40 -123.5q-2 -96 47 -162.5t134 -100t188 -33.5h480v-140h-480zM705 205l323 355q26 32 24.5 68.5t-28 62t-65.5 25.5h-605z" />
    <glyph glyph-name="uniFECB" unicode="&#x639;" horiz-adv-x="1145" arabic-form="initial" 
d="M386 140q-67 41 -106.5 124t-39.5 168q0 120 49 220.5t136 161t197 66.5q92 4 180.5 -27t156.5 -80l-31 -133q-71 53 -147.5 81.5t-146.5 25.5q-77 -2 -136.5 -45.5t-92 -114.5t-32.5 -155q0 -72 32 -138.5t92 -109t139 -44.5q71 -4 179.5 8t174.5 39v-134
q-69 -26 -178 -39.5t-176 -13.5h-636q-39 14 -54 42t0 56t54 42h386z" />
    <glyph glyph-name="uniFECC" unicode="&#x639;" horiz-adv-x="1363" arabic-form="medial" 
d="M685 197l323 342q26 31 24 67.5t-28 62t-66 25.5h-603zM392 140q61 0 106.5 10.5t53.5 28.5l-365 528l50 120h708q88 0 147 -59t65.5 -142.5t-49.5 -150.5l-285 -296q11 -19 56.5 -29t107.5 -10h376v-140h-401q-121 0 -179 20.5t-95 50.5q-6 5 -8 7q-3 -2 -9 -7
q-38 -30 -95.5 -50.5t-178.5 -20.5h-397q-39 14 -54 42t0 56t54 42h392z" />
    <glyph glyph-name="uniFECE" unicode="&#x63a;" horiz-adv-x="1377" arabic-form="final" 
d="M645 -709q-138 0 -254 53t-183.5 152t-64.5 231q4 138 108.5 250.5t321.5 209.5l-366 540l50 121h708q88 0 147 -59t65.5 -142t-50.5 -150l-305 -330q35 -18 85.5 -22.5t170.5 -4.5h305v-140h-323q-127 0 -185 4.5t-104.5 25t-94.5 67.5q-16 -8 -60 -27q-20 -9 -30 -13
q-106 -61 -169 -106.5t-101 -100t-40 -123.5q-2 -96 47 -162.5t134 -100t188 -33.5h480v-140h-480zM705 205l323 355q26 32 24.5 68.5t-28 62t-65.5 25.5h-605zM613 1198q-1 76 0 150h188q1 -74 0 -150h-188z" />
    <glyph glyph-name="uniFECF" unicode="&#x63a;" horiz-adv-x="1145" arabic-form="initial" 
d="M386 140q-67 41 -106.5 124t-39.5 168q0 120 49 220.5t136 161t197 66.5q92 4 180.5 -27t156.5 -80l-31 -133q-71 53 -147.5 81.5t-146.5 25.5q-77 -2 -136.5 -45.5t-92 -114.5t-32.5 -155q0 -72 32 -138.5t92 -109t139 -44.5q71 -4 179.5 8t174.5 39v-134
q-69 -26 -178 -39.5t-176 -13.5h-636q-39 14 -54 42t0 56t54 42h386zM523 1173q-1 76 0 150h188q1 -74 0 -150h-188z" />
    <glyph glyph-name="uniFED0" unicode="&#x63a;" horiz-adv-x="1363" arabic-form="medial" 
d="M685 197l323 342q26 31 24 67.5t-28 62t-66 25.5h-603zM392 140q61 0 106.5 10.5t53.5 28.5l-365 528l50 120h708q88 0 147 -59t65.5 -142.5t-49.5 -150.5l-285 -296q11 -19 56.5 -29t107.5 -10h376v-140h-401q-121 0 -179 20.5t-95 50.5q-6 5 -8 7q-3 -2 -9 -7
q-38 -30 -95.5 -50.5t-178.5 -20.5h-397q-39 14 -54 42t0 56t54 42h392zM595 1126q-1 76 0 150h188q1 -74 0 -150h-188z" />
    <glyph glyph-name="uniFED2" unicode="&#x641;" horiz-adv-x="1989" arabic-form="final" 
d="M1268.5 747.5q-60.5 -29.5 -97 -87t-36.5 -137.5q0 -135 88.5 -234.5t175.5 -151.5q86 52 175 151.5t89 234.5q0 80 -37 137.5t-97.5 87t-129.5 29.5q-70 0 -130.5 -29.5zM527 140h695q-81 60 -148.5 161t-67.5 221q0 112 52 199.5t142 136t199 48.5t198.5 -48.5
t141.5 -136t52 -199.5q0 -120 -67.5 -221t-148.5 -161h415v-140h-452q-57 0 -95 11t-44 24q-7 -13 -44.5 -24t-95.5 -11h-733zM305 308.5q24 -76.5 84 -122.5t141 -46l-1 -140q-119 0 -213.5 67t-135.5 181.5t-9 247.5l53 208l132 -38l-54 -196q-21 -85 3 -161.5zM1296 1187
q-1 76 0 150h188q1 -74 0 -150h-188z" />
    <glyph glyph-name="uniFED3" unicode="&#x641;" horiz-adv-x="1115" arabic-form="initial" 
d="M813 324q27 101 27 211q0 88 -37.5 151.5t-97.5 96.5t-125 33q-68 0 -128 -36t-96 -96.5t-36 -129.5q1 -75 44 -155.5t134.5 -140t227.5 -69.5q60 34 87 135zM-54 42q-15 28 0 56t54 42h219q300 0 351 10q-133 14 -218 81.5t-122.5 154.5t-38.5 165q0 105 53.5 195.5
t143 144t192.5 52.5q103 0 192.5 -51.5t143 -145t53.5 -212.5q0 -160 -42.5 -280.5t-125 -187t-200.5 -66.5h-601q-39 14 -54 42zM486 1224q-1 76 0 150h188q1 -74 0 -150h-188z" />
    <glyph glyph-name="uniFED4" unicode="&#x641;" horiz-adv-x="1182" arabic-form="medial" 
d="M461 747.5q-60 -29.5 -97 -87t-37 -137.5q0 -135 89 -234.5t175 -151.5q87 53 175.5 152t88.5 234q0 80 -37 137.5t-97 87t-130 29.5t-130 -29.5zM414 140q-80 59 -148 160.5t-68 221.5q0 112 52.5 199.5t142 136t198.5 48.5t199 -48.5t142 -136t52 -199.5
q0 -120 -68 -221t-148 -161h414v-140h-451q-58 0 -95.5 11t-44.5 24q-6 -13 -44 -24t-95 -11h-452q-39 14 -54 42t0 56t54 42h414zM497 1187q-1 76 0 150h188q1 -74 0 -150h-188z" />
    <glyph glyph-name="uniFED6" unicode="&#x642;" horiz-adv-x="1758" arabic-form="final" 
d="M1396 402q0 118 -60 206.5t-191 88.5q-119 0 -186 -84.5t-67 -210.5q0 -134 61 -198.5t192 -64.5h251v263zM1522 140h241v-140h-241q-2 -158 -73.5 -280t-203 -194.5t-318.5 -72.5h-213q-217 0 -333.5 80t-176.5 217t-60 279q0 177 28.5 286t66.5 210l124 -51
q-28 -69 -57 -172t-29 -259q0 -180 89 -317.5t348 -138.5h215q224 0 344 109.5t122 303.5h-261q-188 0 -280 103t-92 300q0 128 50.5 222t136 147.5t196.5 53.5q169 0 273 -117.5t104 -305.5v-263zM874 1104q-1 71 0 150q93 -1 178 0v-150h-178zM1204 1104v150h178
q1 -78 0 -150h-178z" />
    <glyph glyph-name="uniFED7" unicode="&#x642;" horiz-adv-x="1115" arabic-form="initial" 
d="M813 324q27 101 27 211q0 88 -37.5 151.5t-97.5 96.5t-125 33q-68 0 -128 -36t-96 -96.5t-36 -129.5q1 -75 44 -155.5t134.5 -140t227.5 -69.5q60 34 87 135zM-54 42q-15 28 0 56t54 42h219q300 0 351 10q-133 14 -218 81.5t-122.5 154.5t-38.5 165q0 105 53.5 195.5
t143 144t192.5 52.5q103 0 192.5 -51.5t143 -145t53.5 -212.5q0 -160 -42.5 -280.5t-125 -187t-200.5 -66.5h-601q-39 14 -54 42zM326 1224q-1 71 0 150q93 -1 178 0v-150h-178zM656 1224v150h178q1 -78 0 -150h-178z" />
    <glyph glyph-name="uniFED8" unicode="&#x642;" horiz-adv-x="1182" arabic-form="medial" 
d="M461 747.5q-60 -29.5 -97 -87t-37 -137.5q0 -135 89 -234.5t175 -151.5q87 53 175.5 152t88.5 234q0 80 -37 137.5t-97 87t-130 29.5t-130 -29.5zM414 140q-80 59 -148 160.5t-68 221.5q0 112 52.5 199.5t142 136t198.5 48.5t199 -48.5t142 -136t52 -199.5
q0 -120 -68 -221t-148 -161h414v-140h-451q-58 0 -95.5 11t-44.5 24q-6 -13 -44 -24t-95 -11h-452q-39 14 -54 42t0 56t54 42h414zM337 1190q-1 71 0 150q93 -1 178 0v-150h-178zM667 1190v150h178q1 -78 0 -150h-178z" />
    <glyph glyph-name="uniFEDA" unicode="&#x643;" horiz-adv-x="1982" arabic-form="final" 
d="M511.5 62.5q0.5 43.5 15.5 77.5h799q61 0 112 30t81.5 81.5t30.5 112.5v1146h132v-1146q0 -61 30 -112.5t81.5 -81.5t112.5 -30h76v-140h-76q-97 0 -173.5 50t-116.5 133q-40 -83 -116.5 -133t-173.5 -50h-797q-18 19 -17.5 62.5zM305 308.5q24 -76.5 84 -122.5t141 -46
l-1 -140q-119 0 -213.5 67t-135.5 181.5t-9 247.5l53 208l132 -38l-54 -196q-21 -85 3 -161.5zM731 552l136 54q-56 21 -91.5 71.5t-35.5 113.5q0 55 27 105t76.5 80.5t112.5 30.5q40 0 70 -10t70 -29l6 -3l-21 -72q-5 2 -15 7q-32 14 -56 21.5t-54 7.5q-59 0 -98.5 -42
t-39.5 -96q-1 -52 36.5 -93.5t102.5 -55.5l202 80v-83l-428 -171v84z" />
    <glyph glyph-name="uniFEDB" unicode="&#x643;" horiz-adv-x="1086" arabic-form="initial" 
d="M618 140q70 0 116.5 48t49 114.5t-45.5 117.5l-597 624v133l772 312l47 -124l-679 -276l560 -585q65 -68 78.5 -155t-21 -167.5t-106.5 -131t-168 -50.5h-624q-39 14 -54 42t0 56t54 42h618z" />
    <glyph glyph-name="uniFEDC" unicode="&#x643;" horiz-adv-x="1301" arabic-form="medial" 
d="M618 140q69 0 115 46t50.5 111.5t-39.5 116.5l-603 630v133l772 312l47 -124l-679 -276l858 -898q24 -24 57 -37.5t70 -13.5h35v-140h-35q-61 0 -117.5 24t-99.5 69l-166 174q0 -68 -37 -129.5t-103.5 -99.5t-153.5 -38h-589q-39 14 -54 42t0 56t54 42h618z" />
    <glyph glyph-name="uniFEDE" unicode="&#x644;" horiz-adv-x="1707" arabic-form="final" 
d="M1427 356q3 -88 67 -152.5t157 -64.5h56v-140h-56q-69 0 -129.5 35.5t-95.5 91.5zM714 -547q-217 0 -333.5 80t-176.5 216.5t-60 279.5q0 155 35.5 275t73.5 221l124 -52q-28 -68 -64 -181.5t-36 -248.5q0 -180 89 -314.5t348 -135.5l159 -1q117 0 212.5 57t152 160.5
t56.5 257.5v1427h134l-1 -1423q1 -185 -71.5 -323.5t-201 -217t-281.5 -78.5z" />
    <glyph glyph-name="uniFEDF" unicode="&#x644;" horiz-adv-x="666" arabic-form="initial" 
d="M107 140q61 0 112.5 30t81.5 81.5t30 112.5v1131h133v-1138q0 -97 -48 -179t-130 -130t-179 -48h-107q-39 14 -54 42t0 56t54 42h107z" />
    <glyph glyph-name="uniFEE0" unicode="&#x644;" horiz-adv-x="743" arabic-form="medial" 
d="M107 140q61 0 112.5 30t81.5 81.5t30 112.5v1131h133v-1131q0 -61 30 -112.5t81.5 -81.5t112.5 -30h55v-140h-55q-98 0 -174.5 50t-116.5 133q-39 -83 -115.5 -133t-174.5 -50h-107q-39 14 -54 42t0 56t54 42h107z" />
    <glyph glyph-name="uniFEE2" unicode="&#x645;" horiz-adv-x="1577" arabic-form="final" 
d="M1577 140v-140h-59q-95 0 -170.5 50.5t-113.5 138.5l60 241q-1 -92 29 -157.5t81 -99t114 -33.5h59zM1128 219q40 77 38 217q-2 117 -64 213.5t-172 96.5q-108 0 -175.5 -91.5t-93.5 -247.5q-22 -106 -44 -197q60 -29 156.5 -48.5t211.5 -19.5q103 0 143 77zM671 752
q101 122 260 123q105 0 187 -58.5t128 -158.5t48 -222q4 -193 -74.5 -310.5t-235.5 -117.5q-156 0 -303 39q-65 18 -105 38t-78 45q-21 14 -30 18l66 282q36 200 137 322zM595 205l-23 -123l-283 118v-151v-677h-133v868l106 102z" />
    <glyph glyph-name="uniFEE3" unicode="&#x645;" horiz-adv-x="1207" arabic-form="initial" 
d="M892.5 215.5q40.5 86.5 38.5 230.5q-2 116 -63 206.5t-170 90.5q-219 1 -272 -326q-2 -12 -11 -60q-10 -49 -11 -55q70 -76 153 -124.5t193 -48.5q102 0 142.5 86.5zM431.5 749.5q104.5 122.5 267.5 122.5q104 0 185 -56.5t127 -155t48 -220.5q3 -126 -30.5 -227
t-104 -159.5t-174.5 -58.5q-113 0 -224 55t-182 141q-2 -6 -9 -21q-33 -66 -98 -118t-154 -52h-83q-40 14 -54 42t0 56t54 42h83q94 0 141 78.5t64 162.5l6 34q33 212 137.5 334.5z" />
    <glyph glyph-name="uniFEE4" unicode="&#x645;" horiz-adv-x="1335" arabic-form="medial" 
d="M1335 140v-140h-58q-96 0 -171.5 52t-113.5 147l67 235q-4 -93 24 -159.5t79 -100.5t115 -34h58zM892.5 215.5q40.5 86.5 38.5 230.5q-2 116 -63 206.5t-170 90.5q-219 1 -272 -326q-2 -12 -11 -60q-10 -49 -11 -55q70 -76 153 -124.5t193 -48.5q102 0 142.5 86.5z
M431.5 749.5q104.5 122.5 267.5 122.5q104 0 185 -56.5t127 -155t48 -220.5q3 -126 -30.5 -227t-104 -159.5t-174.5 -58.5q-113 0 -224 55t-182 141q-2 -6 -9 -21q-33 -66 -98 -118t-154 -52h-83q-40 14 -54 42t0 56t54 42h83q94 0 141 78.5t64 162.5l6 34
q33 212 137.5 334.5z" />
    <glyph glyph-name="uniFEE6" unicode="&#x646;" horiz-adv-x="1712" arabic-form="final" 
d="M1433 356q2 -88 66.5 -152.5t157.5 -64.5h55v-140h-55q-69 0 -130 35.5t-95 91.5zM714 -547q-217 0 -333.5 80t-176.5 217t-60 279q0 156 35.5 275.5t73.5 220.5l124 -51q-28 -69 -64 -182.5t-36 -248.5q0 -180 89 -314.5t348 -135.5l165 -1q117 0 212 57t152 160.5
t57 257.5v618h133v-614q1 -185 -71.5 -323.5t-201 -217t-281.5 -78.5zM693 685q-1 76 0 150h188q1 -74 0 -150h-188z" />
    <glyph glyph-name="uniFEE7" unicode="&#x646;" horiz-adv-x="686" arabic-form="initial" 
d="M173 140q61 0 112 30t81.5 81.5t30.5 112.5v321h132v-335q0 -96 -47.5 -176t-129.5 -127t-179 -47h-173q-39 14 -54 42t0 56t54 42h173zM230 985q-1 76 0 150h188q1 -74 0 -150h-188z" />
    <glyph glyph-name="uniFEE8" unicode="&#x646;" horiz-adv-x="809" arabic-form="medial" 
d="M173 140q61 0 112 30t81.5 81.5t30.5 112.5l-1 321h133v-321q0 -61 30.5 -112.5t81.5 -81.5t112 -30h56v-140h-56q-97 0 -173.5 50t-116.5 133q-40 -83 -116.5 -133t-173.5 -50h-173q-39 14 -54 42t0 56t54 42h173zM229 985q-1 76 0 150h188q1 -74 0 -150h-188z" />
    <glyph glyph-name="uniFEEA" unicode="&#x647;" horiz-adv-x="1205" arabic-form="final" 
d="M625 91q-123 -30 -231 -5t-176.5 98.5t-75.5 183.5q-9 155 54.5 279t199 196.5t333.5 74.5l-26 178l132 18l118 -807q11 -72 65.5 -119t127.5 -48h59v-140h-58q-97 1 -175 56t-113 151q-111 -86 -234 -116zM382.5 684q-122.5 -115 -111.5 -302q7 -92 86.5 -143t207 -35
t256.5 116l-70 475q-246 4 -368.5 -111z" />
    <glyph glyph-name="uniFEEB" unicode="&#x647;" horiz-adv-x="1620" arabic-form="initial" 
d="M456 741q-59 -29 -94 -85t-35 -133q0 -135 87 -235.5t170 -150.5q83 51 170 151t87 235q0 77 -35.5 133t-94 85t-127.5 29t-128 -29zM628 11q-38 11 -44 24q-6 -13 -44 -24t-96 -11h-444q-39 14 -54 42t0 56t54 42h407q-78 58 -143.5 159.5t-65.5 222.5q0 108 51 194
t139 134.5t196 48.5t196.5 -48.5t139 -134t50.5 -194.5q0 -121 -65.5 -222.5t-144.5 -160.5h406q72 0 119.5 46.5t53.5 113t-36 120.5l-357 469l102 77l370 -485q55 -73 60.5 -157t-32.5 -158t-108.5 -119.5t-157.5 -45.5h-456q-58 0 -96 11z" />
    <glyph glyph-name="uniFEEC" unicode="&#x647;" horiz-adv-x="1302" arabic-form="medial" 
d="M547 139q94 0 162 42.5t102.5 115t34.5 161.5q0 127 -64.5 203.5t-194.5 76.5q-126 1 -192.5 -87.5t-66.5 -232.5v-279h219zM200 140l-1 279q1 126 47 228t134 161.5t209 58.5q182 -2 283.5 -112t102.5 -297q0 -127 -52 -230t-149.5 -162.5t-225.5 -59.5h-216
q0 -201 97.5 -304t302.5 -103h30l102 235q37 85 102 155t144.5 110.5t156.5 40.5h35v-140h-35q-83 0 -169.5 -64t-142.5 -180l-126 -287l-81 1q-286 0 -417 144t-131 386h-200q-39 14 -54 42t0 56t54 42h200z" />
    <glyph glyph-name="uniFEEE" unicode="&#x648;" horiz-adv-x="1121" arabic-form="final" 
d="M586 -325q89 53 141 138t53 187h-255q-187 0 -279.5 103t-92.5 300q0 121 49.5 217.5t136.5 151t197 54.5q111 0 197 -53.5t133 -150t47 -219.5v-263h208v-140h-209q-4 -142 -70.5 -257t-180.5 -186t-256 -85l-301 -29l-10 137l294 31q109 11 198 64zM787 402
q0 73 -24.5 140t-80.5 111t-146 44q-80 0 -137 -40t-86.5 -107t-29.5 -148q0 -135 62 -199t191 -64h251v263z" />
    <glyph glyph-name="uniFEF2" unicode="&#x64a;" horiz-adv-x="1723" arabic-form="final" 
d="M718 -548q-217 0 -333.5 80.5t-175 217t-58.5 279.5q0 177 27 285.5t65 210.5l124 -52q-28 -69 -55.5 -171.5t-27.5 -258.5q1 -180 87.5 -317t343.5 -139h233q166 0 286.5 69.5t120.5 222.5q0 56 -34 91.5t-83 36.5h-443v133h928v-140h-290q52 -45 53 -118
q-2 -115 -61 -209t-180.5 -157.5t-296.5 -63.5h-230zM532 -974q-1 79 0 150h178v-150h-178zM862 -974v150h178q1 -71 0 -150h-178z" />
    <glyph glyph-name=".notdef" horiz-adv-x="1300" 
d="M1164 0h-1028v1400h1028v-1400zM279 1257v-1114h742v1114h-742z" />
    <glyph glyph-name=".null" 
 />
    <glyph glyph-name="uni000D" unicode="&#xd;" 
 />
    <glyph glyph-name="space" unicode=" " horiz-adv-x="481" 
 />
    <glyph glyph-name="exclam" unicode="!" horiz-adv-x="516" 
d="M199 335q-6 192 -10 380.5t-4 380.5v347h148v-347q0 -192 -3 -380.5t-8 -380.5h-123zM178 0v126h161v-126h-161z" />
    <glyph glyph-name="quotedbl" unicode="&#x22;" horiz-adv-x="683" 
d="M428 1061v382h139l-27 -382h-112zM115 1061v382h139l-27 -382h-112z" />
    <glyph glyph-name="numbersign" unicode="#" horiz-adv-x="1555" 
d="M195 0l130 413h-210v107h244l124 401h-260v109h295l130 413h134l-131 -413h447l130 413h134l-131 -413h209v-109h-243l-126 -401h262v-107h-296l-130 -413h-131l129 413h-448l-130 -413h-132zM491 520h448l124 401h-446z" />
    <glyph glyph-name="dollar" unicode="$" horiz-adv-x="1237" 
d="M671 93q64 6 121 22.5t100 48.5t68 82t25 122q0 75 -26.5 122.5t-71 79t-101 51t-115.5 36.5v-564zM251 1073q0 -70 27.5 -114.5t71 -73.5t98 -46t108.5 -34v541q-63 -6 -119 -22t-97.5 -47.5t-65 -81t-23.5 -122.5zM156 42v116q99 -35 201 -51.5t206 -17.5v598
q-82 23 -161.5 48t-142 66.5t-101.5 106.5t-39 168q0 99 36.5 169.5t97.5 116.5t141.5 70t168.5 30v173h108v-171q38 0 85.5 -3.5t96 -10.5t95 -16.5t81.5 -23.5v-116q-86 32 -176.5 44t-181.5 13v-574q85 -20 165.5 -48t142.5 -74.5t100 -115.5t38 -171q0 -101 -36.5 -171
t-98 -115.5t-142 -68.5t-169.5 -30v-176h-108v172q-104 1 -206.5 13t-200.5 50z" />
    <glyph glyph-name="percent" unicode="%" horiz-adv-x="1567" 
d="M419 825q-146 0 -225 81t-79 225q0 151 72 242.5t232 91.5q159 0 231 -91.5t72 -242.5q0 -144 -79 -225t-224 -81zM327 0l767 1443h142l-769 -1443h-140zM419 921q107 0 154.5 54t47.5 158q0 106 -43.5 171t-158.5 65q-116 0 -159 -65.5t-43 -170.5q0 -101 48.5 -156.5
t153.5 -55.5zM1148 -22q-145 0 -223.5 80t-78.5 225q0 151 71.5 242.5t230.5 91.5q160 0 232 -91.5t72 -242.5q0 -145 -79 -225t-225 -80zM1148 73q108 0 155.5 54t47.5 158q0 105 -43.5 170t-159.5 65q-115 0 -158 -65t-43 -170q0 -101 48.5 -156.5t152.5 -55.5z" />
    <glyph glyph-name="ampersand" unicode="&#x26;" horiz-adv-x="1465" 
d="M594 -22q-82 0 -167 19.5t-154.5 62.5t-113.5 111t-44 164q0 85 32 152.5t82.5 123t115 100.5t129.5 84q-36 36 -75 75.5t-70.5 83t-52 92t-20.5 105.5q0 76 27 134t73.5 98.5t109 61t134.5 20.5q73 0 135 -20.5t106.5 -60.5t69.5 -98.5t25 -134.5q0 -67 -21.5 -121
t-57.5 -100t-83 -84t-98 -73l411 -419q29 63 35 124.5t6 130.5h120v-52q0 -75 -18 -149t-57 -140l196 -196l-91 -82l-186 189q-44 -56 -101 -95t-122.5 -62.5t-135 -33.5t-139.5 -10zM583 843q45 29 86 57.5t72.5 63t50 78.5t18.5 104q0 104 -52.5 157t-155.5 53
q-101 0 -160 -54t-59 -156q0 -50 19 -92t48.5 -78t64.5 -68.5t68 -64.5zM594 88q59 0 117 8.5t110.5 28.5t98 53.5t80.5 84.5l-433 442q-57 -30 -112.5 -64t-99 -78t-70.5 -99t-27 -127q0 -68 31 -115.5t79.5 -77t108.5 -43t117 -13.5z" />
    <glyph glyph-name="quotesingle" unicode="'" horiz-adv-x="370" 
d="M115 1061v382h139l-27 -382h-112z" />
    <glyph glyph-name="parenleft" unicode="(" horiz-adv-x="666" 
d="M424 -161q-88 76 -147.5 175t-95 209.5t-51 227t-15.5 228.5t15 228.5t50.5 227t95 209.5t148.5 175h170q-94 -78 -157 -175t-101.5 -206t-55 -225.5t-16.5 -233.5q0 -119 16.5 -235.5t55 -224.5t101.5 -204.5t157 -175.5h-170z" />
    <glyph glyph-name="parenright" unicode=")" horiz-adv-x="666" 
d="M71 -161q95 79 158 175.5t101 204.5t54.5 224t16.5 236q0 118 -16.5 234.5t-54.5 225.5t-101 205.5t-158 174.5h171q88 -74 147 -173t94.5 -211t50.5 -229t15 -227q0 -109 -15 -226.5t-50.5 -229t-95 -211.5t-146.5 -173h-171z" />
    <glyph glyph-name="asterisk" unicode="*" horiz-adv-x="944" 
d="M273 765l-93 70l210 240l-275 111l49 101l255 -120l-8 276h122l-8 -276l255 120l48 -101l-276 -113l212 -238l-93 -70l-199 257z" />
    <glyph glyph-name="plus" unicode="+" horiz-adv-x="1072" 
d="M473 170v342h-358v120h358v355h125v-355h357v-120h-357v-342h-125z" />
    <glyph glyph-name="comma" unicode="," horiz-adv-x="431" 
d="M115 -269l60 381h140l-90 -381h-110z" />
    <glyph glyph-name="hyphen" unicode="-" horiz-adv-x="1072" 
d="M115 512v120h840v-120h-840z" />
    <glyph glyph-name="period" unicode="." horiz-adv-x="496" 
d="M180 0v128h135v-128h-135z" />
    <glyph glyph-name="slash" unicode="/" horiz-adv-x="904" 
d="M115 0l525 1483h149l-524 -1483h-150z" />
    <glyph glyph-name="zero" unicode="0" horiz-adv-x="1435" 
d="M717 -27q-168 0 -283 56t-185.5 154t-102 229.5t-31.5 282.5q0 157 26.5 297t93.5 245t183.5 166.5t298.5 61.5t298.5 -61.5t184 -166t93 -245t25.5 -297.5q0 -151 -31 -282.5t-101.5 -229.5t-185.5 -154t-283 -56zM717 101q132 0 219.5 50t139 133t73 190t21.5 221
q0 121 -15.5 236t-63.5 205.5t-137 145.5t-237 55q-147 0 -236.5 -55t-137.5 -145.5t-63.5 -205.5t-15.5 -236q0 -113 21.5 -220t73.5 -190t139 -133.5t219 -50.5z" />
    <glyph glyph-name="one" unicode="1" horiz-adv-x="652" 
d="M343 0v1319l-228 -41v128l377 59v-1465h-149z" />
    <glyph glyph-name="two" unicode="2" horiz-adv-x="1118" 
d="M115 0v87q10 52 59.5 121.5t112.5 138.5t128 130t103 95q58 50 115 100.5t103 108t74.5 124t28.5 148.5q0 77 -26.5 130.5t-71.5 87.5t-106.5 50t-130.5 16q-85 0 -168.5 -15.5t-163.5 -45.5v130q78 31 172.5 45t177.5 14q100 0 185 -24t147.5 -73.5t97.5 -127t35 -185.5
q0 -88 -30 -162.5t-78.5 -140t-111 -123.5t-130.5 -117q-98 -87 -191.5 -181t-143.5 -212h701v-119h-888z" />
    <glyph glyph-name="three" unicode="3" horiz-adv-x="1136" 
d="M491 -22q-42 0 -91.5 3.5t-99 11.5t-97.5 19t-88 25v128q88 -35 177 -49t183 -14q78 0 150 13t126.5 47.5t87 92.5t32.5 147q0 114 -54.5 170t-138.5 79.5t-180 24t-179 0.5l15 112q85 0 174 2t162.5 26.5t120.5 84t47 172.5q0 80 -29.5 132.5t-79 83t-114.5 41
t-134 10.5q-87 0 -173.5 -15.5t-166.5 -45.5v126q77 30 178.5 45t182.5 15q95 0 183 -19t155 -63t107 -117t40 -180q0 -126 -65 -222.5t-187 -129.5q135 -28 209.5 -113.5t74.5 -227.5q0 -118 -44 -197.5t-116.5 -128t-169 -69t-198.5 -20.5z" />
    <glyph glyph-name="four" unicode="4" horiz-adv-x="1199" 
d="M827 0v341h-756v120l767 982h137v-979h153v-123h-153v-341h-148zM211 460h633v808z" />
    <glyph glyph-name="five" unicode="5" horiz-adv-x="1135" 
d="M495 -22q-42 0 -90.5 2.5t-98 10t-96.5 18.5t-87 27v128q42 -16 86 -28t89.5 -19.5t92 -10.5t91.5 -3q83 0 153.5 16.5t123 55t82 101.5t29.5 154t-21 150t-64.5 94.5t-107.5 49t-151 13.5h-410v57q0 30 0.5 57t3.5 57l34 535h759l-16 -119h-619l-30 -471h283
q112 0 202 -16.5t153.5 -64.5t98 -131t34.5 -215q0 -119 -40.5 -203.5t-111 -139.5t-166 -80t-206.5 -25z" />
    <glyph glyph-name="six" unicode="6" horiz-adv-x="1258" 
d="M630 -22q-271 0 -393 141.5t-122 403.5v348q0 130 39 238t111 187.5t177 124t238 44.5q83 0 166 -9t161 -36v-126q-76 28 -157 38t-162 10q-100 0 -180.5 -32.5t-136 -91t-85 -140.5t-29.5 -181v-122q85 60 191.5 96t209.5 36q233 0 358.5 -112.5t125.5 -348.5
q0 -118 -37 -206.5t-105.5 -146.5t-161.5 -86.5t-208 -28.5zM630 92q170 0 273.5 86t103.5 264q0 187 -94.5 268t-278.5 81q-99 0 -198.5 -36t-178.5 -95v-188q0 -188 90.5 -284t282.5 -96z" />
    <glyph glyph-name="seven" unicode="7" horiz-adv-x="1106" 
d="M300 0l559 1324h-766v119h919v-113l-561 -1330h-151z" />
    <glyph glyph-name="eight" unicode="8" horiz-adv-x="1292" 
d="M645 -22q-99 0 -194 18t-170 64t-120.5 123t-45.5 193q0 141 77.5 238t212.5 132q-117 35 -183 116.5t-66 205.5q0 110 41 186t109.5 122.5t157.5 67.5t186 21q98 0 185.5 -21t154 -67.5t105.5 -122.5t39 -186q0 -135 -68 -219.5t-194 -125.5q140 -33 221.5 -114
t81.5 -233q0 -116 -45 -193t-119.5 -123t-170 -64t-195.5 -18zM709 770q64 14 116 35.5t89.5 55.5t58 84t20.5 121q0 79 -27.5 133.5t-75.5 87t-111 47t-134 14.5q-70 0 -133.5 -14.5t-111 -46.5t-75.5 -86.5t-28 -134.5q0 -93 38 -146t98 -82t133 -42t143 -26zM645 95
q73 0 142.5 11.5t124.5 43.5t88.5 87t33.5 141q0 100 -47.5 156.5t-119.5 87.5t-157 44t-159 26q-131 -25 -212.5 -96t-81.5 -214q0 -87 33.5 -142.5t88 -88t124.5 -44.5t142 -12z" />
    <glyph glyph-name="nine" unicode="9" horiz-adv-x="1258" 
d="M586 -22q-83 0 -169 8.5t-166 35.5v125q74 -28 161 -37t166 -9q100 0 179 32t133.5 89.5t82.5 140t28 179.5v117q-86 -64 -187 -98t-210 -34q-230 0 -359.5 112.5t-129.5 348.5q0 120 38.5 209.5t108 148.5t165 89t208.5 30q138 0 234 -35.5t156.5 -104.5t88.5 -171.5
t28 -233.5v-348q0 -128 -36.5 -238t-107.5 -189t-174.5 -123t-237.5 -44zM629 643q100 0 196 35t176 96v196q0 186 -86.5 283t-278.5 97q-170 0 -277.5 -90.5t-107.5 -267.5q0 -187 99.5 -268t278.5 -81z" />
    <glyph glyph-name="colon" unicode=":" horiz-adv-x="370" 
d="M115 743v132h139v-132h-139zM115 66v132h139v-132h-139z" />
    <glyph glyph-name="semicolon" unicode=";" horiz-adv-x="434" 
d="M178 743v132h139v-132h-139zM115 -213l60 381h140l-90 -381h-110z" />
    <glyph glyph-name="less" unicode="&#x3c;" horiz-adv-x="1219" 
d="M1104 137l-989 459v123l989 458v-142l-834 -377l834 -378v-143z" />
    <glyph glyph-name="equal" unicode="=" horiz-adv-x="1082" 
d="M115 671v111h850v-111h-850zM115 365v113h850v-113h-850z" />
    <glyph glyph-name="greater" unicode="&#x3e;" horiz-adv-x="1219" 
d="M115 137v143l834 378l-834 377v142l989 -458v-123z" />
    <glyph glyph-name="question" unicode="?" horiz-adv-x="1093" 
d="M384 339v52q0 86 33 148.5t82.5 111.5t107 90.5t107 86.5t82.5 99.5t33 129.5q0 82 -28 136.5t-76 86t-112.5 44.5t-136.5 13q-93 0 -184.5 -19t-176.5 -61v128q89 47 192.5 63.5t200.5 16.5q98 0 184 -21.5t149 -68t99.5 -121.5t36.5 -183q0 -92 -33 -156t-82.5 -113
t-108 -89.5t-108.5 -86t-83.5 -102t-33.5 -136.5v-49h-144zM375 0v126h162v-126h-162z" />
    <glyph glyph-name="at" unicode="@" horiz-adv-x="1714" 
d="M870 -296q-176 0 -316 43.5t-237.5 132t-149.5 223t-52 318.5q0 194 53.5 336t155 235t249 138.5t335.5 45.5q151 0 278.5 -34.5t218.5 -107.5t141.5 -188.5t50.5 -277.5q0 -108 -21.5 -193.5t-71 -144.5t-127 -89t-190.5 -30h-28q-74 -79 -167 -109t-198 -30
q-62 0 -118.5 13.5t-100.5 43.5t-69.5 79t-25.5 117q0 82 30 134t79 82t114 42t134 12h295v83q0 76 -15 121.5t-47 71t-82.5 34t-123.5 8.5q-72 0 -142 -11t-138 -37v83q70 30 151.5 39.5t156.5 9.5q100 0 166.5 -21.5t106 -65.5t55 -111t15.5 -159v-336q83 0 131.5 31
t74.5 83.5t34.5 117.5t8.5 132q0 143 -41 240t-117 156.5t-183 86.5t-239 27q-336 0 -505 -158.5t-169 -499.5q0 -157 41.5 -273t123.5 -193t201 -114.5t270 -37.5q94 0 196 8t191 35v-100q-94 -21 -190 -31t-193 -10zM820 56q99 0 174 32t138 109v215h-300
q-52 0 -97.5 -6.5t-78.5 -26t-52.5 -56t-19.5 -97.5q0 -53 20.5 -86t54 -51.5t75.5 -25.5t86 -7z" />
    <glyph glyph-name="A" unicode="A" horiz-adv-x="1506" 
d="M115 0l547 1443h184l544 -1443h-152l-157 413h-655l-156 -413h-155zM455 530h595l-298 788z" />
    <glyph glyph-name="B" unicode="B" horiz-adv-x="1390" 
d="M160 0v1443h649q96 0 172 -21.5t128 -67t79.5 -117.5t27.5 -173q0 -105 -44 -188t-142 -130q133 -29 188 -116.5t55 -219.5q0 -107 -26.5 -184.5t-80.5 -127.5t-133 -74t-184 -24h-689zM309 800h493q127 0 196.5 63t69.5 193q0 159 -76.5 216t-226.5 57h-456v-529z
M309 114h519q164 0 230.5 75t66.5 235q0 82 -24.5 133t-68 81t-103.5 40t-132 10h-488v-574z" />
    <glyph glyph-name="C" unicode="C" horiz-adv-x="1320" 
d="M790 -22q-168 0 -294.5 48.5t-211 140t-127 223t-42.5 294.5q0 171 36 314t115.5 247t208 162t314.5 58q106 0 210.5 -13.5t204.5 -52.5v-132q-96 40 -197.5 55t-204.5 15q-158 0 -262 -49.5t-165 -136.5t-86 -206.5t-25 -260.5q0 -136 32 -243.5t98.5 -181.5t169 -114
t244.5 -40q101 0 201 14t196 49v-133q-101 -34 -205.5 -45.5t-209.5 -11.5z" />
    <glyph glyph-name="D" unicode="D" horiz-adv-x="1419" 
d="M160 0v1443h552q182 0 297.5 -54.5t181 -152t89.5 -231.5t24 -294q0 -159 -26 -290t-92.5 -224.5t-181.5 -145t-292 -51.5h-552zM309 119h373q154 0 247.5 42.5t143.5 119.5t66 186t16 244t-14 247.5t-63 194t-143 126.5t-253 45h-373v-1205z" />
    <glyph glyph-name="E" unicode="E" horiz-adv-x="1214" 
d="M160 0v1443h957v-119h-808v-542h729v-121h-729v-542h808v-119h-957z" />
    <glyph glyph-name="F" unicode="F" horiz-adv-x="1139" 
d="M160 0v1443h924v-119h-775v-542h694v-121h-694v-661h-149z" />
    <glyph glyph-name="G" unicode="G" horiz-adv-x="1417" 
d="M789 -22q-169 0 -295 48.5t-210 140t-126.5 222t-42.5 293.5q0 169 37.5 312.5t118.5 248t210 163.5t312 59q106 0 210.5 -11.5t205.5 -45.5v-129q-98 32 -198.5 45t-203.5 13q-158 0 -263 -49t-167 -136.5t-87.5 -207.5t-25.5 -262q0 -135 30.5 -241.5t96 -181
t166.5 -114.5t242 -40q93 0 188.5 15t182.5 49v494h-399v106h530v-680q-51 -33 -115 -54.5t-132.5 -34t-136.5 -17.5t-128 -5z" />
    <glyph glyph-name="H" unicode="H" horiz-adv-x="1420" 
d="M160 0v1443h149v-658h802v658h148v-1443h-148v659h-802v-659h-149z" />
    <glyph glyph-name="I" unicode="I" horiz-adv-x="469" 
d="M160 0v1443h149v-1443h-149z" />
    <glyph glyph-name="J" unicode="J" horiz-adv-x="908" 
d="M335 -22q-76 0 -150.5 11.5t-145.5 40.5v129q63 -31 131 -41.5t138 -10.5q154 0 228 62t74 223v1051h149v-1071q0 -104 -29 -178.5t-83.5 -122.5t-133 -70.5t-178.5 -22.5z" />
    <glyph glyph-name="K" unicode="K" horiz-adv-x="1325" 
d="M160 0v1443h149v-744l708 744h178l-542 -577l557 -866h-162l-491 770l-248 -259v-511h-149z" />
    <glyph glyph-name="L" unicode="L" horiz-adv-x="1166" 
d="M160 0v1443h149v-1324h786v-119h-935z" />
    <glyph glyph-name="M" unicode="M" horiz-adv-x="1671" 
d="M160 0v1443h168l509 -1040l506 1040h167v-1443h-148v1218l-472 -967h-107l-474 967v-1218h-149z" />
    <glyph glyph-name="N" unicode="N" horiz-adv-x="1471" 
d="M160 0v1443h139l863 -1217v1217h149v-1443h-139l-863 1215v-1215h-149z" />
    <glyph glyph-name="O" unicode="O" horiz-adv-x="1542" 
d="M771 -22q-175 0 -299 53t-203 149.5t-116.5 231.5t-37.5 298q0 171 32.5 310.5t108.5 238t202 152.5t313 54t313 -53.5t202 -152.5t108 -238.5t32 -310.5q0 -164 -37 -299t-116 -231.5t-203 -149t-299 -52.5zM771 105q143 0 240.5 46.5t156.5 127.5t84 191.5t25 239.5
q0 136 -21 251t-76.5 199t-154 130.5t-254.5 46.5q-154 0 -252.5 -47t-155 -130.5t-78 -198.5t-21.5 -251q0 -129 25.5 -239.5t84.5 -191.5t156 -127.5t241 -46.5z" />
    <glyph glyph-name="P" unicode="P" horiz-adv-x="1283" 
d="M160 0v1443h589q112 0 198 -29t145 -86.5t89.5 -143t30.5 -198.5q0 -108 -34 -191.5t-96.5 -140.5t-149 -86t-192.5 -29h-431v-539h-149zM309 658h412q158 0 250.5 83.5t92.5 245.5q0 166 -83 251.5t-249 85.5h-423v-666z" />
    <glyph glyph-name="Q" unicode="Q" horiz-adv-x="1542" 
d="M996 -385q-90 0 -148.5 26.5t-92 75t-46.5 116.5t-14 149q-160 11 -271 70.5t-179 156.5t-99 225t-31 276q0 171 32.5 310.5t108.5 238t202 152.5t313 54t313 -53.5t202 -152.5t108 -238.5t32 -310.5q0 -150 -32 -280t-102.5 -227t-184.5 -155.5t-277 -65.5q0 -50 5 -96
t23 -81t53.5 -56.5t96.5 -21.5q39 0 77.5 5.5t76.5 15.5v-111q-41 -12 -82 -17t-84 -5zM771 105q143 0 240.5 46.5t156.5 127.5t84 191.5t25 239.5q0 136 -21 251t-76.5 199t-154 130.5t-254.5 46.5q-154 0 -252.5 -47t-155 -130.5t-78 -198.5t-21.5 -251
q0 -129 25.5 -239.5t84.5 -191.5t156 -127.5t241 -46.5z" />
    <glyph glyph-name="R" unicode="R" horiz-adv-x="1332" 
d="M160 0v1443h617q218 0 327 -109t109 -327q0 -162 -76 -269.5t-238 -141.5q51 -24 75.5 -62.5t46.5 -89.5l191 -444h-152l-187 428q-21 48 -44 75.5t-52.5 41.5t-67 18.5t-86.5 4.5h-314v-568h-149zM309 687h424q162 0 246.5 77.5t84.5 242.5q0 155 -73.5 236t-232.5 81
h-449v-637z" />
    <glyph glyph-name="S" unicode="S" horiz-adv-x="1237" 
d="M575 -22q-52 0 -106.5 2.5t-108 10t-107 20t-102.5 32.5v128q99 -35 204 -53t210 -18q72 0 144.5 9t131 38.5t95 82.5t36.5 141q0 110 -63.5 167.5t-159 91.5t-206 57.5t-205.5 64.5t-159 114t-64 207q0 115 45.5 190.5t119.5 120t168.5 63t192.5 18.5q44 0 95 -3
t103.5 -9.5t103 -17.5t90.5 -25v-128q-87 33 -179 45.5t-185 12.5q-69 0 -141.5 -9.5t-130.5 -38t-95.5 -80.5t-37.5 -139q0 -102 63.5 -155.5t159 -84.5t206 -54.5t205.5 -67.5t159 -122t64 -218q0 -119 -48 -195t-125 -120.5t-175 -61t-198 -16.5z" />
    <glyph glyph-name="T" unicode="T" horiz-adv-x="1276" 
d="M562 0v1324h-491v119h1127v-119h-488v-1324h-148z" />
    <glyph glyph-name="U" unicode="U" horiz-adv-x="1487" 
d="M744 -22q-137 0 -246.5 32t-187 99t-119.5 170.5t-42 246.5v917h149v-926q0 -106 32 -183t91 -127.5t141 -75t182 -24.5q101 0 183.5 23.5t141 73.5t90 128t31.5 185v926h148v-917q0 -144 -41.5 -247.5t-118.5 -170.5t-187 -98.5t-247 -31.5z" />
    <glyph glyph-name="V" unicode="V" horiz-adv-x="1506" 
d="M662 0l-547 1443h155l482 -1300l484 1300h154l-544 -1443h-184z" />
    <glyph glyph-name="W" unicode="W" horiz-adv-x="1909" 
d="M451 0l-336 1443h148l287 -1247l333 1096v151h123l353 -1248l288 1248h146l-334 -1443h-167l-324 1150l-348 -1150h-169z" />
    <glyph glyph-name="X" unicode="X" horiz-adv-x="1419" 
d="M115 0l505 715l-500 728h169l420 -621l420 621h170l-502 -728l506 -715h-170l-424 603l-423 -603h-171z" />
    <glyph glyph-name="Y" unicode="Y" horiz-adv-x="1382" 
d="M616 0v539l-514 904h154l435 -773l434 773h154l-514 -904v-539h-149z" />
    <glyph glyph-name="Z" unicode="Z" horiz-adv-x="1272" 
d="M115 0v88l853 1233h-816v122h1003v-100l-846 -1224h857v-119h-1051z" />
    <glyph glyph-name="bracketleft" unicode="[" horiz-adv-x="752" 
d="M115 -222v1803h536l7 -119h-394v-1565h395l-7 -119h-537z" />
    <glyph glyph-name="backslash" unicode="\" horiz-adv-x="949" 
d="M682 -121l-567 1604h152l566 -1604h-151z" />
    <glyph glyph-name="bracketright" unicode="]" horiz-adv-x="752" 
d="M99 -222l-6 119h395v1565h-394l6 119h536v-1803h-537z" />
    <glyph glyph-name="asciicircum" unicode="^" horiz-adv-x="998" 
d="M115 884l322 514h120l325 -514h-142l-242 406l-240 -406h-143z" />
    <glyph glyph-name="underscore" unicode="_" horiz-adv-x="1230" 
d="M115 -120v120h1000v-120h-1000z" />
    <glyph glyph-name="grave" unicode="`" horiz-adv-x="520" 
d="M287 1169l-171 364h133l154 -364h-116z" />
    <glyph glyph-name="a" unicode="a" horiz-adv-x="1194" 
d="M486 -22q-73 0 -140 16.5t-118.5 53t-82 94t-30.5 139.5q0 72 20 124.5t54 87.5t79 56t95.5 31.5t104 14t105.5 3.5h329v105q0 87 -22 140t-64 82.5t-104 38.5t-141 9q-86 0 -169.5 -13.5t-164.5 -42.5v108q43 17 89 28t93.5 18.5t95 10t91.5 2.5q102 0 183.5 -19.5
t138.5 -63.5t87 -117.5t30 -183.5v-700h-126l-11 130q-84 -92 -193.5 -122t-228.5 -30zM529 81q112 0 205 35t168 122v259h-385q-56 0 -104 -8.5t-84 -32.5t-56.5 -65t-20.5 -106q0 -62 24 -101.5t62.5 -62t89 -31.5t101.5 -9z" />
    <glyph glyph-name="b" unicode="b" horiz-adv-x="1269" 
d="M676 -22q-110 0 -203.5 32t-173.5 107l-12 -117h-127v1510h149v-533q83 60 175 83.5t191 23.5q133 0 224.5 -39t147.5 -110.5t81.5 -172t25.5 -222.5q0 -121 -25.5 -224t-81.5 -178t-147.5 -117.5t-223.5 -42.5zM638 93q109 0 179.5 33.5t112.5 93.5t58.5 141.5
t16.5 177.5q0 99 -17.5 178t-60 135.5t-113.5 86.5t-179 30q-92 0 -174 -26.5t-152 -85.5v-628q67 -69 149 -102.5t180 -33.5z" />
    <glyph glyph-name="c" unicode="c" horiz-adv-x="1034" 
d="M650 -22q-135 0 -235.5 36.5t-167 107t-99.5 173.5t-33 236t37 235.5t107.5 173t173.5 107.5t235 37q80 0 152 -11.5t146 -47.5v-114q-66 30 -132.5 43.5t-138.5 13.5q-109 0 -190 -28t-134.5 -83t-80 -137t-26.5 -189q0 -110 23.5 -192.5t74.5 -136.5t130.5 -81
t191.5 -27q73 0 144 15t139 44v-118q-75 -34 -155.5 -45.5t-161.5 -11.5z" />
    <glyph glyph-name="d" unicode="d" horiz-adv-x="1269" 
d="M594 -22q-127 0 -217.5 38.5t-148.5 109t-85.5 168.5t-27.5 216q0 121 29.5 226t90.5 182t155.5 121.5t224.5 44.5q102 0 182.5 -23t163.5 -84v533h148v-1510h-126l-13 117q-80 -75 -173 -107t-203 -32zM631 93q97 0 179 33.5t151 102.5v627q-68 61 -143 87t-166 26
q-107 0 -181 -35t-120 -97t-66.5 -146t-20.5 -181q0 -93 20 -170t63.5 -132t113.5 -85t170 -30z" />
    <glyph glyph-name="e" unicode="e" horiz-adv-x="1179" 
d="M672 -22q-143 0 -248 34t-173.5 103.5t-102 175t-33.5 246.5q0 126 28.5 226.5t88.5 172t154.5 110t227.5 38.5q103 0 186 -28t141.5 -82.5t90 -135t31.5 -185.5v-186h-807q8 -107 40 -179.5t88 -116.5t135.5 -63t184.5 -19q74 0 148 13.5t142 42.5v-109
q-76 -32 -157.5 -45t-164.5 -13zM256 569h672v96q0 159 -81.5 234t-237.5 75q-100 0 -167 -29t-108.5 -82.5t-59.5 -128t-18 -165.5z" />
    <glyph glyph-name="f" unicode="f" horiz-adv-x="776" 
d="M231 0v942h-160v120h160v26q0 92 7.5 174.5t39.5 145.5t96 100.5t177 37.5q46 0 92 -6.5t91 -23.5v-110q-31 11 -64.5 17.5t-69.5 6.5q-61 0 -103.5 -12t-68.5 -37.5t-38 -67.5t-12 -102v-149h294l-7 -120h-287v-942h-147z" />
    <glyph glyph-name="g" unicode="g" horiz-adv-x="1221" 
d="M575 -394q-50 0 -104.5 2.5t-108 8t-106.5 16.5t-100 28v112q48 -16 99.5 -26.5t104 -17.5t106 -10t103.5 -3q41 0 102.5 0.5t118 14.5t97 45t40.5 91q0 48 -18.5 75t-50.5 40t-72.5 16t-86.5 3h-283q-51 1 -103 6.5t-94 24t-69 53.5t-27 96q0 41 16.5 73.5t43.5 57.5
t62 42t71 25q-106 41 -148.5 127.5t-42.5 194.5q0 111 34 183.5t94 117.5t144 63.5t185 18.5q46 0 93.5 -11t85.5 -11h377l-5 -105h-202q59 -50 82.5 -118.5t23.5 -142.5q0 -102 -30.5 -171.5t-86 -112.5t-133 -62t-171.5 -19q-38 0 -97 5t-115 -2.5t-97 -35t-41 -90.5
q0 -31 14.5 -49.5t38 -28t56 -14.5t69.5 -5q91 -1 199.5 5t201.5 -10t154.5 -67.5t61.5 -165.5q0 -97 -48.5 -151t-122 -80.5t-158.5 -31t-157 -4.5zM583 428q78 0 138 11.5t101 42.5t62.5 85t21.5 138q0 83 -21.5 137.5t-62.5 86.5t-102 45t-137 13q-77 0 -137.5 -13
t-102 -45t-62.5 -86.5t-21 -137.5q0 -82 21.5 -135.5t63 -85t102 -44t136.5 -12.5z" />
    <glyph glyph-name="h" unicode="h" horiz-adv-x="1258" 
d="M160 0v1510h149v-570q93 77 195.5 110.5t222.5 33.5q201 0 291.5 -92t90.5 -292v-700h-149v693q0 81 -16.5 134.5t-51.5 84.5t-91 43.5t-134 12.5q-102 0 -193.5 -40.5t-164.5 -111.5v-816h-149z" />
    <glyph glyph-name="i" unicode="i" horiz-adv-x="590" 
d="M261 1327v148h168v-148h-168zM281 0v944h-169l9 118h308v-1062h-148z" />
    <glyph glyph-name="j" unicode="j" horiz-adv-x="628" 
d="M297 1327v148h168v-148h-168zM153 -524q-49 0 -95.5 6.5t-92.5 22.5v111q32 -12 66.5 -18t69.5 -6q103 0 159 45t56 152v1155h-167l9 118h306v-1282q0 -146 -83.5 -225t-227.5 -79z" />
    <glyph glyph-name="k" unicode="k" horiz-adv-x="1114" 
d="M160 0v1510h149v-939l526 491h175l-435 -418l461 -644h-158l-399 563l-170 -159v-404h-149z" />
    <glyph glyph-name="l" unicode="l" horiz-adv-x="564" 
d="M371 -22q-58 0 -98 16t-65.5 47t-36.5 74t-11 98v1297h149v-1293q0 -50 17.5 -86t74.5 -36q27 0 51.5 2.5t49.5 10.5v-111q-28 -12 -65 -15.5t-66 -3.5z" />
    <glyph glyph-name="m" unicode="m" horiz-adv-x="1903" 
d="M160 0v1062h133l11 -126q83 69 182.5 108.5t207.5 39.5q93 0 170.5 -30t117.5 -119q91 77 194 113t220 36q189 0 273.5 -95.5t84.5 -279.5v-709h-147v695q0 144 -62 208.5t-206 64.5q-92 0 -178 -34t-148 -101q9 -36 11.5 -74.5t2.5 -76.5v-682h-141v701q0 67 -10.5 117
t-37.5 83t-73 50t-117 17q-95 0 -185 -45t-157 -108v-815h-146z" />
    <glyph glyph-name="n" unicode="n" horiz-adv-x="1258" 
d="M160 0v1062h134l11 -126q95 78 199.5 113t227.5 35q198 0 287.5 -93t89.5 -289v-702h-149v693q0 82 -16.5 135t-52 84t-91 43.5t-133.5 12.5q-102 0 -193.5 -40.5t-164.5 -111.5v-816h-149z" />
    <glyph glyph-name="o" unicode="o" horiz-adv-x="1265" 
d="M632 -22q-136 0 -233.5 37t-160.5 108t-93 174t-30 234q0 130 30 232.5t92.5 174t160.5 109t234 37.5q137 0 235.5 -36.5t161 -107.5t91.5 -174t29 -235q0 -133 -29 -236t-91.5 -173.5t-160.5 -107t-236 -36.5zM632 99q110 0 181.5 29.5t113.5 85.5t58 136.5t16 180.5
t-16 180t-58 136.5t-113.5 86t-181.5 29.5q-108 0 -179 -30.5t-113 -87t-59 -136.5t-17 -178q0 -99 16.5 -179.5t58 -137t113 -86t180.5 -29.5z" />
    <glyph glyph-name="p" unicode="p" horiz-adv-x="1269" 
d="M160 -484v1546h127l12 -118q82 80 174.5 110t205.5 30q133 0 224 -40.5t146.5 -113.5t80 -174t24.5 -224q0 -121 -29 -223t-89 -175.5t-153 -114.5t-222 -41q-101 0 -185 23t-167 83v-568h-149zM624 93q107 0 180.5 34t118 94t63.5 142.5t19 180.5q0 100 -16.5 178.5
t-58.5 133.5t-112.5 84t-179.5 29q-98 0 -179.5 -34t-149.5 -103v-627q73 -56 147 -84t168 -28z" />
    <glyph glyph-name="q" unicode="q" horiz-adv-x="1263" 
d="M1200 -542q-71 0 -117 20t-73.5 55.5t-38 84.5t-10.5 107v359q-83 -59 -167.5 -82.5t-185.5 -23.5q-130 0 -224 40t-153.5 112.5t-87.5 173.5t-28 224q0 119 27 221t84.5 177t148.5 116.5t220 41.5q111 0 202 -31t173 -109l13 118h126v-1324q0 -82 25.5 -122.5
t115.5 -40.5q19 0 38 3.5t38 9.5v-111q-16 -5 -31.5 -9t-30.5 -6t-31 -3t-33 -1zM645 93q94 0 169 27t147 85v627q-68 69 -150 103t-179 34q-108 0 -178 -32.5t-113 -90.5t-60 -138.5t-17 -177.5q0 -100 19.5 -181t64 -138t118 -87.5t179.5 -30.5z" />
    <glyph glyph-name="r" unicode="r" horiz-adv-x="749" 
d="M160 0v1062h136l11 -142q88 60 189.5 102t206.5 62v-119q-97 -21 -204.5 -63t-189.5 -96v-806h-149z" />
    <glyph glyph-name="s" unicode="s" horiz-adv-x="1006" 
d="M481 -22q-41 0 -83.5 2.5t-87 7.5t-87 14t-80.5 22v121q73 -26 155.5 -38t161.5 -12q49 0 99 5t90.5 23t66 53.5t25.5 96.5q0 60 -28 95.5t-73 59t-101.5 38.5t-111.5 35q-57 19 -113 40t-100.5 54t-71.5 82t-27 124q0 89 35 144.5t91.5 86.5t128 41.5t146.5 10.5
q36 0 73 -1.5t74.5 -7t74.5 -12t71 -17.5v-120q-63 21 -131.5 31.5t-134.5 10.5q-45 0 -94.5 -4t-90.5 -20.5t-67.5 -49.5t-26.5 -91q0 -53 27.5 -86.5t68 -56t88 -36t89.5 -27.5q67 -20 131 -42.5t113 -57t79 -88t30 -136.5q0 -92 -34.5 -149t-93 -90t-132 -44.5
t-149.5 -11.5z" />
    <glyph glyph-name="t" unicode="t" horiz-adv-x="771" 
d="M537 -22q-147 0 -224.5 80t-77.5 226v658h-164v120h164v274l148 44v-318h302l-7 -120h-295v-651q0 -104 52 -150.5t153 -46.5q33 0 65 6t62 18v-112q-43 -15 -87.5 -21.5t-90.5 -6.5z" />
    <glyph glyph-name="u" unicode="u" horiz-adv-x="1251" 
d="M537 -22q-198 0 -296 110.5t-98 302.5v671h148v-665q0 -156 77.5 -230t231.5 -74q100 0 187 39.5t156 112.5v817h147v-1062h-132l-11 125q-93 -81 -190.5 -114t-219.5 -33z" />
    <glyph glyph-name="v" unicode="v" horiz-adv-x="1235" 
d="M532 0l-417 1062h155l346 -930l351 930h152l-414 -1062h-173z" />
    <glyph glyph-name="w" unicode="w" horiz-adv-x="1616" 
d="M393 0l-278 1062h148l224 -901l254 782v119h116l278 -901l219 901h146l-275 -1062h-151l-260 815l-266 -815h-155z" />
    <glyph glyph-name="x" unicode="x" horiz-adv-x="1160" 
d="M97 0l401 540l-389 522h162l307 -417l308 417h161l-386 -522l402 -540h-162l-323 437l-321 -437h-160z" />
    <glyph glyph-name="y" unicode="y" horiz-adv-x="1280" 
d="M337 -394q-43 0 -87 5t-85 22v113q32 -13 66.5 -18.5t70.5 -5.5q60 0 104 26.5t76.5 68.5t56 93t43.5 99l-467 1053h155l386 -898l400 898h153l-454 -1023q-30 -69 -65 -145.5t-83.5 -140t-114 -105.5t-155.5 -42z" />
    <glyph glyph-name="z" unicode="z" horiz-adv-x="1073" 
d="M115 0v92l650 847h-620v123h798v-99l-644 -842h658v-121h-842z" />
    <glyph glyph-name="braceleft" unicode="{" horiz-adv-x="645" 
d="M71 616v104q50 7 79.5 24.5t45.5 45.5t21.5 65t5.5 81v405q0 70 14.5 114.5t45.5 70.5t78 35t111 9h79v-121h-32q-45 0 -74 -4.5t-45.5 -20t-22.5 -44t-6 -76.5v-399q0 -40 -6 -76t-21.5 -67.5t-40.5 -55.5t-63 -37q38 -13 63 -37.5t40.5 -56t21.5 -67.5t6 -75v-401
q0 -47 6 -75.5t22.5 -44.5t45.5 -20.5t74 -4.5h32v-121h-79q-64 0 -111 9.5t-78 35.5t-45.5 70t-14.5 115v404q0 44 -5.5 81.5t-21.5 65.5t-45.5 45.5t-79.5 23.5z" />
    <glyph glyph-name="bar" unicode="|" horiz-adv-x="381" 
d="M115 -269v1915h149v-1915h-149z" />
    <glyph glyph-name="braceright" unicode="}" horiz-adv-x="645" 
d="M551 616q-49 -6 -79 -23.5t-46.5 -45.5t-21.5 -65.5t-5 -81.5v-404q0 -71 -14.5 -115t-45.5 -70t-78 -35.5t-111 -9.5h-79v121h32q45 0 74 4.5t45.5 20.5t22.5 44.5t6 75.5v401q0 39 6 75t21.5 67.5t40.5 56t63 37.5q-38 13 -63 37t-40.5 55.5t-21.5 67.5t-6 76v399
q0 48 -6 76.5t-22.5 44t-45.5 20t-74 4.5h-32v121h79q64 0 111 -9t78 -35t45.5 -70.5t14.5 -114.5v-405q0 -44 5 -81t21.5 -65t46.5 -45.5t79 -24.5v-104z" />
    <glyph glyph-name="asciitilde" unicode="~" horiz-adv-x="1286" 
d="M910 531q-72 0 -136.5 25t-128.5 54.5t-129.5 54.5t-138.5 25q-85 0 -147.5 -33.5t-114.5 -100.5v149q46 60 117.5 88.5t144.5 28.5q77 0 143 -25t129 -54.5t126.5 -54.5t134.5 -25q86 0 147.5 33.5t111.5 99.5v-149q-45 -60 -115 -88t-144 -28z" />
    <glyph glyph-name="uni00A0" unicode="&#xa0;" 
 />
    <glyph glyph-name="exclamdown" unicode="&#xa1;" horiz-adv-x="393" 
d="M115 936v126h162v-126h-162zM123 -381v347q0 192 4 380t10 381h123q5 -193 8 -381t3 -380v-347h-148z" />
    <glyph glyph-name="cent" unicode="&#xa2;" horiz-adv-x="1082" 
d="M251 531q0 -92 16 -169t55.5 -134.5t105.5 -93.5t164 -46v884q-185 -24 -263 -143.5t-78 -297.5zM119 531q0 115 29.5 212t88.5 169t147.5 116t207.5 53v173h106v-171q72 -2 133.5 -14t127.5 -43v-103q-64 30 -127.5 42.5t-133.5 13.5v-896q68 2 133.5 16.5t128.5 41.5
v-107q-63 -25 -128.5 -38.5t-133.5 -15.5v-173h-106v174q-125 8 -215 49.5t-147 113t-84 169.5t-27 218z" />
    <glyph glyph-name="sterling" unicode="&#xa3;" horiz-adv-x="1124" 
d="M115 0v119q50 0 87.5 5.5t62 23t36.5 50.5t12 91v414h-161v120h161v300q0 84 28 148t77.5 107t118 65t147.5 22q59 0 125.5 -7t117.5 -34v-110q-38 21 -96 28.5t-101 7.5q-58 0 -107 -13t-85 -40t-56.5 -70.5t-20.5 -106.5v-297h463l-4 -120h-459v-407q0 -49 -10.5 -98
t-51.5 -79h609v-119h-893z" />
    <glyph glyph-name="currency" unicode="&#xa4;" horiz-adv-x="1276" 
d="M185 143l-70 88l187 140q-38 50 -57 109t-19 123q0 63 18.5 121.5t57.5 107.5l-186 142l69 88l190 -149q54 48 121 73.5t140 25.5t140.5 -25.5t122.5 -74.5l192 149l68 -87l-186 -142q39 -49 57.5 -108t18.5 -121q0 -63 -19.5 -122.5t-56.5 -109.5l186 -142l-68 -85
l-191 145q-56 -46 -122.5 -71.5t-139.5 -25.5q-74 0 -140 25.5t-122 71.5zM636 305q61 0 115 23.5t94 64.5t63.5 95t23.5 115t-23.5 115.5t-63.5 95t-93.5 64t-115.5 23.5t-115.5 -23.5t-93 -64t-61.5 -95t-22 -115.5t23 -115t62.5 -95t92.5 -64.5t114 -23.5z" />
    <glyph glyph-name="yen" unicode="&#xa5;" horiz-adv-x="1380" 
d="M614 0v248h-359v99h359v165h-359v99h318l-458 832h153l422 -773l420 773h154l-461 -832h320v-99h-359v-165h359v-99h-359v-248h-150z" />
    <glyph glyph-name="brokenbar" unicode="&#xa6;" horiz-adv-x="381" 
d="M115 964v682h149v-682h-149zM115 -269v683h149v-683h-149z" />
    <glyph glyph-name="section" unicode="&#xa7;" horiz-adv-x="1237" 
d="M575 -22q-52 0 -106.5 2.5t-108 10t-107 20t-102.5 32.5v126q99 -35 204 -53t210 -18q72 0 144.5 9.5t131 38.5t94.5 82.5t36 142.5q0 106 -63 164.5t-158.5 93t-206 58.5t-205.5 61.5t-159 101t-64 179.5q0 37 10 73t30 68q-22 37 -30.5 78t-8.5 82q0 114 46 187.5
t120.5 117.5t168.5 61.5t190 17.5q43 0 94.5 -3t104 -10t103 -17.5t90.5 -24.5v-127q-87 33 -180 46t-186 13q-69 0 -141.5 -9.5t-130 -39t-94.5 -81.5t-37 -138q0 -103 63.5 -158.5t159 -86t206 -51t205.5 -56t159 -100t64 -183.5q0 -39 -10.5 -82t-27.5 -79q20 -38 29 -78
t9 -81q0 -120 -48 -195.5t-125 -119t-175 -59.5t-198 -16zM987 610q7 21 10 40.5t3 40.5q0 69 -41.5 111t-108 70t-149 47t-164.5 41t-156 52t-123 78q-7 -17 -10 -34t-3 -36q0 -68 42 -109.5t109 -70t150 -48.5t165.5 -43t155.5 -55t120 -84z" />
    <glyph glyph-name="dieresis" unicode="&#xa8;" horiz-adv-x="750" 
d="M498 1272v129h135v-129h-135zM115 1272v129h136v-129h-136z" />
    <glyph glyph-name="copyright" unicode="&#xa9;" horiz-adv-x="1719" 
d="M859 -22q-154 0 -289 58.5t-236 159.5t-160 236.5t-59 288.5q0 154 59 289.5t160 236.5t236 159.5t289 58.5t289.5 -58.5t236.5 -159.5t159.5 -236.5t58.5 -289.5q0 -153 -58.5 -288.5t-159.5 -236.5t-236.5 -159.5t-289.5 -58.5zM859 74q135 0 253 50.5t205 138.5
t137 206t50 252t-50 252t-137 206t-205 138.5t-253 50.5q-134 0 -251.5 -50.5t-204.5 -138.5t-137.5 -206t-50.5 -252t50.5 -252t137.5 -206t204.5 -138.5t251.5 -50.5zM855 194q-122 0 -217.5 37t-160.5 105.5t-99 165.5t-34 218q0 120 38 217t107 165t167 105t217 37
q76 0 148.5 -14t140.5 -51v-91q-62 31 -130 46t-137 15q-100 0 -181 -29t-138.5 -84t-89 -134.5t-31.5 -181.5q0 -212 108 -321.5t320 -109.5q71 0 143 15.5t136 46.5v-92q-69 -37 -148.5 -51t-158.5 -14z" />
    <glyph glyph-name="ordfeminine" unicode="&#xaa;" horiz-adv-x="774" 
d="M327 851q-41 0 -79.5 10t-67.5 31t-47 53.5t-18 78.5q0 86 47.5 126.5t115 54t143.5 10.5t135 -3v36q0 48 -13.5 75t-37 40.5t-56.5 17t-73 3.5q-47 0 -93 -8t-91 -23v80q48 19 100.5 25.5t105.5 6.5q55 0 102.5 -10.5t82.5 -35.5t54.5 -66t19.5 -102v-386h-91l-6 71
q-47 -46 -106.5 -65.5t-126.5 -19.5zM355 927q63 0 112 19t89 70v122h-197q-61 0 -103.5 -20.5t-42.5 -91.5q0 -31 13 -50.5t33.5 -30t46 -14.5t49.5 -4z" />
    <glyph glyph-name="guillemotleft" unicode="&#xab;" horiz-adv-x="1316" 
d="M1139 189l-564 415v78l564 414l62 -89l-490 -365l490 -364zM679 189l-564 415v78l564 414l62 -89l-489 -365l489 -364z" />
    <glyph glyph-name="logicalnot" unicode="&#xac;" horiz-adv-x="1191" 
d="M949 334v366h-834v120h959v-486h-125z" />
    <glyph glyph-name="uni00AD" unicode="&#xad;" horiz-adv-x="1072" 
d="M115 512v120h840v-120h-840z" />
    <glyph glyph-name="registered" unicode="&#xae;" horiz-adv-x="1719" 
d="M859 -22q-154 0 -289 58.5t-236 159.5t-160 236.5t-59 288.5q0 154 59 289.5t160 236.5t236 159.5t289 58.5t289.5 -58.5t236.5 -159.5t159.5 -236.5t58.5 -289.5q0 -153 -58.5 -288.5t-159.5 -236.5t-236.5 -159.5t-289.5 -58.5zM860 74q133 0 250.5 50.5t205 138
t138 205.5t50.5 253t-50.5 253.5t-138 205.5t-205 137.5t-250.5 50.5q-134 0 -251.5 -50.5t-205 -137.5t-138 -205.5t-50.5 -253.5t50.5 -253t138 -205.5t205 -138t251.5 -50.5zM520 229v979h421q155 0 229.5 -78t74.5 -213q0 -120 -54.5 -189t-165.5 -90q34 -15 51.5 -39.5
t33.5 -65.5l129 -304h-100l-126 298q-10 26 -23 43.5t-33 28t-49.5 14t-74.5 3.5h-212v-387h-101zM621 701h278q114 0 180.5 46t66.5 170q0 116 -54.5 162t-166.5 46h-304v-424z" />
    <glyph glyph-name="macron" unicode="&#xaf;" horiz-adv-x="850" 
d="M109 1268v102h631v-102h-631z" />
    <glyph glyph-name="degree" unicode="&#xb0;" horiz-adv-x="713" 
d="M355 1133q-50 0 -94 18t-76 50t-51 76t-19 94q0 103 68.5 171.5t171.5 68.5q104 0 173 -67.5t69 -172.5q0 -103 -69.5 -170.5t-172.5 -67.5zM355 1223q63 0 107 42t44 106t-44 106.5t-107 42.5t-106 -43t-43 -106t43 -105.5t106 -42.5z" />
    <glyph glyph-name="plusminus" unicode="&#xb1;" horiz-adv-x="1075" 
d="M474 218v343h-357v119h357v355h126v-355h357v-119h-357v-343h-126zM117 0v119h840v-119h-840z" />
    <glyph glyph-name="uni00B2" unicode="&#xb2;" horiz-adv-x="662" 
d="M115 829v63q23 52 74.5 98.5t104.5 91.5t93 90t40 95q0 63 -38 86.5t-94 23.5q-41 0 -80 -7t-78 -21v86q41 15 91.5 22.5t93.5 7.5t82 -10.5t69.5 -32.5t48.5 -56t18 -83q0 -65 -34 -111.5t-80.5 -86t-94.5 -79t-76 -91.5h291v-86h-431z" />
    <glyph glyph-name="uni00B3" unicode="&#xb3;" horiz-adv-x="668" 
d="M291 811q-19 0 -42 1.5t-46.5 5t-46 8.5t-41.5 12v79q39 -14 78 -21t79 -7q30 0 60 3.5t53.5 15.5t38 34t14.5 59q0 45 -25.5 66.5t-61.5 30t-76 8t-70 -0.5l11 73h69.5t68 10t51 33t20.5 68q0 33 -13.5 52t-35 29t-48 12.5t-53.5 2.5q-39 0 -76 -6t-72 -20v81
q19 6 40 11t42.5 8t43.5 4.5t42 1.5q44 0 87 -6.5t77.5 -25t55.5 -52.5t21 -88q0 -56 -25 -95t-79 -57q57 -12 88 -48t31 -95q0 -57 -22.5 -93.5t-59.5 -57.5t-83 -28.5t-95 -7.5z" />
    <glyph glyph-name="acute" unicode="&#xb4;" horiz-adv-x="520" 
d="M116 1169l155 364h132l-171 -364h-116z" />
    <glyph glyph-name="mu" unicode="&#xb5;" horiz-adv-x="1269" 
d="M160 -320v1382h149v-665q0 -155 78 -229.5t231 -74.5q100 0 186.5 40t155.5 112v817h149v-1062h-134l-11 125q-89 -81 -182.5 -114t-212.5 -33q-77 0 -148 29t-112 95v-422h-149z" />
    <glyph glyph-name="paragraph" unicode="&#xb6;" horiz-adv-x="1368" 
d="M722 -172v739q-129 0 -240 24t-192 82.5t-128 154.5t-47 240q0 143 44 242t122 161.5t187 90.5t241 28h549v-1762h-142v1641h-253v-1641h-141z" />
    <glyph glyph-name="periodcentered" unicode="&#xb7;" horiz-adv-x="367" 
d="M115 572v129h136v-129h-136z" />
    <glyph glyph-name="cedilla" unicode="&#xb8;" horiz-adv-x="690" 
d="M261 -538q-37 0 -80.5 6t-68.5 12v85q65 -18 142 -18q112 0 165.5 32t53.5 110q0 75 -50.5 100.5t-149.5 25.5h-79l61 185h106l-40 -112q126 0 192.5 -49.5t66.5 -147.5q0 -110 -75.5 -169.5t-243.5 -59.5z" />
    <glyph glyph-name="uni00B9" unicode="&#xb9;" horiz-adv-x="455" 
d="M274 829v530l-165 -37v89l275 54v-636h-110z" />
    <glyph glyph-name="ordmasculine" unicode="&#xba;" horiz-adv-x="810" 
d="M404 851q-74 0 -128.5 21t-90 61t-53 97t-17.5 128q0 72 17.5 129t53 96.5t90 60.5t128.5 21q75 0 130 -20.5t90.5 -60t52 -96.5t16.5 -130q0 -72 -17 -129.5t-52.5 -97t-90.5 -60t-129 -20.5zM404 935q111 0 149 61.5t38 161.5t-38 161t-149 61q-109 0 -148.5 -61.5
t-39.5 -160.5q0 -100 38.5 -161.5t149.5 -61.5z" />
    <glyph glyph-name="guillemotright" unicode="&#xbb;" horiz-adv-x="1316" 
d="M637 189l-62 89l489 364l-489 365l62 89l564 -414v-78zM177 189l-62 89l490 364l-490 365l62 89l564 -414v-78z" />
    <glyph glyph-name="onequarter" unicode="&#xbc;" horiz-adv-x="1390" 
d="M281 829v530l-166 -37v89l276 54v-636h-110zM225 0l767 1443h142l-769 -1443h-140zM1099 0v137h-342v83l325 416h123v-417h69v-82h-69v-137h-106zM855 219h264v340z" />
    <glyph glyph-name="onehalf" unicode="&#xbd;" horiz-adv-x="1399" 
d="M281 829v530l-166 -37v89l276 54v-636h-110zM225 0l767 1443h142l-769 -1443h-140zM847 0v63q22 52 73.5 98.5t104.5 91t93 90t40 96.5q0 62 -38 85.5t-94 23.5q-42 0 -80.5 -7t-77.5 -21v87q42 14 91 21.5t94 7.5q43 0 82.5 -10.5t69.5 -32.5t47.5 -56.5t17.5 -81.5
q0 -65 -33.5 -111.5t-80 -86.5t-94 -79.5t-75.5 -91.5h290v-86h-430z" />
    <glyph glyph-name="threequarters" unicode="&#xbe;" horiz-adv-x="1429" 
d="M291 811q-19 0 -42 1.5t-46.5 5t-46 8.5t-41.5 12v79q39 -14 78 -21t79 -7q30 0 60 3.5t53.5 15.5t38 34t14.5 59q0 45 -25.5 66.5t-61.5 30t-76 8t-70 -0.5l11 73h69.5t68 10t51 33t20.5 68q0 33 -13.5 52t-35 29t-48 12.5t-53.5 2.5q-39 0 -76 -6t-72 -20v81
q19 6 40 11t42.5 8t43.5 4.5t42 1.5q44 0 87 -6.5t77.5 -25t55.5 -52.5t21 -88q0 -56 -25 -95t-79 -57q57 -12 88 -48t31 -95q0 -57 -22.5 -93.5t-59.5 -57.5t-83 -28.5t-95 -7.5zM264 0l768 1443h141l-769 -1443h-140zM1130 0v137h-341v83l325 416h123v-417h69v-82h-69
v-137h-107zM887 219h264v340z" />
    <glyph glyph-name="questiondown" unicode="&#xbf;" horiz-adv-x="1093" 
d="M710 723v-52q0 -88 -33.5 -150.5t-83 -111t-107 -89.5t-107 -86t-82.5 -99t-33 -130q0 -83 28.5 -137t76 -85.5t112 -44.5t136.5 -13q93 0 185 19t175 61v-128q-87 -47 -191 -63.5t-201 -16.5q-98 0 -183.5 21t-149 68t-100.5 122.5t-37 182.5q0 91 33.5 154.5t83.5 113
t108 90.5t108 86.5t83.5 102t33.5 136.5v49h145zM717 1062v-126h-161v126h161z" />
    <glyph glyph-name="Agrave" unicode="&#xc0;" horiz-adv-x="1506" 
d="M693 1541l-172 364h133l155 -364h-116zM115 0l547 1443h184l544 -1443h-152l-157 413h-655l-156 -413h-155zM455 530h595l-298 788z" />
    <glyph glyph-name="Aacute" unicode="&#xc1;" horiz-adv-x="1506" 
d="M684 1541l155 364h132l-170 -364h-117zM115 0l547 1443h184l544 -1443h-152l-157 413h-655l-156 -413h-155zM455 530h595l-298 788z" />
    <glyph glyph-name="Acircumflex" unicode="&#xc2;" horiz-adv-x="1506" 
d="M452 1540l244 315h113l244 -315h-123l-178 233l-175 -233h-125zM115 0l547 1443h184l544 -1443h-152l-157 413h-655l-156 -413h-155zM455 530h595l-298 788z" />
    <glyph glyph-name="Atilde" unicode="&#xc3;" horiz-adv-x="1506" 
d="M433 1596v117q30 37 79 51.5t94 14.5q43 0 81 -13t74 -28.5t72.5 -29t75.5 -13.5q51 0 93 18.5t72 60.5v-118q-13 -18 -31 -31t-39 -20.5t-43.5 -11t-44.5 -3.5q-41 0 -79.5 13.5t-75 29t-73.5 28.5t-75 13q-54 0 -98.5 -19t-81.5 -59zM115 0l547 1443h184l544 -1443
h-152l-157 413h-655l-156 -413h-155zM455 530h595l-298 788z" />
    <glyph glyph-name="Adieresis" unicode="&#xc4;" horiz-adv-x="1506" 
d="M495 1605v126h131v-126h-131zM878 1605v126h132v-126h-132zM115 0l547 1443h184l544 -1443h-152l-157 413h-655l-156 -413h-155zM455 530h595l-298 788z" />
    <glyph glyph-name="Aring" unicode="&#xc5;" horiz-adv-x="1506" 
d="M115 0l535 1409q-63 27 -98.5 83.5t-35.5 123.5q0 102 67.5 168t168.5 66q104 0 171 -65.5t67 -168.5q0 -68 -35.5 -123.5t-98.5 -82.5l534 -1410h-152l-157 413h-655l-156 -413h-155zM752 1469q66 0 108.5 40t42.5 107q0 66 -42.5 108t-108.5 42q-65 0 -106.5 -42.5
t-41.5 -107.5t42 -106t106 -41zM455 530h595l-298 788z" />
    <glyph glyph-name="AE" unicode="&#xc6;" horiz-adv-x="1867" 
d="M115 0l547 1443h1089v-122h-687v-539h607v-122h-607v-541h687v-119h-835v414h-488l-156 -414h-157zM469 534h447v787h-151z" />
    <glyph glyph-name="Ccedilla" unicode="&#xc7;" horiz-adv-x="1320" 
d="M741 -538q-36 0 -73.5 4t-71.5 14v85q34 -9 69 -13.5t71 -4.5q39 0 77.5 4.5t70.5 19t52 42t20 76.5q0 55 -29 81t-72 36.5t-92 9.5t-86 -1l54 165q-158 7 -275 61.5t-192 146.5t-112 218t-37 278q0 171 36 314.5t116 247.5t208.5 161.5t313.5 57.5q106 0 210.5 -14
t204.5 -52v-132q-95 39 -197 54.5t-205 15.5q-158 0 -261.5 -48.5t-165.5 -136t-86.5 -207t-24.5 -261.5q0 -137 32 -244.5t99 -181.5t169.5 -113.5t243.5 -39.5q99 0 201 14.5t196 48.5v-133q-92 -25 -183 -39.5t-186 -16.5l-31 -91q50 0 96 -9t82 -32t58 -61t22 -95
q0 -72 -27.5 -116t-73.5 -70t-103.5 -34.5t-117.5 -8.5z" />
    <glyph glyph-name="Egrave" unicode="&#xc8;" horiz-adv-x="1214" 
d="M613 1541l-171 364h132l155 -364h-116zM160 0v1443h957v-119h-808v-542h729v-121h-729v-542h808v-119h-957z" />
    <glyph glyph-name="Eacute" unicode="&#xc9;" horiz-adv-x="1214" 
d="M578 1541l155 364h132l-171 -364h-116zM160 0v1443h957v-119h-808v-542h729v-121h-729v-542h808v-119h-957z" />
    <glyph glyph-name="Ecircumflex" unicode="&#xca;" horiz-adv-x="1214" 
d="M334 1540l245 315h112l245 -315h-123l-177 233l-176 -233h-126zM160 0v1443h957v-119h-808v-542h729v-121h-729v-542h808v-119h-957z" />
    <glyph glyph-name="Edieresis" unicode="&#xcb;" horiz-adv-x="1214" 
d="M392 1605v127h132v-127h-132zM775 1605v127h131v-127h-131zM160 0v1443h957v-119h-808v-542h729v-121h-729v-542h808v-119h-957z" />
    <glyph glyph-name="Igrave" unicode="&#xcc;" horiz-adv-x="469" 
d="M175 1541l-171 364h132l155 -364h-116zM160 0v1443h149v-1443h-149z" />
    <glyph glyph-name="Iacute" unicode="&#xcd;" horiz-adv-x="470" 
d="M182 1541l155 364h132l-171 -364h-116zM160 0v1443h149v-1443h-149z" />
    <glyph glyph-name="Icircumflex" unicode="&#xce;" horiz-adv-x="470" 
d="M-67 1540l245 315h112l245 -315h-123l-178 233l-176 -233h-125zM160 0v1443h149v-1443h-149z" />
    <glyph glyph-name="Idieresis" unicode="&#xcf;" horiz-adv-x="469" 
d="M-22 1609v127h131v-127h-131zM360 1609v127h133v-127h-133zM160 0v1443h149v-1443h-149z" />
    <glyph glyph-name="Eth" unicode="&#xd0;" horiz-adv-x="1530" 
d="M270 0v652h-192v115h192v676h551q182 0 297 -54.5t181 -152t90 -231.5t24 -294q0 -159 -26 -290t-92.5 -224.5t-181 -145t-292.5 -51.5h-551zM417 119h374q154 0 247.5 42.5t143.5 119.5t66.5 186t16.5 244q0 136 -14.5 248.5t-63.5 193t-142.5 124.5t-253.5 44h-374
v-554h398v-115h-398v-533z" />
    <glyph glyph-name="Ntilde" unicode="&#xd1;" horiz-adv-x="1471" 
d="M920 1595q-42 0 -80 13.5t-75 29t-73.5 28.5t-74.5 13q-54 0 -99 -19t-82 -59v118q31 36 79.5 50.5t94.5 14.5q43 0 81 -13t74 -28.5t72.5 -29t75.5 -13.5q51 0 92.5 18.5t72.5 60.5v-118q-13 -18 -31.5 -31t-39.5 -20.5t-43.5 -11t-43.5 -3.5zM160 0v1443h139l863 -1217
v1217h149v-1443h-139l-863 1215v-1215h-149z" />
    <glyph glyph-name="Ograve" unicode="&#xd2;" horiz-adv-x="1542" 
d="M725 1541l-171 364h132l155 -364h-116zM771 -22q-175 0 -299 53t-203 149.5t-116.5 231.5t-37.5 298q0 171 32.5 310.5t108.5 238t202 152.5t313 54t313 -53.5t202 -152.5t108 -238.5t32 -310.5q0 -164 -37 -299t-116 -231.5t-203 -149t-299 -52.5zM771 105
q143 0 240.5 46.5t156.5 127.5t84 191.5t25 239.5q0 136 -21 251t-76.5 199t-154 130.5t-254.5 46.5q-154 0 -252.5 -47t-155 -130.5t-78 -198.5t-21.5 -251q0 -129 25.5 -239.5t84.5 -191.5t156 -127.5t241 -46.5z" />
    <glyph glyph-name="Oacute" unicode="&#xd3;" horiz-adv-x="1542" 
d="M713 1541l154 364h133l-171 -364h-116zM771 -22q-175 0 -299 53t-203 149.5t-116.5 231.5t-37.5 298q0 171 32.5 310.5t108.5 238t202 152.5t313 54t313 -53.5t202 -152.5t108 -238.5t32 -310.5q0 -164 -37 -299t-116 -231.5t-203 -149t-299 -52.5zM771 105
q143 0 240.5 46.5t156.5 127.5t84 191.5t25 239.5q0 136 -21 251t-76.5 199t-154 130.5t-254.5 46.5q-154 0 -252.5 -47t-155 -130.5t-78 -198.5t-21.5 -251q0 -129 25.5 -239.5t84.5 -191.5t156 -127.5t241 -46.5z" />
    <glyph glyph-name="Ocircumflex" unicode="&#xd4;" horiz-adv-x="1542" 
d="M470 1540l245 315h111l245 -315h-123l-177 233l-176 -233h-125zM771 -22q-175 0 -299 53t-203 149.5t-116.5 231.5t-37.5 298q0 171 32.5 310.5t108.5 238t202 152.5t313 54t313 -53.5t202 -152.5t108 -238.5t32 -310.5q0 -164 -37 -299t-116 -231.5t-203 -149
t-299 -52.5zM771 105q143 0 240.5 46.5t156.5 127.5t84 191.5t25 239.5q0 136 -21 251t-76.5 199t-154 130.5t-254.5 46.5q-154 0 -252.5 -47t-155 -130.5t-78 -198.5t-21.5 -251q0 -129 25.5 -239.5t84.5 -191.5t156 -127.5t241 -46.5z" />
    <glyph glyph-name="Otilde" unicode="&#xd5;" horiz-adv-x="1542" 
d="M935 1603q-42 0 -80 13.5t-75 29t-73.5 28.5t-74.5 13q-55 0 -100 -19t-80 -60v118q30 37 78.5 51.5t94.5 14.5q42 0 80.5 -13t74.5 -29t72.5 -29t75.5 -13q51 0 93 18.5t71 60.5v-119q-12 -18 -30 -30.5t-39 -20t-44 -11t-44 -3.5zM771 -22q-175 0 -299 53t-203 149.5
t-116.5 231.5t-37.5 298q0 171 32.5 310.5t108.5 238t202 152.5t313 54t313 -53.5t202 -152.5t108 -238.5t32 -310.5q0 -164 -37 -299t-116 -231.5t-203 -149t-299 -52.5zM771 105q143 0 240.5 46.5t156.5 127.5t84 191.5t25 239.5q0 136 -21 251t-76.5 199t-154 130.5
t-254.5 46.5q-154 0 -252.5 -47t-155 -130.5t-78 -198.5t-21.5 -251q0 -129 25.5 -239.5t84.5 -191.5t156 -127.5t241 -46.5z" />
    <glyph glyph-name="Odieresis" unicode="&#xd6;" horiz-adv-x="1542" 
d="M514 1605v127h131v-127h-131zM896 1605v127h132v-127h-132zM771 -22q-175 0 -299 53t-203 149.5t-116.5 231.5t-37.5 298q0 171 32.5 310.5t108.5 238t202 152.5t313 54t313 -53.5t202 -152.5t108 -238.5t32 -310.5q0 -164 -37 -299t-116 -231.5t-203 -149t-299 -52.5z
M771 105q143 0 240.5 46.5t156.5 127.5t84 191.5t25 239.5q0 136 -21 251t-76.5 199t-154 130.5t-254.5 46.5q-154 0 -252.5 -47t-155 -130.5t-78 -198.5t-21.5 -251q0 -129 25.5 -239.5t84.5 -191.5t156 -127.5t241 -46.5z" />
    <glyph glyph-name="multiply" unicode="&#xd7;" horiz-adv-x="905" 
d="M712 219l-256 257l-249 -246l-81 81l246 248l-257 255l80 80l254 -258l259 257l81 -81l-257 -259l257 -257z" />
    <glyph glyph-name="Oslash" unicode="&#xd8;" horiz-adv-x="1542" 
d="M388 -119l58 160q-98 45 -162 118t-101 162.5t-52.5 189t-15.5 199.5q0 173 33 312t109 237.5t202 152t312 53.5q47 0 93.5 -4t92.5 -13l39 104h99l-46 -128q117 -39 190.5 -114t115 -172t56.5 -207t15 -221q0 -164 -36.5 -299.5t-116 -231.5t-203.5 -148.5t-299 -52.5
q-61 0 -120.5 7.5t-116.5 23.5l-46 -128h-100zM494 171l417 1152q-36 7 -70 10.5t-70 3.5q-155 0 -252.5 -46t-154.5 -128.5t-78.5 -198.5t-21.5 -254q0 -75 10 -154t35.5 -150.5t70.5 -132.5t114 -102zM771 105q144 0 240.5 46.5t156 126.5t84.5 191t25 241q0 86 -10 175
t-39.5 169.5t-84 144.5t-144.5 97l-417 -1164q45 -15 93.5 -21t95.5 -6z" />
    <glyph glyph-name="Ugrave" unicode="&#xd9;" horiz-adv-x="1487" 
d="M729 1541l-171 364h132l154 -364h-115zM744 -22q-137 0 -246.5 32t-187 99t-119.5 170.5t-42 246.5v917h149v-926q0 -106 32 -183t91 -127.5t141 -75t182 -24.5q101 0 183.5 23.5t141 73.5t90 128t31.5 185v926h148v-917q0 -144 -41.5 -247.5t-118.5 -170.5t-187 -98.5
t-247 -31.5z" />
    <glyph glyph-name="Uacute" unicode="&#xda;" horiz-adv-x="1487" 
d="M671 1541l155 364h132l-170 -364h-117zM744 -22q-137 0 -246.5 32t-187 99t-119.5 170.5t-42 246.5v917h149v-926q0 -106 32 -183t91 -127.5t141 -75t182 -24.5q101 0 183.5 23.5t141 73.5t90 128t31.5 185v926h148v-917q0 -144 -41.5 -247.5t-118.5 -170.5t-187 -98.5
t-247 -31.5z" />
    <glyph glyph-name="Ucircumflex" unicode="&#xdb;" horiz-adv-x="1487" 
d="M443 1540l245 315h111l245 -315h-123l-177 233l-176 -233h-125zM744 -22q-137 0 -246.5 32t-187 99t-119.5 170.5t-42 246.5v917h149v-926q0 -106 32 -183t91 -127.5t141 -75t182 -24.5q101 0 183.5 23.5t141 73.5t90 128t31.5 185v926h148v-917q0 -144 -41.5 -247.5
t-118.5 -170.5t-187 -98.5t-247 -31.5z" />
    <glyph glyph-name="Udieresis" unicode="&#xdc;" horiz-adv-x="1487" 
d="M487 1605v127h131v-127h-131zM869 1605v127h132v-127h-132zM744 -22q-137 0 -246.5 32t-187 99t-119.5 170.5t-42 246.5v917h149v-926q0 -106 32 -183t91 -127.5t141 -75t182 -24.5q101 0 183.5 23.5t141 73.5t90 128t31.5 185v926h148v-917q0 -144 -41.5 -247.5
t-118.5 -170.5t-187 -98.5t-247 -31.5z" />
    <glyph glyph-name="Yacute" unicode="&#xdd;" horiz-adv-x="1408" 
d="M619 1541l155 364h132l-171 -364h-116zM630 0v539l-515 904h155l434 -773l435 773h154l-514 -904v-539h-149z" />
    <glyph glyph-name="Thorn" unicode="&#xde;" horiz-adv-x="1283" 
d="M160 0v1443h149v-272h440q111 0 197.5 -28.5t145.5 -85.5t89.5 -142t30.5 -198q0 -109 -34 -192.5t-96.5 -140t-149 -86t-192.5 -29.5h-431v-269h-149zM309 388h412q158 0 250.5 83.5t92.5 245.5q0 167 -83 250t-249 83h-423v-662z" />
    <glyph glyph-name="germandbls" unicode="&#xdf;" horiz-adv-x="1390" 
d="M831 -22q-78 0 -162 9.5t-158 39.5v124q71 -29 146 -39t151 -10q158 0 238 87t80 242q0 127 -44.5 191t-117 90t-166.5 26h-191v115h191q61 0 111.5 19.5t85.5 56.5t54.5 90t19.5 120q0 88 -31 145.5t-83.5 91t-122 48t-146.5 14.5q-194 0 -291 -92.5t-97 -288.5v-1057
h-149v1068q0 123 39 216t110 156.5t169 95.5t217 32q102 0 198.5 -23.5t170.5 -74t119 -132t45 -197.5q0 -107 -46 -201.5t-148 -141.5q67 -16 114.5 -52.5t77.5 -86t45 -110t15 -124.5q0 -105 -29.5 -189t-86 -141t-138.5 -87t-190 -30z" />
    <glyph glyph-name="agrave" unicode="&#xe0;" horiz-adv-x="1194" 
d="M593 1169l-171 364h132l155 -364h-116zM486 -22q-73 0 -140 16.5t-118.5 53t-82 94t-30.5 139.5q0 72 20 124.5t54 87.5t79 56t95.5 31.5t104 14t105.5 3.5h329v105q0 87 -22 140t-64 82.5t-104 38.5t-141 9q-86 0 -169.5 -13.5t-164.5 -42.5v108q43 17 89 28t93.5 18.5
t95 10t91.5 2.5q102 0 183.5 -19.5t138.5 -63.5t87 -117.5t30 -183.5v-700h-126l-11 130q-84 -92 -193.5 -122t-228.5 -30zM529 81q112 0 205 35t168 122v259h-385q-56 0 -104 -8.5t-84 -32.5t-56.5 -65t-20.5 -106q0 -62 24 -101.5t62.5 -62t89 -31.5t101.5 -9z" />
    <glyph glyph-name="aacute" unicode="&#xe1;" horiz-adv-x="1194" 
d="M559 1169l155 364h132l-171 -364h-116zM486 -22q-73 0 -140 16.5t-118.5 53t-82 94t-30.5 139.5q0 72 20 124.5t54 87.5t79 56t95.5 31.5t104 14t105.5 3.5h329v105q0 87 -22 140t-64 82.5t-104 38.5t-141 9q-86 0 -169.5 -13.5t-164.5 -42.5v108q43 17 89 28t93.5 18.5
t95 10t91.5 2.5q102 0 183.5 -19.5t138.5 -63.5t87 -117.5t30 -183.5v-700h-126l-11 130q-84 -92 -193.5 -122t-228.5 -30zM529 81q112 0 205 35t168 122v259h-385q-56 0 -104 -8.5t-84 -32.5t-56.5 -65t-20.5 -106q0 -62 24 -101.5t62.5 -62t89 -31.5t101.5 -9z" />
    <glyph glyph-name="acircumflex" unicode="&#xe2;" horiz-adv-x="1194" 
d="M327 1168l244 316h113l244 -316h-123l-178 233l-175 -233h-125zM486 -22q-73 0 -140 16.5t-118.5 53t-82 94t-30.5 139.5q0 72 20 124.5t54 87.5t79 56t95.5 31.5t104 14t105.5 3.5h329v105q0 87 -22 140t-64 82.5t-104 38.5t-141 9q-86 0 -169.5 -13.5t-164.5 -42.5v108
q43 17 89 28t93.5 18.5t95 10t91.5 2.5q102 0 183.5 -19.5t138.5 -63.5t87 -117.5t30 -183.5v-700h-126l-11 130q-84 -92 -193.5 -122t-228.5 -30zM529 81q112 0 205 35t168 122v259h-385q-56 0 -104 -8.5t-84 -32.5t-56.5 -65t-20.5 -106q0 -62 24 -101.5t62.5 -62
t89 -31.5t101.5 -9z" />
    <glyph glyph-name="atilde" unicode="&#xe3;" horiz-adv-x="1194" 
d="M800 1223q-42 0 -80.5 13.5t-76 29t-73 29t-73.5 13.5q-54 0 -99 -19t-81 -60v118q30 36 79 50.5t94 14.5q44 0 82 -13t74 -29t72 -29t75 -13q51 0 92.5 18.5t72.5 61.5v-119q-27 -38 -70.5 -52t-87.5 -14zM486 -22q-73 0 -140 16.5t-118.5 53t-82 94t-30.5 139.5
q0 72 20 124.5t54 87.5t79 56t95.5 31.5t104 14t105.5 3.5h329v105q0 87 -22 140t-64 82.5t-104 38.5t-141 9q-86 0 -169.5 -13.5t-164.5 -42.5v108q43 17 89 28t93.5 18.5t95 10t91.5 2.5q102 0 183.5 -19.5t138.5 -63.5t87 -117.5t30 -183.5v-700h-126l-11 130
q-84 -92 -193.5 -122t-228.5 -30zM529 81q112 0 205 35t168 122v259h-385q-56 0 -104 -8.5t-84 -32.5t-56.5 -65t-20.5 -106q0 -62 24 -101.5t62.5 -62t89 -31.5t101.5 -9z" />
    <glyph glyph-name="adieresis" unicode="&#xe4;" horiz-adv-x="1194" 
d="M381 1234v126h131v-126h-131zM764 1234v126h131v-126h-131zM486 -22q-73 0 -140 16.5t-118.5 53t-82 94t-30.5 139.5q0 72 20 124.5t54 87.5t79 56t95.5 31.5t104 14t105.5 3.5h329v105q0 87 -22 140t-64 82.5t-104 38.5t-141 9q-86 0 -169.5 -13.5t-164.5 -42.5v108
q43 17 89 28t93.5 18.5t95 10t91.5 2.5q102 0 183.5 -19.5t138.5 -63.5t87 -117.5t30 -183.5v-700h-126l-11 130q-84 -92 -193.5 -122t-228.5 -30zM529 81q112 0 205 35t168 122v259h-385q-56 0 -104 -8.5t-84 -32.5t-56.5 -65t-20.5 -106q0 -62 24 -101.5t62.5 -62
t89 -31.5t101.5 -9z" />
    <glyph glyph-name="aring" unicode="&#xe5;" horiz-adv-x="1194" 
d="M648 1168q-50 0 -93.5 18t-74.5 48.5t-49 73t-18 93.5q0 102 66.5 168t168.5 66q103 0 170.5 -65t67.5 -169q0 -102 -68.5 -167.5t-169.5 -65.5zM648 1253q64 0 107 41t43 107t-42 107.5t-108 41.5t-107 -43t-41 -106q0 -64 42 -106t106 -42zM486 -22q-73 0 -140 16.5
t-118.5 53t-82 94t-30.5 139.5q0 72 20 124.5t54 87.5t79 56t95.5 31.5t104 14t105.5 3.5h329v105q0 87 -22 140t-64 82.5t-104 38.5t-141 9q-86 0 -169.5 -13.5t-164.5 -42.5v108q43 17 89 28t93.5 18.5t95 10t91.5 2.5q102 0 183.5 -19.5t138.5 -63.5t87 -117.5t30 -183.5
v-700h-126l-11 130q-84 -92 -193.5 -122t-228.5 -30zM529 81q112 0 205 35t168 122v259h-385q-56 0 -104 -8.5t-84 -32.5t-56.5 -65t-20.5 -106q0 -62 24 -101.5t62.5 -62t89 -31.5t101.5 -9z" />
    <glyph glyph-name="ae" unicode="&#xe6;" horiz-adv-x="1967" 
d="M494 -22q-74 0 -142 16t-121 52t-84.5 94t-31.5 141q0 109 43.5 172t112 95.5t154.5 41t171 8.5h306v105q0 87 -21.5 139.5t-62.5 82.5t-102 39t-140 9q-87 0 -172.5 -13.5t-166.5 -42.5v108q43 17 89 28t93.5 18.5t95 10t91.5 2.5q64 0 124.5 -8.5t111.5 -31t90 -62.5
t60 -105q64 115 172 161t238 46q104 0 187 -28.5t141.5 -83t90 -134.5t31.5 -185v-186h-807q4 -109 36 -182t88.5 -116.5t138 -62t184.5 -18.5q74 0 149 14.5t142 41.5v-108q-75 -32 -157.5 -45t-164.5 -13q-74 0 -144.5 9.5t-133.5 36t-113.5 72.5t-84.5 117
q-42 -67 -95 -112t-115.5 -73t-133 -39t-147.5 -11zM1045 569h672v96q0 157 -81 233t-238 76q-99 0 -166.5 -28.5t-109.5 -82t-59.5 -128t-17.5 -166.5zM529 81q61 0 124 14.5t116 45t89.5 77.5t43.5 112v167h-385q-56 0 -104 -8.5t-84 -32.5t-56.5 -65t-20.5 -106
q0 -62 24 -101.5t62.5 -62t89 -31.5t101.5 -9z" />
    <glyph glyph-name="ccedilla" unicode="&#xe7;" horiz-adv-x="1082" 
d="M558 -538q-36 0 -73.5 4t-71.5 14v85q35 -9 69.5 -13.5t71.5 -4.5q38 0 76.5 4.5t70.5 19t52 42t20 76.5q0 55 -29 81t-72 36.5t-92 9.5t-86 -1l56 168q-118 15 -200.5 60t-134.5 117t-76 165.5t-24 205.5q0 134 37.5 236.5t107.5 173t173 107t235 36.5q83 0 152.5 -11.5
t145.5 -47.5v-114q-66 30 -132.5 43.5t-138.5 13.5q-108 0 -189 -28t-134.5 -83.5t-80.5 -136.5t-27 -189q0 -110 23.5 -192t73.5 -136t130.5 -81.5t192.5 -27.5q74 0 145 15t138 44v-118q-75 -31 -153 -43t-160 -13l-32 -91q50 0 96.5 -9t82 -32t58 -61t22.5 -95
q0 -72 -28 -116t-74 -70t-103 -34.5t-118 -8.5z" />
    <glyph glyph-name="egrave" unicode="&#xe8;" horiz-adv-x="1179" 
d="M560 1169l-172 364h133l154 -364h-115zM672 -22q-143 0 -248 34t-173.5 103.5t-102 175t-33.5 246.5q0 126 28.5 226.5t88.5 172t154.5 110t227.5 38.5q103 0 186 -28t141.5 -82.5t90 -135t31.5 -185.5v-186h-807q8 -107 40 -179.5t88 -116.5t135.5 -63t184.5 -19
q74 0 148 13.5t142 42.5v-109q-76 -32 -157.5 -45t-164.5 -13zM256 569h672v96q0 159 -81.5 234t-237.5 75q-100 0 -167 -29t-108.5 -82.5t-59.5 -128t-18 -165.5z" />
    <glyph glyph-name="eacute" unicode="&#xe9;" horiz-adv-x="1179" 
d="M544 1169l155 364h132l-171 -364h-116zM672 -22q-143 0 -248 34t-173.5 103.5t-102 175t-33.5 246.5q0 126 28.5 226.5t88.5 172t154.5 110t227.5 38.5q103 0 186 -28t141.5 -82.5t90 -135t31.5 -185.5v-186h-807q8 -107 40 -179.5t88 -116.5t135.5 -63t184.5 -19
q74 0 148 13.5t142 42.5v-109q-76 -32 -157.5 -45t-164.5 -13zM256 569h672v96q0 159 -81.5 234t-237.5 75q-100 0 -167 -29t-108.5 -82.5t-59.5 -128t-18 -165.5z" />
    <glyph glyph-name="ecircumflex" unicode="&#xea;" horiz-adv-x="1179" 
d="M314 1168l245 316h112l245 -316h-123l-178 233l-176 -233h-125zM672 -22q-143 0 -248 34t-173.5 103.5t-102 175t-33.5 246.5q0 126 28.5 226.5t88.5 172t154.5 110t227.5 38.5q103 0 186 -28t141.5 -82.5t90 -135t31.5 -185.5v-186h-807q8 -107 40 -179.5t88 -116.5
t135.5 -63t184.5 -19q74 0 148 13.5t142 42.5v-109q-76 -32 -157.5 -45t-164.5 -13zM256 569h672v96q0 159 -81.5 234t-237.5 75q-100 0 -167 -29t-108.5 -82.5t-59.5 -128t-18 -165.5z" />
    <glyph glyph-name="edieresis" unicode="&#xeb;" horiz-adv-x="1179" 
d="M356 1234v126h131v-126h-131zM739 1234v126h132v-126h-132zM672 -22q-143 0 -248 34t-173.5 103.5t-102 175t-33.5 246.5q0 126 28.5 226.5t88.5 172t154.5 110t227.5 38.5q103 0 186 -28t141.5 -82.5t90 -135t31.5 -185.5v-186h-807q8 -107 40 -179.5t88 -116.5
t135.5 -63t184.5 -19q74 0 148 13.5t142 42.5v-109q-76 -32 -157.5 -45t-164.5 -13zM256 569h672v96q0 159 -81.5 234t-237.5 75q-100 0 -167 -29t-108.5 -82.5t-59.5 -128t-18 -165.5z" />
    <glyph glyph-name="igrave" unicode="&#xec;" horiz-adv-x="638" 
d="M335 1169l-171 364h133l154 -364h-116zM329 0v944h-169l10 118h306v-1062h-147z" />
    <glyph glyph-name="iacute" unicode="&#xed;" horiz-adv-x="638" 
d="M312 1169l154 364h133l-171 -364h-116zM329 0v944h-169l10 118h306v-1062h-147z" />
    <glyph glyph-name="icircumflex" unicode="&#xee;" horiz-adv-x="638" 
d="M31 1168l245 316h112l245 -316h-123l-178 233l-176 -233h-125zM329 0v944h-169l10 118h306v-1062h-147z" />
    <glyph glyph-name="idieresis" unicode="&#xef;" horiz-adv-x="638" 
d="M64 1234v126h132v-126h-132zM448 1234v126h131v-126h-131zM329 0v944h-169l10 118h306v-1062h-147z" />
    <glyph glyph-name="eth" unicode="&#xf0;" horiz-adv-x="1275" 
d="M627 -22q-111 0 -205 27.5t-162 84.5t-106.5 143.5t-38.5 205.5q0 117 35 203t99 141.5t155 82t203 26.5q105 0 207 -34t187 -97v124q0 85 -14 174.5t-63 161.5l-291 -126v77l243 106q-52 46 -116.5 63.5t-131.5 17.5q-80 0 -159 -10.5t-156 -38.5v109q81 28 164.5 37
t167.5 9q98 0 191.5 -29.5t162.5 -104.5l216 95v-77l-170 -76q59 -91 78 -196.5t19 -211.5v-342q0 -132 -29.5 -233.5t-92 -171t-160 -105t-233.5 -35.5zM628 86q194 0 283.5 96t89.5 287v189q-81 61 -175 95.5t-195 34.5q-179 0 -279.5 -80.5t-100.5 -268.5
q0 -180 102 -266.5t275 -86.5z" />
    <glyph glyph-name="ntilde" unicode="&#xf1;" horiz-adv-x="1258" 
d="M820 1223q-41 0 -79 13.5t-75 29t-73.5 29t-75.5 13.5q-54 0 -99 -19t-81 -60v118q30 36 79 50.5t95 14.5q42 0 80 -13t74.5 -28.5t72.5 -29t76 -13.5q51 0 92.5 18.5t71.5 61.5v-119q-13 -18 -30.5 -30.5t-39 -20.5t-44 -11.5t-44.5 -3.5zM160 0v1062h134l11 -126
q95 78 199.5 113t227.5 35q198 0 287.5 -93t89.5 -289v-702h-149v693q0 82 -16.5 135t-52 84t-91 43.5t-133.5 12.5q-102 0 -193.5 -40.5t-164.5 -111.5v-816h-149z" />
    <glyph glyph-name="ograve" unicode="&#xf2;" horiz-adv-x="1265" 
d="M591 1169l-172 364h132l155 -364h-115zM632 -22q-136 0 -233.5 37t-160.5 108t-93 174t-30 234q0 130 30 232.5t92.5 174t160.5 109t234 37.5q137 0 235.5 -36.5t161 -107.5t91.5 -174t29 -235q0 -133 -29 -236t-91.5 -173.5t-160.5 -107t-236 -36.5zM632 99
q110 0 181.5 29.5t113.5 85.5t58 136.5t16 180.5t-16 180t-58 136.5t-113.5 86t-181.5 29.5q-108 0 -179 -30.5t-113 -87t-59 -136.5t-17 -178q0 -99 16.5 -179.5t58 -137t113 -86t180.5 -29.5z" />
    <glyph glyph-name="oacute" unicode="&#xf3;" horiz-adv-x="1265" 
d="M578 1169l154 364h132l-170 -364h-116zM632 -22q-136 0 -233.5 37t-160.5 108t-93 174t-30 234q0 130 30 232.5t92.5 174t160.5 109t234 37.5q137 0 235.5 -36.5t161 -107.5t91.5 -174t29 -235q0 -133 -29 -236t-91.5 -173.5t-160.5 -107t-236 -36.5zM632 99
q110 0 181.5 29.5t113.5 85.5t58 136.5t16 180.5t-16 180t-58 136.5t-113.5 86t-181.5 29.5q-108 0 -179 -30.5t-113 -87t-59 -136.5t-17 -178q0 -99 16.5 -179.5t58 -137t113 -86t180.5 -29.5z" />
    <glyph glyph-name="ocircumflex" unicode="&#xf4;" horiz-adv-x="1265" 
d="M324 1168l244 316h113l244 -316h-123l-178 233l-175 -233h-125zM632 -22q-136 0 -233.5 37t-160.5 108t-93 174t-30 234q0 130 30 232.5t92.5 174t160.5 109t234 37.5q137 0 235.5 -36.5t161 -107.5t91.5 -174t29 -235q0 -133 -29 -236t-91.5 -173.5t-160.5 -107
t-236 -36.5zM632 99q110 0 181.5 29.5t113.5 85.5t58 136.5t16 180.5t-16 180t-58 136.5t-113.5 86t-181.5 29.5q-108 0 -179 -30.5t-113 -87t-59 -136.5t-17 -178q0 -99 16.5 -179.5t58 -137t113 -86t180.5 -29.5z" />
    <glyph glyph-name="otilde" unicode="&#xf5;" horiz-adv-x="1265" 
d="M796 1231q-41 0 -79.5 13.5t-75.5 29t-73 28.5t-75 13q-54 0 -99 -18.5t-81 -60.5v118q30 37 79 51.5t94 14.5q43 0 81 -13t74 -28.5t72.5 -29t75.5 -13.5q51 0 93 18.5t72 61.5v-120q-13 -18 -31 -30t-39 -20t-43.5 -11.5t-44.5 -3.5zM632 -22q-136 0 -233.5 37
t-160.5 108t-93 174t-30 234q0 130 30 232.5t92.5 174t160.5 109t234 37.5q137 0 235.5 -36.5t161 -107.5t91.5 -174t29 -235q0 -133 -29 -236t-91.5 -173.5t-160.5 -107t-236 -36.5zM632 99q110 0 181.5 29.5t113.5 85.5t58 136.5t16 180.5t-16 180t-58 136.5t-113.5 86
t-181.5 29.5q-108 0 -179 -30.5t-113 -87t-59 -136.5t-17 -178q0 -99 16.5 -179.5t58 -137t113 -86t180.5 -29.5z" />
    <glyph glyph-name="odieresis" unicode="&#xf6;" horiz-adv-x="1265" 
d="M375 1234v126h132v-126h-132zM758 1234v126h131v-126h-131zM632 -22q-136 0 -233.5 37t-160.5 108t-93 174t-30 234q0 130 30 232.5t92.5 174t160.5 109t234 37.5q137 0 235.5 -36.5t161 -107.5t91.5 -174t29 -235q0 -133 -29 -236t-91.5 -173.5t-160.5 -107t-236 -36.5z
M632 99q110 0 181.5 29.5t113.5 85.5t58 136.5t16 180.5t-16 180t-58 136.5t-113.5 86t-181.5 29.5q-108 0 -179 -30.5t-113 -87t-59 -136.5t-17 -178q0 -99 16.5 -179.5t58 -137t113 -86t180.5 -29.5z" />
    <glyph glyph-name="divide" unicode="&#xf7;" horiz-adv-x="1072" 
d="M469 865v132h133v-132h-133zM115 512v120h840v-120h-840zM469 160v132h133v-132h-133z" />
    <glyph glyph-name="oslash" unicode="&#xf8;" horiz-adv-x="1265" 
d="M362 -120l46 129q-87 29 -144 83t-89.5 123.5t-46 150.5t-13.5 165q0 131 30 233.5t93 174t161 108.5t233 37q40 0 80 -3.5t79 -14.5l43 117h98l-51 -142q82 -33 134 -86.5t81.5 -121t41 -145.5t11.5 -157q0 -134 -29 -236.5t-91.5 -173t-160.5 -107t-236 -36.5
q-35 0 -67.5 2.5t-66.5 8.5l-38 -109h-98zM455 130l292 821q-28 8 -56.5 11t-58.5 3q-108 0 -179.5 -30t-114 -86.5t-60 -137t-17.5 -180.5q0 -61 7 -122t27 -115.5t58.5 -97t101.5 -66.5zM632 97q111 0 181.5 30t114 86.5t60.5 137t17 180.5q0 55 -6.5 112t-24.5 110
t-51.5 97t-87.5 70l-292 -817q22 -4 44 -5t45 -1z" />
    <glyph glyph-name="ugrave" unicode="&#xf9;" horiz-adv-x="1258" 
d="M585 1169l-172 364h133l154 -364h-115zM543 -22q-197 0 -295.5 110.5t-98.5 302.5v671h149v-665q0 -156 77 -230t232 -74q99 0 186 39.5t156 112.5v817h148v-1062h-133l-11 125q-92 -81 -189.5 -114t-220.5 -33z" />
    <glyph glyph-name="uacute" unicode="&#xfa;" horiz-adv-x="1258" 
d="M539 1169l155 364h132l-171 -364h-116zM543 -22q-197 0 -295.5 110.5t-98.5 302.5v671h149v-665q0 -156 77 -230t232 -74q99 0 186 39.5t156 112.5v817h148v-1062h-133l-11 125q-92 -81 -189.5 -114t-220.5 -33z" />
    <glyph glyph-name="ucircumflex" unicode="&#xfb;" horiz-adv-x="1258" 
d="M323 1168l245 316h112l244 -316h-123l-178 233l-175 -233h-125zM543 -22q-197 0 -295.5 110.5t-98.5 302.5v671h149v-665q0 -156 77 -230t232 -74q99 0 186 39.5t156 112.5v817h148v-1062h-133l-11 125q-92 -81 -189.5 -114t-220.5 -33z" />
    <glyph glyph-name="udieresis" unicode="&#xfc;" horiz-adv-x="1258" 
d="M362 1234v126h131v-126h-131zM745 1234v126h132v-126h-132zM543 -22q-197 0 -295.5 110.5t-98.5 302.5v671h149v-665q0 -156 77 -230t232 -74q99 0 186 39.5t156 112.5v817h148v-1062h-133l-11 125q-92 -81 -189.5 -114t-220.5 -33z" />
    <glyph glyph-name="yacute" unicode="&#xfd;" horiz-adv-x="1280" 
d="M577 1169l155 364h132l-170 -364h-117zM337 -394q-43 0 -87 5t-85 22v113q32 -13 66.5 -18.5t70.5 -5.5q60 0 104 26.5t76.5 68.5t56 93t43.5 99l-467 1053h155l386 -898l400 898h153l-454 -1023q-30 -69 -65 -145.5t-83.5 -140t-114 -105.5t-155.5 -42z" />
    <glyph glyph-name="thorn" unicode="&#xfe;" horiz-adv-x="1269" 
d="M160 -484v2052h149v-612q78 72 167.5 100t195.5 28q135 0 227 -41t148.5 -115t81.5 -176t25 -226q0 -122 -29 -223t-89 -173.5t-153 -112t-222 -39.5q-101 0 -185 23t-167 83v-568h-149zM624 93q106 0 179.5 33t118 91.5t64 140.5t19.5 180t-17 178t-58.5 136
t-112.5 86.5t-179 30.5q-98 0 -179.5 -34t-149.5 -103v-627q73 -56 147 -84t168 -28z" />
    <glyph glyph-name="ydieresis" unicode="&#xff;" horiz-adv-x="1280" 
d="M412 1245v126h131v-126h-131zM795 1245v126h132v-126h-132zM337 -394q-43 0 -87 5t-85 22v113q32 -13 66.5 -18.5t70.5 -5.5q60 0 104 26.5t76.5 68.5t56 93t43.5 99l-467 1053h155l386 -898l400 898h153l-454 -1023q-30 -69 -65 -145.5t-83.5 -140t-114 -105.5
t-155.5 -42z" />
    <glyph glyph-name="uni060C" unicode="&#x60c;" horiz-adv-x="639" 
d="M419 30.5q-41 -35.5 -102 -35.5q-58 0 -98.5 42t-40.5 103v225q2 112 68.5 192t167.5 95l35 5l14 -101l-48 -7q-50 -10 -87.5 -55t-36.5 -103v-172q44 23 83 18.5t62.5 -33t23.5 -74.5q0 -64 -41 -99.5z" />
    <glyph glyph-name="uni0615" unicode="&#x615;" 
d="M60 1623q62 0 103.5 31.5t41.5 77.5q0 59 -35 104.5t-106 45.5q-55 0 -98 -45.5t-69.5 -102.5t-43.5 -111h207zM-224 2174h83v-357q89 149 205 149q70 0 121 -32.5t77 -86t26 -115.5q1 -54 -29 -98t-82.5 -69t-116.5 -25h-348v83h52q6 23 12 41v510z" />
    <glyph glyph-name="uni0615" unicode="&#xfbc0;" 
d="M60 1623q62 0 103.5 31.5t41.5 77.5q0 59 -35 104.5t-106 45.5q-55 0 -98 -45.5t-69.5 -102.5t-43.5 -111h207zM-224 2174h83v-357q89 149 205 149q70 0 121 -32.5t77 -86t26 -115.5q1 -54 -29 -98t-82.5 -69t-116.5 -25h-348v83h52q6 23 12 41v510z" />
    <glyph glyph-name="uni0615" unicode="&#xe0bf;" 
d="M60 1623q62 0 103.5 31.5t41.5 77.5q0 59 -35 104.5t-106 45.5q-55 0 -98 -45.5t-69.5 -102.5t-43.5 -111h207zM-224 2174h83v-357q89 149 205 149q70 0 121 -32.5t77 -86t26 -115.5q1 -54 -29 -98t-82.5 -69t-116.5 -25h-348v83h52q6 23 12 41v510z" />
    <glyph glyph-name="uni061B" unicode="&#x61b;" horiz-adv-x="639" 
d="M419 364q-41 -36 -102 -36q-58 0 -98.5 42t-40.5 103v225q2 112 68.5 192t167.5 95l35 5l14 -101l-49 -7q-49 -10 -86.5 -55t-36.5 -103v-172q44 23 83 18.5t62.5 -33t23.5 -74.5q0 -63 -41 -99zM404 0h-162v152h162v-152z" />
    <glyph glyph-name="uni061F" unicode="&#x61f;" horiz-adv-x="1133" 
d="M577 0v130h162v-130h-162zM588 339v45q0 100 -78 180.5t-159 143.5q-111 90 -162 165.5t-51 190.5q0 188 116 289t350 101q237 0 391 -180l-94 -105q-119 151 -292 151q-321 0 -321 -269q0 -98 48.5 -158.5t153.5 -142.5q99 -78 169.5 -158t69.5 -202v-51h-141z" />
    <glyph glyph-name="uni0640" unicode="&#x640;" horiz-adv-x="302" 
d="M302 140v-140h-302q-39 14 -54 42t0 56t54 42h302z" />
    <glyph glyph-name="uni0640" unicode="&#xe0b5;" horiz-adv-x="302" 
d="M302 140v-140h-302q-39 14 -54 42t0 56t54 42h302z" />
    <glyph glyph-name="uni0653" unicode="&#x653;" 
d="M-371 36l54 134q32 81 103 129t158 48h434v-97h-434q-57 0 -103.5 -31.5t-67.5 -83.5l-53 -135z" />
    <glyph glyph-name="uni0653" unicode="&#xe010;" 
d="M-371 36l54 134q32 81 103 129t158 48h434v-97h-434q-57 0 -103.5 -31.5t-67.5 -83.5l-53 -135z" />
    <glyph glyph-name="uni0654" unicode="&#x654;" 
d="M-214 1819l136 54q-56 21 -91.5 71.5t-35.5 113.5q0 55 27 105t76.5 80.5t112.5 30.5q40 0 70 -10t70 -29l6 -3l-21 -72q-5 2 -15 7q-32 14 -56 21.5t-54 7.5q-59 0 -98.5 -42t-39.5 -96q-1 -52 36.5 -93.5t102.5 -55.5l202 80v-83l-428 -171v84z" />
    <glyph glyph-name="uni0654" unicode="&#x674;" 
d="M-214 1819l136 54q-56 21 -91.5 71.5t-35.5 113.5q0 55 27 105t76.5 80.5t112.5 30.5q40 0 70 -10t70 -29l6 -3l-21 -72q-5 2 -15 7q-32 14 -56 21.5t-54 7.5q-59 0 -98.5 -42t-39.5 -96q-1 -52 36.5 -93.5t102.5 -55.5l202 80v-83l-428 -171v84z" />
    <glyph glyph-name="uni0655" unicode="&#x655;" 
d="M-214 -951l136 54q-56 20 -91.5 70.5t-35.5 113.5q0 56 27 105.5t76.5 80.5t112.5 31q40 0 70 -10t70 -30q4 -2 6 -2l-21 -72l-15 6q-32 15 -56 22.5t-54 7.5q-59 0 -98.5 -42t-39.5 -97q-1 -52 36.5 -93t102.5 -56l202 81v-84l-428 -170v84z" />
    <glyph glyph-name="uni0656" unicode="&#x656;" 
d="M39 -507v-367h-78v367h78z" />
    <glyph glyph-name="uni0656" unicode="&#x8ad;" 
d="M39 -507v-367h-78v367h78z" />
    <glyph glyph-name="uni065A" unicode="&#x65a;" 
d="M-31 1540l-275 316l107 2l199 -227l199 227l107 -2l-275 -316h-62z" />
    <glyph glyph-name="uni065B" unicode="&#x65b;" 
d="M306 1541l-107 -1l-199 227l-199 -227l-107 1l275 317h62z" />
    <glyph glyph-name="uni0660" unicode="&#x660;" horiz-adv-x="590" 
d="M295 634l171 -171l-171 -171l-171 171z" />
    <glyph glyph-name="uni0661" unicode="&#x661;" horiz-adv-x="519" 
d="M223 0v664q0 131 -14.5 292.5t-42.5 279.5l-16 68l135 31l16 -67q30 -128 46 -297.5t16 -306.5v-664h-140z" />
    <glyph glyph-name="uni0662" unicode="&#x662;" horiz-adv-x="1019" 
d="M540 823q88 10 139 61t54 130q2 70 -5 125.5t-25 154.5q-3 14 -5 21l137 26q0 -2 1 -7q23 -118 30.5 -181t5.5 -143q-5 -132 -90 -219.5t-224 -105.5q-66 -8 -121.5 13t-77.5 61q3 -64 4 -121v-638h-140v664q0 131 -14.5 292.5t-42.5 279.5l-16 68l135 31l16 -67
q33 -140 49 -340q62 -121 190 -105z" />
    <glyph glyph-name="uni0663" unicode="&#x663;" horiz-adv-x="1512" 
d="M1270.5 795q-87.5 -88 -228.5 -106q-75 -10 -146.5 19t-116.5 86q-81 -89 -224 -109q-64 -8 -119 13t-77 59q3 -62 3 -115v-642h-139v664q0 131 -14.5 292.5t-42.5 279.5l-16 68l135 31l16 -67q33 -140 49 -340q62 -121 187 -105q87 10 138.5 61t53.5 130
q2 70 -4.5 125.5t-25.5 154.5q-3 14 -4 21l136 26q1 -2 2 -7q22 -117 30 -180.5t5 -143.5q-1 -49 -21 -94q32 -51 78 -73.5t100 -15.5q89 11 143.5 63t57.5 129q2 68 -4.5 120t-25.5 154q-4 17 -5 26l137 26q2 -8 4 -23q21 -110 28.5 -170.5t4.5 -137.5q-7 -131 -94.5 -219z
" />
    <glyph glyph-name="uni0664" unicode="&#x664;" horiz-adv-x="1026" 
d="M349 1179q72 82 168.5 121.5t196.5 39.5q70 0 121 -16l-9 -135q-67 17 -112 17q-66 0 -134.5 -26t-123 -83.5t-72.5 -147.5q-11 -49 0.5 -90t40.5 -70q41 -42 112.5 -56t161.5 4l90 18l27 -132l-91 -18q-14 -3 -32 2.5t-47 16.5q-46 19 -64 19q-121 -8 -202.5 33.5
t-114.5 120.5t-13 180q25 120 97 202zM491 0q-94 0 -173 46t-125.5 125t-46.5 173q0 81 35.5 152.5t99 120.5t142.5 65l367 73l26 -132l-366 -72q-75 -16 -123 -76t-46 -136q1 -56 29.5 -103t76.5 -74.5t104 -27.5h389l-1 -134h-388z" />
    <glyph glyph-name="uni0665" unicode="&#x665;" horiz-adv-x="1374" 
d="M654 -7q-230 0 -365 126.5t-135 406.5q0 205 61 388t181.5 297.5t289.5 114.5q170 0 291 -114.5t182 -297.5t61 -388q0 -280 -135 -406.5t-365 -126.5h-66zM470.5 1095q-90.5 -97 -136.5 -250t-46 -319q0 -116 27.5 -202.5t108 -141.5t230.5 -55h66q149 0 230 55
t108.5 141.5t27.5 202.5q0 166 -46 319t-136.5 250t-217.5 97q-125 0 -215.5 -97z" />
    <glyph glyph-name="uni0666" unicode="&#x666;" horiz-adv-x="1206" 
d="M805.5 342.5q-46.5 199.5 -34 417t89.5 421.5q-162 -40 -287.5 -43t-224 20t-206.5 69l48 122q106 -44 205 -64.5t236 -10t318 66.5l79 -96q-98 -179 -121.5 -400t19.5 -430.5t135 -358.5l-114 -70q-96 157 -142.5 356.5z" />
    <glyph glyph-name="uni0667" unicode="&#x667;" horiz-adv-x="1266" 
d="M1023.5 1019.5q-64.5 -137.5 -120 -275.5t-99 -273.5t-69.5 -256t-32 -217.5h-142q-8 160 -73 383.5t-163.5 456t-216.5 448.5l116 60q136 -234 244.5 -511t164.5 -591q56 314 164 591t244 511l117 -60q-70 -128 -134.5 -265.5z" />
    <glyph glyph-name="uni0668" unicode="&#x668;" horiz-adv-x="1218" 
d="M1041 -10q-307 534 -408 1103q-101 -569 -409 -1103l-116 60q118 217 218 453t163.5 456t71.5 380h142q11 -169 75.5 -388t163 -451.5t216.5 -449.5z" />
    <glyph glyph-name="uni0669" unicode="&#x669;" horiz-adv-x="1086" 
d="M793 920q0 72 -30.5 140t-88 111t-133.5 43q-68 0 -126.5 -35t-93.5 -94t-35 -127q2 -114 75.5 -181t181.5 -58q75 9 133 26t117 66v109zM675 604.5q-57 -15.5 -127 -23.5q-110 -11 -201.5 36.5t-144.5 138t-52 202.5q0 105 53.5 195t143.5 143.5t193 53.5
q117 0 205 -61.5t135.5 -160.5t47.5 -207v-921h-139v659q-57 -39 -114 -54.5z" />
    <glyph glyph-name="uni066A" unicode="&#x66a;" horiz-adv-x="1247" 
d="M207 30l737 1274l95 -47l-736 -1273zM318.5 1174q27.5 -28 27.5 -67q0 -40 -27.5 -67.5t-67.5 -27.5q-39 0 -66.5 27.5t-27.5 67.5q0 39 27.5 67t66.5 28q40 0 67.5 -28zM1062.5 248.5q27.5 -27.5 27.5 -67.5q0 -39 -27.5 -67t-67.5 -28q-39 0 -66.5 28t-27.5 67
q0 40 27.5 67.5t66.5 27.5q40 0 67.5 -27.5z" />
    <glyph glyph-name="uni066B" unicode="&#x66b;" horiz-adv-x="602" 
d="M0 -370l356 784l89 -39l-356 -785z" />
    <glyph glyph-name="uni066C" unicode="&#x66c;" horiz-adv-x="472" 
d="M81 -155l44 24q45 25 69 76.5t24 114.5v192h97v-192q0 -95 -37.5 -167.5t-106.5 -109.5l-43 -24z" />
    <glyph glyph-name="uni066D" unicode="&#x66d;" horiz-adv-x="1340" 
d="M670 1155l122 -372h391l-316 -232l122 -371l-319 229l-319 -229l122 371l-316 232h391z" />
    <glyph glyph-name="uni066E" unicode="&#x66e;" horiz-adv-x="1827" 
d="M305 308.5q24 -76.5 84 -122.5t141 -46h784q61 0 112.5 30t81.5 81.5t30 112.5v321h133v-335q0 -95 -48 -175.5t-130 -127.5t-179 -47h-785q-119 0 -213.5 67t-135.5 181.5t-9 247.5l53 208l132 -38l-54 -196q-21 -85 3 -161.5z" />
    <glyph glyph-name="uni066F" unicode="&#x66f;" horiz-adv-x="1681" 
d="M1395 402q0 118 -60.5 206.5t-190.5 88.5q-120 0 -187 -84.5t-67 -210.5q0 -134 61.5 -198.5t192.5 -64.5h251v263zM714 -547q-217 0 -333.5 80t-176.5 217t-60 279q0 177 28.5 286t66.5 210l124 -51q-28 -69 -57 -172t-29 -259q0 -180 89 -317.5t348 -138.5h215
q224 0 344 109.5t122 303.5h-263q-188 0 -279.5 103t-91.5 300q0 128 50 222t135.5 147.5t197.5 53.5q169 0 273 -117.5t104 -305.5l1 -396q-1 -163 -73 -286t-203.5 -195.5t-318.5 -72.5h-213z" />
    <glyph glyph-name="uni066F" unicode="&#x8bc;" horiz-adv-x="1681" 
d="M1395 402q0 118 -60.5 206.5t-190.5 88.5q-120 0 -187 -84.5t-67 -210.5q0 -134 61.5 -198.5t192.5 -64.5h251v263zM714 -547q-217 0 -333.5 80t-176.5 217t-60 279q0 177 28.5 286t66.5 210l124 -51q-28 -69 -57 -172t-29 -259q0 -180 89 -317.5t348 -138.5h215
q224 0 344 109.5t122 303.5h-263q-188 0 -279.5 103t-91.5 300q0 128 50 222t135.5 147.5t197.5 53.5q169 0 273 -117.5t104 -305.5l1 -396q-1 -163 -73 -286t-203.5 -195.5t-318.5 -72.5h-213z" />
    <glyph glyph-name="uni0670" unicode="&#x670;" 
d="M39 2109v-367h-78v367h78z" />
    <glyph glyph-name="uni0695" unicode="&#x695;" horiz-adv-x="710" 
d="M-38 -404l67 14q110 21 199.5 82t141 151.5t51.5 194.5v647h133v-655q0 -140 -65.5 -257.5t-181 -196t-261.5 -106.5l-56 -11zM277 -1154l-275 316l107 2l199 -227l199 227l107 -2l-275 -316h-62z" />
    <glyph glyph-name="uni06A1" unicode="&#x6a1;" horiz-adv-x="1921" 
d="M1619 324q27 101 27 211q0 88 -37.5 151.5t-97.5 96.5t-125 33q-68 0 -128 -36t-96 -96.5t-36 -129.5q0 -75 43.5 -155.5t135 -140t227.5 -69.5q60 34 87 135zM527 140h514q287 0 335 10q-133 14 -218 81.5t-123 154.5t-38 165q-1 105 52.5 195.5t143.5 144t193 52.5
q102 0 191.5 -51.5t143.5 -145t54 -212.5q0 -160 -42.5 -280.5t-125.5 -187t-200 -66.5h-878zM305 308.5q24 -76.5 84 -122.5t141 -46l-1 -140q-119 0 -213.5 67t-135.5 181.5t-9 247.5l53 208l132 -38l-54 -196q-21 -85 3 -161.5z" />
    <glyph glyph-name="uni06A1" unicode="&#x8bb;" horiz-adv-x="1921" 
d="M1619 324q27 101 27 211q0 88 -37.5 151.5t-97.5 96.5t-125 33q-68 0 -128 -36t-96 -96.5t-36 -129.5q0 -75 43.5 -155.5t135 -140t227.5 -69.5q60 34 87 135zM527 140h514q287 0 335 10q-133 14 -218 81.5t-123 154.5t-38 165q-1 105 52.5 195.5t143.5 144t193 52.5
q102 0 191.5 -51.5t143.5 -145t54 -212.5q0 -160 -42.5 -280.5t-125.5 -187t-200 -66.5h-878zM305 308.5q24 -76.5 84 -122.5t141 -46l-1 -140q-119 0 -213.5 67t-135.5 181.5t-9 247.5l53 208l132 -38l-54 -196q-21 -85 3 -161.5z" />
    <glyph glyph-name="uni06AA" unicode="&#x6aa;" horiz-adv-x="2106" 
d="M530 0q-97 0 -178.5 49t-129.5 132.5t-48 182.5v300h133v-307q0 -61 30 -110.5t81 -78t112 -28.5h1045q62 0 113 28.5t81 78t30 110.5t-30 112t-81.5 81t-112.5 30h-754l-51 109l564 690l103 -84l-476 -581h614q97 0 179 -48t130 -130t48 -179t-48 -179t-130 -130
t-179 -48h-1045z" />
    <glyph glyph-name="uni06B5" unicode="&#x6b5;" horiz-adv-x="1628" 
d="M714 -547q-217 0 -333.5 80t-176.5 216.5t-60 279.5q0 155 35.5 275t73.5 221l124 -52q-28 -68 -64 -181.5t-36 -248.5q0 -180 89 -314.5t348 -135.5l159 -1q117 0 212.5 57t152 160.5t56.5 257.5v1427h134l-1 -1423q1 -185 -71.5 -323.5t-201 -217t-281.5 -78.5z
M1296 1731l-275 316l107 2l199 -227l199 227l107 -2l-275 -316h-62z" />
    <glyph glyph-name="uni06C2" unicode="&#x6c2;" horiz-adv-x="1049" 
d="M355.5 579.5q-79.5 -112.5 -79.5 -220.5q0 -75 37 -129.5t95 -83t119 -28.5q62 0 120 27.5t95 82t37 131.5q0 80 -61.5 190.5t-185.5 228.5q-97 -86 -176.5 -198.5zM358 925l83 103l56 -44q202 -165 306.5 -326t104.5 -298q0 -114 -54.5 -198.5t-142 -128.5t-184.5 -44
q-98 0 -185.5 46.5t-141.5 131t-54 193.5q0 100 56 203t124 180t114 114zM267 1306l136 54q-56 21 -91.5 71.5t-35.5 113.5q0 55 27 105t76.5 80.5t112.5 30.5q40 0 70 -10t70 -29l6 -3l-21 -72q-5 2 -15 7q-32 14 -56 21.5t-54 7.5q-59 0 -98.5 -42t-39.5 -96
q-1 -52 36.5 -93.5t102.5 -55.5l202 80v-83l-428 -171v84z" />
    <glyph glyph-name="uni06C3" unicode="&#x6c3;" horiz-adv-x="1049" 
d="M355.5 579.5q-79.5 -112.5 -79.5 -220.5q0 -75 37 -129.5t95 -83t119 -28.5q62 0 120 27.5t95 82t37 131.5q0 80 -61.5 190.5t-185.5 228.5q-97 -86 -176.5 -198.5zM358 925l83 103l56 -44q202 -165 306.5 -326t104.5 -298q0 -114 -54.5 -198.5t-142 -128.5t-184.5 -44
q-98 0 -185.5 46.5t-141.5 131t-54 193.5q0 100 56 203t124 180t114 114zM254 1232q-1 71 0 150q93 -1 178 0v-150h-178zM584 1232v150h178q1 -78 0 -150h-178z" />
    <glyph glyph-name="uni06CE" unicode="&#x6ce;" horiz-adv-x="1635" 
d="M876 -413q181 0 320.5 80.5t158.5 239.5q14 103 -35.5 145.5t-155.5 48.5l-422 23l18 335q12 173 114.5 275.5t268.5 102.5h306v-133h-303q-108 -1 -174.5 -72t-75.5 -176l-14 -213l304 -15q162 -9 245.5 -82t56.5 -239q-32 -214 -208 -334t-404 -121h-160
q-215 0 -331.5 80.5t-175 217t-58.5 279.5q0 177 27 285.5t65 210.5l124 -52q-28 -69 -55.5 -171.5t-27.5 -258.5q1 -180 88 -317.5t344 -138.5h160zM192 732l-275 316l107 2l199 -227l199 227l107 -2l-275 -316h-62z" />
    <glyph glyph-name="uni06D4" unicode="&#x6d4;" horiz-adv-x="757" 
d="M677 -98h-596v98h596v-98z" />
    <glyph glyph-name="uni06F0" unicode="&#x6f0;" horiz-adv-x="1014" 
d="M192 666.5q49 83.5 132.5 132t182.5 48.5t182.5 -48.5t132.5 -132t49 -182.5q0 -100 -49 -183.5t-132.5 -132.5t-182.5 -49t-182.5 49t-132.5 132.5t-49 183.5q0 99 49 182.5zM300.5 364q32.5 -55 87.5 -87t119 -32q65 0 120 32t87 87t32 120q0 64 -32 119t-86.5 87
t-117.5 32q-66 0 -121.5 -32t-88 -87t-32.5 -119q0 -65 32.5 -120z" />
    <glyph glyph-name="uni06F1" unicode="&#x6f1;" horiz-adv-x="519" 
d="M223 0v664q0 131 -14.5 292.5t-42.5 279.5l-16 68l135 31l16 -67q30 -128 46 -297.5t16 -306.5v-664h-140z" />
    <glyph glyph-name="uni06F2" unicode="&#x6f2;" horiz-adv-x="1019" 
d="M540 823q88 10 139 61t54 130q2 70 -5 125.5t-25 154.5q-3 14 -5 21l137 26q0 -2 1 -7q23 -118 30.5 -181t5.5 -143q-5 -132 -90 -219.5t-224 -105.5q-66 -8 -121.5 13t-77.5 61q3 -64 4 -121v-638h-140v664q0 131 -14.5 292.5t-42.5 279.5l-16 68l135 31l16 -67
q33 -140 49 -340q62 -121 190 -105z" />
    <glyph glyph-name="uni06F3" unicode="&#x6f3;" horiz-adv-x="1512" 
d="M1270.5 795q-87.5 -88 -228.5 -106q-75 -10 -146.5 19t-116.5 86q-81 -89 -224 -109q-64 -8 -119 13t-77 59q3 -62 3 -115v-642h-139v664q0 131 -14.5 292.5t-42.5 279.5l-16 68l135 31l16 -67q33 -140 49 -340q62 -121 187 -105q87 10 138.5 61t53.5 130
q2 70 -4.5 125.5t-25.5 154.5q-3 14 -4 21l136 26q1 -2 2 -7q22 -117 30 -180.5t5 -143.5q-1 -49 -21 -94q32 -51 78 -73.5t100 -15.5q89 11 143.5 63t57.5 129q2 68 -4.5 120t-25.5 154q-4 17 -5 26l137 26q2 -8 4 -23q21 -110 28.5 -170.5t4.5 -137.5q-7 -131 -94.5 -219z
" />
    <glyph glyph-name="uni06F4" unicode="&#x6f4;" horiz-adv-x="1359" 
d="M626 760q-104 64 -104 200q1 113 51 202.5t137.5 140t194.5 49.5q112 -2 219 -63l-41 -126q-59 28 -102 39.5t-82 10.5q-109 -3 -176.5 -74t-68.5 -180q0 -124 75 -176t169 -53q133 -1 295 106l36 -126q-158 -119 -331 -119q-131 0 -221 16t-152.5 42t-101.5 56t-64 63
q3 -65 3 -121v-647h-139v664q0 131 -14.5 292.5t-42.5 279.5l-16 68l135 31l16 -67q29 -126 45 -307q87 -165 280 -201z" />
    <glyph glyph-name="uni06F5" unicode="&#x6f5;" horiz-adv-x="1430" 
d="M629 1339q15 -13 45 -38q160 -135 257 -225.5t181 -199t132.5 -235.5t48.5 -275q0 -99 -46.5 -184t-125.5 -135.5t-170 -50.5q-78 0 -141 33t-100 92q-79 -125 -249 -125q-92 0 -166.5 49t-116.5 133.5t-42 187.5q0 140 69 286t185 274.5t254 223.5q-17 14 -54 43
q-31 24 -46 36zM1046 165q47 30 77.5 83t30.5 118q0 200 -103.5 363.5t-302.5 336.5q-127 -88 -235 -205.5t-173 -247t-65 -247.5q0 -101 54 -166t132 -65q92 0 147.5 53.5t55.5 157.5v104h125v-82q0 -54 -13 -107q23 -59 70.5 -92.5t104.5 -33.5q48 0 95 30z" />
    <glyph glyph-name="uni06F6" unicode="&#x6f6;" horiz-adv-x="1069" 
d="M690 755q91 29 165 91l88 -103q-145 -124 -292 -325.5t-260 -438.5l-122 59q70 149 164 292.5t217 309.5q-79 -34 -154 -34q-86 0 -167 37t-134 116.5t-52 200.5q1 113 51 202.5t137.5 140t194.5 49.5q52 0 116.5 -17t112.5 -46l-40 -126q-104 51 -195 50
q-109 -3 -176.5 -74t-67.5 -180q-1 -125 74.5 -178t169.5 -54q79 -1 170 28z" />
    <glyph glyph-name="uni06F7" unicode="&#x6f7;" horiz-adv-x="1266" 
d="M1023.5 1019.5q-64.5 -137.5 -120 -275.5t-99 -273.5t-69.5 -256t-32 -217.5h-142q-8 160 -73 383.5t-163.5 456t-216.5 448.5l116 60q136 -234 244.5 -511t164.5 -591q56 314 164 591t244 511l117 -60q-70 -128 -134.5 -265.5z" />
    <glyph glyph-name="uni06F8" unicode="&#x6f8;" horiz-adv-x="1218" 
d="M1041 -10q-307 534 -408 1103q-101 -569 -409 -1103l-116 60q118 217 218 453t163.5 456t71.5 380h142q11 -169 75.5 -388t163 -451.5t216.5 -449.5z" />
    <glyph glyph-name="uni06F9" unicode="&#x6f9;" horiz-adv-x="1086" 
d="M793 920q0 72 -30.5 140t-88 111t-133.5 43q-68 0 -126.5 -35t-93.5 -94t-35 -127q2 -114 75.5 -181t181.5 -58q75 9 133 26t117 66v109zM675 604.5q-57 -15.5 -127 -23.5q-110 -11 -201.5 36.5t-144.5 138t-52 202.5q0 105 53.5 195t143.5 143.5t193 53.5
q117 0 205 -61.5t135.5 -160.5t47.5 -207v-921h-139v659q-57 -39 -114 -54.5z" />
    <glyph glyph-name="uni2009" unicode="&#x2009;" horiz-adv-x="103" 
 />
    <glyph glyph-name="uni200A" unicode="&#x200a;" horiz-adv-x="103" 
 />
    <glyph glyph-name="uni200B" unicode="&#x200b;" 
 />
    <glyph glyph-name="uni200C" unicode="&#x200c;" 
 />
    <glyph glyph-name="uni200D" unicode="&#x200d;" 
 />
    <glyph glyph-name="uni200E" unicode="&#x200e;" 
 />
    <glyph glyph-name="uni200F" unicode="&#x200f;" 
 />
    <glyph glyph-name="uni2010" unicode="&#x2010;" horiz-adv-x="1141" 
d="M115 512v120h910v-120h-910z" />
    <glyph glyph-name="figuredash" unicode="&#x2012;" horiz-adv-x="1376" 
d="M115 512v120h1145v-120h-1145z" />
    <glyph glyph-name="endash" unicode="&#x2013;" horiz-adv-x="1312" 
d="M115 512v120h1081v-120h-1081z" />
    <glyph glyph-name="emdash" unicode="&#x2014;" horiz-adv-x="1979" 
d="M115 512v120h1748v-120h-1748z" />
    <glyph glyph-name="uni2015" unicode="&#x2015;" horiz-adv-x="2087" 
d="M115 512v120h1856v-120h-1856z" />
    <glyph glyph-name="quoteleft" unicode="&#x2018;" horiz-adv-x="478" 
d="M115 1071l134 394h113l-107 -394h-140z" />
    <glyph glyph-name="quoteright" unicode="&#x2019;" horiz-adv-x="478" 
d="M115 1071l108 394h139l-133 -394h-114z" />
    <glyph glyph-name="quotesinglbase" unicode="&#x201a;" horiz-adv-x="478" 
d="M115 -320l108 394h139l-133 -394h-114z" />
    <glyph glyph-name="quotedblleft" unicode="&#x201c;" horiz-adv-x="763" 
d="M408 1071l134 394h105l-107 -394h-132zM115 1071l134 394h105l-106 -394h-133z" />
    <glyph glyph-name="quotedblright" unicode="&#x201d;" horiz-adv-x="763" 
d="M408 1071l107 394h132l-133 -394h-106zM115 1071l107 394h132l-134 -394h-105z" />
    <glyph glyph-name="quotedblbase" unicode="&#x201e;" horiz-adv-x="763" 
d="M115 -269l108 393h132l-134 -393h-106zM408 -269l106 393h132l-133 -393h-105z" />
    <glyph glyph-name="dagger" unicode="&#x2020;" horiz-adv-x="1234" 
d="M545 0l5 988l-435 -5v120l435 -6l-7 471h150l-7 -471l432 6v-120l-432 5l5 -988h-146z" />
    <glyph glyph-name="daggerdbl" unicode="&#x2021;" horiz-adv-x="1234" 
d="M545 0l5 453l-435 -3v118l435 -5q-3 56 -4 110t-1 111q0 56 1 110.5t4 109.5l-435 -4v117l435 -4l-7 455h150l-7 -455l432 4v-117l-432 4q3 -55 4 -109.5t1 -110.5q0 -57 -1 -111t-4 -110l432 5v-118l-432 3l5 -453h-146z" />
    <glyph glyph-name="bullet" unicode="&#x2022;" horiz-adv-x="757" 
d="M377 381q-53 0 -100.5 21t-83.5 56.5t-57 83t-21 101.5q0 56 21.5 104.5t57.5 83.5t85 55.5t105 20.5t103.5 -22t81.5 -59t53 -86.5t19 -104.5q0 -53 -21.5 -99t-58 -80.5t-84.5 -54.5t-100 -20z" />
    <glyph glyph-name="ellipsis" unicode="&#x2026;" horiz-adv-x="1219" 
d="M968 0v128h135v-128h-135zM115 0v128h136v-128h-136zM542 0v128h135v-128h-135z" />
    <glyph glyph-name="perthousand" unicode="&#x2030;" horiz-adv-x="2256" 
d="M419 825q-146 0 -225 81t-79 225q0 151 72 242.5t232 91.5q159 0 231 -91.5t72 -242.5q0 -144 -79 -225t-224 -81zM327 0l767 1443h142l-769 -1443h-140zM419 921q107 0 154.5 54t47.5 158q0 106 -43.5 171t-158.5 65q-116 0 -159 -65.5t-43 -170.5q0 -101 48.5 -156.5
t153.5 -55.5zM1148 -22q-145 0 -223.5 80t-78.5 225q0 151 71.5 242.5t230.5 91.5q160 0 232 -91.5t72 -242.5q0 -145 -79 -225t-225 -80zM1837 -22q-145 0 -224 80t-79 225q0 151 72 242.5t231 91.5t231 -91.5t72 -242.5q0 -145 -78.5 -225t-224.5 -80zM1148 73
q108 0 155.5 54t47.5 158q0 105 -43.5 170t-159.5 65q-115 0 -158 -65t-43 -170q0 -101 48.5 -156.5t152.5 -55.5zM1837 73q107 0 155 54t48 158q0 105 -43.5 170t-159.5 65t-159 -65t-43 -170q0 -101 49 -156.5t153 -55.5z" />
    <glyph glyph-name="minute" unicode="&#x2032;" horiz-adv-x="370" 
d="M115 1061v382h139l-27 -382h-112z" />
    <glyph glyph-name="second" unicode="&#x2033;" horiz-adv-x="683" 
d="M428 1061v382h139l-27 -382h-112zM115 1061v382h139l-27 -382h-112z" />
    <glyph glyph-name="guilsinglleft" unicode="&#x2039;" horiz-adv-x="858" 
d="M679 189l-564 415v78l564 414l62 -89l-489 -365l489 -364z" />
    <glyph glyph-name="guilsinglright" unicode="&#x203a;" horiz-adv-x="858" 
d="M177 189l-62 89l490 364l-490 365l62 89l564 -414v-78z" />
    <glyph glyph-name="fraction" unicode="&#x2044;" horiz-adv-x="279" 
d="M-288 0l706 1483h149l-705 -1483h-150z" />
    <glyph glyph-name="Euro" unicode="&#x20ac;" horiz-adv-x="1300" 
d="M819 -22q-118 0 -215.5 27.5t-172 84t-124.5 143t-73 205.5h-143v94h129v301h-127v94h136q19 130 63 230t117 168.5t175.5 104t236.5 35.5q50 0 99 -3.5t97 -11.5t95.5 -20.5t93.5 -30.5v-130q-46 19 -91.5 32t-91.5 21t-93.5 11.5t-96.5 3.5q-105 0 -183 -26.5
t-133.5 -78t-89 -128t-48.5 -177.5h555v-94h-567v-301h564v-94h-548q21 -90 61 -153t97.5 -103t131.5 -58.5t163 -18.5q50 0 96 4t90.5 11.5t89.5 18.5t91 27v-131q-48 -15 -95 -25.5t-94.5 -18t-96 -10.5t-98.5 -3z" />
    <glyph glyph-name="approxequal" unicode="&#x2248;" horiz-adv-x="1088" 
d="M753 618q-55 0 -106 18.5t-101.5 40.5t-102 40.5t-107.5 18.5q-75 0 -123.5 -21.5t-97.5 -77.5v128q43 51 101 66.5t120 15.5q59 0 111 -18.5t102.5 -40.5t101.5 -40.5t106 -18.5q75 0 121 21.5t93 77.5v-130q-40 -51 -98 -65.5t-120 -14.5zM753 302q-55 0 -106 18.5
t-101.5 41t-102 41t-107.5 18.5q-75 0 -123.5 -22t-97.5 -77v128q43 50 101 65.5t120 15.5q59 0 111 -18.5t102.5 -41t101.5 -41t106 -18.5q75 0 121 22t93 78v-129q-40 -51 -98 -66t-120 -15z" />
    <glyph glyph-name="notequal" unicode="&#x2260;" horiz-adv-x="1082" 
d="M323 111l88 254h-296v113h335l68 193h-403v111h441l87 248h121l-87 -248h288v-111h-326l-68 -193h394v-113h-432l-89 -254h-121z" />
    <glyph glyph-name="lessequal" unicode="&#x2264;" horiz-adv-x="1219" 
d="M1104 205l-989 452v108l989 451v-132l-834 -374l834 -373v-132zM115 0v109h989v-109h-989z" />
    <glyph glyph-name="greaterequal" unicode="&#x2265;" horiz-adv-x="1219" 
d="M115 205v132l834 373l-834 374v132l989 -451v-108zM115 0v109h989v-109h-989z" />
    <glyph glyph-name="uniE000" unicode="&#xe000;" 
d="M-220 -123v123h151v-123h-151zM69 -123v123h151v-123q-75 1 -151 0zM-75 -331q-1 59 0 118h150q1 -59 0 -118q-75 1 -150 0z" />
    <glyph glyph-name="uniE002" unicode="&#xe002;" horiz-adv-x="668" 
d="M155 140q61 0 112.5 30t81.5 81.5t30 112.5v321h133v-335q0 -96 -48 -176t-130 -127t-179 -47h-155q-39 14 -54 42t0 56t54 42h155z" />
    <glyph glyph-name="uniE003" unicode="&#xe003;" horiz-adv-x="806" 
d="M169 140q61 0 112.5 30t81.5 81.5t30 112.5v321h133v-321q0 -61 30 -112.5t81.5 -81.5t112.5 -30h55v-140h-55q-98 0 -174.5 50t-115.5 133q-40 -83 -116.5 -133t-174.5 -50h-169q-39 14 -54 42t0 56t54 42h169z" />
    <glyph glyph-name="uE004" unicode="&#xe004;" horiz-adv-x="763" 
d="M250 140q61 0 112 30t81.5 81.5t30.5 112.5v321h132v-335q0 -95 -48 -175.5t-129.5 -127.5t-178.5 -47h-250q-39 14 -54 42t0 56t54 42h250z" />
    <glyph glyph-name="uE005" unicode="&#xe005;" horiz-adv-x="872" 
d="M250 140q61 0 112 30t81.5 81.5t30.5 112.5v321h133l-1 -321q0 -61 30 -112.5t81.5 -81.5t112.5 -30h42v-140h-42q-97 0 -173.5 50t-116.5 133q-40 -83 -116.5 -133t-173.5 -50h-250q-39 14 -54 42t0 56t54 42h250z" />
    <glyph glyph-name="uniE006" unicode="&#xe006;" horiz-adv-x="944" 
d="M431 140q61 0 112.5 30t81.5 81.5t30 112.5v321h133v-335q0 -96 -48 -176t-130 -127t-179 -47h-431q-39 14 -54 42t0 56t54 42h431z" />
    <glyph glyph-name="uniE007" unicode="&#xe007;" horiz-adv-x="1036" 
d="M400 140q61 0 112.5 30t81.5 81.5t30 112.5v321h133v-321q0 -61 30 -112.5t81.5 -81.5t112.5 -30h55v-140h-55q-98 0 -174.5 50t-116.5 133q-39 -83 -115.5 -133t-174.5 -50h-400q-39 14 -54 42t0 56t54 42h400z" />
    <glyph glyph-name="uniE021" unicode="&#xe021;" horiz-adv-x="1879" 
d="M527 140h799q61 0 112 30t81.5 81.5t30.5 112.5l-1 1146h133v-1160q0 -95 -48 -175.5t-129.5 -127.5t-178.5 -47h-797q-38 113 -2 140zM305 308.5q24 -76.5 84 -122.5t141 -46l-1 -140q-119 0 -213.5 67t-135.5 181.5t-9 247.5l53 208l132 -38l-54 -196q-21 -85 3 -161.5
z" />
    <glyph glyph-name="uniE022" unicode="&#xe022;" horiz-adv-x="1982" 
d="M511.5 62.5q0.5 43.5 15.5 77.5h799q61 0 112 30t81.5 81.5t30.5 112.5v1146h132v-1146q0 -61 30 -112.5t81.5 -81.5t112.5 -30h76v-140h-76q-97 0 -173.5 50t-116.5 133q-40 -83 -116.5 -133t-173.5 -50h-797q-18 19 -17.5 62.5zM305 308.5q24 -76.5 84 -122.5t141 -46
l-1 -140q-119 0 -213.5 67t-135.5 181.5t-9 247.5l53 208l132 -38l-54 -196q-21 -85 3 -161.5z" />
    <glyph glyph-name="uE024" unicode="&#xe024;" horiz-adv-x="880" 
d="M673 45q-74 45 -119 121v-140q-1 -140 -66.5 -256.5t-181 -194t-260.5 -105.5l-56 -11l-28 137l67 14q110 21 199.5 82t141 151.5t51.5 194.5v647h133v-281q4 -73 43 -133.5t101.5 -95.5t136.5 -35h45v-140h-45q-88 0 -162 45zM280 -1154l-275 316l107 2l199 -227
l199 227l107 -2l-275 -316h-62z" />
    <glyph glyph-name="uE025" unicode="&#xe025;" horiz-adv-x="686" 
d="M173 140q61 0 112 30t81.5 81.5t30.5 112.5v321h132v-335q0 -96 -47.5 -176t-129.5 -127t-179 -47h-173q-39 14 -54 42t0 56t54 42h173zM310 1041q62 0 103.5 31.5t41.5 77.5q0 59 -35 104.5t-106 45.5q-55 0 -98 -45.5t-69.5 -102.5t-43.5 -111h207zM26 1592h83v-357
q89 149 205 149q70 0 121 -32.5t77 -86t26 -115.5q1 -54 -29 -98t-82.5 -69t-116.5 -25h-348v83h52q6 23 12 41v510z" />
    <glyph glyph-name="uE026" unicode="&#xe026;" horiz-adv-x="809" 
d="M173 140q61 0 112 30t81.5 81.5t30.5 112.5l-1 321h133v-321q0 -61 30.5 -112.5t81.5 -81.5t112 -30h56v-140h-56q-97 0 -173.5 50t-116.5 133q-40 -83 -116.5 -133t-173.5 -50h-173q-39 14 -54 42t0 56t54 42h173zM309 1040q62 0 103.5 31.5t41.5 77.5q0 59 -35 104.5
t-106 45.5q-55 0 -98 -45.5t-69.5 -102.5t-43.5 -111h207zM25 1591h83v-357q89 149 205 149q70 0 121 -32.5t77 -86t26 -115.5q1 -54 -29 -98t-82.5 -69t-116.5 -25h-348v83h52q6 23 12 41v510z" />
    <glyph glyph-name="uE027" unicode="&#xe027;" horiz-adv-x="1724" 
d="M718 -548q-217 0 -333.5 80.5t-175 217t-58.5 279.5q0 177 27 285.5t65 210.5l124 -52q-28 -69 -55.5 -171.5t-27.5 -258.5q1 -180 87.5 -317t343.5 -139h233q166 0 286.5 69.5t120.5 222.5q0 56 -34 91.5t-83 36.5h-443v133h928v-140h-290q52 -45 53 -118
q-2 -115 -61 -209t-180.5 -157.5t-296.5 -63.5h-230zM192 732l-275 316l107 2l199 -227l199 227l107 -2l-275 -316h-62z" />
    <glyph glyph-name="uE028" unicode="&#xe028;" horiz-adv-x="686" 
d="M173 140q61 0 112 30t81.5 81.5t30.5 112.5v321h132v-335q0 -96 -47.5 -176t-129.5 -127t-179 -47h-173q-39 14 -54 42t0 56t54 42h173zM-156 -531q-1 79 0 150h178v-150h-178zM174 -531v150h178q1 -71 0 -150h-178zM364 952l-275 316l107 2l199 -227l199 227l107 -2
l-275 -316h-62z" />
    <glyph glyph-name="uE029" unicode="&#xe029;" horiz-adv-x="809" 
d="M173 140q61 0 112 30t81.5 81.5t30.5 112.5l-1 321h133v-321q0 -61 30.5 -112.5t81.5 -81.5t112 -30h56v-140h-56q-97 0 -173.5 50t-116.5 133q-40 -83 -116.5 -133t-173.5 -50h-173q-39 14 -54 42t0 56t54 42h173zM-156 -531q-1 79 0 150h178v-150h-178zM174 -531v150
h178q1 -71 0 -150h-178zM378 930l-275 316l107 2l199 -227l199 227l107 -2l-275 -316h-62z" />
    <glyph glyph-name="uniFEEA0654" unicode="&#xe030;" horiz-adv-x="1202" 
d="M625 91q-123 -30 -231 -5t-176.5 98.5t-75.5 183.5q-9 155 54.5 279t199 196.5t333.5 74.5l-26 178l132 18l118 -807q11 -72 65.5 -119t127.5 -48h59v-140h-58q-97 1 -175 56t-113 151q-111 -86 -234 -116zM382.5 684q-122.5 -115 -111.5 -302q7 -92 86.5 -143t207 -35
t256.5 116l-70 475q-246 4 -368.5 -111zM265 1244l136 54q-56 21 -91.5 71.5t-35.5 113.5q0 55 27 105t76.5 80.5t112.5 30.5q40 0 70 -10t70 -29l6 -3l-21 -72q-5 2 -15 7q-32 14 -56 21.5t-54 7.5q-59 0 -98.5 -42t-39.5 -96q-1 -52 36.5 -93.5t102.5 -55.5l202 80v-83
l-428 -171v84z" />
    <glyph glyph-name="uE060_uFBB5" unicode="&#xe032;" horiz-adv-x="802" 
d="M289 140q61 0 112 30t81.5 81.5t30.5 112.5v321h132v-335q0 -96 -47.5 -176t-129.5 -127t-179 -47h-289q-39 14 -54 42t0 56t54 42h289zM47 -531q-1 79 0 150h178v-150h-178zM377 -531v150h178q1 -71 0 -150h-178z" />
    <glyph glyph-name="uE061_uFBB5" unicode="&#xe033;" horiz-adv-x="961" 
d="M325 140q60 0 111.5 30t81.5 81.5t30 112.5v321h133v-321q0 -61 30 -112.5t81.5 -81.5t112.5 -30h56v-140h-56q-97 0 -173.5 50t-116.5 133q-40 -83 -116.5 -133t-173.5 -50h-325q-39 14 -54 42t0 56t54 42h325zM71 -531q-1 79 0 150h178v-150h-178zM401 -531v150h178
q1 -71 0 -150h-178z" />
    <glyph glyph-name="uniE006_uFBB5" unicode="&#xe034;" horiz-adv-x="944" 
d="M431 140q61 0 112.5 30t81.5 81.5t30 112.5v321h133v-335q0 -96 -48 -176t-130 -127t-179 -47h-431q-39 14 -54 42t0 56t54 42h431zM-19 -531q-1 79 0 150h178v-150h-178zM311 -531v150h178q1 -71 0 -150h-178z" />
    <glyph glyph-name="uniE007_uFBB5" unicode="&#xe035;" horiz-adv-x="1036" 
d="M400 140q61 0 112.5 30t81.5 81.5t30 112.5v321h133v-321q0 -61 30 -112.5t81.5 -81.5t112.5 -30h55v-140h-55q-98 0 -174.5 50t-116.5 133q-39 -83 -115.5 -133t-174.5 -50h-400q-39 14 -54 42t0 56t54 42h400zM17 -531q-1 79 0 150h178v-150h-178zM347 -531v150h178
q1 -71 0 -150h-178z" />
    <glyph glyph-name="uE060_uFBB9" unicode="&#xe036;" horiz-adv-x="802" 
d="M289 140q61 0 112 30t81.5 81.5t30.5 112.5v321h132v-335q0 -96 -47.5 -176t-129.5 -127t-179 -47h-289q-39 14 -54 42t0 56t54 42h289zM47 -457q-1 79 0 150h178v-150h-178zM377 -457v150h178q1 -71 0 -150h-178zM213 -766q-1 72 0 143h176q1 -71 0 -143q-88 1 -176 0z
" />
    <glyph glyph-name="uE061_uFBB9" unicode="&#xe037;" horiz-adv-x="961" 
d="M325 140q60 0 111.5 30t81.5 81.5t30 112.5v321h133v-321q0 -61 30 -112.5t81.5 -81.5t112.5 -30h56v-140h-56q-97 0 -173.5 50t-116.5 133q-40 -83 -116.5 -133t-173.5 -50h-325q-39 14 -54 42t0 56t54 42h325zM69 -457q-1 79 0 150h178v-150h-178zM399 -457v150h178
q1 -71 0 -150h-178zM235 -766q-1 72 0 143h176q1 -71 0 -143q-88 1 -176 0z" />
    <glyph glyph-name="uniE006_uFBB9" unicode="&#xe038;" horiz-adv-x="944" 
d="M431 140q61 0 112.5 30t81.5 81.5t30 112.5v321h133v-335q0 -96 -48 -176t-130 -127t-179 -47h-431q-39 14 -54 42t0 56t54 42h431zM-15 -457q-1 79 0 150h178v-150h-178zM315 -457v150h178q1 -71 0 -150h-178zM151 -766q-1 72 0 143h176q1 -71 0 -143q-88 1 -176 0z" />
    <glyph glyph-name="uniE007_uFBB9" unicode="&#xe039;" horiz-adv-x="1036" 
d="M400 140q61 0 112.5 30t81.5 81.5t30 112.5v321h133v-321q0 -61 30 -112.5t81.5 -81.5t112.5 -30h55v-140h-55q-98 0 -174.5 50t-116.5 133q-39 -83 -115.5 -133t-174.5 -50h-400q-39 14 -54 42t0 56t54 42h400zM-15 -457q-1 79 0 150h178v-150h-178zM315 -457v150h178
q1 -71 0 -150h-178zM151 -766q-1 72 0 143h176q1 -71 0 -143q-88 1 -176 0z" />
    <glyph glyph-name="uE2C3_uFBB3" unicode="&#xe040;" horiz-adv-x="695" 
d="M182 140q61 0 112.5 30t81.5 81.5t30 112.5v321h133v-335q0 -96 -48 -176t-130 -127t-179 -47h-182q-39 14 -54 42t0 56t54 42h182zM57 -529q-1 74 0 148h188q1 -75 0 -148h-188z" />
    <glyph glyph-name="uE2C4_uFBB3" unicode="&#xe041;" horiz-adv-x="818" 
d="M182 140q61 0 112.5 30t81.5 81.5t30 112.5v321h133v-321q0 -61 30 -112.5t81.5 -81.5t112.5 -30h56v-140h-56q-98 0 -174.5 50t-115.5 133q-40 -83 -116.5 -133t-174.5 -50h-182q-39 14 -54 42t0 56t54 42h182zM57 -529q-1 74 0 148h188q1 -75 0 -148h-188z" />
    <glyph glyph-name="uniFBE8FBB4" unicode="&#xe042;" horiz-adv-x="686" 
d="M173 140q61 0 112 30t81.5 81.5t30.5 112.5v321h132v-335q0 -96 -47.5 -176t-129.5 -127t-179 -47h-173q-39 14 -54 42t0 56t54 42h173zM29 985q-1 71 0 150q93 -1 178 0v-150h-178zM359 985v150h178q1 -78 0 -150h-178z" />
    <glyph glyph-name="uniFBE9FBB4" unicode="&#xe043;" horiz-adv-x="809" 
d="M173 140q61 0 112 30t81.5 81.5t30.5 112.5l-1 321h133v-321q0 -61 30.5 -112.5t81.5 -81.5t112 -30h56v-140h-56q-97 0 -173.5 50t-116.5 133q-40 -83 -116.5 -133t-173.5 -50h-173q-39 14 -54 42t0 56t54 42h173zM29 985q-1 71 0 150q93 -1 178 0v-150h-178zM359 985
v150h178q1 -78 0 -150h-178z" />
    <glyph glyph-name="uniFBE8FBB6" unicode="&#xe044;" horiz-adv-x="686" 
d="M173 140q61 0 112 30t81.5 81.5t30.5 112.5v321h132v-335q0 -96 -47.5 -176t-129.5 -127t-179 -47h-173q-39 14 -54 42t0 56t54 42h173zM29 985q-1 71 0 150q93 -1 178 0v-150h-178zM359 985v150h178q1 -78 0 -150h-178zM195 1297q-1 72 0 143q88 -1 176 0q1 -71 0 -143
h-176z" />
    <glyph glyph-name="uniFBE9FBB6" unicode="&#xe045;" horiz-adv-x="809" 
d="M173 140q61 0 112 30t81.5 81.5t30.5 112.5l-1 321h133v-321q0 -61 30.5 -112.5t81.5 -81.5t112 -30h56v-140h-56q-97 0 -173.5 50t-116.5 133q-40 -83 -116.5 -133t-173.5 -50h-173q-39 14 -54 42t0 56t54 42h173zM29 985q-1 71 0 150q93 -1 178 0v-150h-178zM359 985
v150h178q1 -78 0 -150h-178zM195 1297q-1 72 0 143q88 -1 176 0q1 -71 0 -143h-176z" />
    <glyph glyph-name="uE046" unicode="&#xe046;" horiz-adv-x="802" 
d="M289 140q61 0 112 30t81.5 81.5t30.5 112.5v321h132v-335q0 -96 -47.5 -176t-129.5 -127t-179 -47h-289q-39 14 -54 42t0 56t54 42h289zM47 -531q-1 79 0 150h178v-150h-178zM377 -531v150h178q1 -71 0 -150h-178zM448 952l-275 316l107 2l199 -227l199 227l107 -2
l-275 -316h-62z" />
    <glyph glyph-name="uE047" unicode="&#xe047;" horiz-adv-x="944" 
d="M431 140q61 0 112.5 30t81.5 81.5t30 112.5v321h133v-335q0 -96 -48 -176t-130 -127t-179 -47h-431q-39 14 -54 42t0 56t54 42h431zM-19 -531q-1 79 0 150h178v-150h-178zM311 -531v150h178q1 -71 0 -150h-178zM633 938l-275 316l107 2l199 -227l199 227l107 -2
l-275 -316h-62z" />
    <glyph glyph-name="uniE054" unicode="&#xe054;" 
d="M-206 78q176 0 257 30.5t81 112.5v53l-220 -1q-22 0 -40.5 19t-17.5 41v94q0 56 28 103t75 75t102 28h135v-74h-135q-54 0 -92.5 -39t-38.5 -93v-85h278v-124q0 -222 -412 -217v77z" />
    <glyph glyph-name="uE055" unicode="&#xe055;" 
d="M115 1418q62 0 103.5 31t41.5 78q0 59 -35 104.5t-106 45.5q-75 0 -125 -77t-87 -176l-3 -6h211zM-62.5 1662q68.5 98 181.5 98q70 0 121 -32t77 -85.5t26 -115.5q0 -54 -29.5 -98t-82 -69.5t-116.5 -25.5h-243q-53 0 -103 41t-81 105t-31 128v42h83v-42q0 -47 26 -94
t60 -67q43 117 111.5 215z" />
    <glyph glyph-name="farsiyeharab.fina.1" unicode="&#xe056;" horiz-adv-x="1533" 
d="M718 -548q-217 0 -333.5 80.5t-175 217t-58.5 279.5q0 177 27 285.5t65 210.5l124 -52q-28 -69 -55.5 -171.5t-27.5 -258.5q1 -180 87.5 -317t343.5 -139h233q166 0 286.5 69.5t120.5 222.5q0 56 -34 91.5t-83 36.5h-443v133h738v-140h-100q52 -45 53 -118
q-2 -115 -61 -209t-180.5 -157.5t-296.5 -63.5h-230z" />
    <glyph glyph-name="yeharab.fina.1" unicode="&#xe057;" horiz-adv-x="1533" 
d="M718 -548q-217 0 -333.5 80.5t-175 217t-58.5 279.5q0 177 27 285.5t65 210.5l124 -52q-28 -69 -55.5 -171.5t-27.5 -258.5q1 -180 87.5 -317t343.5 -139h233q166 0 286.5 69.5t120.5 222.5q0 56 -34 91.5t-83 36.5h-443v133h738v-140h-100q52 -45 53 -118
q-2 -115 -61 -209t-180.5 -157.5t-296.5 -63.5h-230zM533 -963q-1 79 0 150h178v-150h-178zM863 -963v150h178q1 -71 0 -150h-178z" />
    <glyph glyph-name="farsiyeharab_u0654" unicode="&#xe058;" horiz-adv-x="1533" 
d="M718 -548q-217 0 -333.5 80.5t-175 217t-58.5 279.5q0 177 27 285.5t65 210.5l124 -52q-28 -69 -55.5 -171.5t-27.5 -258.5q1 -180 87.5 -317t343.5 -139h233q166 0 286.5 69.5t120.5 222.5q0 56 -34 91.5t-83 36.5h-443v133h738v-140h-100q52 -45 53 -118
q-2 -115 -61 -209t-180.5 -157.5t-296.5 -63.5h-230zM111 798l136 54q-56 21 -91.5 71.5t-35.5 113.5q0 55 27 105t76.5 80.5t112.5 30.5q40 0 70 -10t70 -29l6 -3l-21 -72q-5 2 -15 7q-32 14 -56 21.5t-54 7.5q-59 0 -98.5 -42t-39.5 -96q-1 -52 36.5 -93.5t102.5 -55.5
l202 80v-83l-428 -171v84z" />
    <glyph glyph-name="uE059" unicode="&#xe059;" horiz-adv-x="1036" 
d="M400 140q61 0 112.5 30t81.5 81.5t30 112.5v321h133v-321q0 -61 30 -112.5t81.5 -81.5t112.5 -30h55v-140h-55q-98 0 -174.5 50t-116.5 133q-39 -83 -115.5 -133t-174.5 -50h-400q-39 14 -54 42t0 56t54 42h400zM17 -531q-1 79 0 150h178v-150h-178zM347 -531v150h178
q1 -71 0 -150h-178zM559 930l-275 316l107 2l199 -227l199 227l107 -2l-275 -316h-62z" />
    <glyph glyph-name="uE060" unicode="&#xe060;" horiz-adv-x="802" 
d="M289 140q61 0 112 30t81.5 81.5t30.5 112.5v321h132v-335q0 -96 -47.5 -176t-129.5 -127t-179 -47h-289q-39 14 -54 42t0 56t54 42h289z" />
    <glyph glyph-name="uE061" unicode="&#xe061;" horiz-adv-x="960" 
d="M325 140q60 0 111.5 30t81.5 81.5t30 112.5v321h133v-321q0 -61 30 -112.5t81.5 -81.5t112.5 -30h56v-140h-56q-97 0 -173.5 50t-116.5 133q-40 -83 -116.5 -133t-173.5 -50h-325q-39 14 -54 42t0 56t54 42h325z" />
    <glyph glyph-name="uE062" unicode="&#xe062;" horiz-adv-x="960" 
d="M325 140q60 0 111.5 30t81.5 81.5t30 112.5v321h133v-321q0 -61 30 -112.5t81.5 -81.5t112.5 -30h56v-140h-56q-97 0 -173.5 50t-116.5 133q-40 -83 -116.5 -133t-173.5 -50h-325q-39 14 -54 42t0 56t54 42h325zM71 -531q-1 79 0 150h178v-150h-178zM401 -531v150h178
q1 -71 0 -150h-178zM484 930l-275 316l107 2l199 -227l199 227l107 -2l-275 -316h-62z" />
    <glyph glyph-name="uE066" unicode="&#xe066;" horiz-adv-x="1470" 
d="M201 917q-29 117 26 216.5t169 137.5q115 32 215.5 -18t143.5 -160l113 -309l309 516l114 -68l-382 -636l-120 12l-159 439q-22 61 -81.5 89t-120.5 6q-58 -21 -86.5 -76t-12.5 -114l250 -918l-129 -34z" />
    <glyph glyph-name="uE067" unicode="&#xe067;" horiz-adv-x="1271" 
d="M188 177q9 237 124 477t228.5 393.5t188.5 236.5l98 -89l-1 -1q-64 -72 -170 -215.5t-214 -362.5t-120 -431q143 -49 313.5 -45t341.5 61l63 21l43 -126l-63 -20q-193 -65 -392.5 -69t-369.5 58z" />
    <glyph glyph-name="uniE069" unicode="&#xe069;" horiz-adv-x="685" 
d="M52 140q61 0 112.5 30t81.5 81.5t30 112.5v839h133v-839q0 -61 30 -112.5t81.5 -81.5t112.5 -30h52v-140h-52q-97 0 -173.5 50t-116.5 133q-40 -83 -116.5 -133t-174.5 -50h-52q-39 14 -54 42t0 56t54 42h52z" />
    <glyph glyph-name="uE070" unicode="&#xe070;" horiz-adv-x="839" 
d="M326 140q60 0 111.5 30t81.5 81.5t30 112.5v321h133v-335q0 -95 -48 -175.5t-130 -127.5t-178 -47h-326q-39 14 -54 42t0 56t54 42h326zM-151 -457q-1 79 0 150h178v-150h-178zM179 -457v150h178q1 -71 0 -150h-178zM15 -766q-1 72 0 143h176q1 -71 0 -143q-88 1 -176 0z
" />
    <glyph glyph-name="uE071" unicode="&#xe071;" horiz-adv-x="947" 
d="M326 140q60 0 111.5 30t81.5 81.5t30 112.5l1 321h132v-321q0 -61 30 -112.5t81.5 -81.5t112.5 -30h41v-140h-41q-97 0 -173.5 50t-116.5 133q-40 -83 -116.5 -133t-173.5 -50h-326q-39 14 -54 42t0 56t54 42h326zM-165 -457q-1 79 0 150h178v-150h-178zM165 -457v150
h178q1 -71 0 -150h-178zM1 -766q-1 72 0 143h176q1 -71 0 -143q-88 1 -176 0z" />
    <glyph glyph-name="uE072" unicode="&#xe072;" horiz-adv-x="839" 
d="M326 140q60 0 111.5 30t81.5 81.5t30 112.5v321h133v-335q0 -95 -48 -175.5t-130 -127.5t-178 -47h-326q-39 14 -54 42t0 56t54 42h326zM-151 -531q-1 79 0 150h178v-150h-178zM179 -531v150h178q1 -71 0 -150h-178z" />
    <glyph glyph-name="uE073" unicode="&#xe073;" horiz-adv-x="947" 
d="M326 140q60 0 111.5 30t81.5 81.5t30 112.5l1 321h132v-321q0 -61 30 -112.5t81.5 -81.5t112.5 -30h41v-140h-41q-97 0 -173.5 50t-116.5 133q-40 -83 -116.5 -133t-173.5 -50h-326q-39 14 -54 42t0 56t54 42h326zM-165 -531q-1 79 0 150h178v-150h-178zM165 -531v150
h178q1 -71 0 -150h-178z" />
    <glyph glyph-name="uE074" unicode="&#xe074;" horiz-adv-x="839" 
d="M326 140q60 0 111.5 30t81.5 81.5t30 112.5v321h133v-335q0 -95 -48 -175.5t-130 -127.5t-178 -47h-326q-39 14 -54 42t0 56t54 42h326zM-151 -531q-1 79 0 150h178v-150h-178zM179 -531v150h178q1 -71 0 -150h-178zM485 965l-275 316l107 2l199 -227l199 227l107 -2
l-275 -316h-62z" />
    <glyph glyph-name="uE075" unicode="&#xe075;" horiz-adv-x="947" 
d="M326 140q60 0 111.5 30t81.5 81.5t30 112.5l1 321h132v-321q0 -61 30 -112.5t81.5 -81.5t112.5 -30h41v-140h-41q-97 0 -173.5 50t-116.5 133q-40 -83 -116.5 -133t-173.5 -50h-326q-39 14 -54 42t0 56t54 42h326zM-165 -531q-1 79 0 150h178v-150h-178zM165 -531v150
h178q1 -71 0 -150h-178zM470 944l-275 316l107 2l199 -227l199 227l107 -2l-275 -316h-62z" />
    <glyph glyph-name="uE076" unicode="&#xe076;" horiz-adv-x="839" 
d="M326 140q60 0 111.5 30t81.5 81.5t30 112.5v321h133v-335q0 -95 -48 -175.5t-130 -127.5t-178 -47h-326q-39 14 -54 42t0 56t54 42h326z" />
    <glyph glyph-name="uE077" unicode="&#xe077;" horiz-adv-x="947" 
d="M326 140q60 0 111.5 30t81.5 81.5t30 112.5l1 321h132v-321q0 -61 30 -112.5t81.5 -81.5t112.5 -30h41v-140h-41q-97 0 -173.5 50t-116.5 133q-40 -83 -116.5 -133t-173.5 -50h-326q-39 14 -54 42t0 56t54 42h326z" />
    <glyph glyph-name="uE078" unicode="&#xe078;" horiz-adv-x="1864" 
d="M1561.5 324q27.5 101 27.5 211q0 88 -38 151.5t-97.5 96.5t-125.5 33q-67 0 -127 -36t-96.5 -96.5t-35.5 -129.5q0 -75 43.5 -155.5t135 -140t227.5 -69.5q59 34 86.5 135zM513 0q-97 0 -179 47t-130 127t-48 176v302h133v-288q0 -61 30 -112.5t81.5 -81.5t112.5 -30h467
q292 0 338 10q-133 14 -218 81.5t-122.5 154.5t-37.5 165q-1 105 52.5 195.5t143.5 144t192 52.5q103 0 192.5 -51.5t143.5 -145t54 -212.5q0 -160 -42.5 -280.5t-125.5 -187t-200 -66.5h-837z" />
    <glyph glyph-name="uE079" unicode="&#xe079;" horiz-adv-x="1115" 
d="M813 324q27 101 27 211q0 88 -37.5 151.5t-97.5 96.5t-125 33q-68 0 -128 -36t-96 -96.5t-36 -129.5q1 -75 44 -155.5t134.5 -140t227.5 -69.5q60 34 87 135zM-54 42q-15 28 0 56t54 42h219q300 0 351 10q-133 14 -218 81.5t-122.5 154.5t-38.5 165q0 105 53.5 195.5
t143 144t192.5 52.5q102 0 191.5 -51.5t143.5 -145t54 -212.5q0 -160 -42.5 -280.5t-125 -187t-200.5 -66.5h-601q-39 14 -54 42z" />
    <glyph glyph-name="uE080" unicode="&#xe080;" horiz-adv-x="822" 
d="M-48 -421l189 37q109 21 198.5 82t141 151t51.5 195l1 641h132v-649q0 -141 -65.5 -258t-181 -195.5t-261.5 -106.5l-177 -33z" />
    <glyph glyph-name="uE081" unicode="&#xe081;" horiz-adv-x="992" 
d="M784.5 45q-74.5 45 -119.5 122v-141q-2 -138 -68 -253.5t-180.5 -192t-259.5 -104.5l-177 -33l-28 136l189 37q109 21 198.5 82t141 151t51.5 195l1 641h132v-269q2 -76 40 -139t102.5 -100t139.5 -37h45v-140h-45q-88 0 -162.5 45z" />
    <glyph glyph-name="uE082" unicode="&#xe082;" horiz-adv-x="822" 
d="M-48 -421l189 37q109 21 198.5 82t141 151t51.5 195l1 641h132v-649q0 -141 -65.5 -258t-181 -195.5t-261.5 -106.5l-177 -33zM505 985q-1 76 0 150h188q1 -74 0 -150h-188z" />
    <glyph glyph-name="uE083" unicode="&#xe083;" horiz-adv-x="992" 
d="M784.5 45q-74.5 45 -119.5 122v-141q-2 -138 -68 -253.5t-180.5 -192t-259.5 -104.5l-177 -33l-28 136l189 37q109 21 198.5 82t141 151t51.5 195l1 641h132v-269q2 -76 40 -139t102.5 -100t139.5 -37h45v-140h-45q-88 0 -162.5 45zM505 985q-1 76 0 150h188
q1 -74 0 -150h-188z" />
    <glyph glyph-name="uE084" unicode="&#xe084;" horiz-adv-x="821" 
d="M-48 -421l189 37q109 21 198.5 82t141 151t51.5 195l1 641h132v-649q0 -141 -65.5 -258t-181 -195.5t-261.5 -106.5l-177 -33zM345 985q-1 71 0 150q93 -1 178 0v-150h-178zM675 985v150h178q1 -78 0 -150h-178zM511 1297q-1 72 0 143q88 -1 176 0q1 -71 0 -143h-176z
" />
    </font>
</defs>
</svg>
