<?xml version="1.0" standalone="no"?>
<!DOCTYPE svg PUBLIC "-//W3C//DTD SVG 1.1//EN" "http://www.w3.org/Graphics/SVG/1.1/DTD/svg11.dtd" >
<svg xmlns="http://www.w3.org/2000/svg" xmlns:xlink="http://www.w3.org/1999/xlink" version="1.1">
<metadata>
Created by FontForge 20201107 at Thu Jun  5 21:46:33 2025
 By 
Copyright 2024 The Arad Project Authors (https://github.com/MDarvishi5124/Arad)
</metadata>
<defs>
<font id="AradVFtest21-MediumDots2" horiz-adv-x="0" >
  <font-face 
    font-family="Arad-VF-test21 Medium Dots2"
    font-weight="500"
    font-stretch="normal"
    units-per-em="2240"
    panose-1="0 0 0 0 0 0 0 0 0 0"
    ascent="1792"
    descent="-448"
    x-height="1062"
    cap-height="1443"
    bbox="-389 -1131 3337 2355.28"
    underline-thickness="40"
    underline-position="-785"
    unicode-range="U+000D-FEFC"
  />
<missing-glyph horiz-adv-x="1300" 
d="M1179 0h-1058v1400h1058v-1400zM307 1214v-1028h686v1028h-686z" />
    <glyph glyph-name="uni0626" unicode="&#x649;&#x654;" horiz-adv-x="1656" 
d="M895 -335q162 0 283 66t139 200q12 86 -29.5 121.5t-124.5 40.5l-444 30l20 360q14 200 123.5 304.5t297.5 104.5h316v-208h-310q-96 0 -151 -59t-62 -148l-12 -172l265 -16q169 -12 256.5 -88.5t61.5 -260.5q-35 -240 -225 -362t-404 -122h-172q-210 0 -334 82.5
t-189 224.5t-65 280q1 176 25 294.5t70 243.5l192 -78q-28 -76 -54 -183t-26 -251q1 -165 76 -284.5t305 -120.5zM119 870l119 48q-50 18 -83.5 68.5t-33.5 107.5q0 60 28.5 112t81 84t120.5 32q41 0 75 -10.5t73 -30.5l-29 -98q-68 32 -120 32q-51 -1 -86.5 -37t-35.5 -84
q0 -49 36.5 -84.5t92.5 -45.5l194 77v-115l-432 -172v116z" />
    <glyph glyph-name="uni06C0" unicode="&#x647;&#x654;" horiz-adv-x="1077" 
d="M400.5 575.5q-68.5 -100.5 -68.5 -193.5q0 -63 31 -107.5t79.5 -67.5t98.5 -23t98.5 22t79.5 66.5t31 109.5q0 63 -49 158.5t-157 202.5q-75 -67 -143.5 -167.5zM318 933l131 161l87 -71q205 -167 310 -331t105 -307q0 -123 -59 -214t-153 -138.5t-198 -47.5
q-108 0 -202 51t-151 142.5t-57 206.5q0 99 50 197t112.5 171.5t108.5 110.5zM274 1354q171 -1 244 24t73 96v45l-192 -1q-28 0 -51 23.5t-22 51.5v85q0 59 29 107.5t78 77t105 28.5h140v-100h-140q-47 0 -79.5 -33t-32.5 -80v-71h266v-139q0 -59 -33.5 -109t-126.5 -82.5
t-258 -29.5v107z" />
    <glyph glyph-name="uniFBA70654" unicode="&#xfba7;&#x654;" horiz-adv-x="1184" 
d="M140 14l43 343q16 127 97 225.5t202 139.5l306 102l136 -89l32 -365q7 -68 57.5 -109t121.5 -41h49v-220h-49q-99 0 -184 46.5t-138.5 126.5t-62.5 178l-21 234l-182 -60q-64 -21 -107 -74t-51 -120l-43 -342zM295 1081l119 48q-50 18 -83.5 68.5t-33.5 107.5
q0 60 28.5 112t81 84t120.5 32q41 0 75 -10.5t73 -30.5l-29 -98q-68 32 -120 32q-51 -1 -86.5 -37t-35.5 -84q0 -49 36.5 -84.5t92.5 -45.5l194 77v-115l-432 -172v116z" />
    <glyph glyph-name="uE115" unicode="&#xe091;&#xfe8e;" horiz-adv-x="1242" 
d="M184 1465h207v-1079h-207v1079zM756 244q41 24 65 65t24 90v1066h208v-1079q0 -105 -52 -193.5t-141 -140.5t-194 -52h-482v220h482q49 0 90 24zM905 1719l-297 345l150 3l191 -219l192 219l150 -3l-297 -345h-89z" />
    <glyph glyph-name="uE116" unicode="&#xe092;&#xfe8e;" horiz-adv-x="1290" 
d="M756 244q41 24 65 65t24 90v1066h208v-1066q0 -49 24 -90t65 -65t90 -24h67v-220h-67q-94 0 -166.5 44t-116.5 120q-45 -77 -117 -120.5t-166 -43.5h-482v220h482q49 0 90 24zM184 1465h207v-1079h-207v1079zM905 1719l-297 345l150 3l191 -219l192 219l150 -3l-297 -345
h-89z" />
    <glyph glyph-name="uE117" unicode="&#xe091;&#xfe82;" horiz-adv-x="1232" 
d="M170 1317l201 11l49 -935l-201 -11zM750 244q41 24 65 65t24 90v1107h208v-1120q0 -105 -52 -193.5t-140.5 -140.5t-193.5 -52h-476v220h476q48 0 89 24zM-168 1364l61 154q34 85 109.5 136t167.5 51h453v-144h-453q-48 1 -86.5 -25.5t-57.5 -70.5l-60 -154zM906 1719
l-298 345l150 3l192 -219l192 219l150 -3l-298 -345h-88z" />
    <glyph glyph-name="uE118" unicode="&#xe092;&#xfe82;" horiz-adv-x="1285" 
d="M1226 0q-94 0 -166 44t-116 120q-45 -77 -117.5 -120.5t-165.5 -43.5h-476v220h476q48 0 89 24t65 65t24 90v1107h208v-1107q0 -49 24 -90t65 -65t90 -24h59v-220h-59zM170 1317l201 11l49 -935l-201 -11zM-160 1364l61 154q34 85 109.5 136t167.5 51h453v-144h-453
q-48 1 -86.5 -25.5t-57.5 -70.5l-60 -154zM914 1719l-298 345l150 3l192 -219l192 219l150 -3l-298 -345h-88z" />
    <glyph glyph-name="uE120" unicode="&#xe091;&#x675;" horiz-adv-x="1231" 
d="M170 1317l201 11l49 -935l-201 -11zM750 244q41 24 65 65t24 90v1107h208v-1120q0 -105 -52 -193.5t-140.5 -140.5t-193.5 -52h-476v220h476q48 0 89 24zM66 1595l119 48q-50 18 -83.5 68.5t-33.5 107.5q0 60 28.5 112t81 84t120.5 32q41 0 75 -10.5t73 -30.5l-29 -98
q-68 32 -120 32q-51 -1 -86.5 -37t-35.5 -84q0 -49 36.5 -84.5t92.5 -45.5l194 77v-115l-432 -172v116zM905 1719l-298 345l150 3l192 -219l192 219l150 -3l-298 -345h-88z" />
    <glyph glyph-name="uE121" unicode="&#xe092;&#x675;" horiz-adv-x="1285" 
d="M1226 0q-94 0 -166 44t-116 120q-45 -77 -117.5 -120.5t-165.5 -43.5h-476v220h476q48 0 89 24t65 65t24 90v1107h208v-1107q0 -49 24 -90t65 -65t90 -24h59v-220h-59zM170 1317l201 11l49 -935l-201 -11zM66 1595l119 48q-50 18 -83.5 68.5t-33.5 107.5q0 60 28.5 112
t81 84t120.5 32q41 0 75 -10.5t73 -30.5l-29 -98q-68 32 -120 32q-51 -1 -86.5 -37t-35.5 -84q0 -49 36.5 -84.5t92.5 -45.5l194 77v-115l-432 -172v116zM905 1719l-298 345l150 3l192 -219l192 219l150 -3l-298 -345h-88z" />
    <glyph glyph-name="uE122" unicode="&#xe091;&#xfe88;" horiz-adv-x="1232" 
d="M161 1479l201 11l58 -1097l-201 -11zM750 244q41 24 65 65t24 90v1107h208v-1120q0 -105 -52 -193.5t-140.5 -140.5t-193.5 -52h-476v220h476q48 0 89 24zM98 -715l119 48q-50 18 -83.5 68.5t-33.5 107.5q0 60 28.5 112t81 84t120.5 32q41 0 75 -10.5t73 -30.5l-29 -98
q-68 32 -120 32q-51 -1 -86.5 -37t-35.5 -84q0 -49 36.5 -84.5t92.5 -45.5l194 77v-115l-432 -172v116zM905 1719l-298 345l150 3l192 -219l192 219l150 -3l-298 -345h-88z" />
    <glyph glyph-name="uE123" unicode="&#xe092;&#xfe88;" horiz-adv-x="1285" 
d="M750 244q41 24 65 65t24 90v1107h208v-1107q0 -49 24 -90t65 -65t90 -24h59v-220h-59q-94 0 -166 44t-116 120q-45 -77 -117.5 -120.5t-165.5 -43.5h-476v220h476q48 0 89 24zM161 1479l201 11l58 -1097l-201 -11zM97 -715l119 48q-50 18 -83.5 68.5t-33.5 107.5
q0 60 28.5 112t81 84t120.5 32q41 0 75 -10.5t73 -30.5l-29 -98q-68 32 -120 32q-51 -1 -86.5 -37t-35.5 -84q0 -49 36.5 -84.5t92.5 -45.5l194 77v-115l-432 -172v116zM905 1719l-298 345l150 3l192 -219l192 219l150 -3l-298 -345h-88z" />
    <glyph glyph-name="uniFBA5" unicode="&#xfeea;&#x654;" horiz-adv-x="1209" arabic-form="final" 
d="M606.5 92.5q-123.5 -25.5 -230 4.5t-174 106.5t-74.5 187.5q-11 154 52.5 280.5t193.5 203.5t313 88l-24 168l206 29l118 -811q8 -56 50.5 -92.5t98.5 -36.5h78v-220h-77q-95 0 -173 51.5t-121 149.5q-113 -83 -236.5 -108.5zM418 674q-101 -97 -92 -260
q6 -69 72.5 -109.5t170.5 -27.5t213 91l-60 408q-203 -5 -304 -102zM304 1362q171 -1 244 24t73 96v45l-192 -1q-28 0 -51 23.5t-22 51.5v85q0 59 29 107.5t78 77t105 28.5h140v-100h-140q-47 0 -79.5 -33t-32.5 -80v-71h266v-139q0 -59 -33.5 -109t-126.5 -82.5t-258 -29.5
v107z" />
    <glyph glyph-name="uniFE8A" unicode="&#xfbfd;&#x654;" horiz-adv-x="1730" arabic-form="final" 
d="M729 -544q-216 0 -340 82.5t-189 224.5t-65 280q1 176 25 294.5t70 243.5l192 -78q-28 -76 -54 -183t-26 -251q1 -165 75 -283.5t304 -120.5h241q155 0 255 59t100 184q0 48 -29.5 76t-74.5 29h-435v207h953v-220h-245q33 -32 33 -85q-1 -117 -62 -220t-186.5 -171
t-308.5 -68h-233zM119 870l119 48q-50 18 -83.5 68.5t-33.5 107.5q0 60 28.5 112t81 84t120.5 32q41 0 75 -10.5t73 -30.5l-29 -98q-68 32 -120 32q-51 -1 -86.5 -37t-35.5 -84q0 -49 36.5 -84.5t92.5 -45.5l194 77v-115l-432 -172v116z" />
    <glyph glyph-name="uniFEF5" unicode="&#xfedf;&#xfe82;" horiz-adv-x="1231" arabic-form="isolated" 
d="M170 1317l201 11l49 -935l-201 -11zM750 244q41 24 65 65t24 90v1107h208v-1120q0 -105 -52 -193.5t-140.5 -140.5t-193.5 -52h-476v220h476q48 0 89 24zM-177 1364l61 154q34 85 109.5 136t167.5 51h453v-144h-453q-48 1 -86.5 -25.5t-57.5 -70.5l-60 -154z" />
    <glyph glyph-name="uniFEF6" unicode="&#xfee0;&#xfe82;" horiz-adv-x="1285" arabic-form="final" 
d="M1226 0q-94 0 -166 44t-116 120q-45 -77 -117.5 -120.5t-165.5 -43.5h-476v220h476q48 0 89 24t65 65t24 90v1107h208v-1107q0 -49 24 -90t65 -65t90 -24h59v-220h-59zM170 1317l201 11l49 -935l-201 -11zM-177 1364l61 154q34 85 109.5 136t167.5 51h453v-144h-453
q-48 1 -86.5 -25.5t-57.5 -70.5l-60 -154z" />
    <glyph glyph-name="uniFEF7" unicode="&#xfedf;&#x675;" horiz-adv-x="1231" arabic-form="isolated" 
d="M170 1317l201 11l49 -935l-201 -11zM750 244q41 24 65 65t24 90v1107h208v-1120q0 -105 -52 -193.5t-140.5 -140.5t-193.5 -52h-476v220h476q48 0 89 24zM57 1595l119 48q-50 18 -83.5 68.5t-33.5 107.5q0 60 28.5 112t81 84t120.5 32q41 0 75 -10.5t73 -30.5l-29 -98
q-68 32 -120 32q-51 -1 -86.5 -37t-35.5 -84q0 -49 36.5 -84.5t92.5 -45.5l194 77v-115l-432 -172v116z" />
    <glyph glyph-name="uniFEF8" unicode="&#xfee0;&#x675;" horiz-adv-x="1285" arabic-form="final" 
d="M1226 0q-94 0 -166 44t-116 120q-45 -77 -117.5 -120.5t-165.5 -43.5h-476v220h476q48 0 89 24t65 65t24 90v1107h208v-1107q0 -49 24 -90t65 -65t90 -24h59v-220h-59zM170 1317l201 11l49 -935l-201 -11zM57 1595l119 48q-50 18 -83.5 68.5t-33.5 107.5q0 60 28.5 112
t81 84t120.5 32q41 0 75 -10.5t73 -30.5l-29 -98q-68 32 -120 32q-51 -1 -86.5 -37t-35.5 -84q0 -49 36.5 -84.5t92.5 -45.5l194 77v-115l-432 -172v116z" />
    <glyph glyph-name="uniFEF9" unicode="&#xfedf;&#xfe88;" horiz-adv-x="1231" arabic-form="isolated" 
d="M161 1479l201 11l58 -1097l-201 -11zM750 244q41 24 65 65t24 90v1107h208v-1120q0 -105 -52 -193.5t-140.5 -140.5t-193.5 -52h-476v220h476q48 0 89 24zM89 -715l119 48q-50 18 -83.5 68.5t-33.5 107.5q0 60 28.5 112t81 84t120.5 32q41 0 75 -10.5t73 -30.5l-29 -98
q-68 32 -120 32q-51 -1 -86.5 -37t-35.5 -84q0 -49 36.5 -84.5t92.5 -45.5l194 77v-115l-432 -172v116z" />
    <glyph glyph-name="uniFEFA" unicode="&#xfee0;&#xfe88;" horiz-adv-x="1285" arabic-form="final" 
d="M750 244q41 24 65 65t24 90v1107h208v-1107q0 -49 24 -90t65 -65t90 -24h59v-220h-59q-94 0 -166 44t-116 120q-45 -77 -117.5 -120.5t-165.5 -43.5h-476v220h476q48 0 89 24zM161 1479l201 11l58 -1097l-201 -11zM88 -715l119 48q-50 18 -83.5 68.5t-33.5 107.5
q0 60 28.5 112t81 84t120.5 32q41 0 75 -10.5t73 -30.5l-29 -98q-68 32 -120 32q-51 -1 -86.5 -37t-35.5 -84q0 -49 36.5 -84.5t92.5 -45.5l194 77v-115l-432 -172v116z" />
    <glyph glyph-name="uniFEFB" unicode="&#xfedf;&#xfe8e;" horiz-adv-x="1231" arabic-form="isolated" 
d="M161 1479l201 11l58 -1097l-201 -11zM750 244q41 24 65 65t24 90v1107h208v-1120q0 -105 -52 -193.5t-140.5 -140.5t-193.5 -52h-476v220h476q48 0 89 24z" />
    <glyph glyph-name="uniFEFC" unicode="&#xfee0;&#xfe8e;" horiz-adv-x="1285" arabic-form="final" 
d="M750 244q41 24 65 65t24 90v1107h208v-1107q0 -49 24 -90t65 -65t90 -24h59v-220h-59q-94 0 -166 44t-116 120q-45 -77 -117.5 -120.5t-165.5 -43.5h-476v220h476q48 0 89 24zM161 1479l201 11l58 -1097l-201 -11z" />
    <glyph glyph-name="uni064406440647" unicode="&#xfedf;&#xfee0;&#xfeea;" horiz-adv-x="2516" 
d="M1944 220q48 0 89 24t65 65t24 90l1 1107h207v-1120q0 -105 -52 -193.5t-140.5 -140.5t-193.5 -52h-112q-41 25 -55.5 67.5t0 85t55.5 67.5h112zM1232 220q48 0 89 24t65.5 65t24.5 90v795h207v-795q0 -49 24 -90t65 -65t90 -24h52v-220h-52q-94 0 -166 43.5t-117 120.5
q-45 -77 -117 -120.5t-165 -43.5h-53q-41 25 -55.5 67.5t0 85t55.5 67.5h53zM1491 1455.5q-50 -56.5 -130 -56.5t-130.5 56t-50.5 139v152h107v-152q0 -37 19.5 -62.5t54.5 -25.5t54 25.5t19 62.5v152h107v-152q0 -82 -50 -138.5zM1745.5 1475.5q-50.5 -56.5 -130.5 -56.5
t-130 56t-50 139v132h106v-132q0 -37 19.5 -62.5t54.5 -25.5t54.5 25.5t19.5 62.5v152h106v-152q1 -82 -49.5 -138.5zM1539 2281v-380h-106v380h106zM617.5 92.5q-123.5 -25.5 -230 4.5t-174 106.5t-74.5 187.5q-11 154 52.5 280.5t193.5 203.5t313 88l-24 168l206 29
l118 -811q8 -56 50.5 -92.5t98.5 -36.5h78v-220h-77q-95 0 -173 51.5t-121 149.5q-113 -83 -236.5 -108.5zM429 674q-101 -97 -92 -260q6 -69 72.5 -109.5t170.5 -27.5t213 91l-60 408q-203 -5 -304 -102z" />
    <glyph glyph-name="uni0621" unicode="&#x621;" horiz-adv-x="1082" arabic-form="isolated" 
d="M360 235q-72 37 -112 112.5t-40 162.5q0 94 44.5 182.5t125.5 144.5t186 56q88 0 154 -25.5t104 -53.5l-67 -177q-102 81 -201 68q-72 -7 -114.5 -65.5t-42.5 -129.5q0 -74 47.5 -129t138.5 -59l298 115l67 -176l-719 -278l-68 176z" />
    <glyph glyph-name="uni0622" unicode="&#x622;" horiz-adv-x="576" arabic-form="isolated" 
d="M391 1328v-1328h-207v1328h207zM-177 1385l61 154q34 85 109.5 136t167.5 51h453v-144h-453q-48 1 -86.5 -25.5t-57.5 -70.5l-60 -154z" />
    <glyph glyph-name="uni0623" unicode="&#x623;" horiz-adv-x="574" arabic-form="isolated" 
d="M391 1328v-1328h-207v1328h207zM59 1608l119 48q-50 18 -83.5 68.5t-33.5 107.5q0 60 28.5 112t81 84t120.5 32q41 0 75 -10.5t73 -30.5l-29 -98q-68 32 -120 32q-51 -1 -86.5 -37t-35.5 -84q0 -49 36.5 -84.5t92.5 -45.5l194 77v-115l-432 -172v116z" />
    <glyph glyph-name="uni0624" unicode="&#x624;" horiz-adv-x="1099" arabic-form="isolated" 
d="M647 -204.5q93 85.5 97 204.5h-219q-205 0 -298 111.5t-93 320.5q0 129 54 232.5t148.5 162t211.5 58.5q119 0 210.5 -57.5t142 -161t50.5 -234.5v-399q0 -147 -64 -269t-180 -198.5t-267 -90.5l-339 -29l-14 216l321 30q146 18 239 103.5zM757 430q0 102 -48.5 179
t-160.5 77q-72 0 -120 -37t-71 -95.5t-23 -123.5q0 -111 49 -161.5t165 -50.5h209v212zM332 1138l119 48q-50 18 -83.5 68.5t-33.5 107.5q0 60 28.5 112t81 84t120.5 32q41 0 75 -10.5t73 -30.5l-29 -98q-68 32 -120 32q-51 -1 -86.5 -37t-35.5 -84q0 -49 36.5 -84.5
t92.5 -45.5l194 77v-115l-432 -172v116z" />
    <glyph glyph-name="uni0625" unicode="&#x625;" horiz-adv-x="574" arabic-form="isolated" 
d="M391 1506v-1506h-207v1506h207zM60 -715l119 48q-50 18 -83.5 68.5t-33.5 107.5q0 60 28.5 112t81 84t120.5 32q41 0 75 -10.5t73 -30.5l-29 -98q-68 32 -120 32q-51 -1 -86.5 -37t-35.5 -84q0 -49 36.5 -84.5t92.5 -45.5l194 77v-115l-432 -172v116z" />
    <glyph glyph-name="uni0627" unicode="&#x627;" horiz-adv-x="575" arabic-form="isolated" 
d="M391 1506v-1506h-207v1506h207z" />
    <glyph glyph-name="uni0628" unicode="&#x628;" horiz-adv-x="1839" arabic-form="isolated" 
d="M361.5 368.5q17.5 -66.5 67 -107.5t122.5 -41h760q48 0 89 24t65.5 65t24.5 90v338h207v-363q0 -102 -52 -188t-140.5 -136t-193.5 -50h-762q-132 0 -235 74.5t-146.5 200.5t-8.5 274l55 218l207 -58l-58 -201q-19 -73 -1.5 -139.5zM791 -528v199h246v-199h-246z" />
    <glyph glyph-name="uni0629" unicode="&#x629;" horiz-adv-x="1077" arabic-form="isolated" 
d="M400.5 575.5q-68.5 -100.5 -68.5 -193.5q0 -63 31 -107.5t79.5 -67.5t98.5 -23t98.5 22t79.5 66.5t31 109.5q0 63 -49 158.5t-157 202.5q-75 -67 -143.5 -167.5zM318 933l131 161l87 -71q205 -167 310 -331t105 -307q0 -123 -59 -214t-153 -138.5t-198 -47.5
q-108 0 -202 51t-151 142.5t-57 206.5q0 99 50 197t112.5 171.5t108.5 110.5zM215 1257q-1 82 0 185h310q9 -64 9 -98.5t-9 -86.5h-310zM517 1257q-9 52 -9 86.5t9 98.5h310q1 -101 0 -185h-310z" />
    <glyph glyph-name="uni062A" unicode="&#x62a;" horiz-adv-x="1839" arabic-form="isolated" 
d="M361.5 368.5q17.5 -66.5 67 -107.5t122.5 -41h760q48 0 89 24t65.5 65t24.5 90v338h207v-363q0 -102 -52 -188t-140.5 -136t-193.5 -50h-762q-132 0 -235 74.5t-146.5 200.5t-8.5 274l55 218l207 -58l-58 -201q-19 -73 -1.5 -139.5zM620 873q-1 82 0 185h310
q9 -64 9 -98.5t-9 -86.5h-310zM922 873q-9 52 -9 86.5t9 98.5h310q1 -101 0 -185h-310z" />
    <glyph glyph-name="uni062B" unicode="&#x62b;" horiz-adv-x="1839" arabic-form="isolated" 
d="M361.5 368.5q17.5 -66.5 67 -107.5t122.5 -41h760q48 0 89 24t65.5 65t24.5 90v338h207v-363q0 -102 -52 -188t-140.5 -136t-193.5 -50h-762q-132 0 -235 74.5t-146.5 200.5t-8.5 274l55 218l207 -58l-58 -201q-19 -73 -1.5 -139.5zM620 872q-1 89 0 185h311
q8 -62 8 -96.5t-9 -88.5h-310zM922 872q-9 54 -9 88.5t9 96.5h311v-185h-311zM815 1210v184q111 -1 222 0q1 -91 0 -184h-222z" />
    <glyph glyph-name="uni062C" unicode="&#x62c;" horiz-adv-x="1479" arabic-form="isolated" 
d="M1192 559q-111 34 -218 85.5t-240 124.5q-65 36 -91 49q-72 36 -136.5 -1.5t-91.5 -108.5l-28 -64l-190 84l28 64q44 107 125 172t180 77t195 -33q124 -60 469 -248q176 -98 184 -98l-8 -222l-769 -313q-140 -59 -203 -153.5t-52 -201.5q4 -65 47.5 -126t115.5 -99.5
t157 -38.5h613v-208h-613q-153 0 -273 64.5t-188.5 176.5t-73.5 252q-4 106 41.5 211.5t136.5 189.5t217 126zM737 -221v199h246v-199h-246z" />
    <glyph glyph-name="uni062D" unicode="&#x62d;" horiz-adv-x="1480" arabic-form="isolated" 
d="M1192 559q-111 34 -218 85.5t-240 124.5q-65 36 -91 49q-72 36 -136.5 -1.5t-91.5 -108.5l-28 -64l-190 84l28 64q44 107 125 172t180 77t195 -33q124 -60 469 -248q176 -98 184 -98l-8 -222l-769 -313q-140 -59 -203 -153.5t-52 -201.5q4 -65 47.5 -126t115.5 -99.5
t157 -38.5h613v-208h-613q-153 0 -273 64.5t-188.5 176.5t-73.5 252q-4 106 41.5 211.5t136.5 189.5t217 126z" />
    <glyph glyph-name="uni062E" unicode="&#x62e;" horiz-adv-x="1479" arabic-form="isolated" 
d="M1192 559q-111 34 -218 85.5t-240 124.5q-65 36 -91 49q-72 36 -136.5 -1.5t-91.5 -108.5l-28 -64l-190 84l28 64q44 107 125 172t180 77t195 -33q124 -60 469 -248q176 -98 184 -98l-8 -222l-769 -313q-140 -59 -203 -153.5t-52 -201.5q4 -65 47.5 -126t115.5 -99.5
t157 -38.5h613v-208h-613q-153 0 -273 64.5t-188.5 176.5t-73.5 252q-4 106 41.5 211.5t136.5 189.5t217 126zM521 1306v199h246v-199h-246z" />
    <glyph glyph-name="uni062F" unicode="&#x62f;" horiz-adv-x="1109" arabic-form="isolated" 
d="M77 0v207h575q51 0 84.5 33t38 79.5t-24.5 84.5l-382 503l164 126l383 -504q61 -80 67 -173t-36 -174.5t-120 -131.5t-174 -50h-575z" />
    <glyph glyph-name="uni0630" unicode="&#x630;" horiz-adv-x="1109" arabic-form="isolated" 
d="M77 0v207h575q51 0 84.5 33t38 79.5t-24.5 84.5l-382 503l164 126l383 -504q61 -80 67 -173t-36 -174.5t-120 -131.5t-174 -50h-575zM409 1258v199h246v-199h-246z" />
    <glyph glyph-name="uni0631" unicode="&#x631;" horiz-adv-x="749" arabic-form="isolated" 
d="M-38 -330l103 22q95 18 171.5 73.5t120.5 135t44 169.5v667h207v-681q0 -146 -63.5 -267.5t-179 -204t-268.5 -112.5l-88 -18z" />
    <glyph glyph-name="uni0632" unicode="&#x632;" horiz-adv-x="749" arabic-form="isolated" 
d="M-38 -330l103 22q95 18 171.5 73.5t120.5 135t44 169.5v667h207v-681q0 -146 -63.5 -267.5t-179 -204t-268.5 -112.5l-88 -18zM382 998v199h246v-199h-246z" />
    <glyph glyph-name="uni0633" unicode="&#x633;" horiz-adv-x="2766" arabic-form="isolated" 
d="M1267 737h207l-1 -340q1 -73 47.5 -125t117.5 -52h40q73 0 118.5 52t45.5 127v339h207v-339q0 -75 45.5 -127t118.5 -52h40q73 0 119 52t46 127v338h207v-351q0 -101 -47 -189.5t-135 -142.5t-190 -54h-40q-88 0 -156.5 43.5t-111.5 119.5q-44 -78 -111.5 -120.5
t-155.5 -42.5h-40q-53 0 -97 23t-71 58l-1 -48q-9 -149 -76 -279.5t-203.5 -214t-305.5 -83.5h-154q-216 0 -340 82.5t-192 225t-68 279.5q1 164 32.5 289t77.5 250l191 -78q-28 -76 -61 -189.5t-33 -245.5q1 -165 79 -278.5t314 -114.5h154q110 0 196 49t136 139t50 223z
" />
    <glyph glyph-name="uni0634" unicode="&#x634;" horiz-adv-x="2766" arabic-form="isolated" 
d="M1267 737h207l-1 -340q1 -73 47.5 -125t117.5 -52h40q73 0 118.5 52t45.5 127v339h207v-339q0 -75 45.5 -127t118.5 -52h40q73 0 119 52t46 127v338h207v-351q0 -101 -47 -189.5t-135 -142.5t-190 -54h-40q-88 0 -156.5 43.5t-111.5 119.5q-44 -78 -111.5 -120.5
t-155.5 -42.5h-40q-53 0 -97 23t-71 58l-1 -48q-9 -149 -76 -279.5t-203.5 -214t-305.5 -83.5h-154q-216 0 -340 82.5t-192 225t-68 279.5q1 164 32.5 289t77.5 250l191 -78q-28 -76 -61 -189.5t-33 -245.5q1 -165 79 -278.5t314 -114.5h154q110 0 196 49t136 139t50 223z
M1640 998q-1 89 0 185h311q8 -62 8 -96.5t-9 -88.5h-310zM1942 998q-9 54 -9 88.5t9 96.5h311v-185h-311zM1835 1336v184q111 -1 222 0q1 -91 0 -184h-222z" />
    <glyph glyph-name="uni0635" unicode="&#x635;" horiz-adv-x="2813" arabic-form="isolated" 
d="M2217 220q107 0 183 73.5t76 179.5q0 120 -67.5 191t-181.5 63q-127 -8 -221 -152.5t-140.5 -244t-53.5 -110.5h405zM1265 737h208l1 -353q-1 -59 39.5 -106.5t112.5 -56.5q65 237 211.5 470.5t382.5 242.5q157 5 261.5 -64.5t153 -177.5t48.5 -219q0 -125 -61 -234
t-168 -174t-237 -65h-501q-74 0 -136.5 30t-107.5 83v-49q-5 -167 -75.5 -304t-207 -220.5t-305.5 -83.5h-154q-216 0 -340 82.5t-192 225t-68 279.5q1 164 32.5 289t77.5 250l191 -78q-28 -76 -61 -189.5t-33 -245.5q1 -165 79 -278.5t314 -114.5h154q110 0 196 49
t135.5 137t50.5 213z" />
    <glyph glyph-name="uni0636" unicode="&#x636;" horiz-adv-x="2813" arabic-form="isolated" 
d="M2217 220q107 0 183 73.5t76 179.5q0 120 -67.5 191t-181.5 63q-127 -8 -221 -152.5t-140.5 -244t-53.5 -110.5h405zM1265 737h208l1 -353q-1 -59 39.5 -106.5t112.5 -56.5q65 237 211.5 470.5t382.5 242.5q157 5 261.5 -64.5t153 -177.5t48.5 -219q0 -125 -61 -234
t-168 -174t-237 -65h-501q-74 0 -136.5 30t-107.5 83v-49q-5 -167 -75.5 -304t-207 -220.5t-305.5 -83.5h-154q-216 0 -340 82.5t-192 225t-68 279.5q1 164 32.5 289t77.5 250l191 -78q-28 -76 -61 -189.5t-33 -245.5q1 -165 79 -278.5t314 -114.5h154q110 0 196 49
t135.5 137t50.5 213zM2057 1191v199h246v-199h-246z" />
    <glyph glyph-name="uni0637" unicode="&#x637;" horiz-adv-x="1553" arabic-form="isolated" 
d="M586 1506v-523l-4 -348q83 135 174 215t199 84q157 5 261.5 -64.5t153 -177.5t48.5 -219q0 -125 -61 -234t-167.5 -174t-237.5 -65h-810v220h202q1 2 4 14q16 50 31 89v1183h207zM1081.5 253.5q59.5 33.5 94.5 91t35 128.5q0 120 -67.5 190.5t-181.5 63.5
q-82 -6 -155.5 -79.5t-124.5 -162.5t-104 -202q-23 -48 -31 -63h405q70 0 129.5 33.5z" />
    <glyph glyph-name="uni0638" unicode="&#x638;" horiz-adv-x="1546" arabic-form="isolated" 
d="M586 1506v-523l-4 -348q83 135 174 215t199 84q157 5 261.5 -64.5t153 -177.5t48.5 -219q0 -125 -61 -234t-167.5 -174t-237.5 -65h-810v220h202q1 2 4 14q16 50 31 89v1183h207zM1081.5 253.5q59.5 33.5 94.5 91t35 128.5q0 120 -67.5 190.5t-181.5 63.5
q-82 -6 -155.5 -79.5t-124.5 -162.5t-104 -202q-23 -48 -31 -63h405q70 0 129.5 33.5zM898 1180v199h246v-199h-246z" />
    <glyph glyph-name="uni0639" unicode="&#x639;" horiz-adv-x="1250" arabic-form="isolated" 
d="M655 -696q-132 0 -248.5 60t-186.5 169t-70 247q0 142 81.5 249.5t215.5 161.5q-67 49 -106 136t-39 176q0 122 51 226.5t141.5 169.5t203.5 74q93 7 177 -14t179 -61l-36 -202q-105 37 -175 55.5t-124 14.5q-95 -6 -152.5 -85.5t-57.5 -177.5q0 -59 26 -113t74.5 -87.5
t113.5 -33.5h388v-220h-480q-73 0 -136 -36.5t-100.5 -98.5t-37.5 -134q0 -82 42 -140t110.5 -87.5t145.5 -29.5h457v-219h-457z" />
    <glyph glyph-name="uni063A" unicode="&#x63a;" horiz-adv-x="1250" arabic-form="isolated" 
d="M655 -696q-132 0 -248.5 60t-186.5 169t-70 247q0 142 81.5 249.5t215.5 161.5q-67 49 -106 136t-39 176q0 122 51 226.5t141.5 169.5t203.5 74q93 7 177 -14t179 -61l-36 -202q-105 37 -175 55.5t-124 14.5q-95 -6 -152.5 -85.5t-57.5 -177.5q0 -59 26 -113t74.5 -87.5
t113.5 -33.5h388v-220h-480q-73 0 -136 -36.5t-100.5 -98.5t-37.5 -134q0 -82 42 -140t110.5 -87.5t145.5 -29.5h457v-219h-457zM582 1224v199h246v-199h-246z" />
    <glyph glyph-name="uni0641" unicode="&#x641;" horiz-adv-x="1939" arabic-form="isolated" 
d="M1586 377.5q22 93.5 22 181.5q0 74 -31 126t-80 77.5t-104 25.5q-87 -1 -149.5 -60.5t-64.5 -149.5q0 -60 32 -126.5t106.5 -120.5t194.5 -72q52 25 74 118.5zM546 220h485q190 -1 229 6q-100 18 -163 77.5t-90.5 133t-27.5 137.5q0 111 56.5 206t152.5 150.5t205 54.5
q112 0 207 -54.5t151.5 -152.5t56.5 -221q0 -177 -49.5 -302.5t-136.5 -190t-201 -64.5h-872zM361.5 368.5q17.5 -66.5 67 -107.5t122.5 -41l-2 -220q-132 0 -235 74.5t-147 200.5t-8 274l55 218l207 -58l-58 -201q-19 -73 -1.5 -139.5zM1270 1228v199h246v-199h-246z" />
    <glyph glyph-name="uni0642" unicode="&#x642;" horiz-adv-x="1701" arabic-form="isolated" 
d="M1375 430q0 103 -48.5 179.5t-160.5 76.5q-107 0 -160.5 -75.5t-53.5 -180.5q0 -110 48.5 -161t165.5 -51h209v212zM730 -544q-216 0 -339.5 82.5t-191.5 225t-68 279.5q0 177 27.5 295.5t73.5 243.5l191 -78q-28 -76 -56.5 -183.5t-28.5 -251.5q1 -165 78.5 -284
t313.5 -120h243q197 0 298 91t105 244h-233q-206 0 -298.5 111t-92.5 321q0 133 54.5 235t148 160t211.5 58q180 0 291.5 -126.5t111.5 -326.5l1 -427q0 -152 -77.5 -276t-212.5 -198t-316 -74zM840 1122q-1 82 0 185h310q9 -64 9 -98.5t-9 -86.5h-310zM1142 1122
q-9 52 -9 86.5t9 98.5h310q1 -101 0 -185h-310z" />
    <glyph glyph-name="uni0643" unicode="&#x643;" horiz-adv-x="1873" arabic-form="isolated" 
d="M549 0q-3 14 -9 44q-17 76 -18.5 118.5t24.5 57.5h769q49 0 90 24t65 65t24 90v1109h207v-1134q0 -102 -52 -188t-140.5 -136t-193.5 -50h-766zM361.5 368.5q17.5 -66.5 67 -107.5t122.5 -41l-2 -220q-132 0 -235 74.5t-147 200.5t-8 274l55 218l207 -58l-58 -201
q-19 -73 -1.5 -139.5zM741 615l119 48q-50 18 -83.5 68.5t-33.5 107.5q0 60 28.5 112t81 84t120.5 32q41 0 75 -10.5t73 -30.5l-29 -98q-68 32 -120 32q-51 -1 -86.5 -37t-35.5 -84q0 -49 36.5 -84.5t92.5 -45.5l194 77v-115l-432 -172v116z" />
    <glyph glyph-name="uni0644" unicode="&#x644;" horiz-adv-x="1645" arabic-form="isolated" 
d="M730 -544q-216 0 -339.5 82.5t-191.5 225t-68 279.5q0 164 31.5 289t77.5 250l192 -78q-28 -76 -61 -189.5t-33 -245.5q1 -165 78.5 -278.5t313.5 -114.5h143q110 0 196 49t136 139t50 223v1419h207v-1407q1 -188 -72.5 -332t-210.5 -227.5t-306 -83.5h-143z" />
    <glyph glyph-name="uni0645" unicode="&#x645;" horiz-adv-x="1477" arabic-form="isolated" 
d="M1092 262.5q34 30.5 46.5 85t11.5 133.5q-1 64 -24 124.5t-68 99t-110 38.5q-92 0 -145.5 -75t-76.5 -204q-21 -97 -42 -177q56 -23 137 -39t175 -16q62 0 96 30.5zM669.5 817.5q104.5 123.5 279.5 124.5q113 0 203 -61t142 -166.5t55 -233.5q3 -130 -36.5 -234.5
t-120.5 -164.5t-196 -60q-187 0 -338 49q-74 24 -112.5 49.5t-68.5 56.5q-17 17 -25 22l71 283q42 212 146.5 335.5zM628 283l-33 -189l-246 101v-91v-718h-207v897l139 139z" />
    <glyph glyph-name="uni0646" unicode="&#x646;" horiz-adv-x="1616" arabic-form="isolated" 
d="M730 -544q-216 0 -339.5 82.5t-191.5 225t-68 279.5q0 164 31.5 289t77.5 250l192 -78q-28 -76 -61 -189.5t-33 -245.5q1 -165 78.5 -278.5t313.5 -114.5h155q110 0 196 49t135.5 139t49.5 223v650h208v-638q0 -188 -73.5 -332t-210.5 -227.5t-305 -83.5h-155zM678 702
v199h246v-199h-246z" />
    <glyph glyph-name="uni0647" unicode="&#x647;" horiz-adv-x="1077" arabic-form="isolated" 
d="M400.5 575.5q-68.5 -100.5 -68.5 -193.5q0 -63 31 -107.5t79.5 -67.5t98.5 -23t98.5 22t79.5 66.5t31 109.5q0 63 -49 158.5t-157 202.5q-75 -67 -143.5 -167.5zM318 933l131 161l87 -71q205 -167 310 -331t105 -307q0 -123 -59 -214t-153 -138.5t-198 -47.5
q-108 0 -202 51t-151 142.5t-57 206.5q0 99 50 197t112.5 171.5t108.5 110.5z" />
    <glyph glyph-name="uni0648" unicode="&#x648;" horiz-adv-x="1099" arabic-form="isolated" 
d="M647 -204.5q93 85.5 97 204.5h-219q-205 0 -298 111.5t-93 320.5q0 129 54 232.5t148.5 162t211.5 58.5q119 0 210.5 -57.5t142 -161t50.5 -234.5v-399q0 -147 -64 -269t-180 -198.5t-267 -90.5l-339 -29l-14 216l321 30q146 18 239 103.5zM757 430q0 102 -48.5 179
t-160.5 77q-72 0 -120 -37t-71 -95.5t-23 -123.5q0 -111 49 -161.5t165 -50.5h209v212z" />
    <glyph glyph-name="uni0649" unicode="&#x649;" horiz-adv-x="1656" arabic-form="isolated" 
d="M895 -335q162 0 283 66t139 200q12 86 -29.5 121.5t-124.5 40.5l-444 30l20 360q14 200 123.5 304.5t297.5 104.5h316v-208h-310q-96 0 -151 -59t-62 -148l-12 -172l265 -16q169 -12 256.5 -88.5t61.5 -260.5q-35 -240 -225 -362t-404 -122h-172q-210 0 -334 82.5
t-189 224.5t-65 280q1 176 25 294.5t70 243.5l192 -78q-28 -76 -54 -183t-26 -251q1 -165 76 -284.5t305 -120.5z" />
    <glyph glyph-name="uni064A" unicode="&#x64a;" horiz-adv-x="1656" arabic-form="isolated" 
d="M895 -335q162 0 283 66t139 200q12 86 -29.5 121.5t-124.5 40.5l-444 30l20 360q14 200 123.5 304.5t297.5 104.5h316v-208h-310q-96 0 -151 -59t-62 -148l-12 -172l265 -16q169 -12 256.5 -88.5t61.5 -260.5q-35 -240 -225 -362t-404 -122h-172q-210 0 -334 82.5
t-189 224.5t-65 280q1 176 25 294.5t70 243.5l192 -78q-28 -76 -54 -183t-26 -251q1 -165 76 -284.5t305 -120.5zM485 -974q-1 90 0 186h310q9 -60 9 -94.5t-9 -91.5h-310zM787 -974q-9 57 -9 91.5t9 94.5h310q1 -95 0 -186h-310z" />
    <glyph glyph-name="uni064B" unicode="&#xfe70;" arabic-form="isolated" 
d="M-216 1876l432 172v-115l-432 -172v115zM-233 2114l432 172v-115l-432 -172v115z" />
    <glyph glyph-name="uni064C" unicode="&#xfe72;" arabic-form="isolated" 
d="M-272 1827l33 243q3 30 -18.5 49t-52.5 2l-13 -7l-53 93l14 7q59 35 109.5 20.5t79.5 -63t29 -107.5l-10 -177l143 56l-42 107q-33 89 2.5 170.5t122.5 119.5q90 32 171 -3t119 -123q32 -89 -3 -170.5t-122 -118.5l-422 -164zM53.5 2188q-25.5 -47 -6.5 -99l41 -107
l109 42q44 18 63.5 62t1.5 89q-15 36 -50.5 57t-75.5 13q-57 -10 -82.5 -57z" />
    <glyph glyph-name="uni064D" unicode="&#xfe74;" arabic-form="isolated" 
d="M-233 -645l432 172v-115l-432 -172v115zM-216 -883l432 172v-115l-432 -172v115z" />
    <glyph glyph-name="uni064E" unicode="&#xfe76;" arabic-form="isolated" 
d="M-216 1876l432 172v-115l-432 -172v115z" />
    <glyph glyph-name="uni064F" unicode="&#xfe78;" arabic-form="isolated" 
d="M-216 1883l117 48l-42 107q-33 89 2.5 170.5t123.5 119.5q89 33 170 -2.5t118 -122.5q33 -90 -2 -171.5t-123 -118.5l-364 -145v115zM-5 2211.5q-30 -24.5 -40.5 -61.5t3.5 -72l43 -109l108 43q44 18 63.5 62.5t1.5 88.5q-13 33 -43 53t-65 20q-41 0 -71 -24.5z" />
    <glyph glyph-name="uni0650" unicode="&#xfe7a;" arabic-form="isolated" 
d="M-216 -672l432 172v-115l-432 -172v115z" />
    <glyph glyph-name="uni0651" unicode="&#xfe7c;" arabic-form="isolated" 
d="M1 1831.5q-50 -56.5 -130 -56.5t-130.5 56t-50.5 139v152h107v-152q0 -37 19.5 -62.5t54.5 -25.5t54 25.5t19 62.5v152h107v-152q0 -82 -50 -138.5zM255.5 1851.5q-50.5 -56.5 -130.5 -56.5t-130 56t-50 139v132h106v-132q0 -37 19.5 -62.5t54.5 -25.5t54.5 25.5
t19.5 62.5v152h106v-152q1 -82 -49.5 -138.5z" />
    <glyph glyph-name="uni0652" unicode="&#xfe7e;" arabic-form="isolated" 
d="M-120.5 1808.5q-52.5 33.5 -81.5 91t-29 127.5q0 69 29 126.5t81.5 90.5t120.5 33t120.5 -33t81.5 -90.5t29 -126.5q0 -70 -29 -127.5t-81.5 -91t-120.5 -33.5t-120.5 33.5zM-91 2129.5q-33 -41.5 -33 -102.5q0 -62 33 -103.5t91 -41.5t91.5 41.5t33.5 103.5
q0 61 -33.5 102.5t-91.5 41.5t-91 -41.5z" />
    <glyph glyph-name="uni0671" unicode="&#x671;" horiz-adv-x="575" arabic-form="isolated" 
d="M391 1328v-1328h-207v1328h207zM391 1588q51 0 86.5 25t35.5 63q0 49 -28 88t-91 39q-61 0 -104.5 -64.5t-78.5 -150.5h180zM214.5 1831.5q69.5 89.5 178.5 89.5q107 0 172.5 -72.5t65.5 -172.5q0 -58 -32 -105t-87 -74t-121 -27h-237q-58 0 -111 43t-85.5 109.5
t-32.5 131.5v60h118v-60q0 -34 17.5 -69t41.5 -53q43 110 112.5 199.5z" />
    <glyph glyph-name="uni0675" unicode="&#x623;" horiz-adv-x="631" arabic-form="final" 
d="M570 0q-113 0 -201 51t-136.5 136.5t-48.5 186.5v954h207v-929q0 -49 24 -90t65 -65t90 -24h61v-220h-61zM60 1608l119 48q-50 18 -83.5 68.5t-33.5 107.5q0 60 28.5 112t81 84t120.5 32q41 0 75 -10.5t73 -30.5l-29 -98q-68 32 -120 32q-51 -1 -86.5 -37t-35.5 -84
q0 -49 36.5 -84.5t92.5 -45.5l194 77v-115l-432 -172v116z" />
    <glyph glyph-name="uni0679" unicode="&#x679;" horiz-adv-x="1839" arabic-form="isolated" 
d="M361.5 368.5q17.5 -66.5 67 -107.5t122.5 -41h760q48 0 89 24t65.5 65t24.5 90v338h207v-363q0 -102 -52 -188t-140.5 -136t-193.5 -50h-762q-132 0 -235 74.5t-146.5 200.5t-8.5 274l55 218l207 -58l-58 -201q-19 -73 -1.5 -139.5zM978 893q52 0 87.5 25.5t35.5 62.5
q0 49 -28 88.5t-91 39.5q-61 0 -105.5 -66.5t-74.5 -149.5h176zM683 1430h119v-313q82 110 180 110q107 0 172 -73t65 -173q0 -57 -31.5 -104t-86.5 -74.5t-123 -27.5h-357v118h55q0 1 1 2q3 16 6 27v508z" />
    <glyph glyph-name="uni067E" unicode="&#x67e;" horiz-adv-x="1839" arabic-form="isolated" 
d="M361.5 368.5q17.5 -66.5 67 -107.5t122.5 -41h760q48 0 89 24t65.5 65t24.5 90v338h207v-363q0 -102 -52 -188t-140.5 -136t-193.5 -50h-762q-132 0 -235 74.5t-146.5 200.5t-8.5 274l55 218l207 -58l-58 -201q-19 -73 -1.5 -139.5zM608 -448q-1 97 0 186h310
q9 -54 9 -88.5t-8 -97.5h-311zM910 -448q-9 63 -9 97.5t9 88.5h311v-186h-311zM803 -786v184h222q1 -92 0 -184h-222z" />
    <glyph glyph-name="uni0686" unicode="&#x686;" horiz-adv-x="1479" arabic-form="isolated" 
d="M1192 559q-111 34 -218 85.5t-240 124.5q-65 36 -91 49q-72 36 -136.5 -1.5t-91.5 -108.5l-28 -64l-190 84l28 64q44 107 125 172t180 77t195 -33q124 -60 469 -248q176 -98 184 -98l-8 -222l-769 -313q-140 -59 -203 -153.5t-52 -201.5q4 -65 47.5 -126t115.5 -99.5
t157 -38.5h613v-208h-613q-153 0 -273 64.5t-188.5 176.5t-73.5 252q-4 106 41.5 211.5t136.5 189.5t217 126zM654 -105v126h244q1 -58 0 -126q-129 1 -244 0zM886 -105q-1 68 0 126h244v-126q-115 1 -244 0zM807 -327q-1 67 0 134h170q1 -67 0 -134h-170z" />
    <glyph glyph-name="uni0688" unicode="&#x688;" horiz-adv-x="1109" arabic-form="isolated" 
d="M77 0v207h575q51 0 84.5 33t38 79.5t-24.5 84.5l-382 503l164 126l383 -504q61 -80 67 -173t-36 -174.5t-120 -131.5t-174 -50h-575zM607 1391q52 0 87.5 25.5t35.5 62.5q0 49 -28 88.5t-91 39.5q-61 0 -105.5 -66.5t-74.5 -149.5h176zM312 1928h119v-313q82 110 180 110
q107 0 172 -73t65 -173q0 -57 -31.5 -104t-86.5 -74.5t-123 -27.5h-357v118h55q0 1 1 2q3 16 6 27v508z" />
    <glyph glyph-name="uni0691" unicode="&#x691;" horiz-adv-x="749" arabic-form="isolated" 
d="M-38 -330l103 22q95 18 171.5 73.5t120.5 135t44 169.5v667h207v-681q0 -146 -63.5 -267.5t-179 -204t-268.5 -112.5l-88 -18zM584 1118q52 0 87.5 25.5t35.5 62.5q0 49 -28 88.5t-91 39.5q-61 0 -105.5 -66.5t-74.5 -149.5h176zM289 1655h119v-313q82 110 180 110
q107 0 172 -73t65 -173q0 -57 -31.5 -104t-86.5 -74.5t-123 -27.5h-357v118h55q0 1 1 2q3 16 6 27v508z" />
    <glyph glyph-name="uni0698" unicode="&#x698;" horiz-adv-x="749" arabic-form="isolated" 
d="M-38 -330l103 22q95 18 171.5 73.5t120.5 135t44 169.5v667h207v-681q0 -146 -63.5 -267.5t-179 -204t-268.5 -112.5l-88 -18zM199 998q-1 89 0 185h311q8 -62 8 -96.5t-9 -88.5h-310zM501 998q-9 54 -9 88.5t9 96.5h311v-185h-311zM394 1336v184q111 -1 222 0
q1 -91 0 -184h-222z" />
    <glyph glyph-name="uni06A4" unicode="&#x6a4;" horiz-adv-x="1939" arabic-form="isolated" 
d="M1586 377.5q22 93.5 22 181.5q0 74 -31 126t-80 77.5t-104 25.5q-87 -1 -149.5 -60.5t-64.5 -149.5q0 -60 32 -126.5t106.5 -120.5t194.5 -72q52 25 74 118.5zM546 220h485q190 -1 229 6q-100 18 -163 77.5t-90.5 133t-27.5 137.5q0 111 56.5 206t152.5 150.5t205 54.5
q112 0 207 -54.5t151.5 -152.5t56.5 -221q0 -177 -49.5 -302.5t-136.5 -190t-201 -64.5h-872zM361.5 368.5q17.5 -66.5 67 -107.5t122.5 -41l-2 -220q-132 0 -235 74.5t-147 200.5t-8 274l55 218l207 -58l-58 -201q-19 -73 -1.5 -139.5zM1082 1228q-1 89 0 185h311
q8 -62 8 -96.5t-9 -88.5h-310zM1384 1228q-9 54 -9 88.5t9 96.5h311v-185h-311zM1277 1566v184q111 -1 222 0q1 -91 0 -184h-222z" />
    <glyph glyph-name="uni06A9" unicode="&#x6a9;" horiz-adv-x="1925" arabic-form="isolated" 
d="M1437 220q53 0 87 35.5t36 84.5t-34 87l-558 583v208l781 312l73 -193l-635 -258l501 -522q72 -76 87 -172t-23 -184.5t-118 -144.5t-185 -56h-900q-132 0 -235 74.5t-147 200.5t-8 274l55 218l206 -58l-57 -201q-19 -73 -1.5 -139.5t67 -107.5t122.5 -41h886z" />
    <glyph glyph-name="uni06AF" unicode="&#x6af;" horiz-adv-x="1925" arabic-form="isolated" 
d="M1437 220q53 0 87 35.5t36 84.5t-34 87l-558 583v208l781 312l73 -193l-635 -258l501 -522q72 -76 87 -172t-23 -184.5t-118 -144.5t-185 -56h-900q-132 0 -235 74.5t-147 200.5t-8 274l55 218l206 -58l-57 -201q-19 -73 -1.5 -139.5t67 -107.5t122.5 -41h886zM968 1528
l643 263l45 -104l-687 -276z" />
    <glyph glyph-name="uni06BA" unicode="&#x6ba;" horiz-adv-x="1616" arabic-form="isolated" 
d="M730 -544q-216 0 -339.5 82.5t-191.5 225t-68 279.5q0 164 31.5 289t77.5 250l192 -78q-28 -76 -61 -189.5t-33 -245.5q1 -165 78.5 -278.5t313.5 -114.5h155q110 0 196 49t135.5 139t49.5 223v650h208v-638q0 -188 -73.5 -332t-210.5 -227.5t-305 -83.5h-155z" />
    <glyph glyph-name="uni06BE" unicode="&#x6be;" horiz-adv-x="1604" arabic-form="isolated" 
d="M434 732.5q-49 -22.5 -80 -69t-31 -113.5q0 -112 69 -199.5t146 -138.5q76 51 145 138.5t69 199.5q0 67 -31 113.5t-80 69t-103 22.5q-55 0 -104 -22.5zM537 0q-31 0 -82.5 22t-108.5 65t-108 108.5t-83 155t-32 196.5q0 117 54.5 209.5t149.5 145t211 52.5
q115 0 210 -52.5t149.5 -145t54.5 -209.5q0 -97 -49.5 -185.5t-110.5 -141.5h358q51 0 84.5 32.5t38 79.5t-24.5 85l-372 490l164 126l383 -504q61 -80 67 -173t-36 -174.5t-120 -131.5t-174 -50h-623z" />
    <glyph glyph-name="uni06C1" unicode="&#x6c1;" horiz-adv-x="1077" arabic-form="isolated" 
d="M400.5 575.5q-68.5 -100.5 -68.5 -193.5q0 -63 31 -107.5t79.5 -67.5t98.5 -23t98.5 22t79.5 66.5t31 109.5q0 63 -49 158.5t-157 202.5q-75 -67 -143.5 -167.5zM318 933l131 161l87 -71q205 -167 310 -331t105 -307q0 -123 -59 -214t-153 -138.5t-198 -47.5
q-108 0 -202 51t-151 142.5t-57 206.5q0 99 50 197t112.5 171.5t108.5 110.5z" />
    <glyph glyph-name="uni06C3.fina" unicode="&#x6c3;" horiz-adv-x="1184" 
d="M140 14l43 343q16 127 97 225.5t202 139.5l306 102l136 -89l32 -365q7 -68 57.5 -109t121.5 -41h49v-220h-49q-99 0 -184 46.5t-138.5 126.5t-62.5 178l-21 234l-182 -60q-64 -21 -107 -74t-51 -120l-43 -342zM321 1058q-1 82 0 185h310q9 -64 9 -98.5t-9 -86.5h-310z
M623 1058q-9 52 -9 86.5t9 98.5h310q1 -101 0 -185h-310z" />
    <glyph glyph-name="uni06C6" unicode="&#x6c6;" horiz-adv-x="1099" arabic-form="isolated" 
d="M647 -204.5q93 85.5 97 204.5h-219q-205 0 -298 111.5t-93 320.5q0 129 54 232.5t148.5 162t211.5 58.5q119 0 210.5 -57.5t142 -161t50.5 -234.5v-399q0 -147 -64 -269t-180 -198.5t-267 -90.5l-339 -29l-14 216l321 30q146 18 239 103.5zM757 430q0 102 -48.5 179
t-160.5 77q-72 0 -120 -37t-71 -95.5t-23 -123.5q0 -111 49 -161.5t165 -50.5h209v212zM501 1079l-298 345l150 3l192 -219l192 219l150 -3l-298 -345h-88z" />
    <glyph glyph-name="uni06C7" unicode="&#x6c7;" horiz-adv-x="1099" arabic-form="isolated" 
d="M647 -204.5q93 85.5 97 204.5h-219q-205 0 -298 111.5t-93 320.5q0 129 54 232.5t148.5 162t211.5 58.5q119 0 210.5 -57.5t142 -161t50.5 -234.5v-399q0 -147 -64 -269t-180 -198.5t-267 -90.5l-339 -29l-14 216l321 30q146 18 239 103.5zM757 430q0 102 -48.5 179
t-160.5 77q-72 0 -120 -37t-71 -95.5t-23 -123.5q0 -111 49 -161.5t165 -50.5h209v212zM329 1149l117 48l-42 107q-33 89 2.5 170.5t123.5 119.5q89 33 170 -2.5t118 -122.5q33 -90 -2 -171.5t-123 -118.5l-364 -145v115zM540 1477.5q-30 -24.5 -40.5 -61.5t3.5 -72l43 -109
l108 43q44 18 63.5 62.5t1.5 88.5q-13 33 -43 53t-65 20q-41 0 -71 -24.5z" />
    <glyph glyph-name="uni06C9" unicode="&#x6c9;" horiz-adv-x="1099" arabic-form="isolated" 
d="M647 -204.5q93 85.5 97 204.5h-219q-205 0 -298 111.5t-93 320.5q0 129 54 232.5t148.5 162t211.5 58.5q119 0 210.5 -57.5t142 -161t50.5 -234.5v-399q0 -147 -64 -269t-180 -198.5t-267 -90.5l-339 -29l-14 216l321 30q146 18 239 103.5zM757 430q0 102 -48.5 179
t-160.5 77q-72 0 -120 -37t-71 -95.5t-23 -123.5q0 -111 49 -161.5t165 -50.5h209v212zM887 1060l-150 -3l-192 219l-192 -219l-150 3l298 345h88z" />
    <glyph glyph-name="uni06D2" unicode="&#x6d2;" horiz-adv-x="1621" arabic-form="isolated" 
d="M584 0q-120 0 -221.5 59.5t-161 161t-59.5 221.5q0 121 59.5 222.5t161 161t221.5 59.5h230v-207h-230q-64 0 -118 -31.5t-85.5 -86t-31.5 -118.5t31.5 -118t85.5 -85.5t118 -31.5h895v-207h-895z" />
    <glyph glyph-name="uni06D3" unicode="&#x6d3;" horiz-adv-x="1621" arabic-form="isolated" 
d="M584 0q-120 0 -221.5 59.5t-161 161t-59.5 221.5q0 121 59.5 222.5t161 161t221.5 59.5h230v-207h-230q-64 0 -118 -31.5t-85.5 -86t-31.5 -118.5t31.5 -118t85.5 -85.5t118 -31.5h895v-207h-895zM266 1248l119 48q-50 18 -83.5 68.5t-33.5 107.5q0 60 28.5 112t81 84
t120.5 32q41 0 75 -10.5t73 -30.5l-29 -98q-68 32 -120 32q-51 -1 -86.5 -37t-35.5 -84q0 -49 36.5 -84.5t92.5 -45.5l194 77v-115l-432 -172v116z" />
    <glyph glyph-name="uniFB51" unicode="&#x671;" horiz-adv-x="632" arabic-form="final" 
d="M570 0q-113 0 -201 51t-136.5 136.5t-48.5 186.5v954h207v-929q0 -49 24 -90t65 -65t90 -24h61v-220h-61zM391 1588q51 0 86.5 25t35.5 63q0 49 -28 88t-91 39q-61 0 -104.5 -64.5t-78.5 -150.5h180zM214.5 1831.5q69.5 89.5 178.5 89.5q107 0 172.5 -72.5t65.5 -172.5
q0 -58 -32 -105t-87 -74t-121 -27h-237q-58 0 -111 43t-85.5 109.5t-32.5 131.5v60h118v-60q0 -34 17.5 -69t41.5 -53q43 110 112.5 199.5z" />
    <glyph glyph-name="uniFB57" unicode="&#x67e;" horiz-adv-x="1935" arabic-form="final" 
d="M1311 220q48 0 89.5 24t65.5 65t24 90l-1 338h207l1 -338q0 -49 24 -90t65 -65t90 -24h59v-220h-59q-94 0 -166 43.5t-117 120.5q-44 -77 -116.5 -120.5t-165.5 -43.5h-762q-132 0 -235 74.5t-147 200.5t-8 274l55 218l207 -58l-58 -201q-19 -73 -1.5 -139.5t67 -107.5
t122.5 -41h760zM608 -448q-1 97 0 186h310q9 -54 9 -88.5t-8 -97.5h-311zM910 -448q-9 63 -9 97.5t9 88.5h311v-186h-311zM803 -786v184h222q1 -92 0 -184h-222z" />
    <glyph glyph-name="uniFB58" unicode="&#x67e;" horiz-adv-x="706" arabic-form="initial" 
d="M178 220q48 0 89 24t65 65t24 90v338h207v-363q0 -102 -51.5 -188t-140 -136t-193.5 -50h-178q-41 25 -55.5 67.5t0 85t55.5 67.5h178zM-187 -461q-1 97 0 186h310q9 -54 9 -88.5t-8 -97.5h-311zM115 -461q-9 63 -9 97.5t9 88.5h311v-186h-311zM8 -799v184h222
q1 -92 0 -184h-222z" />
    <glyph glyph-name="uniFB59" unicode="&#x67e;" horiz-adv-x="801" arabic-form="medial" 
d="M178 220q48 0 89 24t65 65t24 90v338h207v-338q0 -49 24.5 -90t65.5 -65t89 -24h59v-220h-59q-93 0 -165.5 43.5t-116.5 120.5q-45 -77 -117 -120.5t-165 -43.5h-178q-41 25 -55.5 67.5t0 85t55.5 67.5h178zM-187 -461q-1 97 0 186h310q9 -54 9 -88.5t-8 -97.5h-311z
M115 -461q-9 63 -9 97.5t9 88.5h311v-186h-311zM8 -799v184h222q1 -92 0 -184h-222z" />
    <glyph glyph-name="uniFB67" unicode="&#x679;" horiz-adv-x="1935" arabic-form="final" 
d="M1311 220q48 0 89.5 24t65.5 65t24 90l-1 338h207l1 -338q0 -49 24 -90t65 -65t90 -24h59v-220h-59q-94 0 -166 43.5t-117 120.5q-44 -77 -116.5 -120.5t-165.5 -43.5h-762q-132 0 -235 74.5t-147 200.5t-8 274l55 218l207 -58l-58 -201q-19 -73 -1.5 -139.5t67 -107.5
t122.5 -41h760zM978 893q52 0 87.5 25.5t35.5 62.5q0 49 -28 88.5t-91 39.5q-61 0 -105.5 -66.5t-74.5 -149.5h176zM683 1430h119v-313q82 110 180 110q107 0 172 -73t65 -173q0 -57 -31.5 -104t-86.5 -74.5t-123 -27.5h-357v118h55q0 1 1 2q3 16 6 27v508z" />
    <glyph glyph-name="uniFB68" unicode="&#x679;" horiz-adv-x="806" arabic-form="initial" 
d="M336 220q48 0 89 24t65 65t24 90v338h207v-363q0 -102 -51.5 -188t-140.5 -136t-193 -50h-336q-41 25 -55.5 67.5t0 85t55.5 67.5h336zM432 1094q52 0 87.5 25.5t35.5 62.5q0 49 -28 88.5t-91 39.5q-61 0 -105.5 -66.5t-74.5 -149.5h176zM137 1631h119v-313
q82 110 180 110q107 0 172 -73t65 -173q0 -57 -31.5 -104t-86.5 -74.5t-123 -27.5h-357v118h55q0 1 1 2q3 16 6 27v508z" />
    <glyph glyph-name="uniFB69" unicode="&#x679;" horiz-adv-x="894" arabic-form="medial" 
d="M336 220q48 0 89 24t65 65t24 90v338h208l-1 -338q0 -49 24 -90t65 -65t90 -24h51v-220h-51q-93 0 -165 43.5t-117 120.5q-45 -77 -117 -120.5t-165 -43.5h-336q-41 25 -55.5 67.5t0 85t55.5 67.5h336zM432 1096q52 0 87.5 25.5t35.5 62.5q0 49 -28 88.5t-91 39.5
q-61 0 -105.5 -66.5t-74.5 -149.5h176zM137 1633h119v-313q82 110 180 110q107 0 172 -73t65 -173q0 -57 -31.5 -104t-86.5 -74.5t-123 -27.5h-357v118h55q0 1 1 2q3 16 6 27v508z" />
    <glyph glyph-name="uniFB6B" unicode="&#x6a4;" horiz-adv-x="1995" arabic-form="final" 
d="M1301 736.5q-50 -22.5 -82 -70t-32 -116.5q0 -112 70.5 -199t148.5 -139q78 52 148.5 139t70.5 199q0 69 -32 116.5t-82.5 70t-104.5 22.5q-55 0 -105 -22.5zM546 220h605q-62 54 -113 142.5t-51 184.5q0 118 55.5 212t151.5 146.5t212 52.5t211.5 -52.5t151 -146.5
t55.5 -212q0 -96 -51 -184.5t-113 -142.5h336v-220h-379q-91 0 -145 15t-66 31q-13 -16 -67 -31t-145 -15h-651zM361.5 368.5q17.5 -66.5 67 -107.5t122.5 -41l-2 -220q-132 0 -235 74.5t-147 200.5t-8 274l55 218l207 -58l-58 -201q-19 -73 -1.5 -139.5zM1083 1201
q-1 89 0 185h311q8 -62 8 -96.5t-9 -88.5h-310zM1385 1201q-9 54 -9 88.5t9 96.5h311v-185h-311zM1278 1539v184q111 -1 222 0q1 -91 0 -184h-222z" />
    <glyph glyph-name="uniFB6C" unicode="&#x6a4;" horiz-adv-x="1119" arabic-form="initial" 
d="M766 377.5q22 93.5 22 181.5q0 74 -31 126t-80.5 77.5t-103.5 25.5q-87 -1 -149.5 -60.5t-65.5 -149.5q1 -60 32.5 -126.5t106.5 -120.5t195 -72q52 25 74 118.5zM-55 67.5q-15 42.5 0 85t55 67.5h178q216 0 262 6q-100 18 -163 77.5t-90.5 133t-27.5 137.5
q-1 111 56 206t152.5 150.5t205.5 54.5q112 0 207 -54.5t151 -152.5t56 -221q0 -177 -49 -302.5t-136.5 -190t-200.5 -64.5h-601q-40 25 -55 67.5zM267 1228q-1 89 0 185h311q8 -62 8 -96.5t-9 -88.5h-310zM569 1228q-9 54 -9 88.5t9 96.5h311v-185h-311zM462 1566v184
q111 -1 222 0q1 -91 0 -184h-222z" />
    <glyph glyph-name="uniFB6D" unicode="&#x6a4;" horiz-adv-x="1180" arabic-form="medial" 
d="M485 736.5q-50 -22.5 -82 -70t-32 -116.5q0 -112 70.5 -199t148.5 -139q78 53 148.5 139.5t70.5 198.5q0 69 -32 116.5t-82 70t-105 22.5t-105 -22.5zM335 220q-61 54 -112 142.5t-51 184.5q0 118 55.5 212t151 146.5t211.5 52.5t211.5 -52.5t151 -146.5t55.5 -212
q0 -96 -51 -184.5t-112 -142.5h335v-220h-379q-90 0 -144 15t-67 31q-13 -16 -66.5 -31t-144.5 -15h-379q-41 25 -55.5 67.5t0 85t55.5 67.5h335zM284 1200q-1 89 0 185h311q8 -62 8 -96.5t-9 -88.5h-310zM586 1200q-9 54 -9 88.5t9 96.5h311v-185h-311zM479 1538v184
q111 -1 222 0q1 -91 0 -184h-222z" />
    <glyph glyph-name="uniFB7B" unicode="&#x686;" horiz-adv-x="1493" arabic-form="final" 
d="M1237 292q9 -41 47.5 -56.5t82.5 -15.5h138v-220h-144q-101 0 -179 40t-99 133l-30 141l-452 -187q-140 -59 -203 -153.5t-52 -201.5q4 -65 47.5 -126t115.5 -99.5t157 -38.5h613v-208h-613q-153 0 -273 64.5t-188.5 176.5t-73.5 252q-4 106 41.5 211.5t136.5 189.5
t217 126l666 239q-111 34 -218 85.5t-240 124.5q-65 36 -91 49q-72 36 -136.5 -1.5t-91.5 -108.5l-28 -64l-190 84l28 64q44 107 125 172t180 77t195 -33q124 -60 469 -248q176 -98 184 -98l-8 -222l-150 -66zM606 -127v116h214q1 -62 0 -116q-119 1 -214 0zM808 -127
q-1 54 0 116h214v-116q-95 1 -214 0zM729 -342q-1 67 0 134h170q1 -67 0 -134h-170z" />
    <glyph glyph-name="uniFB7C" unicode="&#x686;" horiz-adv-x="1409" arabic-form="initial" 
d="M241 220q149 0 316.5 41t303.5 93t258 107q-268 118 -532 248q-67 34 -131 5t-97 -115l-26 -57l-190 84l25 57q45 107 125.5 172t179.5 77t195 -33q103 -50 384 -194q130 -67 191 -97.5t67 -30.5l5 -178q-4 -1 -32 -21q-195 -135 -459.5 -256.5t-582.5 -121.5h-241
q-40 25 -55 67.5t0 85t55 67.5h241zM268 -455q-1 97 0 186h310q9 -54 9 -88.5t-8 -97.5h-311zM570 -455q-9 63 -9 97.5t9 88.5h311v-186h-311zM463 -793v184h222q1 -92 0 -184h-222z" />
    <glyph glyph-name="uniFB7D" unicode="&#x686;" horiz-adv-x="1463" arabic-form="medial" 
d="M1159 309l74 -61q42 -28 96 -28h141v-220h-141q-69 0 -129.5 27.5t-90.5 76.5l-94 112zM241 220q149 0 316.5 41t303.5 93t258 107q-268 118 -532 248q-67 34 -131 5t-97 -115l-26 -57l-190 84l25 57q45 107 125.5 172t179.5 77t195 -33q103 -50 384 -194
q130 -67 191 -97.5t67 -30.5l5 -178q-4 -1 -32 -21q-195 -135 -459.5 -256.5t-582.5 -121.5h-241q-40 25 -55 67.5t0 85t55 67.5h241zM268 -455q-1 97 0 186h310q9 -54 9 -88.5t-8 -97.5h-311zM570 -455q-9 63 -9 97.5t9 88.5h311v-186h-311zM463 -793v184h222q1 -92 0 -184
h-222z" />
    <glyph glyph-name="uniFB89" unicode="&#x688;" horiz-adv-x="1215" arabic-form="final" 
d="M717 232.5q31 25.5 40.5 62t-6.5 66.5l-310 568l182 100l396 -729q42 -80 140 -80h56v-220h-56q-86 0 -158 40t-121 112l-14 26q-22 -70 -99.5 -124t-184.5 -54h-505v207h568q41 0 72 25.5zM664 1389q52 0 87.5 25.5t35.5 62.5q0 49 -28 88.5t-91 39.5
q-61 0 -105.5 -66.5t-74.5 -149.5h176zM369 1926h119v-313q82 110 180 110q107 0 172 -73t65 -173q0 -57 -31.5 -104t-86.5 -74.5t-123 -27.5h-357v118h55q0 1 1 2q3 16 6 27v508z" />
    <glyph glyph-name="uniFB8B" unicode="&#x698;" horiz-adv-x="894" arabic-form="final" 
d="M712 35q-61 35 -104 96v-84q-2 -143 -66 -263t-179 -201t-266 -111l-88 -18l-47 216l103 22q95 18 171.5 73.5t120.5 135t44 169.5v667h207v-303q5 -59 37.5 -108t84.5 -77.5t112 -28.5h52v-220h-52q-69 0 -130 35zM199 998q-1 89 0 185h311q8 -62 8 -96.5t-9 -88.5h-310
zM501 998q-9 54 -9 88.5t9 96.5h311v-185h-311zM394 1336v184q111 -1 222 0q1 -91 0 -184h-222z" />
    <glyph glyph-name="uniFB8D" unicode="&#x691;" horiz-adv-x="894" arabic-form="final" 
d="M712 35q-61 35 -104 96v-84q-2 -143 -66 -263t-179 -201t-266 -111l-88 -18l-47 216l103 22q95 18 171.5 73.5t120.5 135t44 169.5v667h207v-303q5 -59 37.5 -108t84.5 -77.5t112 -28.5h52v-220h-52q-69 0 -130 35zM584 1118q52 0 87.5 25.5t35.5 62.5q0 49 -28 88.5
t-91 39.5q-61 0 -105.5 -66.5t-74.5 -149.5h176zM289 1655h119v-313q82 110 180 110q107 0 172 -73t65 -173q0 -57 -31.5 -104t-86.5 -74.5t-123 -27.5h-357v118h55q0 1 1 2q3 16 6 27v508z" />
    <glyph glyph-name="uniFB8F" unicode="&#x6a9;" horiz-adv-x="2100" arabic-form="final" 
d="M536 117.5q-2 67.5 10 102.5h891q52 0 86 34.5t37 82.5t-31 87l-561 586v208l781 312l73 -193l-635 -258l785 -821q18 -19 44.5 -28.5t57.5 -9.5h27v-220h-27q-68 0 -130 26.5t-110 76.5l-123 129q-20 -95 -107 -163.5t-218 -68.5h-837q-11 50 -13 117.5zM361.5 368.5
q17.5 -66.5 67 -107.5t122.5 -41l-2 -220q-132 0 -235 74.5t-147 200.5t-8 274l55 218l207 -58l-58 -201q-19 -73 -1.5 -139.5z" />
    <glyph glyph-name="uniFB90" unicode="&#x6a9;" horiz-adv-x="1094" arabic-form="initial" 
d="M608 220q52 0 86.5 35.5t36 84.5t-34.5 87l-558 583v208l782 312l72 -193l-635 -258l502 -522q72 -76 86.5 -172t-23.5 -184.5t-118 -144.5t-185 -56h-619q-40 25 -55 67.5t0 85t55 67.5h608z" />
    <glyph glyph-name="uniFB91" unicode="&#x6a9;" horiz-adv-x="1275" arabic-form="medial" 
d="M608 220q52 0 86 34.5t36.5 82.5t-30.5 87l-562 586v208l782 312l72 -193l-635 -258l785 -821q18 -19 45 -28.5t57 -9.5h31v-220h-31q-68 0 -130 26.5t-109 76.5l-124 129q-20 -95 -107 -163.5t-218 -68.5h-556q-40 25 -55 67.5t0 85t55 67.5h608z" />
    <glyph glyph-name="uniFB93" unicode="&#x6af;" horiz-adv-x="2100" arabic-form="final" 
d="M536 117.5q-2 67.5 10 102.5h891q52 0 86 34.5t37 82.5t-31 87l-561 586v208l781 312l73 -193l-635 -258l785 -821q18 -19 44.5 -28.5t57.5 -9.5h27v-220h-27q-68 0 -130 26.5t-110 76.5l-123 129q-20 -95 -107 -163.5t-218 -68.5h-837q-11 50 -13 117.5zM361.5 368.5
q17.5 -66.5 67 -107.5t122.5 -41l-2 -220q-132 0 -235 74.5t-147 200.5t-8 274l55 218l207 -58l-58 -201q-19 -73 -1.5 -139.5zM968 1528l643 263l45 -104l-687 -276z" />
    <glyph glyph-name="uniFB94" unicode="&#x6af;" horiz-adv-x="1094" arabic-form="initial" 
d="M608 220q52 0 86.5 35.5t36 84.5t-34.5 87l-558 583v208l782 312l72 -193l-635 -258l502 -522q72 -76 86.5 -172t-23.5 -184.5t-118 -144.5t-185 -56h-619q-40 25 -55 67.5t0 85t55 67.5h608zM138 1528l643 263l45 -104l-687 -276z" />
    <glyph glyph-name="uniFB95" unicode="&#x6af;" horiz-adv-x="1275" arabic-form="medial" 
d="M608 220q52 0 86 34.5t36.5 82.5t-30.5 87l-562 586v208l782 312l72 -193l-635 -258l785 -821q18 -19 45 -28.5t57 -9.5h31v-220h-31q-68 0 -130 26.5t-109 76.5l-124 129q-20 -95 -107 -163.5t-218 -68.5h-556q-40 25 -55 67.5t0 85t55 67.5h608zM138 1528l643 263
l45 -104l-687 -276z" />
    <glyph glyph-name="uniFB9F" unicode="&#x6ba;" horiz-adv-x="1711" arabic-form="final" 
d="M1473 394q2 -72 53.5 -123.5t125.5 -51.5h59v-220h-59q-52 0 -102.5 28t-78.5 70zM730 -544q-216 0 -339.5 82.5t-191.5 225t-68 279.5q0 164 31.5 289t77.5 250l192 -78q-28 -76 -61 -189.5t-33 -245.5q1 -165 78.5 -278.5t313.5 -114.5h155q110 0 196 49t135.5 139
t49.5 223v650h208v-638q0 -188 -73.5 -332t-210.5 -227.5t-305 -83.5h-155z" />
    <glyph glyph-name="uniFBA7" unicode="&#x6c1;" horiz-adv-x="1184" arabic-form="final" 
d="M140 14l43 343q16 127 97 225.5t202 139.5l306 102l136 -89l32 -365q7 -68 57.5 -109t121.5 -41h49v-220h-49q-99 0 -184 46.5t-138.5 126.5t-62.5 178l-21 234l-182 -60q-64 -21 -107 -74t-51 -120l-43 -342z" />
    <glyph glyph-name="uniFBA8" unicode="&#x6c1;" horiz-adv-x="1288" arabic-form="initial" 
d="M834 -801.5q-54 -43.5 -133 -43.5t-130.5 45t-51.5 111v107q2 109 78 195.5t198 109.5l61 12l22 -154l-103 -15q-45 -7 -73.5 -41.5t-28.5 -79.5v-30q94 24 154.5 -7t60.5 -101q0 -65 -54 -108.5zM135 220q48 0 89 24t65 65t24 90v304h207v-304q0 -49 24.5 -90t65.5 -65
t89 -24h53q48 0 89 24t65 65t24 90v327h208v-352q0 -102 -52 -188t-140.5 -136t-193.5 -50h-53q-93 0 -165 43.5t-117 120.5q-45 -77 -117 -120.5t-165 -43.5h-135q-41 25 -55.5 67.5t0 85t55.5 67.5h135z" />
    <glyph glyph-name="uniFBA9" unicode="&#x6c1;" horiz-adv-x="1130" arabic-form="medial" 
d="M228 220v386h207v-517q1 -211 76.5 -313t224.5 -120v367q0 90 53.5 143.5t142.5 53.5h198v-220h-136q-22 0 -36.5 -14.5t-14.5 -36.5v-387l-104 -127q-273 0 -429 140t-177 425h-233q-41 25 -55.5 67.5t0 85t55.5 67.5h228z" />
    <glyph glyph-name="uniFBAB" unicode="&#x6be;" horiz-adv-x="1642" arabic-form="final" 
d="M434 732.5q-49 -22.5 -80 -69t-31 -113.5q0 -112 69 -199.5t146 -138.5q76 51 145 138.5t69 199.5q0 67 -31 113.5t-80 69t-103 22.5q-55 0 -104 -22.5zM537 0q-31 0 -82.5 22t-108.5 65t-108 108.5t-83 155t-32 196.5q0 117 54.5 209.5t149.5 145t211 52.5
q115 0 210 -52.5t149.5 -145t54.5 -209.5q0 -97 -49.5 -185.5t-110.5 -141.5h358q51 0 84.5 32.5t38 79.5t-24.5 85l-372 490l164 126l383 -504q55 -73 59 -156.5t-36 -152.5h196v-220h-1105z" />
    <glyph glyph-name="uniFBAC" unicode="&#x6be;" horiz-adv-x="1625" arabic-form="initial" 
d="M482 732.5q-49 -22.5 -80 -69t-31 -113.5q0 -112 69.5 -199.5t145.5 -138.5q76 51 145.5 138.5t69.5 199.5q0 67 -31.5 113.5t-80.5 69t-103 22.5q-55 0 -104 -22.5zM652 15q-54 15 -66 31q-13 -16 -67 -31t-144 -15h-375q-41 25 -55.5 67.5t0 85t55.5 67.5h331
q-60 53 -109.5 141.5t-49.5 185.5q0 117 54.5 209.5t149 145t210.5 52.5q115 0 210 -52.5t149.5 -145t54.5 -209.5q0 -97 -49.5 -185.5t-110.5 -141.5h342q57 0 94.5 36.5t42 89.5t-29.5 96l-358 471l157 120l383 -504q61 -80 67 -173t-36 -174.5t-120 -131.5t-174 -50h-411
q-91 0 -145 15z" />
    <glyph glyph-name="uniFBAD" unicode="&#x6be;" horiz-adv-x="1690" arabic-form="medial" 
d="M482 732.5q-49 -22.5 -80 -69t-31 -113.5q0 -112 69.5 -199.5t145.5 -138.5q76 51 145.5 138.5t69.5 199.5q0 67 -31.5 113.5t-80.5 69t-103 22.5q-55 0 -104 -22.5zM797 0q-91 0 -145 15t-66 31q-13 -16 -67 -31t-144 -15h-375q-41 25 -55.5 67.5t0 85t55.5 67.5h331
q-60 53 -109.5 141.5t-49.5 185.5q0 117 54.5 209.5t149 145t210.5 52.5q115 0 210 -52.5t149.5 -145t54.5 -209.5q0 -97 -49.5 -185.5t-110.5 -141.5h359q50 0 83.5 32.5t38.5 79.5t-24 85l-373 490l164 126l383 -504q55 -73 59 -156.5t-35 -152.5h195v-220h-893z" />
    <glyph glyph-name="uniFBAF" unicode="&#x6d2;" horiz-adv-x="1093" arabic-form="final" 
d="M516 -502q-106 0 -194.5 43t-140 122t-51.5 181q0 104 52.5 190t143.5 136t202 50h565v-220h-565q-84 0 -137 -43t-53 -113q0 -69 51 -109.5t127 -40.5h364v-196h-364z" />
    <glyph glyph-name="uniFBB1" unicode="&#x6d3;" horiz-adv-x="1093" arabic-form="final" 
d="M516 -502q-106 0 -194.5 43t-140 122t-51.5 181q0 104 52.5 190t143.5 136t202 50h565v-220h-565q-84 0 -137 -43t-53 -113q0 -69 51 -109.5t127 -40.5h364v-196h-364zM266 583l119 48q-50 18 -83.5 68.5t-33.5 107.5q0 60 28.5 112t81 84t120.5 32q41 0 75 -10.5
t73 -30.5l-29 -98q-68 32 -120 32q-51 -1 -86.5 -37t-35.5 -84q0 -49 36.5 -84.5t92.5 -45.5l194 77v-115l-432 -172v116z" />
    <glyph glyph-name="uniFBD8" unicode="&#x6c7;" horiz-adv-x="1141" arabic-form="final" 
d="M647 -204.5q93 85.5 97 204.5h-219q-205 0 -298 111.5t-93 320.5q0 129 53.5 232.5t148.5 162t212 58.5q119 0 210.5 -57.5t142 -161t50.5 -234.5v-212h190v-220h-191q-7 -140 -72.5 -254.5t-179 -185.5t-258.5 -85l-339 -29l-14 216l321 30q146 18 239 103.5zM757 430
q0 102 -48.5 179t-160.5 77q-72 0 -120.5 -37t-71 -95.5t-22.5 -123.5q0 -111 49 -161.5t165 -50.5h209v212zM329 1149l117 48l-42 107q-33 89 2.5 170.5t123.5 119.5q89 33 170 -2.5t118 -122.5q33 -90 -2 -171.5t-123 -118.5l-364 -145v115zM540 1477.5
q-30 -24.5 -40.5 -61.5t3.5 -72l43 -109l108 43q44 18 63.5 62.5t1.5 88.5q-13 33 -43 53t-65 20q-41 0 -71 -24.5z" />
    <glyph glyph-name="uniFBDA" unicode="&#x6c6;" horiz-adv-x="1141" arabic-form="final" 
d="M647 -204.5q93 85.5 97 204.5h-219q-205 0 -298 111.5t-93 320.5q0 129 53.5 232.5t148.5 162t212 58.5q119 0 210.5 -57.5t142 -161t50.5 -234.5v-212h190v-220h-191q-7 -140 -72.5 -254.5t-179 -185.5t-258.5 -85l-339 -29l-14 216l321 30q146 18 239 103.5zM757 430
q0 102 -48.5 179t-160.5 77q-72 0 -120.5 -37t-71 -95.5t-22.5 -123.5q0 -111 49 -161.5t165 -50.5h209v212zM501 1079l-298 345l150 3l192 -219l192 219l150 -3l-298 -345h-88z" />
    <glyph glyph-name="uniFBE3" unicode="&#x6c9;" horiz-adv-x="1141" arabic-form="final" 
d="M647 -204.5q93 85.5 97 204.5h-219q-205 0 -298 111.5t-93 320.5q0 129 53.5 232.5t148.5 162t212 58.5q119 0 210.5 -57.5t142 -161t50.5 -234.5v-212h190v-220h-191q-7 -140 -72.5 -254.5t-179 -185.5t-258.5 -85l-339 -29l-14 216l321 30q146 18 239 103.5zM757 430
q0 102 -48.5 179t-160.5 77q-72 0 -120.5 -37t-71 -95.5t-22.5 -123.5q0 -111 49 -161.5t165 -50.5h209v212zM887 1060l-150 -3l-192 219l-192 -219l-150 3l298 345h88z" />
    <glyph glyph-name="uniFBE8" unicode="&#x649;" horiz-adv-x="706" arabic-form="initial" 
d="M178 220q48 0 89 24t65 65t24 90v338h207v-363q0 -102 -51.5 -188t-140 -136t-193.5 -50h-178q-41 25 -55.5 67.5t0 85t55.5 67.5h178z" />
    <glyph glyph-name="uniFBE9" unicode="&#x649;" horiz-adv-x="801" arabic-form="medial" 
d="M178 220q48 0 89 24t65 65t24 90v338h207v-338q0 -49 24.5 -90t65.5 -65t89 -24h59v-220h-59q-93 0 -165.5 43.5t-116.5 120.5q-45 -77 -117 -120.5t-165 -43.5h-178q-41 25 -55.5 67.5t0 85t55.5 67.5h178z" />
    <glyph glyph-name="uniFBFD" unicode="&#x6cc;" horiz-adv-x="1731" arabic-form="final" 
d="M729 -544q-216 0 -340 82.5t-189 224.5t-65 280q1 176 25 294.5t70 243.5l192 -78q-28 -76 -54 -183t-26 -251q1 -165 75 -283.5t304 -120.5h241q155 0 255 59t100 184q0 48 -29.5 76t-74.5 29h-435v207h953v-220h-245q33 -32 33 -85q-1 -117 -62 -220t-186.5 -171
t-308.5 -68h-233z" />
    <glyph glyph-name="uniFBFE" unicode="&#x6cc;" horiz-adv-x="706" arabic-form="initial" 
d="M178 220q48 0 89 24t65 65t24 90v338h207v-363q0 -102 -51.5 -188t-140 -136t-193.5 -50h-178q-41 25 -55.5 67.5t0 85t55.5 67.5h178zM-187 -515q-1 90 0 186h310q9 -60 9 -94.5t-9 -91.5h-310zM115 -515q-9 57 -9 91.5t9 94.5h310q1 -95 0 -186h-310z" />
    <glyph glyph-name="uniFBFF" unicode="&#x6cc;" horiz-adv-x="801" arabic-form="medial" 
d="M178 220q48 0 89 24t65 65t24 90v338h207v-338q0 -49 24.5 -90t65.5 -65t89 -24h59v-220h-59q-93 0 -165.5 43.5t-116.5 120.5q-45 -77 -117 -120.5t-165 -43.5h-178q-41 25 -55.5 67.5t0 85t55.5 67.5h178zM-187 -515q-1 90 0 186h310q9 -60 9 -94.5t-9 -91.5h-310z
M115 -515q-9 57 -9 91.5t9 94.5h310q1 -95 0 -186h-310z" />
    <glyph glyph-name="uniFD3C" unicode="&#xfd3c;" horiz-adv-x="631" arabic-form="final" 
d="M570 0q-113 0 -201 51t-136.5 136.5t-48.5 186.5v954h207v-929q0 -49 24 -90t65 -65t90 -24h61v-220h-61zM120 1513l432 172v-115l-432 -172v115zM103 1751l432 172v-115l-432 -172v115z" />
    <glyph glyph-name="uniFD3D" unicode="&#xfd3d;" horiz-adv-x="575" arabic-form="isolated" 
d="M391 1328v-1328h-207v1328h207zM120 1513l432 172v-115l-432 -172v115zM103 1751l432 172v-115l-432 -172v115z" />
    <glyph glyph-name="uniFDF2" unicode="&#xfdf2;" horiz-adv-x="2965" arabic-form="isolated" 
d="M2817 1506v-1506h-207v1506h207zM1942 220q48 0 89 24t65 65t24 90l1 1107h207v-1120q0 -105 -52 -193.5t-140.5 -140.5t-193.5 -52h-112q-41 25 -55.5 67.5t0 85t55.5 67.5h112zM1230 220q48 0 89 24t65.5 65t24.5 90v795h207v-795q0 -49 24 -90t65 -65t90 -24h52v-220
h-52q-94 0 -166 43.5t-117 120.5q-45 -77 -117 -120.5t-165 -43.5h-53q-41 25 -55.5 67.5t0 85t55.5 67.5h53zM1489 1455.5q-50 -56.5 -130 -56.5t-130.5 56t-50.5 139v152h107v-152q0 -37 19.5 -62.5t54.5 -25.5t54 25.5t19 62.5v152h107v-152q0 -82 -50 -138.5z
M1743.5 1475.5q-50.5 -56.5 -130.5 -56.5t-130 56t-50 139v132h106v-132q0 -37 19.5 -62.5t54.5 -25.5t54.5 25.5t19.5 62.5v152h106v-152q1 -82 -49.5 -138.5zM1537 2281v-380h-106v380h106zM615.5 92.5q-123.5 -25.5 -230 4.5t-174 106.5t-74.5 187.5q-11 154 52.5 280.5
t193.5 203.5t313 88l-24 168l206 29l118 -811q8 -56 50.5 -92.5t98.5 -36.5h78v-220h-77q-95 0 -173 51.5t-121 149.5q-113 -83 -236.5 -108.5zM427 674q-101 -97 -92 -260q6 -69 72.5 -109.5t170.5 -27.5t213 91l-60 408q-203 -5 -304 -102z" />
    <glyph glyph-name="uniFDFC" unicode="&#xfdfc;" horiz-adv-x="3479" arabic-form="isolated" 
d="M2691 -330l103 22q145 28 240.5 135t95.5 243v667h207v-681q0 -221 -139.5 -379.5t-370.5 -204.5l-89 -18zM1831 -514v185h613v-185h-613zM1462 1303v-1204q1 -188 -72.5 -332t-210.5 -227.5t-306 -83.5h-143q-216 0 -339.5 82.5t-191.5 225t-68 279.5q0 164 31.5 289
t77.5 250l192 -78q-28 -76 -61 -189.5t-33 -245.5q1 -165 78.5 -278.5t313.5 -114.5h143q110 0 196 49t136 139t50 223v1377l773 78l1 -1143q0 -75 52 -127t126 -52h196q74 0 126.5 52.5t52.5 126.5v338h207v-363q0 -152 -107.5 -263t-278.5 -111h-196q-170 0 -277.5 111
t-107.5 263l-1 968z" />
    <glyph glyph-name="uniFE82" unicode="&#x622;" horiz-adv-x="632" arabic-form="final" 
d="M570 0q-113 0 -201 51t-136.5 136.5t-48.5 186.5v954h207v-929q0 -49 24 -90t65 -65t90 -24h61v-220h-61zM-177 1385l61 154q34 85 109.5 136t167.5 51h453v-144h-453q-48 1 -86.5 -25.5t-57.5 -70.5l-60 -154z" />
    <glyph glyph-name="uniFE86" unicode="&#x624;" horiz-adv-x="1141" arabic-form="final" 
d="M647 -204.5q93 85.5 97 204.5h-219q-205 0 -298 111.5t-93 320.5q0 129 53.5 232.5t148.5 162t212 58.5q119 0 210.5 -57.5t142 -161t50.5 -234.5v-212h190v-220h-191q-7 -140 -72.5 -254.5t-179 -185.5t-258.5 -85l-339 -29l-14 216l321 30q146 18 239 103.5zM757 430
q0 102 -48.5 179t-160.5 77q-72 0 -120.5 -37t-71 -95.5t-22.5 -123.5q0 -111 49 -161.5t165 -50.5h209v212zM332 1138l119 48q-50 18 -83.5 68.5t-33.5 107.5q0 60 28.5 112t81 84t120.5 32q41 0 75 -10.5t73 -30.5l-29 -98q-68 32 -120 32q-51 -1 -86.5 -37t-35.5 -84
q0 -49 36.5 -84.5t92.5 -45.5l194 77v-115l-432 -172v116z" />
    <glyph glyph-name="uniFE88" unicode="&#x625;" horiz-adv-x="631" arabic-form="final" 
d="M570 0q-113 0 -201 51t-136.5 136.5t-48.5 186.5v1132h207v-1107q0 -49 24 -90t65 -65t90 -24h61v-220h-61zM60 -715l119 48q-50 18 -83.5 68.5t-33.5 107.5q0 60 28.5 112t81 84t120.5 32q41 0 75 -10.5t73 -30.5l-29 -98q-68 32 -120 32q-51 -1 -86.5 -37t-35.5 -84
q0 -49 36.5 -84.5t92.5 -45.5l194 77v-115l-432 -172v116z" />
    <glyph glyph-name="uniFE8B" unicode="&#x626;" horiz-adv-x="706" arabic-form="initial" 
d="M178 220q48 0 89 24t65 65t24 90v338h207v-363q0 -102 -51.5 -188t-140 -136t-193.5 -50h-178q-41 25 -55.5 67.5t0 85t55.5 67.5h178zM75 1055l119 48q-50 18 -83.5 68.5t-33.5 107.5q0 60 28.5 112t81 84t120.5 32q41 0 75 -10.5t73 -30.5l-29 -98q-68 32 -120 32
q-51 -1 -86.5 -37t-35.5 -84q0 -49 36.5 -84.5t92.5 -45.5l194 77v-115l-432 -172v116z" />
    <glyph glyph-name="uniFE8C" unicode="&#x626;" horiz-adv-x="801" arabic-form="medial" 
d="M178 220q48 0 89 24t65 65t24 90v338h207v-338q0 -49 24.5 -90t65.5 -65t89 -24h59v-220h-59q-93 0 -165.5 43.5t-116.5 120.5q-45 -77 -117 -120.5t-165 -43.5h-178q-41 25 -55.5 67.5t0 85t55.5 67.5h178zM75 1033l119 48q-50 18 -83.5 68.5t-33.5 107.5q0 60 28.5 112
t81 84t120.5 32q41 0 75 -10.5t73 -30.5l-29 -98q-68 32 -120 32q-51 -1 -86.5 -37t-35.5 -84q0 -49 36.5 -84.5t92.5 -45.5l194 77v-115l-432 -172v116z" />
    <glyph glyph-name="uniFE8E" unicode="&#x627;" horiz-adv-x="631" arabic-form="final" 
d="M570 0q-113 0 -201 51t-136.5 136.5t-48.5 186.5v1132h207v-1107q0 -49 24 -90t65 -65t90 -24h61v-220h-61z" />
    <glyph glyph-name="uniFE90" unicode="&#x628;" horiz-adv-x="1935" arabic-form="final" 
d="M1311 220q48 0 89.5 24t65.5 65t24 90l-1 338h207l1 -338q0 -49 24 -90t65 -65t90 -24h59v-220h-59q-94 0 -166 43.5t-117 120.5q-44 -77 -116.5 -120.5t-165.5 -43.5h-762q-132 0 -235 74.5t-147 200.5t-8 274l55 218l207 -58l-58 -201q-19 -73 -1.5 -139.5t67 -107.5
t122.5 -41h760zM791 -528v199h246v-199h-246z" />
    <glyph glyph-name="uniFE91" unicode="&#x628;" horiz-adv-x="706" arabic-form="initial" 
d="M178 220q48 0 89 24t65 65t24 90v338h207v-363q0 -102 -51.5 -188t-140 -136t-193.5 -50h-178q-41 25 -55.5 67.5t0 85t55.5 67.5h178zM34 -528v199h246v-199h-246z" />
    <glyph glyph-name="uniFE92" unicode="&#x628;" horiz-adv-x="802" arabic-form="medial" 
d="M178 220q48 0 89 24t65 65t24 90v338h207v-338q0 -49 24.5 -90t65.5 -65t89 -24h59v-220h-59q-93 0 -165.5 43.5t-116.5 120.5q-45 -77 -117 -120.5t-165 -43.5h-178q-41 25 -55.5 67.5t0 85t55.5 67.5h178zM34 -528v199h246v-199h-246z" />
    <glyph glyph-name="uniFE94" unicode="&#x629;" horiz-adv-x="1209" arabic-form="final" 
d="M606.5 92.5q-123.5 -25.5 -230 4.5t-174 106.5t-74.5 187.5q-11 154 52.5 280.5t193.5 203.5t313 88l-24 168l206 29l118 -811q8 -56 50.5 -92.5t98.5 -36.5h78v-220h-77q-95 0 -173 51.5t-121 149.5q-113 -83 -236.5 -108.5zM418 674q-101 -97 -92 -260
q6 -69 72.5 -109.5t170.5 -27.5t213 91l-60 408q-203 -5 -304 -102zM335 1320q-1 82 0 185h310q9 -64 9 -98.5t-9 -86.5h-310zM637 1320q-9 52 -9 86.5t9 98.5h310q1 -101 0 -185h-310z" />
    <glyph glyph-name="uniFE96" unicode="&#x62a;" horiz-adv-x="1935" arabic-form="final" 
d="M1311 220q48 0 89.5 24t65.5 65t24 90l-1 338h207l1 -338q0 -49 24 -90t65 -65t90 -24h59v-220h-59q-94 0 -166 43.5t-117 120.5q-44 -77 -116.5 -120.5t-165.5 -43.5h-762q-132 0 -235 74.5t-147 200.5t-8 274l55 218l207 -58l-58 -201q-19 -73 -1.5 -139.5t67 -107.5
t122.5 -41h760zM620 873q-1 82 0 185h310q9 -64 9 -98.5t-9 -86.5h-310zM922 873q-9 52 -9 86.5t9 98.5h310q1 -101 0 -185h-310z" />
    <glyph glyph-name="uniFE97" unicode="&#x62a;" horiz-adv-x="799" arabic-form="initial" 
d="M272 220q48 0 89 24t65.5 65t24.5 90v338h207v-363q0 -102 -52 -188t-140.5 -136t-193.5 -50h-272q-41 25 -55.5 67.5t0 85t55.5 67.5h272zM72 997q-1 82 0 185h310q9 -64 9 -98.5t-9 -86.5h-310zM374 997q-9 52 -9 86.5t9 98.5h310q1 -101 0 -185h-310z" />
    <glyph glyph-name="uniFE98" unicode="&#x62a;" horiz-adv-x="888" arabic-form="medial" 
d="M272 220q48 0 89 24t65.5 65t24.5 90v338h207v-338q0 -49 24 -90t65 -65t89 -24h51v-220h-51q-93 0 -165 43.5t-117 120.5q-45 -77 -117 -120.5t-165 -43.5h-272q-41 25 -55.5 67.5t0 85t55.5 67.5h272zM72 998q-1 82 0 185h310q9 -64 9 -98.5t-9 -86.5h-310zM374 998
q-9 52 -9 86.5t9 98.5h310q1 -101 0 -185h-310z" />
    <glyph glyph-name="uniFE9A" unicode="&#x62b;" horiz-adv-x="1935" arabic-form="final" 
d="M1311 220q48 0 89.5 24t65.5 65t24 90l-1 338h207l1 -338q0 -49 24 -90t65 -65t90 -24h59v-220h-59q-94 0 -166 43.5t-117 120.5q-44 -77 -116.5 -120.5t-165.5 -43.5h-762q-132 0 -235 74.5t-147 200.5t-8 274l55 218l207 -58l-58 -201q-19 -73 -1.5 -139.5t67 -107.5
t122.5 -41h760zM620 872q-1 89 0 185h311q8 -62 8 -96.5t-9 -88.5h-310zM922 872q-9 54 -9 88.5t9 96.5h311v-185h-311zM815 1210v184q111 -1 222 0q1 -91 0 -184h-222z" />
    <glyph glyph-name="uniFE9B" unicode="&#x62b;" horiz-adv-x="799" arabic-form="initial" 
d="M272 220q48 0 89 24t65.5 65t24.5 90v338h207v-363q0 -102 -52 -188t-140.5 -136t-193.5 -50h-272q-41 25 -55.5 67.5t0 85t55.5 67.5h272zM72 997q-1 89 0 185h311q8 -62 8 -96.5t-9 -88.5h-310zM374 997q-9 54 -9 88.5t9 96.5h311v-185h-311zM267 1335v184
q111 -1 222 0q1 -91 0 -184h-222z" />
    <glyph glyph-name="uniFE9C" unicode="&#x62b;" horiz-adv-x="888" arabic-form="medial" 
d="M272 220q48 0 89 24t65.5 65t24.5 90v338h207v-338q0 -49 24 -90t65 -65t89 -24h51v-220h-51q-93 0 -165 43.5t-117 120.5q-45 -77 -117 -120.5t-165 -43.5h-272q-41 25 -55.5 67.5t0 85t55.5 67.5h272zM72 998q-1 89 0 185h311q8 -62 8 -96.5t-9 -88.5h-310zM374 998
q-9 54 -9 88.5t9 96.5h311v-185h-311zM267 1336v184q111 -1 222 0q1 -91 0 -184h-222z" />
    <glyph glyph-name="uniFE9E" unicode="&#x62c;" horiz-adv-x="1493" arabic-form="final" 
d="M1237 292q9 -41 47.5 -56.5t82.5 -15.5h138v-220h-144q-101 0 -179 40t-99 133l-30 141l-452 -187q-140 -59 -203 -153.5t-52 -201.5q4 -65 47.5 -126t115.5 -99.5t157 -38.5h613v-208h-613q-153 0 -273 64.5t-188.5 176.5t-73.5 252q-4 106 41.5 211.5t136.5 189.5
t217 126l666 239q-111 34 -218 85.5t-240 124.5q-65 36 -91 49q-72 36 -136.5 -1.5t-91.5 -108.5l-28 -64l-190 84l28 64q44 107 125 172t180 77t195 -33q124 -60 469 -248q176 -98 184 -98l-8 -222l-150 -66zM731 -231q-1 87 0 172h204q1 -85 0 -172h-204z" />
    <glyph glyph-name="uniFE9F" unicode="&#x62c;" horiz-adv-x="1409" arabic-form="initial" 
d="M241 220q149 0 316.5 41t303.5 93t258 107q-268 118 -532 248q-67 34 -131 5t-97 -115l-26 -57l-190 84l25 57q45 107 125.5 172t179.5 77t195 -33q103 -50 384 -194q130 -67 191 -97.5t67 -30.5l5 -178q-4 -1 -32 -21q-195 -135 -459.5 -256.5t-582.5 -121.5h-241
q-40 25 -55 67.5t0 85t55 67.5h241zM468 -522v199h246v-199h-246z" />
    <glyph glyph-name="uniFEA0" unicode="&#x62c;" horiz-adv-x="1463" arabic-form="medial" 
d="M1159 309l74 -61q42 -28 96 -28h141v-220h-141q-69 0 -129.5 27.5t-90.5 76.5l-94 112zM241 220q149 0 316.5 41t303.5 93t258 107q-268 118 -532 248q-67 34 -131 5t-97 -115l-26 -57l-190 84l25 57q45 107 125.5 172t179.5 77t195 -33q103 -50 384 -194
q130 -67 191 -97.5t67 -30.5l5 -178q-4 -1 -32 -21q-195 -135 -459.5 -256.5t-582.5 -121.5h-241q-40 25 -55 67.5t0 85t55 67.5h241zM468 -522v199h246v-199h-246z" />
    <glyph glyph-name="uniFEA2" unicode="&#x62d;" horiz-adv-x="1493" arabic-form="final" 
d="M1237 292q9 -41 47.5 -56.5t82.5 -15.5h138v-220h-144q-101 0 -179 40t-99 133l-30 141l-452 -187q-140 -59 -203 -153.5t-52 -201.5q4 -65 47.5 -126t115.5 -99.5t157 -38.5h613v-208h-613q-153 0 -273 64.5t-188.5 176.5t-73.5 252q-4 106 41.5 211.5t136.5 189.5
t217 126l666 239q-111 34 -218 85.5t-240 124.5q-65 36 -91 49q-72 36 -136.5 -1.5t-91.5 -108.5l-28 -64l-190 84l28 64q44 107 125 172t180 77t195 -33q124 -60 469 -248q176 -98 184 -98l-8 -222l-150 -66z" />
    <glyph glyph-name="uniFEA3" unicode="&#x62d;" horiz-adv-x="1409" arabic-form="initial" 
d="M241 220q149 0 316.5 41t303.5 93t258 107q-268 118 -532 248q-67 34 -131 5t-97 -115l-26 -57l-190 84l25 57q45 107 125.5 172t179.5 77t195 -33q103 -50 384 -194q130 -67 191 -97.5t67 -30.5l5 -178q-4 -1 -32 -21q-195 -135 -459.5 -256.5t-582.5 -121.5h-241
q-40 25 -55 67.5t0 85t55 67.5h241z" />
    <glyph glyph-name="uniFEA4" unicode="&#x62d;" horiz-adv-x="1463" arabic-form="medial" 
d="M1159 309l74 -61q42 -28 96 -28h141v-220h-141q-69 0 -129.5 27.5t-90.5 76.5l-94 112zM241 220q149 0 316.5 41t303.5 93t258 107q-268 118 -532 248q-67 34 -131 5t-97 -115l-26 -57l-190 84l25 57q45 107 125.5 172t179.5 77t195 -33q103 -50 384 -194
q130 -67 191 -97.5t67 -30.5l5 -178q-4 -1 -32 -21q-195 -135 -459.5 -256.5t-582.5 -121.5h-241q-40 25 -55 67.5t0 85t55 67.5h241z" />
    <glyph glyph-name="uniFEA6" unicode="&#x62e;" horiz-adv-x="1493" arabic-form="final" 
d="M1237 292q9 -41 47.5 -56.5t82.5 -15.5h138v-220h-144q-101 0 -179 40t-99 133l-30 141l-452 -187q-140 -59 -203 -153.5t-52 -201.5q4 -65 47.5 -126t115.5 -99.5t157 -38.5h613v-208h-613q-153 0 -273 64.5t-188.5 176.5t-73.5 252q-4 106 41.5 211.5t136.5 189.5
t217 126l666 239q-111 34 -218 85.5t-240 124.5q-65 36 -91 49q-72 36 -136.5 -1.5t-91.5 -108.5l-28 -64l-190 84l28 64q44 107 125 172t180 77t195 -33q124 -60 469 -248q176 -98 184 -98l-8 -222l-150 -66zM521 1306v199h246v-199h-246z" />
    <glyph glyph-name="uniFEA7" unicode="&#x62e;" horiz-adv-x="1409" arabic-form="initial" 
d="M241 220q149 0 316.5 41t303.5 93t258 107q-268 118 -532 248q-67 34 -131 5t-97 -115l-26 -57l-190 84l25 57q45 107 125.5 172t179.5 77t195 -33q103 -50 384 -194q130 -67 191 -97.5t67 -30.5l5 -178q-4 -1 -32 -21q-195 -135 -459.5 -256.5t-582.5 -121.5h-241
q-40 25 -55 67.5t0 85t55 67.5h241zM447 1193v199h246v-199h-246z" />
    <glyph glyph-name="uniFEA8" unicode="&#x62e;" horiz-adv-x="1463" arabic-form="medial" 
d="M1159 309l74 -61q42 -28 96 -28h141v-220h-141q-69 0 -129.5 27.5t-90.5 76.5l-94 112zM241 220q149 0 316.5 41t303.5 93t258 107q-268 118 -532 248q-67 34 -131 5t-97 -115l-26 -57l-190 84l25 57q45 107 125.5 172t179.5 77t195 -33q103 -50 384 -194
q130 -67 191 -97.5t67 -30.5l5 -178q-4 -1 -32 -21q-195 -135 -459.5 -256.5t-582.5 -121.5h-241q-40 25 -55 67.5t0 85t55 67.5h241zM447 1193v199h246v-199h-246z" />
    <glyph glyph-name="uniFEAA" unicode="&#x62f;" horiz-adv-x="1215" arabic-form="final" 
d="M717 232.5q31 25.5 40.5 62t-6.5 66.5l-310 568l182 100l396 -729q42 -80 140 -80h56v-220h-56q-86 0 -158 40t-121 112l-14 26q-22 -70 -99.5 -124t-184.5 -54h-505v207h568q41 0 72 25.5z" />
    <glyph glyph-name="uniFEAC" unicode="&#x630;" horiz-adv-x="1215" arabic-form="final" 
d="M717 232.5q31 25.5 40.5 62t-6.5 66.5l-310 568l182 100l396 -729q42 -80 140 -80h56v-220h-56q-86 0 -158 40t-121 112l-14 26q-22 -70 -99.5 -124t-184.5 -54h-505v207h568q41 0 72 25.5zM458 1256v199h246v-199h-246z" />
    <glyph glyph-name="uniFEAE" unicode="&#x631;" horiz-adv-x="894" arabic-form="final" 
d="M712 35q-61 35 -104 96v-84q-2 -143 -66 -263t-179 -201t-266 -111l-88 -18l-47 216l103 22q95 18 171.5 73.5t120.5 135t44 169.5v667h207v-303q5 -59 37.5 -108t84.5 -77.5t112 -28.5h52v-220h-52q-69 0 -130 35z" />
    <glyph glyph-name="uniFEB0" unicode="&#x632;" horiz-adv-x="894" arabic-form="final" 
d="M712 35q-61 35 -104 96v-84q-2 -143 -66 -263t-179 -201t-266 -111l-88 -18l-47 216l103 22q95 18 171.5 73.5t120.5 135t44 169.5v667h207v-303q5 -59 37.5 -108t84.5 -77.5t112 -28.5h52v-220h-52q-69 0 -130 35zM382 998v199h246v-199h-246z" />
    <glyph glyph-name="uniFEB2" unicode="&#x633;" horiz-adv-x="2865" arabic-form="final" 
d="M1266 737h207v-341q0 -73 48.5 -124.5t116.5 -51.5h40q72 0 118 51.5t46 127.5v339h207v-339q0 -76 46 -127.5t118 -51.5h40q73 0 118.5 51.5t45.5 127.5v339h207l1 -339q0 -75 52 -127t126 -52h62v-220h-62q-93 0 -165 44.5t-114 117.5q-43 -76 -111 -119t-160 -43h-40
q-88 0 -156.5 44t-111.5 119q-40 -72 -107.5 -117.5t-159.5 -45.5h-40q-52 0 -96 22t-73 59v-47q-9 -150 -76 -280.5t-203.5 -214t-305.5 -83.5h-154q-216 0 -340 82.5t-192 225t-68 279.5q1 164 32.5 289t77.5 250l191 -78q-28 -76 -61 -189.5t-33 -245.5q1 -165 79 -278.5
t314 -114.5h154q110 0 196 49t136 139t50 223v650z" />
    <glyph glyph-name="uniFEB3" unicode="&#x633;" horiz-adv-x="1763" arabic-form="initial" 
d="M85 220q48 0 89 24t65 65t24 90v338h207v-338q0 -74 48.5 -126.5t116.5 -52.5h40q72 0 118 51.5t46 127.5v338h207v-338q0 -76 46 -127.5t118 -51.5h40q73 0 118.5 51.5t45.5 127.5v338h208v-351q0 -106 -48.5 -194.5t-134 -140t-189.5 -51.5h-40q-88 0 -156 43t-112 120
q-43 -77 -111 -120t-156 -43h-40q-88 0 -157 43t-112 119q-44 -76 -116 -119t-165 -43h-85q-41 25 -55.5 67.5t0 85t55.5 67.5h85z" />
    <glyph glyph-name="uniFEB4" unicode="&#x633;" horiz-adv-x="1862" arabic-form="medial" 
d="M85 220q48 0 89 24t65 65t24 90l1 338h207l-1 -338q0 -74 48.5 -126.5t116.5 -52.5h40q72 0 118 51.5t46 127.5v338h207v-338q0 -76 46 -127.5t118 -51.5h40q73 0 118.5 51.5t45.5 127.5l1 338h207v-338q0 -49 24 -90t65 -65t89 -24h62v-220h-62q-92 0 -164 43t-116 118
q-43 -76 -110.5 -118.5t-159.5 -42.5h-40q-88 0 -156 43t-112 120q-43 -77 -111 -120t-156 -43h-40q-88 0 -157 43t-112 119q-44 -76 -116 -119t-165 -43h-85q-41 25 -55.5 67.5t0 85t55.5 67.5h85z" />
    <glyph glyph-name="uniFEB6" unicode="&#x634;" horiz-adv-x="2865" arabic-form="final" 
d="M1266 737h207v-341q0 -73 48.5 -124.5t116.5 -51.5h40q72 0 118 51.5t46 127.5v339h207v-339q0 -76 46 -127.5t118 -51.5h40q73 0 118.5 51.5t45.5 127.5v339h207l1 -339q0 -75 52 -127t126 -52h62v-220h-62q-93 0 -165 44.5t-114 117.5q-43 -76 -111 -119t-160 -43h-40
q-88 0 -156.5 44t-111.5 119q-40 -72 -107.5 -117.5t-159.5 -45.5h-40q-52 0 -96 22t-73 59v-47q-9 -150 -76 -280.5t-203.5 -214t-305.5 -83.5h-154q-216 0 -340 82.5t-192 225t-68 279.5q1 164 32.5 289t77.5 250l191 -78q-28 -76 -61 -189.5t-33 -245.5q1 -165 79 -278.5
t314 -114.5h154q110 0 196 49t136 139t50 223v650zM1640 998q-1 89 0 185h311q8 -62 8 -96.5t-9 -88.5h-310zM1942 998q-9 54 -9 88.5t9 96.5h311v-185h-311zM1835 1336v184q111 -1 222 0q1 -91 0 -184h-222z" />
    <glyph glyph-name="uniFEB7" unicode="&#x634;" horiz-adv-x="1763" arabic-form="initial" 
d="M85 220q48 0 89 24t65 65t24 90v338h207v-338q0 -74 48.5 -126.5t116.5 -52.5h40q72 0 118 51.5t46 127.5v338h207v-338q0 -76 46 -127.5t118 -51.5h40q73 0 118.5 51.5t45.5 127.5v338h208v-351q0 -106 -48.5 -194.5t-134 -140t-189.5 -51.5h-40q-88 0 -156 43t-112 120
q-43 -77 -111 -120t-156 -43h-40q-88 0 -157 43t-112 119q-44 -76 -116 -119t-165 -43h-85q-41 25 -55.5 67.5t0 85t55.5 67.5h85zM636 998q-1 89 0 185h311q8 -62 8 -96.5t-9 -88.5h-310zM938 998q-9 54 -9 88.5t9 96.5h311v-185h-311zM831 1336v184q111 -1 222 0
q1 -91 0 -184h-222z" />
    <glyph glyph-name="uniFEB8" unicode="&#x634;" horiz-adv-x="1862" arabic-form="medial" 
d="M85 220q48 0 89 24t65 65t24 90l1 338h207l-1 -338q0 -74 48.5 -126.5t116.5 -52.5h40q72 0 118 51.5t46 127.5v338h207v-338q0 -76 46 -127.5t118 -51.5h40q73 0 118.5 51.5t45.5 127.5l1 338h207v-338q0 -49 24 -90t65 -65t89 -24h62v-220h-62q-92 0 -164 43t-116 118
q-43 -76 -110.5 -118.5t-159.5 -42.5h-40q-88 0 -156 43t-112 120q-43 -77 -111 -120t-156 -43h-40q-88 0 -157 43t-112 119q-44 -76 -116 -119t-165 -43h-85q-41 25 -55.5 67.5t0 85t55.5 67.5h85zM636 998q-1 89 0 185h311q8 -62 8 -96.5t-9 -88.5h-310zM938 998
q-9 54 -9 88.5t9 96.5h311v-185h-311zM831 1336v184q111 -1 222 0q1 -91 0 -184h-222z" />
    <glyph glyph-name="uniFEBA" unicode="&#x635;" horiz-adv-x="2905" arabic-form="final" 
d="M2217 220q107 0 183 73.5t76 179.5q0 120 -67.5 191t-181.5 63q-127 -8 -221 -152.5t-140.5 -244t-53.5 -110.5h405zM1265 737h208l1 -353q-1 -59 39.5 -106.5t112.5 -56.5q69 237 213.5 470.5t380.5 242.5q157 5 261.5 -64.5t153 -177.5t48.5 -219q0 -94 -38 -179
q61 -37 116.5 -55.5t122.5 -18.5h21v-220h-21q-103 0 -181 33.5t-170 96.5q-51 -53 -129.5 -91.5t-186.5 -38.5h-501q-80 0 -141.5 32t-102.5 81v-49q-5 -167 -75.5 -304t-207 -220.5t-305.5 -83.5h-154q-216 0 -340 82.5t-192 225t-68 279.5q1 164 32.5 289t77.5 250
l191 -78q-28 -76 -61 -189.5t-33 -245.5q1 -165 79 -278.5t314 -114.5h154q110 0 196 49t135.5 137t50.5 213z" />
    <glyph glyph-name="uniFEBB" unicode="&#x635;" horiz-adv-x="1778" arabic-form="initial" 
d="M1182 220q70 0 129.5 33.5t94.5 91t35 128.5q0 120 -67.5 190.5t-181.5 63.5q-82 -6 -155.5 -79.5t-124.5 -162.5t-104 -202q-23 -48 -31 -63h405zM53 220q49 0 90 24t65 65t24 90v338h207v-351q0 -59 40.5 -107t111.5 -58q37 124 106 278t194.5 291.5t293.5 143.5
q157 5 261.5 -64.5t153 -177.5t48.5 -219q0 -125 -61 -234t-167.5 -174t-237.5 -65h-564q-94 0 -166 43.5t-117 120.5q-44 -77 -116 -120.5t-166 -43.5h-53q-40 25 -55 67.5t0 85t55 67.5h53z" />
    <glyph glyph-name="uniFEBC" unicode="&#x635;" horiz-adv-x="1870" arabic-form="medial" 
d="M1182 220q70 0 129.5 33.5t94.5 91t35 128.5q0 120 -67.5 190.5t-181.5 63.5q-82 -6 -155.5 -79.5t-124.5 -162.5t-104 -202q-23 -48 -31 -63h405zM53 220q49 0 90 24t65 65t24 90v338h207v-351q0 -59 40.5 -107t111.5 -58q37 124 106 278t194.5 291.5t293.5 143.5
q157 5 261.5 -64.5t153 -177.5t48.5 -219q0 -94 -37 -179q70 -38 121 -56t118 -18h20v-220h-21q-102 0 -180 33.5t-170 96.5q-62 -62 -143 -96t-174 -34h-564q-94 0 -166 43.5t-117 120.5q-44 -77 -116 -120.5t-166 -43.5h-53q-40 25 -55 67.5t0 85t55 67.5h53z" />
    <glyph glyph-name="uniFEBE" unicode="&#x636;" horiz-adv-x="2905" arabic-form="final" 
d="M2217 220q107 0 183 73.5t76 179.5q0 120 -67.5 191t-181.5 63q-127 -8 -221 -152.5t-140.5 -244t-53.5 -110.5h405zM1265 737h208l1 -353q-1 -59 39.5 -106.5t112.5 -56.5q69 237 213.5 470.5t380.5 242.5q157 5 261.5 -64.5t153 -177.5t48.5 -219q0 -94 -38 -179
q61 -37 116.5 -55.5t122.5 -18.5h21v-220h-21q-103 0 -181 33.5t-170 96.5q-51 -53 -129.5 -91.5t-186.5 -38.5h-501q-80 0 -141.5 32t-102.5 81v-49q-5 -167 -75.5 -304t-207 -220.5t-305.5 -83.5h-154q-216 0 -340 82.5t-192 225t-68 279.5q1 164 32.5 289t77.5 250
l191 -78q-28 -76 -61 -189.5t-33 -245.5q1 -165 79 -278.5t314 -114.5h154q110 0 196 49t135.5 137t50.5 213zM2056 1191v199h246v-199h-246z" />
    <glyph glyph-name="uniFEBF" unicode="&#x636;" horiz-adv-x="1778" arabic-form="initial" 
d="M1182 220q70 0 129.5 33.5t94.5 91t35 128.5q0 120 -67.5 190.5t-181.5 63.5q-82 -6 -155.5 -79.5t-124.5 -162.5t-104 -202q-23 -48 -31 -63h405zM53 220q49 0 90 24t65 65t24 90v338h207v-351q0 -59 40.5 -107t111.5 -58q37 124 106 278t194.5 291.5t293.5 143.5
q157 5 261.5 -64.5t153 -177.5t48.5 -219q0 -125 -61 -234t-167.5 -174t-237.5 -65h-564q-94 0 -166 43.5t-117 120.5q-44 -77 -116 -120.5t-166 -43.5h-53q-40 25 -55 67.5t0 85t55 67.5h53zM1020 1191v199h246v-199h-246z" />
    <glyph glyph-name="uniFEC0" unicode="&#x636;" horiz-adv-x="1870" arabic-form="medial" 
d="M1182 220q70 0 129.5 33.5t94.5 91t35 128.5q0 120 -67.5 190.5t-181.5 63.5q-82 -6 -155.5 -79.5t-124.5 -162.5t-104 -202q-23 -48 -31 -63h405zM53 220q49 0 90 24t65 65t24 90v338h207v-351q0 -59 40.5 -107t111.5 -58q37 124 106 278t194.5 291.5t293.5 143.5
q157 5 261.5 -64.5t153 -177.5t48.5 -219q0 -94 -37 -179q70 -38 121 -56t118 -18h20v-220h-21q-102 0 -180 33.5t-170 96.5q-62 -62 -143 -96t-174 -34h-564q-94 0 -166 43.5t-117 120.5q-44 -77 -116 -120.5t-166 -43.5h-53q-40 25 -55 67.5t0 85t55 67.5h53zM1020 1191
v199h246v-199h-246z" />
    <glyph glyph-name="uniFEC2" unicode="&#x637;" horiz-adv-x="1639" arabic-form="final" 
d="M1618 0q-98 0 -172.5 30t-171.5 89l-9 6q-62 -59 -142 -92t-171 -33h-810v220h202q1 2 4 14q16 50 31 89v1183h207v-523l-4 -348q83 135 174 215t199 84q157 5 261.5 -64.5t153 -177.5t48.5 -219q0 -97 -40 -184q4 -2 12 -5q71 -34 119 -49t110 -15h20v-220h-21z
M1081.5 253.5q59.5 33.5 94.5 91t35 128.5q0 120 -67.5 190.5t-181.5 63.5q-82 -6 -155.5 -79.5t-124.5 -162.5t-104 -202q-23 -48 -31 -63h405q70 0 129.5 33.5z" />
    <glyph glyph-name="uniFEC3" unicode="&#x637;" horiz-adv-x="1446" arabic-form="initial" 
d="M649.5 850q91.5 80 198.5 84q158 5 262 -64.5t153 -177.5t49 -219q0 -125 -61 -234t-168 -174t-238 -65h-845q-40 25 -54.5 67.5t0 85t54.5 67.5h237q1 2 4 14q16 50 31 89l1 1183h207v-523l-4 -348q82 135 173.5 215zM974.5 253.5q59.5 33.5 95 91t35.5 128.5
q0 120 -67.5 190.5t-181.5 63.5q-83 -6 -156.5 -79.5t-124 -162.5t-104.5 -202q-22 -48 -30 -63h404q70 0 129.5 33.5z" />
    <glyph glyph-name="uniFEC4" unicode="&#x637;" horiz-adv-x="1532" arabic-form="medial" 
d="M1532 220v-220h-21q-98 0 -172.5 30t-171.5 89l-9 6q-62 -59 -142 -92t-171 -33h-845q-40 25 -54.5 67.5t0 85t54.5 67.5h237q1 2 4 14q16 50 31 89l1 1183h207v-523l-4 -348q82 135 173.5 215t198.5 84q158 5 262 -64.5t153 -177.5t49 -219q0 -97 -41 -184q4 -2 12 -5
q71 -34 118.5 -49t110.5 -15h20zM1037.5 663.5q-67.5 70.5 -181.5 63.5q-83 -6 -156.5 -79.5t-124 -162.5t-104.5 -202q-22 -48 -30 -63h404q70 0 129.5 33.5t95 91t35.5 128.5q0 120 -67.5 190.5z" />
    <glyph glyph-name="uniFEC6" unicode="&#x638;" horiz-adv-x="1608" arabic-form="final" 
d="M1618 0q-98 0 -172.5 30t-171.5 89l-9 6q-62 -59 -142 -92t-171 -33h-810v220h202q1 2 4 14q16 50 31 89v1183h207v-523l-4 -348q83 135 174 215t199 84q157 5 261.5 -64.5t153 -177.5t48.5 -219q0 -97 -40 -184q4 -2 12 -5q71 -34 119 -49t110 -15h20v-220h-21z
M1081.5 253.5q59.5 33.5 94.5 91t35 128.5q0 120 -67.5 190.5t-181.5 63.5q-82 -6 -155.5 -79.5t-124.5 -162.5t-104 -202q-23 -48 -31 -63h405q70 0 129.5 33.5zM898 1180v199h246v-199h-246z" />
    <glyph glyph-name="uniFEC7" unicode="&#x638;" horiz-adv-x="1444" arabic-form="initial" 
d="M649.5 850q91.5 80 198.5 84q158 5 262 -64.5t153 -177.5t49 -219q0 -125 -61 -234t-168 -174t-238 -65h-845q-40 25 -54.5 67.5t0 85t54.5 67.5h237q1 2 4 14q16 50 31 89l1 1183h207v-523l-4 -348q82 135 173.5 215zM974.5 253.5q59.5 33.5 95 91t35.5 128.5
q0 120 -67.5 190.5t-181.5 63.5q-83 -6 -156.5 -79.5t-124 -162.5t-104.5 -202q-22 -48 -30 -63h404q70 0 129.5 33.5zM804 1180v199h246v-199h-246z" />
    <glyph glyph-name="uniFEC8" unicode="&#x638;" horiz-adv-x="1501" arabic-form="medial" 
d="M1532 220v-220h-21q-98 0 -172.5 30t-171.5 89l-9 6q-62 -59 -142 -92t-171 -33h-845q-40 25 -54.5 67.5t0 85t54.5 67.5h237q1 2 4 14q16 50 31 89l1 1183h207v-523l-4 -348q82 135 173.5 215t198.5 84q158 5 262 -64.5t153 -177.5t49 -219q0 -97 -41 -184q4 -2 12 -5
q71 -34 118.5 -49t110.5 -15h20zM1037.5 663.5q-67.5 70.5 -181.5 63.5q-83 -6 -156.5 -79.5t-124 -162.5t-104.5 -202q-22 -48 -30 -63h404q70 0 129.5 33.5t95 91t35.5 128.5q0 120 -67.5 190.5zM804 1180v199h246v-199h-246z" />
    <glyph glyph-name="uniFECA" unicode="&#x639;" horiz-adv-x="1390" arabic-form="final" 
d="M660 -696q-152 0 -276.5 60.5t-194.5 169.5t-63 247q9 279 403 450l-334 490l76 191h679q79 0 140.5 -41t92 -107.5t22.5 -140t-59 -133.5l-231 -252q27 -12 65 -15t132 -3h278v-220h-315q-106 0 -164 5.5t-108 27t-101 68.5q-10 -5 -53 -23q-35 -15 -48 -21
q-86 -48 -139.5 -84.5t-89 -84t-39.5 -107.5q-5 -81 37 -139.5t117.5 -88.5t172.5 -30h476v-219h-476zM719 276l275 308q21 26 20.5 55t-20.5 48t-53 19h-523z" />
    <glyph glyph-name="uniFECB" unicode="&#x639;" horiz-adv-x="1125" arabic-form="initial" 
d="M305 220q-48 36 -77 103t-29 132q0 122 51 226t141.5 169t203.5 74q96 8 190 -20.5t172 -78.5l-52 -203q-76 52 -151.5 76t-137.5 20q-95 -6 -152.5 -85.5t-57.5 -177.5q0 -57 26 -110t74.5 -87t113.5 -38q73 -7 186.5 5t179.5 39v-208q-67 -27 -172 -41t-194 -15h-620
q-41 25 -55.5 67.5t0 85t55.5 67.5h305z" />
    <glyph glyph-name="uniFECC" unicode="&#x639;" horiz-adv-x="1351" arabic-form="medial" 
d="M681 260l274 300q21 26 20.5 54.5t-20.5 48t-53 19.5h-522zM363 220q40 0 71.5 5t37.5 15l-316 458l77 189h679q79 0 140 -41t92 -107t23 -139.5t-59 -134.5l-212 -226q9 -9 42 -14t73 -5h340v-220h-383q-95 0 -156 12.5t-91 27.5t-50 32q-21 -17 -50 -32t-90.5 -27.5
t-156.5 -12.5h-374q-40 25 -55 67.5t0 85t55 67.5h363z" />
    <glyph glyph-name="uniFECE" unicode="&#x63a;" horiz-adv-x="1378" arabic-form="final" 
d="M660 -696q-152 0 -276.5 60.5t-194.5 169.5t-63 247q9 279 403 450l-334 490l76 191h679q79 0 140.5 -41t92 -107.5t22.5 -140t-59 -133.5l-231 -252q27 -12 65 -15t132 -3h278v-220h-315q-106 0 -164 5.5t-108 27t-101 68.5q-10 -5 -53 -23q-35 -15 -48 -21
q-86 -48 -139.5 -84.5t-89 -84t-39.5 -107.5q-5 -81 37 -139.5t117.5 -88.5t172.5 -30h476v-219h-476zM719 276l275 308q21 26 20.5 55t-20.5 48t-53 19h-523zM599 1209v199h246v-199h-246z" />
    <glyph glyph-name="uniFECF" unicode="&#x63a;" horiz-adv-x="1125" arabic-form="initial" 
d="M305 220q-48 36 -77 103t-29 132q0 122 51 226t141.5 169t203.5 74q96 8 190 -20.5t172 -78.5l-52 -203q-76 52 -151.5 76t-137.5 20q-95 -6 -152.5 -85.5t-57.5 -177.5q0 -57 26 -110t74.5 -87t113.5 -38q73 -7 186.5 5t179.5 39v-208q-67 -27 -172 -41t-194 -15h-620
q-41 25 -55.5 67.5t0 85t55.5 67.5h305zM479 1181v199h246v-199h-246z" />
    <glyph glyph-name="uniFED0" unicode="&#x63a;" horiz-adv-x="1351" arabic-form="medial" 
d="M681 260l274 300q21 26 20.5 54.5t-20.5 48t-53 19.5h-522zM363 220q40 0 71.5 5t37.5 15l-316 458l77 189h679q79 0 140 -41t92 -107t23 -139.5t-59 -134.5l-212 -226q9 -9 42 -14t73 -5h340v-220h-383q-95 0 -156 12.5t-91 27.5t-50 32q-21 -17 -50 -32t-90.5 -27.5
t-156.5 -12.5h-374q-40 25 -55 67.5t0 85t55 67.5h363zM557 1154v199h246v-199h-246z" />
    <glyph glyph-name="uniFED2" unicode="&#x641;" horiz-adv-x="1995" arabic-form="final" 
d="M1301 736.5q-50 -22.5 -82 -70t-32 -116.5q0 -112 70.5 -199t148.5 -139q78 52 148.5 139t70.5 199q0 69 -32 116.5t-82.5 70t-104.5 22.5q-55 0 -105 -22.5zM546 220h605q-62 54 -113 142.5t-51 184.5q0 118 55.5 212t151.5 146.5t212 52.5t211.5 -52.5t151 -146.5
t55.5 -212q0 -96 -51 -184.5t-113 -142.5h336v-220h-379q-91 0 -145 15t-66 31q-13 -16 -67 -31t-145 -15h-651zM361.5 368.5q17.5 -66.5 67 -107.5t122.5 -41l-2 -220q-132 0 -235 74.5t-147 200.5t-8 274l55 218l207 -58l-58 -201q-19 -73 -1.5 -139.5zM1266 1200v199h246
v-199h-246z" />
    <glyph glyph-name="uniFED3" unicode="&#x641;" horiz-adv-x="1119" arabic-form="initial" 
d="M766 377.5q22 93.5 22 181.5q0 74 -31 126t-80.5 77.5t-103.5 25.5q-87 -1 -149.5 -60.5t-65.5 -149.5q1 -60 32.5 -126.5t106.5 -120.5t195 -72q52 25 74 118.5zM-55 67.5q-15 42.5 0 85t55 67.5h178q216 0 262 6q-100 18 -163 77.5t-90.5 133t-27.5 137.5
q-1 111 56 206t152.5 150.5t205.5 54.5q112 0 207 -54.5t151 -152.5t56 -221q0 -177 -49 -302.5t-136.5 -190t-200.5 -64.5h-601q-40 25 -55 67.5zM450 1228v199h246v-199h-246z" />
    <glyph glyph-name="uniFED4" unicode="&#x641;" horiz-adv-x="1180" arabic-form="medial" 
d="M485 736.5q-50 -22.5 -82 -70t-32 -116.5q0 -112 70.5 -199t148.5 -139q78 53 148.5 139.5t70.5 198.5q0 69 -32 116.5t-82 70t-105 22.5t-105 -22.5zM335 220q-61 54 -112 142.5t-51 184.5q0 118 55.5 212t151 146.5t211.5 52.5t211.5 -52.5t151 -146.5t55.5 -212
q0 -96 -51 -184.5t-112 -142.5h335v-220h-379q-90 0 -144 15t-67 31q-13 -16 -66.5 -31t-144.5 -15h-379q-41 25 -55.5 67.5t0 85t55.5 67.5h335zM467 1200v199h246v-199h-246z" />
    <glyph glyph-name="uniFED6" unicode="&#x642;" horiz-adv-x="1770" arabic-form="final" 
d="M1378 430q0 103 -48.5 179.5t-160.5 76.5q-107 0 -161 -75.5t-54 -180.5q0 -110 49 -161t166 -51h209v212zM1572 220h209v-220h-211q-1 -149 -78 -272t-212 -197t-316 -74l-234 -1q-216 0 -339.5 82.5t-191.5 225t-68 279.5q0 177 27.5 295.5t73.5 243.5l191 -78
q-28 -76 -56.5 -183.5t-28.5 -251.5q1 -165 78.5 -284t313.5 -120h243q197 0 298 91t105 244h-230q-206 0 -299 111t-93 321q0 133 54.5 235t148 160t212.5 58q180 0 291.5 -126.5t111.5 -326.5v-212zM840 1122q-1 82 0 185h310q9 -64 9 -98.5t-9 -86.5h-310zM1142 1122
q-9 52 -9 86.5t9 98.5h310q1 -101 0 -185h-310z" />
    <glyph glyph-name="uniFED7" unicode="&#x642;" horiz-adv-x="1119" arabic-form="initial" 
d="M766 377.5q22 93.5 22 181.5q0 74 -31 126t-80.5 77.5t-103.5 25.5q-87 -1 -149.5 -60.5t-65.5 -149.5q1 -60 32.5 -126.5t106.5 -120.5t195 -72q52 25 74 118.5zM-55 67.5q-15 42.5 0 85t55 67.5h178q216 0 262 6q-100 18 -163 77.5t-90.5 133t-27.5 137.5
q-1 111 56 206t152.5 150.5t205.5 54.5q112 0 207 -54.5t151 -152.5t56 -221q0 -177 -49 -302.5t-136.5 -190t-200.5 -64.5h-601q-40 25 -55 67.5zM267 1228q-1 82 0 185h310q9 -64 9 -98.5t-9 -86.5h-310zM569 1228q-9 52 -9 86.5t9 98.5h310q1 -101 0 -185h-310z" />
    <glyph glyph-name="uniFED8" unicode="&#x642;" horiz-adv-x="1180" arabic-form="medial" 
d="M485 736.5q-50 -22.5 -82 -70t-32 -116.5q0 -112 70.5 -199t148.5 -139q78 53 148.5 139.5t70.5 198.5q0 69 -32 116.5t-82 70t-105 22.5t-105 -22.5zM335 220q-61 54 -112 142.5t-51 184.5q0 118 55.5 212t151 146.5t211.5 52.5t211.5 -52.5t151 -146.5t55.5 -212
q0 -96 -51 -184.5t-112 -142.5h335v-220h-379q-90 0 -144 15t-67 31q-13 -16 -66.5 -31t-144.5 -15h-379q-41 25 -55.5 67.5t0 85t55.5 67.5h335zM284 1215q-1 82 0 185h310q9 -64 9 -98.5t-9 -86.5h-310zM586 1215q-9 52 -9 86.5t9 98.5h310q1 -101 0 -185h-310z" />
    <glyph glyph-name="uniFEDA" unicode="&#x643;" horiz-adv-x="1952" arabic-form="final" 
d="M525 96q1 67 21 124h769q49 0 90 24t65 65t24 90v1109h207v-1109q0 -49 24 -90t65 -65t90 -24h71v-220h-71q-94 0 -166 43.5t-116 120.5q-45 -77 -117 -120.5t-166 -43.5h-766q-25 29 -24 96zM361.5 368.5q17.5 -66.5 67 -107.5t122.5 -41l-2 -220q-132 0 -235 74.5
t-147 200.5t-8 274l55 218l207 -58l-58 -201q-19 -73 -1.5 -139.5zM741 598l119 48q-50 18 -83.5 68.5t-33.5 107.5q0 60 28.5 112t81 84t120.5 32q41 0 75 -10.5t73 -30.5l-29 -98q-68 32 -120 32q-51 -1 -86.5 -37t-35.5 -84q0 -49 36.5 -84.5t92.5 -45.5l194 77v-115
l-432 -172v116z" />
    <glyph glyph-name="uniFEDB" unicode="&#x643;" horiz-adv-x="1094" arabic-form="initial" 
d="M608 220q52 0 86.5 35.5t36 84.5t-34.5 87l-558 583v208l782 312l72 -193l-635 -258l502 -522q72 -76 86.5 -172t-23.5 -184.5t-118 -144.5t-185 -56h-619q-40 25 -55 67.5t0 85t55 67.5h608z" />
    <glyph glyph-name="uniFEDC" unicode="&#x643;" horiz-adv-x="1275" arabic-form="medial" 
d="M608 220q52 0 86 34.5t36.5 82.5t-30.5 87l-562 586v208l782 312l72 -193l-635 -258l785 -821q18 -19 45 -28.5t57 -9.5h31v-220h-31q-68 0 -130 26.5t-109 76.5l-124 129q-20 -95 -107 -163.5t-218 -68.5h-556q-40 25 -55 67.5t0 85t55 67.5h608z" />
    <glyph glyph-name="uniFEDE" unicode="&#x644;" horiz-adv-x="1700" arabic-form="final" 
d="M1462 394q1 -72 53 -123.5t126 -51.5h59v-220h-59q-53 0 -103.5 28t-77.5 70zM730 -544q-216 0 -339.5 82.5t-191.5 225t-68 279.5q0 164 31.5 289t77.5 250l192 -78q-28 -76 -61 -189.5t-33 -245.5q1 -165 78.5 -278.5t313.5 -114.5h143q110 0 196 49t136 139t50 223
v1419h207v-1407q1 -188 -72.5 -332t-210.5 -227.5t-306 -83.5h-143z" />
    <glyph glyph-name="uniFEDF" unicode="&#x644;" horiz-adv-x="682" arabic-form="initial" 
d="M112 220q48 0 89 24t65 65t24 90l1 1107h207v-1120q0 -105 -52 -193.5t-140.5 -140.5t-193.5 -52h-112q-41 25 -55.5 67.5t0 85t55.5 67.5h112z" />
    <glyph glyph-name="uniFEE0" unicode="&#x644;" horiz-adv-x="736" arabic-form="medial" 
d="M112 220q48 0 89 24t65 65t24 90l1 1107h207v-1107q0 -49 24 -90t65 -65t89 -24h60v-220h-60q-93 0 -165 43.5t-117 120.5q-45 -77 -117 -120.5t-165 -43.5h-112q-41 25 -55.5 67.5t0 85t55.5 67.5h112z" />
    <glyph glyph-name="uniFEE2" unicode="&#x645;" horiz-adv-x="1588" arabic-form="final" 
d="M1588 221v-220h-60q-89 0 -160 43t-119 126l100 285q-2 -112 49 -173t130 -61h60zM1092 248.5q34 30.5 46.5 84.5t11.5 134q-1 64 -24 124t-68 99t-110 39q-92 0 -145.5 -75t-76.5 -204q-21 -97 -42 -177q56 -24 137 -39.5t175 -15.5q62 0 96 30.5zM669.5 803.5
q104.5 123.5 279.5 124.5q113 0 203 -61t142 -166.5t55 -233.5q3 -131 -36.5 -235t-120.5 -164t-196 -60q-187 0 -338 48q-74 25 -112.5 50.5t-68.5 56.5q-17 17 -25 22l71 283q42 212 146.5 335.5zM628 269l-33 -189l-246 101v-91v-718h-207v897l139 139z" />
    <glyph glyph-name="uniFEE3" unicode="&#x645;" horiz-adv-x="1207" arabic-form="initial" 
d="M848.5 276.5q33.5 74.5 31.5 200.5q-2 100 -52.5 173t-143.5 73q-182 1 -228 -263q-2 -13 -11 -57q-11 -54 -12 -62q142 -139 294 -139q88 0 121.5 74.5zM399 797q109 124 286 125q111 0 199.5 -60t140 -164.5t54.5 -232.5q3 -131 -36.5 -238.5t-120.5 -171t-196 -63.5
q-106 0 -216 53t-174 122q-3 -8 -8 -16q-35 -58 -99.5 -104.5t-149.5 -46.5h-79q-40 25 -55 67.5t0 85t55 67.5h79q72 0 108.5 61t56.5 141l7 32q39 219 148 343z" />
    <glyph glyph-name="uniFEE4" unicode="&#x645;" horiz-adv-x="1314" arabic-form="medial" 
d="M1314 220v-220h-60q-90 0 -159.5 43.5t-112.5 124.5l97 286q-4 -112 46 -173t129 -61h60zM848.5 276.5q33.5 74.5 31.5 200.5q-2 100 -52.5 173t-143.5 73q-182 1 -228 -263q-2 -13 -11 -57q-11 -54 -12 -62q142 -139 294 -139q88 0 121.5 74.5zM399 797q109 124 286 125
q111 0 199.5 -60t140 -164.5t54.5 -232.5q3 -131 -36.5 -238.5t-120.5 -171t-196 -63.5q-106 0 -216 53t-174 122q-3 -8 -8 -16q-35 -58 -99.5 -104.5t-149.5 -46.5h-79q-40 25 -55 67.5t0 85t55 67.5h79q72 0 108.5 61t56.5 141l7 32q39 219 148 343z" />
    <glyph glyph-name="uniFEE6" unicode="&#x646;" horiz-adv-x="1711" arabic-form="final" 
d="M1473 394q2 -72 53.5 -123.5t125.5 -51.5h59v-220h-59q-52 0 -102.5 28t-78.5 70zM730 -544q-216 0 -339.5 82.5t-191.5 225t-68 279.5q0 164 31.5 289t77.5 250l192 -78q-28 -76 -61 -189.5t-33 -245.5q1 -165 78.5 -278.5t313.5 -114.5h155q110 0 196 49t135.5 139
t49.5 223v650h208v-638q0 -188 -73.5 -332t-210.5 -227.5t-305 -83.5h-155zM678 702v199h246v-199h-246z" />
    <glyph glyph-name="uniFEE7" unicode="&#x646;" horiz-adv-x="706" arabic-form="initial" 
d="M178 220q48 0 89 24t65 65t24 90v338h207v-363q0 -102 -51.5 -188t-140 -136t-193.5 -50h-178q-41 25 -55.5 67.5t0 85t55.5 67.5h178zM222 997v199h246v-199h-246z" />
    <glyph glyph-name="uniFEE8" unicode="&#x646;" horiz-adv-x="801" arabic-form="medial" 
d="M178 220q48 0 89 24t65 65t24 90v338h207v-338q0 -49 24.5 -90t65.5 -65t89 -24h59v-220h-59q-93 0 -165.5 43.5t-116.5 120.5q-45 -77 -117 -120.5t-165 -43.5h-178q-41 25 -55.5 67.5t0 85t55.5 67.5h178zM222 998v199h246v-199h-246z" />
    <glyph glyph-name="uniFEEA" unicode="&#x647;" horiz-adv-x="1214" arabic-form="final" 
d="M606.5 92.5q-123.5 -25.5 -230 4.5t-174 106.5t-74.5 187.5q-11 154 52.5 280.5t193.5 203.5t313 88l-24 168l206 29l118 -811q8 -56 50.5 -92.5t98.5 -36.5h78v-220h-77q-95 0 -173 51.5t-121 149.5q-113 -83 -236.5 -108.5zM418 674q-101 -97 -92 -260
q6 -69 72.5 -109.5t170.5 -27.5t213 91l-60 408q-203 -5 -304 -102z" />
    <glyph glyph-name="uniFEEB" unicode="&#x647;" horiz-adv-x="1665" arabic-form="initial" 
d="M482 732.5q-49 -22.5 -80 -69t-31 -113.5q0 -112 69.5 -199.5t145.5 -138.5q76 51 145.5 138.5t69.5 199.5q0 67 -31.5 113.5t-80.5 69t-103 22.5q-55 0 -104 -22.5zM652 15q-54 15 -66 31q-13 -16 -67 -31t-144 -15h-375q-41 25 -55.5 67.5t0 85t55.5 67.5h331
q-60 53 -109.5 141.5t-49.5 185.5q0 117 54.5 209.5t149 145t210.5 52.5q115 0 210 -52.5t149.5 -145t54.5 -209.5q0 -97 -49.5 -185.5t-110.5 -141.5h342q57 0 94.5 36.5t42 89.5t-29.5 96l-358 471l157 120l383 -504q61 -80 67 -173t-36 -174.5t-120 -131.5t-174 -50h-411
q-91 0 -145 15z" />
    <glyph glyph-name="uniFEEC" unicode="&#x647;" horiz-adv-x="1308" arabic-form="medial" 
d="M551 219q84 0 142.5 35.5t88.5 95t30 130.5q0 106 -54 174.5t-167 69.5q-107 0 -163.5 -78.5t-56.5 -202.5l1 -224h179zM173 220l-1 224q1 131 51.5 241t146 174.5t224.5 62.5q129 -1 222.5 -57t143.5 -155t51 -229q1 -131 -56 -238.5t-161.5 -169.5t-240.5 -62h-173
q0 -165 79 -250.5t248 -85.5h38l97 207q40 86 108.5 164t152.5 126t166 48h39v-220h-39q-72 0 -152 -64.5t-144 -188.5l-134 -273h-103q-268 2 -415.5 141.5t-147.5 384.5h-173q-40 25 -55 67.5t0 85t55 67.5h173z" />
    <glyph glyph-name="uniFEEE" unicode="&#x648;" horiz-adv-x="1141" arabic-form="final" 
d="M647 -204.5q93 85.5 97 204.5h-219q-205 0 -298 111.5t-93 320.5q0 129 53.5 232.5t148.5 162t212 58.5q119 0 210.5 -57.5t142 -161t50.5 -234.5v-212h190v-220h-191q-7 -140 -72.5 -254.5t-179 -185.5t-258.5 -85l-339 -29l-14 216l321 30q146 18 239 103.5zM757 430
q0 102 -48.5 179t-160.5 77q-72 0 -120.5 -37t-71 -95.5t-22.5 -123.5q0 -111 49 -161.5t165 -50.5h209v212z" />
    <glyph glyph-name="uniFEF2" unicode="&#x64a;" horiz-adv-x="1731" arabic-form="final" 
d="M729 -544q-216 0 -340 82.5t-189 224.5t-65 280q1 176 25 294.5t70 243.5l192 -78q-28 -76 -54 -183t-26 -251q1 -165 75 -283.5t304 -120.5h241q155 0 255 59t100 184q0 48 -29.5 76t-74.5 29h-435v207h953v-220h-245q33 -32 33 -85q-1 -117 -62 -220t-186.5 -171
t-308.5 -68h-233zM503 -974q-1 90 0 186h310q9 -60 9 -94.5t-9 -91.5h-310zM805 -974q-9 57 -9 91.5t9 94.5h310q1 -95 0 -186h-310z" />
    <glyph glyph-name=".notdef" horiz-adv-x="1300" 
d="M1179 0h-1058v1400h1058v-1400zM307 1214v-1028h686v1028h-686z" />
    <glyph glyph-name=".null" 
 />
    <glyph glyph-name="uni000D" unicode="&#xd;" 
 />
    <glyph glyph-name="space" unicode=" " horiz-adv-x="462" 
 />
    <glyph glyph-name="exclam" unicode="!" horiz-adv-x="517" 
d="M156 358q-5 184 -9.5 363.5t-4.5 361.5v360h234v-360q0 -182 -4 -361.5t-9 -363.5h-207zM134 0v179h248v-179h-248z" />
    <glyph glyph-name="quotedbl" unicode="&#x22;" horiz-adv-x="752" 
d="M451 1023v420h203l-29 -420h-174zM97 1023v420h204l-30 -420h-174z" />
    <glyph glyph-name="numbersign" unicode="#" horiz-adv-x="1568" 
d="M163 0l121 388h-187v159h237l108 347h-243v161h294l123 388h205l-124 -388h386l122 388h205l-124 -388h184v-161h-234l-110 -347h242v-159h-292l-121 -388h-202l121 388h-387l-121 -388h-203zM537 547h386l108 347h-384z" />
    <glyph glyph-name="dollar" unicode="$" horiz-adv-x="1239" 
d="M699 156q49 5 91.5 20.5t74 42t49.5 66.5t18 94q0 57 -19 95.5t-51 64t-74.5 43t-88.5 34.5v-460zM306 1061q0 -54 20 -89t52 -59t72.5 -40t82.5 -31v442q-51 -7 -93 -21.5t-71.5 -40.5t-46 -65.5t-16.5 -95.5zM138 47v177q98 -37 200 -56t208 -22v516q-84 27 -163.5 53
t-141 68.5t-99 109.5t-37.5 173q0 98 36 169.5t96 119t140 73t169 32.5v175h153v-171q39 -1 84.5 -5t92 -11t90.5 -17t81 -23v-176q-84 31 -171 45t-177 15v-492q86 -22 165 -52t139 -78t95.5 -118.5t35.5 -172.5q0 -99 -35 -169.5t-94.5 -117t-138.5 -72t-167 -35.5v-178
h-153v172q-104 3 -207.5 16t-200.5 52z" />
    <glyph glyph-name="percent" unicode="%" horiz-adv-x="1619" 
d="M412 808q-149 0 -232 82.5t-83 231.5q0 155 75.5 249t239.5 94t239.5 -93t75.5 -250q0 -149 -83 -231.5t-232 -82.5zM315 0l763 1443h222l-764 -1443h-221zM412 944q91 0 132.5 46.5t41.5 135.5q0 90 -38.5 146t-135.5 56q-98 0 -136 -56.5t-38 -145.5q0 -87 42.5 -134.5
t131.5 -47.5zM1206 -22q-148 0 -231 82t-83 231q0 155 75 249t239 94t239.5 -93.5t75.5 -249.5q0 -150 -83 -231.5t-232 -81.5zM1206 113q91 0 133 46.5t42 135.5q0 90 -38 146t-137 56q-98 0 -135.5 -56.5t-37.5 -145.5q0 -87 42 -134.5t131 -47.5z" />
    <glyph glyph-name="ampersand" unicode="&#x26;" horiz-adv-x="1486" 
d="M607 -22q-87 0 -177 20t-164 64t-121.5 115t-47.5 173q0 82 28 148.5t74.5 120.5t107.5 98t126 81q-35 36 -69.5 72.5t-62 78t-44.5 87t-17 99.5q0 82 30.5 143.5t81.5 103t119 62.5t144 21q77 0 145 -21t118.5 -62t79.5 -102.5t29 -144.5q0 -63 -18.5 -115.5t-50.5 -97
t-74.5 -82.5t-90.5 -72l341 -349q26 54 30.5 108t4.5 112h181v-51q0 -79 -20.5 -155.5t-63.5 -142.5l180 -179l-145 -130l-170 173q-46 -50 -102.5 -83.5t-119.5 -54.5t-130 -29.5t-132 -8.5zM603 869q38 24 73 48t61.5 53t42.5 66t16 89q0 87 -45.5 133t-132.5 46
q-85 0 -135.5 -46.5t-50.5 -132.5q0 -42 16 -78t41.5 -66.5t55.5 -58t58 -53.5zM607 143q49 0 96.5 6.5t91 23t82.5 43t71 65.5l-370 378q-49 -23 -94.5 -51.5t-82 -64.5t-58 -82.5t-21.5 -105.5q0 -58 26 -98.5t67 -65.5t92 -36.5t100 -11.5z" />
    <glyph glyph-name="quotesingle" unicode="'" horiz-adv-x="398" 
d="M97 1023v420h204l-30 -420h-174z" />
    <glyph glyph-name="parenleft" unicode="(" horiz-adv-x="717" 
d="M397 -161q-84 78 -142 177t-93 209t-50 226t-15 228q0 111 14.5 227.5t49.5 226.5t93 209t143 177h266q-92 -80 -155 -177t-101.5 -205t-56 -224t-17.5 -234q0 -120 17.5 -235.5t56 -223t101.5 -204t155 -177.5h-266z" />
    <glyph glyph-name="parenright" unicode=")" horiz-adv-x="717" 
d="M53 -161q94 81 157 177t101.5 203.5t55 223.5t16.5 236q0 119 -16.5 235t-55 224t-101.5 204.5t-157 176.5h267q85 -76 142.5 -175.5t92 -210.5t49.5 -228t15 -226t-15 -226t-50 -228t-92.5 -210.5t-141.5 -175.5h-267z" />
    <glyph glyph-name="asterisk" unicode="*" horiz-adv-x="961" 
d="M296 728l-138 102l199 220l-260 106l72 149l231 -114l-10 252h180l-9 -252l230 114l71 -149l-261 -107l200 -219l-137 -102l-183 241z" />
    <glyph glyph-name="plus" unicode="+" horiz-adv-x="1053" 
d="M432 181v319h-335v184h335v328h189v-328h334v-184h-334v-319h-189z" />
    <glyph glyph-name="comma" unicode="," horiz-adv-x="465" 
d="M97 -269l64 420h207l-102 -420h-169z" />
    <glyph glyph-name="hyphen" unicode="-" horiz-adv-x="1053" 
d="M97 500v184h858v-184h-858z" />
    <glyph glyph-name="period" unicode="." horiz-adv-x="509" 
d="M156 0v183h197v-183h-197z" />
    <glyph glyph-name="slash" unicode="/" horiz-adv-x="956" 
d="M97 0l525 1483h236l-524 -1483h-237z" />
    <glyph glyph-name="zero" unicode="0" horiz-adv-x="1453" 
d="M726 -32q-175 0 -295 54.5t-194 152t-107 232.5t-33 295q0 163 29.5 303t101.5 242t193 160t305 58t305.5 -57.5t193.5 -159.5t101 -241.5t29 -304.5q0 -160 -32.5 -295t-106.5 -232.5t-194.5 -152t-295.5 -54.5zM726 168q119 0 195.5 46t120 121t60.5 171t17 196
q0 105 -13.5 206t-54.5 180t-119 127.5t-206 48.5q-129 0 -206 -48.5t-119 -127.5t-55 -180t-13 -206q0 -100 16.5 -196t60.5 -171t120 -121t196 -46z" />
    <glyph glyph-name="one" unicode="1" horiz-adv-x="704" 
d="M329 0v1236l-232 -40v197l465 72v-1465h-233z" />
    <glyph glyph-name="two" unicode="2" horiz-adv-x="1134" 
d="M97 0v119q18 57 64.5 121.5t103 126.5t116.5 117.5t103 94.5q53 47 106 93t97 99t72 114t28 136q0 68 -23.5 114t-64 75t-94.5 41.5t-115 12.5q-87 0 -172 -17t-167 -49v203q87 34 190 49t196 15q106 0 195.5 -26.5t153.5 -80.5t100 -137t36 -196q0 -83 -26 -152
t-69.5 -129.5t-99.5 -113.5t-117 -106q-88 -78 -172.5 -158.5t-134.5 -182.5h634v-183h-940z" />
    <glyph glyph-name="three" unicode="3" horiz-adv-x="1155" 
d="M502 -22q-44 0 -97.5 4t-108 12.5t-106.5 20.5t-93 28v197q89 -39 183 -54t190 -15q67 0 130.5 9.5t112 37t78.5 77t30 126.5q0 95 -53.5 142t-133 65.5t-169.5 17.5t-162 -1l19 169q73 0 154.5 -0.5t151 18t116 68t46.5 148.5q0 70 -27.5 113.5t-73 68.5t-103 33.5
t-114.5 8.5q-89 0 -180 -17t-170 -51v194q86 35 194 51t201 16q96 0 187.5 -20t163 -65.5t115.5 -120.5t44 -186q0 -115 -56 -209t-167 -132q125 -33 188.5 -117t63.5 -213q0 -122 -47 -203t-124.5 -130.5t-177.5 -70t-205 -20.5z" />
    <glyph glyph-name="four" unicode="4" horiz-adv-x="1210" 
d="M777 0v320h-724v167l749 956h208v-933h146v-190h-146v-320h-233zM275 502h537v677z" />
    <glyph glyph-name="five" unicode="5" horiz-adv-x="1148" 
d="M502 -22q-45 0 -97 3.5t-105 10.5t-103.5 19t-92.5 30v197q41 -15 87 -28t93.5 -21.5t95.5 -12.5t92 -4q70 0 132 12.5t108.5 43.5t73.5 83.5t27 132.5q0 77 -18.5 126t-56.5 77.5t-92.5 39.5t-127.5 11h-421v107q0 42 2 75.5t6 75.5l31 487h813l-20 -183h-595l-25 -387
h227q112 0 206 -13t162 -59t106.5 -133t38.5 -232q0 -124 -43 -211t-117.5 -142t-174 -80t-212.5 -25z" />
    <glyph glyph-name="six" unicode="6" horiz-adv-x="1277" 
d="M641 -22q-279 0 -411.5 141.5t-132.5 415.5v326q0 136 43.5 247t121.5 190.5t189.5 123t247.5 43.5q87 0 174.5 -9.5t168.5 -40.5v-194q-77 32 -160 43t-166 11q-85 0 -158 -24.5t-126.5 -71.5t-83.5 -115t-30 -158v-95q76 54 176 84.5t194 30.5q237 0 364 -113.5
t127 -354.5q0 -125 -39.5 -216t-111.5 -150t-170 -86.5t-217 -27.5zM641 150q146 0 237.5 73t91.5 227q0 163 -82.5 231.5t-241.5 68.5q-86 0 -172 -30.5t-156 -79.5v-161q0 -164 78.5 -246.5t244.5 -82.5z" />
    <glyph glyph-name="seven" unicode="7" horiz-adv-x="1110" 
d="M248 0l533 1260h-706v183h958v-154l-544 -1289h-241z" />
    <glyph glyph-name="eight" unicode="8" horiz-adv-x="1315" 
d="M657 -22q-104 0 -204.5 17.5t-179.5 64t-127.5 126.5t-48.5 204q0 127 68 222.5t190 133.5q-104 38 -161.5 117t-57.5 191q0 119 44.5 198t118.5 126t169.5 67t197.5 20t195 -20.5t163.5 -68.5t112 -126.5t41.5 -195.5q0 -121 -59 -203t-170 -125q127 -36 198 -118
t71 -218q0 -124 -48.5 -204t-127.5 -126.5t-180 -64t-205 -17.5zM718 797q52 12 96 31t75.5 48.5t49 71.5t17.5 102q0 68 -24.5 113.5t-65.5 72.5t-95.5 38.5t-113.5 11.5q-60 0 -114 -11t-95.5 -38t-65.5 -72.5t-24 -114.5q0 -80 33.5 -125.5t86 -70t116.5 -35.5t124 -22z
M657 155q61 0 121.5 9.5t108.5 35.5t78 72.5t30 121.5q0 85 -43 134.5t-107.5 75.5t-139 37.5t-138.5 22.5q-112 -22 -180 -81.5t-68 -182.5q0 -74 29.5 -122t77.5 -75t108 -37.5t123 -10.5z" />
    <glyph glyph-name="nine" unicode="9" horiz-adv-x="1277" 
d="M583 -22q-87 0 -176 9.5t-172 37.5v193q76 -30 163 -40.5t168 -10.5q85 0 157 24t125 70.5t82.5 115.5t29.5 156v93q-79 -57 -174.5 -86.5t-194.5 -29.5q-235 0 -364.5 114t-129.5 355q0 126 40.5 217.5t113.5 151t172.5 88.5t217.5 29q141 0 242.5 -35t167.5 -105
t97 -174.5t31 -243.5v-326q0 -135 -41.5 -246.5t-119 -191t-188 -122.5t-247.5 -43zM634 686q88 0 171.5 30t154.5 81v166q0 163 -76.5 245.5t-242.5 82.5q-146 0 -239.5 -75t-93.5 -229q0 -163 85.5 -232t240.5 -69z" />
    <glyph glyph-name="colon" unicode=":" horiz-adv-x="393" 
d="M97 732v188h198v-188h-198zM97 57v188h198v-188h-198z" />
    <glyph glyph-name="semicolon" unicode=";" horiz-adv-x="467" 
d="M167 732v188h199v-188h-199zM97 -235l64 419h207l-102 -419h-169z" />
    <glyph glyph-name="less" unicode="&#x3c;" horiz-adv-x="1216" 
d="M1118 106l-1021 467v194l1021 465v-220l-775 -341l775 -343v-222z" />
    <glyph glyph-name="equal" unicode="=" horiz-adv-x="1057" 
d="M97 678v168h861v-168h-861zM97 337v170h861v-170h-861z" />
    <glyph glyph-name="greater" unicode="&#x3e;" horiz-adv-x="1216" 
d="M97 106v222l774 343l-774 341v220l1021 -465v-194z" />
    <glyph glyph-name="question" unicode="?" horiz-adv-x="1102" 
d="M350 362v48q0 81 31 141t77.5 107t101 87.5t101 82.5t77.5 90.5t31 113.5q0 73 -26.5 118.5t-71.5 71t-102 34t-118 8.5q-91 0 -181.5 -19.5t-172.5 -60.5v197q94 48 201.5 66t211.5 18q101 0 191 -21.5t157.5 -69.5t107 -125.5t39.5 -189.5q0 -91 -31.5 -155.5t-79 -113
t-103 -87.5t-103 -80.5t-79.5 -92.5t-32 -122v-46h-227zM339 0v179h248v-179h-248z" />
    <glyph glyph-name="at" unicode="@" horiz-adv-x="1707" 
d="M870 -296q-176 0 -318.5 43t-244 131.5t-156 223.5t-54.5 319q0 194 57 336t162.5 235t255.5 138.5t335 45.5q150 0 278.5 -35.5t223 -109t147.5 -190t53 -278.5q0 -108 -25 -193.5t-77 -142.5t-132 -86.5t-192 -29.5h-49q-72 -70 -161.5 -95.5t-187.5 -25.5
q-60 0 -115 14t-97 45t-66.5 79t-24.5 115q0 83 32 135t83.5 80.5t118 38.5t136.5 10h237v68q0 63 -15 100.5t-45 58.5t-74.5 27t-103.5 6q-70 0 -137.5 -10.5t-134.5 -34.5v108q70 30 153 39.5t158 9.5q111 0 179.5 -26t105 -75t48.5 -121t12 -165v-253q70 0 110.5 29.5
t62.5 77t28 105t6 112.5q0 132 -38.5 222t-110.5 146t-172 80t-222 24q-313 0 -474 -148.5t-161 -467.5q0 -149 40.5 -257t118 -179t189.5 -104.5t254 -33.5q94 0 196 8t191 35v-143q-94 -21 -190.5 -31t-192.5 -10zM825 102q83 0 147.5 26.5t116.5 91.5v181h-250
q-43 0 -81.5 -5.5t-66.5 -21.5t-44.5 -47t-16.5 -83q0 -43 17 -71t44.5 -43.5t62 -21.5t71.5 -6z" />
    <glyph glyph-name="A" unicode="A" horiz-adv-x="1556" 
d="M97 0l548 1443h266l548 -1443h-242l-147 379h-585l-145 -379h-243zM522 555h511l-256 674z" />
    <glyph glyph-name="B" unicode="B" horiz-adv-x="1408" 
d="M142 0v1443h694q97 0 174.5 -22t132 -68.5t83.5 -119.5t29 -175q0 -101 -41 -184.5t-134 -130.5q126 -35 178 -118t52 -210q0 -108 -29.5 -187t-86 -129t-139 -74.5t-187.5 -24.5h-726zM375 822h413q109 0 170.5 53t61.5 165q0 136 -67.5 183t-193.5 47h-384v-448z
M375 171h444q138 0 197 61.5t59 198.5q0 70 -21 113.5t-58.5 68.5t-89 34t-111.5 9h-420v-485z" />
    <glyph glyph-name="C" unicode="C" horiz-adv-x="1333" 
d="M811 -22q-170 0 -303.5 47.5t-224.5 139t-138.5 225t-47.5 305.5q0 177 42 319.5t129.5 243t222 154t319.5 53.5q108 0 215 -15t209 -54v-206q-97 40 -199 57t-206 17q-141 0 -236 -40.5t-152.5 -114.5t-82.5 -179.5t-25 -234.5q0 -126 30.5 -222.5t92.5 -162t156 -99.5
t223 -34q101 0 203 15.5t197 53.5v-207q-102 -36 -208.5 -48.5t-215.5 -12.5z" />
    <glyph glyph-name="D" unicode="D" horiz-adv-x="1446" 
d="M142 0v1443h581q183 0 303.5 -52t192 -147.5t101 -230.5t29.5 -302q0 -164 -31 -296t-104.5 -224t-193.5 -141.5t-297 -49.5h-581zM375 183h310q138 0 222 37t129.5 106t60.5 167t15 218q0 123 -13 224t-57 173t-129 112t-228 40h-310v-1077z" />
    <glyph glyph-name="E" unicode="E" horiz-adv-x="1223" 
d="M142 0v1443h1000v-183h-767v-446h686v-185h-686v-446h767v-183h-1000z" />
    <glyph glyph-name="F" unicode="F" horiz-adv-x="1158" 
d="M142 0v1443h974v-183h-741v-446h659v-185h-659v-629h-233z" />
    <glyph glyph-name="G" unicode="G" horiz-adv-x="1430" 
d="M806 -22q-170 0 -302.5 47t-222.5 138t-137 224t-47 302q0 177 44 320.5t133 244.5t224.5 156t319.5 55q109 0 216 -12.5t210 -46.5v-202q-98 35 -200 47.5t-206 12.5q-142 0 -239 -40.5t-156 -115.5t-84.5 -181t-25.5 -238q0 -121 28 -216t87 -161t149.5 -100.5
t216.5 -34.5q81 0 162 12t157 40v406h-364v154h564v-693q-54 -35 -119.5 -58t-134.5 -36t-139 -18.5t-134 -5.5z" />
    <glyph glyph-name="H" unicode="H" horiz-adv-x="1457" 
d="M142 0v1443h233v-624h707v624h234v-1443h-234v624h-707v-624h-233z" />
    <glyph glyph-name="I" unicode="I" horiz-adv-x="517" 
d="M142 0v1443h233v-1443h-233z" />
    <glyph glyph-name="J" unicode="J" horiz-adv-x="940" 
d="M344 -22q-80 0 -158.5 11t-151.5 41v198q61 -29 128 -39.5t135 -10.5q144 0 211.5 56.5t67.5 205.5v1003h233v-1041q0 -113 -32.5 -193t-93.5 -131.5t-147 -75.5t-192 -24z" />
    <glyph glyph-name="K" unicode="K" horiz-adv-x="1389" 
d="M142 0v1443h233v-671l624 671h272l-531 -582l552 -861h-251l-449 711l-217 -230v-481h-233z" />
    <glyph glyph-name="L" unicode="L" horiz-adv-x="1171" 
d="M142 0v1443h233v-1260h745v-183h-978z" />
    <glyph glyph-name="M" unicode="M" horiz-adv-x="1690" 
d="M142 0v1443h243l462 -944l460 944h242v-1443h-234v1062l-396 -813h-145l-399 813v-1062h-233z" />
    <glyph glyph-name="N" unicode="N" horiz-adv-x="1488" 
d="M142 0v1443h206l764 -1075v1075h234v-1443h-207l-764 1073v-1073h-233z" />
    <glyph glyph-name="O" unicode="O" horiz-adv-x="1556" 
d="M778 -22q-179 0 -307 50.5t-211 146t-123 231.5t-40 306q0 176 36 316t116 237t210 148.5t319 51.5q188 0 318.5 -51t210.5 -148t116 -237t36 -317q0 -171 -39.5 -307.5t-122.5 -231t-212 -145t-307 -50.5zM778 177q128 0 213.5 41t136.5 112.5t72.5 169t21.5 212.5
q0 120 -18 221.5t-67 175t-135 114.5t-224 41q-137 0 -223.5 -41t-135.5 -115t-67.5 -175.5t-18.5 -220.5q0 -114 21.5 -211.5t73 -169.5t137 -113t213.5 -41z" />
    <glyph glyph-name="P" unicode="P" horiz-adv-x="1313" 
d="M142 0v1443h637q115 0 205 -32t151 -93t93 -150.5t32 -204.5q0 -112 -36 -199t-100.5 -147.5t-154.5 -92.5t-199 -32h-395v-492h-233zM375 675h351q139 0 218 74t79 215q0 143 -70 219.5t-216 76.5h-362v-585z" />
    <glyph glyph-name="Q" unicode="Q" horiz-adv-x="1556" 
d="M1012 -385q-96 0 -160.5 23.5t-103.5 70t-56.5 115.5t-17.5 160q-160 14 -269.5 74t-178 156t-99 223t-30.5 275q0 176 36 316t116 237t210 148.5t319 51.5q188 0 318.5 -51t210.5 -148t116 -237t36 -317q0 -148 -30.5 -275t-98.5 -223t-178 -156t-270 -73q0 -42 5 -79
t21.5 -64.5t46.5 -43.5t80 -16q38 0 75 5t73 14v-164q-41 -12 -84 -17t-87 -5zM778 177q128 0 213.5 41t136.5 112.5t72.5 169t21.5 212.5q0 120 -18 221.5t-67 175t-135 114.5t-224 41q-137 0 -223.5 -41t-135.5 -115t-67.5 -175.5t-18.5 -220.5q0 -114 21.5 -211.5
t73 -169.5t137 -113t213.5 -41z" />
    <glyph glyph-name="R" unicode="R" horiz-adv-x="1360" 
d="M142 0v1443h658q228 0 344.5 -115.5t116.5 -344.5q0 -153 -74.5 -262.5t-224.5 -151.5q46 -27 68 -63t42 -83l183 -423h-242l-177 403q-17 40 -35.5 63.5t-42.5 36.5t-55.5 16.5t-72.5 3.5h-255v-523h-233zM375 706h361q139 0 214 67.5t75 209.5q0 136 -64 206.5
t-203 70.5h-383v-554z" />
    <glyph glyph-name="S" unicode="S" horiz-adv-x="1239" 
d="M574 -22q-54 0 -112 2.5t-114.5 11.5t-112.5 22.5t-107 35.5v199q99 -38 209 -59.5t217 -21.5q58 0 120 6t113 28.5t84.5 65t33.5 116.5q0 95 -60.5 144t-149.5 79t-194 54.5t-194 68.5t-149.5 119.5t-60.5 209.5q0 120 48 199t125 124.5t176 64t200 18.5q47 0 100.5 -3
t107.5 -10t106.5 -18.5t95.5 -26.5v-201q-89 36 -183 50.5t-188 14.5q-55 0 -117.5 -6t-114 -28t-86 -63.5t-34.5 -112.5q0 -87 60.5 -132t150 -72.5t194 -52t194.5 -71t150 -127t60 -222.5q0 -121 -50.5 -200t-131.5 -125t-182 -63.5t-204 -17.5z" />
    <glyph glyph-name="T" unicode="T" horiz-adv-x="1277" 
d="M516 0v1260h-463v183h1159v-183h-463v-1260h-233z" />
    <glyph glyph-name="U" unicode="U" horiz-adv-x="1505" 
d="M753 -22q-137 0 -251.5 32t-197 100t-128 173.5t-45.5 251.5v908h233v-900q0 -93 27.5 -161.5t78 -113.5t122.5 -67.5t161 -22.5t161.5 22t122.5 67t77 113.5t27 162.5v900h233v-908q0 -146 -45 -252t-127 -173.5t-196.5 -99.5t-252.5 -32z" />
    <glyph glyph-name="V" unicode="V" horiz-adv-x="1556" 
d="M645 0l-548 1443h243l437 -1192l438 1192h244l-548 -1443h-266z" />
    <glyph glyph-name="W" unicode="W" horiz-adv-x="1937" 
d="M433 0l-336 1443h230l248 -1096l279 924v172h192l311 -1097l253 1097h229l-333 -1443h-234l-291 1023l-313 -1023h-235z" />
    <glyph glyph-name="X" unicode="X" horiz-adv-x="1502" 
d="M97 0l513 719l-504 724h274l371 -545l372 545h273l-504 -724l514 -719h-277l-378 537l-378 -537h-276z" />
    <glyph glyph-name="Y" unicode="Y" horiz-adv-x="1406" 
d="M586 0v536l-516 907h243l390 -704l390 704h243l-516 -907v-536h-234z" />
    <glyph glyph-name="Z" unicode="Z" horiz-adv-x="1281" 
d="M97 0v126l782 1129h-746v188h1047v-141l-775 -1119h788v-183h-1096z" />
    <glyph glyph-name="bracketleft" unicode="[" horiz-adv-x="780" 
d="M97 -222v1803h599l8 -182h-374v-1438h375l-8 -183h-600z" />
    <glyph glyph-name="backslash" unicode="\" horiz-adv-x="1001" 
d="M664 -121l-567 1604h241l566 -1604h-240z" />
    <glyph glyph-name="bracketright" unicode="]" horiz-adv-x="780" 
d="M83 -222l-8 183h374v1438h-373l8 182h599v-1803h-600z" />
    <glyph glyph-name="asciicircum" unicode="^" horiz-adv-x="1056" 
d="M97 868l340 530h172l348 -530h-218l-212 360l-210 -360h-220z" />
    <glyph glyph-name="underscore" unicode="_" horiz-adv-x="1209" 
d="M97 -184v184h1015v-184h-1015z" />
    <glyph glyph-name="grave" unicode="`" horiz-adv-x="563" 
d="M284 1169l-185 394h196l168 -394h-179z" />
    <glyph glyph-name="a" unicode="a" horiz-adv-x="1219" 
d="M470 -22q-74 0 -142 18t-119 56.5t-81.5 98.5t-30.5 142q0 83 25.5 141t69 94.5t98.5 56t114.5 28t117.5 9.5t108 1h235v73q0 74 -23 118.5t-62.5 67.5t-95 29.5t-120.5 6.5q-88 0 -174.5 -13.5t-168.5 -42.5v158q45 19 94.5 31t100 19t101 10.5t98.5 3.5
q104 0 190.5 -19.5t150 -65t98 -123t34.5 -191.5v-685h-201l-14 114q-81 -83 -187 -109.5t-216 -26.5zM542 128q96 0 177.5 31t145.5 105v215h-334q-47 0 -87 -7.5t-70.5 -28t-47.5 -54.5t-17 -88q0 -51 19.5 -85t52 -53t75 -27t86.5 -8z" />
    <glyph glyph-name="b" unicode="b" horiz-adv-x="1298" 
d="M717 -22q-103 0 -192.5 29t-166.5 99l-14 -106h-202v1510h233v-519q76 51 161.5 72t175.5 21q133 0 226 -38.5t151 -109t84.5 -171t26.5 -225.5q0 -121 -26 -224t-83 -178.5t-149.5 -117.5t-224.5 -42zM653 152q94 0 154 29.5t95 81.5t48.5 123t13.5 153q0 83 -14 151.5
t-49.5 117t-96 75t-153.5 26.5q-76 0 -146.5 -21t-129.5 -73v-549q57 -58 127 -86t151 -28z" />
    <glyph glyph-name="c" unicode="c" horiz-adv-x="1069" 
d="M660 -22q-136 0 -240.5 35t-176 104.5t-109 173t-37.5 240.5t40 240t115 173t181.5 105t239.5 35q87 0 167.5 -12.5t159.5 -51.5v-171q-67 32 -136.5 45.5t-143.5 13.5q-95 0 -167.5 -22.5t-121.5 -69.5t-73.5 -117.5t-24.5 -167.5q0 -99 23 -170t69.5 -117t118 -68
t169.5 -22q75 0 147.5 15.5t140.5 46.5v-177q-81 -36 -167 -48.5t-174 -12.5z" />
    <glyph glyph-name="d" unicode="d" horiz-adv-x="1298" 
d="M580 -22q-128 0 -219.5 36t-150 104.5t-86 165.5t-27.5 219t30.5 228t93 184.5t158 123.5t227.5 45q90 0 165.5 -20.5t150.5 -72.5v519h233v-1510h-200l-15 106q-78 -70 -167.5 -99t-192.5 -29zM644 152q81 0 150.5 28t127.5 86v547q-56 52 -121.5 74t-141.5 22
q-92 0 -154.5 -33t-100.5 -89t-54.5 -129.5t-16.5 -155.5q0 -81 16 -146t52.5 -110.5t96.5 -69.5t146 -24z" />
    <glyph glyph-name="e" unicode="e" horiz-adv-x="1197" 
d="M677 -22q-140 0 -248 33.5t-182 102.5t-112 174t-38 247q0 128 32 230t96 172.5t162.5 108.5t230.5 38q108 0 196.5 -28.5t152 -85t98.5 -141t35 -195.5v-188h-785q10 -90 45 -148t89 -92.5t124.5 -48t155.5 -13.5q76 0 155.5 13t150.5 43v-160q-85 -35 -176 -48.5
t-182 -13.5zM315 590h579v77q0 135 -72 194.5t-202 59.5q-83 0 -141 -22t-94.5 -64.5t-53 -104t-16.5 -140.5z" />
    <glyph glyph-name="f" unicode="f" horiz-adv-x="801" 
d="M204 0v881h-153v181h153v51q0 92 15.5 171t54.5 137.5t107 91.5t172 33q55 0 109 -8.5t106 -28.5v-163q-32 11 -65.5 18t-69.5 7q-62 0 -101 -13.5t-60 -40t-28 -67.5t-7 -98v-90h281l-10 -181h-271v-881h-233z" />
    <glyph glyph-name="g" unicode="g" horiz-adv-x="1237" 
d="M573 -394q-49 0 -106.5 2.5t-115 9t-113 17t-102.5 27.5v166q49 -16 102 -26.5t108 -18t110 -11t106 -3.5q31 0 85.5 0.5t107.5 11t92 34.5t39 71q0 36 -15.5 57t-43.5 31t-64 12.5t-76 2.5h-272q-55 1 -109 7.5t-97 26.5t-70 56t-27 98q0 40 15 73.5t40.5 59.5t57.5 44
t68 29q-100 43 -144 124t-44 189q0 115 37.5 189t102.5 119t153 62.5t191 17.5q50 0 100 -11t93 -11h390l-7 -153h-182q48 -42 67 -101t19 -121q0 -98 -31 -166t-86 -110.5t-130.5 -61.5t-166.5 -19q-31 0 -84.5 4.5t-105 -1.5t-90 -28t-38.5 -76q0 -24 12 -39.5t32 -22.5
t45 -10t52 -3q90 -1 198 4t201 -14t155.5 -74.5t62.5 -176.5q0 -101 -53 -158.5t-132 -86.5t-170 -35.5t-167 -6.5zM590 469q68 0 119 9t86.5 35.5t53.5 72.5t18 118q0 71 -18 118t-53.5 74.5t-87.5 38t-118 10.5t-117.5 -10.5t-87 -38t-54 -74.5t-18.5 -118q0 -69 19 -115
t54.5 -72.5t87 -37t116.5 -10.5z" />
    <glyph glyph-name="h" unicode="h" horiz-adv-x="1288" 
d="M142 0v1510h233v-553q85 68 182.5 97.5t205.5 29.5q206 0 300 -94.5t94 -300.5v-689h-233v676q0 67 -14 112t-43.5 71.5t-76 37.5t-112.5 11q-85 0 -163.5 -35t-139.5 -94v-779h-233z" />
    <glyph glyph-name="i" unicode="i" horiz-adv-x="631" 
d="M231 1288v198h258v-198h-258zM254 0v885h-163l18 177h379v-1062h-234z" />
    <glyph glyph-name="j" unicode="j" horiz-adv-x="679" 
d="M279 1288v198h257v-198h-257zM194 -524q-56 0 -111 7.5t-107 27.5v164q32 -11 66.5 -17t68.5 -6q89 0 140 38.5t51 133.5v1061h-162l18 177h377v-1256q0 -162 -91 -246t-250 -84z" />
    <glyph glyph-name="k" unicode="k" horiz-adv-x="1189" 
d="M142 0v1510h233v-879l455 431h269l-432 -427l458 -635h-248l-357 510l-145 -137v-373h-233z" />
    <glyph glyph-name="l" unicode="l" horiz-adv-x="614" 
d="M399 -22q-69 0 -117.5 16.5t-79.5 50.5t-45.5 84.5t-14.5 117.5v1263h233v-1246q0 -49 18 -79t72 -30q26 0 52 3t51 11v-165q-37 -15 -83 -20.5t-86 -5.5z" />
    <glyph glyph-name="m" unicode="m" horiz-adv-x="1912" 
d="M142 0v1062h213l11 -113q82 63 177 99t199 36q88 0 162 -28t115 -110q90 71 190 104.5t213 33.5q191 0 275 -98t84 -283v-703h-231v678q0 119 -51.5 174.5t-172.5 55.5q-75 0 -146.5 -29t-122.5 -85q8 -31 10 -64t2 -66v-664h-219v683q0 55 -8.5 97t-31 70.5t-60.5 43
t-97 14.5q-80 0 -154 -39t-129 -91v-778h-228z" />
    <glyph glyph-name="n" unicode="n" horiz-adv-x="1288" 
d="M142 0v1062h214l11 -112q91 69 192 101.5t214 32.5q203 0 293.5 -95.5t90.5 -295.5v-693h-233v677q0 68 -14 112.5t-43.5 71t-76 37t-112.5 10.5q-85 0 -163.5 -35t-139.5 -94v-779h-233z" />
    <glyph glyph-name="o" unicode="o" horiz-adv-x="1294" 
d="M647 -22q-138 0 -241.5 35t-171.5 104.5t-102.5 173t-34.5 240.5q0 135 34.5 238.5t103 174t171.5 105.5t241 35t241 -34.5t171.5 -104t103 -173t34.5 -241.5t-34 -242t-102.5 -173.5t-172 -103.5t-241.5 -34zM647 163q93 0 154 25.5t96.5 73t49.5 115.5t14 154
t-13.5 154t-49 115.5t-96.5 73t-155 25.5q-93 0 -153.5 -26t-96 -74t-50 -116t-14.5 -152q0 -85 14 -153t49 -116t96 -73.5t155 -25.5z" />
    <glyph glyph-name="p" unicode="p" horiz-adv-x="1298" 
d="M142 -484v1546h202l14 -107q80 74 169 101.5t197 27.5q131 0 222 -39t147.5 -111t81.5 -172t25 -221q0 -123 -29 -226t-89.5 -178.5t-155 -117t-225.5 -41.5q-90 0 -170 20t-156 71v-553h-233zM642 153q93 0 155 31t99 84.5t52.5 126.5t15.5 156q0 85 -13.5 152
t-48.5 112.5t-95 69.5t-154 24q-81 0 -150.5 -28.5t-127.5 -85.5v-548q62 -48 125 -71t142 -23z" />
    <glyph glyph-name="q" unicode="q" horiz-adv-x="1295" 
d="M1199 -542q-82 0 -135.5 21.5t-85 61t-44 92t-12.5 115.5v321q-75 -51 -155.5 -71t-170.5 -20q-131 0 -226 37.5t-155 108t-89 170.5t-29 225q0 117 28 220t87 180.5t151 121t219 43.5q106 0 192 -29.5t166 -99.5l15 107h200v-1288q0 -71 24.5 -105.5t100.5 -34.5
q22 0 42.5 4t42.5 11v-165q-22 -7 -42 -12.5t-39.5 -8.5t-40.5 -4t-44 -1zM654 153q80 0 143.5 22t124.5 72v548q-58 58 -126 86t-149 28q-93 0 -153.5 -29.5t-96 -82t-50 -122.5t-14.5 -152q0 -86 16 -154.5t53.5 -116.5t99.5 -73.5t152 -25.5z" />
    <glyph glyph-name="r" unicode="r" horiz-adv-x="797" 
d="M142 0v1062h218l11 -125q87 57 187.5 94.5t201.5 52.5v-180q-94 -17 -198.5 -52t-186.5 -83v-769h-233z" />
    <glyph glyph-name="s" unicode="s" horiz-adv-x="1033" 
d="M492 -22q-43 0 -90.5 2.5t-97 8.5t-96.5 16.5t-88 25.5v182q75 -29 165 -43.5t171 -14.5q37 0 79 2.5t78 15.5t60.5 39.5t24.5 73.5t-27 75t-70 48t-98 34.5t-109 34.5q-56 19 -109 42t-95 57.5t-67.5 84.5t-25.5 122q0 96 39.5 154.5t101 91.5t140 43.5t156.5 10.5
q39 0 80 -2.5t82 -8t81.5 -13t77.5 -19.5v-180q-64 24 -136.5 35.5t-139.5 11.5q-33 0 -75.5 -2.5t-81 -14t-64 -36.5t-25.5 -70q0 -40 29 -68t70 -47t85.5 -31t76.5 -23q69 -21 131 -44.5t109 -58.5t74 -89t27 -137q0 -97 -39 -157t-103 -94t-143 -46t-158 -12z" />
    <glyph glyph-name="t" unicode="t" horiz-adv-x="798" 
d="M542 -22q-163 0 -248.5 86t-85.5 249v568h-155v181h155v253l234 65v-318h284l-11 -181h-273v-554q0 -94 46.5 -133.5t136.5 -39.5q33 0 65.5 5.5t63.5 17.5v-164q-50 -20 -103.5 -27.5t-108.5 -7.5z" />
    <glyph glyph-name="u" unicode="u" horiz-adv-x="1275" 
d="M514 -22q-199 0 -297.5 110t-98.5 304v670h233v-658q0 -130 64 -190.5t192 -60.5q84 0 159 33t134 95v781h233v-1062h-214l-11 111q-87 -73 -184.5 -103t-209.5 -30z" />
    <glyph glyph-name="v" unicode="v" horiz-adv-x="1285" 
d="M514 0l-417 1062h243l301 -834l305 834h242l-417 -1062h-257z" />
    <glyph glyph-name="w" unicode="w" horiz-adv-x="1659" 
d="M375 0l-278 1062h230l192 -784l212 654v130h178l237 -784l187 784h229l-277 -1062h-222l-228 710l-234 -710h-226z" />
    <glyph glyph-name="x" unicode="x" horiz-adv-x="1226" 
d="M81 0l404 540l-390 522h254l263 -357l263 357h254l-388 -522l404 -540h-255l-278 374l-277 -374h-254z" />
    <glyph glyph-name="y" unicode="y" horiz-adv-x="1329" 
d="M374 -394q-51 0 -103 5.5t-101 25.5v168q34 -12 67.5 -17.5t69.5 -5.5q56 0 95.5 19t69.5 51.5t52.5 74t43.5 86.5l-471 1049h244l344 -809l350 809h242l-434 -1004q-33 -78 -73.5 -159t-95 -146t-127.5 -106t-173 -41z" />
    <glyph glyph-name="z" unicode="z" horiz-adv-x="1085" 
d="M97 0v133l586 740h-561v189h851v-144l-578 -734h593v-184h-891z" />
    <glyph glyph-name="braceleft" unicode="{" horiz-adv-x="674" 
d="M53 595v146q49 7 77 25t42.5 46t19 64.5t4.5 79.5v362q0 74 15.5 121.5t48.5 77.5t83 41.5t118 11.5h137v-184h-42q-37 0 -62 -5t-38.5 -20t-19.5 -39t-6 -62v-325q0 -42 -4.5 -82.5t-18 -75.5t-38 -63.5t-64.5 -44.5q40 -17 64.5 -45.5t38 -64.5t18 -76t4.5 -82v-325
q0 -38 6 -62t19.5 -39t38.5 -20t62 -5h42v-184h-137q-68 0 -118 11.5t-83 41t-48.5 77.5t-15.5 122v362q0 43 -4.5 79.5t-19 64.5t-42.5 46.5t-77 24.5z" />
    <glyph glyph-name="bar" unicode="|" horiz-adv-x="429" 
d="M97 -269v1915h233v-1915h-233z" />
    <glyph glyph-name="braceright" unicode="}" horiz-adv-x="674" 
d="M598 595q-49 -6 -77.5 -24.5t-43.5 -46.5t-19 -64.5t-4 -79.5v-362q0 -74 -15.5 -122t-48.5 -77.5t-82 -41t-119 -11.5h-136v184h41q38 0 62.5 5t38.5 20t19 39t5 62v325q0 42 5 82t18.5 76t38 64.5t64.5 45.5q-40 16 -64.5 44.5t-38 63.5t-18.5 75.5t-5 82.5v325
q0 38 -5 62t-19 39t-38.5 20t-62.5 5h-41v184h136q70 0 119 -11.5t82 -41.5t48.5 -77.5t15.5 -121.5v-362q0 -43 4 -79.5t19 -64.5t43.5 -46t77.5 -25v-146z" />
    <glyph glyph-name="asciitilde" unicode="~" horiz-adv-x="1257" 
d="M897 495q-72 0 -137.5 24.5t-129.5 53.5t-130.5 53.5t-138.5 24.5q-86 0 -149 -33t-115 -100v224q46 60 118 88t146 28t141 -24.5t131 -53.5t128.5 -53.5t135.5 -24.5q86 0 148 32.5t113 98.5v-223q-45 -62 -116 -88.5t-145 -26.5z" />
    <glyph glyph-name="uni00A0" unicode="&#xa0;" 
 />
    <glyph glyph-name="exclamdown" unicode="&#xa1;" horiz-adv-x="442" 
d="M97 883v179h248v-179h-248zM105 -381v360q0 182 4.5 361.5t9.5 362.5h207q5 -183 8.5 -362.5t3.5 -361.5v-360h-233z" />
    <glyph glyph-name="cent" unicode="&#xa2;" horiz-adv-x="1098" 
d="M306 531q0 -77 13 -142t45.5 -115.5t86 -84.5t134.5 -46v776q-154 -30 -216.5 -134.5t-62.5 -253.5zM105 531q0 116 30 213t90.5 168t150.5 114t209 53v175h152v-172q68 -4 127.5 -17.5t122.5 -41.5v-149q-61 28 -122.5 41.5t-127.5 14.5v-798q65 3 128 17.5t123 41.5
v-153q-60 -26 -123 -39t-128 -18v-174h-152v174q-124 10 -214.5 52t-149.5 112.5t-87.5 168t-28.5 217.5z" />
    <glyph glyph-name="sterling" unicode="&#xa3;" horiz-adv-x="1113" 
d="M97 0v180q43 0 77 4.5t57.5 19t35.5 44t12 80.5v341h-154v181h154v248q0 89 29 157t80 115t122.5 71t157.5 24q64 0 133.5 -8.5t127.5 -37.5v-162q-38 19 -91 26t-95 7q-52 0 -93.5 -10.5t-72 -34.5t-48 -61.5t-17.5 -93.5v-240h413l-8 -181h-405v-328q0 -46 -9.5 -89
t-46.5 -72h559v-180h-918z" />
    <glyph glyph-name="currency" unicode="&#xa4;" horiz-adv-x="1276" 
d="M202 123l-105 130l182 135q-33 48 -49 102.5t-16 112.5t16 111.5t49 99.5l-180 138l103 129l187 -147q53 42 116 64.5t131 22.5t132 -22t117 -66l190 147l103 -128l-182 -138q34 -46 50 -100t16 -111t-16.5 -112t-49.5 -102l181 -139l-102 -126l-189 144
q-54 -41 -117 -63t-131 -22t-130.5 22t-117.5 63zM636 351q52 0 97 20t79 55t54 80.5t20 96.5q0 52 -19.5 97.5t-53.5 79.5t-79.5 54t-97.5 20t-97 -20t-78 -54t-52 -79.5t-19 -97.5q0 -51 19.5 -96.5t52.5 -80.5t78 -55t96 -20z" />
    <glyph glyph-name="yen" unicode="&#xa5;" horiz-adv-x="1443" 
d="M603 0v216h-340v142h340v142h-340v142h279l-445 801h242l382 -704l382 704h242l-448 -801h281v-142h-339v-142h339v-142h-339v-216h-236z" />
    <glyph glyph-name="brokenbar" unicode="&#xa6;" horiz-adv-x="429" 
d="M97 930v716h233v-716h-233zM97 -269v715h233v-715h-233z" />
    <glyph glyph-name="section" unicode="&#xa7;" horiz-adv-x="1239" 
d="M574 -22q-54 0 -112 2.5t-114.5 11.5t-112.5 22.5t-107 35.5v197q99 -38 209 -60.5t217 -22.5q58 0 120 7t113 29t84 65.5t33 118.5q0 89 -60 138t-149.5 81t-194 58.5t-194.5 66.5t-149.5 106.5t-59.5 181.5q0 39 10.5 77.5t31.5 71.5q-22 37 -31 78t-9 83
q0 118 49 192.5t127 118t175.5 60.5t195.5 17q45 0 99.5 -3.5t108.5 -11t106.5 -19t95.5 -24.5v-197q-90 33 -185 48.5t-191 15.5q-55 0 -117 -6.5t-112.5 -29t-84 -64.5t-33.5 -113q0 -86 60.5 -133t150 -74.5t194 -49t194.5 -59.5t150 -105.5t60 -185.5q0 -40 -11.5 -86
t-29.5 -81q20 -36 30.5 -76t10.5 -83q0 -122 -50.5 -200t-131.5 -122.5t-182 -60.5t-204 -16zM950 642q6 17 8.5 33t2.5 32q0 56 -38 91.5t-97.5 61.5t-133.5 45t-146.5 40t-137 46.5t-103.5 65.5q-6 -15 -8 -29t-2 -30q0 -55 38.5 -90.5t98 -60t134 -43.5t147 -40.5
t135.5 -50t102 -71.5z" />
    <glyph glyph-name="dieresis" unicode="&#xa8;" horiz-adv-x="800" 
d="M511 1257v180h191v-180h-191zM97 1257v180h191v-180h-191z" />
    <glyph glyph-name="copyright" unicode="&#xa9;" horiz-adv-x="1682" 
d="M841 -22q-154 0 -289 58.5t-236 159.5t-160 236.5t-59 288.5q0 154 59 289.5t160 236.5t236 159.5t289 58.5t289.5 -58.5t236.5 -159.5t159.5 -236.5t58.5 -289.5q0 -153 -58.5 -288.5t-159.5 -236.5t-236.5 -159.5t-289.5 -58.5zM841 111q128 0 238.5 47.5t191.5 130.5
t127.5 194t46.5 238q0 128 -46.5 239t-127.5 193t-191.5 129.5t-238.5 47.5q-127 0 -237.5 -47.5t-192 -130t-127.5 -193.5t-46 -238t46 -238t127.5 -194t192 -130.5t237.5 -47.5zM839 221q-115 0 -206 35t-153.5 100.5t-94.5 157.5t-32 206t35.5 206t101 157t157.5 100.5
t206 35.5q77 0 148.5 -16t139.5 -56v-122q-59 31 -122.5 45.5t-128.5 14.5q-86 0 -155.5 -24t-118.5 -70.5t-75.5 -114.5t-26.5 -156q0 -182 91.5 -274.5t274.5 -92.5q67 0 134.5 16t127.5 50v-128q-68 -39 -146 -54.5t-157 -15.5z" />
    <glyph glyph-name="ordfeminine" unicode="&#xaa;" horiz-adv-x="765" 
d="M308 851q-43 0 -81 10.5t-66.5 32t-46 55t-17.5 79.5q0 87 44.5 128t109.5 55.5t139.5 12t133.5 -2.5v25q0 40 -13 62.5t-36 33t-52 13t-62 2.5q-48 0 -95.5 -8t-93.5 -23v104q51 21 108 28t113 7q57 0 107 -11t87 -36.5t59 -68t22 -107.5v-377h-129l-9 61
q-47 -42 -103.5 -58.5t-118.5 -16.5zM353 948q53 0 96 17.5t75 61.5v100h-163q-52 0 -89.5 -16.5t-37.5 -77.5q0 -26 10 -43t27.5 -26t39 -12.5t42.5 -3.5z" />
    <glyph glyph-name="guillemotleft" unicode="&#xab;" horiz-adv-x="1379" 
d="M1188 166l-576 424v101l576 425l93 -134l-459 -342l459 -341zM674 166l-577 424v101l577 425l92 -134l-459 -342l459 -341z" />
    <glyph glyph-name="logicalnot" unicode="&#xac;" horiz-adv-x="1171" 
d="M886 314v334h-789v183h976v-517h-187z" />
    <glyph glyph-name="uni00AD" unicode="&#xad;" horiz-adv-x="1053" 
d="M97 500v184h858v-184h-858z" />
    <glyph glyph-name="registered" unicode="&#xae;" horiz-adv-x="1682" 
d="M841 -22q-154 0 -289 58.5t-236 159.5t-160 236.5t-59 288.5q0 154 59 289.5t160 236.5t236 159.5t289 58.5t289.5 -58.5t236.5 -159.5t159.5 -236.5t58.5 -289.5q0 -153 -58.5 -288.5t-159.5 -236.5t-236.5 -159.5t-289.5 -58.5zM841 111q126 0 236 47t191.5 129
t129 193.5t47.5 240.5q0 130 -47.5 241.5t-129 193t-191.5 128t-236 46.5t-236 -46.5t-191.5 -128t-128.5 -193t-47 -241.5q0 -129 47 -240.5t128.5 -193.5t191.5 -129t236 -47zM509 261v919h420q151 0 223.5 -77t72.5 -208q0 -110 -50 -176.5t-150 -90.5q27 -15 41.5 -37
t29.5 -58l113 -272h-137l-109 270q-8 22 -18.5 36t-26.5 22.5t-40.5 11.5t-60.5 3h-168v-343h-140zM649 715h216q101 0 161 35.5t60 144.5q0 99 -47 137t-143 38h-247v-355z" />
    <glyph glyph-name="macron" unicode="&#xaf;" horiz-adv-x="832" 
d="M84 1262v148h663v-148h-663z" />
    <glyph glyph-name="degree" unicode="&#xb0;" horiz-adv-x="702" 
d="M349 1120q-53 0 -99 19t-80.5 52.5t-54 79.5t-19.5 100q0 110 72 180.5t181 70.5q111 0 184 -69.5t73 -181.5q0 -111 -73.5 -181t-183.5 -70zM349 1244q54 0 91.5 36t37.5 91q0 54 -38 90t-91 36t-90 -36t-37 -90t37 -90.5t90 -36.5z" />
    <glyph glyph-name="plusminus" unicode="&#xb1;" horiz-adv-x="1059" 
d="M435 278v319h-335v183h335v328h188v-328h336v-183h-336v-319h-188zM100 0v183h859v-183h-859z" />
    <glyph glyph-name="uni00B2" unicode="&#xb2;" horiz-adv-x="669" 
d="M97 829v80q20 42 69 85.5t100 87t90 85.5t39 80q0 55 -37.5 73t-83.5 18q-41 0 -81 -8.5t-77 -23.5v124q45 19 104 27t107 8q44 0 87 -10t77 -32t55 -57.5t21 -86.5q0 -59 -27.5 -101.5t-66.5 -78t-81 -69.5t-71 -78h252v-123h-476z" />
    <glyph glyph-name="uni00B3" unicode="&#xb3;" horiz-adv-x="677" 
d="M298 811q-21 0 -47.5 2t-54.5 5.5t-53.5 9t-45.5 11.5v110q40 -16 81 -23t82 -7q24 0 50 2t48 11t36 27t14 49q0 38 -25.5 56t-61 24.5t-73 5t-61.5 -1.5l11 97q27 0 61 -0.5t64 6.5t50.5 26t20.5 57q0 27 -13 42t-32.5 23t-43.5 9.5t-44 1.5q-40 0 -78.5 -6.5
t-75.5 -21.5v110q22 7 46.5 12.5t49 9t49.5 5.5t48 2q45 0 92 -7t85.5 -26t63 -53.5t24.5 -90.5q0 -52 -22.5 -90t-69.5 -58q53 -14 79.5 -49t26.5 -90q0 -59 -25.5 -96.5t-66 -58t-90.5 -28t-99 -7.5z" />
    <glyph glyph-name="acute" unicode="&#xb4;" horiz-adv-x="563" 
d="M99 1169l168 394h196l-185 -394h-179z" />
    <glyph glyph-name="mu" unicode="&#xb5;" horiz-adv-x="1299" 
d="M142 -320v1382h233v-658q0 -129 64.5 -190t191.5 -61q84 0 159.5 33.5t133.5 94.5v781h233v-1062h-214l-11 111q-81 -73 -169.5 -103t-195.5 -30q-55 0 -106.5 18.5t-85.5 62.5v-379h-233z" />
    <glyph glyph-name="paragraph" unicode="&#xb6;" horiz-adv-x="1405" 
d="M669 -172v739q-127 0 -232 27t-180.5 87t-117.5 155.5t-42 231.5q0 140 43 239t120 161.5t184.5 92t237.5 29.5h638v-1762h-221v1579h-210v-1579h-220z" />
    <glyph glyph-name="periodcentered" unicode="&#xb7;" horiz-adv-x="392" 
d="M97 547v183h197v-183h-197z" />
    <glyph glyph-name="cedilla" unicode="&#xb8;" horiz-adv-x="667" 
d="M250 -538q-38 0 -86 6t-73 12v115q65 -18 138 -18q104 0 152 25t48 91t-46.5 86t-132.5 20h-95l63 201h148l-37 -106q125 0 189 -52.5t64 -149.5q0 -109 -79.5 -169.5t-252.5 -60.5z" />
    <glyph glyph-name="uni00B9" unicode="&#xb9;" horiz-adv-x="459" 
d="M239 829v475l-156 -32v129l324 64v-636h-168z" />
    <glyph glyph-name="ordmasculine" unicode="&#xba;" horiz-adv-x="808" 
d="M403 851q-75 0 -132 20t-95.5 58.5t-58.5 96t-20 132.5t19.5 132.5t58 96.5t95.5 58.5t133 19.5t134 -19t96.5 -57.5t58 -96.5t19.5 -134t-20 -133.5t-58.5 -96t-96.5 -58t-133 -19.5zM403 964q96 0 128 54.5t32 139.5q0 87 -32 140t-128 53q-95 0 -127.5 -54t-32.5 -139
t31.5 -139.5t128.5 -54.5z" />
    <glyph glyph-name="guillemotright" unicode="&#xbb;" horiz-adv-x="1379" 
d="M704 166l-92 133l459 341l-459 342l92 134l577 -425v-101zM189 166l-92 133l459 341l-459 342l92 134l577 -425v-101z" />
    <glyph glyph-name="onequarter" unicode="&#xbc;" horiz-adv-x="1433" 
d="M253 829v475l-156 -32v129l324 64v-636h-168zM210 0l763 1443h222l-764 -1443h-221zM1106 0v123h-325v113l314 400h173v-397h68v-116h-68v-123h-162zM929 239h213v277z" />
    <glyph glyph-name="onehalf" unicode="&#xbd;" horiz-adv-x="1452" 
d="M253 829v475l-156 -32v129l324 64v-636h-168zM210 0l763 1443h222l-764 -1443h-221zM866 0v81q21 41 70.5 84t100 86.5t89.5 86t39 80.5q0 55 -37 73t-84 18q-42 0 -81.5 -8t-78.5 -24v125q50 18 106 26t108 8q44 0 87 -10t76 -32.5t54 -57.5t21 -86q0 -59 -27.5 -101
t-66 -78t-80.5 -70t-70 -78h249v-123h-475z" />
    <glyph glyph-name="threequarters" unicode="&#xbe;" horiz-adv-x="1471" 
d="M298 811q-21 0 -47.5 2t-54.5 5.5t-53.5 9t-45.5 11.5v110q40 -16 81 -23t82 -7q24 0 50 2t48 11t36 27t14 49q0 38 -25.5 56t-61 24.5t-73 5t-61.5 -1.5l11 97q27 0 61 -0.5t64 6.5t50.5 26t20.5 57q0 27 -13 42t-32.5 23t-43.5 9.5t-44 1.5q-40 0 -78.5 -6.5
t-75.5 -21.5v110q22 7 46.5 12.5t49 9t49.5 5.5t48 2q45 0 92 -7t85.5 -26t63 -53.5t24.5 -90.5q0 -52 -22.5 -90t-69.5 -58q53 -14 79.5 -49t26.5 -90q0 -59 -25.5 -96.5t-66 -58t-90.5 -28t-99 -7.5zM248 0l763 1443h221l-764 -1443h-220zM1130 0v123h-325v113l314 400
h173v-397h67v-116h-67v-123h-162zM953 239h213v277z" />
    <glyph glyph-name="questiondown" unicode="&#xbf;" horiz-adv-x="1102" 
d="M752 700v-48q0 -83 -31 -143t-77.5 -107t-101 -86.5t-101 -81t-77.5 -90t-31 -114.5q0 -73 27 -118.5t71.5 -70.5t102 -34t117.5 -9q91 0 181.5 19.5t172.5 60.5v-198q-94 -48 -201.5 -65.5t-211.5 -17.5q-100 0 -189.5 21.5t-157.5 69.5t-108 125.5t-40 189.5
q0 90 32 154.5t79 113t102.5 88t103 81.5t79.5 92.5t33 120.5v47h226zM763 1062v-179h-248v179h248z" />
    <glyph glyph-name="Agrave" unicode="&#xc0;" horiz-adv-x="1556" 
d="M684 1541l-186 394h198l168 -394h-180zM97 0l548 1443h266l548 -1443h-242l-147 379h-585l-145 -379h-243zM522 555h511l-256 674z" />
    <glyph glyph-name="Aacute" unicode="&#xc1;" horiz-adv-x="1556" 
d="M677 1541l167 394h198l-184 -394h-181zM97 0l548 1443h266l548 -1443h-242l-147 379h-585l-145 -379h-243zM522 555h511l-256 674z" />
    <glyph glyph-name="Acircumflex" unicode="&#xc2;" horiz-adv-x="1556" 
d="M421 1540l277 356h157l277 -356h-182l-173 233l-170 -233h-186zM97 0l548 1443h266l548 -1443h-242l-147 379h-585l-145 -379h-243zM522 555h511l-256 674z" />
    <glyph glyph-name="Atilde" unicode="&#xc3;" horiz-adv-x="1556" 
d="M429 1578v167q34 38 85.5 53t100.5 15q46 0 87.5 -13.5t82 -30t81.5 -30t84 -13.5q53 0 99 19t77 63v-168q-13 -18 -33.5 -31t-43 -21t-46.5 -11.5t-46 -3.5q-45 0 -87 13.5t-83 30t-82 29.5t-83 13q-57 0 -105.5 -19.5t-87.5 -61.5zM97 0l548 1443h266l548 -1443h-242
l-147 379h-585l-145 -379h-243zM522 555h511l-256 674z" />
    <glyph glyph-name="Adieresis" unicode="&#xc4;" horiz-adv-x="1556" 
d="M477 1602v173h185v-173h-185zM892 1602v173h184v-173h-184zM97 0l548 1443h266l548 -1443h-242l-147 379h-585l-145 -379h-243zM522 555h511l-256 674z" />
    <glyph glyph-name="Aring" unicode="&#xc5;" horiz-adv-x="1556" 
d="M97 0l535 1406q-55 32 -84.5 87.5t-29.5 118.5q0 113 73.5 183t185.5 70q113 0 187 -69t74 -184q0 -64 -29.5 -118.5t-84.5 -86.5l535 -1407h-242l-147 379h-585l-145 -379h-243zM777 1474q62 0 102 37t40 101q0 63 -40 101.5t-102 38.5t-101.5 -39t-39.5 -101
q0 -61 40.5 -99.5t100.5 -38.5zM522 555h511l-256 674z" />
    <glyph glyph-name="AE" unicode="&#xc6;" horiz-adv-x="1885" 
d="M97 0l548 1443h1143v-184h-646v-445h565v-186h-565v-445h646v-183h-878v380h-420l-145 -380h-248zM547 564h363v695h-102z" />
    <glyph glyph-name="Ccedilla" unicode="&#xc7;" horiz-adv-x="1333" 
d="M757 -538q-38 0 -76 4t-74 14v115q34 -9 68 -13.5t70 -4.5q32 0 67 2.5t64.5 14t49 34.5t19.5 65q0 49 -31 71.5t-74 30.5t-90 6t-80 -2l57 182q-158 11 -276.5 66.5t-197 147.5t-117.5 219t-39 281q0 177 42 319.5t129.5 242.5t222.5 154t319 54q110 0 215.5 -15.5
t208.5 -53.5v-206q-97 40 -198.5 57t-206.5 17q-140 0 -235 -39.5t-153.5 -114.5t-83 -180.5t-24.5 -234.5q0 -127 30.5 -223.5t92.5 -161.5t156 -99t223 -34q101 0 203.5 16t196.5 53v-207q-89 -27 -178 -42t-182 -18l-29 -85q50 0 96 -9.5t80 -34t55 -63t21 -95.5
q0 -73 -30.5 -118t-80.5 -70t-110 -33.5t-120 -8.5z" />
    <glyph glyph-name="Egrave" unicode="&#xc8;" horiz-adv-x="1223" 
d="M586 1541l-187 394h198l168 -394h-179zM142 0v1443h1000v-183h-767v-446h686v-185h-686v-446h767v-183h-1000z" />
    <glyph glyph-name="Eacute" unicode="&#xc9;" horiz-adv-x="1223" 
d="M536 1541l168 394h198l-185 -394h-181zM142 0v1443h1000v-183h-767v-446h686v-185h-686v-446h767v-183h-1000z" />
    <glyph glyph-name="Ecircumflex" unicode="&#xca;" horiz-adv-x="1223" 
d="M284 1540l277 356h157l277 -356h-182l-174 233l-170 -233h-185zM142 0v1443h1000v-183h-767v-446h686v-185h-686v-446h767v-183h-1000z" />
    <glyph glyph-name="Edieresis" unicode="&#xcb;" horiz-adv-x="1223" 
d="M351 1603v174h186v-174h-186zM766 1603v174h185v-174h-185zM142 0v1443h1000v-183h-767v-446h686v-185h-686v-446h767v-183h-1000z" />
    <glyph glyph-name="Igrave" unicode="&#xcc;" horiz-adv-x="517" 
d="M168 1541l-185 394h197l168 -394h-180zM142 0v1443h233v-1443h-233z" />
    <glyph glyph-name="Iacute" unicode="&#xcd;" horiz-adv-x="518" 
d="M169 1541l168 394h198l-185 -394h-181zM142 0v1443h233v-1443h-233z" />
    <glyph glyph-name="Icircumflex" unicode="&#xce;" horiz-adv-x="518" 
d="M-97 1540l276 356h157l277 -356h-182l-173 233l-170 -233h-185zM142 0v1443h233v-1443h-233z" />
    <glyph glyph-name="Idieresis" unicode="&#xcf;" horiz-adv-x="517" 
d="M-40 1611v173h184v-173h-184zM374 1611v173h185v-173h-185zM142 0v1443h233v-1443h-233z" />
    <glyph glyph-name="Eth" unicode="&#xd0;" horiz-adv-x="1551" 
d="M246 0v622h-181v174h181v647h581q183 0 303.5 -52t192 -147.5t100.5 -230.5t29 -302q0 -164 -31 -296t-103.5 -224t-192.5 -141.5t-298 -49.5h-581zM479 183h310q138 0 222 37t130 106t61 167t15 218q0 123 -13.5 224t-58 173t-129 111.5t-227.5 39.5h-310v-463h351v-174
h-351v-439z" />
    <glyph glyph-name="Ntilde" unicode="&#xd1;" horiz-adv-x="1488" 
d="M943 1583q-45 0 -86.5 13.5t-82.5 30t-81.5 30t-84.5 13.5q-56 0 -104.5 -20t-87.5 -62v167q34 38 85.5 53t99.5 15q47 0 88.5 -13.5t82 -30t81 -30t83.5 -13.5q53 0 99.5 19t77.5 63v-168q-13 -18 -33.5 -31t-43 -21t-46.5 -11.5t-47 -3.5zM142 0v1443h206l764 -1075
v1075h234v-1443h-207l-764 1073v-1073h-233z" />
    <glyph glyph-name="Ograve" unicode="&#xd2;" horiz-adv-x="1556" 
d="M700 1541l-185 394h197l168 -394h-180zM778 -22q-179 0 -307 50.5t-211 146t-123 231.5t-40 306q0 176 36 316t116 237t210 148.5t319 51.5q188 0 318.5 -51t210.5 -148t116 -237t36 -317q0 -171 -39.5 -307.5t-122.5 -231t-212 -145t-307 -50.5zM778 177q128 0 213.5 41
t136.5 112.5t72.5 169t21.5 212.5q0 120 -18 221.5t-67 175t-135 114.5t-224 41q-137 0 -223.5 -41t-135.5 -115t-67.5 -175.5t-18.5 -220.5q0 -114 21.5 -211.5t73 -169.5t137 -113t213.5 -41z" />
    <glyph glyph-name="Oacute" unicode="&#xd3;" horiz-adv-x="1556" 
d="M678 1541l168 394h197l-184 -394h-181zM778 -22q-179 0 -307 50.5t-211 146t-123 231.5t-40 306q0 176 36 316t116 237t210 148.5t319 51.5q188 0 318.5 -51t210.5 -148t116 -237t36 -317q0 -171 -39.5 -307.5t-122.5 -231t-212 -145t-307 -50.5zM778 177q128 0 213.5 41
t136.5 112.5t72.5 169t21.5 212.5q0 120 -18 221.5t-67 175t-135 114.5t-224 41q-137 0 -223.5 -41t-135.5 -115t-67.5 -175.5t-18.5 -220.5q0 -114 21.5 -211.5t73 -169.5t137 -113t213.5 -41z" />
    <glyph glyph-name="Ocircumflex" unicode="&#xd4;" horiz-adv-x="1556" 
d="M423 1540l276 356h157l277 -356h-182l-173 233l-170 -233h-185zM778 -22q-179 0 -307 50.5t-211 146t-123 231.5t-40 306q0 176 36 316t116 237t210 148.5t319 51.5q188 0 318.5 -51t210.5 -148t116 -237t36 -317q0 -171 -39.5 -307.5t-122.5 -231t-212 -145t-307 -50.5z
M778 177q128 0 213.5 41t136.5 112.5t72.5 169t21.5 212.5q0 120 -18 221.5t-67 175t-135 114.5t-224 41q-137 0 -223.5 -41t-135.5 -115t-67.5 -175.5t-18.5 -220.5q0 -114 21.5 -211.5t73 -169.5t137 -113t213.5 -41z" />
    <glyph glyph-name="Otilde" unicode="&#xd5;" horiz-adv-x="1556" 
d="M958 1598q-45 0 -87 13.5t-82.5 30t-81.5 30t-84 13.5q-57 0 -105.5 -20t-86.5 -61v167q34 37 85 52t100 15q46 0 87.5 -13.5t82.5 -29.5t81.5 -30t83.5 -14q53 0 99 19.5t77 63.5v-168q-13 -18 -33 -31t-43 -21.5t-47 -12t-46 -3.5zM778 -22q-179 0 -307 50.5t-211 146
t-123 231.5t-40 306q0 176 36 316t116 237t210 148.5t319 51.5q188 0 318.5 -51t210.5 -148t116 -237t36 -317q0 -171 -39.5 -307.5t-122.5 -231t-212 -145t-307 -50.5zM778 177q128 0 213.5 41t136.5 112.5t72.5 169t21.5 212.5q0 120 -18 221.5t-67 175t-135 114.5
t-224 41q-137 0 -223.5 -41t-135.5 -115t-67.5 -175.5t-18.5 -220.5q0 -114 21.5 -211.5t73 -169.5t137 -113t213.5 -41z" />
    <glyph glyph-name="Odieresis" unicode="&#xd6;" horiz-adv-x="1556" 
d="M479 1603v174h184v-174h-184zM893 1603v174h184v-174h-184zM778 -22q-179 0 -307 50.5t-211 146t-123 231.5t-40 306q0 176 36 316t116 237t210 148.5t319 51.5q188 0 318.5 -51t210.5 -148t116 -237t36 -317q0 -171 -39.5 -307.5t-122.5 -231t-212 -145t-307 -50.5z
M778 177q128 0 213.5 41t136.5 112.5t72.5 169t21.5 212.5q0 120 -18 221.5t-67 175t-135 114.5t-224 41q-137 0 -223.5 -41t-135.5 -115t-67.5 -175.5t-18.5 -220.5q0 -114 21.5 -211.5t73 -169.5t137 -113t213.5 -41z" />
    <glyph glyph-name="multiply" unicode="&#xd7;" horiz-adv-x="921" 
d="M708 194l-245 245l-237 -234l-120 120l236 235l-245 243l119 119l240 -245l247 244l120 -120l-245 -246l245 -244z" />
    <glyph glyph-name="Oslash" unicode="&#xd8;" horiz-adv-x="1556" 
d="M372 -119l60 162q-99 45 -164 117.5t-102.5 161.5t-53 189t-15.5 201q0 178 35.5 317.5t116.5 236t211 148t318 51.5q45 0 90 -4t90 -11l38 102h140l-51 -135q115 -41 187.5 -115t114 -168.5t57 -203.5t15.5 -218q0 -171 -39.5 -307.5t-123 -231.5t-211.5 -145t-307 -50
q-56 0 -111.5 6.5t-109.5 18.5l-44 -122h-141zM512 251l372 1005q-27 3 -53 5.5t-53 2.5q-137 0 -223 -40.5t-135 -113.5t-68 -174.5t-19 -223.5q0 -62 7.5 -128t27 -127.5t54.5 -115t90 -90.5zM778 177q128 0 213 40.5t136.5 112t73 169t21.5 213.5q0 70 -8 144.5
t-30.5 143.5t-65 125.5t-112.5 88.5l-374 -1019q36 -10 72.5 -14t73.5 -4z" />
    <glyph glyph-name="Ugrave" unicode="&#xd9;" horiz-adv-x="1505" 
d="M696 1541l-186 394h198l168 -394h-180zM753 -22q-137 0 -251.5 32t-197 100t-128 173.5t-45.5 251.5v908h233v-900q0 -93 27.5 -161.5t78 -113.5t122.5 -67.5t161 -22.5t161.5 22t122.5 67t77 113.5t27 162.5v900h233v-908q0 -146 -45 -252t-127 -173.5t-196.5 -99.5
t-252.5 -32z" />
    <glyph glyph-name="Uacute" unicode="&#xda;" horiz-adv-x="1505" 
d="M651 1541l168 394h198l-185 -394h-181zM753 -22q-137 0 -251.5 32t-197 100t-128 173.5t-45.5 251.5v908h233v-900q0 -93 27.5 -161.5t78 -113.5t122.5 -67.5t161 -22.5t161.5 22t122.5 67t77 113.5t27 162.5v900h233v-908q0 -146 -45 -252t-127 -173.5t-196.5 -99.5
t-252.5 -32z" />
    <glyph glyph-name="Ucircumflex" unicode="&#xdb;" horiz-adv-x="1505" 
d="M397 1540l277 356h157l277 -356h-182l-173 233l-170 -233h-186zM753 -22q-137 0 -251.5 32t-197 100t-128 173.5t-45.5 251.5v908h233v-900q0 -93 27.5 -161.5t78 -113.5t122.5 -67.5t161 -22.5t161.5 22t122.5 67t77 113.5t27 162.5v900h233v-908q0 -146 -45 -252
t-127 -173.5t-196.5 -99.5t-252.5 -32z" />
    <glyph glyph-name="Udieresis" unicode="&#xdc;" horiz-adv-x="1505" 
d="M453 1603v174h185v-174h-185zM868 1603v174h184v-174h-184zM753 -22q-137 0 -251.5 32t-197 100t-128 173.5t-45.5 251.5v908h233v-900q0 -93 27.5 -161.5t78 -113.5t122.5 -67.5t161 -22.5t161.5 22t122.5 67t77 113.5t27 162.5v900h233v-908q0 -146 -45 -252
t-127 -173.5t-196.5 -99.5t-252.5 -32z" />
    <glyph glyph-name="Yacute" unicode="&#xdd;" horiz-adv-x="1460" 
d="M618 1541l168 394h198l-185 -394h-181zM613 0v536l-516 907h243l390 -704l390 704h242l-515 -907v-536h-234z" />
    <glyph glyph-name="Thorn" unicode="&#xde;" horiz-adv-x="1313" 
d="M142 0v1443h233v-251h404q115 0 204.5 -30.5t150.5 -91t93.5 -149t32.5 -204.5q0 -111 -36 -198.5t-100.5 -148t-154.5 -92.5t-199 -32h-395v-246h-233zM375 429h351q139 0 218 73.5t79 214.5q0 144 -70 218t-216 74h-362v-580z" />
    <glyph glyph-name="germandbls" unicode="&#xdf;" horiz-adv-x="1408" 
d="M854 -22q-79 0 -161.5 9.5t-156.5 39.5v190q64 -26 132.5 -36t137.5 -10q128 0 198.5 68.5t70.5 196.5q0 109 -41.5 163t-106.5 75t-147.5 19.5t-163.5 -1.5v174h162q48 0 91.5 15t77 45.5t53 77.5t19.5 110q0 75 -25.5 124t-69 77t-102.5 40t-125 12q-171 0 -252 -83
t-81 -254v-1030h-233v1042q0 128 41.5 226t116.5 165t178 101t226 34q107 0 207.5 -26t179.5 -80t127 -139.5t48 -204.5q0 -102 -43 -195.5t-138 -140.5q62 -18 107 -53t73.5 -82t42 -104.5t13.5 -118.5q0 -106 -31 -190t-90 -140.5t-143.5 -86t-191.5 -29.5z" />
    <glyph glyph-name="agrave" unicode="&#xe0;" horiz-adv-x="1219" 
d="M565 1169l-186 394h198l168 -394h-180zM470 -22q-74 0 -142 18t-119 56.5t-81.5 98.5t-30.5 142q0 83 25.5 141t69 94.5t98.5 56t114.5 28t117.5 9.5t108 1h235v73q0 74 -23 118.5t-62.5 67.5t-95 29.5t-120.5 6.5q-88 0 -174.5 -13.5t-168.5 -42.5v158q45 19 94.5 31
t100 19t101 10.5t98.5 3.5q104 0 190.5 -19.5t150 -65t98 -123t34.5 -191.5v-685h-201l-14 114q-81 -83 -187 -109.5t-216 -26.5zM542 128q96 0 177.5 31t145.5 105v215h-334q-47 0 -87 -7.5t-70.5 -28t-47.5 -54.5t-17 -88q0 -51 19.5 -85t52 -53t75 -27t86.5 -8z" />
    <glyph glyph-name="aacute" unicode="&#xe1;" horiz-adv-x="1219" 
d="M534 1169l167 394h198l-185 -394h-180zM470 -22q-74 0 -142 18t-119 56.5t-81.5 98.5t-30.5 142q0 83 25.5 141t69 94.5t98.5 56t114.5 28t117.5 9.5t108 1h235v73q0 74 -23 118.5t-62.5 67.5t-95 29.5t-120.5 6.5q-88 0 -174.5 -13.5t-168.5 -42.5v158q45 19 94.5 31
t100 19t101 10.5t98.5 3.5q104 0 190.5 -19.5t150 -65t98 -123t34.5 -191.5v-685h-201l-14 114q-81 -83 -187 -109.5t-216 -26.5zM542 128q96 0 177.5 31t145.5 105v215h-334q-47 0 -87 -7.5t-70.5 -28t-47.5 -54.5t-17 -88q0 -51 19.5 -85t52 -53t75 -27t86.5 -8z" />
    <glyph glyph-name="acircumflex" unicode="&#xe2;" horiz-adv-x="1219" 
d="M284 1168l276 357h157l277 -357h-182l-173 233l-170 -233h-185zM470 -22q-74 0 -142 18t-119 56.5t-81.5 98.5t-30.5 142q0 83 25.5 141t69 94.5t98.5 56t114.5 28t117.5 9.5t108 1h235v73q0 74 -23 118.5t-62.5 67.5t-95 29.5t-120.5 6.5q-88 0 -174.5 -13.5
t-168.5 -42.5v158q45 19 94.5 31t100 19t101 10.5t98.5 3.5q104 0 190.5 -19.5t150 -65t98 -123t34.5 -191.5v-685h-201l-14 114q-81 -83 -187 -109.5t-216 -26.5zM542 128q96 0 177.5 31t145.5 105v215h-334q-47 0 -87 -7.5t-70.5 -28t-47.5 -54.5t-17 -88q0 -51 19.5 -85
t52 -53t75 -27t86.5 -8z" />
    <glyph glyph-name="atilde" unicode="&#xe3;" horiz-adv-x="1219" 
d="M830 1211q-47 0 -89 13.5t-83 29.5t-81 30t-82 14q-57 0 -105.5 -20t-87.5 -62v167q33 37 85.5 52.5t100.5 15.5q46 0 88 -13.5t82.5 -30t80.5 -30t84 -13.5q53 0 99 19t77 64v-169q-28 -38 -76 -52.5t-93 -14.5zM470 -22q-74 0 -142 18t-119 56.5t-81.5 98.5t-30.5 142
q0 83 25.5 141t69 94.5t98.5 56t114.5 28t117.5 9.5t108 1h235v73q0 74 -23 118.5t-62.5 67.5t-95 29.5t-120.5 6.5q-88 0 -174.5 -13.5t-168.5 -42.5v158q45 19 94.5 31t100 19t101 10.5t98.5 3.5q104 0 190.5 -19.5t150 -65t98 -123t34.5 -191.5v-685h-201l-14 114
q-81 -83 -187 -109.5t-216 -26.5zM542 128q96 0 177.5 31t145.5 105v215h-334q-47 0 -87 -7.5t-70.5 -28t-47.5 -54.5t-17 -88q0 -51 19.5 -85t52 -53t75 -27t86.5 -8z" />
    <glyph glyph-name="adieresis" unicode="&#xe4;" horiz-adv-x="1219" 
d="M351 1231v174h184v-174h-184zM765 1231v174h185v-174h-185zM470 -22q-74 0 -142 18t-119 56.5t-81.5 98.5t-30.5 142q0 83 25.5 141t69 94.5t98.5 56t114.5 28t117.5 9.5t108 1h235v73q0 74 -23 118.5t-62.5 67.5t-95 29.5t-120.5 6.5q-88 0 -174.5 -13.5t-168.5 -42.5
v158q45 19 94.5 31t100 19t101 10.5t98.5 3.5q104 0 190.5 -19.5t150 -65t98 -123t34.5 -191.5v-685h-201l-14 114q-81 -83 -187 -109.5t-216 -26.5zM542 128q96 0 177.5 31t145.5 105v215h-334q-47 0 -87 -7.5t-70.5 -28t-47.5 -54.5t-17 -88q0 -51 19.5 -85t52 -53t75 -27
t86.5 -8z" />
    <glyph glyph-name="aring" unicode="&#xe5;" horiz-adv-x="1219" 
d="M657 1168q-54 0 -101.5 18.5t-82.5 51t-54.5 79.5t-19.5 102q0 114 73 183.5t185 69.5q114 0 188 -68.5t74 -184.5q0 -113 -75.5 -182t-186.5 -69zM657 1282q62 0 102.5 37t40.5 100t-39.5 101.5t-103.5 38.5q-61 0 -100.5 -39.5t-39.5 -100.5t40 -99t100 -38zM470 -22
q-74 0 -142 18t-119 56.5t-81.5 98.5t-30.5 142q0 83 25.5 141t69 94.5t98.5 56t114.5 28t117.5 9.5t108 1h235v73q0 74 -23 118.5t-62.5 67.5t-95 29.5t-120.5 6.5q-88 0 -174.5 -13.5t-168.5 -42.5v158q45 19 94.5 31t100 19t101 10.5t98.5 3.5q104 0 190.5 -19.5t150 -65
t98 -123t34.5 -191.5v-685h-201l-14 114q-81 -83 -187 -109.5t-216 -26.5zM542 128q96 0 177.5 31t145.5 105v215h-334q-47 0 -87 -7.5t-70.5 -28t-47.5 -54.5t-17 -88q0 -51 19.5 -85t52 -53t75 -27t86.5 -8z" />
    <glyph glyph-name="ae" unicode="&#xe6;" horiz-adv-x="1971" 
d="M487 -22q-78 0 -147.5 17t-123.5 54.5t-86.5 97.5t-32.5 146q0 127 56 193.5t141.5 97t188.5 35t195 4.5h187v73q0 74 -22.5 118t-61.5 67.5t-94 30t-120 6.5q-89 0 -176.5 -13.5t-169.5 -42.5v158q45 19 94.5 31t100 19t101 10.5t98.5 3.5q58 0 113.5 -7t106 -24.5
t92 -50t68.5 -83.5q72 93 175.5 129t220.5 36q108 0 197 -28.5t152.5 -85.5t98 -141t34.5 -195v-188h-785q9 -90 43.5 -149.5t88.5 -93.5t125.5 -48t156.5 -14q76 0 156 14.5t150 41.5v-157q-82 -36 -175.5 -49t-182.5 -13q-66 0 -133 9.5t-127.5 33.5t-111 64t-86.5 99
q-50 -59 -106.5 -99t-119.5 -64t-132.5 -33.5t-146.5 -9.5zM1088 590h580v77q0 134 -72.5 194t-202.5 60q-82 0 -140 -22t-95 -64t-53.5 -103.5t-16.5 -141.5zM542 128q50 0 101.5 11t95.5 34t77.5 58.5t48.5 83.5v164h-334q-47 0 -87 -7.5t-70.5 -28t-47.5 -54.5t-17 -88
q0 -51 19.5 -85t52 -53t75 -27t86.5 -8z" />
    <glyph glyph-name="ccedilla" unicode="&#xe7;" horiz-adv-x="1098" 
d="M573 -538q-38 0 -76.5 4t-74.5 14v115q35 -9 69 -13.5t70 -4.5q32 0 66.5 2.5t64.5 14t49 34.5t19 65q0 49 -30.5 71.5t-73.5 30.5t-90 6t-79 -2l57 186q-116 16 -200.5 60.5t-139.5 114.5t-81 163.5t-26 207.5q0 137 40 240.5t114.5 173t181.5 104.5t240 35
q89 0 167.5 -12.5t159.5 -51.5v-171q-68 32 -137 45.5t-143 13.5q-96 0 -168 -23t-121 -69.5t-73.5 -117t-24.5 -167.5q0 -98 22.5 -169.5t69 -117.5t118.5 -68t170 -22q75 0 147.5 15.5t140.5 46.5v-177q-74 -32 -151.5 -45t-158.5 -15l-30 -85q52 0 97.5 -9.5t80 -34
t55 -63t20.5 -95.5q0 -73 -31 -118t-80.5 -70t-109.5 -33.5t-120 -8.5z" />
    <glyph glyph-name="egrave" unicode="&#xe8;" horiz-adv-x="1197" 
d="M533 1169l-186 394h197l168 -394h-179zM677 -22q-140 0 -248 33.5t-182 102.5t-112 174t-38 247q0 128 32 230t96 172.5t162.5 108.5t230.5 38q108 0 196.5 -28.5t152 -85t98.5 -141t35 -195.5v-188h-785q10 -90 45 -148t89 -92.5t124.5 -48t155.5 -13.5q76 0 155.5 13
t150.5 43v-160q-85 -35 -176 -48.5t-182 -13.5zM315 590h579v77q0 135 -72 194.5t-202 59.5q-83 0 -141 -22t-94.5 -64.5t-53 -104t-16.5 -140.5z" />
    <glyph glyph-name="eacute" unicode="&#xe9;" horiz-adv-x="1197" 
d="M523 1169l169 394h198l-185 -394h-182zM677 -22q-140 0 -248 33.5t-182 102.5t-112 174t-38 247q0 128 32 230t96 172.5t162.5 108.5t230.5 38q108 0 196.5 -28.5t152 -85t98.5 -141t35 -195.5v-188h-785q10 -90 45 -148t89 -92.5t124.5 -48t155.5 -13.5q76 0 155.5 13
t150.5 43v-160q-85 -35 -176 -48.5t-182 -13.5zM315 590h579v77q0 135 -72 194.5t-202 59.5q-83 0 -141 -22t-94.5 -64.5t-53 -104t-16.5 -140.5z" />
    <glyph glyph-name="ecircumflex" unicode="&#xea;" horiz-adv-x="1197" 
d="M266 1168l276 357h157l277 -357h-182l-174 233l-169 -233h-185zM677 -22q-140 0 -248 33.5t-182 102.5t-112 174t-38 247q0 128 32 230t96 172.5t162.5 108.5t230.5 38q108 0 196.5 -28.5t152 -85t98.5 -141t35 -195.5v-188h-785q10 -90 45 -148t89 -92.5t124.5 -48
t155.5 -13.5q76 0 155.5 13t150.5 43v-160q-85 -35 -176 -48.5t-182 -13.5zM315 590h579v77q0 135 -72 194.5t-202 59.5q-83 0 -141 -22t-94.5 -64.5t-53 -104t-16.5 -140.5z" />
    <glyph glyph-name="edieresis" unicode="&#xeb;" horiz-adv-x="1197" 
d="M321 1231v174h184v-174h-184zM735 1231v174h184v-174h-184zM677 -22q-140 0 -248 33.5t-182 102.5t-112 174t-38 247q0 128 32 230t96 172.5t162.5 108.5t230.5 38q108 0 196.5 -28.5t152 -85t98.5 -141t35 -195.5v-188h-785q10 -90 45 -148t89 -92.5t124.5 -48
t155.5 -13.5q76 0 155.5 13t150.5 43v-160q-85 -35 -176 -48.5t-182 -13.5zM315 590h579v77q0 135 -72 194.5t-202 59.5q-83 0 -141 -22t-94.5 -64.5t-53 -104t-16.5 -140.5z" />
    <glyph glyph-name="igrave" unicode="&#xec;" horiz-adv-x="682" 
d="M321 1169l-186 394h198l168 -394h-180zM306 0v885h-164l18 177h379v-1062h-233z" />
    <glyph glyph-name="iacute" unicode="&#xed;" horiz-adv-x="682" 
d="M295 1169l168 394h198l-185 -394h-181zM306 0v885h-164l18 177h379v-1062h-233z" />
    <glyph glyph-name="icircumflex" unicode="&#xee;" horiz-adv-x="682" 
d="M-1 1168l277 357h157l276 -357h-181l-174 233l-170 -233h-185zM306 0v885h-164l18 177h379v-1062h-233z" />
    <glyph glyph-name="idieresis" unicode="&#xef;" horiz-adv-x="682" 
d="M46 1231v174h184v-174h-184zM460 1231v174h185v-174h-185zM306 0v885h-164l18 177h379v-1062h-233z" />
    <glyph glyph-name="eth" unicode="&#xf0;" horiz-adv-x="1277" 
d="M636 -22q-115 0 -213 26t-171 81.5t-114 144t-41 212.5q0 119 35.5 205t100.5 141.5t157.5 82t204.5 26.5q96 0 191.5 -29t173.5 -86v101q0 73 -11 149t-50 139l-277 -120v100l213 91q-48 38 -105.5 52.5t-117.5 14.5q-83 0 -162.5 -12.5t-156.5 -43.5v160q86 30 174 41
t178 11q106 0 206.5 -30.5t176.5 -108.5l207 91v-100l-149 -65q56 -90 74.5 -193.5t18.5 -207.5v-316q0 -137 -32.5 -241.5t-99.5 -174.5t-169.5 -105.5t-241.5 -35.5zM635 137q170 0 247.5 84t77.5 250v164q-71 54 -153 82t-171 28q-155 0 -241.5 -69.5t-86.5 -233.5
q0 -156 89 -230.5t238 -74.5z" />
    <glyph glyph-name="ntilde" unicode="&#xf1;" horiz-adv-x="1288" 
d="M843 1211q-44 0 -86 13.5t-82.5 30t-82 30t-84.5 13.5q-56 0 -104.5 -19.5t-87.5 -62.5v167q34 38 85 53t101 15q46 0 87.5 -13.5t82.5 -29.5t81 -30t84 -14q53 0 98.5 19t77.5 64v-169q-13 -18 -33 -30.5t-43 -21t-47.5 -12t-46.5 -3.5zM142 0v1062h214l11 -112
q91 69 192 101.5t214 32.5q203 0 293.5 -95.5t90.5 -295.5v-693h-233v677q0 68 -14 112.5t-43.5 71t-76 37t-112.5 10.5q-85 0 -163.5 -35t-139.5 -94v-779h-233z" />
    <glyph glyph-name="ograve" unicode="&#xf2;" horiz-adv-x="1294" 
d="M568 1169l-186 394h197l168 -394h-179zM647 -22q-138 0 -241.5 35t-171.5 104.5t-102.5 173t-34.5 240.5q0 135 34.5 238.5t103 174t171.5 105.5t241 35t241 -34.5t171.5 -104t103 -173t34.5 -241.5t-34 -242t-102.5 -173.5t-172 -103.5t-241.5 -34zM647 163
q93 0 154 25.5t96.5 73t49.5 115.5t14 154t-13.5 154t-49 115.5t-96.5 73t-155 25.5q-93 0 -153.5 -26t-96 -74t-50 -116t-14.5 -152q0 -85 14 -153t49 -116t96 -73.5t155 -25.5z" />
    <glyph glyph-name="oacute" unicode="&#xf3;" horiz-adv-x="1294" 
d="M548 1169l168 394h198l-185 -394h-181zM647 -22q-138 0 -241.5 35t-171.5 104.5t-102.5 173t-34.5 240.5q0 135 34.5 238.5t103 174t171.5 105.5t241 35t241 -34.5t171.5 -104t103 -173t34.5 -241.5t-34 -242t-102.5 -173.5t-172 -103.5t-241.5 -34zM647 163
q93 0 154 25.5t96.5 73t49.5 115.5t14 154t-13.5 154t-49 115.5t-96.5 73t-155 25.5q-93 0 -153.5 -26t-96 -74t-50 -116t-14.5 -152q0 -85 14 -153t49 -116t96 -73.5t155 -25.5z" />
    <glyph glyph-name="ocircumflex" unicode="&#xf4;" horiz-adv-x="1294" 
d="M287 1168l276 357h157l276 -357h-181l-173 233l-170 -233h-185zM647 -22q-138 0 -241.5 35t-171.5 104.5t-102.5 173t-34.5 240.5q0 135 34.5 238.5t103 174t171.5 105.5t241 35t241 -34.5t171.5 -104t103 -173t34.5 -241.5t-34 -242t-102.5 -173.5t-172 -103.5
t-241.5 -34zM647 163q93 0 154 25.5t96.5 73t49.5 115.5t14 154t-13.5 154t-49 115.5t-96.5 73t-155 25.5q-93 0 -153.5 -26t-96 -74t-50 -116t-14.5 -152q0 -85 14 -153t49 -116t96 -73.5t155 -25.5z" />
    <glyph glyph-name="otilde" unicode="&#xf5;" horiz-adv-x="1294" 
d="M826 1226q-45 0 -87 13.5t-82.5 30t-81 30t-84.5 13.5q-56 0 -104.5 -19.5t-87.5 -61.5v167q34 37 85.5 52.5t100.5 15.5q45 0 87 -14t82.5 -30t81 -30t84.5 -14q52 0 98.5 19.5t78.5 63.5v-168q-15 -18 -35 -31t-43 -21.5t-47 -12t-46 -3.5zM647 -22q-138 0 -241.5 35
t-171.5 104.5t-102.5 173t-34.5 240.5q0 135 34.5 238.5t103 174t171.5 105.5t241 35t241 -34.5t171.5 -104t103 -173t34.5 -241.5t-34 -242t-102.5 -173.5t-172 -103.5t-241.5 -34zM647 163q93 0 154 25.5t96.5 73t49.5 115.5t14 154t-13.5 154t-49 115.5t-96.5 73
t-155 25.5q-93 0 -153.5 -26t-96 -74t-50 -116t-14.5 -152q0 -85 14 -153t49 -116t96 -73.5t155 -25.5z" />
    <glyph glyph-name="odieresis" unicode="&#xf6;" horiz-adv-x="1294" 
d="M347 1231v174h185v-174h-185zM761 1231v174h185v-174h-185zM647 -22q-138 0 -241.5 35t-171.5 104.5t-102.5 173t-34.5 240.5q0 135 34.5 238.5t103 174t171.5 105.5t241 35t241 -34.5t171.5 -104t103 -173t34.5 -241.5t-34 -242t-102.5 -173.5t-172 -103.5t-241.5 -34z
M647 163q93 0 154 25.5t96.5 73t49.5 115.5t14 154t-13.5 154t-49 115.5t-96.5 73t-155 25.5q-93 0 -153.5 -26t-96 -74t-50 -116t-14.5 -152q0 -85 14 -153t49 -116t96 -73.5t155 -25.5z" />
    <glyph glyph-name="divide" unicode="&#xf7;" horiz-adv-x="1053" 
d="M434 881v174h185v-174h-185zM97 500v184h858v-184h-858zM434 139v174h185v-174h-185z" />
    <glyph glyph-name="oslash" unicode="&#xf8;" horiz-adv-x="1294" 
d="M344 -120l49 135q-86 30 -143.5 83t-90.5 121t-47.5 148t-14.5 164q0 136 34.5 239.5t103 173t172 105t240.5 35.5q34 0 69 -2.5t70 -10.5l41 112h137l-53 -143q84 -32 139 -84.5t87.5 -119.5t46 -145t13.5 -160q0 -139 -34.5 -242.5t-102.5 -172.5t-171 -103.5
t-242 -34.5q-34 0 -65.5 2t-63.5 7l-39 -107h-135zM467 205l250 689q-17 5 -34.5 7t-35.5 2q-93 0 -155 -25.5t-98.5 -74t-51.5 -117.5t-15 -155q0 -47 5 -95.5t20 -92t42.5 -80t72.5 -58.5zM647 159q94 0 155 25.5t98.5 74t52.5 117.5t15 155q0 44 -5 90.5t-19 89.5
t-39.5 80t-66.5 61l-251 -689q15 -2 29 -3t31 -1z" />
    <glyph glyph-name="ugrave" unicode="&#xf9;" horiz-adv-x="1288" 
d="M574 1169l-186 394h197l168 -394h-179zM527 -22q-199 0 -297.5 110t-98.5 304v670h233v-658q0 -130 64 -190.5t191 -60.5q84 0 160 33t134 95v781h233v-1062h-214l-12 111q-87 -73 -184 -103t-209 -30z" />
    <glyph glyph-name="uacute" unicode="&#xfa;" horiz-adv-x="1288" 
d="M516 1169l168 394h198l-185 -394h-181zM527 -22q-199 0 -297.5 110t-98.5 304v670h233v-658q0 -130 64 -190.5t191 -60.5q84 0 160 33t134 95v781h233v-1062h-214l-12 111q-87 -73 -184 -103t-209 -30z" />
    <glyph glyph-name="ucircumflex" unicode="&#xfb;" horiz-adv-x="1288" 
d="M282 1168l277 357h157l277 -357h-181l-174 233l-171 -233h-185zM527 -22q-199 0 -297.5 110t-98.5 304v670h233v-658q0 -130 64 -190.5t191 -60.5q84 0 160 33t134 95v781h233v-1062h-214l-12 111q-87 -73 -184 -103t-209 -30z" />
    <glyph glyph-name="udieresis" unicode="&#xfc;" horiz-adv-x="1288" 
d="M337 1231v174h184v-174h-184zM750 1231v174h186v-174h-186zM527 -22q-199 0 -297.5 110t-98.5 304v670h233v-658q0 -130 64 -190.5t191 -60.5q84 0 160 33t134 95v781h233v-1062h-214l-12 111q-87 -73 -184 -103t-209 -30z" />
    <glyph glyph-name="yacute" unicode="&#xfd;" horiz-adv-x="1329" 
d="M575 1169l168 394h198l-185 -394h-181zM374 -394q-51 0 -103 5.5t-101 25.5v168q34 -12 67.5 -17.5t69.5 -5.5q56 0 95.5 19t69.5 51.5t52.5 74t43.5 86.5l-471 1049h244l344 -809l350 809h242l-434 -1004q-33 -78 -73.5 -159t-95 -146t-127.5 -106t-173 -41z" />
    <glyph glyph-name="thorn" unicode="&#xfe;" horiz-adv-x="1298" 
d="M142 -484v2052h233v-589q74 58 158 81.5t178 23.5q133 0 226.5 -40.5t151.5 -113.5t84.5 -175.5t26.5 -226.5q0 -123 -29 -225t-90 -174t-155.5 -111.5t-224.5 -39.5q-90 0 -170 20t-156 71v-553h-233zM642 153q92 0 154 29t99.5 80.5t53 122t15.5 153.5t-13.5 151.5
t-48.5 117.5t-95 75.5t-154 26.5q-81 0 -150.5 -28.5t-127.5 -85.5v-548q62 -48 125 -71t142 -23z" />
    <glyph glyph-name="ydieresis" unicode="&#xff;" horiz-adv-x="1329" 
d="M394 1253v173h185v-173h-185zM809 1253v173h184v-173h-184zM374 -394q-51 0 -103 5.5t-101 25.5v168q34 -12 67.5 -17.5t69.5 -5.5q56 0 95.5 19t69.5 51.5t52.5 74t43.5 86.5l-471 1049h244l344 -809l350 809h242l-434 -1004q-33 -78 -73.5 -159t-95 -146t-127.5 -106
t-173 -41z" />
    <glyph glyph-name="uni060C" unicode="&#x60c;" horiz-adv-x="655" 
d="M450 39q-50 -44 -125 -44q-72 0 -121 51.5t-49 129.5v197q2 124 76.5 213t190.5 108l60 10l20 -152l-84 -13q-38 -7 -65.5 -40.5t-27.5 -77.5v-129q77 23 126 -9t49 -117q0 -83 -50 -127z" />
    <glyph glyph-name="uni0615" unicode="&#x615;" 
d="M58 1689q52 0 87.5 25.5t35.5 62.5q0 49 -28 88.5t-91 39.5q-61 0 -105.5 -66.5t-74.5 -149.5h176zM-237 2226h119v-313q82 110 180 110q107 0 172 -73t65 -173q0 -57 -31.5 -104t-86.5 -74.5t-123 -27.5h-357v118h55q0 1 1 2q3 16 6 27v508z" />
    <glyph glyph-name="uni0615" unicode="&#xfbc0;" 
d="M58 1689q52 0 87.5 25.5t35.5 62.5q0 49 -28 88.5t-91 39.5q-61 0 -105.5 -66.5t-74.5 -149.5h176zM-237 2226h119v-313q82 110 180 110q107 0 172 -73t65 -173q0 -57 -31.5 -104t-86.5 -74.5t-123 -27.5h-357v118h55q0 1 1 2q3 16 6 27v508z" />
    <glyph glyph-name="uni0615" unicode="&#xe0bf;" 
d="M58 1689q52 0 87.5 25.5t35.5 62.5q0 49 -28 88.5t-91 39.5q-61 0 -105.5 -66.5t-74.5 -149.5h176zM-237 2226h119v-313q82 110 180 110q107 0 172 -73t65 -173q0 -57 -31.5 -104t-86.5 -74.5t-123 -27.5h-357v118h55q0 1 1 2q3 16 6 27v508z" />
    <glyph glyph-name="uni061B" unicode="&#x61b;" horiz-adv-x="656" 
d="M450 406q-50 -44 -126 -44q-71 0 -120 51.5t-49 129.5v197q2 124 76.5 213t190.5 108l60 10l20 -151l-84 -14q-38 -7 -65.5 -40t-27.5 -77v-130q77 23 126 -9t49 -117q0 -83 -50 -127zM441 0h-214v204h214v-204z" />
    <glyph glyph-name="uni061F" unicode="&#x61f;" horiz-adv-x="1151" 
d="M540 0v189h251v-189h-251zM556 364v38q0 85 -75 156.5t-158 136.5q-106 89 -153 166t-47 192q0 193 122 297t370 104q243 0 413 -186l-155 -179q-112 151 -254 152q-255 0 -255 -213q0 -88 44.5 -141.5t140.5 -131.5q89 -72 158.5 -146t68.5 -198v-47h-220z" />
    <glyph glyph-name="uni0640" unicode="&#x640;" horiz-adv-x="301" 
d="M301 220v-220h-301q-41 25 -55.5 67.5t0 85t55.5 67.5h301z" />
    <glyph glyph-name="uni0640" unicode="&#xe0b5;" horiz-adv-x="301" 
d="M301 220v-220h-301q-41 25 -55.5 67.5t0 85t55.5 67.5h301z" />
    <glyph glyph-name="uni0653" unicode="&#x653;" 
d="M-389 53l61 154q34 85 109.5 136t167.5 51h453v-144h-453q-48 1 -86.5 -25.5t-57.5 -70.5l-60 -154z" />
    <glyph glyph-name="uni0653" unicode="&#xe010;" 
d="M-389 53l61 154q34 85 109.5 136t167.5 51h453v-144h-453q-48 1 -86.5 -25.5t-57.5 -70.5l-60 -154z" />
    <glyph glyph-name="uni0654" unicode="&#x654;" 
d="M-216 1877l119 48q-50 18 -83.5 68.5t-33.5 107.5q0 60 28.5 112t81 84t120.5 32q41 0 75 -10.5t73 -30.5l-29 -98q-68 32 -120 32q-51 -1 -86.5 -37t-35.5 -84q0 -49 36.5 -84.5t92.5 -45.5l194 77v-115l-432 -172v116z" />
    <glyph glyph-name="uni0654" unicode="&#x674;" 
d="M-216 1877l119 48q-50 18 -83.5 68.5t-33.5 107.5q0 60 28.5 112t81 84t120.5 32q41 0 75 -10.5t73 -30.5l-29 -98q-68 32 -120 32q-51 -1 -86.5 -37t-35.5 -84q0 -49 36.5 -84.5t92.5 -45.5l194 77v-115l-432 -172v116z" />
    <glyph glyph-name="uni0655" unicode="&#x655;" 
d="M-216 -950l119 48q-50 19 -83.5 69t-33.5 108q0 60 28.5 112t81 83.5t120.5 31.5q41 0 75 -10t73 -31l-29 -98q-68 33 -120 32q-51 0 -86.5 -36t-35.5 -84q0 -50 36.5 -85t92.5 -46l194 77v-114l-432 -172v115z" />
    <glyph glyph-name="uni0656" unicode="&#x656;" 
d="M53 -514v-380h-106v380h106z" />
    <glyph glyph-name="uni0656" unicode="&#x8ad;" 
d="M53 -514v-380h-106v380h106z" />
    <glyph glyph-name="uni065A" unicode="&#x65a;" 
d="M-44 1571l-298 345l150 3l192 -219l192 219l150 -3l-298 -345h-88z" />
    <glyph glyph-name="uni065B" unicode="&#x65b;" 
d="M342 1574l-150 -3l-192 219l-192 -219l-150 3l298 345h88z" />
    <glyph glyph-name="uni0660" unicode="&#x660;" horiz-adv-x="621" 
d="M310 701l208 -208l-208 -208l-208 208z" />
    <glyph glyph-name="uni0661" unicode="&#x661;" horiz-adv-x="567" 
d="M209 0v687q0 124 -14.5 276.5t-40.5 263.5l-25 106l212 49l24 -106q29 -124 44.5 -289t15.5 -300v-687h-216z" />
    <glyph glyph-name="uni0662" unicode="&#x662;" horiz-adv-x="1075" 
d="M472 899.5q42 -26.5 103 -18.5q71 8 112.5 46t42.5 98q2 64 -4.5 117.5t-27.5 164.5q-5 25 -8 38l213 41q2 -8 5 -25q25 -132 33.5 -197t5.5 -146q-7 -143 -99.5 -237t-243.5 -115q-61 -8 -110.5 8t-70.5 49q2 -41 2 -83v-640h-216v687q0 124 -14.5 276.5t-40.5 263.5
l-25 106l212 49l24 -106q30 -127 46 -307q19 -43 61 -69.5z" />
    <glyph glyph-name="uni0663" unicode="&#x663;" horiz-adv-x="1584" 
d="M1354 785.5q-95 -94.5 -248 -115.5q-76 -10 -154.5 18t-129.5 77q-86 -80 -225 -99q-57 -7 -105 8t-69 45q2 -38 2 -71v-648h-216v687q0 124 -14.5 276.5t-40.5 263.5l-25 106l212 49l24 -106q30 -127 46 -308q19 -43 58 -69t100 -18q71 8 112 46t43 98q2 65 -5 118
t-28 164q-5 25 -7 38l213 41q1 -8 4 -24q25 -133 33.5 -198t5.5 -146q0 -34 -13 -65q60 -79 152 -68q71 9 114.5 47.5t45.5 96.5q2 64 -4.5 114t-28.5 166q-5 26 -8 41l214 40q2 -13 7 -35q24 -127 32 -190.5t5 -142.5q-7 -142 -102 -236.5z" />
    <glyph glyph-name="uni0664" unicode="&#x664;" horiz-adv-x="1044" 
d="M340.5 1202q75.5 87 176 129t204.5 42q81 0 137 -18l-10 -208q-76 18 -127 18q-49 0 -106.5 -19.5t-106.5 -69t-65 -132.5q-16 -75 29 -118q31 -32 90.5 -43.5t136.5 4.5l117 23l41 -204l-117 -23q-15 -3 -35 7.5t-54 32.5q-28 19 -45.5 28.5t-30.5 9.5
q-124 -15 -207.5 21.5t-117 116t-11.5 188.5q26 128 101.5 215zM507 0q-101 0 -186 50t-135 135t-50 185q0 88 38 165t106 129.5t154 69.5l382 76l41 -204l-382 -76q-60 -11 -97 -59.5t-34 -109.5q4 -65 51 -109t112 -44h401v-208h-401z" />
    <glyph glyph-name="uni0665" unicode="&#x665;" horiz-adv-x="1385" 
d="M660 -9q-223 0 -371.5 126t-148.5 427q0 206 62.5 391t187.5 301t302 116q178 0 303 -116t187.5 -301t62.5 -391q0 -301 -148.5 -427t-371.5 -126h-65zM505 1055.5q-78 -89.5 -117.5 -228.5t-39.5 -283q0 -109 25 -183.5t93.5 -118t193.5 -43.5h65q94 0 156 25.5t96 71
t47 106.5t13 142q0 145 -39.5 283.5t-117.5 228t-188 89.5q-109 0 -187 -89.5z" />
    <glyph glyph-name="uni0666" unicode="&#x666;" horiz-adv-x="1211" 
d="M734.5 513.5q-38.5 291.5 60.5 611.5q-163 -34 -275 -34t-200 22.5t-203 67.5l73 189q112 -42 199.5 -60.5t214 -9t324.5 69.5l122 -150q-100 -181 -118 -389.5t29.5 -403t140.5 -344.5l-178 -108q-151 247 -189.5 538.5z" />
    <glyph glyph-name="uni0667" unicode="&#x667;" horiz-adv-x="1259" 
d="M876 570.5q-125 -360.5 -137 -571.5l-221 -1q-11 213 -135.5 573t-312.5 729l180 90q123 -213 219 -465t161 -578q63 326 159 578t220 465l179 -90q-187 -369 -312 -729.5z" />
    <glyph glyph-name="uni0668" unicode="&#x668;" horiz-adv-x="1229" 
d="M1009 -12q-126 221 -221 469.5t-158 573.5q-64 -324 -159.5 -573t-220.5 -470l-180 90q188 368 312.5 728.5t135.5 573.5h221q12 -212 137 -573t312 -729z" />
    <glyph glyph-name="uni0669" unicode="&#x669;" horiz-adv-x="1111" 
d="M758 943q0 59 -24.5 116.5t-72 95t-111.5 37.5q-55 0 -103.5 -29.5t-77.5 -78.5t-29 -105q2 -94 62 -147t146 -47q63 6 114 20.5t96 51.5v86zM548 570q-118 -9 -214 42t-150.5 148.5t-54.5 220.5q1 112 58.5 209t154.5 154.5t208 57.5q126 0 221 -65.5t146.5 -171.5
t51.5 -220v-945h-217v627q-81 -47 -204 -57z" />
    <glyph glyph-name="uni066A" unicode="&#x66a;" horiz-adv-x="1267" 
d="M207 46l708 1316l145 -67l-709 -1316zM365 1219q38 -38 38 -93q0 -54 -38.5 -92t-91.5 -38q-55 0 -93 38t-38 92q0 55 38 93t93 38q54 0 92 -38zM1087 307q38 -38 38 -93q0 -54 -38 -92t-92 -38q-55 0 -93 38t-38 92q0 55 38 93t93 38q54 0 92 -38z" />
    <glyph glyph-name="uni066B" unicode="&#x66b;" horiz-adv-x="640" 
d="M0 -359l367 807l131 -58l-367 -809z" />
    <glyph glyph-name="uni066C" unicode="&#x66c;" horiz-adv-x="493" 
d="M66 -147l64 35q40 22 59 67.5t19 96.5v211h143v-211q0 -99 -40 -175t-112 -115l-64 -35z" />
    <glyph glyph-name="uni066D" unicode="&#x66d;" horiz-adv-x="1331" 
d="M666 1179l124 -380h400l-323 -237l124 -379l-325 235l-326 -235l125 379l-323 237h399z" />
    <glyph glyph-name="uni066E" unicode="&#x66e;" horiz-adv-x="1838" 
d="M361.5 368.5q17.5 -66.5 67 -107.5t122.5 -41h760q48 0 89 24t65.5 65t24.5 90v338h207v-363q0 -102 -52 -188t-140.5 -136t-193.5 -50h-762q-132 0 -235 74.5t-146.5 200.5t-8.5 274l55 218l207 -58l-58 -201q-19 -73 -1.5 -139.5z" />
    <glyph glyph-name="uni066F" unicode="&#x66f;" horiz-adv-x="1718" 
d="M1375 430q0 103 -48.5 179.5t-160.5 76.5q-107 0 -160.5 -75.5t-53.5 -180.5q0 -110 48.5 -161t165.5 -51h209v212zM730 -544q-216 0 -339.5 82.5t-191.5 225t-68 279.5q0 177 27.5 295.5t73.5 243.5l191 -78q-28 -76 -56.5 -183.5t-28.5 -251.5q1 -165 78.5 -284
t313.5 -120h243q197 0 298 91t105 244h-233q-206 0 -298.5 111t-92.5 321q0 133 54.5 235t148 160t211.5 58q180 0 291.5 -126.5t111.5 -326.5l1 -427q0 -152 -77.5 -276t-212.5 -198t-316 -74z" />
    <glyph glyph-name="uni066F" unicode="&#x8bc;" horiz-adv-x="1718" 
d="M1375 430q0 103 -48.5 179.5t-160.5 76.5q-107 0 -160.5 -75.5t-53.5 -180.5q0 -110 48.5 -161t165.5 -51h209v212zM730 -544q-216 0 -339.5 82.5t-191.5 225t-68 279.5q0 177 27.5 295.5t73.5 243.5l191 -78q-28 -76 -56.5 -183.5t-28.5 -251.5q1 -165 78.5 -284
t313.5 -120h243q197 0 298 91t105 244h-233q-206 0 -298.5 111t-92.5 321q0 133 54.5 235t148 160t211.5 58q180 0 291.5 -126.5t111.5 -326.5l1 -427q0 -152 -77.5 -276t-212.5 -198t-316 -74z" />
    <glyph glyph-name="uni0670" unicode="&#x670;" 
d="M53 2155v-380h-106v380h106z" />
    <glyph glyph-name="uni0695" unicode="&#x695;" horiz-adv-x="749" 
d="M-38 -330l103 22q95 18 171.5 73.5t120.5 135t44 169.5v667h207v-681q0 -146 -63.5 -267.5t-179 -204t-268.5 -112.5l-88 -18zM273 -1131l-298 345l150 3l192 -219l192 219l150 -3l-298 -345h-88z" />
    <glyph glyph-name="uni06A1" unicode="&#x6a1;" horiz-adv-x="1939" 
d="M1586 377.5q22 93.5 22 181.5q0 74 -31 126t-80 77.5t-104 25.5q-87 -1 -149.5 -60.5t-64.5 -149.5q0 -60 32 -126.5t106.5 -120.5t194.5 -72q52 25 74 118.5zM546 220h485q190 -1 229 6q-100 18 -163 77.5t-90.5 133t-27.5 137.5q0 111 56.5 206t152.5 150.5t205 54.5
q112 0 207 -54.5t151.5 -152.5t56.5 -221q0 -177 -49.5 -302.5t-136.5 -190t-201 -64.5h-872zM361.5 368.5q17.5 -66.5 67 -107.5t122.5 -41l-2 -220q-132 0 -235 74.5t-147 200.5t-8 274l55 218l207 -58l-58 -201q-19 -73 -1.5 -139.5z" />
    <glyph glyph-name="uni06A1" unicode="&#x8bb;" horiz-adv-x="1939" 
d="M1586 377.5q22 93.5 22 181.5q0 74 -31 126t-80 77.5t-104 25.5q-87 -1 -149.5 -60.5t-64.5 -149.5q0 -60 32 -126.5t106.5 -120.5t194.5 -72q52 25 74 118.5zM546 220h485q190 -1 229 6q-100 18 -163 77.5t-90.5 133t-27.5 137.5q0 111 56.5 206t152.5 150.5t205 54.5
q112 0 207 -54.5t151.5 -152.5t56.5 -221q0 -177 -49.5 -302.5t-136.5 -190t-201 -64.5h-872zM361.5 368.5q17.5 -66.5 67 -107.5t122.5 -41l-2 -220q-132 0 -235 74.5t-147 200.5t-8 274l55 218l207 -58l-58 -201q-19 -73 -1.5 -139.5z" />
    <glyph glyph-name="uni06AA" unicode="&#x6aa;" horiz-adv-x="2094" 
d="M538 0q-105 0 -193.5 53.5t-140.5 145.5t-52 200v301h208v-314q0 -73 51.5 -119.5t126.5 -46.5h1017q76 0 127.5 46.5t51.5 119.5q0 49 -24 90t-65 65t-90 24h-734l-80 169l574 702l160 -132l-435 -532h515q105 0 194 -52t140.5 -140.5t51.5 -193.5t-51.5 -193.5
t-140.5 -140.5t-194 -52h-1017z" />
    <glyph glyph-name="uni06B5" unicode="&#x6b5;" horiz-adv-x="1645" 
d="M730 -544q-216 0 -339.5 82.5t-191.5 225t-68 279.5q0 164 31.5 289t77.5 250l192 -78q-28 -76 -61 -189.5t-33 -245.5q1 -165 78.5 -278.5t313.5 -114.5h143q110 0 196 49t136 139t50 223v1419h207v-1407q1 -188 -72.5 -332t-210.5 -227.5t-306 -83.5h-143zM1282 1707
l-298 345l150 3l192 -219l192 219l150 -3l-298 -345h-88z" />
    <glyph glyph-name="uni06C2" unicode="&#x6c2;" horiz-adv-x="1077" 
d="M400.5 575.5q-68.5 -100.5 -68.5 -193.5q0 -63 31 -107.5t79.5 -67.5t98.5 -23t98.5 22t79.5 66.5t31 109.5q0 63 -49 158.5t-157 202.5q-75 -67 -143.5 -167.5zM318 933l131 161l87 -71q205 -167 310 -331t105 -307q0 -123 -59 -214t-153 -138.5t-198 -47.5
q-108 0 -202 51t-151 142.5t-57 206.5q0 99 50 197t112.5 171.5t108.5 110.5zM284 1353l119 48q-50 18 -83.5 68.5t-33.5 107.5q0 60 28.5 112t81 84t120.5 32q41 0 75 -10.5t73 -30.5l-29 -98q-68 32 -120 32q-51 -1 -86.5 -37t-35.5 -84q0 -49 36.5 -84.5t92.5 -45.5
l194 77v-115l-432 -172v116z" />
    <glyph glyph-name="uni06C3" unicode="&#x6c3;" horiz-adv-x="1077" 
d="M400.5 575.5q-68.5 -100.5 -68.5 -193.5q0 -63 31 -107.5t79.5 -67.5t98.5 -23t98.5 22t79.5 66.5t31 109.5q0 63 -49 158.5t-157 202.5q-75 -67 -143.5 -167.5zM318 933l131 161l87 -71q205 -167 310 -331t105 -307q0 -123 -59 -214t-153 -138.5t-198 -47.5
q-108 0 -202 51t-151 142.5t-57 206.5q0 99 50 197t112.5 171.5t108.5 110.5zM215 1257q-1 82 0 185h310q9 -64 9 -98.5t-9 -86.5h-310zM517 1257q-9 52 -9 86.5t9 98.5h310q1 -101 0 -185h-310z" />
    <glyph glyph-name="uni06CE" unicode="&#x6ce;" horiz-adv-x="1656" 
d="M895 -335q162 0 283 66t139 200q12 86 -29.5 121.5t-124.5 40.5l-444 30l20 360q14 200 123.5 304.5t297.5 104.5h316v-208h-310q-96 0 -151 -59t-62 -148l-12 -172l265 -16q169 -12 256.5 -88.5t61.5 -260.5q-35 -240 -225 -362t-404 -122h-172q-210 0 -334 82.5
t-189 224.5t-65 280q1 176 25 294.5t70 243.5l192 -78q-28 -76 -54 -183t-26 -251q1 -165 76 -284.5t305 -120.5zM202 741l-298 345l150 3l192 -219l192 219l150 -3l-298 -345h-88z" />
    <glyph glyph-name="uni06D4" unicode="&#x6d4;" horiz-adv-x="761" 
d="M693 -144h-625v144h625v-144z" />
    <glyph glyph-name="uni06F0" unicode="&#x6f0;" horiz-adv-x="1033" 
d="M181.5 696.5q51.5 88.5 140.5 140.5t195 52q105 0 194 -52t141 -140.5t52 -194.5q0 -105 -52 -194t-141 -141t-194 -52q-106 0 -195 52t-140.5 141t-51.5 194q0 106 51.5 194.5zM347.5 404q26.5 -45 71.5 -71.5t98 -26.5t98 26.5t71.5 71.5t26.5 98t-26.5 98t-70.5 71.5
t-95 26.5q-86 -2 -143 -58.5t-57 -137.5q0 -53 26.5 -98z" />
    <glyph glyph-name="uni06F1" unicode="&#x6f1;" horiz-adv-x="567" 
d="M209 0v687q0 124 -14.5 276.5t-40.5 263.5l-25 106l212 49l24 -106q29 -124 44.5 -289t15.5 -300v-687h-216z" />
    <glyph glyph-name="uni06F2" unicode="&#x6f2;" horiz-adv-x="1075" 
d="M472 899.5q42 -26.5 103 -18.5q71 8 112.5 46t42.5 98q2 64 -4.5 117.5t-27.5 164.5q-5 25 -8 38l213 41q2 -8 5 -25q25 -132 33.5 -197t5.5 -146q-7 -143 -99.5 -237t-243.5 -115q-61 -8 -110.5 8t-70.5 49q2 -41 2 -83v-640h-216v687q0 124 -14.5 276.5t-40.5 263.5
l-25 106l212 49l24 -106q30 -127 46 -307q19 -43 61 -69.5z" />
    <glyph glyph-name="uni06F3" unicode="&#x6f3;" horiz-adv-x="1584" 
d="M1354 785.5q-95 -94.5 -248 -115.5q-76 -10 -154.5 18t-129.5 77q-86 -80 -225 -99q-57 -7 -105 8t-69 45q2 -38 2 -71v-648h-216v687q0 124 -14.5 276.5t-40.5 263.5l-25 106l212 49l24 -106q30 -127 46 -308q19 -43 58 -69t100 -18q71 8 112 46t43 98q2 65 -5 118
t-28 164q-5 25 -7 38l213 41q1 -8 4 -24q25 -133 33.5 -198t5.5 -146q0 -34 -13 -65q60 -79 152 -68q71 9 114.5 47.5t45.5 96.5q2 64 -4.5 114t-28.5 166q-5 26 -8 41l214 40q2 -13 7 -35q24 -127 32 -190.5t5 -142.5q-7 -142 -102 -236.5z" />
    <glyph glyph-name="uni06F4" unicode="&#x6f4;" horiz-adv-x="1389" 
d="M479 924q50 -52 133 -72q-64 46 -64 134q2 122 56 217.5t146.5 148t204.5 50.5q49 0 112.5 -18.5t113.5 -44.5l-54 -199q-73 26 -112.5 35.5t-70.5 8.5q-86 -3 -138 -58t-53 -141q-2 -99 55.5 -139.5t137.5 -41.5q56 -1 124 20.5t159 66.5l43 -203q-84 -51 -160 -76
t-167 -25q-223 0 -344.5 43t-177.5 105q2 -41 2 -78v-657h-216v687q0 124 -14.5 276.5t-40.5 263.5l-25 106l212 49l24 -106q24 -102 39 -247q25 -53 75 -105z" />
    <glyph glyph-name="uni06F5" unicode="&#x6f5;" horiz-adv-x="1452" 
d="M638 1414q22 -18 66 -56q161 -136 260.5 -229.5t186 -205.5t137.5 -243t51 -282q0 -108 -51.5 -201t-138.5 -148.5t-187 -55.5q-165 0 -242 118q-81 -118 -247 -118q-102 0 -184.5 54t-129 146.5t-46.5 204.5q0 141 65.5 284.5t175.5 268.5t243 218q-9 8 -28 22
q-42 35 -64 52zM1036 234.5q37 24.5 61.5 67.5t24.5 96q0 121 -44.5 231t-125 209.5t-197.5 200.5q-113 -81 -210.5 -189.5t-156.5 -227t-59 -224.5q0 -86 42.5 -137t101.5 -51q73 0 119.5 40t46.5 129v129h191v-91q1 -46 -8 -91q21 -60 57.5 -88t82.5 -28q37 0 74 24.5z
" />
    <glyph glyph-name="uni06F6" unicode="&#x6f6;" horiz-adv-x="1077" 
d="M681.5 822q87.5 26 156.5 81l136 -160q-300 -256 -541 -764l-190 90q155 322 334 566q-49 -22 -95 -22q-91 1 -173 42t-133.5 125t-50.5 206q2 121 56 217t146.5 148.5t204.5 50.5q50 0 124 -19t122 -44l-54 -199q-64 25 -116 35t-87 9q-86 -3 -138 -58t-53 -141
q-2 -100 57 -143t137 -45q70 -1 157.5 25z" />
    <glyph glyph-name="uni06F7" unicode="&#x6f7;" horiz-adv-x="1259" 
d="M876 570.5q-125 -360.5 -137 -571.5l-221 -1q-11 213 -135.5 573t-312.5 729l180 90q123 -213 219 -465t161 -578q63 326 159 578t220 465l179 -90q-187 -369 -312 -729.5z" />
    <glyph glyph-name="uni06F8" unicode="&#x6f8;" horiz-adv-x="1229" 
d="M1009 -12q-126 221 -221 469.5t-158 573.5q-64 -324 -159.5 -573t-220.5 -470l-180 90q188 368 312.5 728.5t135.5 573.5h221q12 -212 137 -573t312 -729z" />
    <glyph glyph-name="uni06F9" unicode="&#x6f9;" horiz-adv-x="1111" 
d="M758 943q0 59 -24.5 116.5t-72 95t-111.5 37.5q-55 0 -103.5 -29.5t-77.5 -78.5t-29 -105q2 -94 62 -147t146 -47q63 6 114 20.5t96 51.5v86zM548 570q-118 -9 -214 42t-150.5 148.5t-54.5 220.5q1 112 58.5 209t154.5 154.5t208 57.5q126 0 221 -65.5t146.5 -171.5
t51.5 -220v-945h-217v627q-81 -47 -204 -57z" />
    <glyph glyph-name="uni2009" unicode="&#x2009;" horiz-adv-x="105" 
 />
    <glyph glyph-name="uni200A" unicode="&#x200a;" horiz-adv-x="105" 
 />
    <glyph glyph-name="uni200B" unicode="&#x200b;" 
 />
    <glyph glyph-name="uni200C" unicode="&#x200c;" 
 />
    <glyph glyph-name="uni200D" unicode="&#x200d;" 
 />
    <glyph glyph-name="uni200E" unicode="&#x200e;" 
 />
    <glyph glyph-name="uni200F" unicode="&#x200f;" 
 />
    <glyph glyph-name="uni2010" unicode="&#x2010;" horiz-adv-x="1124" 
d="M97 500v184h929v-184h-929z" />
    <glyph glyph-name="figuredash" unicode="&#x2012;" horiz-adv-x="1348" 
d="M97 500v184h1154v-184h-1154z" />
    <glyph glyph-name="endash" unicode="&#x2013;" horiz-adv-x="1286" 
d="M97 500v184h1092v-184h-1092z" />
    <glyph glyph-name="emdash" unicode="&#x2014;" horiz-adv-x="1922" 
d="M97 500v184h1728v-184h-1728z" />
    <glyph glyph-name="uni2015" unicode="&#x2015;" horiz-adv-x="2025" 
d="M97 500v184h1831v-184h-1831z" />
    <glyph glyph-name="quoteleft" unicode="&#x2018;" horiz-adv-x="517" 
d="M97 1034l147 431h176l-117 -431h-206z" />
    <glyph glyph-name="quoteright" unicode="&#x2019;" horiz-adv-x="517" 
d="M97 1034l117 431h206l-147 -431h-176z" />
    <glyph glyph-name="quotesinglbase" unicode="&#x201a;" horiz-adv-x="517" 
d="M97 -357l117 431h206l-147 -431h-176z" />
    <glyph glyph-name="quotedblleft" unicode="&#x201c;" horiz-adv-x="827" 
d="M423 1034l146 431h160l-116 -431h-190zM97 1034l147 431h159l-116 -431h-190z" />
    <glyph glyph-name="quotedblright" unicode="&#x201d;" horiz-adv-x="827" 
d="M423 1034l117 431h189l-146 -431h-160zM97 1034l116 431h190l-146 -431h-160z" />
    <glyph glyph-name="quotedblbase" unicode="&#x201e;" horiz-adv-x="827" 
d="M97 -256l117 430h190l-146 -430h-161zM423 -256l115 430h190l-146 -430h-159z" />
    <glyph glyph-name="dagger" unicode="&#x2020;" horiz-adv-x="1239" 
d="M504 0l7 946l-414 -7v182l414 -7l-11 454h240l-11 -454l412 7v-182l-412 7l7 -946h-232z" />
    <glyph glyph-name="daggerdbl" unicode="&#x2021;" horiz-adv-x="1239" 
d="M504 0l7 419l-414 -3v177l414 -4q-3 49 -5 97t-2 98q0 49 2 97t5 97l-414 -3v176l414 -5l-11 422h240l-11 -422l412 5v-176l-412 3q3 -49 5 -97t2 -97q0 -50 -2 -98t-5 -97l412 4v-177l-412 3l7 -419h-232z" />
    <glyph glyph-name="bullet" unicode="&#x2022;" horiz-adv-x="745" 
d="M372 368q-57 0 -107 22t-87.5 59.5t-59 87t-21.5 106.5t22 108t59.5 88.5t88 59t108.5 21.5t108.5 -22.5t87 -61t57 -90t20.5 -108.5q0 -56 -22.5 -105t-60.5 -86t-88 -58t-105 -21z" />
    <glyph glyph-name="ellipsis" unicode="&#x2026;" horiz-adv-x="1270" 
d="M977 0v183h197v-183h-197zM97 0v183h197v-183h-197zM538 0v183h195v-183h-195z" />
    <glyph glyph-name="perthousand" unicode="&#x2030;" horiz-adv-x="2324" 
d="M412 808q-149 0 -232 82.5t-83 231.5q0 155 75.5 249t239.5 94t239.5 -93t75.5 -250q0 -149 -83 -231.5t-232 -82.5zM315 0l763 1443h222l-764 -1443h-221zM412 944q91 0 132.5 46.5t41.5 135.5q0 90 -38.5 146t-135.5 56q-98 0 -136 -56.5t-38 -145.5q0 -87 42.5 -134.5
t131.5 -47.5zM1206 -22q-148 0 -231 82t-83 231q0 155 75 249t239 94t239.5 -93.5t75.5 -249.5q0 -150 -83 -231.5t-232 -81.5zM1912 -22q-149 0 -232.5 82t-83.5 231q0 155 76 249t240 94q163 0 238 -94t75 -249q0 -149 -82.5 -231t-230.5 -82zM1206 113q91 0 133 46.5
t42 135.5q0 90 -38 146t-137 56q-98 0 -135.5 -56.5t-37.5 -145.5q0 -87 42 -134.5t131 -47.5zM1912 113q91 0 132.5 46.5t41.5 135.5q0 90 -38 146t-136 56q-99 0 -137 -56t-38 -146q0 -87 42.5 -134.5t132.5 -47.5z" />
    <glyph glyph-name="minute" unicode="&#x2032;" horiz-adv-x="398" 
d="M97 1023v420h204l-30 -420h-174z" />
    <glyph glyph-name="second" unicode="&#x2033;" horiz-adv-x="752" 
d="M451 1023v420h203l-29 -420h-174zM97 1023v420h204l-30 -420h-174z" />
    <glyph glyph-name="guilsinglleft" unicode="&#x2039;" horiz-adv-x="864" 
d="M674 166l-577 424v101l577 425l92 -134l-459 -342l459 -341z" />
    <glyph glyph-name="guilsinglright" unicode="&#x203a;" horiz-adv-x="864" 
d="M189 166l-92 133l459 341l-459 342l92 134l577 -425v-101z" />
    <glyph glyph-name="fraction" unicode="&#x2044;" horiz-adv-x="332" 
d="M-306 0l707 1483h237l-707 -1483h-237z" />
    <glyph glyph-name="Euro" unicode="&#x20ac;" horiz-adv-x="1302" 
d="M841 -22q-121 0 -223.5 26t-182.5 82t-136 143.5t-83 210.5h-143v133h124v235h-122v133h137q23 132 73 230.5t129 163.5t185.5 97.5t240.5 32.5q50 0 99 -4t97 -12.5t95.5 -21.5t94.5 -31v-203q-46 20 -90.5 34t-89.5 22t-91.5 11.5t-96.5 3.5q-87 0 -154.5 -19t-118 -59
t-84 -100.5t-49.5 -144.5h482v-133h-501v-235h499v-133h-476q23 -74 61 -124t90 -81t116.5 -44.5t138.5 -13.5q51 0 96 3.5t89 11.5t87.5 20.5t90.5 29.5v-203q-49 -17 -95.5 -28.5t-93.5 -19t-95.5 -10.5t-99.5 -3z" />
    <glyph glyph-name="approxequal" unicode="&#x2248;" horiz-adv-x="1070" 
d="M748 623q-57 0 -109 18.5t-103.5 40.5t-104 40.5t-109.5 18.5q-74 0 -124.5 -20t-100.5 -75v183q44 49 103.5 64t121.5 15q60 0 113.5 -18.5t105.5 -41t104.5 -41t110.5 -18.5q73 0 120 20.5t95 75.5v-186q-41 -49 -102 -62.5t-121 -13.5zM748 277q-57 0 -109 18.5
t-103.5 41t-104 41t-109.5 18.5q-74 0 -124.5 -20.5t-100.5 -74.5v181q44 49 103.5 64t121.5 15q60 0 113.5 -18.5t105.5 -41t104.5 -41t110.5 -18.5q73 0 120 20.5t95 74.5v-184q-41 -48 -102 -62t-121 -14z" />
    <glyph glyph-name="notequal" unicode="&#x2260;" horiz-adv-x="1057" 
d="M273 127l72 210h-248v170h306l59 171h-365v168h421l70 199h181l-69 -199h258v-168h-314l-59 -171h373v-170h-430l-73 -210h-182z" />
    <glyph glyph-name="lessequal" unicode="&#x2264;" horiz-adv-x="1216" 
d="M1118 241l-1021 454v163l1021 453v-200l-775 -335l775 -334v-201zM97 0v162h1021v-162h-1021z" />
    <glyph glyph-name="greaterequal" unicode="&#x2265;" horiz-adv-x="1216" 
d="M97 241v201l774 334l-774 335v200l1021 -453v-163zM97 0v162h1021v-162h-1021z" />
    <glyph glyph-name="uniE000" unicode="&#xe000;" 
d="M-238 -126v126h244q1 -58 0 -126q-129 1 -244 0zM-6 -126q-1 68 0 126h244v-126q-115 1 -244 0zM-85 -348q-1 67 0 134h170q1 -67 0 -134h-170z" />
    <glyph glyph-name="uniE002" unicode="&#xe002;" horiz-adv-x="696" 
d="M168 220q49 0 90 24t65 65t24 90v338h207v-363q0 -102 -52 -188t-140.5 -136t-193.5 -50h-168q-41 25 -55.5 67.5t0 85t55.5 67.5h168z" />
    <glyph glyph-name="uniE003" unicode="&#xe003;" horiz-adv-x="801" 
d="M177 220q48 0 89 24t65 65t24 90v338h207v-338q0 -49 24.5 -90t65.5 -65t89 -24h59v-220h-59q-93 0 -165 43.5t-117 120.5q-45 -77 -117 -120.5t-165 -43.5h-177q-41 25 -55.5 67.5t0 85t55.5 67.5h177z" />
    <glyph glyph-name="uE004" unicode="&#xe004;" horiz-adv-x="799" 
d="M272 220q48 0 89 24t65.5 65t24.5 90v338h207v-363q0 -102 -52 -188t-140.5 -136t-193.5 -50h-272q-41 25 -55.5 67.5t0 85t55.5 67.5h272z" />
    <glyph glyph-name="uE005" unicode="&#xe005;" horiz-adv-x="887" 
d="M272 220q48 0 89 24t65.5 65t24.5 90v338h207v-338q0 -49 24 -90t65 -65t89 -24h51v-220h-51q-93 0 -165 43.5t-117 120.5q-45 -77 -117 -120.5t-165 -43.5h-272q-41 25 -55.5 67.5t0 85t55.5 67.5h272z" />
    <glyph glyph-name="uniE006" unicode="&#xe006;" horiz-adv-x="990" 
d="M462 220q48 0 89 24t65.5 65t24.5 90v338h207v-363q0 -102 -52 -188t-140.5 -136t-193.5 -50h-462q-41 25 -55.5 67.5t0 85t55.5 67.5h462z" />
    <glyph glyph-name="uniE007" unicode="&#xe007;" horiz-adv-x="1024" 
d="M400 220q49 0 90 24t65 65t24 90v338h207v-338q0 -49 24 -90t65 -65t90 -24h59v-220h-59q-94 0 -166 43.5t-117 120.5q-44 -77 -116 -120.5t-166 -43.5h-400q-41 25 -55.5 67.5t0 85t55.5 67.5h400z" />
    <glyph glyph-name="uniE021" unicode="&#xe021;" horiz-adv-x="1873" 
d="M549 0q-3 14 -9 44q-17 76 -18.5 118.5t24.5 57.5h769q49 0 90 24t65 65t24 90v1109h207v-1134q0 -102 -52 -188t-140.5 -136t-193.5 -50h-766zM361.5 368.5q17.5 -66.5 67 -107.5t122.5 -41l-2 -220q-132 0 -235 74.5t-147 200.5t-8 274l55 218l207 -58l-58 -201
q-19 -73 -1.5 -139.5z" />
    <glyph glyph-name="uniE022" unicode="&#xe022;" horiz-adv-x="1952" 
d="M525 96q1 67 21 124h769q49 0 90 24t65 65t24 90v1109h207v-1109q0 -49 24 -90t65 -65t90 -24h71v-220h-71q-94 0 -166 43.5t-116 120.5q-45 -77 -117 -120.5t-166 -43.5h-766q-25 29 -24 96zM361.5 368.5q17.5 -66.5 67 -107.5t122.5 -41l-2 -220q-132 0 -235 74.5
t-147 200.5t-8 274l55 218l207 -58l-58 -201q-19 -73 -1.5 -139.5z" />
    <glyph glyph-name="uE024" unicode="&#xe024;" horiz-adv-x="894" 
d="M712 35q-61 35 -104 96v-84q-2 -143 -66 -263t-179 -201t-266 -111l-88 -18l-47 216l103 22q95 18 171.5 73.5t120.5 135t44 169.5v667h207v-303q5 -59 37.5 -108t84.5 -77.5t112 -28.5h52v-220h-52q-69 0 -130 35zM279 -1131l-298 345l150 3l192 -219l192 219l150 -3
l-298 -345h-88z" />
    <glyph glyph-name="uE025" unicode="&#xe025;" horiz-adv-x="706" 
d="M178 220q48 0 89 24t65 65t24 90v338h207v-363q0 -102 -51.5 -188t-140 -136t-193.5 -50h-178q-41 25 -55.5 67.5t0 85t55.5 67.5h178zM328 1091q52 0 87.5 25.5t35.5 62.5q0 49 -28 88.5t-91 39.5q-61 0 -105.5 -66.5t-74.5 -149.5h176zM33 1628h119v-313
q82 110 180 110q107 0 172 -73t65 -173q0 -57 -31.5 -104t-86.5 -74.5t-123 -27.5h-357v118h55q0 1 1 2q3 16 6 27v508z" />
    <glyph glyph-name="uE026" unicode="&#xe026;" horiz-adv-x="801" 
d="M178 220q48 0 89 24t65 65t24 90v338h207v-338q0 -49 24.5 -90t65.5 -65t89 -24h59v-220h-59q-93 0 -165.5 43.5t-116.5 120.5q-45 -77 -117 -120.5t-165 -43.5h-178q-41 25 -55.5 67.5t0 85t55.5 67.5h178zM328 1089q52 0 87.5 25.5t35.5 62.5q0 49 -28 88.5t-91 39.5
q-61 0 -105.5 -66.5t-74.5 -149.5h176zM33 1626h119v-313q82 110 180 110q107 0 172 -73t65 -173q0 -57 -31.5 -104t-86.5 -74.5t-123 -27.5h-357v118h55q0 1 1 2q3 16 6 27v508z" />
    <glyph glyph-name="uE027" unicode="&#xe027;" horiz-adv-x="1731" 
d="M729 -544q-216 0 -340 82.5t-189 224.5t-65 280q1 176 25 294.5t70 243.5l192 -78q-28 -76 -54 -183t-26 -251q1 -165 75 -283.5t304 -120.5h241q155 0 255 59t100 184q0 48 -29.5 76t-74.5 29h-435v207h953v-220h-245q33 -32 33 -85q-1 -117 -62 -220t-186.5 -171
t-308.5 -68h-233zM202 741l-298 345l150 3l192 -219l192 219l150 -3l-298 -345h-88z" />
    <glyph glyph-name="uE028" unicode="&#xe028;" horiz-adv-x="706" 
d="M178 220q48 0 89 24t65 65t24 90v338h207v-363q0 -102 -51.5 -188t-140 -136t-193.5 -50h-178q-41 25 -55.5 67.5t0 85t55.5 67.5h178zM-187 -515q-1 90 0 186h310q9 -60 9 -94.5t-9 -91.5h-310zM115 -515q-9 57 -9 91.5t9 94.5h310q1 -95 0 -186h-310zM356 976l-298 345
l150 3l192 -219l192 219l150 -3l-298 -345h-88z" />
    <glyph glyph-name="uE029" unicode="&#xe029;" horiz-adv-x="803" 
d="M178 220q48 0 89 24t65 65t24 90v338h207v-338q0 -49 24.5 -90t65.5 -65t89 -24h59v-220h-59q-93 0 -165.5 43.5t-116.5 120.5q-45 -77 -117 -120.5t-165 -43.5h-178q-41 25 -55.5 67.5t0 85t55.5 67.5h178zM-187 -515q-1 90 0 186h310q9 -60 9 -94.5t-9 -91.5h-310z
M115 -515q-9 57 -9 91.5t9 94.5h310q1 -95 0 -186h-310zM365 954l-298 345l150 3l192 -219l192 219l150 -3l-298 -345h-88z" />
    <glyph glyph-name="uniFEEA0654" unicode="&#xe030;" horiz-adv-x="1209" 
d="M606.5 92.5q-123.5 -25.5 -230 4.5t-174 106.5t-74.5 187.5q-11 154 52.5 280.5t193.5 203.5t313 88l-24 168l206 29l118 -811q8 -56 50.5 -92.5t98.5 -36.5h78v-220h-77q-95 0 -173 51.5t-121 149.5q-113 -83 -236.5 -108.5zM418 674q-101 -97 -92 -260
q6 -69 72.5 -109.5t170.5 -27.5t213 91l-60 408q-203 -5 -304 -102zM277 1291l119 48q-50 18 -83.5 68.5t-33.5 107.5q0 60 28.5 112t81 84t120.5 32q41 0 75 -10.5t73 -30.5l-29 -98q-68 32 -120 32q-51 -1 -86.5 -37t-35.5 -84q0 -49 36.5 -84.5t92.5 -45.5l194 77v-115
l-432 -172v116z" />
    <glyph glyph-name="uE060_uFBB5" unicode="&#xe032;" horiz-adv-x="819" 
d="M290 220q49 0 90 24t65 65t24 90v338h207v-363q0 -102 -51.5 -188t-140 -136t-194.5 -50h-290q-41 25 -55.5 67.5t0 85t55.5 67.5h290zM0 -515q-1 90 0 186h310q9 -60 9 -94.5t-9 -91.5h-310zM302 -515q-9 57 -9 91.5t9 94.5h310q1 -95 0 -186h-310z" />
    <glyph glyph-name="uE061_uFBB5" unicode="&#xe033;" horiz-adv-x="936" 
d="M312 220q48 0 89.5 24t65.5 65t24 90v338h207v-338q0 -49 24 -90t65 -65t90 -24h59v-220h-59q-94 0 -166 43.5t-117 120.5q-44 -77 -116.5 -120.5t-165.5 -43.5h-312q-41 25 -55.5 67.5t0 85t55.5 67.5h312zM14 -515q-1 90 0 186h310q9 -60 9 -94.5t-9 -91.5h-310z
M316 -515q-9 57 -9 91.5t9 94.5h310q1 -95 0 -186h-310z" />
    <glyph glyph-name="uniE006_uFBB5" unicode="&#xe034;" horiz-adv-x="990" 
d="M462 220q48 0 89 24t65.5 65t24.5 90v338h207v-363q0 -102 -52 -188t-140.5 -136t-193.5 -50h-462q-41 25 -55.5 67.5t0 85t55.5 67.5h462zM-40 -515q-1 90 0 186h310q9 -60 9 -94.5t-9 -91.5h-310zM262 -515q-9 57 -9 91.5t9 94.5h310q1 -95 0 -186h-310z" />
    <glyph glyph-name="uniE007_uFBB5" unicode="&#xe035;" horiz-adv-x="1024" 
d="M400 220q49 0 90 24t65 65t24 90v338h207v-338q0 -49 24 -90t65 -65t90 -24h59v-220h-59q-94 0 -166 43.5t-117 120.5q-44 -77 -116 -120.5t-166 -43.5h-400q-41 25 -55.5 67.5t0 85t55.5 67.5h400zM-19 -515q-1 90 0 186h310q9 -60 9 -94.5t-9 -91.5h-310zM283 -515
q-9 57 -9 91.5t9 94.5h310q1 -95 0 -186h-310z" />
    <glyph glyph-name="uE060_uFBB9" unicode="&#xe036;" horiz-adv-x="819" 
d="M290 220q49 0 90 24t65 65t24 90v338h207v-363q0 -102 -51.5 -188t-140 -136t-194.5 -50h-290q-41 25 -55.5 67.5t0 85t55.5 67.5h290zM0 -461q-1 97 0 186h310q9 -54 9 -88.5t-8 -97.5h-311zM302 -461q-9 63 -9 97.5t9 88.5h311v-186h-311zM195 -799v184h222
q1 -92 0 -184h-222z" />
    <glyph glyph-name="uE061_uFBB9" unicode="&#xe037;" horiz-adv-x="936" 
d="M312 220q48 0 89.5 24t65.5 65t24 90v338h207v-338q0 -49 24 -90t65 -65t90 -24h59v-220h-59q-94 0 -166 43.5t-117 120.5q-44 -77 -116.5 -120.5t-165.5 -43.5h-312q-41 25 -55.5 67.5t0 85t55.5 67.5h312zM13 -461q-1 97 0 186h310q9 -54 9 -88.5t-8 -97.5h-311z
M315 -461q-9 63 -9 97.5t9 88.5h311v-186h-311zM208 -799v184h222q1 -92 0 -184h-222z" />
    <glyph glyph-name="uniE006_uFBB9" unicode="&#xe038;" horiz-adv-x="990" 
d="M462 220q48 0 89 24t65.5 65t24.5 90v338h207v-363q0 -102 -52 -188t-140.5 -136t-193.5 -50h-462q-41 25 -55.5 67.5t0 85t55.5 67.5h462zM-38 -461q-1 97 0 186h310q9 -54 9 -88.5t-8 -97.5h-311zM264 -461q-9 63 -9 97.5t9 88.5h311v-186h-311zM157 -799v184h222
q1 -92 0 -184h-222z" />
    <glyph glyph-name="uniE007_uFBB9" unicode="&#xe039;" horiz-adv-x="1024" 
d="M400 220q49 0 90 24t65 65t24 90v338h207v-338q0 -49 24 -90t65 -65t90 -24h59v-220h-59q-94 0 -166 43.5t-117 120.5q-44 -77 -116 -120.5t-166 -43.5h-400q-41 25 -55.5 67.5t0 85t55.5 67.5h400zM-38 -461q-1 97 0 186h310q9 -54 9 -88.5t-8 -97.5h-311zM264 -461
q-9 63 -9 97.5t9 88.5h311v-186h-311zM157 -799v184h222q1 -92 0 -184h-222z" />
    <glyph glyph-name="uE2C3_uFBB3" unicode="&#xe040;" horiz-adv-x="724" 
d="M197 220q48 0 89 24t65 65t24 90v338h207v-363q0 -102 -51.5 -188t-140 -136t-193.5 -50h-197q-40 25 -55 67.5t0 85t55 67.5h197zM41 -528v199h246v-199h-246z" />
    <glyph glyph-name="uE2C4_uFBB3" unicode="&#xe041;" horiz-adv-x="820" 
d="M197 220q48 0 89 24t65 65t24 90v338h207v-338q0 -49 24.5 -90t65.5 -65t89 -24h59v-220h-59q-93 0 -165 43.5t-117 120.5q-45 -77 -117 -120.5t-165 -43.5h-197q-40 25 -55 67.5t0 85t55 67.5h197zM41 -528v199h246v-199h-246z" />
    <glyph glyph-name="uniFBE8FBB4" unicode="&#xe042;" horiz-adv-x="706" 
d="M178 220q48 0 89 24t65 65t24 90v338h207v-363q0 -102 -51.5 -188t-140 -136t-193.5 -50h-178q-41 25 -55.5 67.5t0 85t55.5 67.5h178zM-2 997q-1 82 0 185h310q9 -64 9 -98.5t-9 -86.5h-310zM300 997q-9 52 -9 86.5t9 98.5h310q1 -101 0 -185h-310z" />
    <glyph glyph-name="uniFBE9FBB4" unicode="&#xe043;" horiz-adv-x="802" 
d="M178 220q48 0 89 24t65 65t24 90v338h207v-338q0 -49 24.5 -90t65.5 -65t89 -24h59v-220h-59q-93 0 -165.5 43.5t-116.5 120.5q-45 -77 -117 -120.5t-165 -43.5h-178q-41 25 -55.5 67.5t0 85t55.5 67.5h178zM-2 998q-1 82 0 185h310q9 -64 9 -98.5t-9 -86.5h-310z
M300 998q-9 52 -9 86.5t9 98.5h310q1 -101 0 -185h-310z" />
    <glyph glyph-name="uniFBE8FBB6" unicode="&#xe044;" horiz-adv-x="706" 
d="M178 220q48 0 89 24t65 65t24 90v338h207v-363q0 -102 -51.5 -188t-140 -136t-193.5 -50h-178q-41 25 -55.5 67.5t0 85t55.5 67.5h178zM-2 997q-1 89 0 185h311q8 -62 8 -96.5t-9 -88.5h-310zM300 997q-9 54 -9 88.5t9 96.5h311v-185h-311zM193 1335v184q111 -1 222 0
q1 -91 0 -184h-222z" />
    <glyph glyph-name="uniFBE9FBB6" unicode="&#xe045;" horiz-adv-x="802" 
d="M178 220q48 0 89 24t65 65t24 90v338h207v-338q0 -49 24.5 -90t65.5 -65t89 -24h59v-220h-59q-93 0 -165.5 43.5t-116.5 120.5q-45 -77 -117 -120.5t-165 -43.5h-178q-41 25 -55.5 67.5t0 85t55.5 67.5h178zM-2 998q-1 89 0 185h311q8 -62 8 -96.5t-9 -88.5h-310z
M300 998q-9 54 -9 88.5t9 96.5h311v-185h-311zM193 1336v184q111 -1 222 0q1 -91 0 -184h-222z" />
    <glyph glyph-name="uE046" unicode="&#xe046;" horiz-adv-x="818" 
d="M290 220q49 0 90 24t65 65t24 90v338h207v-363q0 -102 -51.5 -188t-140 -136t-194.5 -50h-290q-41 25 -55.5 67.5t0 85t55.5 67.5h290zM0 -515q-1 90 0 186h310q9 -60 9 -94.5t-9 -91.5h-310zM302 -515q-9 57 -9 91.5t9 94.5h310q1 -95 0 -186h-310zM429 976l-298 345
l150 3l192 -219l192 219l150 -3l-298 -345h-88z" />
    <glyph glyph-name="uE047" unicode="&#xe047;" horiz-adv-x="990" 
d="M462 220q48 0 89 24t65.5 65t24.5 90v338h207v-363q0 -102 -52 -188t-140.5 -136t-193.5 -50h-462q-41 25 -55.5 67.5t0 85t55.5 67.5h462zM-40 -515q-1 90 0 186h310q9 -60 9 -94.5t-9 -91.5h-310zM262 -515q-9 57 -9 91.5t9 94.5h310q1 -95 0 -186h-310zM626 968
l-298 345l150 3l192 -219l192 219l150 -3l-298 -345h-88z" />
    <glyph glyph-name="uniE054" unicode="&#xe054;" 
d="M-209 108q171 -1 244 24t73 96v45l-192 -1q-28 0 -51 23.5t-22 51.5v85q0 59 29 107.5t78 77t105 28.5h140v-100h-140q-47 0 -79.5 -33t-32.5 -80v-71h266v-139q0 -59 -33.5 -109t-126.5 -82.5t-258 -29.5v107z" />
    <glyph glyph-name="uE055" unicode="&#xe055;" 
d="M113 1480q51 0 86.5 25t35.5 63q0 49 -28 88t-91 39q-61 0 -104.5 -64.5t-78.5 -150.5h180zM-63.5 1723.5q69.5 89.5 178.5 89.5q107 0 172.5 -72.5t65.5 -172.5q0 -58 -32 -105t-87 -74t-121 -27h-237q-58 0 -111 43t-85.5 109.5t-32.5 131.5v60h118v-60q0 -34 17.5 -69
t41.5 -53q43 110 112.5 199.5z" />
    <glyph glyph-name="farsiyeharab.fina.1" unicode="&#xe056;" horiz-adv-x="1514" 
d="M729 -544q-216 0 -340 82.5t-189 224.5t-65 280q1 176 25 294.5t70 243.5l192 -78q-28 -76 -54 -183t-26 -251q1 -165 75 -283.5t304 -120.5h241q155 0 255 59t100 184q0 48 -29.5 76t-74.5 29h-435v207h736v-220h-28q33 -32 33 -85q-1 -117 -62 -220t-186.5 -171
t-308.5 -68h-233z" />
    <glyph glyph-name="yeharab.fina.1" unicode="&#xe057;" horiz-adv-x="1514" 
d="M729 -544q-216 0 -340 82.5t-189 224.5t-65 280q1 176 25 294.5t70 243.5l192 -78q-28 -76 -54 -183t-26 -251q1 -165 75 -283.5t304 -120.5h241q155 0 255 59t100 184q0 48 -29.5 76t-74.5 29h-435v207h736v-220h-28q33 -32 33 -85q-1 -117 -62 -220t-186.5 -171
t-308.5 -68h-233zM508 -952q-1 90 0 186h310q9 -60 9 -94.5t-9 -91.5h-310zM810 -952q-9 57 -9 91.5t9 94.5h310q1 -95 0 -186h-310z" />
    <glyph glyph-name="farsiyeharab_u0654" unicode="&#xe058;" horiz-adv-x="1514" 
d="M729 -544q-216 0 -340 82.5t-189 224.5t-65 280q1 176 25 294.5t70 243.5l192 -78q-28 -76 -54 -183t-26 -251q1 -165 75 -283.5t304 -120.5h241q155 0 255 59t100 184q0 48 -29.5 76t-74.5 29h-435v207h736v-220h-28q33 -32 33 -85q-1 -117 -62 -220t-186.5 -171
t-308.5 -68h-233zM121 841l119 48q-50 18 -83.5 68.5t-33.5 107.5q0 60 28.5 112t81 84t120.5 32q41 0 75 -10.5t73 -30.5l-29 -98q-68 32 -120 32q-51 -1 -86.5 -37t-35.5 -84q0 -49 36.5 -84.5t92.5 -45.5l194 77v-115l-432 -172v116z" />
    <glyph glyph-name="uE059" unicode="&#xe059;" horiz-adv-x="1024" 
d="M400 220q49 0 90 24t65 65t24 90v338h207v-338q0 -49 24 -90t65 -65t90 -24h59v-220h-59q-94 0 -166 43.5t-117 120.5q-44 -77 -116 -120.5t-166 -43.5h-400q-41 25 -55.5 67.5t0 85t55.5 67.5h400zM-19 -515q-1 90 0 186h310q9 -60 9 -94.5t-9 -91.5h-310zM283 -515
q-9 57 -9 91.5t9 94.5h310q1 -95 0 -186h-310zM538 954l-298 345l150 3l192 -219l192 219l150 -3l-298 -345h-88z" />
    <glyph glyph-name="uE060" unicode="&#xe060;" horiz-adv-x="819" 
d="M290 220q49 0 90 24t65 65t24 90v338h207v-363q0 -102 -51.5 -188t-140 -136t-194.5 -50h-290q-41 25 -55.5 67.5t0 85t55.5 67.5h290z" />
    <glyph glyph-name="uE061" unicode="&#xe061;" horiz-adv-x="935" 
d="M312 220q48 0 89.5 24t65.5 65t24 90v338h207v-338q0 -49 24 -90t65 -65t90 -24h59v-220h-59q-94 0 -166 43.5t-117 120.5q-44 -77 -116.5 -120.5t-165.5 -43.5h-312q-41 25 -55.5 67.5t0 85t55.5 67.5h312z" />
    <glyph glyph-name="uE062" unicode="&#xe062;" horiz-adv-x="935" 
d="M312 220q48 0 89.5 24t65.5 65t24 90v338h207v-338q0 -49 24 -90t65 -65t90 -24h59v-220h-59q-94 0 -166 43.5t-117 120.5q-44 -77 -116.5 -120.5t-165.5 -43.5h-312q-41 25 -55.5 67.5t0 85t55.5 67.5h312zM14 -515q-1 90 0 186h310q9 -60 9 -94.5t-9 -91.5h-310z
M316 -515q-9 57 -9 91.5t9 94.5h310q1 -95 0 -186h-310zM450 954l-298 345l150 3l192 -219l192 219l150 -3l-298 -345h-88z" />
    <glyph glyph-name="uE066" unicode="&#xe066;" horiz-adv-x="1479" 
d="M178 916q-22 81 -2 161t76 141t136 88q81 26 163 9t146.5 -71t93.5 -134l86 -233l279 465l177 -106l-391 -652l-187 18l-159 437q-15 44 -58.5 64.5t-87.5 4.5q-42 -16 -63 -55.5t-10 -82.5l251 -916l-200 -54z" />
    <glyph glyph-name="uE067" unicode="&#xe067;" horiz-adv-x="1279" 
d="M161 248q23 323 205 614.5t324 452.5q1 1 2 1l153 -139l-2 -3q-126 -143 -286.5 -397t-186.5 -525q129 -38 280.5 -32t303.5 57l98 32l66 -196l-98 -32q-186 -62 -380 -68.5t-363 50.5z" />
    <glyph glyph-name="uniE069" unicode="&#xe069;" horiz-adv-x="670" 
d="M53 220q48 0 89 24t65.5 65t24.5 90v795h207v-795q0 -49 24 -90t65 -65t90 -24h52v-220h-52q-94 0 -166 43.5t-117 120.5q-45 -77 -117 -120.5t-165 -43.5h-53q-41 25 -55.5 67.5t0 85t55.5 67.5h53z" />
    <glyph glyph-name="uE070" unicode="&#xe070;" horiz-adv-x="863" 
d="M336 220q48 0 89 24t65 65t24 90v338h207v-363q0 -102 -51.5 -188t-140.5 -136t-193 -50h-336q-41 25 -55.5 67.5t0 85t55.5 67.5h336zM-186 -461q-1 97 0 186h310q9 -54 9 -88.5t-8 -97.5h-311zM116 -461q-9 63 -9 97.5t9 88.5h311v-186h-311zM9 -799v184h222
q1 -92 0 -184h-222z" />
    <glyph glyph-name="uE071" unicode="&#xe071;" horiz-adv-x="951" 
d="M336 220q48 0 89 24t65 65t24 90v338h208l-1 -338q0 -49 24 -90t65 -65t90 -24h51v-220h-51q-93 0 -165 43.5t-117 120.5q-45 -77 -117 -120.5t-165 -43.5h-336q-41 25 -55.5 67.5t0 85t55.5 67.5h336zM-195 -461q-1 97 0 186h310q9 -54 9 -88.5t-8 -97.5h-311zM107 -461
q-9 63 -9 97.5t9 88.5h311v-186h-311zM0 -799v184h222q1 -92 0 -184h-222z" />
    <glyph glyph-name="uE072" unicode="&#xe072;" horiz-adv-x="863" 
d="M336 220q48 0 89 24t65 65t24 90v338h207v-363q0 -102 -51.5 -188t-140.5 -136t-193 -50h-336q-41 25 -55.5 67.5t0 85t55.5 67.5h336zM-186 -515q-1 90 0 186h310q9 -60 9 -94.5t-9 -91.5h-310zM116 -515q-9 57 -9 91.5t9 94.5h310q1 -95 0 -186h-310z" />
    <glyph glyph-name="uE073" unicode="&#xe073;" horiz-adv-x="951" 
d="M336 220q48 0 89 24t65 65t24 90v338h208l-1 -338q0 -49 24 -90t65 -65t90 -24h51v-220h-51q-93 0 -165 43.5t-117 120.5q-45 -77 -117 -120.5t-165 -43.5h-336q-41 25 -55.5 67.5t0 85t55.5 67.5h336zM-195 -515q-1 90 0 186h310q9 -60 9 -94.5t-9 -91.5h-310zM107 -515
q-9 57 -9 91.5t9 94.5h310q1 -95 0 -186h-310z" />
    <glyph glyph-name="uE074" unicode="&#xe074;" horiz-adv-x="863" 
d="M336 220q48 0 89 24t65 65t24 90v338h207v-363q0 -102 -51.5 -188t-140.5 -136t-193 -50h-336q-41 25 -55.5 67.5t0 85t55.5 67.5h336zM-186 -515q-1 90 0 186h310q9 -60 9 -94.5t-9 -91.5h-310zM116 -515q-9 57 -9 91.5t9 94.5h310q1 -95 0 -186h-310zM474 1000
l-298 345l150 3l192 -219l192 219l150 -3l-298 -345h-88z" />
    <glyph glyph-name="uE075" unicode="&#xe075;" horiz-adv-x="951" 
d="M336 220q48 0 89 24t65 65t24 90v338h208l-1 -338q0 -49 24 -90t65 -65t90 -24h51v-220h-51q-93 0 -165 43.5t-117 120.5q-45 -77 -117 -120.5t-165 -43.5h-336q-41 25 -55.5 67.5t0 85t55.5 67.5h336zM-195 -515q-1 90 0 186h310q9 -60 9 -94.5t-9 -91.5h-310zM107 -515
q-9 57 -9 91.5t9 94.5h310q1 -95 0 -186h-310zM465 979l-298 345l150 3l192 -219l192 219l150 -3l-298 -345h-88z" />
    <glyph glyph-name="uE076" unicode="&#xe076;" horiz-adv-x="863" 
d="M336 220q48 0 89 24t65 65t24 90v338h207v-363q0 -102 -51.5 -188t-140.5 -136t-193 -50h-336q-41 25 -55.5 67.5t0 85t55.5 67.5h336z" />
    <glyph glyph-name="uE077" unicode="&#xe077;" horiz-adv-x="951" 
d="M336 220q48 0 89 24t65 65t24 90v338h208l-1 -338q0 -49 24 -90t65 -65t90 -24h51v-220h-51q-93 0 -165 43.5t-117 120.5q-45 -77 -117 -120.5t-165 -43.5h-336q-41 25 -55.5 67.5t0 85t55.5 67.5h336z" />
    <glyph glyph-name="uE078" unicode="&#xe078;" horiz-adv-x="1885" 
d="M1532 377.5q22 93.5 22 181.5q0 74 -31 126t-80.5 77.5t-103.5 25.5q-87 -1 -149.5 -60.5t-65.5 -149.5q0 -60 32 -126.5t107 -120.5t195 -72q52 25 74 118.5zM528 0q-105 0 -193.5 50t-140.5 136t-52 188v335h207v-310q0 -49 24 -90t65 -65t90 -24h441q199 0 236 6
q-99 18 -162 77.5t-90.5 133t-27.5 137.5q-1 111 56 206t152.5 150.5t205.5 54.5q112 0 207 -54.5t151 -152.5t56 -221q0 -177 -49 -302.5t-136.5 -190t-200.5 -64.5h-839z" />
    <glyph glyph-name="uE079" unicode="&#xe079;" horiz-adv-x="1119" 
d="M766 377.5q22 93.5 22 181.5q0 74 -31 126t-80.5 77.5t-103.5 25.5q-87 -1 -149.5 -60.5t-65.5 -149.5q0 -60 32 -126.5t107 -120.5t195 -72q52 25 74 118.5zM-55.5 67.5q-14.5 42.5 0 85t55.5 67.5h178q216 0 261 6q-99 18 -162 77.5t-90.5 133t-27.5 137.5
q-1 111 56 206t152.5 150.5t205.5 54.5q112 0 207 -54.5t151 -152.5t56 -221q0 -177 -49 -302.5t-136.5 -190t-200.5 -64.5h-601q-41 25 -55.5 67.5z" />
    <glyph glyph-name="uE080" unicode="&#xe080;" horiz-adv-x="862" 
d="M-36 -341l213 45q95 18 172 73t120.5 135t43.5 169v656h208l-1 -669q0 -146 -63.5 -267.5t-179 -204t-267.5 -112.5l-199 -40z" />
    <glyph glyph-name="uE081" unicode="&#xe081;" horiz-adv-x="1008" 
d="M824.5 35.5q-61.5 35.5 -104.5 97.5v-85q-9 -217 -146 -366.5t-364 -197.5l-199 -40l-47 215l213 45q95 18 172 73t120.5 135t43.5 169v656h208l-1 -288q2 -63 34 -115.5t85.5 -83t116.5 -30.5h51v-220h-51q-70 0 -131.5 35.5z" />
    <glyph glyph-name="uE082" unicode="&#xe082;" horiz-adv-x="862" 
d="M-36 -341l213 45q95 18 172 73t120.5 135t43.5 169v656h208l-1 -669q0 -146 -63.5 -267.5t-179 -204t-267.5 -112.5l-199 -40zM494 998v199h246v-199h-246z" />
    <glyph glyph-name="uE083" unicode="&#xe083;" horiz-adv-x="1008" 
d="M824.5 35.5q-61.5 35.5 -104.5 97.5v-85q-9 -217 -146 -366.5t-364 -197.5l-199 -40l-47 215l213 45q95 18 172 73t120.5 135t43.5 169v656h208l-1 -288q2 -63 34 -115.5t85.5 -83t116.5 -30.5h51v-220h-51q-70 0 -131.5 35.5zM494 998v199h246v-199h-246z" />
    <glyph glyph-name="uE084" unicode="&#xe084;" horiz-adv-x="862" 
d="M-36 -341l213 45q95 18 172 73t120.5 135t43.5 169v656h208l-1 -669q0 -146 -63.5 -267.5t-179 -204t-267.5 -112.5l-199 -40zM311 998q-1 89 0 185h311q8 -62 8 -96.5t-9 -88.5h-310zM613 998q-9 54 -9 88.5t9 96.5h311v-185h-311zM506 1336v184q111 -1 222 0
q1 -91 0 -184h-222z" />
    <glyph glyph-name="uE085" unicode="&#xe085;" horiz-adv-x="1008" 
d="M824.5 35.5q-61.5 35.5 -104.5 97.5v-85q-9 -217 -146 -366.5t-364 -197.5l-199 -40l-47 215l213 45q95 18 172 73t120.5 135t43.5 169v656h208l-1 -288q2 -63 34 -115.5t85.5 -83t116.5 -30.5h51v-220h-51q-70 0 -131.5 35.5zM311 998q-1 89 0 185h311q8 -62 8 -96.5
t-9 -88.5h-310zM613 998q-9 54 -9 88.5t9 96.5h311v-185h-311zM506 1336v184q111 -1 222 0q1 -91 0 -184h-222z" />
    <glyph glyph-name="uE086" unicode="&#xe086;" horiz-adv-x="862" 
d="M-36 -341l213 45q95 18 172 73t120.5 135t43.5 169v656h208l-1 -669q0 -146 -63.5 -267.5t-179 -204t-267.5 -112.5l-199 -40zM675 1115q52 0 87.5 25.5t35.5 62.5q0 49 -28 88.5t-91 39.5q-61 0 -105.5 -66.5t-74.5 -149.5h176zM380 1652h119v-313q82 110 180 110
q107 0 172 -73t65 -173q0 -57 -31.5 -104t-86.5 -74.5t-123 -27.5h-357v118h55q0 1 1 2q3 16 6 27v508z" />
    <glyph glyph-name="uE087" unicode="&#xe087;" horiz-adv-x="1008" 
d="M824.5 35.5q-61.5 35.5 -104.5 97.5v-85q-9 -217 -146 -366.5t-364 -197.5l-199 -40l-47 215l213 45q95 18 172 73t120.5 135t43.5 169v656h208l-1 -288q2 -63 34 -115.5t85.5 -83t116.5 -30.5h51v-220h-51q-70 0 -131.5 35.5zM675 1115q52 0 87.5 25.5t35.5 62.5
q0 49 -28 88.5t-91 39.5q-61 0 -105.5 -66.5t-74.5 -149.5h176zM380 1652h119v-313q82 110 180 110q107 0 172 -73t65 -173q0 -57 -31.5 -104t-86.5 -74.5t-123 -27.5h-357v118h55q0 1 1 2q3 16 6 27v508z" />
    <glyph glyph-name="uE088" unicode="&#xe088;" horiz-adv-x="862" 
d="M-36 -341l213 45q95 18 172 73t120.5 135t43.5 169v656h208l-1 -669q0 -146 -63.5 -267.5t-179 -204t-267.5 -112.5l-199 -40zM312 -1131l-298 345l150 3l192 -219l192 219l150 -3l-298 -345h-88z" />
    <glyph glyph-name="uE089" unicode="&#xe089;" horiz-adv-x="1008" 
d="M824.5 35.5q-61.5 35.5 -104.5 97.5v-85q-9 -217 -146 -366.5t-364 -197.5l-199 -40l-47 215l213 45q95 18 172 73t120.5 135t43.5 169v656h208l-1 -288q2 -63 34 -115.5t85.5 -83t116.5 -30.5h51v-220h-51q-70 0 -131.5 35.5zM312 -1131l-298 345l150 3l192 -219
l192 219l150 -3l-298 -345h-88z" />
    </font>
</defs>
</svg>
